<svg width="256" height="256" viewBox="0 0 256 256" fill="none" xmlns="http://www.w3.org/2000/svg">
<path d="M231.297 199.502C227.426 208.446 222.843 216.678 217.534 224.248C210.297 234.566 204.371 241.709 199.804 245.675C192.725 252.186 185.14 255.52 177.018 255.709C171.187 255.709 164.155 254.05 155.969 250.684C147.757 247.334 140.21 245.675 133.309 245.675C126.072 245.675 118.31 247.334 110.008 250.684C101.693 254.05 94.9944 255.804 89.873 255.978C82.0842 256.31 74.3207 252.881 66.5715 245.675C61.6254 241.361 55.439 233.966 48.0279 223.489C40.0763 212.301 33.539 199.328 28.4176 184.537C22.9328 168.561 20.1832 153.091 20.1832 138.114C20.1832 120.958 23.8904 106.161 31.3157 93.7611C37.1514 83.8011 44.9149 75.9444 54.6315 70.1767C64.3481 64.4089 74.8469 61.4698 86.1533 61.2817C92.3397 61.2817 100.452 63.1954 110.534 66.9562C120.587 70.7297 127.042 72.6434 129.873 72.6434C131.988 72.6434 139.159 70.4058 151.316 65.9449C162.812 61.8079 172.514 60.095 180.462 60.7697C202.001 62.508 218.182 70.9984 228.943 86.2947C209.68 97.966 200.152 114.313 200.341 135.284C200.515 151.619 206.441 165.211 218.087 176.004C223.365 181.013 229.259 184.885 235.817 187.634C234.395 191.759 232.893 195.709 231.297 199.502V199.502ZM181.9 5.12146C181.9 17.9244 177.223 29.8784 167.9 40.943C156.649 54.0966 143.04 61.6973 128.283 60.498C128.095 58.962 127.986 57.3455 127.986 55.6467C127.986 43.3559 133.336 30.2024 142.838 19.4475C147.582 14.0022 153.615 9.47443 160.931 5.86256C168.232 2.30459 175.137 0.33695 181.632 0C181.821 1.71155 181.9 3.42321 181.9 5.12129V5.12146Z" fill="black"/>
</svg>
