<svg width="256" height="256" viewBox="0 0 256 256" fill="none" xmlns="http://www.w3.org/2000/svg">
<path d="M64.0345 107.074C67.4769 118.488 71.644 129.194 76.1734 139.521C83.964 158.018 89.2182 167.801 96.4817 179.94C105.359 194.434 115.159 210.938 131.284 221.627C143.061 229.418 157.39 233.404 171.16 233.404C190.562 233.404 207.23 224.889 217.936 214.907C228.445 205.124 242.049 186.265 242.049 149.469C242.049 136.787 247.666 125.9 251.833 117.203C251.833 117.022 252.014 116.66 252.376 115.935C254.007 112.312 256 107.601 256 102.89C256 99.4481 255.094 95.4622 252.739 92.0199C249.115 85.8598 242.593 83.6857 236.598 83.6857C222.647 83.6857 213.028 93.4693 208.136 103.45L206.506 106.712C204.513 103.813 202.52 100.733 200.889 98.0152C195.816 89.1375 192.917 83.1586 190.381 75.5327C188.388 69.5539 186.757 62.6692 185.67 57.0362C182.59 39.2644 177.517 33.4667 169.167 31.2926C163.007 29.662 155.76 30.9302 150.489 34.3726C146.882 26.2196 140.722 22.5961 132.552 22.5961C120.957 22.5961 110.432 30.2055 110.432 43.0856C110.432 44.7162 110.614 46.3467 110.795 48.3397C109.345 47.9773 107.715 47.7962 106.084 47.7962C93.5829 47.7962 84.3264 56.4927 84.3264 68.2856C84.3264 71.0033 84.6887 74.0833 85.5946 77.7069C84.5076 77.5257 83.4205 77.5257 82.3334 77.5257C76.1734 77.888 70.5569 80.2433 66.5546 85.1351C62.5851 89.8457 60.9545 97.0928 64.0345 107.074Z" fill="#1F1F1F"/>
<path d="M74.3616 103.813C72.731 98.5587 72.9122 94.5728 74.9052 92.0364C76.8981 89.6811 79.6158 88.594 82.877 88.4128C88.4935 88.2316 90.6676 92.2175 93.9288 102.545C95.9217 109.067 99.9076 118.505 102.263 123.759C105.343 130.1 109.691 138.615 111.684 141.531C113.315 144.067 114.764 144.792 116.395 144.792C119.294 144.792 121.468 143.161 121.468 140.262C121.468 138.632 119.837 135.914 118.931 134.284C117.301 131.204 113.858 125.044 111.503 119.789C108.966 113.992 106.068 106.745 103.712 100.206C102.263 96.4011 100.632 90.9658 99.0017 85.5305C96.4652 77.1963 95.197 72.1233 95.197 68.3022C95.197 62.5045 99.5453 58.6998 106.068 58.6998C110.778 58.6998 113.858 61.0551 115.851 69.5704C117.482 77.361 120.381 90.0599 124.548 100.025C127.265 106.547 131.251 115.26 133.607 119.608C135.056 122.145 136.687 124.319 136.687 125.225C136.687 126.493 134.331 128.486 132.338 131.204C131.07 132.834 130.527 133.921 130.527 135.189C130.527 136.277 131.251 137.364 132.338 138.813C133.425 140.262 134.512 141.712 135.781 141.712C136.687 141.712 137.23 141.349 137.774 140.625C143.39 133.559 149.55 128.667 156.633 124.665C164.967 119.954 173.498 117.599 180.202 116.149C183.463 115.425 184.369 114.7 184.369 112.888C184.369 110.714 182.739 109.446 180.564 109.265C178.934 109.083 177.484 109.265 174.948 109.446C173.136 109.627 172.23 108.721 171.143 106.366C167.882 99.4811 161.541 87.8693 157.736 73.0128C156.105 66.6716 154.656 59.968 153.75 51.255C153.207 47.2691 153.931 45.8197 155.924 44.0079C158.461 41.8338 162.99 40.9279 166.433 41.8338C170.6 42.9209 172.774 46.1821 174.948 58.8809C176.035 64.8598 177.847 72.4692 180.021 79.0081C182.739 87.3422 186.181 94.2434 191.435 103.483C194.334 108.556 197.957 113.811 201.762 118.9C201.037 121.074 199.769 122.524 195.602 125.966C191.435 129.408 187.268 133.032 183.463 139.735C180.746 144.627 179.477 150.062 179.477 153.686C179.477 157.128 180.202 157.853 182.376 157.853C186.181 157.853 189.261 157.128 189.442 155.498C190.348 148.975 191.435 144.808 195.059 139.9C197.233 137.182 201.037 133.74 204.117 131.022C209.915 126.312 211.908 123.594 213.901 116.891C214.807 113.811 215.894 110.912 217.343 108.194C220.786 101.853 226.946 94.6058 236.565 94.6058C239.645 94.6058 242.181 95.5117 243.812 98.0481C244.718 99.4976 245.08 101.491 245.08 102.94C245.08 106.201 242.725 110.731 241.638 112.905C237.652 121.42 231.129 134.481 231.129 149.519C231.129 182.328 219.534 198.651 210.459 206.985C201.581 215.319 187.614 222.583 171.127 222.583C159.35 222.583 147.195 219.14 137.23 212.618C123.279 203.378 114.566 188.867 105.689 174.373C98.6229 162.597 93.7311 153.34 86.1052 135.404C81.8064 125.011 77.804 114.865 74.3616 103.813Z" fill="#FFE450"/>
<path d="M120.957 43.0855C120.957 36.2007 127.298 33.4831 132.552 33.4831C138.168 33.4831 140.161 36.2007 141.611 41.9984C142.879 46.709 143.423 51.0573 143.966 56.1302C144.691 61.2032 147.227 72.815 147.952 75.7138C150.67 85.6786 156.105 97.4716 162.627 111.603C158.823 112.872 153.75 115.046 150.307 116.858C145.959 119.213 145.053 119.213 143.241 115.77C139.437 108.705 136.719 103.45 134.364 97.2739C132.371 92.201 130.378 86.4033 128.747 79.6833C126.03 68.2691 125.667 65.0079 123.493 59.7373C122.225 54.3185 120.957 47.6149 120.957 43.0855Z" fill="#FFE450"/>
<path d="M56.0622 164.441C52.2246 166.813 31.8833 177.47 27.288 179.166C24.0103 180.385 20.4527 180.088 18.3609 173.895C15.7915 166.237 19.3986 164.425 24.5374 162.432C29.0833 160.67 47.9422 153.851 52.3234 152.665C55.4034 151.841 57.5446 152.879 59.0269 156.585C60.6575 160.653 59.5375 162.284 56.0622 164.441Z" fill="#1F1F1F"/>
<path d="M39.295 121.272C33.8268 121.42 11.1138 120.448 5.9255 119.938C1.41254 119.493 -0.415702 117.5 0.0784179 110.961C0.605479 103.945 3.33961 103.516 7.77021 103.945C12.9091 104.439 36.7091 108.309 40.4974 109.479C44.4174 110.698 44.9609 112.476 44.4833 115.902C43.8739 120.349 41.8645 121.189 39.295 121.272Z" fill="#1F1F1F"/>
<path d="M42.1117 75.2857C35.8529 73.3092 17.274 62.0598 12.4316 59.161C8.0504 56.5256 7.4904 54.1539 10.5375 48.3727C13.2387 43.2668 16.2363 42.3774 20.6834 44.6832C25.8387 47.368 44.0388 61.5327 47.5141 64.3327C50.8741 67.0339 50.4129 68.4339 48.6506 71.9092C46.8882 75.3845 45.2411 76.274 42.1117 75.2857Z" fill="#1F1F1F"/>
</svg>
