<svg width="256" height="256" viewBox="0 0 256 256" fill="none" xmlns="http://www.w3.org/2000/svg">
<path d="M216.715 46.6109C200.398 39.1242 182.901 33.6083 164.607 30.4491C164.274 30.3881 163.941 30.5405 163.769 30.8452C161.519 34.8475 159.026 40.0688 157.281 44.1728C137.604 41.227 118.029 41.227 98.7554 44.1728C97.0096 39.9776 94.4265 34.8475 92.1661 30.8452C91.9945 30.5506 91.6617 30.3983 91.3285 30.4491C73.0444 33.5982 55.5473 39.1141 39.2206 46.6109C39.0793 46.6718 38.9582 46.7735 38.8777 46.9055C5.68951 96.488 -3.40214 144.852 1.05792 192.616C1.0781 192.85 1.20928 193.073 1.39091 193.215C23.2876 209.296 44.4982 219.058 65.315 225.529C65.6481 225.63 66.0011 225.508 66.2131 225.234C71.1374 218.51 75.5269 211.419 79.2904 203.963C79.5125 203.526 79.3005 203.008 78.8466 202.835C71.8841 200.194 65.2544 196.974 58.8771 193.317C58.3727 193.022 58.3323 192.301 58.7964 191.955C60.1384 190.95 61.4807 189.903 62.7622 188.847C62.994 188.654 63.3171 188.613 63.5897 188.735C105.486 207.864 150.843 207.864 192.245 188.735C192.517 188.603 192.84 188.644 193.082 188.837C194.364 189.893 195.706 190.95 197.058 191.955C197.522 192.301 197.492 193.022 196.988 193.317C190.61 197.045 183.981 200.194 177.008 202.825C176.554 202.998 176.352 203.526 176.574 203.963C180.419 211.409 184.808 218.499 189.642 225.224C189.843 225.508 190.207 225.63 190.54 225.529C211.457 219.058 232.668 209.296 254.565 193.215C254.756 193.073 254.878 192.86 254.898 192.626C260.236 137.405 245.957 89.4383 217.048 46.9156C216.977 46.7735 216.856 46.6718 216.715 46.6109ZM85.5469 163.533C72.9333 163.533 62.5401 151.952 62.5401 137.731C62.5401 123.509 72.7318 111.929 85.5469 111.929C98.4626 111.929 108.755 123.611 108.553 137.731C108.553 151.952 98.3617 163.533 85.5469 163.533ZM170.611 163.533C157.997 163.533 147.604 151.952 147.604 137.731C147.604 123.509 157.796 111.929 170.611 111.929C183.527 111.929 193.819 123.611 193.617 137.731C193.617 151.952 183.527 163.533 170.611 163.533Z" fill="#5865F2"/>
</svg>
