<svg width="256" height="256" viewBox="0 0 256 256" fill="none" xmlns="http://www.w3.org/2000/svg">
<path d="M128 252C196.483 252 252 196.483 252 128C252 59.5167 196.483 4 128 4C59.5167 4 4 59.5167 4 128C4 196.483 59.5167 252 128 252Z" fill="#EA4C89"/>
<path fill-rule="evenodd" clip-rule="evenodd" d="M128 0C57.3362 0 0 57.3362 0 128C0 198.664 57.3362 256 128 256C198.525 256 256 198.664 256 128C256 57.3362 198.525 0 128 0ZM212.546 59.0022C227.818 77.6052 236.981 101.345 237.258 127.028C233.649 126.334 197.553 118.976 161.18 123.558C160.347 121.753 159.653 119.809 158.82 117.866C156.598 112.59 154.1 107.176 151.601 102.039C191.861 85.6576 210.186 62.0564 212.546 59.0022ZM128 18.8807C155.766 18.8807 181.171 29.2929 200.469 46.3688C198.525 49.1454 182.004 71.2191 143.132 85.796C125.223 52.8937 105.371 25.961 102.317 21.7961C110.507 19.8525 119.115 18.8807 128 18.8807ZM81.4928 29.154C84.408 33.0412 103.844 60.1128 122.03 92.3208C70.9414 105.926 25.8222 105.649 20.9631 105.649C28.0434 71.7744 50.9501 43.5922 81.4928 29.154ZM18.603 128.139C18.603 127.028 18.603 125.918 18.603 124.807C23.3232 124.946 76.3558 125.64 130.915 109.258C134.109 115.366 137.024 121.614 139.801 127.861C138.412 128.278 136.885 128.694 135.497 129.11C79.1323 147.297 49.1454 196.998 46.6464 201.162C29.2928 181.866 18.603 156.182 18.603 128.139ZM128 237.397C102.733 237.397 79.41 228.79 60.9458 214.351C62.8894 210.326 85.1016 167.566 146.742 146.048C147.019 145.909 147.158 145.909 147.436 145.77C162.846 185.614 169.094 219.071 170.759 228.65C157.57 234.342 143.132 237.397 128 237.397ZM188.946 218.655C187.835 211.991 182.004 180.061 167.705 140.772C201.996 135.358 231.982 144.243 235.731 145.493C231.011 175.896 213.518 202.134 188.946 218.655Z" fill="#C32361"/>
</svg>
