<svg width="256" height="256" viewBox="0 0 256 256" fill="none" xmlns="http://www.w3.org/2000/svg">
<g clip-path="url(#clip0_17_24)">
<path d="M256 128C256 57.3075 198.693 0 128 0C57.3075 0 0 57.3075 0 128C0 191.888 46.8075 244.843 108 254.445V165H75.5V128H108V99.8C108 67.72 127.11 50 156.348 50C170.348 50 185 52.5 185 52.5V84H168.86C152.96 84 148 93.8675 148 104V128H183.5L177.825 165H148V254.445C209.193 244.843 256 191.888 256 128Z" fill="#1877F2"/>
<path d="M177.825 165L183.5 128H148V104C148 93.8775 152.96 84 168.86 84H185V52.5C185 52.5 170.353 50 156.348 50C127.11 50 108 67.72 108 99.8V128H75.5V165H108V254.445C121.253 256.518 134.747 256.518 148 254.445V165H177.825Z" fill="white"/>
</g>
<defs>
<clipPath id="clip0_17_24">
<rect width="256" height="256" fill="white"/>
</clipPath>
</defs>
</svg>
