<svg width="256" height="256" viewBox="0 0 256 256" fill="none" xmlns="http://www.w3.org/2000/svg">
<path d="M85.334 256C108.886 256 128.001 236.885 128.001 213.333V170.666H85.334C61.7818 170.666 42.6667 189.781 42.6667 213.333C42.6667 236.885 61.7818 256 85.334 256Z" fill="#0ACF83"/>
<path d="M42.6667 128C42.6667 104.448 61.7818 85.3328 85.334 85.3328H128.001V170.666H85.334C61.7818 170.667 42.6667 151.552 42.6667 128Z" fill="#A259FF"/>
<path d="M42.6667 42.667C42.6667 19.115 61.7818 0 85.334 0H128.001V85.333H85.334C61.7818 85.333 42.6667 66.219 42.6667 42.667Z" fill="#F24E1E"/>
<path d="M127.999 0H170.666C194.218 0 213.333 19.115 213.333 42.667C213.333 66.219 194.218 85.333 170.666 85.333H127.999V0Z" fill="#FF7262"/>
<path d="M213.333 128C213.333 151.552 194.218 170.667 170.666 170.667C147.114 170.667 127.999 151.552 127.999 128C127.999 104.448 147.114 85.3328 170.666 85.3328C194.218 85.3328 213.333 104.448 213.333 128Z" fill="#1ABCFE"/>
</svg>
