<svg width="256" height="256" viewBox="0 0 256 256" fill="none" xmlns="http://www.w3.org/2000/svg">
<path fill-rule="evenodd" clip-rule="evenodd" d="M128.106 2.13293C57.2667 2.13293 0 59.8218 0 131.191C0 188.24 36.6927 236.531 87.5952 253.622C93.9594 254.907 96.2905 250.845 96.2905 247.428C96.2905 244.437 96.0807 234.181 96.0807 223.495C60.4448 231.189 53.0239 208.111 53.0239 208.111C47.297 193.154 38.8115 189.31 38.8115 189.31C27.1478 181.404 39.6611 181.404 39.6611 181.404C52.5991 182.258 59.388 194.651 59.388 194.651C70.8393 214.307 89.2918 208.753 96.7153 205.334C97.7747 197.001 101.17 191.232 104.776 188.027C76.3538 185.035 46.45 173.925 46.45 124.352C46.45 110.25 51.5371 98.7119 59.5978 89.7387C58.326 86.5343 53.8709 73.2842 60.8722 55.5502C60.8722 55.5502 71.6889 52.1308 96.0781 68.7976C106.52 65.9726 117.289 64.5355 128.106 64.5234C138.923 64.5234 149.949 66.0207 160.131 68.7976C184.523 52.1308 195.34 55.5502 195.34 55.5502C202.341 73.2842 197.883 86.5343 196.611 89.7387C204.884 98.7119 209.762 110.25 209.762 124.352C209.762 173.925 179.858 184.82 151.223 188.027C155.891 192.087 159.919 199.777 159.919 211.958C159.919 229.264 159.709 243.154 159.709 247.426C159.709 250.845 162.043 254.907 168.404 253.625C219.307 236.528 255.999 188.24 255.999 131.191C256.209 59.8218 198.733 2.13293 128.106 2.13293Z" fill="#24292F"/>
</svg>
