<svg width="256" height="256" viewBox="0 0 256 256" fill="none" xmlns="http://www.w3.org/2000/svg">
<path d="M130.559 104.727V154.298H199.446C196.422 170.24 187.344 183.738 173.73 192.815L215.271 225.048C239.475 202.707 253.439 169.892 253.439 130.91C253.439 121.834 252.624 113.106 251.111 104.728L130.559 104.727Z" fill="#4285F4"/>
<path d="M58.8245 152.363L49.4553 159.535L16.2911 185.367C37.3529 227.141 80.5206 256 130.557 256C165.116 256 194.09 244.596 215.269 225.048L173.727 192.815C162.323 200.495 147.778 205.15 130.557 205.15C97.2768 205.15 69.0012 182.692 58.8769 152.437L58.8245 152.363Z" fill="#34A853"/>
<path d="M16.2913 70.6327C7.56445 87.8538 2.56134 107.287 2.56134 127.999C2.56134 148.712 7.56445 168.145 16.2913 185.366C16.2913 185.481 58.8811 152.318 58.8811 152.318C56.3211 144.638 54.8079 136.494 54.8079 127.998C54.8079 119.502 56.3211 111.357 58.8811 103.677L16.2913 70.6327Z" fill="#FBBC05"/>
<path d="M130.559 50.9672C149.41 50.9672 166.166 57.4834 179.548 70.0509L216.202 33.3968C193.977 12.6844 165.12 0 130.559 0C80.5232 0 37.3529 28.7418 16.2911 70.6328L58.8797 103.68C69.0027 73.4252 97.2794 50.9672 130.559 50.9672Z" fill="#EA4335"/>
</svg>
