<svg width="256" height="256" viewBox="0 0 256 256" fill="none" xmlns="http://www.w3.org/2000/svg">
<g clip-path="url(#clip0_17_27)">
<path d="M128.075 23.0545C162.282 23.0545 166.332 23.2045 179.785 23.8046C192.288 24.3548 199.039 26.4552 203.54 28.2055C209.491 30.506 213.792 33.3065 218.243 37.7574C222.743 42.2583 225.494 46.5091 227.794 52.4602C229.545 56.9611 231.645 63.7625 232.195 76.2149C232.795 89.7175 232.945 93.7683 232.945 127.925C232.945 162.132 232.795 166.182 232.195 179.635C231.645 192.138 229.545 198.889 227.794 203.39C225.494 209.341 222.693 213.642 218.243 218.093C213.742 222.593 209.491 225.344 203.54 227.644C199.039 229.395 192.238 231.495 179.785 232.045C166.282 232.645 162.232 232.795 128.075 232.795C93.8683 232.795 89.8175 232.645 76.3649 232.045C63.8625 231.495 57.1111 229.395 52.6103 227.644C46.6591 225.344 42.3583 222.543 37.9074 218.093C33.4065 213.592 30.656 209.341 28.3555 203.39C26.6052 198.889 24.5048 192.088 23.9547 179.635C23.3545 166.132 23.2045 162.082 23.2045 127.925C23.2045 93.7183 23.3545 89.6675 23.9547 76.2149C24.5048 63.7124 26.6052 56.9611 28.3555 52.4602C30.656 46.5091 33.4565 42.2082 37.9074 37.7574C42.4083 33.2565 46.6591 30.506 52.6103 28.2055C57.1111 26.4552 63.9125 24.3548 76.3649 23.8046C89.8175 23.2045 93.8683 23.0545 128.075 23.0545ZM128.075 0C93.3182 0 88.9674 0.150029 75.3147 0.750147C61.712 1.35026 52.3602 3.55069 44.2586 6.70131C35.807 10.002 28.6556 14.3528 21.5542 21.5042C14.4028 28.6056 10.0519 35.757 6.7513 44.1586C3.60068 52.3102 1.40025 61.612 0.800134 75.2147C0.200017 88.9174 0.0499878 93.2682 0.0499878 128.025C0.0499878 162.782 0.200017 167.133 0.800134 180.785C1.40025 194.388 3.60068 203.74 6.7513 211.841C10.0519 220.293 14.4028 227.444 21.5542 234.546C28.6556 241.647 35.807 246.048 44.2086 249.299C52.3602 252.449 61.662 254.65 75.2647 255.25C88.9173 255.85 93.2682 256 128.025 256C162.782 256 167.133 255.85 180.785 255.25C194.388 254.65 203.74 252.449 211.841 249.299C220.243 246.048 227.394 241.647 234.496 234.546C241.597 227.444 245.998 220.293 249.249 211.891C252.399 203.74 254.6 194.438 255.2 180.835C255.8 167.183 255.95 162.832 255.95 128.075C255.95 93.3182 255.8 88.9674 255.2 75.3147C254.6 61.7121 252.399 52.3602 249.249 44.2586C246.098 35.757 241.747 28.6056 234.596 21.5042C227.494 14.4028 220.343 10.002 211.941 6.75132C203.79 3.6007 194.488 1.40027 180.885 0.800156C167.183 0.150029 162.832 0 128.075 0Z" fill="#000100"/>
<path d="M128.075 62.2622C91.7679 62.2622 62.3122 91.7179 62.3122 128.025C62.3122 164.332 91.7679 193.788 128.075 193.788C164.382 193.788 193.838 164.332 193.838 128.025C193.838 91.7179 164.382 62.2622 128.075 62.2622ZM128.075 170.683C104.52 170.683 85.4167 151.58 85.4167 128.025C85.4167 104.47 104.52 85.3667 128.075 85.3667C151.63 85.3667 170.733 104.47 170.733 128.025C170.733 151.58 151.63 170.683 128.075 170.683Z" fill="#000100"/>
<path d="M211.791 59.6618C211.791 68.1635 204.89 75.0148 196.438 75.0148C187.937 75.0148 181.085 68.1135 181.085 59.6618C181.085 51.1601 187.987 44.3088 196.438 44.3088C204.89 44.3088 211.791 51.2101 211.791 59.6618Z" fill="#000100"/>
</g>
<defs>
<clipPath id="clip0_17_27">
<rect width="256" height="256" fill="white"/>
</clipPath>
</defs>
</svg>
