<svg width="256" height="256" viewBox="0 0 256 256" fill="none" xmlns="http://www.w3.org/2000/svg">
<g clip-path="url(#clip0_17_32)">
<path d="M237.102 0H18.8978C13.8858 0 9.07906 1.99101 5.53503 5.53503C1.99101 9.07906 0 13.8858 0 18.8978V237.102C0 242.114 1.99101 246.921 5.53503 250.465C9.07906 254.009 13.8858 256 18.8978 256H237.102C242.114 256 246.921 254.009 250.465 250.465C254.009 246.921 256 242.114 256 237.102V18.8978C256 13.8858 254.009 9.07906 250.465 5.53503C246.921 1.99101 242.114 0 237.102 0ZM76.3022 218.08H37.8133V95.8222H76.3022V218.08ZM57.0311 78.88C52.6652 78.8554 48.4044 77.5381 44.7865 75.0943C41.1686 72.6505 38.3556 69.1897 36.7027 65.1487C35.0498 61.1077 34.6309 56.6676 35.499 52.3889C36.3671 48.1101 38.4832 44.1843 41.5803 41.107C44.6774 38.0297 48.6167 35.9388 52.901 35.0982C57.1853 34.2576 61.6225 34.705 65.6528 36.3838C69.6831 38.0627 73.1258 40.8978 75.5463 44.5313C77.9668 48.1649 79.2568 52.434 79.2533 56.8C79.2945 59.723 78.7468 62.6244 77.6428 65.3312C76.5388 68.0381 74.9011 70.4949 72.8274 72.5554C70.7537 74.6158 68.2864 76.2377 65.5725 77.3243C62.8587 78.4109 59.9538 78.94 57.0311 78.88ZM218.169 218.187H179.698V151.396C179.698 131.698 171.324 125.618 160.516 125.618C149.102 125.618 137.902 134.222 137.902 151.893V218.187H99.4133V95.9111H136.427V112.853H136.924C140.64 105.333 153.653 92.48 173.511 92.48C194.987 92.48 218.187 105.227 218.187 142.56L218.169 218.187Z" fill="#0A66C2"/>
</g>
<defs>
<clipPath id="clip0_17_32">
<rect width="256" height="256" fill="white"/>
</clipPath>
</defs>
</svg>
