<svg width="256" height="256" viewBox="0 0 256 256" fill="none" xmlns="http://www.w3.org/2000/svg">
<path d="M256 128.001C256 161.914 250.316 189.423 243.303 189.423C236.29 189.423 230.609 161.921 230.609 128.001C230.609 94.081 236.293 66.5797 243.303 66.5797C250.314 66.5797 256 94.0785 256 128.001Z" fill="black"/>
<path d="M223.604 128.001C223.604 165.861 207.441 196.564 187.503 196.564C167.565 196.564 151.403 165.861 151.403 128.001C151.403 90.1418 167.563 59.4384 187.501 59.4384C207.439 59.4384 223.601 90.1319 223.601 128.001" fill="black"/>
<path d="M144.4 128.001C144.4 168.222 112.074 200.828 72.2011 200.828C32.3278 200.828 0 168.215 0 128.001C0 87.7875 32.3254 55.1723 72.2011 55.1723C112.077 55.1723 144.4 87.7802 144.4 128.001Z" fill="black"/>
</svg>
