<svg width="200" height="256" viewBox="0 0 200 256" fill="none" xmlns="http://www.w3.org/2000/svg">
<path d="M128 0C55.906 0 0.00354004 52.8305 0.00354004 124.157C0.00354004 161.468 15.2991 193.723 40.1944 215.994C42.2744 217.85 43.5543 220.474 43.6183 223.29L44.3223 246.073C44.3736 247.75 44.8358 249.388 45.6684 250.844C46.501 252.3 47.6785 253.529 49.0973 254.423C50.5161 255.317 52.1329 255.849 53.8055 255.972C55.4782 256.095 57.1554 255.806 58.6899 255.129L84.0972 243.929C86.2412 242.969 88.6731 242.809 90.945 243.417C102.625 246.617 115.04 248.345 128 248.345C200.094 248.345 255.997 195.515 255.997 124.189C255.997 52.8626 200.094 0 128 0Z" fill="url(#paint0_radial_2307_796)"/>
<path d="M51.1383 160.476L88.7373 100.829C90.1517 98.5836 92.0163 96.6556 94.2134 95.1669C96.4106 93.6782 98.8925 92.6613 101.502 92.1802C104.112 91.699 106.794 91.7643 109.377 92.3717C111.961 92.9792 114.39 94.1157 116.512 95.7094L146.432 118.141C147.767 119.141 149.392 119.679 151.061 119.673C152.729 119.667 154.351 119.118 155.679 118.109L196.062 87.4536C201.438 83.3577 208.478 89.8216 204.894 95.5494L167.263 155.164C165.849 157.409 163.984 159.337 161.787 160.826C159.59 162.315 157.108 163.332 154.498 163.813C151.888 164.294 149.207 164.229 146.623 163.621C144.04 163.014 141.61 161.877 139.488 160.284L109.569 137.852C108.233 136.852 106.608 136.314 104.939 136.32C103.271 136.326 101.65 136.875 100.321 137.884L59.938 168.539C54.5622 172.635 47.5224 166.203 51.1383 160.476Z" fill="white"/>
<defs>
<radialGradient id="paint0_radial_2307_796" cx="0" cy="0" r="1" gradientUnits="userSpaceOnUse" gradientTransform="translate(42.8824 255.993) scale(281.592 281.592)">
<stop stop-color="#0099FF"/>
<stop offset="0.6" stop-color="#A033FF"/>
<stop offset="0.9" stop-color="#FF5280"/>
<stop offset="1" stop-color="#FF7061"/>
</radialGradient>
</defs>
</svg>
