<svg width="256" height="256" viewBox="0 0 256 256" fill="none" xmlns="http://www.w3.org/2000/svg">
<g clip-path="url(#clip0_17_34)">
<path d="M128 255.789C198.634 255.789 255.895 198.529 255.895 127.895C255.895 57.2604 198.634 0 128 0C57.3656 0 0.105225 57.2604 0.105225 127.895C0.105225 198.529 57.3656 255.789 128 255.789Z" fill="white"/>
<path d="M128 0C57.3684 0 0.105225 57.2632 0.105225 127.895C0.105225 182.105 33.7894 228.421 81.3684 247.053C80.2105 236.947 79.2631 221.368 81.7894 210.316C84.1052 200.316 96.7368 146.737 96.7368 146.737C96.7368 146.737 92.9473 139.053 92.9473 127.789C92.9473 110 103.263 96.7369 116.105 96.7369C127.053 96.7369 132.316 104.947 132.316 114.737C132.316 125.684 125.368 142.105 121.684 157.368C118.632 170.105 128.105 180.526 140.632 180.526C163.368 180.526 180.842 156.526 180.842 122C180.842 91.3684 158.842 70 127.368 70C90.9473 70 69.5789 97.2632 69.5789 125.474C69.5789 136.421 73.7894 148.211 79.0526 154.632C80.1052 155.895 80.2105 157.053 79.8947 158.316C78.9473 162.316 76.7368 171.053 76.3158 172.842C75.7894 175.158 74.421 175.684 72 174.526C56 167.053 46 143.789 46 124.947C46 84.6316 75.2631 47.579 130.526 47.579C174.842 47.579 209.368 79.1579 209.368 121.474C209.368 165.579 181.579 201.053 143.053 201.053C130.105 201.053 117.895 194.316 113.789 186.316C113.789 186.316 107.368 210.737 105.789 216.737C102.947 227.895 95.1579 241.789 89.8947 250.316C101.895 254 114.526 256 127.789 256C198.421 256 255.684 198.737 255.684 128.105C255.895 57.2631 198.632 0 128 0Z" fill="#E60019"/>
</g>
<defs>
<clipPath id="clip0_17_34">
<rect width="256" height="256" fill="white"/>
</clipPath>
</defs>
</svg>
