<svg width="256" height="256" viewBox="0 0 256 256" fill="none" xmlns="http://www.w3.org/2000/svg">
<g clip-path="url(#clip0_191_72)">
<path d="M128 256C198.692 256 256 198.692 256 128C256 57.3075 198.692 0 128 0C57.3075 0 0 57.3075 0 128C0 198.692 57.3075 256 128 256Z" fill="#FF4500"/>
<path d="M213.333 128C213.333 117.67 204.95 109.286 194.62 109.286C189.53 109.286 185.038 111.233 181.745 114.526C169.02 105.394 151.354 99.4058 131.892 98.6572L140.426 58.6853L168.122 64.5239C168.421 71.5601 174.26 77.249 181.446 77.249C188.781 77.249 194.769 71.2607 194.769 63.9251C194.769 56.5894 188.781 50.6011 181.446 50.6011C176.206 50.6011 171.715 53.5952 169.619 58.0865L138.629 51.4993C137.731 51.3496 136.833 51.4993 136.084 51.9484C135.336 52.3976 134.886 53.1461 134.587 54.0444L125.155 98.6572C105.244 99.2561 87.4291 105.095 74.5543 114.526C71.2607 111.382 66.6198 109.286 61.6794 109.286C51.3496 109.286 42.966 117.67 42.966 128C42.966 135.635 47.4572 142.072 54.0443 145.067C53.7449 146.863 53.5952 148.809 53.5952 150.755C53.5952 179.499 86.98 202.704 128.299 202.704C169.619 202.704 203.003 179.499 203.003 150.755C203.003 148.809 202.854 147.013 202.554 145.216C208.692 142.222 213.333 135.635 213.333 128ZM85.3332 141.324C85.3332 133.988 91.3215 128 98.6572 128C105.993 128 111.981 133.988 111.981 141.324C111.981 148.66 105.993 154.648 98.6572 154.648C91.3215 154.648 85.3332 148.66 85.3332 141.324ZM159.738 176.505C150.606 185.637 133.24 186.236 128.15 186.236C123.06 186.236 105.544 185.488 96.5613 176.505C95.2139 175.158 95.2139 172.912 96.5613 171.565C97.9087 170.217 100.154 170.217 101.502 171.565C107.191 177.254 119.467 179.35 128.299 179.35C137.132 179.35 149.258 177.254 155.097 171.565C156.444 170.217 158.69 170.217 160.037 171.565C161.085 173.062 161.085 175.158 159.738 176.505ZM157.343 154.648C150.007 154.648 144.019 148.66 144.019 141.324C144.019 133.988 150.007 128 157.343 128C164.678 128 170.667 133.988 170.667 141.324C170.667 148.66 164.678 154.648 157.343 154.648Z" fill="white"/>
</g>
<defs>
<clipPath id="clip0_191_72">
<rect width="256" height="256" fill="white"/>
</clipPath>
</defs>
</svg>
