<svg width="256" height="256" viewBox="0 0 256 256" fill="none" xmlns="http://www.w3.org/2000/svg">
<path d="M97.2705 3.73676L100.143 15.3739C88.8204 18.1724 77.9831 22.6593 67.9958 28.684L61.8499 18.3923C72.8431 11.7349 84.7873 6.79295 97.2705 3.73676V3.73676ZM158.729 3.73676L155.856 15.3739C167.18 18.1724 178.017 22.6593 188.004 28.684L194.223 18.3923C183.201 11.7408 171.233 6.79941 158.729 3.73676V3.73676ZM18.3923 61.8135C11.7411 72.8229 6.79965 84.7781 3.73673 97.2706L15.3739 100.144C18.1724 88.8204 22.6593 77.9831 28.6839 67.9958L18.3923 61.8135ZM11.9919 128C11.991 122.181 12.4286 116.37 13.301 110.617L1.44566 108.799C-0.481723 121.515 -0.481723 134.449 1.44566 147.165L13.301 145.383C12.43 139.63 11.9923 133.819 11.9919 128V128ZM194.15 237.571L188.004 227.316C178.033 233.346 167.206 237.834 155.893 240.626L158.766 252.263C171.234 249.178 183.163 244.224 194.15 237.571ZM244.008 128C244.008 133.819 243.57 139.63 242.699 145.383L254.554 147.165C256.482 134.449 256.482 121.515 254.554 108.799L242.699 110.617C243.571 116.37 244.009 122.181 244.008 128V128ZM252.263 158.693L240.626 155.82C237.834 167.157 233.347 178.007 227.316 188.004L237.608 194.186C244.265 183.167 249.207 171.199 252.263 158.693V158.693ZM145.383 242.699C133.86 244.445 122.14 244.445 110.617 242.699L108.835 254.554C121.539 256.482 134.461 256.482 147.165 254.554L145.383 242.699ZM221.388 196.805C214.476 206.178 206.188 214.454 196.805 221.352L203.933 231.025C214.268 223.417 223.412 214.31 231.062 204.005L221.388 196.805ZM196.805 34.6116C206.189 41.5231 214.477 49.8109 221.388 59.1952L231.062 51.9947C223.439 41.6806 214.319 32.5614 204.005 24.9382L196.805 34.6116ZM34.6116 59.1952C41.523 49.8109 49.8108 41.5231 59.1952 34.6116L51.9947 24.9382C41.6805 32.5614 32.5614 41.6806 24.9382 51.9947L34.6116 59.1952ZM237.608 61.8135L227.316 67.9958C233.346 77.9673 237.834 88.7935 240.626 100.107L252.263 97.2342C249.2 84.7532 244.258 72.8101 237.608 61.8135V61.8135ZM110.617 13.3011C122.14 11.5553 133.86 11.5553 145.383 13.3011L147.165 1.44569C134.461 -0.481897 121.539 -0.481897 108.835 1.44569L110.617 13.3011ZM40.7575 234.226L15.9921 239.971L21.7744 215.206L10.1008 212.479L4.31858 237.244C3.9568 238.779 3.90128 240.371 4.1552 241.928C4.40912 243.485 4.9675 244.977 5.79839 246.317C6.62929 247.658 7.7164 248.822 8.99753 249.743C10.2787 250.663 11.7287 251.322 13.2647 251.681C15.061 252.081 16.9233 252.081 18.7196 251.681L43.485 245.972L40.7575 234.226ZM12.5737 201.787L24.2836 204.478L28.2839 187.313C22.4422 177.514 18.0912 166.9 15.3739 155.82L3.73673 158.693C6.3543 169.299 10.3138 179.528 15.5194 189.132L12.5737 201.787ZM68.5776 227.752L51.4128 231.753L54.1403 243.463L66.7593 240.517C76.3561 245.738 86.5868 249.698 97.1978 252.3L100.071 240.662C89.0253 237.91 78.449 233.534 68.6867 227.68L68.5776 227.752ZM128 23.9927C70.5414 24.0291 24.0291 70.6142 24.0291 128.036C24.0607 147.595 29.593 166.75 39.9938 183.313L29.9931 226.007L72.6506 216.006C121.272 246.59 185.495 232.007 216.079 183.422C246.663 134.837 232.116 70.6142 183.531 39.9938C166.898 29.5342 147.648 23.9874 128 23.9927" fill="#3A76F0"/>
</svg>
