<svg width="256" height="256" viewBox="0 0 256 256" fill="none" xmlns="http://www.w3.org/2000/svg">
<path d="M237.837 188.61C198.194 169.414 191.875 139.776 191.594 137.577C191.254 134.915 190.868 132.821 193.805 130.112C196.637 127.495 209.202 119.716 212.688 117.282C218.45 113.252 220.988 109.228 219.117 104.282C217.809 100.86 214.624 99.5711 211.268 99.5711C210.21 99.5743 209.155 99.6928 208.122 99.9244C201.791 101.298 195.643 104.472 192.084 105.329C191.657 105.439 191.218 105.498 190.776 105.505C188.88 105.505 188.16 104.661 188.343 102.378C188.788 95.4557 189.73 81.9451 188.638 69.3243C187.14 51.9601 181.541 43.3565 174.902 35.7473C171.691 32.0573 156.778 16.2044 127.999 16.2044C99.2194 16.2044 84.3262 32.0573 81.1344 35.7015C74.4759 43.3107 68.8836 51.9143 67.3989 69.2785C66.3066 81.8993 67.2877 95.4034 67.6932 102.332C67.824 104.504 67.1569 105.459 65.2601 105.459C64.8186 105.452 64.3796 105.393 63.9519 105.283C60.4003 104.426 54.252 101.253 47.9206 99.8786C46.8878 99.647 45.8329 99.5285 44.7745 99.5253C41.4061 99.5253 38.2338 100.834 36.9257 104.236C35.055 109.182 37.5797 113.206 43.3617 117.236C46.8479 119.67 59.4127 127.443 62.2448 130.066C65.175 132.775 64.7957 134.869 64.4555 137.532C64.1743 139.763 57.8494 169.401 18.2127 188.564C15.8907 189.69 11.9402 192.071 18.906 195.918C29.8421 201.964 37.1219 201.316 42.7796 204.96C47.5805 208.055 44.7418 214.729 48.2346 217.136C52.5253 220.1 65.2077 216.927 81.5922 222.338C95.3277 226.865 103.674 239.656 128.031 239.656C152.389 239.656 160.977 226.806 174.47 222.338C190.822 216.927 203.531 220.1 207.828 217.136C211.314 214.729 208.482 208.055 213.283 204.96C218.941 201.316 226.214 201.964 237.157 195.918C244.109 192.117 240.159 189.736 237.837 188.61Z" fill="white"/>
<path d="M255.085 186.357C253.306 181.516 249.918 178.925 246.059 176.779C245.333 176.354 244.665 176.013 244.096 175.752C242.945 175.156 241.768 174.581 240.597 173.972C228.569 167.593 219.176 159.545 212.662 150.006C210.812 147.321 209.207 144.474 207.867 141.501C207.311 139.911 207.338 139.008 207.737 138.184C208.132 137.549 208.656 137.003 209.274 136.581C211.34 135.213 213.473 133.826 214.918 132.891C217.495 131.222 219.536 129.901 220.851 128.965C225.789 125.511 229.242 121.84 231.401 117.738C232.907 114.904 233.785 111.778 233.976 108.574C234.166 105.37 233.665 102.163 232.506 99.1697C229.236 90.5596 221.106 85.2142 211.255 85.2142C209.178 85.2123 207.106 85.4316 205.074 85.8685C204.532 85.9863 203.989 86.1106 203.459 86.248C203.55 80.3596 203.42 74.144 202.896 68.0266C201.039 46.5209 193.511 35.2479 185.662 26.2582C180.635 20.6249 174.715 15.8591 168.139 12.1522C156.228 5.34787 142.722 1.89334 127.999 1.89334C113.276 1.89334 99.8344 5.34787 87.9107 12.1522C81.3184 15.8602 75.3862 20.6356 70.3554 26.2844C62.5065 35.274 54.9782 46.5667 53.1206 68.0528C52.5974 74.1702 52.4665 80.4185 52.5516 86.2741C52.0218 86.1367 51.4854 86.0124 50.9426 85.8947C48.9113 85.4578 46.8393 85.2384 44.7616 85.2404C34.9047 85.2404 26.7615 90.5858 23.5043 99.1959C22.34 102.19 21.8338 105.4 22.02 108.607C22.2062 111.815 23.0805 114.944 24.5835 117.784C26.7485 121.886 30.202 125.556 35.1402 129.011C36.4483 129.927 38.4956 131.248 41.0726 132.936C42.4658 133.839 44.5 135.161 46.4949 136.483C47.1928 136.934 47.7861 137.53 48.2347 138.229C48.6533 139.087 48.6664 140.009 48.045 141.71C46.7234 144.621 45.1452 147.408 43.3292 150.039C36.9585 159.362 27.8408 167.266 16.1983 173.593C10.0304 176.864 3.6205 179.049 0.912647 186.41C-1.12806 191.964 0.206249 198.285 5.39303 203.61C7.29663 205.598 9.50451 207.27 11.9338 208.563C16.9883 211.342 22.3631 213.493 27.9389 214.968C29.0895 215.265 30.1819 215.754 31.17 216.414C33.0603 218.07 32.7921 220.562 35.3103 224.213C36.5743 226.1 38.1805 227.733 40.0457 229.029C45.3306 232.679 51.2696 232.908 57.5618 233.151C63.2456 233.366 69.6883 233.615 77.0466 236.042C80.0945 237.05 83.2602 239 86.9296 241.277C95.7399 246.694 107.801 254.107 127.986 254.107C148.17 254.107 160.316 246.655 169.192 241.218C172.835 238.98 175.981 237.05 178.944 236.069C186.303 233.635 192.745 233.393 198.429 233.177C204.721 232.935 210.66 232.706 215.945 229.055C218.154 227.514 219.995 225.503 221.335 223.166C223.146 220.085 223.101 217.932 224.801 216.427C225.728 215.799 226.754 215.33 227.836 215.04C233.488 213.56 238.936 211.389 244.057 208.576C246.638 207.191 248.961 205.372 250.925 203.198L250.99 203.12C255.857 197.912 257.08 191.775 255.085 186.357ZM237.144 196.001C226.201 202.047 218.928 201.399 213.27 205.043C208.463 208.138 211.308 214.811 207.815 217.219C203.524 220.183 190.842 217.01 174.457 222.421C160.944 226.889 152.324 239.739 128.018 239.739C103.713 239.739 95.2951 226.915 81.5596 222.388C65.2079 216.977 52.4993 220.15 48.202 217.186C44.7158 214.779 47.5479 208.105 42.7471 205.01C37.0828 201.366 29.8095 202.014 18.8734 196.001C11.9076 192.154 15.8582 189.773 18.1801 188.647C57.8169 169.451 64.1417 139.813 64.423 137.614C64.7631 134.952 65.1424 132.858 62.2122 130.149C59.3801 127.532 46.8154 119.753 43.3292 117.319C37.5603 113.289 35.0225 109.265 36.8931 104.319C38.2013 100.897 41.3931 99.6081 44.742 99.6081C45.8004 99.6113 46.8553 99.7298 47.888 99.9614C54.2195 101.335 60.3677 104.509 63.9193 105.366C64.347 105.475 64.786 105.535 65.2275 105.542C67.1243 105.542 67.7914 104.587 67.6606 102.415C67.2551 95.4862 66.274 81.9822 67.3663 69.3613C68.8641 51.9971 74.4564 43.3935 81.1018 35.7844C84.2937 32.127 99.2915 16.2741 127.973 16.2741C156.654 16.2741 171.691 32.0616 174.883 35.7059C181.534 43.315 187.133 51.9186 188.618 69.2828C189.71 81.9036 188.768 95.4142 188.324 102.336C188.173 104.62 188.86 105.464 190.757 105.464C191.198 105.457 191.637 105.397 192.065 105.287C195.623 104.43 201.771 101.257 208.103 99.8829C209.136 99.6513 210.191 99.5328 211.249 99.5296C214.617 99.5296 217.79 100.838 219.098 104.24C220.968 109.187 218.444 113.21 212.668 117.241C209.182 119.674 196.617 127.447 193.785 130.071C190.848 132.779 191.234 134.873 191.574 137.536C191.856 139.767 198.174 169.405 237.817 188.569C240.159 189.74 244.109 192.121 237.144 196.001Z" fill="black"/>
</svg>
