<svg width="256" height="256" viewBox="0 0 256 256" fill="none" xmlns="http://www.w3.org/2000/svg">
<path d="M127.999 0.00305176C57.3087 0.00305176 0 57.3102 0 128.001C0 198.694 57.3087 255.997 127.999 255.997C198.697 255.997 256 198.694 256 128.001C256 57.3148 198.697 0.00916563 127.998 0.00916563L127.999 0.00305176ZM186.699 184.612C184.406 188.373 179.484 189.565 175.724 187.257C145.671 168.9 107.839 164.742 63.2835 174.922C58.99 175.9 54.7103 173.21 53.7321 168.915C52.7493 164.62 55.4287 160.34 59.7329 159.362C108.491 148.218 150.315 153.019 184.055 173.638C187.815 175.946 189.007 180.852 186.699 184.612ZM202.366 149.756C199.477 154.456 193.332 155.938 188.64 153.049C154.234 131.897 101.787 125.772 61.0917 138.125C55.8139 139.72 50.2395 136.745 48.6377 131.477C47.048 126.199 50.024 120.635 55.2927 119.03C101.778 104.925 159.568 111.758 199.08 136.037C203.772 138.926 205.255 145.069 202.366 149.756ZM203.711 113.463C162.457 88.9604 94.3941 86.7074 55.0068 98.6616C48.682 100.58 41.9934 97.0094 40.0767 90.6845C38.16 84.3566 41.7274 77.6726 48.0568 75.7498C93.2707 62.0241 168.434 64.676 215.929 92.8718C221.631 96.2482 223.495 103.596 220.117 109.277C216.755 114.966 209.388 116.841 203.717 113.463H203.711Z" fill="#1ED760"/>
</svg>
