<svg width="256" height="256" viewBox="0 0 256 256" fill="none" xmlns="http://www.w3.org/2000/svg">
<g clip-path="url(#clip0_318_61)">
<path d="M128 256C198.692 256 256 198.692 256 128C256 57.3076 198.692 0 128 0C57.3076 0 0 57.3076 0 128C0 198.692 57.3076 256 128 256Z" fill="url(#paint0_linear_318_61)"/>
<path fill-rule="evenodd" clip-rule="evenodd" d="M57.9402 126.649C95.2548 110.391 120.137 99.6736 132.587 94.4952C168.134 79.7101 175.52 77.1417 180.335 77.0569C181.393 77.0383 183.761 77.3007 185.295 78.5451C186.589 79.5958 186.946 81.0152 187.116 82.0115C187.287 83.0077 187.499 85.2771 187.33 87.0504C185.404 107.29 177.069 156.407 172.829 179.076C171.034 188.668 167.501 191.884 164.081 192.199C156.648 192.883 151.003 187.286 143.804 182.567C132.538 175.182 126.174 170.585 115.239 163.379C102.601 155.051 110.793 150.474 117.995 142.993C119.88 141.036 152.631 111.246 153.265 108.544C153.344 108.206 153.418 106.946 152.669 106.281C151.921 105.616 150.816 105.843 150.019 106.024C148.889 106.281 130.892 118.176 96.0281 141.71C90.9197 145.218 86.2927 146.927 82.147 146.838C77.5768 146.739 68.7854 144.254 62.25 142.129C54.234 139.523 47.863 138.146 48.4178 133.721C48.7067 131.416 51.8809 129.058 57.9402 126.649Z" fill="white"/>
</g>
<defs>
<linearGradient id="paint0_linear_318_61" x1="128" y1="0" x2="128" y2="254.101" gradientUnits="userSpaceOnUse">
<stop stop-color="#2AABEE"/>
<stop offset="1" stop-color="#229ED9"/>
</linearGradient>
<clipPath id="clip0_318_61">
<rect width="256" height="256" fill="white"/>
</clipPath>
</defs>
</svg>
