<svg width="256" height="256" viewBox="0 0 256 256" fill="none" xmlns="http://www.w3.org/2000/svg">
<path d="M189.26 118.651C188.157 118.123 187.037 117.614 185.903 117.127C183.927 80.7176 164.032 59.8733 130.627 59.66C130.475 59.6591 130.325 59.6591 130.173 59.6591C110.193 59.6591 93.5748 68.1879 83.3467 83.7076L101.719 96.3104C109.359 84.7177 121.351 82.2464 130.182 82.2464C130.284 82.2464 130.387 82.2464 130.487 82.2473C141.487 82.3175 149.787 85.5155 155.159 91.752C159.068 96.2924 161.683 102.567 162.977 110.485C153.225 108.828 142.679 108.318 131.404 108.964C99.6436 110.794 79.2255 129.317 80.5968 155.056C81.2927 168.112 87.7969 179.344 98.9107 186.681C108.307 192.884 120.409 195.917 132.987 195.231C149.597 194.32 162.628 187.983 171.719 176.395C178.623 167.595 182.989 156.191 184.917 141.821C192.833 146.599 198.7 152.885 201.94 160.443C207.449 173.289 207.771 194.4 190.545 211.611C175.453 226.688 157.312 233.211 129.895 233.412C99.4829 233.187 76.4824 223.433 61.5281 204.423C47.5247 186.621 40.2876 160.909 40.0176 128C40.2876 95.0904 47.5247 69.3781 61.5281 51.5769C76.4824 32.5665 99.4825 22.8133 129.895 22.5873C160.528 22.8151 183.929 32.6152 199.456 51.7173C207.069 61.0848 212.809 72.8651 216.593 86.6004L238.123 80.8563C233.536 63.9496 226.319 49.3809 216.497 37.2987C196.592 12.8089 167.48 0.260197 129.97 0H129.82C92.3861 0.259293 63.6001 12.8557 44.2617 37.4391C27.0532 59.3152 18.1765 89.7543 17.8783 127.91L17.8773 128L17.8783 128.09C18.1765 166.245 27.0532 196.685 44.2617 218.561C63.6001 243.144 92.3861 255.741 129.82 256H129.97C163.251 255.769 186.709 247.056 206.035 227.748C231.319 202.488 230.557 170.825 222.224 151.388C216.245 137.449 204.847 126.128 189.26 118.651ZM131.798 172.676C117.878 173.46 103.417 167.212 102.703 153.829C102.175 143.907 109.765 132.835 132.652 131.516C135.273 131.365 137.845 131.291 140.372 131.291C148.685 131.291 156.463 132.098 163.533 133.644C160.896 166.58 145.427 171.928 131.798 172.676Z" fill="black"/>
</svg>
