<svg width="256" height="256" viewBox="0 0 256 256" fill="none" xmlns="http://www.w3.org/2000/svg">
<path d="M182.402 92.4105C198.865 104.22 219.032 111.169 240.814 111.169V69.1054C236.692 69.1062 232.58 68.6749 228.547 67.8174V100.927C206.767 100.927 186.603 93.9788 170.136 82.1698V168.01C170.136 210.951 135.449 245.759 92.6624 245.759C76.6979 245.759 61.8595 240.916 49.5332 232.609C63.6016 247.045 83.2211 256 104.927 256C147.715 256 182.404 221.192 182.404 178.248V92.4105H182.402V92.4105ZM197.535 49.9734C189.122 40.7493 183.598 28.8287 182.402 15.65V10.2397H170.778C173.704 26.9898 183.684 41.3001 197.535 49.9734ZM76.5955 199.657C71.8949 193.472 69.3548 185.905 69.3662 178.125C69.3662 158.486 85.2318 142.562 104.806 142.562C108.454 142.561 112.08 143.121 115.556 144.228V101.224C111.493 100.666 107.393 100.428 103.295 100.515V133.987C99.8156 132.88 96.1878 132.318 92.539 132.322C72.9651 132.322 57.1003 148.244 57.1003 167.887C57.1003 181.775 65.0305 193.799 76.5955 199.657Z" fill="#FF004F"/>
<path d="M170.135 82.1689C186.602 93.9779 206.767 100.927 228.546 100.927V67.8165C216.389 65.2177 205.626 58.8418 197.534 49.9734C183.683 41.2992 173.703 26.989 170.777 10.2397H140.243V178.247C140.174 197.833 124.335 213.692 104.804 213.692C93.2937 213.692 83.0683 208.186 76.5924 199.657C65.0282 193.799 57.098 181.774 57.098 167.887C57.098 148.247 72.9628 132.323 92.5368 132.323C96.2871 132.323 99.9017 132.909 103.292 133.988V100.516C61.2578 101.388 27.4518 135.856 27.4518 178.248C27.4518 199.409 35.8703 218.593 49.5336 232.61C61.8598 240.916 76.6982 245.76 92.6628 245.76C135.45 245.76 170.136 210.95 170.136 168.01V82.1689H170.135Z" fill="black"/>
<path d="M228.547 67.8166V58.8639C217.584 58.8805 206.836 55.7994 197.535 49.9726C205.768 59.0194 216.611 65.2573 228.547 67.8166ZM170.778 10.2398C170.499 8.63906 170.284 7.02775 170.135 5.41028V0H127.976V168.009C127.908 187.592 112.071 203.451 92.537 203.451C86.8022 203.451 81.3877 202.085 76.5926 199.658C83.0686 208.186 93.2939 213.691 104.804 213.691C124.334 213.691 140.175 197.834 140.243 178.248V10.2398H170.778ZM103.294 100.516V90.9855C99.7716 90.5023 96.2199 90.2598 92.6639 90.2616C49.8733 90.2607 15.1862 125.071 15.1862 168.009C15.1862 194.928 28.8189 218.653 49.5347 232.608C35.8714 218.592 27.453 199.407 27.453 178.247C27.453 135.856 61.2581 101.388 103.294 100.516Z" fill="#00F2EA"/>
</svg>
