<svg width="256" height="256" viewBox="0 0 256 256" fill="none" xmlns="http://www.w3.org/2000/svg">
<g clip-path="url(#clip0_1106_5)">
<path d="M0 122.88C0 64.9536 0 35.9907 17.9954 17.9954C35.9907 0 64.9536 0 122.88 0H133.12C191.046 0 220.009 0 238.005 17.9954C256 35.9907 256 64.9536 256 122.88V133.12C256 191.046 256 220.009 238.005 238.005C220.009 256 191.046 256 133.12 256H122.88C64.9536 256 35.9907 256 17.9954 238.005C0 220.009 0 191.046 0 133.12V122.88Z" fill="#0077FF"/>
<path d="M136.213 184.427C77.8667 184.427 44.5872 144.427 43.2006 77.8672H72.4272C73.3872 126.721 94.9334 147.414 112 151.681V77.8672H139.521V120.001C156.374 118.187 174.079 98.9872 180.052 77.8672H207.573C202.986 103.894 183.786 123.094 170.133 130.987C183.786 137.387 205.654 154.134 213.974 184.427H183.679C177.173 164.161 160.961 148.481 139.521 146.347V184.427H136.213Z" fill="white"/>
</g>
<defs>
<clipPath id="clip0_1106_5">
<rect width="256" height="256" fill="white"/>
</clipPath>
</defs>
</svg>
