<svg width="200" height="256" viewBox="0 0 200 256" fill="none" xmlns="http://www.w3.org/2000/svg">
<path d="M0.608032 256L18.6027 190.261C7.4987 171.019 1.66403 149.205 1.6747 126.837C1.7067 56.9067 58.6134 0 128.533 0C162.464 0.0106667 194.315 13.2267 218.272 37.2053C242.219 61.184 255.403 93.056 255.392 126.955C255.36 196.896 198.453 253.803 128.533 253.803C107.307 253.792 86.3894 248.469 67.8614 238.357L0.608032 256ZM70.976 215.392C88.8534 226.005 105.92 232.363 128.491 232.373C186.603 232.373 233.941 185.077 233.973 126.933C233.995 68.672 186.88 21.44 128.576 21.4187C70.4214 21.4187 23.1147 68.7147 23.0934 126.848C23.0827 150.581 30.0374 168.352 41.7174 186.944L31.0614 225.856L70.976 215.392ZM192.437 157.109C191.648 155.787 189.536 154.997 186.357 153.408C183.189 151.819 167.605 144.149 164.693 143.093C161.792 142.037 159.68 141.504 157.557 144.683C155.445 147.851 149.365 154.997 147.52 157.109C145.675 159.221 143.819 159.488 140.651 157.899C137.483 156.309 127.264 152.971 115.157 142.165C105.739 133.76 99.3707 123.381 97.5254 120.203C95.68 117.035 97.3334 115.317 98.912 113.739C100.341 112.32 102.08 110.037 103.669 108.181C105.28 106.347 105.803 105.024 106.869 102.901C107.925 100.789 107.403 98.9333 106.603 97.344C105.803 95.7653 99.4667 80.16 96.832 73.8133C94.2507 67.6373 91.6374 68.4693 89.696 68.3733L83.616 68.2667C81.504 68.2667 78.0694 69.056 75.168 72.2347C72.2667 75.4133 64.0747 83.072 64.0747 98.6773C64.0747 114.283 75.4347 129.355 77.0134 131.467C78.6027 133.579 99.36 165.6 131.157 179.328C138.72 182.592 144.629 184.544 149.227 186.005C156.821 188.416 163.733 188.075 169.195 187.264C175.285 186.357 187.947 179.595 190.592 172.192C193.237 164.779 193.237 158.432 192.437 157.109Z" fill="#25D366"/>
</svg>
