<svg width="256" height="256" viewBox="0 0 256 256" fill="none" xmlns="http://www.w3.org/2000/svg">
<path d="M250.647 65.9782C249.2 60.5319 246.348 55.5613 242.376 51.5638C238.404 47.5663 233.451 44.6822 228.015 43.2C208 37.8182 128 37.8182 128 37.8182C128 37.8182 48 37.8182 27.9855 43.2C22.5486 44.6822 17.5964 47.5663 13.6244 51.5638C9.65244 55.5613 6.80006 60.5319 5.35273 65.9782C6.35783e-07 86.08 0 128 0 128C0 128 6.35783e-07 169.92 5.35273 190.022C6.80006 195.468 9.65244 200.439 13.6244 204.436C17.5964 208.434 22.5486 211.318 27.9855 212.8C48 218.182 128 218.182 128 218.182C128 218.182 208 218.182 228.015 212.8C233.451 211.318 238.404 208.434 242.376 204.436C246.348 200.439 249.2 195.468 250.647 190.022C256 169.92 256 128 256 128C256 128 256 86.08 250.647 65.9782Z" fill="#FF0302"/>
<path d="M101.818 166.066V89.9349L168.727 128L101.818 166.066Z" fill="#FEFEFE"/>
</svg>
