<svg width="256" height="257" viewBox="0 0 256 257" fill="none" xmlns="http://www.w3.org/2000/svg">
<rect x="0.5" y="0.985107" width="255" height="255" rx="31.5" fill="white"/>
<rect x="0.5" y="0.985107" width="255" height="255" rx="31.5" stroke="#878787"/>
<g clip-path="url(#clip0_303_17157)">
<path d="M63.212 64.5054H193.573V191.311H63.212V64.5054Z" fill="url(#paint0_radial_303_17157)"/>
<path d="M63.212 64.5054H193.573V191.311H63.212V64.5054ZM57.2814 197.241H199.504V58.5747H57.2814V197.241ZM157.904 125.419C159.364 125.499 160.829 125.461 162.284 125.305C162.284 124.893 162.412 124.594 162.412 124.296C162.412 121.096 160.862 115.165 154.704 115.165C149.015 115.165 146.583 120.143 145.985 125.419H157.904ZM145.872 133.54C146 141.533 149.783 146.923 158.8 146.923C162.113 147.009 165.406 146.383 168.456 145.088C168.869 144.918 169.168 144.975 169.168 145.515V152.911C169.188 153.146 169.143 153.381 169.037 153.592C168.932 153.803 168.77 153.981 168.57 154.105C164.824 155.749 160.753 156.517 156.666 156.352C141.022 156.352 135.148 144.804 135.148 131.933C135.148 117.952 142.373 106.518 155.059 106.518C167.745 106.518 172.481 117.355 172.481 126.187C172.57 128.31 172.432 130.437 172.069 132.53C172.045 132.726 171.956 132.907 171.817 133.047C171.678 133.186 171.496 133.274 171.301 133.298C167.993 133.632 164.669 133.769 161.345 133.711H145.872V133.54ZM114.17 127.496C112.506 120.911 108.481 106.575 107.059 99.6343H106.931C105.637 106.575 102.323 118.308 99.948 127.496H114.17ZM97.4592 137.096L92.8369 154.816C92.7232 155.286 92.5383 155.471 91.9409 155.471H83.18C82.5827 155.471 82.4689 155.286 82.5827 154.575L99.4076 95.7232C99.8116 94.1394 99.9935 92.5072 99.948 90.8734C99.948 90.4609 100.133 90.276 100.417 90.276H112.862C113.288 90.276 113.459 90.404 113.573 90.8734L132.474 154.688C132.602 155.172 132.474 155.471 132.005 155.471H122.234C122.038 155.498 121.838 155.452 121.673 155.342C121.508 155.232 121.389 155.065 121.338 154.873L116.474 137.096H97.4592Z" fill="#BCBCBC"/>
</g>
<defs>
<radialGradient id="paint0_radial_303_17157" cx="0" cy="0" r="1" gradientUnits="userSpaceOnUse" gradientTransform="translate(103.725 92.9007) scale(99.0862 95.9289)">
<stop stop-color="#393939" stop-opacity="0.98"/>
<stop offset="1" stop-color="#0A0A0A"/>
</radialGradient>
<clipPath id="clip0_303_17157">
<rect width="142.222" height="138.667" fill="white" transform="translate(57.2814 58.5747)"/>
</clipPath>
</defs>
</svg>
