<svg width="256" height="257" viewBox="0 0 256 257" fill="none" xmlns="http://www.w3.org/2000/svg">
<rect x="0.5" y="1.09424" width="255" height="255" rx="31.5" fill="white"/>
<rect x="0.5" y="1.09424" width="255" height="255" rx="31.5" stroke="#878787"/>
<g clip-path="url(#clip0_303_17179)">
<path d="M57.2814 58.3853H199.504V197.649H57.2814V58.3853Z" fill="url(#paint0_linear_303_17179)"/>
<path d="M109.164 129.283H121.765L115.464 104.835L109.164 129.283ZM68.0476 69.2937V186.812H188.936V69.2937H68.0476ZM128.691 156.049L124.126 140.191H107.059L102.394 156.078H90.7178L107.159 99.9141V93.7701H122.803L141.605 156.078L128.691 156.049ZM159.738 156.049H147.137V108.675H159.681L159.738 156.049ZM153.523 102.986C152.249 102.972 151.008 102.582 149.955 101.864C148.903 101.146 148.087 100.132 147.609 98.9513C147.131 97.7703 147.013 96.4743 147.27 95.2266C147.527 93.9788 148.148 92.8349 149.054 91.939C149.959 91.0431 151.11 90.4352 152.361 90.1917C153.611 89.9483 154.906 90.0802 156.081 90.571C157.257 91.0617 158.261 91.8893 158.968 92.9495C159.674 94.0097 160.051 95.2552 160.051 96.5293C160.04 98.2506 159.346 99.8971 158.122 101.108C156.899 102.318 155.245 102.994 153.523 102.986Z" fill="url(#paint1_linear_303_17179)"/>
</g>
<defs>
<linearGradient id="paint0_linear_303_17179" x1="198.764" y1="57.6457" x2="59.3863" y2="197.038" gradientUnits="userSpaceOnUse">
<stop stop-color="#B5B5B5"/>
<stop offset="1" stop-color="#CACACA"/>
</linearGradient>
<linearGradient id="paint1_linear_303_17179" x1="128.478" y1="69.0946" x2="128.478" y2="186.215" gradientUnits="userSpaceOnUse">
<stop stop-color="#161616"/>
<stop offset="1"/>
</linearGradient>
<clipPath id="clip0_303_17179">
<rect width="142.222" height="139.264" fill="white" transform="translate(57.2814 58.3853)"/>
</clipPath>
</defs>
</svg>
