<svg width="257" height="257" viewBox="0 0 257 257" fill="none" xmlns="http://www.w3.org/2000/svg">
<rect x="1.43286" y="0.797119" width="255" height="255" rx="31.5" fill="white"/>
<rect x="1.43286" y="0.797119" width="255" height="255" rx="31.5" stroke="#878787"/>
<g clip-path="url(#clip0_303_17178)">
<path d="M121.621 70.7359L68.6006 92.6665C67.9463 92.9333 67.3863 93.389 66.9921 93.9754C66.5979 94.5618 66.3873 95.2524 66.3873 95.959C66.3873 96.6656 66.5979 97.3562 66.9921 97.9426C67.3863 98.529 67.9463 98.9847 68.6006 99.2514L121.891 120.428C126.576 122.271 131.784 122.271 136.469 120.428L189.703 99.2514C190.357 98.9847 190.917 98.529 191.311 97.9426C191.706 97.3562 191.916 96.6656 191.916 95.959C191.916 95.2524 191.706 94.5618 191.311 93.9754C190.917 93.389 190.357 92.9333 189.703 92.6665L136.739 70.7359C131.899 68.7313 126.461 68.7313 121.621 70.7359Z" fill="#B6B6B6"/>
<path d="M133.909 131.906V184.656C133.91 185.235 134.053 185.806 134.325 186.317C134.596 186.829 134.989 187.267 135.469 187.592C135.948 187.917 136.5 188.12 137.076 188.184C137.652 188.247 138.234 188.169 138.773 187.956L198.094 164.93C198.75 164.672 199.314 164.225 199.715 163.644C200.115 163.064 200.333 162.378 200.341 161.673V108.866C200.34 108.286 200.197 107.716 199.926 107.204C199.654 106.693 199.261 106.255 198.782 105.93C198.302 105.605 197.75 105.401 197.174 105.338C196.598 105.275 196.016 105.353 195.477 105.566L136.142 128.606C135.484 128.865 134.919 129.316 134.521 129.9C134.123 130.494 133.91 131.192 133.909 131.906Z" fill="#949494"/>
<path d="M120.042 134.651L102.435 143.184L100.657 144.051L63.4806 161.801C62.9225 162.062 62.3089 162.183 61.6934 162.152C61.0779 162.121 60.4794 161.94 59.9502 161.624C59.421 161.308 58.9773 160.868 58.6581 160.341C58.3388 159.813 58.1536 159.216 58.1188 158.601V109.051C58.1335 108.597 58.2422 108.152 58.4381 107.743C58.634 107.335 58.9127 106.971 59.2566 106.675C59.5229 106.408 59.8243 106.179 60.1526 105.993C60.64 105.718 61.1819 105.554 61.7399 105.512C62.2978 105.47 62.8581 105.552 63.381 105.751L119.758 128.08C120.4 128.33 120.956 128.762 121.357 129.323C121.758 129.883 121.988 130.548 122.018 131.237C122.048 131.926 121.878 132.608 121.527 133.202C121.176 133.795 120.66 134.274 120.042 134.579" fill="#6E6E6E"/>
<path d="M120.042 134.651L102.435 143.184L59.2566 106.718C59.5229 106.451 59.8243 106.221 60.1526 106.036C60.64 105.761 61.1819 105.597 61.7399 105.555C62.2978 105.513 62.8581 105.595 63.381 105.794L119.758 128.123C120.4 128.373 120.956 128.805 121.357 129.365C121.758 129.926 121.988 130.591 122.018 131.28C122.048 131.968 121.878 132.651 121.527 133.244C121.176 133.838 120.66 134.317 120.042 134.622" fill="black" fill-opacity="0.25"/>
</g>
<defs>
<clipPath id="clip0_303_17178">
<rect width="142.222" height="118.983" fill="white" transform="translate(58.1188 69.2283)"/>
</clipPath>
</defs>
</svg>
