<svg width="257" height="257" viewBox="0 0 257 257" fill="none" xmlns="http://www.w3.org/2000/svg">
<rect x="1.05212" y="1.28223" width="255" height="255" rx="31.5" fill="white"/>
<rect x="1.05212" y="1.28223" width="255" height="255" rx="31.5" stroke="#878787"/>
<g clip-path="url(#clip0_303_17138)">
<path fill-rule="evenodd" clip-rule="evenodd" d="M96.5749 184.049L78.8967 177.706V151.778L96.5749 157.809V184.049ZM99.8176 184.049L117.567 177.706V151.778L99.8176 157.809V184.049ZM80.7029 149.844L98.6087 144.795L115.206 150.157L98.6087 155.846L80.7029 149.844ZM75.526 147.825L57.8336 141.482V115.554L75.526 121.585V147.825ZM78.7687 147.825L96.4469 141.482V115.554L78.7687 121.585V147.825ZM59.654 113.606L77.5598 108.571L94.1571 113.919L77.5598 119.608L59.654 113.606ZM116.799 147.825L99.078 141.482V115.554L116.77 121.585L116.799 147.825ZM120.042 147.825L137.72 141.482V115.554L120.042 121.585V147.825ZM100.927 113.606L118.818 108.571L135.43 113.919L118.818 119.608L100.927 113.606ZM137.905 111.601L120.155 105.272V79.3447L137.848 85.3607L137.905 111.601ZM141.147 111.601L158.811 105.272V79.3447L141.09 85.3607V111.615L141.147 111.601ZM121.976 77.3962L139.882 72.3616L156.479 77.7091L139.882 83.398L121.976 77.3962ZM179.121 111.615L161.442 105.272V79.3447L179.121 85.3607V111.615ZM182.363 111.615L200.056 105.272V79.3447L182.363 85.3607V111.615ZM163.249 77.3962L181.154 72.3616L197.752 77.7091L181.154 83.398L163.249 77.3962Z" fill="#A7A7A7"/>
</g>
<defs>
<clipPath id="clip0_303_17138">
<rect width="142.222" height="111.687" fill="white" transform="translate(57.8336 72.3616)"/>
</clipPath>
</defs>
</svg>
