<svg width="257" height="257" viewBox="0 0 257 257" fill="none" xmlns="http://www.w3.org/2000/svg">
<rect x="0.880615" y="1.09424" width="255" height="255" rx="31.5" fill="white"/>
<rect x="0.880615" y="1.09424" width="255" height="255" rx="31.5" stroke="#878787"/>
<g clip-path="url(#clip0_303_17197)">
<path d="M192.127 181.336C192.157 186.02 190.328 190.524 187.04 193.86C183.752 197.196 179.275 199.091 174.591 199.128C173.864 199.128 173.137 199.086 172.415 199C168.033 198.362 164.035 196.143 161.177 192.761C158.319 189.378 156.797 185.067 156.898 180.639V75.395C156.796 70.9699 158.316 66.6602 161.172 63.2781C164.027 59.896 168.021 57.6752 172.401 57.0341C174.707 56.7645 177.045 56.952 179.279 57.5859C181.513 58.2199 183.6 59.2878 185.422 60.7288C187.243 62.1697 188.763 63.9554 189.894 65.9839C191.025 68.0123 191.745 70.2437 192.013 72.5506C192.101 73.2629 192.139 73.9805 192.127 74.6981V181.336Z" fill="#B0B0B0"/>
<path d="M81.2789 163.9C84.7647 163.9 88.1721 164.934 91.0703 166.871C93.9684 168.807 96.2269 171.56 97.5602 174.781C98.8935 178.002 99.2417 181.546 98.5606 184.964C97.8795 188.383 96.1998 191.523 93.734 193.986C91.2682 196.45 88.1271 198.127 84.7079 198.806C81.2888 199.484 77.7453 199.133 74.5256 197.797C71.306 196.461 68.5549 194.2 66.6204 191.301C64.6858 188.401 63.6548 184.993 63.6576 181.507C63.6576 179.194 64.1135 176.903 64.9992 174.766C65.8849 172.629 67.1831 170.687 68.8196 169.052C70.4561 167.417 72.3987 166.12 74.5366 165.236C76.6744 164.352 78.9655 163.898 81.2789 163.9ZM127.658 110.51C122.973 110.785 118.578 112.864 115.396 116.312C112.213 119.76 110.491 124.307 110.591 128.998V176.373C110.591 189.173 116.28 197.009 124.514 198.673C127.077 199.176 129.72 199.104 132.251 198.462C134.783 197.821 137.141 196.626 139.156 194.964C141.17 193.302 142.791 191.214 143.901 188.85C145.012 186.486 145.584 183.905 145.578 181.294V128.216C145.585 123.526 143.73 119.025 140.421 115.702C137.111 112.38 132.618 110.507 127.928 110.495L127.658 110.51Z" fill="#898989"/>
</g>
<defs>
<clipPath id="clip0_303_17197">
<rect width="128.469" height="142.222" fill="white" transform="translate(63.6576 56.906)"/>
</clipPath>
</defs>
</svg>
