<svg width="257" height="257" viewBox="0 0 257 257" fill="none" xmlns="http://www.w3.org/2000/svg">
<rect x="1.26111" y="1.09424" width="255" height="255" rx="31.5" fill="white"/>
<rect x="1.26111" y="1.09424" width="255" height="255" rx="31.5" stroke="#878787"/>
<g clip-path="url(#clip0_303_17166)">
<path d="M161.228 147.815C160.054 147.815 158.907 147.466 157.932 146.814C156.956 146.162 156.196 145.235 155.747 144.15C155.299 143.066 155.182 141.873 155.412 140.722C155.642 139.571 156.209 138.514 157.039 137.685C157.87 136.856 158.928 136.293 160.08 136.066C161.231 135.838 162.424 135.958 163.507 136.409C164.591 136.86 165.516 137.622 166.166 138.599C166.816 139.577 167.161 140.725 167.159 141.898C167.155 143.469 166.528 144.973 165.417 146.083C164.305 147.192 162.798 147.815 161.228 147.815ZM95.8058 147.815C94.6316 147.817 93.483 147.472 92.5055 146.821C91.528 146.17 90.7657 145.244 90.3151 144.16C89.8644 143.076 89.7458 141.882 89.9742 140.73C90.2025 139.579 90.7677 138.521 91.5979 137.69C92.4282 136.86 93.4863 136.295 94.638 136.067C95.7898 135.838 96.9834 135.957 98.0677 136.408C99.152 136.858 100.078 137.62 100.729 138.598C101.379 139.575 101.725 140.724 101.722 141.898C101.718 143.466 101.094 144.969 99.9852 146.078C98.8764 147.186 97.3737 147.811 95.8058 147.815ZM163.376 112.131L175.208 91.6511C175.533 91.0831 175.62 90.4095 175.449 89.7779C175.278 89.1462 174.865 88.6078 174.298 88.2804C174.019 88.1186 173.711 88.0139 173.391 87.9724C173.071 87.9309 172.746 87.9534 172.435 88.0387C171.835 88.2259 171.327 88.632 171.013 89.1764L158.952 109.941C149.38 105.647 139.008 103.428 128.517 103.428C118.026 103.428 107.654 105.647 98.0813 109.941L86.092 89.1764C85.7607 88.6178 85.2252 88.2098 84.5987 88.0387C84.2876 87.9534 83.9627 87.9309 83.6428 87.9724C83.3229 88.0139 83.0145 88.1186 82.7355 88.2804C82.169 88.6078 81.7553 89.1462 81.5847 89.7779C81.4141 90.4095 81.5006 91.0831 81.8253 91.6511L93.6582 112.131C83.4325 117.698 74.76 125.733 68.4288 135.504C62.0977 145.275 58.3086 156.473 57.4058 168.081H199.628C198.725 156.473 194.936 145.275 188.605 135.504C182.274 125.733 173.601 117.698 163.376 112.131Z" fill="#A2A2A2"/>
</g>
<defs>
<clipPath id="clip0_303_17166">
<rect width="142.222" height="80.128" fill="white" transform="translate(57.4058 87.9534)"/>
</clipPath>
</defs>
</svg>
