<svg width="257" height="257" viewBox="0 0 257 257" fill="none" xmlns="http://www.w3.org/2000/svg">
<rect x="1.43286" y="0.68811" width="255" height="255" rx="31.5" fill="white"/>
<rect x="1.43286" y="0.68811" width="255" height="255" rx="31.5" stroke="#878787"/>
<g clip-path="url(#clip0_303_17171)">
<path d="M61.7866 80.0661L127.948 56.4999L195.888 79.6537L184.894 167.191L127.948 198.722L71.8986 167.604L61.7866 80.0661Z" fill="#676767"/>
<path d="M195.888 79.6537L127.948 56.4999V198.722L184.837 167.234L195.831 79.6537H195.888Z" fill="#575757"/>
<path d="M128.048 73.1115L86.8034 164.831L102.22 164.589L110.498 143.895H147.475L156.535 164.845L171.298 165.087L128.048 73.1115ZM128.162 102.495L142.085 131.622H115.902L128.162 102.495Z" fill="white"/>
</g>
<defs>
<clipPath id="clip0_303_17171">
<rect width="134.101" height="142.222" fill="white" transform="translate(61.7866 56.4999)"/>
</clipPath>
</defs>
</svg>
