<svg width="256" height="256" viewBox="0 0 256 256" fill="none" xmlns="http://www.w3.org/2000/svg">
<rect x="0.5" y="0.5" width="255" height="255" rx="31.5" fill="white"/>
<rect x="0.5" y="0.5" width="255" height="255" rx="31.5" stroke="#878787"/>
<g clip-path="url(#clip0_303_17195)">
<path d="M108.759 177.443C102.345 171.569 100.481 159.238 103.155 150.292C107.777 155.981 114.177 157.716 120.819 158.726C131.073 160.276 141.143 159.693 150.686 155C151.767 154.459 152.777 153.748 153.971 153.023C154.811 155.565 155.059 158.264 154.697 160.916C154.358 163.976 153.37 166.928 151.797 169.575C150.225 172.221 148.105 174.501 145.58 176.262C143.532 177.784 141.313 179.107 139.237 180.529C132.723 184.952 130.96 190.129 133.406 197.667C133.406 197.851 133.52 198.022 133.648 198.477C130.515 197.112 127.864 194.838 126.039 191.949C124.127 188.98 123.11 185.524 123.109 181.994C123.123 180.236 123.038 178.479 122.853 176.731C122.27 172.465 120.293 170.616 116.581 170.516C114.795 170.41 113.032 170.96 111.622 172.063C110.213 173.165 109.256 174.745 108.929 176.504C108.929 176.788 108.773 177.073 108.688 177.4L108.759 177.443Z" fill="#838383"/>
<path d="M72.2076 148.756C72.2076 148.756 91.1659 139.498 110.181 139.498L124.517 94.9821C124.658 94.0298 125.117 93.1532 125.819 92.4948C126.522 91.8364 127.426 91.4348 128.385 91.3554C129.347 91.4318 130.255 91.832 130.96 92.4906C131.665 93.1493 132.126 94.0276 132.268 94.9821L146.604 139.498C159.827 139.403 172.869 142.583 184.563 148.756C184.563 148.756 152.364 60.7634 152.307 60.5785C151.383 57.9758 149.818 56.3118 147.713 56.3118H109.072C106.967 56.3118 105.473 57.9901 104.478 60.5785C104.407 60.7634 72.2076 148.756 72.2076 148.756Z" fill="#020202"/>
</g>
<defs>
<clipPath id="clip0_303_17195">
<rect width="112.37" height="142.222" fill="white" transform="translate(72.2076 56.3118)"/>
</clipPath>
</defs>
</svg>
