<svg width="257" height="257" viewBox="0 0 257 257" fill="none" xmlns="http://www.w3.org/2000/svg">
<rect x="0.984985" y="0.797119" width="255" height="255" rx="31.5" fill="white"/>
<rect x="0.984985" y="0.797119" width="255" height="255" rx="31.5" stroke="#878787"/>
<g clip-path="url(#clip0_303_17192)">
<path d="M98.8773 122.337C98.5536 121.913 98.1496 121.558 97.6883 121.29C97.2271 121.023 96.7177 120.85 96.1892 120.78C95.6608 120.71 95.1238 120.745 94.6088 120.882C94.0939 121.02 93.6112 121.258 93.1884 121.583C92.6924 121.962 92.2888 122.448 92.008 123.005L57.1635 192.694C56.8991 193.204 56.7436 193.763 56.7068 194.336C56.6701 194.909 56.753 195.483 56.9502 196.022C57.3107 197.063 58.0598 197.924 59.0409 198.426C59.617 198.721 60.2564 198.873 60.904 198.866H109.444C110.223 198.894 110.991 198.686 111.649 198.269C112.314 197.864 112.844 197.27 113.171 196.562C123.652 174.845 117.295 141.978 98.8773 122.337Z" fill="url(#paint0_linear_303_17192)"/>
<path d="M124.492 58.9056C115.803 72.2733 110.74 87.6708 109.8 103.586C108.86 119.502 112.075 135.389 119.13 149.686L142.525 196.491C142.863 197.196 143.39 197.792 144.049 198.211C144.708 198.631 145.471 198.858 146.252 198.867H194.792C195.339 198.871 195.881 198.765 196.385 198.554C196.893 198.346 197.355 198.038 197.743 197.65C198.131 197.262 198.438 196.8 198.646 196.292C198.871 195.757 198.978 195.18 198.959 194.6C198.96 193.955 198.814 193.318 198.532 192.737L131.588 58.8914C131.269 58.2192 130.765 57.6513 130.136 57.2536C129.506 56.8559 128.777 56.6447 128.033 56.6443C127.292 56.6453 126.567 56.8574 125.942 57.2558C125.325 57.6573 124.832 58.224 124.52 58.8914L124.492 58.9056Z" fill="#757575"/>
</g>
<defs>
<linearGradient id="paint0_linear_303_17192" x1="118.035" y1="133.046" x2="81.2418" y2="196.776" gradientUnits="userSpaceOnUse">
<stop stop-color="#474747"/>
<stop offset="0.92" stop-color="#757575"/>
</linearGradient>
<clipPath id="clip0_303_17192">
<rect width="142.222" height="142.151" fill="white" transform="translate(56.7369 56.6443)"/>
</clipPath>
</defs>
</svg>
