<svg width="257" height="257" viewBox="0 0 257 257" fill="none" xmlns="http://www.w3.org/2000/svg">
<rect x="1.36548" y="0.797119" width="255" height="255" rx="31.5" fill="white"/>
<rect x="1.36548" y="0.797119" width="255" height="255" rx="31.5" stroke="#878787"/>
<g clip-path="url(#clip0_303_17183)">
<path d="M166.061 171.539L151.838 127.72L189.072 100.641H143.021L128.784 56.8079H174.85L189.072 100.641C193.21 113.379 193.21 127.101 189.071 139.839C184.932 152.578 176.867 163.679 166.032 171.553L166.061 171.539ZM91.4935 171.539L128.77 198.561L166.061 171.539L128.784 144.516L91.4935 171.539ZM68.4535 100.627C64.3186 113.368 64.3206 127.09 68.4591 139.83C72.5975 152.57 80.6604 163.674 91.4935 171.553L105.716 127.734L68.4535 100.712H114.533L128.77 56.8079H82.6899L68.4677 100.627H68.4535Z" fill="#7C7C7C"/>
</g>
<defs>
<clipPath id="clip0_303_17183">
<rect width="126.862" height="141.824" fill="white" transform="translate(65.3389 56.8079)"/>
</clipPath>
</defs>
</svg>
