<svg width="257" height="257" viewBox="0 0 257 257" fill="none" xmlns="http://www.w3.org/2000/svg">
<rect x="1.15673" y="0.68811" width="255" height="255" rx="31.5" fill="white"/>
<rect x="1.15673" y="0.68811" width="255" height="255" rx="31.5" stroke="#878787"/>
<g clip-path="url(#clip0_303_17185)">
<path d="M89.3362 168.998L75.569 172.141V82.9817L89.3362 86.139V168.998Z" fill="#9E9E9E"/>
<path d="M106.517 174.26L89.3362 179.138V76.1123L106.517 80.9763V174.26ZM128.547 179.664L106.517 187.728V67.5221L128.547 75.5719V179.664ZM187.455 169.268L128.547 198.722V56.4999L187.455 85.9541V169.268Z" fill="#9E9E9E"/>
<path d="M116.799 62.3737L128.547 56.4999V198.722L116.799 192.848V62.3737ZM97.4286 72.059L106.517 67.5221V187.7L97.4286 183.163V72.059ZM82.097 79.7248L89.3362 76.0981V179.124L82.097 175.497V79.7248ZM75.569 82.9817L69.6668 85.9399V169.282L75.569 172.24V82.9817Z" fill="#626262"/>
</g>
<defs>
<clipPath id="clip0_303_17185">
<rect width="117.788" height="142.222" fill="white" transform="translate(69.6668 56.4999)"/>
</clipPath>
</defs>
</svg>
