<svg width="257" height="257" viewBox="0 0 257 257" fill="none" xmlns="http://www.w3.org/2000/svg">
<rect x="0.880615" y="0.68811" width="255" height="255" rx="31.5" fill="white"/>
<rect x="0.880615" y="0.68811" width="255" height="255" rx="31.5" stroke="#878787"/>
<g clip-path="url(#clip0_303_17193)">
<path d="M96.8594 115.977C96.8131 117.418 96.9906 118.857 97.3856 120.244C97.8025 121.413 98.3065 122.549 98.8931 123.643C99.1053 123.969 99.2189 124.349 99.2202 124.738C99.1896 125.028 99.0928 125.307 98.9375 125.553C98.7822 125.8 98.5724 126.008 98.3242 126.16L95.3518 128.137C94.99 128.398 94.5598 128.546 94.1145 128.564C93.576 128.528 93.0695 128.295 92.6922 127.91C92.057 127.222 91.4902 126.474 90.9998 125.677C90.474 124.755 89.9992 123.806 89.5776 122.832C87.9088 124.907 85.7884 126.574 83.378 127.705C80.9675 128.836 78.3306 129.403 75.6682 129.36C73.9379 129.457 72.2057 129.206 70.5739 128.622C68.9422 128.039 67.444 127.134 66.1678 125.961C64.9887 124.769 64.0682 123.347 63.4638 121.783C62.8593 120.22 62.584 118.548 62.6549 116.873C62.5816 115.032 62.9275 113.199 63.6667 111.511C64.4058 109.823 65.5188 108.326 66.9216 107.131C70.2061 104.528 74.3276 103.213 78.5127 103.433C80.193 103.447 81.8703 103.575 83.5331 103.817C85.2825 104.059 87.0745 104.429 88.966 104.855V101.399C88.966 97.8154 88.2122 95.2981 86.7474 93.8332C85.2825 92.3683 82.6798 91.6572 79.0389 91.6572C77.3133 91.6599 75.5943 91.87 73.9189 92.283C72.1934 92.6913 70.5009 93.2285 68.8558 93.8901C68.3181 94.1256 67.7673 94.3298 67.206 94.5017C66.9623 94.5829 66.7088 94.6307 66.4522 94.6439C65.7838 94.6439 65.4567 94.1745 65.4567 93.2217V90.8608C65.4043 90.2862 65.5178 89.7087 65.7838 89.1968C66.1439 88.7729 66.5964 88.4372 67.1065 88.2154C69.0035 87.276 71.0033 86.5601 73.0656 86.0821C75.4771 85.4662 77.9581 85.165 80.4469 85.1861C86.1358 85.1861 90.1891 86.4519 92.8345 89.0119C95.4798 91.5719 96.7598 95.4403 96.7598 100.646V115.977H96.8594ZM77.6594 123.159C79.3164 123.142 80.9594 122.854 82.5234 122.306C84.261 121.715 85.8115 120.675 87.0176 119.291C87.7819 118.42 88.3322 117.383 88.6247 116.262C88.9532 114.912 89.1155 113.527 89.1082 112.137V110.16C86.2283 109.443 83.2725 109.076 80.3047 109.065C77.7868 108.853 75.2733 109.522 73.1936 110.957C72.4386 111.632 71.8486 112.472 71.4689 113.412C71.0892 114.351 70.9299 115.365 71.0034 116.375C70.9293 117.286 71.0467 118.202 71.348 119.064C71.6493 119.926 72.1278 120.716 72.7527 121.382C73.4138 122.001 74.1964 122.476 75.0508 122.777C75.9052 123.079 76.8129 123.199 77.7162 123.131L77.6594 123.159ZM115.633 128.279C114.991 128.332 114.352 128.144 113.841 127.753C113.343 127.247 112.998 126.611 112.845 125.919L101.738 89.3532C101.523 88.7413 101.38 88.1065 101.311 87.4617C101.311 86.6937 101.681 86.267 102.449 86.267H107.071C107.727 86.1835 108.389 86.3567 108.92 86.7505C109.401 87.2622 109.731 87.8973 109.873 88.5852L117.809 119.874L125.19 88.5852C125.291 87.8926 125.61 87.2501 126.1 86.7505C126.67 86.412 127.331 86.258 127.992 86.3097H131.775C132.443 86.2426 133.113 86.4139 133.666 86.7932C134.158 87.2899 134.473 87.9346 134.562 88.6279L142.029 120.329L150.221 88.6279C150.373 87.9465 150.696 87.3151 151.16 86.7932C151.71 86.4414 152.357 86.2721 153.009 86.3097H157.403C157.565 86.2882 157.729 86.3044 157.883 86.3571C158.037 86.4097 158.177 86.4974 158.291 86.6132C158.405 86.7289 158.491 86.8697 158.542 87.0243C158.593 87.1789 158.607 87.3432 158.584 87.5043C158.573 87.7573 158.545 88.0092 158.498 88.2581C158.419 88.6607 158.305 89.0556 158.157 89.4385L146.779 126.004C146.636 126.705 146.29 127.348 145.784 127.853C145.25 128.192 144.623 128.357 143.992 128.322H139.91C139.244 128.393 138.574 128.227 138.018 127.853C137.525 127.332 137.207 126.671 137.108 125.961L129.784 95.4403L122.502 125.904C122.381 126.592 122.071 127.232 121.606 127.753C121.052 128.133 120.382 128.304 119.714 128.237L115.633 128.279ZM176.418 129.545C173.966 129.548 171.522 129.262 169.137 128.692C167.247 128.315 165.419 127.679 163.704 126.8C163.11 126.509 162.615 126.049 162.282 125.478C162.104 125.059 162.012 124.61 162.011 124.155V121.751C162.011 120.756 162.381 120.329 163.092 120.329C163.382 120.335 163.67 120.383 163.946 120.471C164.23 120.571 164.657 120.756 165.126 120.955C166.796 121.693 168.541 122.246 170.331 122.605C172.203 122.988 174.11 123.178 176.02 123.174C178.421 123.31 180.811 122.768 182.918 121.609C183.689 121.144 184.323 120.484 184.755 119.694C185.187 118.905 185.402 118.015 185.378 117.115C185.394 116.506 185.289 115.899 185.07 115.33C184.85 114.761 184.52 114.242 184.098 113.801C182.715 112.629 181.08 111.792 179.32 111.355L172.465 109.222C169.497 108.454 166.848 106.766 164.898 104.4C163.376 102.433 162.547 100.018 162.538 97.531C162.452 95.6817 162.854 93.8424 163.704 92.1977C164.546 90.6752 165.705 89.3511 167.103 88.315C168.567 87.2167 170.221 86.3971 171.981 85.8972C173.931 85.3327 175.953 85.0595 177.983 85.0865C179.043 85.0772 180.103 85.139 181.154 85.2714C182.235 85.4137 183.231 85.6128 184.226 85.7977C185.222 85.9825 186.075 86.267 186.929 86.5514C187.615 86.7669 188.278 87.0528 188.906 87.4048C189.463 87.6847 189.95 88.0885 190.328 88.5852C190.636 89.0467 190.786 89.5957 190.754 90.1497V92.3683C190.754 93.3639 190.37 93.8901 189.674 93.8901C189.042 93.8138 188.429 93.6209 187.867 93.3212C185.013 92.0519 181.917 91.421 178.794 91.4723C176.613 91.3441 174.438 91.8007 172.493 92.795C171.763 93.2293 171.168 93.8587 170.776 94.6125C170.385 95.3663 170.211 96.2145 170.274 97.0617C170.26 97.6899 170.38 98.314 170.625 98.8927C170.87 99.4713 171.235 99.9912 171.697 100.418C173.229 101.643 175.003 102.53 176.902 103.021L183.615 105.154C186.463 105.881 189.02 107.465 190.939 109.691C192.381 111.597 193.147 113.929 193.115 116.319C193.128 118.199 192.709 120.058 191.892 121.751C191.049 123.366 189.871 124.782 188.436 125.904C186.873 127.118 185.092 128.021 183.188 128.564C180.994 129.23 178.712 129.561 176.418 129.545Z" fill="#2E2E2E"/>
<path fill-rule="evenodd" clip-rule="evenodd" d="M185.364 152.543C169.805 164.034 147.192 170.135 127.75 170.135C101.779 170.273 76.6928 160.707 57.4069 143.312C55.9847 141.99 57.2647 140.198 59.014 141.236C80.4512 153.481 104.712 159.922 129.4 159.924C147.844 159.826 166.087 156.095 183.089 148.944C185.691 147.764 187.91 150.651 185.364 152.543Z" fill="#A7A7A7"/>
<path fill-rule="evenodd" clip-rule="evenodd" d="M191.892 145.161C189.915 142.601 178.751 143.924 173.688 144.55C172.18 144.734 171.938 143.412 173.304 142.416C182.207 136.173 196.813 137.965 198.52 140.055C200.226 142.146 198.05 156.795 189.73 163.792C188.45 164.887 187.213 164.318 187.782 162.896C189.617 158.217 193.826 147.664 191.892 145.161Z" fill="#A7A7A7"/>
</g>
<defs>
<clipPath id="clip0_303_17193">
<rect width="142.222" height="85.0489" fill="white" transform="translate(56.7811 85.0865)"/>
</clipPath>
</defs>
</svg>
