<svg width="257" height="257" viewBox="0 0 257 257" fill="none" xmlns="http://www.w3.org/2000/svg">
<rect x="0.813354" y="1.09424" width="255" height="255" rx="31.5" fill="white"/>
<rect x="0.813354" y="1.09424" width="255" height="255" rx="31.5" stroke="#878787"/>
<g clip-path="url(#clip0_303_17222)">
<path fill-rule="evenodd" clip-rule="evenodd" d="M186.967 111.05C181.164 111.05 177.879 112.173 175.987 114.804C174.095 117.436 173.626 121.916 173.626 127.988C173.626 139.964 175.489 145.055 186.967 145.055C188.389 145.055 193.068 145.055 195.827 144.685C196.253 144.637 196.647 144.433 196.932 144.113C197.218 143.793 197.376 143.379 197.377 142.95V141.628C197.381 141.388 197.337 141.15 197.246 140.928C197.156 140.707 197.022 140.505 196.852 140.337C196.682 140.168 196.479 140.035 196.257 139.947C196.034 139.858 195.796 139.816 195.557 139.821H187.023C180.538 139.821 179.372 138.3 179.215 129.61V126.694C179.215 117.805 180.439 116.241 187.023 116.241C193.111 116.241 194.277 117.663 194.476 125.457H184.762V130.748H197.463C199.966 130.748 199.966 128.998 199.966 128.415V126.765C199.781 114.577 196.865 111.121 186.967 111.121V111.05ZM170.241 111.519L170.099 111.476C168.106 111.199 166.096 111.056 164.083 111.05C158.394 111.05 155.407 113.425 155.407 117.919V142.936C155.397 143.168 155.436 143.4 155.52 143.617C155.604 143.834 155.733 144.031 155.897 144.195C156.062 144.36 156.259 144.488 156.476 144.573C156.692 144.657 156.924 144.695 157.157 144.685H159.176C159.41 144.697 159.643 144.661 159.862 144.577C160.08 144.494 160.279 144.366 160.445 144.201C160.611 144.036 160.741 143.839 160.826 143.621C160.911 143.403 160.95 143.17 160.94 142.936V118.374C160.94 117.265 161.21 116.269 164.595 116.269H169.615C169.85 116.301 170.089 116.283 170.317 116.217C170.545 116.151 170.756 116.038 170.938 115.885C171.141 115.71 171.302 115.491 171.408 115.245C171.514 114.998 171.563 114.731 171.55 114.463V113.254C171.554 112.861 171.428 112.477 171.191 112.163C170.955 111.85 170.62 111.623 170.241 111.519ZM146.063 111.519H143.987C143.755 111.509 143.523 111.547 143.306 111.632C143.089 111.716 142.892 111.845 142.728 112.009C142.563 112.174 142.435 112.37 142.35 112.587C142.266 112.804 142.228 113.036 142.238 113.268V139.75H133.847C128.655 139.75 126.551 139.423 126.551 131.217V113.197C126.561 112.965 126.522 112.733 126.438 112.516C126.354 112.299 126.225 112.102 126.061 111.938C125.896 111.773 125.699 111.645 125.482 111.561C125.266 111.476 125.034 111.438 124.801 111.448H122.839C122.603 111.438 122.368 111.477 122.147 111.56C121.927 111.644 121.725 111.771 121.555 111.935C121.385 112.098 121.25 112.294 121.158 112.511C121.065 112.728 121.018 112.962 121.018 113.197V131.146C121.018 142.908 125.285 144.984 134.245 144.984C138.208 145.059 142.171 144.86 146.106 144.387H146.191C146.626 144.335 147.027 144.125 147.318 143.797C147.609 143.47 147.77 143.047 147.77 142.609V113.197C147.78 112.964 147.742 112.73 147.656 112.513C147.571 112.295 147.441 112.097 147.275 111.933C147.109 111.768 146.911 111.64 146.692 111.556C146.474 111.473 146.24 111.436 146.007 111.448" fill="#272727"/>
<path fill-rule="evenodd" clip-rule="evenodd" d="M114.803 112.273C114.67 112.009 114.467 111.788 114.216 111.632C113.965 111.477 113.676 111.393 113.381 111.391H110.721C110.399 111.37 110.076 111.438 109.79 111.589C109.504 111.739 109.265 111.966 109.1 112.244L105.26 117.933L108.631 122.428L114.504 114.036C114.722 113.804 114.866 113.513 114.919 113.2C114.972 112.886 114.932 112.564 114.803 112.273Z" fill="#939393"/>
<path fill-rule="evenodd" clip-rule="evenodd" d="M94.522 112.187C94.3387 111.931 94.0947 111.724 93.8117 111.585C93.5287 111.446 93.2157 111.379 92.9007 111.391H90.3691C90.0795 111.386 89.794 111.46 89.5434 111.606C89.2928 111.751 89.0865 111.962 88.9469 112.216C88.7959 112.489 88.7238 112.798 88.7389 113.11C88.754 113.421 88.8556 113.722 89.0322 113.979L98.4331 127.007L87.61 142.083C87.4269 142.33 87.3165 142.623 87.2914 142.93C87.2663 143.236 87.3274 143.544 87.4678 143.818C87.6093 144.069 87.8163 144.277 88.0668 144.42C88.3173 144.562 88.6018 144.635 88.89 144.628H91.4785C91.8073 144.654 92.1366 144.586 92.4285 144.433C92.7204 144.279 92.963 144.046 93.1282 143.761L105.217 127.078L94.522 112.187Z" fill="#747474"/>
<path fill-rule="evenodd" clip-rule="evenodd" d="M116.055 142.211L108.517 131.871L105.203 136.436L111.162 144.401L111.319 144.472C111.557 144.573 111.813 144.626 112.072 144.628H114.632C114.913 144.636 115.19 144.572 115.439 144.443C115.688 144.314 115.9 144.123 116.055 143.889C116.202 143.634 116.279 143.344 116.279 143.05C116.279 142.755 116.202 142.466 116.055 142.211Z" fill="#686868"/>
<path fill-rule="evenodd" clip-rule="evenodd" d="M77.6545 130.534V139.324C75.0597 139.647 72.4472 139.809 69.8323 139.807C63.9301 139.807 63.2901 138.2 63.2901 134.772C63.2901 131.572 64.4847 130.506 68.211 130.506L77.6545 130.534ZM69.5905 111.05C67.114 111.034 64.6391 111.177 62.1807 111.476L62.0101 111.505C61.5981 111.568 61.2244 111.782 60.9615 112.105C60.6986 112.428 60.5654 112.838 60.5879 113.254V114.52C60.5659 114.764 60.5996 115.01 60.6863 115.239C60.773 115.468 60.9105 115.674 61.0884 115.843C61.2663 116.011 61.4801 116.137 61.7136 116.211C61.9471 116.285 62.1944 116.305 62.4367 116.269H69.5479C75.2367 116.269 77.6545 117.834 77.6545 121.66V125.372H68.2536C60.8865 125.372 57.7434 128.216 57.7434 134.772C57.7434 142.111 61.0003 144.984 69.3487 144.984C73.3436 145.054 77.3357 144.73 81.267 144.017C81.8457 143.913 82.3654 143.598 82.7253 143.133C83.0853 142.668 83.2599 142.086 83.2154 141.5V121.318C83.2154 114.406 78.7639 111.05 69.5905 111.05Z" fill="#272727"/>
</g>
<defs>
<clipPath id="clip0_303_17222">
<rect width="142.222" height="33.9342" fill="white" transform="translate(57.7434 111.05)"/>
</clipPath>
</defs>
</svg>
