<svg width="257" height="257" viewBox="0 0 257 257" fill="none" xmlns="http://www.w3.org/2000/svg">
<rect x="1.15673" y="1.28223" width="255" height="255" rx="31.5" fill="white"/>
<rect x="1.15673" y="1.28223" width="255" height="255" rx="31.5" stroke="#878787"/>
<g clip-path="url(#clip0_303_17134)">
<path d="M105.355 61.1616H147.439L103.748 190.683C103.52 191.345 103.194 191.968 102.781 192.532C102.379 193.073 101.9 193.553 101.359 193.955C100.791 194.351 100.168 194.663 99.5097 194.879C98.8432 195.094 98.1476 195.204 97.4475 195.206H64.7364C63.668 195.198 62.6169 194.935 61.6698 194.441C60.7228 193.946 59.9068 193.233 59.2892 192.362C58.669 191.496 58.2641 190.494 58.1083 189.441C57.9525 188.387 58.0501 187.311 58.3932 186.303L98.9977 65.727C99.2173 65.0649 99.5388 64.4411 99.9506 63.8781C100.374 63.3317 100.878 62.8522 101.444 62.4558C102.004 62.043 102.629 61.7258 103.293 61.5172C103.958 61.2929 104.653 61.173 105.355 61.1616Z" fill="url(#paint0_linear_303_17134)"/>
<path d="M182.937 195.249H145.149C144.724 195.247 144.301 195.209 143.883 195.135C143.47 195.053 143.066 194.934 142.674 194.779C142.279 194.624 141.898 194.434 141.536 194.211C141.183 193.983 140.85 193.726 140.541 193.443L97.6608 153.393C97.2095 152.967 96.893 152.418 96.7506 151.814C96.6124 151.207 96.662 150.572 96.8928 149.994C97.1176 149.422 97.5088 148.93 98.0159 148.583C98.523 148.235 99.1226 148.048 99.7373 148.045H166.496L182.923 195.249H182.937Z" fill="#5E5E5E"/>
<path d="M147.538 61.1614L118.127 148.045H166.269L182.781 195.248H145.12C144.734 195.251 144.348 195.217 143.968 195.149C143.58 195.08 143.199 194.975 142.831 194.836C142.099 194.565 141.416 194.176 140.811 193.684L111.869 166.662L103.762 190.584C103.556 191.184 103.269 191.753 102.909 192.276C102.374 193.062 101.686 193.732 100.887 194.248C100.089 194.763 99.1946 195.113 98.2581 195.277H64.651C63.577 195.289 62.5166 195.035 61.5648 194.537C60.612 194.041 59.7921 193.323 59.1735 192.445C58.5549 191.567 58.1557 190.553 58.0092 189.488C57.8686 188.42 57.9806 187.334 58.3364 186.317L98.9835 65.8263C99.2014 65.175 99.518 64.561 99.9221 64.0058C100.325 63.4659 100.804 62.9869 101.344 62.5836C101.923 62.1132 102.577 61.743 103.279 61.4885C103.95 61.2727 104.65 61.1623 105.355 61.1614H147.538Z" fill="url(#paint1_linear_303_17134)"/>
<path d="M199.805 186.402C200.148 187.411 200.246 188.486 200.09 189.54C199.934 190.594 199.529 191.595 198.909 192.461C198.291 193.333 197.475 194.046 196.528 194.54C195.581 195.035 194.53 195.297 193.462 195.306H146.528C147.592 195.306 148.64 195.052 149.586 194.566C150.532 194.08 151.351 193.379 151.975 192.518C152.587 191.676 152.991 190.701 153.156 189.674C153.316 188.619 153.224 187.542 152.886 186.53L112.21 65.7269C111.878 64.7337 111.32 63.8312 110.58 63.0907C109.839 62.3503 108.937 61.7921 107.943 61.4602C107.266 61.2524 106.561 61.1516 105.853 61.1616H152.786C153.486 61.1638 154.182 61.2741 154.848 61.4887C155.51 61.7033 156.134 62.02 156.697 62.4273C157.242 62.8249 157.722 63.3047 158.119 63.8496C158.533 64.4137 158.859 65.037 159.087 65.6984L199.819 186.402H199.805Z" fill="url(#paint2_linear_303_17134)"/>
</g>
<defs>
<linearGradient id="paint0_linear_303_17134" x1="120.701" y1="71.103" x2="76.9675" y2="200.298" gradientUnits="userSpaceOnUse">
<stop stop-color="#404040"/>
<stop offset="1" stop-color="#545454"/>
</linearGradient>
<linearGradient id="paint1_linear_303_17134" x1="134.354" y1="131.305" x2="124.228" y2="134.733" gradientUnits="userSpaceOnUse">
<stop stop-opacity="0.3"/>
<stop offset="0.1" stop-opacity="0.2"/>
<stop offset="0.3" stop-opacity="0.1"/>
<stop offset="0.6" stop-opacity="0.1"/>
<stop offset="1" stop-opacity="0"/>
</linearGradient>
<linearGradient id="paint2_linear_303_17134" x1="129.092" y1="67.206" x2="177.092" y2="195.092" gradientUnits="userSpaceOnUse">
<stop stop-color="#A5A5A5"/>
<stop offset="1" stop-color="#7B7B7B"/>
</linearGradient>
<clipPath id="clip0_303_17134">
<rect width="142.222" height="134.087" fill="white" transform="translate(57.9381 61.1616)"/>
</clipPath>
</defs>
</svg>
