<svg width="257" height="257" viewBox="0 0 257 257" fill="none" xmlns="http://www.w3.org/2000/svg">
<rect x="1.26111" y="0.985107" width="255" height="255" rx="31.5" fill="white"/>
<rect x="1.26111" y="0.985107" width="255" height="255" rx="31.5" stroke="#878787"/>
<g clip-path="url(#clip0_303_17125)">
<path d="M155.579 105.138V104.825H155.081V105.138H155.579ZM158.907 113.117V113.288H159.262C159.262 113.121 159.296 112.957 159.362 112.804V112.491C159.191 112.477 159.021 112.69 158.907 113.117ZM145.95 123.172C145.241 121.956 144.375 120.837 143.376 119.844C143.376 119.489 143.945 118.948 145.168 118.237L148.681 115.179C149.626 113.735 150.121 112.042 150.103 110.315V109.803C149.975 108.253 148.852 106.959 146.718 106.049C145.453 105.195 143.191 104.726 139.906 104.626C136.202 105.094 132.583 106.08 129.154 107.556C127.834 108.506 126.462 109.379 125.044 110.173V110.443C125.206 110.39 125.352 110.297 125.47 110.173C125.655 110.173 125.755 110.173 125.769 110.401L126.039 110.273H126.167V110.386C125.321 111.248 124.364 111.994 123.323 112.605L123.465 112.875H123.351L123.024 112.761C123.024 112.847 122.91 112.918 122.64 112.932V113.046L122.939 113.43C122.787 113.427 122.637 113.393 122.498 113.33C121.994 113.402 121.534 113.655 121.204 114.041L121.374 113.259C121.952 110.845 122.394 108.399 122.697 105.935V105.793C122.215 105.469 121.787 105.071 121.431 104.612C121.448 104.428 121.448 104.242 121.431 104.057V103.929H121.303C119.881 106.006 117.25 109.618 113.282 114.582C111.568 116.434 110.008 118.422 108.617 120.527C107.356 121.864 106.754 122.679 106.811 122.973C106.484 123.186 106.356 123.4 106.398 123.627C106.38 123.634 106.359 123.636 106.34 123.634C106.32 123.631 106.301 123.624 106.284 123.613C106.268 123.602 106.254 123.587 106.244 123.57C106.234 123.553 106.229 123.533 106.228 123.513C105.971 123.935 105.63 124.299 105.226 124.582C104.822 124.866 104.364 125.064 103.881 125.163L102.786 125.405C102.717 125.425 102.657 125.469 102.618 125.529C102.579 125.589 102.563 125.661 102.573 125.732V125.86L102.971 125.761V125.889L102.046 126.244L100.397 126.614H99.5432C99.4152 126.742 100.226 126.614 99.913 126.614L98.8321 126.87C98.1921 127.012 97.8365 126.969 97.7654 126.699H97.6374C97.6581 126.788 97.6581 126.881 97.6374 126.969V126.699L96.7699 126.898C95.7992 125.33 94.6278 123.896 93.2854 122.632C93.2854 122.148 94.0392 121.437 95.6605 120.527L100.269 116.473C101.473 114.592 102.119 112.407 102.132 110.173V109.49C101.923 107.404 100.415 105.736 97.609 104.484C95.945 103.361 92.9725 102.763 88.6632 102.678C83.8579 103.3 79.1594 104.573 74.697 106.461C72.9682 107.703 71.1684 108.842 69.3068 109.874V110.23C69.4997 110.197 69.6836 110.124 69.8472 110.017C69.8919 110.006 69.9385 110.005 69.9834 110.015C70.0283 110.025 70.0703 110.045 70.1061 110.074C70.1419 110.103 70.1705 110.14 70.1898 110.182C70.209 110.224 70.2183 110.269 70.217 110.315L70.5725 110.102H70.8428V110.273C69.6713 111.369 68.3892 112.342 67.017 113.174L67.2161 113.487H67.0454L66.6614 113.345C66.6614 113.444 66.4908 113.515 66.121 113.558V113.743L66.5476 114.198C66.3522 114.199 66.1586 114.161 65.9788 114.084C65.4767 114.193 65.0037 114.408 64.5915 114.714C64.1794 115.021 63.8377 115.412 63.5894 115.862L63.7885 116.175C64.1387 115.801 64.5411 115.48 64.9832 115.222V115.734C64.7929 115.776 64.6105 115.848 64.4428 115.947L64.8836 116.601C65.7119 115.723 66.6486 114.954 67.6712 114.312C68.1548 114.44 68.425 114.596 68.425 114.767H68.809C71.2498 112.907 73.9656 111.438 76.8588 110.415V110.77C76.361 111.51 76.0339 111.88 75.849 111.908C75.8631 112.15 75.9582 112.381 76.1192 112.562C75.1431 115.693 73.9307 118.746 72.4925 121.693C68.4794 131.658 63.809 141.346 58.5121 150.692C58.5483 150.878 58.6261 151.053 58.7396 151.204C59.3686 151.094 59.9716 150.867 60.5174 150.536H60.7165V150.891H61.0579L61.4134 150.692C61.4134 150.792 61.5414 150.849 61.7832 150.834V151.19C61.7461 151.766 61.5436 152.319 61.2001 152.783C60.6328 153.608 60.2185 154.528 59.977 155.499V155.656H60.3183C61.6932 154.168 62.8561 152.498 63.7743 150.692C67.2569 149.755 70.639 148.479 73.8721 146.881C75.8018 146.826 77.6684 146.181 79.2196 145.032V144.847L78.3379 145.117H78.1388V144.932C79.4043 144.832 80.6279 144.432 81.7085 143.766C85.065 141.106 87.625 139.286 89.3316 138.205C92.8588 135.636 95.1438 133.118 96.1868 130.653L96.7699 130.511C97.049 130.536 97.3298 130.536 97.609 130.511C97.6048 130.492 97.6045 130.473 97.6081 130.454C97.6116 130.435 97.6189 130.417 97.6295 130.401C97.6401 130.385 97.6539 130.372 97.6699 130.361C97.6859 130.351 97.7039 130.344 97.7228 130.34C98.5192 130.269 98.1352 130.34 98.6472 130.34L99.9699 130.041C99.8845 130.041 99.8419 130.041 99.8703 130.184L100.069 130.056H99.9699H100.183H100.084C100.243 130.09 100.408 130.09 100.567 130.056L100.653 130.44L94.6365 140.011L93.2996 141.689L92.6596 143.865H92.7734L93.4276 143.595L93.2143 144.449L93.2854 144.69L93.4561 144.918C93.3708 144.918 93.3423 144.975 93.3708 145.089V145.217H93.641C94.0392 144.875 94.2099 144.548 94.153 144.278C94.4352 144.328 94.7241 144.328 95.0063 144.278V144.42C94.7503 144.42 94.6081 144.69 94.5939 145.046V145.174H94.7361C96.9263 142.799 102.288 134.635 106.583 129.103C106.441 128.491 108.674 127.681 113.296 126.6H113.453C113.43 128.407 113.063 130.192 112.372 131.862C112.065 132.67 111.827 133.503 111.661 134.351C111.222 135.538 110.889 136.761 110.665 138.006L109.029 143.368C107.951 146.183 107.137 149.092 106.597 152.057C106.742 152.02 106.894 152.02 107.038 152.057L107.28 151.858C107.283 151.877 107.29 151.895 107.301 151.91C107.312 151.926 107.326 151.939 107.342 151.948C107.358 151.958 107.376 151.964 107.395 151.965C107.414 151.967 107.433 151.964 107.451 151.958L107.365 151.574H108.077C108.29 151.574 108.461 151.261 108.603 150.777C108.603 150.052 108.731 149.668 109.044 149.583C109.214 148.683 109.486 147.805 109.854 146.966C110.031 145.953 110.342 144.968 110.779 144.036C111.39 141.803 111.845 140.665 112.201 140.594V140.865L111.746 142.031C111.162 144.851 110.363 147.623 109.357 150.322L109.584 151.332H109.726C111.689 147.132 114.505 138.817 118.174 126.386C118.211 125.867 118.372 125.365 118.644 124.922C118.917 124.478 119.292 124.107 119.739 123.841L119.525 123.613V123.499C119.849 123.424 120.136 123.238 120.336 122.973C120.336 122.888 119.938 122.745 119.227 122.561L121.061 114.724C121.263 114.507 121.498 114.325 121.758 114.184V114.582C121.609 114.603 121.467 114.662 121.346 114.753L121.701 115.25C122.31 114.576 123.003 113.983 123.764 113.487C124.133 113.586 124.318 113.714 124.347 113.842H124.617C126.478 112.44 128.546 111.337 130.747 110.571V110.827C130.377 111.396 130.135 111.681 129.993 111.681C130.011 111.862 130.069 112.037 130.164 112.193C129.439 114.573 128.531 116.893 127.447 119.133C124.382 126.702 120.824 134.061 116.795 141.163C116.834 141.308 116.902 141.443 116.994 141.561C117.465 141.481 117.914 141.307 118.317 141.049H118.445V141.305H118.743L118.999 141.163C118.999 141.234 119.099 141.277 119.284 141.263V141.462C119.254 141.894 119.101 142.309 118.843 142.657C118.392 143.271 118.063 143.966 117.876 144.705V144.847H118.146C119.192 143.715 120.073 142.442 120.763 141.064C123.406 140.373 125.974 139.42 128.429 138.219C129.904 138.18 131.33 137.683 132.51 136.797V136.655L131.828 136.854H131.685V136.712C132.647 136.642 133.578 136.344 134.402 135.844C136.933 133.896 138.868 132.502 140.091 131.677C144.144 128.719 146.036 125.889 145.78 123.144L145.95 123.172ZM145.253 123.343L145.353 124.409C145.225 124.665 145.083 124.808 144.969 124.822L144.798 122.973C145.097 123.073 145.239 123.172 145.253 123.3V123.343ZM65.7228 114.809H65.5379V114.482H66.2632V114.639C66.0769 114.679 65.8989 114.751 65.737 114.852L65.7228 114.809ZM62.1814 150.209C61.835 150.031 61.4451 149.957 61.0579 149.995V149.469C61.0579 149.27 61.1716 149.142 61.3992 149.085C61.641 149.085 61.769 149.227 61.7974 149.569C62.0973 149.158 62.4354 148.777 62.8072 148.431L63.1912 148.587C63.0632 149.64 62.7361 150.18 62.2241 150.223L62.1814 150.209ZM100.013 110.642C99.8276 110.642 99.4721 110.102 98.9601 108.993V108.68C99.3014 108.68 99.6428 109.192 100.013 110.315V110.642ZM99.5005 106.717L99.3583 107.073L94.2241 104.925C97.6374 105.039 99.401 105.636 99.5005 106.717ZM77.8116 125.348H77.0863V125.021H77.8116V125.348ZM77.2285 114.155H77.3992V114.681C77.2285 114.681 77.0152 114.937 76.745 115.421V115.065C77.0033 114.83 77.1739 114.514 77.2285 114.169V114.155ZM75.6925 117.753L75.7636 118.436H75.5788V117.753H75.6925ZM74.8961 119.033H75.2516C75.2516 119.588 75.0525 119.901 74.7823 119.915H74.5974C74.7777 119.66 74.8813 119.359 74.8961 119.048V119.033ZM74.2988 120.811H74.4979V120.982L74.1708 121.522H73.8294V121.352C73.8997 121.356 73.97 121.343 74.0347 121.315C74.0994 121.288 74.1568 121.245 74.2023 121.191C74.2477 121.137 74.2801 121.074 74.2969 121.005C74.3136 120.937 74.3143 120.866 74.2988 120.797V120.811ZM73.6872 122.418L73.5876 123.286H73.4028L73.3316 122.433H73.6872V122.418ZM67.8276 139.172C67.5859 140.353 67.3441 140.95 67.0739 140.978V140.808C67.0578 140.493 67.1195 140.179 67.2534 139.894C67.3874 139.609 67.5895 139.361 67.8419 139.172H67.8276ZM66.7468 141.462V141.633C66.7582 141.678 66.7585 141.726 66.7477 141.772C66.737 141.819 66.7154 141.861 66.6849 141.897C66.6543 141.934 66.6157 141.962 66.572 141.98C66.5284 141.998 66.481 142.006 66.4339 142.002V141.846C66.4054 141.704 66.5761 141.576 66.7468 141.462ZM66.4196 146.326H66.9743V146.525C66.7853 146.547 66.6046 146.616 66.4481 146.724H66.0925C66.0879 146.633 66.1174 146.543 66.1752 146.472C66.233 146.401 66.315 146.354 66.4054 146.34L66.4196 146.326ZM81.9645 141.519C80.0462 142.369 78.2248 143.423 76.5316 144.662C73.2179 145.814 71.5681 146.525 71.5965 146.809C69.606 147.552 67.6592 148.407 65.7654 149.369C65.4326 149.369 65.1052 149.286 64.8125 149.128C64.8001 148.84 64.8681 148.555 65.0087 148.303C65.1494 148.052 65.3572 147.845 65.609 147.705C66.0955 147.673 66.5827 147.756 67.0312 147.947C67.9431 147.534 68.8967 147.219 69.8756 147.009V146.653L68.7805 146.738C69.7747 146.144 70.8341 145.667 71.9379 145.316H72.4925V145.473C71.5681 145.558 71.0703 145.828 70.9281 146.326C70.9281 146.553 71.0845 146.639 71.3121 146.625C72.009 146.184 72.3645 145.913 72.3503 145.842C73.6872 145.586 77.3708 143.666 83.4152 140.054V140.381C83.4152 140.537 82.9174 140.978 81.865 141.732L81.9645 141.519ZM72.7059 144.577C73.5632 144.499 74.3672 144.127 74.9814 143.524C75.2232 143.524 75.3654 143.595 75.3796 143.809C74.4982 144.03 73.6612 144.4 72.905 144.904H72.7201L72.7059 144.577ZM87.6534 133.085L83.017 136.754C81.2504 138.021 79.3969 139.161 77.4703 140.168C71.9805 143.183 68.5719 144.747 67.2445 144.861H67.0454C67.2161 144.235 69.6576 139.234 74.3699 129.857C77.7553 129.339 81.0589 128.383 84.1974 127.012L85.2925 126.913C86.1799 126.753 87.0911 126.787 87.9646 127.01C88.8381 127.233 89.6534 127.641 90.3556 128.207V128.889C89.5165 131.307 88.5921 132.715 87.5965 133.156L87.6534 133.085ZM78.5939 127.993H79.3476V128.164H78.5939V127.993ZM89.0756 126.216H89.6161C90.1281 126.457 90.3841 126.657 90.3983 126.856V127.026C90.1276 127.028 89.8613 126.957 89.6265 126.822C89.3917 126.687 89.1968 126.493 89.0614 126.258L89.0756 126.216ZM90.4979 117.782C89.294 118.918 87.9624 119.911 86.5299 120.74C83.7884 121.549 81.1195 122.586 78.5512 123.841C78.3193 123.737 78.0639 123.698 77.8116 123.727V123.4C77.8361 122.491 78.15 121.614 78.7076 120.897C79.0632 119.005 79.4472 117.924 79.8881 117.654L83.7139 109.035C83.7139 108.495 84.4961 108.097 86.1743 107.812H86.7148V108.31C88.3645 108.054 89.4028 107.912 89.801 107.869C92.8445 107.613 94.4374 108.239 94.5512 109.718H94.9068V108.85H95.2765C95.6453 109.005 95.969 109.251 96.2176 109.564C96.4662 109.877 96.6317 110.248 96.6988 110.642C96.6652 111.316 96.3929 111.957 95.9308 112.449C95.689 112.449 95.561 112.292 95.5325 111.965H95.1628L95.0916 113.017C93.5414 115.321 92.4179 116.516 91.7352 116.573C91.0952 117.398 90.7539 117.839 90.5548 117.839L90.4979 117.782ZM92.8445 123.826C92.6276 123.656 92.3657 123.552 92.0908 123.528V123.016H92.4321L93.2001 123.471C93.2001 123.713 93.129 123.826 92.8872 123.855L92.8445 123.826ZM95.2908 126.671C95.6179 126.813 95.817 126.955 95.8596 127.097H95.689H95.5894L95.3334 127.297V126.6L95.2908 126.671ZM95.5183 128.093V127.951L95.9592 127.851V127.993L95.5183 128.093ZM96.5708 129.273C97.0259 129.202 97.2534 129.174 98.0925 128.989V129.117L96.4996 129.487C96.5442 129.461 96.587 129.433 96.6276 129.401L96.5708 129.273ZM98.1352 129.942C97.5927 129.945 97.0527 130.017 96.5281 130.155V130.027L97.865 129.601L98.505 129.444L98.5761 129.7C98.3201 129.885 98.5192 129.885 98.1921 130.084L98.1352 129.942ZM99.5574 129.601C99.401 129.601 99.2872 129.601 99.2019 129.401L99.6143 129.302C99.6508 129.289 99.6897 129.284 99.7283 129.288C99.7668 129.292 99.8039 129.305 99.8368 129.326C99.8697 129.346 99.8974 129.374 99.918 129.407C99.9386 129.44 99.9515 129.477 99.9556 129.515L99.5574 129.601ZM103.412 125.462V125.334L104.066 125.177V125.419L103.412 125.462ZM107.522 150.649C107.54 150.513 107.54 150.374 107.522 150.237H107.664C107.849 150.237 107.949 150.237 107.991 150.422V150.564L107.465 150.678L107.522 150.649ZM110.366 126.543H110.068C109.68 126.706 109.281 126.839 108.873 126.941H108.603C108.567 126.954 108.53 126.96 108.492 126.957C108.454 126.955 108.417 126.945 108.384 126.927C108.35 126.91 108.321 126.886 108.297 126.856C108.274 126.827 108.257 126.793 108.247 126.756L110.181 126.315L110.807 126.017L111.021 126.258C110.784 126.295 110.56 126.387 110.366 126.529V126.543ZM111.789 126.073V125.945C111.924 125.893 112.045 125.81 112.144 125.704L113.566 125.391V125.533C112.998 125.708 112.446 125.932 111.917 126.201L111.789 126.073ZM112.087 123.442C111.943 123.487 111.811 123.565 111.703 123.67C111.703 123.585 111.49 123.585 111.134 123.67C111.134 123.414 112.087 123.044 114.178 122.561H114.462V122.802C113.04 123.243 112.173 123.485 112.016 123.513L112.087 123.442ZM115.757 119.474C115.614 121.138 115.031 122.091 113.979 122.319V122.177L113.054 122.532L112.642 122.632C112.461 122.689 112.268 122.689 112.087 122.632V122.262C113.306 120.335 114.645 118.487 116.098 116.729H116.411C116.44 117.681 116.23 118.625 115.799 119.474H115.757ZM122.256 113.899H122.185V113.643H122.74V113.785C122.597 113.822 122.459 113.875 122.327 113.942L122.256 113.899ZM119.625 140.808C119.368 140.669 119.078 140.6 118.786 140.609V140.21C118.786 140.082 118.857 139.983 119.042 139.926C119.227 139.869 119.312 140.04 119.341 140.31C119.552 139.988 119.805 139.696 120.094 139.442L120.379 139.556C120.279 140.353 120.037 140.779 119.653 140.808H119.625ZM148.34 110.77C148.212 110.77 147.941 110.358 147.529 109.505V109.234C147.785 109.234 148.069 109.633 148.34 110.472V110.77ZM147.97 107.755L147.842 108.025L143.959 106.404C146.548 106.489 147.899 106.945 147.97 107.755ZM131.486 121.977H130.946V121.707H131.486V121.963V121.977ZM131.031 113.444H131.188V113.842C131.045 113.842 130.875 114.041 130.676 114.411V114.098C130.87 113.919 130.996 113.678 131.031 113.416V113.444ZM129.893 116.175V116.687H129.737V116.161L129.893 116.175ZM129.268 117.142H129.538C129.538 117.583 129.396 117.81 129.197 117.839H129.054C129.19 117.621 129.263 117.37 129.268 117.113V117.142ZM128.827 118.493H128.955V118.635L128.713 119.048H128.443V118.905C128.727 118.877 128.855 118.706 128.827 118.465V118.493ZM128.386 119.716L128.286 120.385H128.173V119.716H128.386ZM123.906 132.516C123.721 133.398 123.536 133.853 123.337 133.938V133.825C123.302 133.561 123.336 133.292 123.435 133.045C123.535 132.799 123.697 132.582 123.906 132.417V132.516ZM123.067 134.294V134.351C123.067 134.55 123.067 134.649 122.811 134.664V134.521C122.811 134.393 122.882 134.294 123.053 134.237L123.067 134.294ZM122.839 137.992H123.266V138.134C123.122 138.153 122.986 138.207 122.868 138.29H122.583C122.583 138.22 122.609 138.151 122.656 138.099C122.704 138.046 122.769 138.013 122.839 138.006V137.992ZM134.644 134.351C133.219 134.956 131.857 135.7 130.576 136.569C128.059 137.451 126.807 137.992 126.821 138.219C125.319 138.78 123.851 139.431 122.427 140.168C122.174 140.151 121.927 140.084 121.701 139.969C121.683 139.746 121.731 139.523 121.84 139.328C121.949 139.133 122.114 138.975 122.313 138.873C122.696 138.836 123.082 138.894 123.437 139.044C124.137 138.738 124.866 138.5 125.613 138.333V138.077H124.759C125.518 137.604 126.329 137.222 127.177 136.939H127.589V137.053C126.878 137.053 126.466 137.337 126.395 137.707C126.39 137.744 126.395 137.78 126.409 137.814C126.422 137.848 126.445 137.878 126.473 137.901C126.502 137.924 126.536 137.939 126.572 137.945C126.608 137.951 126.645 137.947 126.679 137.935C127.205 137.593 127.461 137.394 127.461 137.337C128.471 137.153 131.259 135.688 135.853 132.929V133.199C135.853 133.313 135.483 133.64 134.701 134.223L134.644 134.351ZM127.533 136.655C128.222 136.59 128.864 136.277 129.339 135.773C129.524 135.773 129.623 135.773 129.637 136.001C128.975 136.171 128.343 136.439 127.76 136.797H127.618V136.541L127.533 136.655ZM138.91 127.937L135.412 130.781C134.055 131.747 132.629 132.612 131.145 133.369C126.978 135.659 124.404 136.84 123.38 136.925H123.237C123.351 136.451 125.21 132.658 128.813 125.547C131.385 125.078 133.888 124.29 136.265 123.201L137.118 123.129C137.792 123.005 138.485 123.03 139.149 123.202C139.812 123.374 140.43 123.689 140.958 124.125V124.637C140.323 126.448 139.626 127.515 138.868 127.837L138.91 127.937ZM132.098 123.969H132.638V124.111H132.098V123.969ZM140.048 122.617H140.461C140.859 122.817 141.058 122.973 141.072 123.115V123.229C140.867 123.232 140.664 123.18 140.485 123.081C140.305 122.981 140.155 122.836 140.048 122.66V122.617ZM141.143 116.217C140.24 117.082 139.237 117.836 138.157 118.465C136.082 119.082 134.06 119.867 132.112 120.811C131.93 120.744 131.737 120.715 131.543 120.726V120.47C131.555 119.782 131.784 119.115 132.197 118.564C132.482 117.142 132.781 116.303 133.093 116.118L136.023 109.561C136.023 109.177 136.621 108.865 137.872 108.623H138.299V109.021L140.631 108.665C142.935 108.466 144.144 108.936 144.244 110.088H144.514V109.462H144.784C145.061 109.575 145.305 109.757 145.492 109.991C145.679 110.225 145.802 110.503 145.851 110.799C145.841 111.324 145.644 111.828 145.296 112.221C145.116 112.221 145.016 112.093 144.997 111.837H144.713L144.628 112.619C143.461 114.397 142.622 115.307 142.082 115.35C141.613 115.99 141.314 116.317 141.172 116.331L141.143 116.217ZM142.381 120.584V120.185H142.651L143.234 120.541C143.234 120.697 143.163 120.797 142.978 120.825C142.813 120.678 142.602 120.592 142.381 120.584ZM93.4845 146.098H93.2143L92.9725 146.297C92.9766 146.334 92.989 146.37 93.0089 146.401C93.0288 146.432 93.0555 146.458 93.0871 146.477C93.1187 146.497 93.1543 146.508 93.1912 146.512C93.228 146.515 93.2651 146.51 93.2996 146.497C93.4845 146.497 93.5556 146.34 93.513 146.184V146.041L93.4845 146.098ZM92.4463 144.036V144.164C92.6312 144.164 92.7023 144.022 92.6596 143.851V143.709C92.6228 143.714 92.5874 143.726 92.5559 143.746C92.5244 143.766 92.4975 143.792 92.4772 143.823C92.4569 143.854 92.4436 143.889 92.4383 143.926C92.433 143.963 92.4357 144.001 92.4463 144.036ZM99.8419 126.429L100.155 126.358L100.084 126.088H99.7708L99.8419 126.429ZM195.131 134.436C193.741 134.828 192.308 135.043 190.864 135.076V135.346H191.163H191.319L191.661 135.218C194.818 134.863 195.188 134.991 195.159 134.635V134.507L195.131 134.436ZM175.973 129.8L175.703 129.7C175.541 130.048 175.426 130.417 175.362 130.795V130.909C175.589 130.9 175.793 130.53 175.973 129.8ZM195.799 134.351V134.607L196.254 134.692V134.422H195.785L195.799 134.351ZM174.068 137.039L173.357 136.953L173.243 137.195V137.323L177.509 136.968V136.712L174.068 137.039ZM172.133 127.723V127.595H171.991L171.735 127.766L171.877 128.022C172.077 128.022 172.176 127.908 172.148 127.723H172.133ZM197.819 132.459H198.018C198.132 132.459 198.189 132.36 198.174 132.189L198.061 131.933C197.484 131.936 196.917 132.083 196.411 132.36V132.217L195.543 132.303C195.543 132.047 195.444 131.905 195.33 131.919H194.875C194.349 131.919 194.107 131.919 193.837 132.132C193.837 132.047 193.837 132.004 193.751 132.004H193.239L192.941 132.161C192.941 132.075 192.912 132.033 192.855 132.033L192.67 132.189V132.047H191.959H191.732V132.317L192.087 132.402H192.414C192.534 132.473 192.674 132.503 192.813 132.488L193.097 132.331V132.459C192.159 132.687 191.21 132.863 190.253 132.985C190.171 132.918 190.073 132.874 189.968 132.857C189.91 132.854 189.856 132.828 189.816 132.786C189.777 132.744 189.755 132.688 189.755 132.63L190.338 132.545C190.338 132.545 190.423 132.545 190.736 132.658C191.22 132.431 191.234 132.331 191.49 132.303V132.047C190.504 132.225 189.505 132.32 188.503 132.331H188.404V132.061C191.006 131.748 190.139 131.933 191.021 131.677C191.021 131.777 191.021 131.819 191.12 131.819C191.215 131.72 191.34 131.655 191.476 131.634H191.732C192.752 131.67 193.771 131.535 194.747 131.236V131.35L195.045 131.208H195.316C195.316 130.952 195.7 130.909 195.828 130.895V130.61C192.656 131.25 191.817 131.08 190.935 131.336V131.208C190.582 131.293 190.218 131.326 189.854 131.307C189.757 131.343 189.669 131.401 189.598 131.478C189.598 131.378 189.598 131.336 189.485 131.336L186.797 131.777C186.797 131.705 186.797 131.663 186.683 131.677C185.754 131.943 184.801 132.114 183.838 132.189C183.717 132.215 183.601 132.264 183.497 132.331C183.497 132.26 183.497 132.217 183.341 132.232L182.203 132.317L181.435 132.516C181.433 132.499 181.428 132.483 181.42 132.468C181.412 132.453 181.401 132.44 181.387 132.43C181.374 132.419 181.359 132.411 181.343 132.406C181.326 132.402 181.309 132.4 181.293 132.402C180.928 132.517 180.551 132.588 180.169 132.616C179.984 132.616 180.269 132.616 180.169 132.502L179.941 132.644C179.6 132.644 179.785 132.644 178.633 132.644C176.599 132.9 176.827 132.929 176.599 132.943H175.845C175.851 132.959 175.852 132.977 175.848 132.994C175.844 133.011 175.836 133.026 175.825 133.039C175.814 133.052 175.799 133.062 175.783 133.067C175.766 133.073 175.749 133.074 175.732 133.071C174.864 132.957 174.423 132.815 174.423 132.658C174.537 131.833 174.736 131.421 175.021 131.393H175.163L175.035 131.663H175.177C175.461 131.521 175.589 131.378 175.575 131.25V130.966H175.305V130.653C175.273 130.473 175.303 130.288 175.39 130.127L176.002 129.131V129.401H176.286V129.145L176.116 128.904C176.254 128.747 176.438 128.638 176.642 128.591V128.463H176.244V128.065C176.758 127.175 177.146 126.217 177.396 125.22L177.68 125.334C177.718 125.337 177.757 125.331 177.793 125.317C177.828 125.302 177.86 125.28 177.885 125.25C177.91 125.221 177.928 125.186 177.937 125.149C177.945 125.112 177.945 125.073 177.936 125.035H177.509V124.921C177.465 124.749 177.465 124.568 177.509 124.395C177.711 124.22 177.87 124 177.973 123.754C178.077 123.507 178.123 123.24 178.107 122.973C178.192 122.973 178.221 122.973 178.235 123.101C178.729 122.668 179.04 122.063 179.102 121.409C180.202 119.11 181.129 116.733 181.876 114.297C183.031 111.613 183.884 108.808 184.421 105.935H184.151C184.168 106.121 184.133 106.308 184.052 106.475C183.916 106.402 183.765 106.363 183.611 106.361V106.319C183.615 105.616 183.855 104.934 184.293 104.385H184.421L184.649 105.295H184.919C184.967 104.926 185.038 104.56 185.133 104.2C185.133 104.072 185.019 103.986 184.805 103.972L184.621 104.114C184.594 103.641 184.594 103.166 184.621 102.692H184.478C184.3 102.547 184.175 102.347 184.123 102.123L182.701 102.265C182.666 102.106 182.608 101.953 182.53 101.81C182.53 101.668 182.857 101.526 183.554 101.398L183.853 101.512L184.137 101.341C184.137 101.441 184.137 101.483 184.308 101.469L184.592 101.298C184.592 101.403 184.649 101.445 184.763 101.426H184.891V101.071C184.677 101.071 184.123 101.071 183.241 101.071L182.957 101.256V101.085C175.902 101.654 171.901 101.986 170.953 102.081H169.531C169.531 102.194 169.431 102.265 169.232 102.28L168.919 102.152L167.895 102.408C167.489 102.452 167.079 102.452 166.672 102.408C166.504 102.539 166.302 102.619 166.089 102.635L168.976 102.365C168.762 102.51 168.51 102.589 168.251 102.593C168.014 102.636 167.769 102.601 167.554 102.493C166.832 102.729 166.096 102.919 165.349 103.062L165.051 102.948L160.13 103.716C159.922 103.617 159.69 103.578 159.461 103.602C159.019 103.665 158.581 103.76 158.153 103.887L155.778 104.868L155.963 105.167C156.134 105.135 156.298 105.073 156.446 104.982H157.285L157.172 105.764C156.826 105.877 156.514 106.076 156.265 106.342C156.017 106.608 155.839 106.933 155.749 107.286C154.583 107.798 154.014 108.168 154.014 108.381V108.523H154.199L154.512 108.353L154.882 108.793V109.405C154.882 109.604 152.924 113.733 149.008 121.793C145.595 129.572 143.817 133.825 143.646 134.593C142.48 134.905 141.812 135.389 141.613 136.015C141.613 136.214 141.982 136.356 142.651 136.399V136.712L142.352 137.209V137.821C142.352 138.134 143.234 138.376 144.912 138.546C144.908 138.524 144.909 138.5 144.915 138.478C144.921 138.455 144.932 138.435 144.946 138.417C144.961 138.399 144.98 138.385 145.001 138.375C145.022 138.366 145.045 138.361 145.069 138.361C145.053 139.111 144.948 139.856 144.756 140.58H144.926C145.437 140.033 145.782 139.353 145.922 138.617H146.221C146.391 138.617 146.562 138.788 146.775 139.201C145.859 140.788 145.12 142.472 144.571 144.221L144.756 144.52H144.926C145.69 142.27 146.667 140.099 147.842 138.034C149.861 137.864 153.374 137.508 158.352 136.968L158.665 136.783C158.665 136.882 158.665 136.939 158.864 136.925H159.177L159.504 136.74C159.504 136.84 159.504 136.897 159.689 136.882L163.458 136.555C164.453 136.47 164.88 136.171 164.88 135.645C164.88 135.517 165.449 135.361 166.644 135.19C166.82 135.184 166.995 135.218 167.156 135.289C167.156 135.19 167.739 135.09 168.933 134.991C168.933 134.365 169.175 134.024 169.531 133.995V133.682C169.138 133.731 168.752 133.821 168.379 133.953C167.9 133.94 167.423 133.878 166.957 133.768C166.807 133.86 166.644 133.927 166.473 133.967H163.842L163.529 134.137C163.529 134.052 163.529 134.009 163.344 134.009H163.188L162.861 134.18C162.861 134.081 162.576 134.009 162.021 133.938L161.694 134.137H161.04V133.967C164.425 133.597 166.089 133.142 166.046 132.545C166.091 132.536 166.138 132.537 166.182 132.549C166.226 132.561 166.267 132.583 166.301 132.613C166.336 132.644 166.362 132.681 166.38 132.724C166.397 132.766 166.405 132.812 166.402 132.857L167.397 132.601V132.289L159.291 132.516C159.295 132.538 159.295 132.561 159.289 132.583C159.283 132.605 159.272 132.625 159.256 132.642C159.241 132.658 159.222 132.671 159.201 132.679C159.18 132.687 159.157 132.69 159.134 132.687L158.153 132.616C157.923 132.621 157.7 132.696 157.513 132.829L157.157 132.687C156.384 132.733 155.617 132.857 154.868 133.057C154.101 132.994 153.33 132.994 152.564 133.057L150.743 133.213L149.904 133.113C149.904 132.573 150.9 129.942 153.047 125.22C153.371 124.157 153.958 123.194 154.754 122.418C154.931 122.419 155.105 122.458 155.266 122.532L156.56 122.091L157.214 122.205C158.544 122.057 159.849 121.736 161.097 121.252C161.383 121.204 161.676 121.228 161.95 121.323L162.932 121.081L165.876 120.84C167.257 120.704 168.621 120.422 169.943 120.001V119.702C169.403 119.702 169.118 119.702 169.09 119.446C169.061 119.19 168.663 118.863 167.895 118.92V118.621L168.706 118.393L170.825 118.209V117.91H169.502V117.583L170.327 117.497C170.541 117.497 170.64 117.384 170.626 117.17C169.517 117.17 168.962 117.17 168.948 117C161.258 117.388 157.404 117.46 157.385 117.213C157.21 117.247 157.044 117.32 156.901 117.426L156.702 117.099C158.736 112.833 159.931 110.585 160.286 110.557C160.26 110.845 160.168 111.122 160.016 111.368V111.51H160.343C161.154 109.576 161.765 108.566 162.405 108.537C164.709 108.267 161.865 108.111 167.056 107.329C167.204 107.398 167.363 107.441 167.525 107.457C169.545 107.039 172.389 106.613 176.059 106.177V105.864L174.139 106.049V105.736C174.334 105.709 174.517 105.625 174.665 105.494V105.665C174.826 105.628 174.977 105.555 175.106 105.451C175.365 105.412 175.63 105.441 175.874 105.537C176.411 105.396 176.958 105.291 177.509 105.224L178.718 105.096C179.017 104.911 179.145 104.74 179.145 104.584V104.484C178.791 104.53 178.432 104.53 178.078 104.484C178.074 104.445 178.078 104.405 178.09 104.367C178.101 104.33 178.12 104.295 178.145 104.264C178.17 104.234 178.201 104.209 178.236 104.19C178.271 104.172 178.309 104.161 178.349 104.157L180.61 103.944L181.634 103.673C181.634 103.787 181.634 103.83 181.776 103.83C181.939 103.806 182.091 103.737 182.217 103.631H182.388C182.2 104.029 182.048 104.443 181.933 104.868H181.648C181.624 104.679 181.566 104.496 181.477 104.328H181.321C178.59 111.937 177.381 115.478 174.864 121.309C174.395 122.802 174.011 123.641 173.669 123.812C173.668 123.849 173.675 123.886 173.69 123.919C173.706 123.953 173.729 123.982 173.759 124.005C173.788 124.027 173.823 124.042 173.859 124.048C173.896 124.054 173.933 124.051 173.968 124.04C174.021 124.8 173.842 125.558 173.456 126.216C172.939 128.161 172.149 130.024 171.109 131.748L171.365 133.341C171.365 133.512 171.294 133.597 171.124 133.625H170.839C170.839 133.185 170.64 132.985 170.356 133.014H170.213C169.839 133.61 169.566 134.263 169.403 134.948H169.673C169.831 134.87 169.963 134.747 170.054 134.596C170.144 134.445 170.19 134.271 170.185 134.095H170.725L171.038 134.209C170.835 134.492 170.717 134.827 170.697 135.176L170.839 135.417L170.484 136.257V136.399C170.849 136.382 171.209 136.487 171.508 136.697C171.81 136.649 172.097 136.532 172.347 136.356C172.66 136.356 173.84 136.356 175.86 136.356L176.884 136.015C177.698 135.978 178.51 135.897 179.316 135.773H179.757L179.998 135.602V135.773C180.696 135.696 181.4 135.725 182.089 135.858V136.001H181.477V136.271C181.66 136.256 181.833 136.187 181.975 136.072C182.011 136.069 182.046 136.075 182.079 136.088C182.112 136.101 182.142 136.121 182.167 136.147C182.191 136.172 182.21 136.203 182.221 136.237C182.232 136.271 182.235 136.307 182.231 136.342C181.945 136.37 181.663 136.432 181.392 136.527L181.108 136.441C180.681 136.555 180.781 136.584 180.482 136.598L180.055 136.513C180.055 136.598 180.055 136.641 179.941 136.641C179.939 136.676 179.944 136.711 179.957 136.743C179.97 136.776 179.99 136.805 180.017 136.829C180.043 136.852 180.074 136.869 180.108 136.878C180.142 136.888 180.177 136.889 180.212 136.882H180.653L182.957 136.683L183.824 136.498C183.824 136.569 183.824 136.612 183.938 136.598L184.365 136.441H185.147C185.758 136.441 185.744 136.342 187.067 136.129C187.062 136.115 187.061 136.101 187.063 136.087C187.065 136.073 187.07 136.06 187.079 136.049C187.087 136.038 187.098 136.029 187.111 136.023C187.124 136.017 187.138 136.014 187.152 136.015V136.129C188.04 136.02 188.919 135.849 189.783 135.617V135.688C190.324 135.56 190.025 135.588 190.167 135.489C190.309 135.389 190.167 135.617 190.267 135.617H190.637V135.332H189.669C189.381 135.363 189.09 135.363 188.802 135.332L186.882 135.446V135.304L187.963 135.161H188.347L188.56 134.991V135.133C191.615 135.106 194.655 134.69 197.605 133.896C197.989 133.896 197.947 133.554 198.189 132.9C198.065 132.903 197.942 132.873 197.833 132.815C197.174 132.97 196.503 133.07 195.828 133.113C195.742 133.113 195.657 133.028 195.629 132.872V132.744H196.709C197.121 132.702 197.52 132.571 197.876 132.36C197.876 132.459 197.662 132.502 197.79 132.502L197.819 132.459ZM146.093 133.284H145.609C145.77 132.504 146.033 131.749 146.391 131.037H146.718C146.619 131.812 146.408 132.569 146.093 133.284ZM146.69 130.895V130.753C146.69 130.582 146.775 130.468 147.017 130.411V130.553C147.017 130.753 146.932 130.866 146.69 130.895ZM153.332 135.958V136.1L152.507 136.171V136.029L153.332 135.958ZM152.35 135.873C152.35 136.043 152.109 136.228 151.554 136.427L150.487 136.356H150.16V136.043L152.322 135.844L152.35 135.873ZM158.907 105.323H158.423V105.195C158.423 105.025 158.523 104.911 158.722 104.854H158.893L159.234 104.982C159.24 105.026 159.237 105.071 159.224 105.113C159.211 105.155 159.188 105.194 159.159 105.227C159.129 105.26 159.092 105.285 159.051 105.302C159.01 105.319 158.965 105.326 158.921 105.323H158.907ZM166.416 103.901H166.573V104.2H166.117C166.132 104.015 166.217 103.901 166.416 103.858V103.901ZM164.525 104.484H163.785V104.299C164.433 104.255 165.073 104.131 165.691 103.929C165.691 104.057 165.805 104.1 165.989 104.072V104.37L165.705 104.484C165.499 104.508 165.291 104.468 165.108 104.37C164.935 104.491 164.734 104.565 164.525 104.584V104.484ZM165.463 107.201V107.101L166.672 106.987V107.115L165.463 107.201ZM166.757 106.148V106.02H167.355V106.191L166.757 106.148ZM166.9 104.1H166.743L166.871 103.787L168.293 103.659V103.83C167.845 103.876 167.402 103.966 166.971 104.1H166.9ZM167.582 106.945V106.632H168.165C168.207 106.623 168.249 106.623 168.29 106.634C168.331 106.644 168.369 106.664 168.4 106.692C168.432 106.719 168.457 106.754 168.473 106.793C168.489 106.832 168.496 106.874 168.493 106.916L167.554 107.03L167.582 106.945ZM171.138 102.081L170.398 102.379H170.256C169.783 102.416 169.307 102.416 168.834 102.379C169.815 102.308 170.754 102.237 171.095 102.18L171.138 102.081ZM170.398 105.537V105.665L169.36 105.764V105.622L170.398 105.537ZM172.105 106.347C172.105 106.219 171.892 106.134 171.479 106.091L170.398 106.39H169.602C169.417 106.262 169.332 106.177 169.317 106.12H170.242L172.29 105.906H173.357V106.063C172.906 106.108 172.463 106.204 172.034 106.347H172.105ZM182.8 103.574H183.042C183.404 103.219 183.828 102.935 184.293 102.735C184.066 104.108 183.449 105.386 182.516 106.418L181.933 106.063C182.282 105.251 182.572 104.414 182.8 103.56V103.574ZM180.923 106.674H181.079C180.88 107.058 180.695 107.257 180.553 107.272V106.873C180.69 106.836 180.816 106.768 180.923 106.674ZM179.757 109.519C179.845 108.808 180.125 108.134 180.567 107.57V107.713C180.425 108.765 180.183 109.32 179.885 109.362V110.017C179.677 110.25 179.552 110.545 179.529 110.856H179.373L179.287 109.945C179.458 109.945 179.6 109.775 179.685 109.505L179.757 109.519ZM179.316 111.026C179.261 111.404 179.156 111.772 179.003 112.121H178.932V111.723C179.031 111.211 179.188 110.984 179.316 110.969V111.026ZM170.782 135.631V135.517H171.053V135.915C170.981 135.844 170.882 135.773 170.839 135.574L170.782 135.631ZM182.885 135.944C182.885 135.844 182.885 135.816 182.743 135.816L182.061 135.887V135.745L183.682 135.602V135.745C183.384 135.728 183.088 135.797 182.829 135.944H182.885ZM182.075 135.602C182.075 135.602 182.075 135.673 182.075 135.688C182.075 135.702 182.061 135.588 182.132 135.545L182.075 135.602ZM182.16 133.725L181.264 133.796V133.654H182.089L182.8 133.469C182.8 133.554 182.8 133.597 182.942 133.583C183.331 133.484 183.725 133.408 184.123 133.355C184.251 133.355 184.336 133.426 184.35 133.597L182.174 133.796L182.16 133.725ZM185.317 133.441C185.024 133.409 184.729 133.409 184.436 133.441V133.213L185.246 133.142V133.256C185.218 133.256 185.517 133.284 185.374 133.384L185.317 133.441ZM185.317 133.298V133.185H185.758V133.298H185.317ZM186.299 133.213V133.099C186.415 133.068 186.522 133.009 186.612 132.929C186.655 132.923 186.699 132.926 186.741 132.938C186.783 132.95 186.822 132.971 186.856 132.999C186.889 133.027 186.917 133.062 186.936 133.101C186.955 133.141 186.966 133.184 186.967 133.227L186.299 133.213ZM187.536 133.057V132.929H188.062L187.536 133.057ZM188.29 133.057C188.277 132.994 188.289 132.93 188.324 132.876C188.359 132.823 188.413 132.786 188.475 132.772L188.66 133.014C188.66 132.929 188.66 132.9 188.745 132.886L188.873 133.142L188.29 133.057ZM198.843 131.691C198.928 131.691 198.971 131.592 198.843 131.563C198.715 131.535 198.942 131.691 198.729 131.705V131.805L198.516 132.089L198.957 131.933V131.677L198.843 131.691ZM199.611 132.289H199.525V132.559H200.151C200.265 132.232 199.838 132.175 199.71 132.175L199.611 132.289Z" fill="black"/>
<path d="M158.423 112.278V112.449H158.765C158.781 112.283 158.819 112.12 158.878 111.965V111.666C158.722 111.666 158.58 111.894 158.437 112.321L158.423 112.278ZM155.109 104.299V103.986H154.612V104.299H155.109ZM145.481 122.333C144.749 121.112 143.86 119.993 142.836 119.005C142.836 118.635 143.39 118.109 144.628 117.398L148.141 114.34C149.077 112.891 149.571 111.201 149.563 109.476V108.964C149.421 107.414 148.297 106.12 146.178 105.209C144.912 104.356 142.637 103.887 139.365 103.787C135.715 104.244 132.145 105.202 128.756 106.632C127.444 107.576 126.076 108.44 124.66 109.22V109.49C124.809 109.458 124.949 109.395 125.072 109.305C125.257 109.305 125.357 109.305 125.371 109.533L125.627 109.405H125.755V109.519C124.905 110.376 123.949 111.122 122.91 111.737L123.053 112.008H122.925L122.612 111.894C122.612 111.979 122.484 112.05 122.228 112.065V112.178L122.526 112.562C122.365 112.59 122.2 112.58 122.043 112.534C121.536 112.608 121.072 112.86 120.734 113.245L120.919 112.463C121.5 110.049 121.937 107.604 122.228 105.138V104.996C121.745 104.673 121.318 104.274 120.962 103.816V103.247V103.133H120.848C119.426 105.209 116.795 108.822 112.827 113.771C111.115 115.629 109.555 117.622 108.162 119.73C106.939 121.01 106.341 121.764 106.413 122.034C106.085 122.248 105.943 122.447 106 122.689C105.901 122.689 105.844 122.689 105.829 122.575C105.572 122.996 105.231 123.36 104.828 123.644C104.424 123.927 103.966 124.125 103.483 124.225L102.388 124.466C102.318 124.48 102.257 124.521 102.217 124.579C102.177 124.638 102.162 124.709 102.174 124.779V124.921L102.587 124.822V124.95L101.662 125.305L100.027 125.675H99.1734C99.0454 125.803 99.8561 125.675 99.5432 125.675L98.4623 125.931C97.8081 126.073 97.4525 126.031 97.3956 125.761H97.2676C97.2808 125.855 97.2808 125.951 97.2676 126.045V125.775L96.4143 125.974C95.4356 124.386 94.2653 122.924 92.9298 121.622C92.9298 121.138 93.6836 120.441 95.3049 119.531L99.9129 115.478C101.118 113.577 101.755 111.371 101.748 109.121V108.438C101.558 106.371 100.065 104.702 97.2676 103.432C95.523 102.436 92.4984 101.896 88.1938 101.81C83.3842 102.434 78.6812 103.707 74.2134 105.593C72.4897 106.838 70.6894 107.974 68.8232 108.993V109.362C69.0358 109.337 69.24 109.264 69.4205 109.149C69.4649 109.136 69.5118 109.133 69.5575 109.141C69.6032 109.149 69.6464 109.168 69.6836 109.195C69.7209 109.223 69.7512 109.259 69.7722 109.3C69.7932 109.341 69.8042 109.387 69.8045 109.433L70.1601 109.234H70.3449V109.391C69.2073 110.515 67.9425 111.503 66.5761 112.335L66.7752 112.648H66.5761L66.1778 112.52C66.1778 112.619 66.0214 112.69 65.6516 112.733V112.918L66.0783 113.373C65.8828 113.375 65.6892 113.336 65.5094 113.259C65.0037 113.363 64.5268 113.576 64.1117 113.883C63.6966 114.19 63.3534 114.584 63.1058 115.037L63.3049 115.35C63.6623 114.99 64.0694 114.684 64.5138 114.44V114.952C64.3236 114.994 64.1412 115.066 63.9734 115.165L64.4143 115.819C65.234 114.921 66.1661 114.132 67.1876 113.473C67.6854 113.601 67.9414 113.757 67.9556 113.928H68.3396C70.7767 112.055 73.4932 110.576 76.3894 109.547V109.903C75.8916 110.642 75.5503 111.012 75.3796 111.041C75.3918 111.281 75.4817 111.51 75.6356 111.695C75.6356 112.15 74.4315 115.193 72.0232 120.825C68.0112 130.8 63.3407 140.497 58.0427 149.853C58.0789 150.039 58.1567 150.214 58.2703 150.365C58.8959 150.259 59.4949 150.032 60.0338 149.697H60.2329V150.052H60.5743L60.9298 149.853C60.9298 149.953 61.0578 150.009 61.2996 149.995V150.351C61.248 150.924 61.047 151.473 60.7165 151.944C60.1455 152.761 59.7308 153.677 59.4934 154.646V154.817H59.8347C61.207 153.33 62.3654 151.659 63.2765 149.853C66.7643 148.918 70.1514 147.641 73.3885 146.041C75.3183 145.987 77.1848 145.342 78.7361 144.193V144.008L77.8543 144.278H77.6552V144.022C78.9325 143.934 80.1706 143.544 81.2676 142.884C84.6241 140.296 87.1556 138.475 88.8623 137.394C92.3752 134.806 94.6649 132.289 95.7032 129.842L96.3005 129.7C96.58 129.717 96.8602 129.717 97.1396 129.7C97.1396 129.615 97.1396 129.558 97.2534 129.529C98.0356 129.444 97.6658 129.529 98.1636 129.529L99.4863 129.231H99.7138H99.6001C99.7593 129.266 99.9243 129.266 100.084 129.231L100.183 129.615L94.1672 139.016L92.8303 140.694L92.1761 142.884H92.3041L92.9583 142.614L92.7449 143.467L92.8161 143.709L92.9867 143.937C92.9014 143.937 92.8729 143.993 92.9014 144.107V144.235H93.1716C93.5698 143.894 93.7405 143.567 93.6694 143.282C93.9514 143.361 94.2459 143.385 94.5369 143.353V143.481C94.2809 143.481 94.1387 143.766 94.1245 144.121V144.249H94.2667C96.4569 141.86 101.805 133.711 106.114 128.164C105.972 127.567 108.209 126.737 112.827 125.675H112.983C112.953 127.481 112.587 129.266 111.902 130.937C111.544 131.828 111.278 132.752 111.106 133.697C110.685 134.832 110.367 136.003 110.153 137.195L108.517 142.571C107.432 145.385 106.613 148.294 106.071 151.261C106.22 151.222 106.377 151.222 106.526 151.261L106.754 151.062C106.754 151.147 106.839 151.176 106.939 151.161L106.839 150.777H107.565C107.764 150.777 107.949 150.465 108.091 149.981C108.091 149.256 108.205 148.872 108.532 148.786C108.694 147.884 108.966 147.005 109.342 146.169C109.518 145.158 109.824 144.173 110.253 143.24C110.878 141.007 111.333 139.869 111.675 139.798V140.068L111.22 141.234C110.635 144.055 109.837 146.827 108.83 149.526L109.058 150.521H109.2C111.163 146.331 113.974 138.011 117.634 125.561C117.669 125.036 117.83 124.528 118.102 124.077C118.374 123.627 118.75 123.248 119.198 122.973L118.999 122.745V122.632C119.344 122.579 119.658 122.402 119.881 122.134C119.881 122.049 119.497 121.906 118.786 121.721L120.621 113.885C120.827 113.663 121.067 113.476 121.332 113.33V113.743C121.181 113.761 121.039 113.82 120.919 113.913L121.275 114.411C121.881 113.74 122.569 113.148 123.323 112.648C123.707 112.747 123.892 112.875 123.92 113.003H124.19C126.046 111.593 128.116 110.489 130.32 109.732V109.988C129.95 110.557 129.694 110.827 129.566 110.841C129.58 111.024 129.638 111.2 129.737 111.353C129.001 113.732 128.088 116.051 127.006 118.294C123.939 125.852 120.381 133.202 116.354 140.296C116.386 140.44 116.449 140.576 116.539 140.694C117.018 140.619 117.474 140.44 117.876 140.168H118.004V140.424H118.288L118.558 140.281C118.558 140.353 118.658 140.381 118.843 140.381V140.665C118.804 141.098 118.646 141.511 118.388 141.86C117.948 142.479 117.625 143.173 117.435 143.908V144.05H117.705C118.751 142.919 119.632 141.645 120.322 140.267C122.965 139.576 125.533 138.623 127.988 137.423C129.461 137.372 130.884 136.876 132.069 136.001V135.773L131.387 135.972H131.245V135.83C132.202 135.76 133.128 135.463 133.947 134.962C136.493 133.014 138.413 131.606 139.721 130.795C143.774 127.837 145.666 125.007 145.41 122.262L145.481 122.333ZM144.784 122.504L144.884 123.57C144.756 123.826 144.613 123.969 144.485 123.983L144.329 122.177C144.628 122.276 144.77 122.376 144.784 122.504ZM65.2534 113.97H65.0685V113.643H65.7938V113.814C65.6048 113.845 65.4251 113.918 65.2676 114.027L65.2534 113.97ZM61.7121 149.369C61.3655 149.191 60.9778 149.107 60.5885 149.128V148.616C60.5885 148.417 60.7023 148.289 60.9298 148.232C61.1574 148.232 61.2996 148.374 61.3138 148.715C61.6094 148.306 61.9427 147.925 62.3094 147.577L62.7076 147.734C62.5796 148.786 62.2525 149.327 61.7405 149.369H61.7121ZM99.5289 109.803C99.3583 109.803 99.0027 109.263 98.4765 108.153V107.826C98.8178 107.826 99.1592 108.353 99.5289 109.476V109.803ZM99.0312 105.906L98.8747 106.248L93.7405 104.086C97.1728 104.2 98.9364 104.806 99.0312 105.906ZM77.3423 124.509H76.6169V124.182H77.3423V124.509ZM76.7449 113.316H76.9298V113.828C76.7592 113.828 76.5458 114.098 76.2614 114.582V114.226C76.5885 113.828 76.7592 113.544 76.7307 113.33L76.7449 113.316ZM75.2232 116.914L75.2943 117.597H75.1094V116.914H75.2232ZM74.4267 118.194H74.7823C74.7823 118.763 74.5832 119.076 74.2987 119.09H74.1281C74.3084 118.836 74.412 118.534 74.4267 118.223V118.194ZM73.8294 119.972H74.0285V120.129L73.7014 120.669H73.3601V120.498C73.4304 120.502 73.5007 120.49 73.5653 120.462C73.63 120.434 73.6874 120.392 73.7329 120.338C73.7784 120.284 73.8108 120.221 73.8275 120.152C73.8443 120.084 73.8449 120.012 73.8294 119.944V119.972ZM73.2463 121.551L73.1325 122.418H72.9618L72.8907 121.565H73.2463V121.551ZM67.3441 138.333C67.1165 139.513 66.8605 140.111 66.6045 140.139V140.04C66.5856 139.726 66.6445 139.413 66.776 139.127C66.9075 138.842 67.1075 138.593 67.3583 138.404L67.3441 138.333ZM66.2632 140.68V140.85C66.2746 140.896 66.2749 140.944 66.2642 140.99C66.2534 141.036 66.2319 141.079 66.2013 141.115C66.1708 141.151 66.1321 141.18 66.0884 141.198C66.0448 141.216 65.9974 141.224 65.9503 141.22V141.049C65.9361 140.85 66.0356 140.737 66.2632 140.68ZM65.9503 145.544H66.5049V145.729C66.312 145.762 66.1281 145.834 65.9645 145.942H65.6232C65.6189 145.852 65.6489 145.764 65.7069 145.695C65.765 145.627 65.8468 145.583 65.9361 145.572L65.9503 145.544ZM81.4952 140.737C79.5873 141.567 77.7753 142.602 76.0907 143.823C72.7627 144.975 71.1129 145.686 71.1556 145.97C69.1642 146.727 67.2173 147.596 65.3245 148.573C64.9915 148.575 64.6636 148.491 64.3716 148.331C64.3592 148.044 64.4271 147.758 64.5678 147.507C64.7085 147.256 64.9163 147.049 65.1681 146.909C65.6534 146.872 66.1408 146.95 66.5903 147.137C67.504 146.731 68.4573 146.421 69.4347 146.212L69.4205 145.729L68.3254 145.814C69.3177 145.216 70.3776 144.739 71.4827 144.392H72.0232V144.562C71.0845 144.648 70.6009 144.918 70.4587 145.416C70.4587 145.643 70.6009 145.729 70.8427 145.714C71.5396 145.273 71.8952 145.003 71.8809 144.932C73.2178 144.676 76.9061 142.747 82.9458 139.144V139.471C82.9458 139.627 82.4338 140.068 81.3956 140.822L81.4952 140.737ZM72.2649 143.794C73.1188 143.719 73.9192 143.347 74.5263 142.742C74.7823 142.742 74.9245 142.813 74.9245 143.026C74.0488 143.251 73.217 143.621 72.4641 144.121H72.2649V143.794ZM87.2125 132.303L82.5761 135.986C80.8042 137.252 78.9461 138.393 77.0152 139.4C71.5254 142.415 68.1168 143.979 66.7894 144.093H66.5761C66.7467 143.486 69.1882 138.489 73.9005 129.103C77.2871 128.553 80.5896 127.573 83.7281 126.187L84.8232 126.102C85.7096 125.944 86.6196 125.976 87.4926 126.197C88.3656 126.417 89.1815 126.821 89.8863 127.382V128.065C89.0614 130.482 88.1369 131.876 87.1414 132.331L87.2125 132.303ZM78.1245 127.24H78.8783V127.396L78.1387 127.467L78.1245 127.24ZM88.5921 125.462H89.1467C89.6445 125.704 89.9147 125.903 89.9289 126.102V126.258C89.6569 126.265 89.3881 126.198 89.1505 126.066C88.9128 125.933 88.7151 125.739 88.5778 125.505L88.5921 125.462ZM90.0854 117.028C88.8784 118.167 87.5418 119.16 86.1032 119.986C83.3667 120.796 80.7027 121.833 78.1387 123.087C77.9056 122.987 77.6523 122.943 77.3992 122.959V122.646C77.4124 121.736 77.7164 120.854 78.2667 120.129C78.6223 118.237 79.0063 117.156 79.4329 116.886L83.2729 108.267C83.2729 107.727 84.0552 107.329 85.7334 107.044H86.2738V107.542C87.9236 107.286 88.9476 107.144 89.3601 107.101C92.4036 106.845 93.9823 107.457 94.1103 108.95H94.4658L94.3805 108.082H94.7645C95.1333 108.237 95.457 108.483 95.7056 108.796C95.9542 109.109 96.1197 109.48 96.1867 109.874C96.1547 110.515 95.8979 111.125 95.4614 111.595C95.2338 111.595 95.1058 111.453 95.0774 111.112H94.7076L94.6223 112.164C93.0721 114.468 91.9485 115.649 91.2516 115.72C90.6258 116.559 90.2418 116.985 90.0854 117V117.028ZM92.4321 123.073C92.2183 122.897 91.9546 122.792 91.6783 122.774V122.262H92.0196L92.7876 122.717C92.7876 122.959 92.7876 123.073 92.4747 123.101L92.4321 123.073ZM94.8641 125.917C95.2054 126.059 95.4045 126.201 95.4472 126.344H95.2765H95.1769L94.9209 126.543L94.8498 125.846L94.8641 125.917ZM95.1058 127.339V127.197L95.5467 127.097V127.24L95.1058 127.339ZM96.1583 128.52C96.6134 128.449 96.8267 128.42 97.6801 128.235V128.363L96.0872 128.733L96.1583 128.52ZM97.7227 129.188C97.1802 129.192 96.6403 129.263 96.1156 129.401V129.273L97.4667 128.847L98.1067 128.69V128.946C97.8649 129.046 98.0498 129.046 97.7227 129.231V129.188ZM99.1449 128.847C99.1076 128.857 99.0684 128.86 99.0299 128.855C98.9914 128.85 98.9543 128.837 98.921 128.817C98.8877 128.797 98.8588 128.77 98.8362 128.739C98.8136 128.707 98.7976 128.671 98.7894 128.633L99.2018 128.548C99.2383 128.535 99.2773 128.53 99.3158 128.534C99.3544 128.538 99.3915 128.551 99.4243 128.572C99.4572 128.592 99.485 128.62 99.5056 128.653C99.5261 128.686 99.539 128.723 99.5432 128.761L99.1449 128.847ZM102.999 124.708V124.58L103.668 124.424V124.665L102.999 124.708ZM107.081 149.995C107.105 149.859 107.105 149.719 107.081 149.583H107.223C107.257 149.57 107.293 149.564 107.329 149.566C107.365 149.569 107.399 149.579 107.431 149.597C107.462 149.615 107.489 149.639 107.51 149.669C107.53 149.698 107.544 149.732 107.55 149.768V149.896L107.01 150.024L107.081 149.995ZM109.925 125.889H109.627C109.239 126.051 108.84 126.184 108.432 126.287H108.162C108.126 126.3 108.089 126.305 108.051 126.303C108.013 126.301 107.977 126.291 107.943 126.273C107.91 126.256 107.88 126.232 107.857 126.202C107.833 126.173 107.816 126.138 107.806 126.102L109.726 125.661L110.366 125.362L110.565 125.604C110.334 125.643 110.115 125.736 109.925 125.874V125.889ZM111.348 125.419V125.277C111.485 125.237 111.609 125.158 111.703 125.049L113.125 124.737V124.879C112.553 124.99 111.991 125.152 111.447 125.362L111.348 125.419ZM111.561 122.66C111.417 122.704 111.285 122.782 111.177 122.888C111.177 122.788 110.964 122.788 110.608 122.888C110.608 122.632 111.561 122.262 113.652 121.778H113.936L114.007 122.02C112.628 122.333 111.817 122.575 111.661 122.603L111.561 122.66ZM115.33 118.706C115.188 120.37 114.59 121.323 113.552 121.551V121.409L112.628 121.764L112.215 121.864C112.029 121.914 111.833 121.914 111.646 121.864L111.561 121.494C112.782 119.54 114.117 117.66 115.557 115.862H115.87C115.932 116.84 115.746 117.818 115.33 118.706ZM121.829 113.017H121.701V112.818H122.242V112.946L121.829 113.017ZM119.198 140.04C118.941 139.901 118.652 139.832 118.359 139.841V139.442C118.359 139.314 118.359 139.215 118.601 139.158C118.843 139.101 118.885 139.272 118.914 139.542C119.12 139.216 119.374 138.924 119.668 138.674L119.952 138.788C119.838 139.585 119.597 139.997 119.227 140.04H119.198ZM147.87 109.917C147.728 109.917 147.472 109.519 147.06 108.665V108.395C147.316 108.395 147.586 108.808 147.87 109.633V109.917ZM147.501 106.916L147.373 107.186L143.476 105.565C146.078 105.65 147.415 106.105 147.501 106.916ZM131.017 121.138H130.462V120.868H131.003L131.017 121.138ZM130.562 112.605H130.704V113.003C130.562 113.003 130.391 113.202 130.192 113.572V113.259C130.397 113.084 130.533 112.842 130.576 112.577L130.562 112.605ZM129.41 115.336V115.848H129.268V115.336H129.41ZM128.798 116.303H129.069C129.069 116.744 128.926 116.971 128.727 117H128.571C128.704 116.795 128.782 116.56 128.798 116.317V116.303ZM128.357 117.725H128.485V117.867L128.244 118.28H127.973V118.137C128.028 118.14 128.083 118.131 128.134 118.11C128.185 118.088 128.23 118.056 128.267 118.015C128.304 117.975 128.331 117.926 128.347 117.873C128.362 117.821 128.366 117.765 128.357 117.711V117.725ZM127.917 118.934L127.817 119.617H127.732V118.962L127.917 118.934ZM123.422 131.734C123.252 132.616 123.067 133.09 122.868 133.156V133.028C122.828 132.755 122.862 132.476 122.967 132.221C123.072 131.965 123.244 131.743 123.465 131.577L123.422 131.734ZM122.597 133.512V133.625C122.597 133.825 122.597 133.924 122.341 133.938V133.796C122.341 133.654 122.427 133.569 122.597 133.512ZM122.37 137.209H122.782V137.195C122.637 137.23 122.497 137.288 122.37 137.366H122.1C122.1 137.224 122.171 137.124 122.356 137.081L122.37 137.209ZM134.16 133.569C132.722 134.169 131.345 134.907 130.05 135.773C127.533 136.655 126.281 137.195 126.295 137.423C124.792 137.967 123.325 138.603 121.901 139.329C121.648 139.312 121.401 139.244 121.175 139.129C121.157 138.907 121.205 138.684 121.314 138.489C121.423 138.294 121.587 138.135 121.787 138.034C122.17 137.996 122.556 138.055 122.91 138.205C123.607 137.901 124.331 137.663 125.072 137.494V137.195H124.219C124.975 136.719 125.787 136.337 126.637 136.057H127.063V136.171C126.352 136.171 125.954 136.441 125.869 136.825C125.783 137.209 125.982 137.067 126.167 137.053C126.693 136.712 126.935 136.513 126.935 136.441C127.945 136.271 130.747 134.792 135.341 132.047V132.303C135.341 132.417 134.957 132.744 134.16 133.327V133.569ZM127.049 135.873C127.705 135.822 128.323 135.546 128.798 135.09C128.983 135.09 129.083 135.09 129.097 135.318C128.435 135.488 127.802 135.757 127.22 136.114H127.077V135.858L127.049 135.873ZM138.427 127.154L134.928 129.999C133.567 130.959 132.141 131.823 130.661 132.587C126.49 134.872 123.901 136.057 122.896 136.143H122.74C122.872 135.669 124.735 131.876 128.329 124.765C130.893 124.345 133.392 123.6 135.767 122.546L136.621 122.475C137.294 122.353 137.987 122.378 138.65 122.55C139.313 122.722 139.931 123.036 140.461 123.471V123.983C139.806 125.789 139.124 126.827 138.37 127.183L138.427 127.154ZM131.557 123.286H132.098V123.428H131.543V123.3L131.557 123.286ZM139.508 121.935H139.92C140.318 122.134 140.517 122.29 140.517 122.433V122.546C140.312 122.549 140.109 122.498 139.93 122.398C139.75 122.298 139.6 122.153 139.493 121.977L139.508 121.935ZM140.603 115.535C139.71 116.336 138.733 117.037 137.687 117.625C135.605 118.23 133.579 119.011 131.629 119.958C131.449 119.905 131.261 119.881 131.074 119.887V119.631C131.086 118.942 131.315 118.276 131.728 117.725C131.998 116.303 132.311 115.464 132.624 115.279L135.54 108.751C135.54 108.367 136.123 108.054 137.389 107.812H137.815V108.21C139.053 108.011 139.835 107.883 140.148 107.855C142.452 107.656 143.661 108.125 143.76 109.277H144.03V108.651H144.315C144.592 108.764 144.836 108.946 145.023 109.18C145.209 109.414 145.333 109.693 145.381 109.988C145.372 110.513 145.175 111.017 144.827 111.41C144.642 111.41 144.542 111.297 144.514 111.026H144.244L144.158 111.809C142.964 113.444 142.11 114.354 141.584 114.44C141.101 115.08 140.816 115.407 140.674 115.421L140.603 115.535ZM141.954 119.745V119.346H142.238L142.821 119.716C142.821 119.873 142.821 119.972 142.565 119.986C142.401 119.86 142.203 119.786 141.997 119.773L141.954 119.745ZM93.0152 145.259H92.7307L92.5032 145.458C92.5072 145.495 92.5197 145.53 92.5395 145.562C92.5594 145.593 92.5862 145.619 92.6178 145.638C92.6494 145.658 92.685 145.669 92.7218 145.673C92.7586 145.676 92.7958 145.671 92.8303 145.657C93.0152 145.657 93.0863 145.501 93.0436 145.345V145.202L93.0152 145.259ZM91.9769 143.183V143.325C92.0133 143.322 92.0485 143.312 92.0801 143.293C92.1116 143.275 92.1386 143.25 92.1592 143.22C92.1797 143.19 92.1931 143.156 92.1985 143.12C92.2039 143.084 92.2011 143.047 92.1903 143.012V142.87C92.1552 142.874 92.1216 142.887 92.0918 142.906C92.0619 142.925 92.0366 142.95 92.0176 142.98C91.9987 143.01 91.9864 143.043 91.9819 143.078C91.9773 143.113 91.9805 143.149 91.9912 143.183H91.9769ZM99.4009 129.217L99.6001 129.089H99.5005C99.4717 129.095 99.446 129.111 99.4279 129.135C99.4097 129.158 99.4002 129.187 99.4009 129.217ZM99.4009 125.59L99.7281 125.519L99.6569 125.249H99.3441V125.519L99.4009 125.59ZM173.641 136.2L172.93 136.114L172.802 136.399V136.527L177.069 136.171V135.915L173.641 136.2ZM195.358 133.54V133.81L195.828 133.896V133.625L195.373 133.54H195.358ZM194.704 133.54C193.312 133.923 191.88 134.138 190.437 134.18V134.45H190.722H190.878L191.22 134.322C194.377 133.967 194.747 134.095 194.718 133.739L194.704 133.54ZM175.504 128.961L175.22 128.861C175.064 129.21 174.954 129.578 174.893 129.956V130.084C175.12 130.084 175.319 129.686 175.504 128.961ZM171.664 126.884V126.756H171.522L171.252 126.927L171.408 127.183C171.607 127.183 171.693 127.069 171.678 126.884H171.664ZM180.013 135.517V135.261H179.927V135.517H180.013ZM197.421 131.62H197.62C197.733 131.62 197.79 131.521 197.776 131.35L197.662 131.094C197.082 131.09 196.51 131.232 195.998 131.506V131.364L195.131 131.449C195.131 131.193 195.031 131.051 194.917 131.065H194.462C193.936 131.065 193.68 131.065 193.424 131.279C193.424 131.179 193.424 131.151 193.325 131.151H192.827L192.528 131.321C192.528 131.236 192.528 131.193 192.443 131.193L192.258 131.35V131.208H191.561H191.305V131.506L191.675 131.592H192.002C192.123 131.658 192.262 131.688 192.4 131.677L192.685 131.521V131.649C191.748 131.881 190.798 132.052 189.84 132.161C189.754 132.104 189.657 132.065 189.556 132.047C189.498 132.043 189.443 132.018 189.404 131.975C189.364 131.933 189.342 131.877 189.342 131.819L189.925 131.734C189.925 131.734 189.925 131.734 190.324 131.848C190.793 131.62 190.821 131.521 191.077 131.492V131.236C190.091 131.414 189.092 131.509 188.091 131.521H187.991V131.25C190.594 130.937 189.712 131.122 190.608 130.866C190.608 130.952 190.608 130.994 190.708 130.994C190.805 130.901 190.93 130.842 191.063 130.824H191.248C192.268 130.859 193.287 130.725 194.263 130.425V130.539L194.562 130.397H194.832C194.832 130.141 195.202 130.098 195.344 130.084V129.8C192.173 130.44 191.333 130.269 190.452 130.525V130.369C190.103 130.454 189.743 130.487 189.385 130.468C189.285 130.498 189.195 130.558 189.129 130.639C189.129 130.539 189.129 130.497 189.015 130.497L186.313 130.937C186.313 130.866 186.313 130.824 186.213 130.838C185.284 131.102 184.332 131.274 183.369 131.35C183.245 131.369 183.128 131.418 183.028 131.492C183.028 131.421 183.028 131.378 182.871 131.393L181.733 131.478L180.965 131.677C180.964 131.66 180.959 131.644 180.95 131.629C180.942 131.614 180.931 131.601 180.918 131.59C180.905 131.58 180.89 131.572 180.873 131.567C180.857 131.563 180.84 131.561 180.823 131.563C180.457 131.671 180.08 131.742 179.7 131.777C179.501 131.777 179.785 131.777 179.7 131.663L179.472 131.805C179.131 131.805 179.316 131.805 178.149 131.805C176.13 132.061 176.343 132.089 176.13 132.104H175.376C175.376 132.175 175.376 132.232 175.262 132.232C174.395 132.118 173.954 131.976 173.94 131.819C174.053 130.994 174.253 130.582 174.537 130.553H174.693L174.565 130.824H174.708C174.978 130.681 175.106 130.539 175.106 130.411V130.127L174.665 130.084V129.814C174.648 129.634 174.677 129.453 174.75 129.288L175.376 128.292V128.562H175.675V128.306L175.504 128.065C175.643 127.908 175.827 127.799 176.03 127.752V127.624H175.632V127.225C176.14 126.332 176.527 125.376 176.784 124.381L177.069 124.495C177.106 124.495 177.143 124.488 177.177 124.472C177.212 124.457 177.242 124.434 177.266 124.405C177.291 124.377 177.309 124.343 177.319 124.307C177.329 124.271 177.331 124.233 177.325 124.196H177.04V124.082C177.017 123.892 177.051 123.698 177.14 123.528C177.337 123.349 177.492 123.129 177.593 122.883C177.694 122.637 177.738 122.371 177.723 122.105C177.808 122.105 177.851 122.105 177.865 122.233C178.36 121.801 178.67 121.195 178.733 120.541C179.84 118.262 180.791 115.91 181.577 113.501C182.732 110.816 183.586 108.011 184.123 105.138H183.853C183.864 105.325 183.825 105.512 183.739 105.679C183.572 105.593 183.383 105.563 183.198 105.593V105.48C183.202 104.776 183.443 104.095 183.881 103.545H184.009L184.237 104.456H184.507C184.548 104.09 184.62 103.729 184.72 103.375C184.621 103.204 184.621 103.062 184.365 103.062L184.094 103.233C184.094 103.048 184.094 102.55 184.094 101.81H183.952C183.774 101.665 183.649 101.465 183.597 101.241L182.174 101.384C182.138 101.22 182.081 101.063 182.004 100.914C182.004 100.786 182.331 100.644 183.013 100.516L183.326 100.63L183.611 100.459C183.611 100.554 183.668 100.597 183.781 100.587L184.052 100.417C184.05 100.438 184.054 100.459 184.063 100.478C184.072 100.497 184.086 100.514 184.103 100.526C184.119 100.539 184.139 100.547 184.16 100.55C184.181 100.554 184.202 100.552 184.222 100.545H184.365V100.246C184.165 100.246 183.597 100.246 182.715 100.246L182.43 100.431V100.217C175.319 100.801 171.38 101.128 170.427 101.227H169.005C169.005 101.341 168.905 101.412 168.692 101.426L168.251 101.284L167.227 101.54C166.82 101.584 166.41 101.584 166.004 101.54C165.835 101.67 165.633 101.749 165.421 101.768L168.436 101.526C168.215 101.669 167.959 101.747 167.696 101.753C167.49 101.777 167.282 101.737 167.099 101.64C166.375 101.876 165.633 102.052 164.88 102.166L164.567 102.052L159.661 102.806C159.458 102.724 159.239 102.69 159.021 102.706C158.578 102.769 158.141 102.864 157.712 102.991L155.337 103.972L155.522 104.271C155.692 104.237 155.856 104.175 156.005 104.086H156.845L156.731 104.868C156.385 104.981 156.073 105.18 155.824 105.446C155.576 105.712 155.398 106.037 155.309 106.39C154.142 106.902 153.559 107.272 153.559 107.485V107.627H153.744L154.057 107.457L154.427 107.897V108.509C154.427 108.689 152.469 112.818 148.553 120.897C145.149 128.662 143.367 132.929 143.205 133.697C142.039 134.024 141.371 134.507 141.172 135.119C141.172 135.318 141.527 135.46 142.21 135.503V135.816L141.897 136.313V136.925C141.897 137.238 142.75 137.48 144.457 137.65C144.453 137.628 144.454 137.604 144.46 137.582C144.466 137.559 144.476 137.538 144.491 137.521C144.506 137.503 144.525 137.489 144.546 137.479C144.567 137.47 144.59 137.465 144.613 137.465C144.599 138.21 144.494 138.95 144.301 139.67H144.471C144.98 139.122 145.325 138.442 145.467 137.707H145.609C145.78 137.707 145.95 137.878 146.164 138.29C145.248 139.878 144.508 141.562 143.959 143.311L144.13 143.609H144.315C145.142 141.378 146.18 139.23 147.415 137.195C149.435 137.025 152.948 136.669 157.925 136.129L158.238 135.944C158.237 135.967 158.242 135.989 158.251 136.01C158.261 136.031 158.275 136.049 158.294 136.063C158.312 136.077 158.333 136.086 158.356 136.09C158.378 136.094 158.401 136.093 158.423 136.086H158.75L159.021 135.773C159.02 135.798 159.024 135.822 159.035 135.845C159.045 135.867 159.061 135.887 159.08 135.902C159.1 135.917 159.122 135.928 159.147 135.932C159.171 135.937 159.196 135.936 159.22 135.929L162.989 135.602C163.984 135.517 164.411 135.218 164.411 134.692C164.411 134.564 164.994 134.408 166.174 134.237C166.353 134.232 166.532 134.261 166.701 134.322C166.701 134.237 167.284 134.137 168.478 134.038C168.478 133.412 168.706 133.071 169.061 133.042V132.729C168.668 132.771 168.281 132.861 167.909 133C167.41 133.027 166.91 133.003 166.416 132.929C166.272 133.028 166.106 133.091 165.933 133.113L163.287 133.142L162.974 133.313C162.974 133.227 162.889 133.185 162.775 133.185H162.633L162.292 133.355C162.292 133.256 162.007 133.185 161.467 133.113L161.125 133.313H160.485V133.213C163.87 132.843 165.534 132.374 165.492 131.791C165.719 131.791 165.833 131.876 165.847 132.089L166.843 131.848V131.535L158.75 131.762C158.755 131.784 158.754 131.807 158.748 131.829C158.742 131.851 158.731 131.871 158.716 131.888C158.701 131.905 158.682 131.917 158.66 131.925C158.639 131.933 158.616 131.936 158.594 131.933L157.598 131.89C157.368 131.907 157.147 131.986 156.958 132.118L156.589 131.976C155.82 132.023 155.057 132.147 154.313 132.345C153.546 132.289 152.776 132.289 152.009 132.345L150.189 132.516L149.349 132.417C149.349 131.876 150.345 129.245 152.493 124.509C152.806 123.396 153.393 122.379 154.199 121.551C154.38 121.565 154.558 121.608 154.725 121.679L156.005 121.238L156.674 121.352C158.005 121.203 159.311 120.878 160.557 120.385C160.839 120.346 161.127 120.376 161.396 120.47L162.391 120.228L165.335 119.986C166.717 119.849 168.08 119.568 169.403 119.147V118.849C168.862 118.849 168.578 118.849 168.549 118.578C168.521 118.308 168.123 118.009 167.355 118.066V117.768L168.165 117.54L170.285 117.355V117.057C170.199 117.057 169.758 117.057 168.962 117.057V116.744L169.787 116.658C170 116.658 170.1 116.53 170.071 116.331C168.971 116.331 168.417 116.274 168.407 116.161C160.713 116.53 156.859 116.616 156.845 116.374C156.671 116.405 156.506 116.473 156.361 116.573L156.162 116.26C158.196 111.993 159.39 109.746 159.746 109.718C159.713 110.002 159.626 110.277 159.49 110.529V110.671H159.803C160.613 108.751 161.225 107.741 161.865 107.698C164.283 107.499 161.538 107.343 166.701 106.532C166.844 106.6 166.998 106.643 167.156 106.66C169.189 106.248 172.02 105.807 175.689 105.366V104.996L173.755 105.181V104.868C173.963 104.861 174.162 104.786 174.324 104.655V104.811C174.45 104.77 174.567 104.702 174.665 104.612C174.924 104.574 175.189 104.603 175.433 104.697C175.966 104.553 176.507 104.443 177.054 104.37L178.263 104.257C178.548 104.072 178.69 103.901 178.676 103.745V103.617C178.285 103.649 177.893 103.626 177.509 103.545C177.509 103.375 177.509 103.261 177.78 103.204L180.055 103.062L181.079 102.792C181.079 102.905 181.079 102.948 181.236 102.948C181.395 102.912 181.545 102.845 181.677 102.749H181.847C181.662 103.143 181.51 103.552 181.392 103.972H181.093C181.082 103.781 181.024 103.595 180.923 103.432H180.781C178.05 111.041 176.827 114.582 174.309 120.413C173.854 121.906 173.456 122.731 173.129 122.916C173.124 122.952 173.129 122.989 173.143 123.023C173.157 123.057 173.179 123.087 173.207 123.11C173.236 123.133 173.27 123.148 173.306 123.154C173.342 123.16 173.379 123.156 173.413 123.144C173.479 123.905 173.3 124.667 172.901 125.32C172.38 127.264 171.59 129.126 170.555 130.852L170.825 132.445C170.825 132.616 170.825 132.701 170.569 132.729H170.299C170.299 132.289 170.1 132.089 169.815 132.118H169.673C169.289 132.714 169.015 133.374 168.862 134.066H169.133C169.291 133.99 169.423 133.868 169.512 133.716C169.601 133.564 169.642 133.389 169.63 133.213H170.185L170.498 133.327C170.283 133.598 170.163 133.933 170.157 134.28L170.299 134.536L169.943 135.375V135.517C170.308 135.503 170.667 135.607 170.967 135.816C171.265 135.769 171.548 135.652 171.792 135.474C172.105 135.474 173.285 135.474 175.319 135.474L176.329 135.133C177.199 135.12 178.068 135.058 178.932 134.948H179.373L179.6 134.792V134.934C180.292 134.85 180.994 134.879 181.677 135.019V135.147H181.051V135.417C181.228 135.399 181.396 135.33 181.534 135.218C181.691 135.218 181.79 135.289 181.805 135.489C181.514 135.515 181.227 135.577 180.951 135.673L180.681 135.574C180.254 135.702 180.34 135.73 180.055 135.745L179.614 135.659C179.614 135.745 179.614 135.787 179.515 135.787C179.415 135.787 179.614 136.043 179.771 136.029H180.212L182.501 135.773L183.369 135.588C183.369 135.659 183.369 135.702 183.497 135.688L183.909 135.531H184.692C185.303 135.531 185.303 135.432 186.626 135.218C186.626 135.133 186.626 135.105 186.711 135.105V135.218C187.604 135.109 188.488 134.937 189.357 134.706V134.777C189.897 134.649 189.584 134.678 189.726 134.578C189.869 134.479 189.726 134.706 189.826 134.706H190.21V134.422H189.243C188.959 134.452 188.673 134.452 188.389 134.422L186.469 134.536V134.351L187.536 134.209H187.92L188.148 134.052V134.194C191.204 134.157 194.244 133.732 197.193 132.929C197.563 132.929 197.534 132.573 197.776 131.933C197.648 131.934 197.521 131.904 197.406 131.848C196.753 132.002 196.086 132.097 195.415 132.132C195.316 132.132 195.245 132.132 195.216 131.89V131.777H196.283C196.677 131.766 197.064 131.674 197.421 131.506C197.421 131.606 197.207 131.649 197.335 131.649L197.421 131.62ZM145.694 132.445H145.197C145.367 131.665 145.634 130.911 145.993 130.198H146.32C146.203 130.965 145.992 131.715 145.694 132.431V132.445ZM146.221 130.084V129.956C146.221 129.785 146.32 129.672 146.548 129.615V129.757C146.562 129.913 146.448 130.084 146.221 130.084ZM152.791 135.161V135.304L151.981 135.375V135.233L152.791 135.161ZM151.796 135.076C151.796 135.247 151.554 135.432 151.013 135.631L150.004 135.56H149.677V135.247L151.796 135.076ZM158.437 104.484H157.94V104.356C157.94 104.185 158.025 104.072 158.224 104.015H158.409L158.75 104.143C158.757 104.187 158.753 104.231 158.74 104.274C158.727 104.316 158.705 104.355 158.675 104.388C158.645 104.42 158.608 104.446 158.567 104.463C158.526 104.479 158.482 104.487 158.437 104.484ZM165.947 103.062H166.132V103.361H165.677C165.677 103.19 165.677 103.076 165.947 103.019V103.062ZM164.055 103.73L163.287 103.588V103.446C163.941 103.404 164.587 103.275 165.207 103.062C165.207 103.176 165.321 103.218 165.506 103.204V103.503H165.207C165.04 103.53 164.869 103.515 164.709 103.46C164.536 103.578 164.335 103.652 164.126 103.673L164.055 103.73ZM164.994 106.447V106.262L166.132 106.148V106.276L164.994 106.447ZM166.288 105.394V105.181H166.871V105.352L166.288 105.394ZM166.416 103.346H166.26L166.402 103.019L167.739 102.905V103.062C167.293 103.104 166.851 103.18 166.416 103.289V103.346ZM167.099 106.191V105.906H167.682C167.722 105.897 167.765 105.897 167.805 105.907C167.845 105.918 167.883 105.938 167.913 105.966C167.944 105.994 167.968 106.029 167.982 106.068C167.996 106.107 168 106.149 167.995 106.191H167.099ZM170.669 101.327L169.915 101.54H169.773C169.299 101.577 168.824 101.577 168.35 101.54C169.332 101.469 170.256 101.398 170.612 101.341L170.669 101.327ZM169.858 104.697V104.825L168.82 104.925V104.783L169.858 104.697ZM171.565 105.494C171.565 105.38 171.351 105.295 170.939 105.252L169.901 105.537H169.104C168.919 105.409 168.834 105.323 168.82 105.252H169.744L171.821 105.025H172.887V105.195C172.438 105.241 171.995 105.331 171.565 105.465V105.494ZM182.26 102.735H182.501C182.863 102.38 183.288 102.096 183.753 101.896C183.519 103.266 182.903 104.543 181.975 105.579L181.392 105.224C181.741 104.416 182.031 103.584 182.26 102.735ZM180.453 105.906H180.596C180.397 106.286 180.226 106.485 180.084 106.504V106.105C180.221 106.069 180.348 106.001 180.453 105.906ZM179.287 108.751C179.375 108.04 179.655 107.366 180.098 106.802V106.945C179.941 107.997 179.714 108.552 179.415 108.594V109.249C179.222 109.49 179.098 109.78 179.06 110.088H178.932V109.064C179.102 109.064 179.23 108.893 179.33 108.623L179.287 108.751ZM178.832 110.173C178.792 110.552 178.691 110.921 178.533 111.268H178.391V110.87C178.59 110.401 178.761 110.173 178.875 110.159L178.832 110.173ZM170.299 134.777V134.664H170.569V135.062C170.427 135.062 170.313 134.991 170.27 134.806L170.299 134.777ZM182.416 135.09C182.416 134.991 182.416 134.948 182.274 134.962L181.591 135.033V134.891L183.213 134.749V134.891C182.914 134.866 182.616 134.936 182.359 135.09H182.416ZM181.605 134.749C181.605 134.749 181.605 134.82 181.605 134.834C181.605 134.849 181.591 134.749 181.662 134.706L181.605 134.749ZM181.776 132.815L180.866 132.9V132.758L181.677 132.687L182.388 132.502C182.388 132.587 182.388 132.616 182.544 132.616C182.933 132.517 183.327 132.441 183.725 132.388C183.853 132.388 183.938 132.459 183.952 132.63L181.776 132.815ZM184.933 132.545C184.636 132.513 184.335 132.513 184.037 132.545V132.431L184.848 132.36V132.473C184.734 132.417 185.047 132.445 184.905 132.545H184.933ZM184.933 132.402V132.289H185.374V132.402H184.933ZM185.901 132.317V132.203C186.014 132.166 186.12 132.108 186.213 132.033C186.256 132.029 186.3 132.033 186.341 132.046C186.382 132.059 186.42 132.08 186.453 132.108C186.486 132.136 186.514 132.17 186.533 132.208C186.553 132.246 186.565 132.288 186.569 132.331L185.901 132.317ZM187.152 132.161V132.018H187.678V132.161H187.152ZM187.906 132.161C187.906 131.99 187.906 131.905 188.091 131.876L188.276 132.118C188.276 132.033 188.276 131.99 188.347 131.99L188.489 132.232L187.906 132.161ZM198.43 130.795C198.516 130.795 198.558 130.696 198.43 130.667C198.302 130.639 198.53 130.795 198.317 130.809V130.909C198.317 130.909 198.317 130.909 198.43 130.824L198.317 130.909L198.089 131.193L198.53 131.037V130.767L198.43 130.795ZM199.198 131.393H199.113V131.663H199.739C199.739 131.492 199.312 131.435 199.184 131.435L199.198 131.393Z" fill="#D3D3D3"/>
</g>
<defs>
<clipPath id="clip0_303_17125">
<rect width="142.222" height="55.3813" fill="white" transform="translate(58.0427 100.217)"/>
</clipPath>
</defs>
</svg>
