<svg width="257" height="257" viewBox="0 0 257 257" fill="none" xmlns="http://www.w3.org/2000/svg">
<rect x="0.984985" y="1.2821" width="255" height="255" rx="31.5" fill="white"/>
<rect x="0.984985" y="1.2821" width="255" height="255" rx="31.5" stroke="#878787"/>
<g clip-path="url(#clip0_303_17160)">
<path d="M71.626 57.0939V134.008L128.885 166.605V144.461L90.57 122.63V88.3828L128.885 110.171V89.805L71.626 57.0939Z" fill="#202020"/>
<path d="M186.129 57.0939V134.008L128.885 166.605V144.461L167.171 122.63V88.3828L128.87 110.171V89.805L186.129 57.0939Z" fill="#575757"/>
<path d="M71.626 199.316V122.402L128.885 89.8049V111.992L90.57 133.78V166.335L128.885 144.489V166.676L71.626 199.316Z" fill="#575757"/>
<path d="M186.129 199.316V122.402L128.885 89.8049V111.992L167.171 133.78V166.335L128.87 144.489V166.676L186.129 199.387V199.316Z" fill="#202020"/>
</g>
<defs>
<clipPath id="clip0_303_17160">
<rect width="114.503" height="142.222" fill="white" transform="translate(71.626 57.0939)"/>
</clipPath>
</defs>
</svg>
