<svg width="257" height="257" viewBox="0 0 257 257" fill="none" xmlns="http://www.w3.org/2000/svg">
<rect x="0.604492" y="0.68811" width="255" height="255" rx="31.5" fill="white"/>
<rect x="0.604492" y="0.68811" width="255" height="255" rx="31.5" stroke="#878787"/>
<g clip-path="url(#clip0_303_17223)">
<path d="M62.1567 63.6678C61.4912 63.6572 60.8316 63.7931 60.2245 64.0659C59.6174 64.3387 59.0777 64.7418 58.6438 65.2465C58.209 65.7501 57.8887 66.3421 57.7052 66.9816C57.5063 67.6205 57.4481 68.2949 57.5345 68.9585L76.8767 186.377C77.1147 187.816 77.853 189.124 78.9615 190.071C80.07 191.018 81.4774 191.543 82.9354 191.554H175.792C176.886 191.571 177.949 191.194 178.788 190.492C179.626 189.789 180.183 188.808 180.358 187.728L199.757 68.9727C199.861 68.318 199.823 67.6483 199.643 67.01C199.463 66.3691 199.142 65.7764 198.704 65.2749C198.261 64.7564 197.7 64.3516 197.069 64.0945C196.464 63.8102 195.803 63.6644 195.135 63.6678H62.1567ZM143.607 148.546H113.983L105.961 106.633H150.775L143.607 148.546Z" fill="#757575"/>
<path d="M193.428 106.576H150.761L143.522 148.447H113.926L78.9816 189.933C80.1014 190.859 81.5108 191.362 82.9638 191.355H175.721C176.812 191.369 177.872 190.99 178.708 190.288C179.543 189.586 180.098 188.607 180.272 187.529L193.428 106.576Z" fill="url(#paint0_linear_303_17223)"/>
</g>
<defs>
<linearGradient id="paint0_linear_303_17223" x1="187.412" y1="107.117" x2="138.061" y2="177.204" gradientUnits="userSpaceOnUse">
<stop offset="0.18" stop-color="#474747"/>
<stop offset="1" stop-color="#757575"/>
</linearGradient>
<clipPath id="clip0_303_17223">
<rect width="142.222" height="127.886" fill="white" transform="translate(57.5345 63.6678)"/>
</clipPath>
</defs>
</svg>
