<svg width="257" height="257" viewBox="0 0 257 257" fill="none" xmlns="http://www.w3.org/2000/svg">
<rect x="1.15673" y="1.39111" width="255" height="255" rx="31.5" fill="white"/>
<rect x="1.15673" y="1.39111" width="255" height="255" rx="31.5" stroke="#878787"/>
<g clip-path="url(#clip0_303_17199)">
<path d="M63.3806 64.9114H193.742V191.717H63.3806V64.9114Z" fill="url(#paint0_radial_303_17199)"/>
<path d="M63.3806 64.9114H193.742V191.717H63.3806V64.9114ZM57.45 197.647H199.672V58.9807H57.45V197.647ZM140.707 117.292C140.707 116.581 140.707 114.86 140.408 111.603C140.381 111.438 140.415 111.269 140.504 111.127C140.593 110.985 140.731 110.881 140.892 110.835C147.856 108.176 155.24 106.789 162.694 106.739C163.164 106.739 163.406 106.867 163.406 107.336V115.87C163.406 116.339 163.235 116.467 162.694 116.467C158.968 116.282 153.45 116.751 151.317 117.647V155.038C151.317 155.521 151.146 155.749 150.606 155.749H141.361C140.892 155.749 140.65 155.578 140.65 155.038V117.292H140.707ZM96.8597 155.692C96.1486 155.692 95.9637 155.393 95.9637 154.81V91.1656C95.9637 90.682 96.1486 90.3834 96.6748 90.3834H106.047C106.517 90.3834 106.63 90.5683 106.63 91.0945V145.978H131.05C131.519 145.978 131.704 146.149 131.576 146.689L130.154 155.094C130.126 155.303 130.018 155.493 129.854 155.625C129.69 155.758 129.482 155.822 129.272 155.806H96.8597V155.692Z" fill="#C8C8C8"/>
</g>
<defs>
<radialGradient id="paint0_radial_303_17199" cx="0" cy="0" r="1" gradientUnits="userSpaceOnUse" gradientTransform="translate(103.969 93.5123) scale(99.0862 95.9289)">
<stop stop-color="#434343" stop-opacity="0.98"/>
<stop offset="1" stop-color="#111111"/>
</radialGradient>
<clipPath id="clip0_303_17199">
<rect width="142.222" height="138.667" fill="white" transform="translate(57.45 58.9807)"/>
</clipPath>
</defs>
</svg>
