<svg width="257" height="257" viewBox="0 0 257 257" fill="none" xmlns="http://www.w3.org/2000/svg">
<rect x="1.32837" y="0.68811" width="255" height="255" rx="31.5" fill="white"/>
<rect x="1.32837" y="0.68811" width="255" height="255" rx="31.5" stroke="#878787"/>
<g clip-path="url(#clip0_303_17123)">
<path d="M57.8657 180.39C57.8657 185.252 59.7972 189.915 63.2352 193.353C66.6732 196.791 71.3361 198.722 76.1982 198.722H181.756C186.618 198.722 191.281 196.791 194.719 193.353C198.157 189.915 200.088 185.252 200.088 180.39V74.8323C200.088 69.9703 198.157 65.3073 194.719 61.8693C191.281 58.4313 186.618 56.4999 181.756 56.4999H76.1982C71.3361 56.4999 66.6732 58.4313 63.2352 61.8693C59.7972 65.3073 57.8657 69.9703 57.8657 74.8323L57.8657 180.39Z" fill="#4B4B4B"/>
<path d="M116.845 119.405V99.2661H134.566C136.207 99.2613 137.844 99.4041 139.459 99.6927C140.924 99.9365 142.331 100.448 143.612 101.2C144.808 101.938 145.789 102.978 146.456 104.215C147.25 105.726 147.641 107.416 147.594 109.122C147.594 112.735 146.508 115.347 144.337 116.959C141.925 118.646 139.03 119.505 136.088 119.405H116.845ZM97.9013 84.5603V170.662H139.644C143.444 170.671 147.229 170.193 150.908 169.239C154.406 168.349 157.715 166.836 160.678 164.774C163.539 162.763 165.876 160.095 167.491 156.994C169.254 153.502 170.124 149.627 170.022 145.716C170.174 140.81 168.808 135.978 166.111 131.878C163.233 127.876 159.023 125.031 154.236 123.856C157.727 122.306 160.742 119.851 162.968 116.745C165.044 113.521 166.086 109.74 165.955 105.908C166.061 102.421 165.38 98.9551 163.964 95.7674C162.698 93.1229 160.755 90.8607 158.332 89.211C155.695 87.4693 152.743 86.2614 149.642 85.6554C145.955 84.9014 142.198 84.5391 138.435 84.5745L97.9013 84.5603ZM116.845 155.956V132.319H137.51C141.053 132.132 144.557 133.133 147.466 135.163C149.959 137.059 151.206 140.217 151.206 144.635C151.275 146.548 150.885 148.45 150.068 150.182C149.35 151.57 148.288 152.75 146.982 153.609C145.625 154.488 144.115 155.105 142.531 155.43C140.781 155.793 138.998 155.974 137.212 155.97L116.845 155.956Z" fill="white"/>
</g>
<defs>
<clipPath id="clip0_303_17123">
<rect width="142.222" height="142.222" fill="white" transform="translate(57.8657 56.4999)"/>
</clipPath>
</defs>
</svg>
