<svg width="257" height="257" viewBox="0 0 257 257" fill="none" xmlns="http://www.w3.org/2000/svg">
<rect x="1.15673" y="1.09424" width="255" height="255" rx="31.5" fill="white"/>
<rect x="1.15673" y="1.09424" width="255" height="255" rx="31.5" stroke="#878787"/>
<g clip-path="url(#clip0_303_17204)">
<path fill-rule="evenodd" clip-rule="evenodd" d="M86.9895 71.3704C85.0994 71.4122 83.2366 71.8305 81.5101 72.6008C79.7836 73.371 78.2279 74.4778 76.9341 75.8563C75.6404 77.2348 74.6344 78.8575 73.9751 80.6293C73.3158 82.4012 73.0164 84.2867 73.0944 86.1757C73.3504 93.5713 73.0944 103.157 70.6055 110.979C68.1166 118.801 64.1344 123.779 57.4499 124.419V131.616C64.1344 132.256 68.2304 137.219 70.6482 145.056C73.0659 152.892 73.393 162.464 73.0944 169.859C73.0164 171.745 73.3144 173.627 73.9711 175.396C74.6278 177.165 75.6299 178.786 76.9192 180.164C78.2084 181.542 79.759 182.649 81.4806 183.422C83.2022 184.195 85.0604 184.617 86.9468 184.665H170.147C172.036 184.621 173.897 184.201 175.622 183.43C177.347 182.659 178.901 181.552 180.193 180.174C181.485 178.795 182.49 177.173 183.148 175.402C183.807 173.631 184.106 171.747 184.028 169.859C183.758 162.464 184.028 152.878 186.517 145.056C189.006 137.233 193.016 132.256 199.701 131.616V124.419C193.016 123.779 188.934 118.816 186.517 110.979C184.099 103.143 183.729 93.5713 184.028 86.1757C184.106 84.2879 183.807 82.4035 183.148 80.6326C182.49 78.8616 181.485 77.2396 180.193 75.8613C178.901 74.4829 177.347 73.3759 175.622 72.6048C173.897 71.8338 172.036 71.4141 170.147 71.3704H86.9895ZM153.834 141.059C153.834 151.655 145.912 158.126 132.785 158.126H110.485C109.845 158.122 109.232 157.866 108.779 157.414C108.326 156.961 108.071 156.348 108.067 155.708V100.241C108.071 99.6014 108.326 98.9886 108.779 98.536C109.232 98.0834 109.845 97.8274 110.485 97.8237H132.7C143.651 97.8237 150.833 103.754 150.833 112.871C150.804 115.992 149.691 119.006 147.686 121.398C145.681 123.789 142.907 125.41 139.839 125.984V126.311C148.23 127.235 153.877 133.038 153.877 141.059H153.834ZM130.396 105.504H117.596V123.523H128.333C136.625 123.523 141.134 120.181 141.134 114.222C141.262 108.618 137.322 105.504 130.396 105.504ZM117.596 130.634V150.545H130.808C139.441 150.545 144.021 147.089 144.021 140.59C144.021 134.09 139.313 130.734 130.253 130.734L117.596 130.634Z" fill="#686868"/>
</g>
<defs>
<clipPath id="clip0_303_17204">
<rect width="142.222" height="113.294" fill="white" transform="translate(57.4499 71.3704)"/>
</clipPath>
</defs>
</svg>
