<svg width="257" height="257" viewBox="0 0 257 257" fill="none" xmlns="http://www.w3.org/2000/svg">
<rect x="0.537231" y="1.09424" width="255" height="255" rx="31.5" fill="white"/>
<rect x="0.537231" y="1.09424" width="255" height="255" rx="31.5" stroke="#878787"/>
<g clip-path="url(#clip0_303_17109)">
<path d="M190.82 99.004C190.863 96.818 190.328 94.6595 189.27 92.7462C188.18 90.8965 186.613 89.3737 184.733 88.3373C168.065 78.7136 151.392 69.0994 134.714 59.4947C132.714 58.2341 130.393 57.577 128.03 57.6023C125.666 57.6275 123.36 58.3339 121.387 59.6369C114.76 63.548 81.5652 82.5916 71.6097 88.3231C69.6982 89.3555 68.1153 90.9042 67.0416 92.7927C65.9678 94.6812 65.4464 96.8335 65.5368 99.004V157.031C65.476 159.162 65.9658 161.273 66.959 163.16C68.0457 165.07 69.6409 166.64 71.567 167.697C81.5225 173.386 114.717 192.487 121.345 196.398C123.318 197.699 125.625 198.403 127.989 198.425C130.353 198.448 132.673 197.788 134.671 196.526C151.368 186.902 168.065 177.293 184.762 167.697C186.688 166.64 188.283 165.07 189.37 163.16C190.363 161.268 190.853 159.153 190.792 157.016C190.792 157.016 190.835 118.346 190.82 99.004Z" fill="#909090"/>
<path d="M128.371 127.833L66.959 163.161C68.0457 165.07 69.6409 166.64 71.567 167.697C81.5225 173.386 114.717 192.487 121.345 196.398C123.318 197.699 125.625 198.403 127.989 198.425C130.353 198.448 132.673 197.789 134.671 196.526C151.368 186.902 168.065 177.293 184.762 167.697C186.688 166.64 188.283 165.07 189.37 163.161L128.371 127.833Z" fill="#171717"/>
<path d="M190.82 99.0039C190.863 96.8179 190.328 94.6594 189.27 92.7461L128.371 127.832L189.37 163.16C190.363 161.268 190.853 159.152 190.792 157.016C190.792 157.016 190.792 118.346 190.792 99.0039" fill="#212121"/>
<path d="M164.509 114.62V121.219H171.123V114.62H174.422V121.219H181.021V124.519H174.422V131.132H181.021V134.403H174.422V141.002H171.123V134.403H164.509V141.002H161.21V134.403H154.611V131.132H161.21V124.519H154.611V121.219H161.21V114.62H164.509ZM171.123 124.576H164.509V131.132H171.123V124.576Z" fill="white"/>
<path d="M128.513 81.4395C136.685 81.4361 144.713 83.5847 151.791 87.6692C158.869 91.7536 164.747 97.63 168.833 104.707V104.579L148.566 116.241C146.532 112.811 143.648 109.962 140.193 107.969C136.738 105.976 132.828 104.907 128.84 104.863H128.584C124.494 104.845 120.472 105.907 116.925 107.944C113.378 109.981 110.433 112.919 108.388 116.461C106.343 120.003 105.271 124.022 105.28 128.112C105.289 132.202 106.38 136.217 108.441 139.749C110.502 143.282 113.46 146.207 117.016 148.227C120.572 150.248 124.599 151.293 128.689 151.255C132.778 151.218 136.785 150.1 140.304 148.014C143.822 145.929 146.726 142.951 148.723 139.381L148.623 139.551L168.861 151.285C164.82 158.294 159.022 164.128 152.039 168.213C145.056 172.299 137.129 174.493 129.039 174.581H128.527C122.343 174.689 116.199 173.564 110.454 171.272C104.709 168.98 99.4783 165.567 95.0667 161.232C90.6551 156.897 87.1511 151.726 84.7592 146.023C82.3673 140.319 81.1354 134.195 81.1354 128.01C81.1354 121.825 82.3673 115.702 84.7592 109.998C87.1511 104.294 90.6551 99.1234 95.0667 94.7882C99.4783 90.453 104.709 87.0399 110.454 84.748C116.199 82.4561 122.343 81.3314 128.527 81.4395H128.513Z" fill="white"/>
</g>
<defs>
<clipPath id="clip0_303_17109">
<rect width="125.298" height="140.828" fill="white" transform="translate(65.5367 57.603)"/>
</clipPath>
</defs>
</svg>
