<svg width="257" height="257" viewBox="0 0 257 257" fill="none" xmlns="http://www.w3.org/2000/svg">
<rect x="1.08948" y="1.09424" width="255" height="255" rx="31.5" fill="white"/>
<rect x="1.08948" y="1.09424" width="255" height="255" rx="31.5" stroke="#878787"/>
<g clip-path="url(#clip0_303_17184)">
<path d="M191.198 98.7978C191.246 96.5995 190.716 94.4271 189.662 92.4974C188.563 90.6338 186.987 89.0971 185.097 88.0458C168.286 78.3557 151.485 68.6751 134.693 59.004C132.681 57.7344 130.345 57.0724 127.966 57.0976C125.587 57.1228 123.266 57.8342 121.282 59.1463C114.583 63.0858 81.0896 82.2716 71.1198 88.0458C69.1958 89.0855 67.6025 90.6445 66.5213 92.5455C65.4401 94.4464 64.9144 96.6128 65.0042 98.7978V157.237C64.9375 159.387 65.4274 161.518 66.4265 163.424C67.5283 165.369 69.1545 166.966 71.1198 168.032C81.0753 173.806 114.583 192.992 121.267 196.931C123.252 198.243 125.573 198.955 127.952 198.98C130.331 199.005 132.667 198.343 134.679 197.073C151.48 187.345 168.286 177.665 185.097 168.032C187.033 166.959 188.637 165.375 189.733 163.452C190.726 161.55 191.216 159.425 191.155 157.28V98.7978" fill="#838383"/>
<path d="M128.293 127.825L66.4265 163.424C67.5284 165.369 69.1546 166.966 71.1198 168.032C81.0754 173.806 114.583 192.992 121.267 196.931C123.252 198.243 125.573 198.955 127.952 198.98C130.331 199.005 132.667 198.343 134.679 197.073C151.48 187.345 168.286 177.665 185.097 168.032C187.033 166.96 188.637 165.375 189.733 163.452L128.293 127.897" fill="#3E3E3E"/>
<path d="M109.989 138.364C111.816 141.571 114.462 144.236 117.657 146.085C120.851 147.935 124.479 148.903 128.17 148.892C131.861 148.88 135.483 147.889 138.665 146.019C141.848 144.15 144.477 141.469 146.284 138.25L128.293 127.825L109.989 138.364Z" fill="#3E3E3E"/>
<path d="M191.198 98.7978C191.246 96.5994 190.716 94.427 189.662 92.4973L128.293 127.825L189.733 163.381C190.726 161.478 191.216 159.354 191.155 157.208V98.7978" fill="#4C4C4C"/>
<path d="M187.827 130.371H183.049V135.178H178.213V130.371H173.42V125.578H178.213V120.771H183.049V125.578H187.856L187.827 130.371ZM170.249 130.371H165.498V135.178H160.706V130.371H155.898V125.578H160.706V120.771H165.498V125.578H170.249V130.371Z" fill="white"/>
<path d="M146.284 138.25C144.026 142.258 140.506 145.408 136.272 147.208C132.039 149.009 127.329 149.36 122.875 148.206C118.422 147.052 114.474 144.459 111.647 140.83C108.82 137.2 107.272 132.738 107.243 128.137C107.215 123.537 108.708 119.056 111.49 115.392C114.272 111.728 118.187 109.086 122.626 107.877C127.065 106.669 131.779 106.961 136.034 108.709C140.29 110.457 143.848 113.563 146.156 117.543L164.389 107.047C159.757 99.0629 152.618 92.8322 144.081 89.3223C135.544 85.8123 126.087 85.2197 117.179 87.6364C108.27 90.0531 100.409 95.3439 94.8165 102.687C89.2238 110.03 86.2125 119.014 86.2502 128.245C86.288 137.475 89.3726 146.434 95.0252 153.732C100.678 161.029 108.582 166.255 117.509 168.599C126.437 170.943 135.889 170.273 144.397 166.693C152.905 163.114 159.993 156.825 164.56 148.803L146.284 138.25Z" fill="white"/>
</g>
<defs>
<clipPath id="clip0_303_17184">
<rect width="126.194" height="141.838" fill="white" transform="translate(65.0043 57.0981)"/>
</clipPath>
</defs>
</svg>
