<svg width="257" height="257" viewBox="0 0 257 257" fill="none" xmlns="http://www.w3.org/2000/svg">
<rect x="1.26099" y="1.2821" width="255" height="255" rx="31.5" fill="white"/>
<rect x="1.26099" y="1.2821" width="255" height="255" rx="31.5" stroke="#878787"/>
<g clip-path="url(#clip0_303_17131)">
<path d="M200.265 161.99V139.476C200.265 144.781 194.462 149.645 184.762 153.499L129.153 139.476V161.99L184.762 176.013C194.462 172.173 200.265 167.309 200.265 161.99Z" fill="#606060"/>
<path d="M184.762 131C194.462 127.131 200.265 122.281 200.265 116.962V94.4201C200.265 82.0041 168.407 71.9064 129.153 71.9064C89.9001 71.9064 58.0424 82.0041 58.0424 94.4201V116.962C58.0424 129.393 89.8859 139.476 129.153 139.476V116.977L184.762 131ZM129.153 184.504V161.99C89.8717 161.99 58.0424 151.892 58.0424 139.49V161.99C58.0424 174.42 89.8717 184.504 129.153 184.504Z" fill="#606060"/>
</g>
<defs>
<clipPath id="clip0_303_17131">
<rect width="142.222" height="112.597" fill="white" transform="translate(58.0424 71.9064)"/>
</clipPath>
</defs>
</svg>
