<svg width="257" height="257" viewBox="0 0 257 257" fill="none" xmlns="http://www.w3.org/2000/svg">
<rect x="1.08948" y="0.797119" width="255" height="255" rx="31.5" fill="white"/>
<rect x="1.08948" y="0.797119" width="255" height="255" rx="31.5" stroke="#878787"/>
<g clip-path="url(#clip0_303_17208)">
<path d="M127.916 56.6088C127.916 56.6088 169.687 54.7457 191.831 96.7155H124.375C124.375 96.7155 111.575 96.303 100.766 111.763C97.637 118.234 94.2379 124.875 98.0495 138.074C92.6166 128.886 69.2352 88.1537 69.2352 88.1537C69.2352 88.1537 85.7046 58.287 127.916 56.6088Z" fill="#606060"/>
<path d="M189.655 163.275C189.655 163.275 170.384 200.253 122.967 198.49L156.702 140.065C156.702 140.065 163.443 129.256 155.493 112.118C151.44 106.159 147.329 99.9296 134.06 96.6016C144.727 96.5021 191.689 96.6016 191.689 96.6016C191.689 96.6016 209.296 125.828 189.655 163.275Z" fill="#CBCBCB"/>
<path d="M66.4903 163.489C66.4903 163.489 43.9766 128.246 69.3348 88.1111L103.041 146.55C103.041 146.55 109.057 157.786 127.873 159.478C134.985 158.952 142.494 158.497 152.051 148.669C146.718 157.942 123.137 198.547 123.137 198.547C123.137 198.547 89.0183 199.187 66.4903 163.489Z" fill="#9A9A9A"/>
<path d="M122.967 198.831L132.453 159.236C139.874 158.144 146.667 154.455 151.625 148.826C146.206 158.369 122.967 198.831 122.967 198.831Z" fill="#929292"/>
<path d="M96.1437 128.161C96.1465 121.911 98.0023 115.803 101.476 110.608C104.951 105.413 109.887 101.364 115.662 98.9747C121.437 96.585 127.79 95.9612 133.919 97.1822C140.049 98.4032 145.678 101.414 150.096 105.834C154.514 110.254 157.523 115.885 158.741 122.015C159.959 128.145 159.333 134.498 156.94 140.272C154.548 146.045 150.498 150.98 145.301 154.452C140.104 157.924 133.995 159.777 127.745 159.777C123.594 159.777 119.484 158.959 115.649 157.37C111.814 155.781 108.329 153.452 105.395 150.516C102.46 147.58 100.132 144.094 98.5451 140.259C96.9578 136.423 96.1418 132.312 96.1437 128.161Z" fill="white"/>
<path d="M101.434 128.161C101.434 122.957 102.977 117.87 105.869 113.543C108.76 109.216 112.869 105.844 117.677 103.852C122.484 101.861 127.775 101.34 132.878 102.355C137.982 103.37 142.671 105.876 146.35 109.556C150.03 113.236 152.536 117.924 153.551 123.028C154.566 128.132 154.045 133.422 152.054 138.23C150.062 143.037 146.69 147.147 142.363 150.038C138.036 152.929 132.949 154.472 127.745 154.472C120.767 154.472 114.075 151.7 109.141 146.765C104.206 141.831 101.434 135.139 101.434 128.161Z" fill="url(#paint0_linear_303_17208)"/>
<path d="M191.689 96.616L152.62 108.065C148 102.185 141.452 98.1248 134.131 96.6018C145.04 96.5591 191.689 96.616 191.689 96.616Z" fill="#C1C1C1"/>
<path d="M97.2957 136.652C91.8059 127.137 69.2352 88.1538 69.2352 88.1538L98.1775 116.783C96.2446 121.483 95.6061 126.615 96.3286 131.645L97.2957 136.652Z" fill="#5B5B5B"/>
</g>
<defs>
<linearGradient id="paint0_linear_303_17208" x1="127.745" y1="102.219" x2="127.745" y2="152.893" gradientUnits="userSpaceOnUse">
<stop stop-color="#BBBBBB"/>
<stop offset="1" stop-color="#666666"/>
</linearGradient>
<clipPath id="clip0_303_17208">
<rect width="141.682" height="142.222" fill="white" transform="translate(57.2601 56.6089)"/>
</clipPath>
</defs>
</svg>
