<svg width="257" height="257" viewBox="0 0 257 257" fill="none" xmlns="http://www.w3.org/2000/svg">
<rect x="1.36548" y="1.09424" width="255" height="255" rx="31.5" fill="white"/>
<rect x="1.36548" y="1.09424" width="255" height="255" rx="31.5" stroke="#878787"/>
<g clip-path="url(#clip0_303_17188)">
<path d="M179.116 171.281C178.345 171.296 177.583 171.102 176.914 170.719C176.244 170.336 175.69 169.778 175.312 169.105C174.935 168.432 174.746 167.67 174.767 166.898C174.788 166.127 175.018 165.376 175.433 164.725C175.975 163.853 176.805 163.199 177.779 162.876C181.691 161.677 185.114 159.251 187.542 155.958C189.969 152.664 191.274 148.678 191.262 144.586C191.254 139.451 189.211 134.528 185.58 130.897C181.949 127.266 177.026 125.223 171.891 125.215C171.054 125.221 170.218 125.283 169.388 125.4L165.121 125.941L164.51 121.745C163.309 113.75 159.521 106.368 153.726 100.731C147.93 95.0938 140.447 91.5111 132.422 90.5318C124.396 89.5524 116.271 91.2302 109.29 95.3084C102.309 99.3866 96.8569 105.64 93.7686 113.112L92.7019 115.743H89.8575C84.3681 115.851 79.079 117.825 74.8602 121.339C70.6415 124.852 67.7442 129.697 66.6452 135.077C65.5462 140.456 66.3108 146.049 68.8132 150.936C71.3156 155.823 75.4069 159.713 80.4139 161.966C80.9303 162.199 81.3949 162.533 81.7808 162.948C82.1666 163.363 82.4658 163.851 82.661 164.383C82.8603 164.911 82.9528 165.473 82.9333 166.037C82.9137 166.601 82.7825 167.156 82.5473 167.669C82.3169 168.185 81.9863 168.65 81.5746 169.038C81.1629 169.425 80.6783 169.727 80.149 169.925C79.6197 170.124 79.0562 170.215 78.4913 170.194C77.9264 170.173 77.3714 170.04 76.8584 169.802C70.3379 166.804 64.9795 161.753 61.6034 155.42C58.2273 149.087 57.0195 141.823 58.1651 134.738C59.3106 127.654 62.7462 121.14 67.946 116.194C73.1459 111.248 79.8233 108.142 86.9562 107.352C91.0163 98.8365 97.6226 91.793 105.861 87.1961C114.099 82.5992 123.563 80.6761 132.942 81.6929C142.321 82.7097 151.153 86.6161 158.214 92.8717C165.276 99.1273 170.22 107.423 172.361 116.611C178.996 116.682 185.388 119.117 190.389 123.477C195.39 127.838 198.673 133.838 199.648 140.402C200.623 146.965 199.226 153.661 195.708 159.287C192.189 164.912 186.781 169.1 180.453 171.096C180.02 171.227 179.569 171.289 179.116 171.281Z" fill="#595959"/>
<path d="M113.225 173.144H113.011C112.552 173.156 112.095 173.074 111.667 172.904C111.24 172.734 110.852 172.479 110.527 172.155C110.201 171.83 109.944 171.443 109.772 171.017C109.601 170.591 109.517 170.134 109.527 169.674V131.857H112.371C112.469 131.861 112.567 131.845 112.659 131.809C112.75 131.773 112.834 131.719 112.903 131.65C112.973 131.58 113.027 131.497 113.063 131.405C113.098 131.314 113.115 131.216 113.111 131.118C113.11 130.974 113.066 130.833 112.985 130.714C112.904 130.595 112.789 130.503 112.656 130.449L98.7463 120.849C98.6246 120.766 98.481 120.722 98.3339 120.721C98.182 120.72 98.0333 120.765 97.9072 120.849L83.8841 130.52C83.7592 130.614 83.665 130.743 83.6139 130.89C83.5568 131.036 83.5568 131.199 83.6139 131.345C83.6579 131.492 83.7475 131.622 83.8699 131.715C83.9947 131.804 84.1433 131.853 84.2966 131.857H87.141V169.674C87.1556 170.943 87.6644 172.157 88.5593 173.057C89.4542 173.957 90.6647 174.473 91.9339 174.495H112.926C113.018 174.498 113.11 174.481 113.195 174.447C113.281 174.413 113.358 174.361 113.424 174.296C113.489 174.231 113.54 174.153 113.574 174.068C113.608 173.982 113.625 173.891 113.623 173.799C113.622 173.662 113.583 173.529 113.509 173.415C113.43 173.299 113.322 173.206 113.196 173.144H113.225Z" fill="#949494"/>
<path d="M143.29 173.144H143.219C143.149 173.131 143.076 173.131 143.006 173.144C142.551 173.148 142.1 173.061 141.68 172.887C141.259 172.714 140.878 172.458 140.558 172.134C140.239 171.81 139.987 171.426 139.819 171.003C139.651 170.581 139.569 170.129 139.578 169.674V140.334H142.423C142.597 140.339 142.768 140.284 142.906 140.177C143.04 140.068 143.135 139.918 143.177 139.751C143.203 139.586 143.178 139.417 143.105 139.267C143.023 139.116 142.893 138.996 142.736 138.926L128.812 129.326C128.69 129.243 128.547 129.198 128.4 129.198C128.252 129.195 128.107 129.239 127.987 129.326L113.964 138.997C113.832 139.083 113.736 139.215 113.694 139.367C113.644 139.514 113.644 139.674 113.694 139.822C113.743 139.97 113.838 140.099 113.964 140.191C114.088 140.283 114.237 140.333 114.391 140.334H117.235V169.674C117.25 170.943 117.759 172.157 118.653 173.057C119.548 173.957 120.759 174.473 122.028 174.495H142.992C143.176 174.492 143.354 174.421 143.489 174.296C143.556 174.232 143.61 174.154 143.646 174.069C143.683 173.984 143.702 173.892 143.703 173.799C143.704 173.66 143.659 173.525 143.575 173.415C143.501 173.3 143.398 173.207 143.276 173.144H143.29Z" fill="#B5B5B5"/>
<path d="M173.427 173.144H173.356C173.291 173.129 173.223 173.129 173.157 173.144C172.703 173.146 172.253 173.057 171.833 172.883C171.414 172.709 171.033 172.453 170.714 172.129C170.395 171.806 170.143 171.423 169.974 171.001C169.805 170.579 169.722 170.128 169.73 169.674V148.796H172.574C172.763 148.835 172.959 148.798 173.121 148.693C173.282 148.588 173.395 148.423 173.434 148.234C173.474 148.045 173.437 147.849 173.332 147.687C173.226 147.526 173.061 147.413 172.873 147.373L158.949 137.759C158.827 137.677 158.684 137.632 158.537 137.631C158.389 137.628 158.244 137.673 158.124 137.759L144.087 147.445C143.963 147.533 143.869 147.657 143.817 147.8C143.774 147.949 143.774 148.107 143.817 148.255C143.859 148.403 143.949 148.533 144.073 148.625C144.2 148.72 144.355 148.77 144.514 148.767H147.358V169.674C147.373 170.943 147.881 172.157 148.776 173.057C149.671 173.957 150.882 174.473 152.151 174.495H173.129C173.313 174.492 173.491 174.421 173.626 174.296C173.693 174.232 173.747 174.154 173.783 174.069C173.82 173.983 173.839 173.891 173.84 173.798C173.841 173.66 173.796 173.525 173.712 173.414C173.638 173.3 173.535 173.207 173.413 173.144H173.427Z" fill="#D3D3D3"/>
</g>
<defs>
<clipPath id="clip0_303_17188">
<rect width="142.222" height="93.0418" fill="white" transform="translate(57.6584 81.4963)"/>
</clipPath>
</defs>
</svg>
