<svg width="257" height="257" viewBox="0 0 257 257" fill="none" xmlns="http://www.w3.org/2000/svg">
<rect x="0.708862" y="1.28223" width="255" height="255" rx="31.5" fill="white"/>
<rect x="0.708862" y="1.28223" width="255" height="255" rx="31.5" stroke="#878787"/>
<g clip-path="url(#clip0_303_17209)">
<path d="M107.488 199.316C90.5782 195.419 75.6165 184.411 70.9516 167.131C66.2867 149.851 72.6298 132.472 83.012 118.548C88.3332 111.697 94.2438 105.325 100.676 99.5047C106.564 94.0149 113.035 88.966 118.368 82.9216C123.702 76.8771 130.656 65.5278 125.437 57.094C134.909 64.2051 142.504 75.9811 141.266 88.1553C140.242 97.8691 132.96 107.754 140.1 116.927C144.537 122.616 153.526 121.435 156.84 115.931L156.598 116.187C157.165 115.283 157.582 114.294 157.835 113.258C157.839 112.278 157.635 111.309 157.238 110.413L158.12 110.897C174.76 119.515 188.185 134.591 187.816 154.175C187.432 177.983 165.188 194.58 143.712 199.316C153.881 195.32 162.927 187.384 164.164 175.992C165.302 165.482 159.67 156.422 152.032 149.709C144.779 143.338 136.118 139.213 128.224 133.78C123.673 130.637 116.847 124.351 119.208 117.965C115.964 120.73 113.646 124.423 112.566 128.546C110.603 136.653 115.595 142.968 120.758 148.557C125.92 154.146 125.579 163.889 116.776 165.823C114.912 166.218 112.974 166.071 111.192 165.398C109.409 164.725 107.857 163.554 106.72 162.026C104.274 158.669 104.815 155.256 105.796 151.515C97.5613 157.346 90.9338 166.221 90.9622 176.66C90.9622 186.246 98.9551 195.618 107.488 199.302V199.316Z" fill="#737373"/>
</g>
<defs>
<clipPath id="clip0_303_17209">
<rect width="118.428" height="142.222" fill="white" transform="translate(69.3871 57.094)"/>
</clipPath>
</defs>
</svg>
