<svg width="257" height="256" viewBox="0 0 257 256" fill="none" xmlns="http://www.w3.org/2000/svg">
<rect x="0.604492" y="0.5" width="255" height="255" rx="31.5" fill="white"/>
<rect x="0.604492" y="0.5" width="255" height="255" rx="31.5" stroke="#878787"/>
<g clip-path="url(#clip0_303_17211)">
<path d="M191.344 56.8889L179.966 184.889L128.525 199.111L77.3247 184.889L65.9469 56.8889H191.344Z" fill="#525252"/>
<path d="M170.139 176.725L179.91 67.3564H128.71V188.245L170.139 176.725Z" fill="#626262"/>
<path d="M92.1158 114.83L93.538 130.475H128.667V114.83H92.1158Z" fill="#EBEBEB"/>
<path d="M128.653 83.0579H89.2856L90.7078 98.7023H128.653V83.0579Z" fill="#EBEBEB"/>
<path d="M128.653 171.933V155.605H128.525L111.102 150.898L110.036 138.382H94.2207L96.4109 163.029L128.525 171.961L128.653 171.933Z" fill="#EBEBEB"/>
<path d="M147.924 130.532L146.103 150.884L128.596 155.62V171.947L160.781 163.029L161.022 160.384L164.706 119.04L165.09 114.773L167.934 83.001H128.596V98.6454H150.711L149.289 114.717H128.596V130.361L147.924 130.532Z" fill="white"/>
</g>
<defs>
<clipPath id="clip0_303_17211">
<rect width="125.397" height="142.222" fill="white" transform="translate(65.9469 56.8889)"/>
</clipPath>
</defs>
</svg>
