<svg width="257" height="257" viewBox="0 0 257 257" fill="none" xmlns="http://www.w3.org/2000/svg">
<rect x="0.537109" y="0.985107" width="255" height="255" rx="31.5" fill="white"/>
<rect x="0.537109" y="0.985107" width="255" height="255" rx="31.5" stroke="#878787"/>
<g clip-path="url(#clip0_303_17156)">
<path fill-rule="evenodd" clip-rule="evenodd" d="M128.465 199.019V171.457C157.635 171.457 180.277 142.528 169.084 111.823C167.022 106.179 163.751 101.054 159.501 96.8068C155.251 92.5593 150.124 89.2916 144.479 87.2325C113.774 76.1249 84.8315 98.6814 84.8315 127.908H57.3541C57.3541 81.3587 102.325 45.092 151.079 60.324C161.61 63.6458 171.188 69.4531 179.002 77.2555C186.817 85.0578 192.64 94.6262 195.978 105.152C211.196 154.048 175.015 199.019 128.465 199.019Z" fill="#686868"/>
<path fill-rule="evenodd" clip-rule="evenodd" d="M101.116 171.542H128.465V144.136H101.116V171.542ZM79.9958 192.648H101.116V171.542H79.9958V192.648ZM62.3461 171.542H79.9958V153.892H62.3461V171.542Z" fill="#686868"/>
</g>
<defs>
<clipPath id="clip0_303_17156">
<rect width="142.151" height="142.222" fill="white" transform="translate(57.3541 56.7969)"/>
</clipPath>
</defs>
</svg>
