<svg width="257" height="257" viewBox="0 0 257 257" fill="none" xmlns="http://www.w3.org/2000/svg">
<rect x="0.813354" y="0.797119" width="255" height="255" rx="31.5" fill="white"/>
<rect x="0.813354" y="0.797119" width="255" height="255" rx="31.5" stroke="#878787"/>
<g clip-path="url(#clip0_303_17169)">
<path d="M123.272 56.751H146.511V163.275C136.588 165.307 126.489 166.356 116.36 166.404C87.9727 166.376 73.1958 153.704 73.1958 129.284C73.1958 105.818 88.8402 90.5856 113.16 90.5856C116.57 90.5227 119.971 90.9246 123.272 91.7803V56.751ZM124.083 111.023C121.556 110.19 118.907 109.791 116.246 109.843C104.485 109.843 97.7576 116.954 97.7576 129.583C97.7576 141.814 104.243 148.57 116.147 148.57C118.822 148.568 121.493 148.373 124.14 147.987V111.009L124.083 111.023Z" fill="#7E7E7E"/>
<path d="M184.513 93.5012V146.835C184.513 165.21 183.091 174.042 179.094 181.651C175.326 188.975 170.362 193.597 160.108 198.717L138.618 188.534C148.872 183.755 153.836 179.546 157.007 173.117C160.179 166.689 161.374 158.923 161.374 138.899V93.5012H184.513ZM158.956 56.751H182.195V80.3599H158.956V56.751Z" fill="#7E7E7E"/>
</g>
<defs>
<clipPath id="clip0_303_17169">
<rect width="111.317" height="141.938" fill="white" transform="translate(73.1958 56.751)"/>
</clipPath>
</defs>
</svg>
