<svg width="257" height="257" viewBox="0 0 257 257" fill="none" xmlns="http://www.w3.org/2000/svg">
<rect x="1.05225" y="0.985107" width="255" height="255" rx="31.5" fill="white"/>
<rect x="1.05225" y="0.985107" width="255" height="255" rx="31.5" stroke="#878787"/>
<g clip-path="url(#clip0_303_17212)">
<path d="M197.997 115.407C197.613 115.094 194.015 112.377 186.42 112.377C184.414 112.391 182.412 112.562 180.432 112.889C179.904 109.782 178.725 106.821 176.973 104.201C175.22 101.581 172.934 99.3605 170.263 97.6857L168.23 96.5052L166.893 98.4537C165.196 101.065 163.969 103.953 163.266 106.987C162.562 109.639 162.41 112.408 162.821 115.122C163.232 117.835 164.197 120.435 165.655 122.759C162.404 124.237 158.898 125.077 155.33 125.234H61.6484C60.4822 125.241 59.3647 125.703 58.5335 126.521C57.7022 127.339 57.2227 128.449 57.1968 129.615C57.098 137.819 58.4907 145.972 61.307 153.679C64.5355 162.212 69.3284 168.384 75.5293 172.167C82.5266 176.434 93.8901 178.909 106.818 178.909C112.643 178.924 118.457 178.395 124.183 177.33C132.142 175.868 139.8 173.085 146.839 169.095C152.648 165.769 157.878 161.524 162.327 156.523C169.751 148.132 174.175 138.774 177.46 130.454H178.768C181.681 130.567 184.587 130.098 187.315 129.072C190.043 128.046 192.539 126.485 194.655 124.48C196.482 122.736 197.908 120.615 198.836 118.265L199.419 116.573L197.997 115.407Z" fill="#7D7D7D"/>
<path d="M70.3381 122.39H82.8821C83.0271 122.39 83.1707 122.361 83.3045 122.305C83.4383 122.249 83.5597 122.167 83.6616 122.064C83.7634 121.961 83.8438 121.838 83.898 121.704C83.9522 121.569 83.9791 121.425 83.9772 121.28V110.159C83.9791 110.016 83.9526 109.873 83.8991 109.741C83.8456 109.608 83.7663 109.487 83.6657 109.385C83.5652 109.283 83.4454 109.202 83.3133 109.147C83.1812 109.092 83.0395 109.064 82.8963 109.064H70.3381C70.1938 109.062 70.0505 109.089 69.9168 109.143C69.7831 109.197 69.6616 109.278 69.5595 109.38C69.4574 109.482 69.3768 109.604 69.3225 109.737C69.2681 109.871 69.2411 110.014 69.243 110.159V121.337C69.2411 121.482 69.2681 121.626 69.3223 121.761C69.3764 121.895 69.4568 122.018 69.5587 122.121C69.6606 122.224 69.7819 122.306 69.9157 122.362C70.0495 122.418 70.1931 122.447 70.3381 122.447V122.39Z" fill="#7D7D7D"/>
<path d="M87.6323 122.39H100.191C100.482 122.386 100.761 122.268 100.966 122.06C101.171 121.852 101.286 121.572 101.286 121.28V110.159C101.286 109.868 101.17 109.59 100.965 109.384C100.76 109.179 100.481 109.064 100.191 109.064H87.6323C87.4873 109.062 87.3434 109.089 87.2089 109.143C87.0744 109.197 86.952 109.277 86.8488 109.379C86.7456 109.481 86.6636 109.602 86.6077 109.736C86.5518 109.87 86.523 110.014 86.523 110.159V121.337C86.5267 121.63 86.6448 121.91 86.852 122.118C87.0592 122.325 87.3393 122.443 87.6323 122.447" fill="#7D7D7D"/>
<path d="M105.197 122.39H117.755C118.047 122.386 118.325 122.268 118.53 122.06C118.735 121.852 118.85 121.572 118.85 121.28V110.159C118.85 110.015 118.822 109.872 118.767 109.74C118.712 109.607 118.631 109.486 118.529 109.384C118.428 109.283 118.307 109.202 118.174 109.147C118.041 109.092 117.899 109.064 117.755 109.064H105.197C105.052 109.062 104.909 109.089 104.775 109.143C104.642 109.197 104.52 109.278 104.418 109.38C104.316 109.482 104.236 109.604 104.181 109.737C104.127 109.871 104.1 110.014 104.102 110.159V121.337C104.1 121.482 104.127 121.626 104.181 121.761C104.235 121.895 104.316 122.018 104.417 122.121C104.519 122.224 104.641 122.306 104.774 122.362C104.908 122.418 105.052 122.447 105.197 122.447V122.39Z" fill="#7D7D7D"/>
<path d="M122.619 122.39H135.177C135.322 122.39 135.466 122.361 135.6 122.305C135.733 122.249 135.855 122.167 135.957 122.064C136.059 121.961 136.139 121.838 136.193 121.704C136.247 121.569 136.274 121.425 136.272 121.28V110.159C136.274 110.014 136.247 109.871 136.193 109.737C136.139 109.604 136.058 109.482 135.956 109.38C135.854 109.278 135.732 109.197 135.599 109.143C135.465 109.089 135.322 109.062 135.177 109.064H122.619C122.329 109.064 122.05 109.179 121.845 109.384C121.639 109.59 121.524 109.868 121.524 110.159V121.337C121.538 121.619 121.66 121.885 121.863 122.08C122.067 122.276 122.337 122.387 122.619 122.39Z" fill="#7D7D7D"/>
<path d="M87.6324 106.347H100.191C100.469 106.348 100.737 106.242 100.941 106.052C101.144 105.862 101.268 105.601 101.286 105.323V94.0734C101.286 93.7829 101.17 93.5044 100.965 93.299C100.76 93.0936 100.481 92.9782 100.191 92.9782H87.6324C87.488 92.9763 87.3448 93.0034 87.211 93.0577C87.0773 93.1121 86.9558 93.1927 86.8538 93.2947C86.7517 93.3968 86.6711 93.5183 86.6167 93.652C86.5624 93.7858 86.5354 93.929 86.5373 94.0734V105.323C86.5519 105.602 86.6742 105.865 86.8784 106.056C87.0826 106.247 87.3528 106.351 87.6324 106.347Z" fill="#7D7D7D"/>
<path d="M105.197 106.347H117.755C117.899 106.347 118.041 106.319 118.174 106.264C118.307 106.209 118.428 106.128 118.529 106.026C118.631 105.925 118.712 105.804 118.767 105.671C118.822 105.538 118.85 105.396 118.85 105.252V94.0734C118.85 93.9295 118.822 93.7871 118.767 93.6543C118.712 93.5214 118.631 93.4007 118.529 93.299C118.428 93.1973 118.307 93.1166 118.174 93.0616C118.041 93.0066 117.899 92.9782 117.755 92.9782H105.197C105.052 92.9763 104.909 93.0034 104.775 93.0577C104.642 93.1121 104.52 93.1927 104.418 93.2947C104.316 93.3968 104.236 93.5183 104.181 93.652C104.127 93.7858 104.1 93.929 104.102 94.0734V105.323C104.116 105.602 104.239 105.865 104.443 106.056C104.647 106.247 104.917 106.351 105.197 106.347Z" fill="#7D7D7D"/>
<path d="M122.619 106.347H135.177C135.322 106.349 135.465 106.322 135.599 106.268C135.732 106.213 135.854 106.133 135.956 106.031C136.058 105.929 136.139 105.807 136.193 105.673C136.247 105.54 136.274 105.396 136.272 105.252V94.0734C136.274 93.929 136.247 93.7858 136.193 93.652C136.139 93.5183 136.058 93.3968 135.956 93.2947C135.854 93.1927 135.732 93.1121 135.599 93.0577C135.465 93.0034 135.322 92.9763 135.177 92.9782H122.619C122.329 92.9782 122.05 93.0936 121.845 93.299C121.639 93.5044 121.524 93.7829 121.524 94.0734V105.323C121.542 105.601 121.665 105.862 121.869 106.052C122.072 106.242 122.341 106.348 122.619 106.347Z" fill="#7D7D7D"/>
<path d="M122.619 90.2617H135.177C135.468 90.2617 135.746 90.1464 135.952 89.941C136.157 89.7356 136.272 89.4571 136.272 89.1666V77.9737C136.275 77.8231 136.246 77.6737 136.187 77.5349C136.128 77.3962 136.041 77.2713 135.932 77.1682C135.822 77.0651 135.692 76.9861 135.549 76.9362C135.407 76.8863 135.256 76.8667 135.106 76.8786H122.619C122.329 76.8786 122.05 76.994 121.845 77.1994C121.639 77.4048 121.524 77.6833 121.524 77.9737V89.1666C121.528 89.4559 121.644 89.7323 121.849 89.9369C122.053 90.1415 122.33 90.2581 122.619 90.2617Z" fill="#7D7D7D"/>
<path d="M140.055 122.39H152.614C152.759 122.39 152.902 122.361 153.036 122.305C153.17 122.249 153.291 122.167 153.393 122.064C153.495 121.961 153.575 121.838 153.63 121.704C153.684 121.569 153.711 121.425 153.709 121.28V110.159C153.711 110.014 153.684 109.871 153.629 109.737C153.575 109.604 153.494 109.482 153.392 109.38C153.29 109.278 153.169 109.197 153.035 109.143C152.901 109.089 152.758 109.062 152.614 109.064H140.055C139.912 109.064 139.769 109.092 139.636 109.147C139.504 109.202 139.383 109.283 139.281 109.384C139.179 109.486 139.099 109.607 139.044 109.74C138.989 109.872 138.96 110.015 138.96 110.159V121.337C138.96 121.629 139.075 121.909 139.28 122.117C139.485 122.324 139.764 122.443 140.055 122.447" fill="#7D7D7D"/>
</g>
<defs>
<clipPath id="clip0_303_17212">
<rect width="142.222" height="102.059" fill="white" transform="translate(57.1968 76.8787)"/>
</clipPath>
</defs>
</svg>
