<svg width="257" height="256" viewBox="0 0 257 256" fill="none" xmlns="http://www.w3.org/2000/svg">
<rect x="1.08948" y="0.5" width="255" height="255" rx="31.5" fill="white"/>
<rect x="1.08948" y="0.5" width="255" height="255" rx="31.5" stroke="#878787"/>
<g clip-path="url(#clip0_303_17137)">
<path d="M185.352 162.154C183.456 163.147 181.499 164.021 179.493 164.77C173.126 167.154 166.38 168.369 159.582 168.354C133.299 168.354 110.401 150.278 110.401 127.11C110.433 123.995 111.297 120.946 112.904 118.278C114.523 115.6 116.825 113.4 119.575 111.906C95.7951 112.902 89.708 137.677 89.708 152.198C89.708 193.229 127.539 197.396 135.688 197.396C140.74 197.191 145.744 196.34 150.579 194.865L151.319 194.623C166.617 189.323 179.658 178.976 188.296 165.282C188.569 164.861 188.689 164.359 188.638 163.86C188.58 163.368 188.371 162.906 188.04 162.538C187.695 162.185 187.247 161.951 186.76 161.869C186.271 161.796 185.771 161.886 185.338 162.125L185.352 162.154Z" fill="url(#paint0_linear_303_17137)"/>
<path opacity="0.35" d="M185.352 162.154C183.456 163.147 181.499 164.021 179.493 164.77C173.126 167.154 166.38 168.369 159.582 168.354C133.299 168.354 110.401 150.278 110.401 127.11C110.433 123.995 111.297 120.946 112.904 118.278C114.523 115.6 116.825 113.4 119.575 111.906C95.7951 112.902 89.708 137.677 89.708 152.198C89.708 193.229 127.539 197.396 135.688 197.396C140.74 197.191 145.744 196.34 150.579 194.865L151.319 194.623C166.617 189.323 179.658 178.976 188.296 165.282C188.569 164.861 188.689 164.359 188.638 163.86C188.58 163.368 188.371 162.906 188.04 162.538C187.695 162.185 187.247 161.951 186.76 161.869C186.271 161.796 185.771 161.886 185.338 162.125L185.352 162.154Z" fill="url(#paint1_radial_303_17137)"/>
<path d="M115.735 190.413C110.78 187.361 106.482 183.353 103.091 178.623C99.2301 173.332 96.5747 167.26 95.3113 160.833C94.048 154.406 94.2074 147.78 95.7785 141.422C97.3495 135.063 100.294 129.125 104.405 124.026C108.516 118.927 113.694 114.79 119.575 111.906C122.201 110.496 125.127 109.735 128.108 109.688C132.788 109.706 137.276 111.555 140.609 114.841C143.943 118.127 145.857 122.587 145.943 127.266C145.943 127.153 159.525 83.0496 101.498 83.0496C77.1071 83.0496 56.9969 106.189 56.9969 126.498C56.927 137.241 59.2441 147.865 63.7809 157.602C71.1782 173.38 84.1113 185.893 100.125 192.764C116.139 199.636 134.118 200.388 150.65 194.879C144.862 196.704 138.747 197.252 132.727 196.486C126.707 195.72 120.924 193.658 115.777 190.442L115.735 190.413Z" fill="url(#paint2_linear_303_17137)"/>
<path opacity="0.41" d="M115.735 190.413C110.78 187.361 106.482 183.353 103.091 178.623C99.2301 173.332 96.5747 167.26 95.3113 160.833C94.048 154.406 94.2074 147.78 95.7785 141.422C97.3495 135.063 100.294 129.125 104.405 124.026C108.516 118.927 113.694 114.79 119.575 111.906C122.201 110.496 125.127 109.735 128.108 109.688C132.788 109.706 137.276 111.555 140.609 114.841C143.943 118.127 145.857 122.587 145.943 127.266C145.943 127.153 159.525 83.0496 101.498 83.0496C77.1071 83.0496 56.9969 106.189 56.9969 126.498C56.927 137.241 59.2441 147.865 63.7809 157.602C71.1782 173.38 84.1113 185.893 100.125 192.764C116.139 199.636 134.118 200.388 150.65 194.879C144.862 196.704 138.747 197.252 132.727 196.486C126.707 195.72 120.924 193.658 115.777 190.442L115.735 190.413Z" fill="url(#paint3_radial_303_17137)"/>
<path d="M141.619 139C141.164 139.583 139.784 140.422 139.784 142.143C139.863 142.975 140.142 143.776 140.598 144.477C141.054 145.178 141.673 145.758 142.401 146.168C150.394 151.714 165.456 150.989 165.484 150.989C171.406 150.973 177.215 149.372 182.309 146.353C187.443 143.352 191.704 139.063 194.67 133.909C197.636 128.755 199.204 122.916 199.219 116.97C199.271 108.428 197.095 100.021 192.904 92.5784C181.143 69.5527 155.728 56.3118 128.108 56.3118C109.422 56.3099 91.4858 63.6632 78.1786 76.7815C64.8713 89.8998 57.2623 107.729 56.9969 126.413C57.2672 106.09 77.4343 89.7198 101.441 89.7198C109.539 89.809 117.512 91.7244 124.766 95.3233C131.973 98.897 137.942 104.55 141.904 111.551C144.541 116.616 145.926 122.239 145.943 127.949C145.661 131.977 144.175 135.828 141.676 139H141.619Z" fill="url(#paint4_radial_303_17137)"/>
<path d="M141.619 139C141.164 139.583 139.784 140.422 139.784 142.143C139.863 142.975 140.142 143.776 140.598 144.477C141.054 145.178 141.673 145.758 142.401 146.168C150.394 151.714 165.456 150.989 165.484 150.989C171.406 150.973 177.215 149.372 182.309 146.353C187.443 143.352 191.704 139.063 194.67 133.909C197.636 128.755 199.204 122.916 199.219 116.97C199.271 108.428 197.095 100.021 192.904 92.5784C181.143 69.5527 155.728 56.3118 128.108 56.3118C109.422 56.3099 91.4858 63.6632 78.1786 76.7815C64.8713 89.8998 57.2623 107.729 56.9969 126.413C57.2672 106.09 77.4343 89.7198 101.441 89.7198C109.539 89.809 117.512 91.7244 124.766 95.3233C131.973 98.897 137.942 104.55 141.904 111.551C144.541 116.616 145.926 122.239 145.943 127.949C145.661 131.977 144.175 135.828 141.676 139H141.619Z" fill="url(#paint5_radial_303_17137)"/>
</g>
<defs>
<linearGradient id="paint0_linear_303_17137" x1="89.6085" y1="154.644" x2="188.652" y2="154.644" gradientUnits="userSpaceOnUse">
<stop stop-color="#4A4A4A"/>
<stop offset="1" stop-color="#404040"/>
</linearGradient>
<radialGradient id="paint1_radial_303_17137" cx="0" cy="0" r="1" gradientUnits="userSpaceOnUse" gradientTransform="translate(146.654 156.36) scale(52.9778 50.3324)">
<stop offset="0.72" stop-opacity="0"/>
<stop offset="0.95" stop-opacity="0.53"/>
<stop offset="1"/>
</radialGradient>
<linearGradient id="paint2_linear_303_17137" x1="141.875" y1="111.707" x2="79.9942" y2="179.106" gradientUnits="userSpaceOnUse">
<stop stop-color="#7E7E7E"/>
<stop offset="0.16" stop-color="#777777"/>
<stop offset="0.67" stop-color="#656565"/>
<stop offset="1" stop-color="#5E5E5E"/>
</linearGradient>
<radialGradient id="paint3_radial_303_17137" cx="0" cy="0" r="1" gradientUnits="userSpaceOnUse" gradientTransform="translate(95.4019 168.853) rotate(-81.3868) scale(79.6755 64.3708)">
<stop offset="0.76" stop-opacity="0"/>
<stop offset="0.95" stop-opacity="0.5"/>
<stop offset="1"/>
</radialGradient>
<radialGradient id="paint4_radial_303_17137" cx="0" cy="0" r="1" gradientUnits="userSpaceOnUse" gradientTransform="translate(68.5592 82.4693) rotate(92.2886) scale(112.545 239.68)">
<stop stop-color="#9C9C9C"/>
<stop offset="0.11" stop-color="#9C9C9C"/>
<stop offset="0.23" stop-color="#999999"/>
<stop offset="0.31" stop-color="#979797"/>
<stop offset="0.67" stop-color="#8F8F8F"/>
</radialGradient>
<radialGradient id="paint5_radial_303_17137" cx="0" cy="0" r="1" gradientUnits="userSpaceOnUse" gradientTransform="translate(186.803 95.0884) rotate(73.7338) scale(54.0757 43.9717)">
<stop stop-color="#B5B5B5"/>
<stop offset="1" stop-color="#B5B5B5" stop-opacity="0"/>
</radialGradient>
<clipPath id="clip0_303_17137">
<rect width="142.208" height="142.222" fill="white" transform="translate(56.9969 56.3118)"/>
</clipPath>
</defs>
</svg>
