<svg width="257" height="257" viewBox="0 0 257 257" fill="none" xmlns="http://www.w3.org/2000/svg">
<rect x="0.880615" y="1.28223" width="255" height="255" rx="31.5" fill="white"/>
<rect x="0.880615" y="1.28223" width="255" height="255" rx="31.5" stroke="#878787"/>
<g clip-path="url(#clip0_303_17214)">
<path d="M109.466 87.6575C90.878 84.2726 76.1865 87.8282 70.2843 97.9686C66.0176 105.535 67.198 115.576 73.3563 126.299C73.4736 126.518 73.6389 126.708 73.8398 126.854C74.039 127.009 74.2658 127.125 74.5083 127.195C74.7523 127.245 75.0038 127.245 75.2478 127.195C75.4967 127.163 75.7376 127.086 75.9589 126.968C76.1764 126.842 76.3666 126.674 76.518 126.474C76.6695 126.274 76.7792 126.045 76.8407 125.802C76.9078 125.564 76.926 125.316 76.8942 125.071C76.8624 124.827 76.7813 124.591 76.6558 124.379C71.1234 114.708 70.0425 106.047 73.6265 99.846C78.4905 91.4122 91.6034 88.2548 108.784 91.3837C109.088 91.4547 109.404 91.4547 109.708 91.3837C110.012 91.2891 110.286 91.1177 110.505 90.886C110.73 90.6621 110.892 90.3823 110.974 90.0753C111.052 89.7721 111.052 89.454 110.974 89.1508C110.882 88.7886 110.686 88.4611 110.411 88.2085C110.136 87.9559 109.793 87.7891 109.424 87.7286L109.466 87.6575ZM83.0843 139.341C91.3727 148.217 100.964 155.78 111.529 161.77C138.551 177.414 167.194 181.496 181.331 171.853C181.742 171.566 182.022 171.128 182.11 170.635C182.198 170.141 182.087 169.633 181.801 169.222C181.521 168.808 181.088 168.522 180.598 168.426C180.108 168.331 179.599 168.432 179.184 168.71C166.526 177.343 139.262 173.389 113.434 158.47C103.184 152.674 93.8797 145.345 85.8434 136.738C85.5889 136.456 85.2579 136.253 84.8905 136.155C84.5235 136.049 84.1339 136.049 83.7669 136.155C83.468 136.259 83.1993 136.435 82.9847 136.667C82.782 136.907 82.6362 137.189 82.558 137.492C82.4798 137.8 82.4798 138.123 82.558 138.431C82.6405 138.739 82.7967 139.022 83.0131 139.256L83.0843 139.341Z" fill="#A2A2A2"/>
<path d="M176.723 137.023C188.898 122.644 193.15 108.18 187.305 98.054C183.038 90.6158 173.907 86.6763 161.818 86.5198C161.557 86.5091 161.296 86.5514 161.052 86.6443C160.808 86.7372 160.584 86.8787 160.396 87.0603C160.062 87.4189 159.878 87.8926 159.884 88.3829C159.873 88.7605 159.978 89.1325 160.183 89.4496C160.39 89.7667 160.687 90.0144 161.036 90.1607C161.264 90.2629 161.512 90.3162 161.762 90.3172C172.627 90.4594 180.464 93.8443 183.991 99.9456C188.841 108.365 185.043 121.279 173.808 134.548C173.637 134.738 173.506 134.961 173.424 135.202C173.338 135.439 173.309 135.692 173.338 135.942C173.354 136.195 173.422 136.442 173.538 136.667C173.649 136.894 173.809 137.093 174.007 137.25C174.194 137.422 174.418 137.549 174.661 137.62C174.906 137.691 175.161 137.72 175.415 137.706C175.665 137.68 175.907 137.602 176.126 137.478C176.353 137.367 176.552 137.206 176.709 137.009L176.723 137.023ZM145.434 88.2976C133.51 91.0179 122.074 95.5557 111.529 101.752C83.6958 117.823 65.5483 141.574 68.0656 158.641C68.0942 158.892 68.1767 159.135 68.3074 159.352C68.434 159.573 68.6032 159.766 68.8052 159.921C69.0051 160.08 69.2385 160.192 69.4878 160.248C69.7311 160.304 69.9841 160.304 70.2274 160.248C70.4815 160.221 70.7254 160.133 70.9385 159.992C71.1617 159.868 71.352 159.692 71.4931 159.48C71.7887 159.069 71.9112 158.558 71.8345 158.058C69.5589 142.897 86.7678 120.44 113.392 105.066C123.608 99.057 134.689 94.6581 146.245 92.0238C146.725 91.9064 147.138 91.605 147.397 91.1847C147.667 90.7632 147.759 90.2518 147.653 89.7625C147.544 89.2798 147.254 88.8573 146.842 88.582C146.434 88.3066 145.933 88.2043 145.449 88.2976H145.434Z" fill="#A2A2A2"/>
<path d="M100.364 170.616C106.722 188.379 117.132 199.316 128.837 199.316C137.37 199.316 145.278 193.499 151.436 183.259C151.568 183.04 151.659 182.799 151.706 182.548C151.756 182.299 151.756 182.043 151.706 181.795C151.636 181.481 151.484 181.192 151.266 180.955C151.056 180.714 150.786 180.533 150.483 180.429C150.184 180.316 149.86 180.287 149.545 180.344C149.228 180.389 148.929 180.516 148.677 180.714C148.478 180.872 148.31 181.064 148.179 181.283C142.647 190.499 135.849 195.505 128.851 195.505C119.138 195.505 109.85 185.748 103.962 169.322C103.882 169.082 103.756 168.86 103.593 168.667C103.423 168.481 103.22 168.326 102.995 168.212C102.539 168.029 102.029 168.029 101.573 168.212C101.336 168.295 101.118 168.426 100.933 168.596C100.742 168.767 100.587 168.975 100.478 169.208C100.38 169.438 100.322 169.683 100.307 169.933C100.307 170.19 100.351 170.445 100.435 170.687L100.364 170.616ZM158.462 167.131C161.908 155.68 163.614 143.776 163.525 131.818C163.525 100.244 152.474 73.0229 136.745 66.0398C136.517 65.9441 136.272 65.8943 136.025 65.8933C135.778 65.8923 135.533 65.9401 135.305 66.0339C135.076 66.1277 134.868 66.2657 134.693 66.44C134.518 66.6143 134.379 66.8215 134.284 67.0496C134.104 67.5065 134.104 68.015 134.284 68.4718C134.368 68.7043 134.499 68.9174 134.667 69.0983C134.836 69.2791 135.04 69.424 135.266 69.5243C149.303 75.7678 159.785 101.595 159.785 131.832C159.869 143.389 158.225 154.894 154.906 165.965C154.824 166.207 154.79 166.464 154.807 166.719C154.822 166.972 154.89 167.219 155.006 167.444C155.178 167.788 155.451 168.071 155.788 168.255C156.124 168.435 156.504 168.514 156.883 168.483C157.267 168.447 157.63 168.293 157.922 168.042C158.22 167.801 158.434 167.473 158.533 167.103L158.462 167.131ZM194.359 165.268C194.375 163.758 194.017 162.267 193.316 160.929C192.614 159.591 191.592 158.449 190.341 157.603C189.089 156.757 187.647 156.235 186.145 156.084C184.642 155.932 183.125 156.156 181.73 156.735C180.619 157.192 179.613 157.87 178.771 158.726C177.922 159.576 177.25 160.586 176.794 161.699C176.343 162.815 176.111 164.007 176.112 165.211C176.205 167.569 177.207 169.799 178.908 171.434C180.609 173.069 182.876 173.982 185.235 173.982C187.595 173.982 189.862 173.069 191.563 171.434C193.264 169.799 194.266 167.569 194.359 165.211V165.268ZM190.547 165.268C190.547 166.273 190.261 167.257 189.723 168.105C189.185 168.954 188.418 169.632 187.509 170.061C186.601 170.491 185.59 170.653 184.592 170.53C183.595 170.407 182.654 170.003 181.877 169.366C181.101 168.729 180.521 167.884 180.206 166.93C179.89 165.976 179.852 164.953 180.096 163.978C180.34 163.003 180.855 162.118 181.583 161.425C182.31 160.732 183.219 160.26 184.204 160.063C185.236 159.863 186.303 159.966 187.276 160.362C188.242 160.769 189.068 161.451 189.649 162.323C190.231 163.196 190.543 164.22 190.547 165.268ZM72.2896 174.385C73.4883 174.392 74.6768 174.165 75.7883 173.716C76.9168 173.254 77.9454 172.578 78.8176 171.725C79.6626 170.872 80.3339 169.862 80.7945 168.753C81.4908 167.085 81.6746 165.247 81.3225 163.474C80.9704 161.701 80.0984 160.073 78.8176 158.797C77.9696 157.948 76.965 157.272 75.8594 156.806C74.7489 156.352 73.5603 156.12 72.3607 156.123C71.1575 156.127 69.9674 156.373 68.862 156.849C67.7451 157.301 66.7288 157.969 65.872 158.817C65.0151 159.664 64.3347 160.672 63.87 161.784C63.1795 163.453 62.9987 165.289 63.3505 167.061C63.7023 168.833 64.571 170.461 65.8469 171.739C66.7134 172.589 67.7377 173.26 68.862 173.716C69.9679 174.169 71.1516 174.401 72.3465 174.399L72.2896 174.385ZM72.2896 170.573C71.0586 170.573 69.8658 170.146 68.9145 169.364C67.9633 168.583 67.3125 167.496 67.0732 166.288C66.8339 165.081 67.0208 163.828 67.6021 162.742C68.1833 161.657 69.123 160.807 70.2609 160.338C71.3987 159.868 72.6643 159.807 73.8418 160.166C75.0193 160.525 76.0359 161.281 76.7182 162.306C77.4005 163.331 77.7062 164.56 77.5833 165.785C77.4605 167.01 76.9165 168.154 76.0443 169.023C75.5509 169.515 74.9654 169.906 74.3212 170.172C73.6769 170.438 72.9866 170.574 72.2896 170.573Z" fill="#A2A2A2"/>
<path d="M128.837 75.3411C130.65 75.3403 132.42 74.7984 133.923 73.7849C135.426 72.7714 136.591 71.3324 137.271 69.6522C137.836 68.2682 138.053 66.767 137.905 65.2795C137.756 63.7921 137.245 62.3636 136.418 61.1189C135.586 59.8779 134.457 58.8656 133.132 58.1749C131.821 57.4682 130.355 57.0969 128.866 57.094C127.056 57.0977 125.288 57.6409 123.788 58.6542C122.288 59.6675 121.125 61.105 120.446 62.7829C119.749 64.4449 119.565 66.2779 119.92 68.0451C120.331 70.116 121.447 71.9804 123.078 73.3211C124.709 74.6617 126.754 75.3956 128.866 75.398L128.837 75.3411ZM128.837 71.5295C127.789 71.53 126.764 71.2181 125.893 70.6336C125.019 70.0465 124.337 69.2157 123.93 68.2442C123.67 67.5976 123.535 66.9075 123.532 66.2104C123.54 65.5231 123.675 64.8432 123.93 64.2051C124.471 62.922 125.492 61.9012 126.775 61.3607C127.506 61.0649 128.291 60.9291 129.079 60.9624C129.862 61.0055 130.626 61.2203 131.316 61.5914C132.007 61.9625 132.607 62.481 133.075 63.11C133.55 63.7384 133.871 64.4689 134.014 65.2433C134.192 66.0058 134.192 66.799 134.014 67.5616C133.832 68.3242 133.477 69.0347 132.976 69.638C132.476 70.2414 131.85 70.727 131.141 71.0602C130.43 71.399 129.653 71.5739 128.866 71.5722L128.837 71.5295ZM130.259 138.26C129.199 138.491 128.099 138.457 127.055 138.16C126.012 137.863 125.058 137.313 124.278 136.559C123.498 135.805 122.917 134.869 122.586 133.836C122.255 132.803 122.184 131.704 122.38 130.637C122.61 129.356 123.213 128.172 124.114 127.233C125.015 126.295 126.173 125.643 127.443 125.361C129.154 124.983 130.944 125.301 132.421 126.244C133.897 127.187 134.938 128.678 135.315 130.388C135.693 132.099 135.375 133.889 134.432 135.365C133.489 136.842 131.998 137.883 130.288 138.26H130.259Z" fill="#A2A2A2"/>
</g>
<defs>
<clipPath id="clip0_303_17214">
<rect width="131.2" height="142.222" fill="white" transform="translate(63.1731 57.094)"/>
</clipPath>
</defs>
</svg>
