<svg width="257" height="257" viewBox="0 0 257 257" fill="none" xmlns="http://www.w3.org/2000/svg">
<rect x="1.36548" y="1.39111" width="255" height="255" rx="31.5" fill="white"/>
<rect x="1.36548" y="1.39111" width="255" height="255" rx="31.5" stroke="#878787"/>
<g clip-path="url(#clip0_303_17173)">
<path d="M176.328 119.311L128.769 146.689V164.054L176.328 136.677V119.311ZM172.062 85.8749L128.769 110.821V128.2L185.089 95.802H172.147L172.062 85.8749ZM129.068 57.2029L67.3436 92.5024L67.0449 163.614L128.471 199.425L190.195 164.126L190.494 93.0144L129.068 57.2029ZM129.495 74.0704L175.845 101.093L175.617 154.739L129.04 181.363L82.6894 154.341L82.9169 100.694L129.495 74.0704Z" fill="#8C8C8C"/>
</g>
<defs>
<clipPath id="clip0_303_17173">
<rect width="123.449" height="142.222" fill="white" transform="translate(67.0449 57.2029)"/>
</clipPath>
</defs>
</svg>
