<svg width="257" height="257" viewBox="0 0 257 257" fill="none" xmlns="http://www.w3.org/2000/svg">
<rect x="1.32837" y="1.28223" width="255" height="255" rx="31.5" fill="white"/>
<rect x="1.32837" y="1.28223" width="255" height="255" rx="31.5" stroke="#878787"/>
<g clip-path="url(#clip0_303_17136)">
<mask id="mask0_303_17136" style="mask-type:luminance" maskUnits="userSpaceOnUse" x="58" y="57" width="143" height="143">
<path d="M200.332 57.094H58.1098V199.316H200.332V57.094Z" fill="white"/>
</mask>
<g mask="url(#mask0_303_17136)">
<path d="M129.221 57.094C143.285 57.094 157.034 61.2646 168.728 69.0784C180.422 76.8922 189.537 87.9982 194.919 100.992C200.301 113.986 201.709 128.284 198.966 142.078C196.222 155.872 189.449 168.543 179.504 178.488C169.559 188.433 156.888 195.206 143.094 197.95C129.3 200.694 115.002 199.285 102.008 193.903C89.014 188.521 77.908 179.406 70.0942 167.712C62.2804 156.018 58.1098 142.27 58.1098 128.205C58.1098 109.345 65.6018 91.2579 78.9378 77.922C92.2737 64.586 110.361 57.094 129.221 57.094Z" fill="#818181"/>
<path fill-rule="evenodd" clip-rule="evenodd" d="M130.643 83.9029C139.802 83.718 146.288 86.2069 151.848 94.1145C163.994 124.237 120.56 139.782 118.839 140.394C118.839 140.394 117.53 148.571 129.975 148.258C145.306 148.258 161.42 136.383 167.55 131.362C168.259 130.776 169.163 130.482 170.081 130.538C171.005 130.592 171.873 130.993 172.513 131.661L177.093 136.426C177.744 137.087 178.116 137.973 178.131 138.9C178.148 139.828 177.812 140.727 177.192 141.418C169.542 149.83 160.158 156.483 149.687 160.916C149.687 160.916 126.163 171.81 110.32 161.499C100.876 155.355 98.2734 148.002 97.2209 140.337C97.2209 140.337 85.7578 139.768 78.3765 136.881C70.9951 133.994 78.3765 125.318 78.3765 125.318C78.3765 125.318 80.652 121.72 84.9614 125.318C89.2707 128.916 97.3205 127.281 97.3205 127.281C98.0749 120.038 99.906 112.948 102.753 106.246C110.177 89.6629 121.456 84.1162 130.643 83.9029ZM136.019 100.472C131.169 95.7927 117.146 105.151 116.606 126.527C116.606 126.527 120.744 127.793 129.904 121.492C139.063 115.192 140.869 105.151 136.019 100.472Z" fill="white"/>
</g>
</g>
<defs>
<clipPath id="clip0_303_17136">
<rect width="142.222" height="142.222" fill="white" transform="translate(58.1098 57.094)"/>
</clipPath>
</defs>
</svg>
