<svg width="257" height="256" viewBox="0 0 257 256" fill="none" xmlns="http://www.w3.org/2000/svg">
<rect x="0.984985" y="0.5" width="255" height="255" rx="31.5" fill="white"/>
<rect x="0.984985" y="0.5" width="255" height="255" rx="31.5" stroke="#878787"/>
<g clip-path="url(#clip0_303_17121)">
<path d="M100.044 109.716L127.066 94.1428C127.395 93.9475 127.771 93.8445 128.154 93.8445C128.537 93.8445 128.912 93.9475 129.242 94.1428L156.264 109.787C156.589 109.985 156.863 110.258 157.06 110.584C157.245 110.919 157.343 111.296 157.345 111.679V142.769C157.33 143.147 157.217 143.514 157.018 143.836C156.818 144.157 156.539 144.422 156.207 144.603L129.27 160.248C128.941 160.443 128.565 160.546 128.182 160.546C127.799 160.546 127.424 160.443 127.094 160.248L100.044 144.603C99.718 144.405 99.4449 144.132 99.2471 143.807C99.0622 143.471 98.9644 143.095 98.9626 142.712V111.608C98.9621 111.225 99.0616 110.85 99.2512 110.518C99.4408 110.186 99.714 109.91 100.044 109.716Z" fill="#8D8D8D"/>
<path d="M198.077 124.692L165.807 68.4859C165.243 67.458 164.422 66.5933 163.426 65.9754C162.429 65.3575 161.29 65.0073 160.118 64.9587H95.5778C94.4061 65.0073 93.2669 65.3575 92.2702 65.9754C91.2736 66.5933 90.4534 67.458 89.8889 68.4859L57.6186 124.507C57.0383 125.515 56.7329 126.658 56.7329 127.821C56.7329 128.984 57.0383 130.127 57.6186 131.135L89.8889 186.829C90.4808 187.797 91.3196 188.591 92.3193 189.128C93.319 189.665 94.4435 189.927 95.5778 189.887H160.118C161.251 189.936 162.376 189.681 163.376 189.148C164.377 188.616 165.216 187.825 165.807 186.857L198.077 131.078C198.657 130.103 198.963 128.99 198.963 127.857C198.963 126.723 198.657 125.61 198.077 124.635V124.692ZM171.354 151.714C171.343 152.125 171.225 152.525 171.014 152.876C170.802 153.228 170.502 153.518 170.145 153.72L129.028 177.314C128.676 177.519 128.277 177.627 127.869 177.627C127.462 177.627 127.062 177.519 126.71 177.314L85.5653 153.634C85.206 153.434 84.9046 153.144 84.6903 152.792C84.476 152.441 84.3561 152.04 84.3422 151.629V104.198C84.3533 103.788 84.4705 103.387 84.6823 103.036C84.8942 102.684 85.1935 102.394 85.5511 102.193L126.668 78.4699C127.023 78.2744 127.421 78.1719 127.827 78.1719C128.232 78.1719 128.631 78.2744 128.986 78.4699L170.131 102.193C170.492 102.391 170.795 102.68 171.009 103.032C171.224 103.384 171.343 103.786 171.354 104.198V151.629V151.714Z" fill="#494949"/>
</g>
<defs>
<clipPath id="clip0_303_17121">
<rect width="142.222" height="124.928" fill="white" transform="translate(56.7369 64.9587)"/>
</clipPath>
</defs>
</svg>
