<svg width="257" height="257" viewBox="0 0 257 257" fill="none" xmlns="http://www.w3.org/2000/svg">
<rect x="0.604492" y="0.985107" width="255" height="255" rx="31.5" fill="white"/>
<rect x="0.604492" y="0.985107" width="255" height="255" rx="31.5" stroke="#878787"/>
<g clip-path="url(#clip0_303_17180)">
<path d="M164.144 86.6635C155.327 89.508 151.088 94.8413 148.201 103.033C147.221 105.503 145.595 107.664 143.494 109.291L150.719 117.028L127.807 100.985L64.5888 56.7969C64.5888 56.7969 69.1541 86.4502 70.7328 97.3587C71.8563 105.039 73.7621 108.495 79.8066 111.993L82.2386 113.288L92.6634 118.792L86.4626 115.577L115.049 131.222L114.864 131.648L84.0874 117.426C85.723 123.016 88.8946 133.782 90.2457 138.532C91.6679 143.666 93.3177 145.529 98.2954 147.35L107.469 150.664L113.158 148.431L105.947 153.224L69.851 199.019C93.8297 176.733 114.125 168.811 128.973 162.34C147.917 154.134 159.323 148.857 166.775 129.942C172.08 116.644 176.219 99.6342 181.481 93.0635L192.703 78.6991C192.703 78.6991 169.478 84.8573 164.144 86.6635Z" fill="#252525"/>
</g>
<defs>
<clipPath id="clip0_303_17180">
<rect width="128.114" height="142.222" fill="white" transform="translate(64.5888 56.7969)"/>
</clipPath>
</defs>
</svg>
