<svg width="257" height="256" viewBox="0 0 257 256" fill="none" xmlns="http://www.w3.org/2000/svg">
<rect x="1.32837" y="0.5" width="255" height="255" rx="31.5" fill="white"/>
<rect x="1.32837" y="0.5" width="255" height="255" rx="31.5" stroke="#878787"/>
<g clip-path="url(#clip0_303_17106)">
<path d="M105.276 199.111C111.561 199.107 117.588 196.608 122.031 192.162C126.474 187.716 128.97 181.688 128.97 175.403V151.709H105.276C102.114 151.631 98.9693 152.187 96.0259 153.343C93.0826 154.499 90.4004 156.233 88.137 158.441C85.8737 160.65 84.0751 163.289 82.8471 166.203C81.6191 169.117 80.9865 172.248 80.9865 175.41C80.9865 178.572 81.6191 181.703 82.8471 184.617C84.0751 187.531 85.8737 190.17 88.137 192.378C90.4004 194.587 93.0826 196.32 96.0259 197.477C98.9693 198.633 102.114 199.189 105.276 199.111Z" fill="#8C8C8C"/>
<path d="M81.5671 128C81.5708 121.713 84.0699 115.685 88.5153 111.24C92.9607 106.794 98.9888 104.295 105.276 104.292H128.97V151.708H105.276C98.9888 151.705 92.9607 149.206 88.5153 144.76C84.0699 140.315 81.5708 134.287 81.5671 128Z" fill="#818181"/>
<path d="M81.5671 80.5974C81.5708 74.3106 84.0699 68.2825 88.5153 63.8371C92.9607 59.3917 98.9888 56.8927 105.276 56.8889L128.97 56.8889V104.292H105.276C98.9901 104.292 92.9619 101.796 88.5161 97.3526C84.0704 92.9094 81.5708 86.8828 81.5671 80.5974Z" fill="#7A7A7A"/>
<path d="M128.97 56.8889H152.678C155.84 56.8115 158.984 57.3673 161.928 58.5236C164.871 59.6799 167.553 61.4133 169.817 63.6218C172.08 65.8304 173.879 68.4694 175.107 71.3835C176.335 74.2976 176.967 77.428 176.967 80.5903C176.967 83.7526 176.335 86.8829 175.107 89.7971C173.879 92.7112 172.08 95.3502 169.817 97.5587C167.553 99.7673 164.871 101.501 161.928 102.657C158.984 103.813 155.84 104.369 152.678 104.292H128.97V56.8889Z" fill="#9B9B9B"/>
<path d="M176.387 128C176.387 132.689 174.996 137.273 172.391 141.172C169.786 145.07 166.083 148.109 161.751 149.904C157.419 151.698 152.652 152.168 148.053 151.253C143.454 150.338 139.229 148.08 135.914 144.764C132.598 141.449 130.34 137.224 129.425 132.625C128.51 128.026 128.98 123.259 130.774 118.927C132.569 114.595 135.608 110.892 139.506 108.287C143.405 105.682 147.989 104.292 152.678 104.292C158.965 104.295 164.993 106.794 169.438 111.24C173.884 115.685 176.383 121.713 176.387 128Z" fill="#939393"/>
</g>
<defs>
<clipPath id="clip0_303_17106">
<rect width="94.8195" height="142.222" fill="white" transform="translate(81.5671 56.8889)"/>
</clipPath>
</defs>
</svg>
