<svg width="257" height="257" viewBox="0 0 257 257" fill="none" xmlns="http://www.w3.org/2000/svg">
<rect x="0.537231" y="1.39111" width="255" height="255" rx="31.5" fill="white"/>
<rect x="0.537231" y="1.39111" width="255" height="255" rx="31.5" stroke="#878787"/>
<g clip-path="url(#clip0_303_17108)">
<path d="M144.271 108.581L130.049 121.822L116.836 95.1833L123.663 79.866C125.384 76.8082 128.2 76.7656 129.921 79.866L144.271 108.581Z" fill="#ABABAB"/>
<path d="M130.049 121.822L76.8435 171.301L116.851 95.1833L130.049 121.822Z" fill="#979797"/>
<path d="M159.859 88.3282C162.404 85.8962 165.036 86.7211 165.69 90.1629L179.528 170.632L133.647 198.166C131.76 198.867 129.782 199.288 127.773 199.418C125.939 199.221 124.137 198.791 122.412 198.138L76.8435 171.301L159.859 88.3282Z" fill="#C8C8C8"/>
<path d="M116.851 95.1834L76.8435 171.301L94.664 60.0545C95.3324 56.5843 97.2951 56.2429 99.0586 59.3007L116.851 95.1834Z" fill="#ABABAB"/>
</g>
<defs>
<clipPath id="clip0_303_17108">
<rect width="102.684" height="142.208" fill="white" transform="translate(76.8435 57.2101)"/>
</clipPath>
</defs>
</svg>
