<svg width="257" height="256" viewBox="0 0 257 256" fill="none" xmlns="http://www.w3.org/2000/svg">
<rect x="0.641602" y="0.5" width="255" height="255" rx="31.5" fill="white"/>
<rect x="0.641602" y="0.5" width="255" height="255" rx="31.5" stroke="#878787"/>
<g clip-path="url(#clip0_303_17229)">
<path d="M170.485 69.5383C167.029 73.5774 165.407 82.6512 168.92 91.8388C172.433 101.026 177.809 98.9783 181.166 108.422C185.589 120.781 183.527 137.378 183.527 137.378C183.527 137.378 188.86 152.795 192.558 136.425C200.764 105.677 170.485 77.0903 170.485 69.581V69.5383Z" fill="url(#paint0_radial_303_17229)"/>
<path d="M128.245 197.197C141.012 197.273 153.514 193.557 164.166 186.519C174.819 179.482 183.141 169.44 188.08 157.666C193.018 145.893 194.35 132.918 191.906 120.387C189.462 107.856 183.352 96.3332 174.352 87.2786C165.351 78.2239 153.864 72.0455 141.348 69.5267C128.832 67.0079 115.85 68.2619 104.047 73.13C92.2445 77.998 82.153 86.2608 75.0519 96.8709C67.9508 107.481 64.1598 119.961 64.1596 132.728C64.118 149.772 70.8443 166.136 82.8606 178.225C94.8769 190.313 111.2 197.137 128.245 197.197Z" fill="url(#paint1_radial_303_17229)"/>
<path d="M176.33 172.465C174.941 173.447 173.482 174.327 171.964 175.096C173.97 172.16 175.821 169.122 177.511 165.994C178.844 164.566 180.062 163.035 181.151 161.414C181.635 160.632 182.204 159.679 182.801 158.57C187.509 150.043 190.14 140.527 190.481 130.794C190.481 130.523 190.481 130.253 190.481 129.997C190.499 127.287 190.222 124.583 189.656 121.933C189.656 122.146 189.656 122.346 189.656 122.559L189.571 122.075C189.571 122.374 189.656 122.658 189.713 122.943C190.439 129.186 189.927 135.288 187.295 139.768L187.167 139.967C188.715 132.753 188.817 125.304 187.466 118.05C187.466 118.05 186.94 114.338 182.431 103.245C179.821 97.3321 175.976 92.0462 171.153 87.7429C168.465 84.5164 165.617 81.4264 162.62 78.4843C160.027 76.0179 157.999 73.0195 156.675 69.6949C156.12 69.4105 148.995 62.4985 148.426 62.2283C145.311 67.0496 135.541 82.1394 140.191 96.2194C142.698 102.985 147.227 108.815 153.162 112.916C153.404 113.186 156.476 116.529 157.941 124.066C159.448 131.846 158.652 137.919 155.551 146.907C151.896 154.787 142.524 162.552 133.763 163.363C115.018 165.069 108.163 153.962 108.163 153.962C114.862 156.635 122.271 156.067 126.78 153.293C131.288 150.52 134.062 148.401 136.28 149.226C138.499 150.051 140.22 147.675 138.655 145.215C137.44 143.352 135.705 141.886 133.665 140.999C131.625 140.112 129.37 139.842 127.178 140.223C122.627 140.963 118.474 144.49 112.515 141.076C112.131 140.851 111.761 140.604 111.406 140.337C111.007 140.081 112.671 140.735 112.287 140.436C110.981 139.7 109.73 138.869 108.547 137.947C108.462 137.862 109.457 138.26 109.358 138.175C103.797 133.595 104.494 130.495 104.664 128.561C104.749 127.657 105.053 126.787 105.548 126.027C106.044 125.266 106.716 124.637 107.509 124.194C108.334 124.65 108.846 124.991 108.846 124.991L108.305 123.896H108.504C109.173 124.223 110.666 125.062 111.448 125.574C112 125.94 112.462 126.426 112.799 126.996C112.799 126.996 113.07 126.854 112.871 126.228C112.602 125.463 112.105 124.798 111.448 124.323C112.056 124.67 112.632 125.069 113.169 125.517C113.669 124.221 113.901 122.838 113.852 121.45C113.904 120.694 113.807 119.935 113.567 119.217C113.354 118.762 113.695 118.577 114.065 119.046C113.998 118.681 113.893 118.323 113.752 117.979C114.207 116.358 123.608 112.12 124.291 111.636C125.415 110.84 126.356 109.812 127.05 108.621C127.774 107.43 128.153 106.061 128.145 104.667C128.145 103.387 127.605 102.534 118.104 101.538C117.007 101.385 115.97 100.947 115.094 100.268C114.218 99.5895 113.535 98.6939 113.112 97.6701C112.956 97.2861 112.799 96.9447 112.643 96.6176C112.485 96.2211 112.362 95.8119 112.273 95.3945C113.759 90.98 116.564 87.1278 120.309 84.3581C120.522 84.1732 119.484 84.3581 119.683 84.2301C120.372 83.8479 121.084 83.5107 121.816 83.2203C122.186 83.0354 120.252 82.2247 118.531 82.4238C117.473 82.4812 116.438 82.7522 115.487 83.2203C115.871 82.8363 117.109 82.3385 116.824 82.3385C114.604 82.8176 112.492 83.705 110.595 84.9554C110.595 84.7403 110.639 84.5274 110.723 84.3296C109.157 85.082 107.817 86.235 106.84 87.6718C106.854 87.4113 106.854 87.1502 106.84 86.8896C106.134 87.4816 105.495 88.1493 104.935 88.8807C100.459 86.9261 95.4759 86.4527 90.7123 87.5296C89.8305 86.6478 89.4039 87.2878 87.3985 82.8932C87.4981 83.1634 87.2563 82.6372 87.3985 82.8932C87.5977 84.0309 87.0714 82.0398 87.3985 82.8932C84.0279 85.5527 79.6048 88.5821 77.443 90.6869C79.9177 89.9758 77.443 90.7723 77.443 90.6869C76.5612 90.9287 76.6323 91.4549 76.4901 96.1056C76.4901 96.4612 76.4901 96.8594 76.4901 97.1865C75.2323 98.7202 74.1272 100.373 73.1905 102.122C71.0288 105.947 68.611 111.85 66.2643 121.179C67.2974 118.651 68.544 116.215 69.9905 113.898C68.0421 118.847 66.1648 126.627 65.7239 138.602C66.2014 136.13 66.8091 133.685 67.5443 131.277C67.0971 141.222 68.83 151.143 72.6217 160.347C74.5628 165.198 77.0334 169.82 79.9888 174.129C86.231 180.692 93.7682 185.888 102.123 189.387C110.478 192.886 119.468 194.612 128.525 194.456C137.581 194.299 146.507 192.264 154.736 188.478C162.965 184.693 170.318 179.24 176.33 172.465Z" fill="url(#paint2_linear_303_17229)"/>
<path d="M161.937 181.595C185.475 178.865 195.886 154.573 182.503 154.118C170.414 153.748 150.773 182.89 161.937 181.595Z" fill="url(#paint3_radial_303_17229)"/>
<path d="M184.209 149.169C200.394 139.753 196.185 119.387 196.185 119.387C191.699 125.054 188.168 131.414 185.731 138.217C181.55 149.681 174.524 154.857 184.309 149.169H184.209Z" fill="url(#paint4_radial_303_17229)"/>
<path d="M132.782 193.642C155.367 200.838 174.78 183.046 162.819 177.115C151.939 171.754 122.072 190.228 132.782 193.642Z" fill="url(#paint5_radial_303_17229)"/>
<path d="M185.888 157.816C186.442 157.048 187.182 154.559 187.836 153.449C190.153 149.966 191.534 145.945 191.847 141.773C194.264 129.741 194.037 124.834 192.558 115.746C190.762 107.38 187.02 99.555 181.635 92.9055C176.984 87.7143 180.213 89.4068 175.761 85.6095C171.808 81.229 167.982 76.8912 165.891 75.1419C150.816 62.541 151.157 59.8672 151.441 59.4121L151.228 59.6539C151.057 58.9428 150.929 58.3455 150.929 58.3455C145.449 64.4784 141.975 72.1408 140.974 80.3046C140.085 89.0193 142.637 97.7365 148.085 104.596C150.618 107.689 153.479 110.497 156.618 112.973C160.39 118.501 162.376 125.054 162.307 131.746C162.307 135.919 161.484 140.051 159.885 143.905C158.286 147.76 155.942 151.261 152.989 154.208C150.035 157.155 146.528 159.491 142.671 161.081C138.813 162.672 134.679 163.485 130.506 163.476C128.113 163.483 125.727 163.215 123.395 162.68C117.414 161.722 111.955 158.703 107.964 154.146C107.212 153.273 106.558 152.319 106.016 151.302C113.425 153.961 121.66 153.393 126.609 150.648C131.559 147.903 134.673 145.798 137.134 146.609C139.594 147.419 141.5 145.073 139.765 142.626C138.304 140.718 136.347 139.247 134.107 138.374C131.868 137.501 129.432 137.26 127.064 137.677C122.03 138.402 117.422 141.944 110.837 138.516C110.41 138.289 109.998 138.047 109.6 137.791C109.173 137.535 111.022 138.175 110.581 137.89C109.142 137.169 107.759 136.342 106.442 135.416C106.343 135.416 107.438 135.729 107.338 135.657C101.18 131.106 101.948 128.034 102.147 126.114C102.274 125.196 102.629 124.323 103.181 123.578C103.732 122.832 104.463 122.237 105.304 121.848C106.215 122.303 106.727 122.644 106.727 122.644L106.115 121.549C106.2 121.549 106.272 121.549 106.328 121.549C107.082 121.862 108.732 122.715 109.6 123.213C110.17 123.58 110.655 124.065 111.022 124.635C111.022 124.635 111.32 124.479 111.022 123.867C110.723 123.09 110.185 122.427 109.486 121.976H109.557C110.219 122.317 110.851 122.712 111.448 123.156C111.997 121.888 112.255 120.512 112.202 119.131C112.131 117.709 112.202 117.425 111.904 116.913C111.605 116.401 112.032 116.287 112.444 116.742C112.373 116.377 112.253 116.023 112.088 115.689C112.6 114.082 123.011 109.901 123.765 109.403C124.983 108.64 126.025 107.627 126.823 106.431C127.539 105.313 127.928 104.018 127.946 102.69C127.946 101.894 127.733 101.268 124.974 100.671C122.28 100.155 119.559 99.794 116.824 99.5899C115.654 99.467 114.533 99.049 113.568 98.3748C112.603 97.7007 111.825 96.7927 111.306 95.7357C111.121 95.3659 110.951 95.0246 110.766 94.6975C110.595 94.3068 110.457 93.9024 110.353 93.4886C112.081 88.9778 115.186 85.1261 119.228 82.4806C119.456 82.2957 118.304 82.4806 118.531 82.3526C119.298 81.9699 120.086 81.6327 120.892 81.3428C121.304 81.1721 119.157 80.3615 117.265 80.5606C116.102 80.616 114.96 80.886 113.895 81.357C114.321 80.973 115.687 80.4752 115.317 80.4752C112.89 80.9422 110.562 81.8225 108.433 83.0779C108.432 82.8612 108.481 82.6472 108.576 82.4521C106.892 83.1717 105.423 84.313 104.309 85.7659C104.454 85.4392 104.573 85.1016 104.664 84.7561C103.885 85.3321 103.174 85.9954 102.545 86.733C97.5619 84.8156 92.1355 84.3568 86.9009 85.4103C84.8717 83.5853 83.2527 81.3507 82.1507 78.8539C81.9942 78.5837 81.9231 79.3943 81.8093 79.1241C80.8936 76.7286 80.4494 74.1788 80.5009 71.6148C80.5009 71.6148 78.7231 72.4112 77.2582 75.8103C76.988 76.4219 76.8031 76.7632 76.6324 77.0903C76.6617 76.7373 76.7092 76.386 76.7747 76.0379C76.3038 76.6019 75.8983 77.2174 75.5658 77.8726C75.2717 78.4187 75.0151 78.9841 74.7978 79.565C74.7978 79.3517 74.7978 78.6832 74.7978 78.8255C74.1135 80.2077 73.5196 81.6329 73.02 83.0921C71.915 86.585 71.2882 90.2114 71.1569 93.8726C71.1569 94.2281 71.1569 94.6121 71.1569 94.925C69.732 96.4616 68.4735 98.1444 67.4022 99.9455C64.9702 103.686 62.2822 109.545 59.6938 118.79C60.8443 116.26 62.225 113.842 63.8182 111.565C61.6564 116.472 59.58 124.18 59.1533 136.07C59.6815 133.625 60.3511 131.213 61.1587 128.845C60.6617 138.748 62.5697 148.625 66.7195 157.631C72.2946 170.136 81.5661 180.633 93.2867 187.711C110.012 198.036 98.9755 191.977 108.746 195.121L110.951 195.889L110.268 195.59C116.756 197.533 123.492 198.525 130.264 198.534C155.58 198.534 162.976 188.393 162.976 188.393C163.331 188.066 163.672 187.711 164.014 187.355C160.131 191.167 150.944 191.423 147.53 191.153C153.347 189.432 157.173 187.995 164.597 185.137C165.464 184.824 166.36 184.454 167.271 184.041L167.555 183.899L168.096 183.657C171.723 181.944 175.136 179.81 178.264 177.3C185.731 171.327 187.352 165.51 188.22 161.656C188.106 162.025 187.736 162.879 187.48 163.433C185.56 167.558 181.28 170.089 176.657 172.251C178.863 169.357 180.904 166.342 182.773 163.22C184.28 161.727 184.764 159.38 185.888 157.801V157.816Z" fill="url(#paint6_radial_303_17229)"/>
<path d="M176.785 172.095C179.957 168.645 182.606 164.749 184.65 160.532C189.983 149.311 198.218 130.666 191.761 111.195C186.627 95.8069 179.573 87.3873 170.641 79.1669C156.078 65.8122 152.01 59.8531 152.01 56.3118C152.01 56.3118 135.242 75.014 142.51 94.5269C149.777 114.04 164.696 113.314 174.552 133.681C186.143 157.631 165.151 183.786 147.8 191.096C148.867 190.868 186.385 182.363 188.362 160.916C188.362 161.3 187.466 167.231 176.785 172.095Z" fill="url(#paint7_radial_303_17229)"/>
<path d="M128.174 102.477C128.174 101.197 127.576 100.358 117.095 99.3766C112.828 98.9784 111.136 94.9962 110.638 93.3037C109.039 97.5184 108.412 102.04 108.803 106.53C109.045 109.844 111.264 113.4 112.33 115.49C112.437 115.342 112.551 115.2 112.672 115.064C114.677 112.987 123.068 109.801 123.864 109.375C125.053 108.632 126.056 107.626 126.796 106.436C127.535 105.245 127.992 103.9 128.131 102.505L128.174 102.477Z" fill="url(#paint8_linear_303_17229)"/>
<path d="M82.0369 78.9251C81.8804 78.6691 81.7951 79.4656 81.6813 79.2096C80.7872 76.806 80.3811 74.2484 80.4867 71.686C80.4867 71.686 78.6947 72.4967 77.2298 75.9527C76.9595 76.55 76.7747 76.8914 76.604 77.2327C76.5329 77.3323 76.7889 76.1091 76.7462 76.1803C76.2778 76.7308 75.8724 77.3318 75.5373 77.9723C75.2636 78.5199 75.0399 79.0911 74.8689 79.6789C74.8689 79.878 74.8689 78.7545 74.8689 78.8967C71.3987 85.4674 70.7444 95.4798 71.1 95.0531C75.3266 90.4618 80.7412 87.1293 86.7444 85.4247C84.7036 83.6391 83.09 81.4179 82.0227 78.9251H82.0369Z" fill="url(#paint9_linear_303_17229)"/>
<path d="M109.713 160.404C99.644 156.138 88.1808 150.022 88.6075 136.226C89.2048 118.093 105.546 121.734 105.546 121.734C104.34 122.255 103.34 123.16 102.702 124.308C102.048 125.77 101.857 127.397 102.155 128.971C102.452 130.544 103.224 131.989 104.366 133.112C109.728 138.929 93.3435 146.893 118.588 161.954C119.228 162.296 112.672 161.741 109.685 160.532L109.713 160.404Z" fill="url(#paint10_linear_303_17229)"/>
<path d="M106.087 151.345C113.198 153.833 121.546 153.407 126.538 150.648C129.88 148.799 134.147 145.812 136.792 146.552C134.864 145.718 132.803 145.237 130.705 145.129C130.317 145.15 129.928 145.15 129.539 145.129C128.779 145.13 128.019 145.172 127.264 145.257C125.984 145.385 124.561 146.196 123.253 146.068C123.253 146.068 124.519 145.513 124.405 145.542C123.722 145.684 122.983 145.713 122.186 145.812C121.688 145.812 121.248 145.94 120.764 145.954C105.93 147.163 93.2866 137.833 93.2866 137.833C92.2769 141.432 98.1364 148.571 106.087 151.345Z" fill="url(#paint11_linear_303_17229)"/>
<path d="M176.771 172.18C191.818 157.403 199.441 139.469 196.213 119.274C196.809 126.449 195.571 133.658 192.615 140.223C195.571 128.024 194.302 115.184 189.016 103.8C180.711 86.0789 167.043 76.7775 161.824 72.8522C153.916 66.9642 150.645 60.9624 150.574 59.7251C148.213 64.5607 141.073 81.1438 149.806 95.4229C157.998 108.806 170.897 112.774 179.914 125.048C196.554 147.661 176.771 172.223 176.771 172.223V172.18Z" fill="url(#paint12_linear_303_17229)"/>
<path d="M174.609 133.723C169.347 122.858 162.776 118.079 156.561 112.973C157.032 113.623 157.469 114.297 157.87 114.993C162.386 120.065 165.476 126.244 166.825 132.9C168.174 139.556 167.734 146.45 165.55 152.881C154.528 186.474 110.453 170.658 105.816 166.207C107.708 185.649 140.22 194.95 161.425 182.349C173.486 170.971 183.228 151.544 174.609 133.723Z" fill="url(#paint13_linear_303_17229)"/>
</g>
<defs>
<radialGradient id="paint0_radial_303_17229" cx="0" cy="0" r="1" gradientUnits="userSpaceOnUse" gradientTransform="translate(192.856 93.517) rotate(2.55864) scale(49.6993 73.0611)">
<stop offset="0.04" stop-color="#D7D7D7"/>
<stop offset="0.12" stop-color="#CFCFCF"/>
<stop offset="0.25" stop-color="#BDBDBD"/>
<stop offset="0.43" stop-color="#A0A0A0"/>
<stop offset="0.77" stop-color="#686868"/>
<stop offset="0.87" stop-color="#636363"/>
<stop offset="0.95" stop-color="#606060"/>
<stop offset="1" stop-color="#5E5E5E"/>
</radialGradient>
<radialGradient id="paint1_radial_303_17229" cx="0" cy="0" r="1" gradientUnits="userSpaceOnUse" gradientTransform="translate(155.964 83.967) scale(140.089 140.103)">
<stop stop-color="#909090"/>
<stop offset="0.22" stop-color="#696969"/>
<stop offset="0.26" stop-color="#636363"/>
<stop offset="0.33" stop-color="#515151"/>
<stop offset="0.44" stop-color="#404040"/>
<stop offset="0.52" stop-color="#333333"/>
<stop offset="0.57" stop-color="#2F2F2F"/>
</radialGradient>
<linearGradient id="paint2_linear_303_17229" x1="137.276" y1="161.713" x2="109.614" y2="71.1883" gradientUnits="userSpaceOnUse">
<stop stop-color="#101010" stop-opacity="0.4"/>
<stop offset="0.48" stop-color="#1A1A1A" stop-opacity="0.17"/>
<stop offset="1" stop-color="#202020" stop-opacity="0"/>
</linearGradient>
<radialGradient id="paint3_radial_303_17229" cx="0" cy="0" r="1" gradientUnits="userSpaceOnUse" gradientTransform="translate(174.518 135.303) rotate(5.66598) scale(47.2495 47.2495)">
<stop stop-color="#D7D7D7"/>
<stop offset="0.5" stop-color="#686868"/>
<stop offset="1" stop-color="#5E5E5E"/>
</radialGradient>
<radialGradient id="paint4_radial_303_17229" cx="0" cy="0" r="1" gradientUnits="userSpaceOnUse" gradientTransform="translate(174.681 80.8032) rotate(5.66846) scale(78.9067 78.9209)">
<stop stop-color="#D6D6D6"/>
<stop offset="0.16" stop-color="#B5B5B5"/>
<stop offset="0.32" stop-color="#979797"/>
<stop offset="0.47" stop-color="#7F7F7F"/>
<stop offset="0.62" stop-color="#6C6C6C"/>
<stop offset="0.76" stop-color="#5E5E5E"/>
<stop offset="0.89" stop-color="#565656"/>
<stop offset="1" stop-color="#535353"/>
</radialGradient>
<radialGradient id="paint5_radial_303_17229" cx="0" cy="0" r="1" gradientUnits="userSpaceOnUse" gradientTransform="translate(180.815 154.018) rotate(5.67028) scale(72.4041 72.4182)">
<stop stop-color="#686868"/>
<stop offset="0.5" stop-color="#5E5E5E"/>
<stop offset="0.99" stop-color="#222222"/>
</radialGradient>
<radialGradient id="paint6_radial_303_17229" cx="0" cy="0" r="1" gradientUnits="userSpaceOnUse" gradientTransform="translate(161.606 109.51) scale(113.052 113.067)">
<stop offset="0.16" stop-color="#D7D7D7"/>
<stop offset="0.23" stop-color="#CFCFCF"/>
<stop offset="0.36" stop-color="#BDBDBD"/>
<stop offset="0.54" stop-color="#A0A0A0"/>
<stop offset="0.76" stop-color="#686868"/>
<stop offset="0.8" stop-color="#666666"/>
<stop offset="0.84" stop-color="#5E5E5E"/>
<stop offset="0.89" stop-color="#515151"/>
<stop offset="0.94" stop-color="#444444"/>
</radialGradient>
<radialGradient id="paint7_radial_303_17229" cx="0" cy="0" r="1" gradientUnits="userSpaceOnUse" gradientTransform="translate(155.586 56.8866) scale(133.49 133.504)">
<stop offset="0.28" stop-color="#D7D7D7"/>
<stop offset="0.4" stop-color="#CFCFCF"/>
<stop offset="0.63" stop-color="#BABABA"/>
<stop offset="0.86" stop-color="#A2A2A2"/>
<stop offset="0.93" stop-color="#8B8B8B"/>
<stop offset="0.99" stop-color="#7B7B7B"/>
</radialGradient>
<linearGradient id="paint8_linear_303_17229" x1="61.7987" y1="111.935" x2="113.169" y2="104.141" gradientUnits="userSpaceOnUse">
<stop stop-color="#5E5E5E" stop-opacity="0.5"/>
<stop offset="0.47" stop-color="#686868" stop-opacity="0.5"/>
<stop offset="0.49" stop-color="#6B6B6B" stop-opacity="0.51"/>
<stop offset="0.68" stop-color="#979797" stop-opacity="0.72"/>
<stop offset="0.83" stop-color="#B7B7B7" stop-opacity="0.87"/>
<stop offset="0.94" stop-color="#CBCBCB" stop-opacity="0.96"/>
<stop offset="1" stop-color="#D3D3D3"/>
</linearGradient>
<linearGradient id="paint9_linear_303_17229" x1="79.8467" y1="93.574" x2="74.0155" y2="72.6816" gradientUnits="userSpaceOnUse">
<stop stop-color="#3E3E3E" stop-opacity="0.6"/>
<stop offset="1" stop-color="#5E5E5E" stop-opacity="0"/>
</linearGradient>
<linearGradient id="paint10_linear_303_17229" x1="91.0253" y1="124.109" x2="103.015" y2="140.849" gradientUnits="userSpaceOnUse">
<stop offset="0.01" stop-color="#3E3E3E" stop-opacity="0.5"/>
<stop offset="0.48" stop-color="#686868" stop-opacity="0.5"/>
<stop offset="1" stop-color="#686868" stop-opacity="0"/>
</linearGradient>
<linearGradient id="paint11_linear_303_17229" x1="113.937" y1="153.435" x2="115.018" y2="142.683" gradientUnits="userSpaceOnUse">
<stop stop-color="#5E5E5E"/>
<stop offset="0.08" stop-color="#5E5E5E" stop-opacity="0.81"/>
<stop offset="0.21" stop-color="#5E5E5E" stop-opacity="0.56"/>
<stop offset="0.33" stop-color="#5E5E5E" stop-opacity="0.36"/>
<stop offset="0.45" stop-color="#5E5E5E" stop-opacity="0.2"/>
<stop offset="0.56" stop-color="#5E5E5E" stop-opacity="0.09"/>
<stop offset="0.67" stop-color="#5E5E5E" stop-opacity="0.02"/>
<stop offset="0.77" stop-color="#5E5E5E" stop-opacity="0"/>
</linearGradient>
<linearGradient id="paint12_linear_303_17229" x1="148.839" y1="61.5313" x2="193.013" y2="160.319" gradientUnits="userSpaceOnUse">
<stop stop-color="#E3E3E3"/>
<stop offset="0.27" stop-color="#E1E1E1"/>
<stop offset="0.45" stop-color="#DCDCDC"/>
<stop offset="0.61" stop-color="#D2D2D2"/>
<stop offset="0.76" stop-color="#C3C3C3"/>
<stop offset="0.89" stop-color="#B2B2B2"/>
<stop offset="0.9" stop-color="#B0B0B0"/>
<stop offset="0.95" stop-color="#ABABAB"/>
<stop offset="1" stop-color="#A2A2A2"/>
</linearGradient>
<linearGradient id="paint13_linear_303_17229" x1="157.571" y1="118.349" x2="136.636" y2="174.541" gradientUnits="userSpaceOnUse">
<stop stop-color="#A0A0A0"/>
<stop offset="0.04" stop-color="#A0A0A0" stop-opacity="0.86"/>
<stop offset="0.08" stop-color="#A0A0A0" stop-opacity="0.73"/>
<stop offset="0.13" stop-color="#A0A0A0" stop-opacity="0.63"/>
<stop offset="0.18" stop-color="#A0A0A0" stop-opacity="0.56"/>
<stop offset="0.23" stop-color="#A0A0A0" stop-opacity="0.51"/>
<stop offset="0.28" stop-color="#A0A0A0" stop-opacity="0.5"/>
<stop offset="0.39" stop-color="#A0A0A0" stop-opacity="0.48"/>
<stop offset="0.52" stop-color="#A0A0A0" stop-opacity="0.42"/>
<stop offset="0.68" stop-color="#A0A0A0" stop-opacity="0.31"/>
<stop offset="0.84" stop-color="#A0A0A0" stop-opacity="0.17"/>
<stop offset="1" stop-color="#A0A0A0" stop-opacity="0"/>
</linearGradient>
<clipPath id="clip0_303_17229">
<rect width="137.785" height="142.222" fill="white" transform="translate(59.1533 56.3118)"/>
</clipPath>
</defs>
</svg>
