<svg width="257" height="256" viewBox="0 0 257 256" fill="none" xmlns="http://www.w3.org/2000/svg">
<rect x="0.813354" y="0.5" width="255" height="255" rx="31.5" fill="white"/>
<rect x="0.813354" y="0.5" width="255" height="255" rx="31.5" stroke="#878787"/>
<g clip-path="url(#clip0_303_17233)">
<path d="M128.313 56.8889C114.249 56.8889 100.5 61.0595 88.8062 68.8733C77.112 76.6871 67.9975 87.7931 62.6153 100.787C57.2331 113.781 55.8248 128.079 58.5687 141.873C61.3125 155.667 68.0852 168.338 78.0303 178.283C87.9753 188.228 100.646 195.001 114.44 197.745C128.235 200.489 142.533 199.08 155.526 193.698C168.52 188.316 179.626 179.201 187.44 167.507C195.254 155.813 199.425 142.064 199.425 128C199.425 109.14 191.932 91.0528 178.597 77.7169C165.261 64.381 147.173 56.8889 128.313 56.8889ZM72.477 128.74L127.574 183.836C113.022 183.641 99.1209 177.774 88.8302 167.483C78.5395 157.193 72.6721 143.291 72.477 128.74ZM140.815 182.443L73.8707 115.499C76.2745 105.063 81.6277 95.5384 89.2927 88.0598C96.9576 80.5812 106.611 75.4638 117.103 73.3176C127.594 71.1713 138.482 72.0865 148.468 75.9543C158.454 79.822 167.117 86.4791 173.426 95.1325L165.704 101.959C160.929 95.1015 154.361 89.6878 146.718 86.3095C139.075 82.9312 130.651 81.7181 122.366 82.8028C114.08 83.8875 106.252 87.2282 99.7363 92.46C93.2206 97.6919 88.2679 104.614 85.4192 112.469L143.844 170.866C150.885 168.309 157.188 164.059 162.198 158.491C167.208 152.923 170.771 146.207 172.573 138.937H148.395V128H184.164C184.156 140.639 179.866 152.901 171.993 162.789C164.121 172.676 153.13 179.604 140.815 182.443Z" fill="#616161"/>
</g>
<defs>
<clipPath id="clip0_303_17233">
<rect width="142.222" height="142.222" fill="white" transform="translate(57.2023 56.8889)"/>
</clipPath>
</defs>
</svg>
