<svg width="257" height="257" viewBox="0 0 257 257" fill="none" xmlns="http://www.w3.org/2000/svg">
<rect x="1.05225" y="0.68811" width="255" height="255" rx="31.5" fill="white"/>
<rect x="1.05225" y="0.68811" width="255" height="255" rx="31.5" stroke="#878787"/>
<g clip-path="url(#clip0_303_17116)">
<path d="M196.731 121.268L134.637 59.1879C133.788 58.3356 132.78 57.6593 131.67 57.1978C130.559 56.7363 129.368 56.4988 128.166 56.4988C126.963 56.4988 125.772 56.7363 124.662 57.1978C123.551 57.6593 122.543 58.3356 121.695 59.1879L108.795 72.1443L125.151 88.4999C127.079 87.8441 129.154 87.743 131.137 88.2082C133.121 88.6734 134.934 89.6862 136.37 91.1312C137.806 92.5763 138.808 94.3955 139.261 96.3818C139.713 98.3682 139.6 100.442 138.932 102.367L154.69 118.068C157.039 117.245 159.6 117.252 161.944 118.089C164.289 118.926 166.275 120.541 167.573 122.666C168.87 124.79 169.4 127.296 169.073 129.763C168.747 132.231 167.584 134.512 165.778 136.226C163.973 137.94 161.635 138.983 159.153 139.182C156.672 139.38 154.198 138.721 152.143 137.315C150.089 135.91 148.579 133.842 147.864 131.457C147.15 129.073 147.275 126.515 148.219 124.212L133.456 109.506V148.191C135.524 149.212 137.214 150.864 138.283 152.908C139.352 154.952 139.744 157.282 139.404 159.563C139.064 161.844 138.009 163.959 136.391 165.602C134.772 167.245 132.674 168.332 130.398 168.707C128.123 169.081 125.787 168.724 123.727 167.686C121.667 166.648 119.99 164.983 118.937 162.932C117.884 160.88 117.509 158.547 117.867 156.268C118.224 153.99 119.296 151.883 120.927 150.253C121.953 149.239 123.165 148.432 124.496 147.878V108.838C123.161 108.283 121.948 107.471 120.927 106.448C119.398 104.921 118.358 102.974 117.94 100.854C117.522 98.7337 117.745 96.5373 118.58 94.5443L102.452 78.4163L59.8848 120.983C59.0321 121.833 58.3555 122.843 57.8938 123.954C57.4322 125.066 57.1945 126.258 57.1945 127.462C57.1945 128.665 57.4322 129.857 57.8938 130.969C58.3555 132.081 59.0321 133.09 59.8848 133.94L121.979 196.034C122.829 196.887 123.838 197.563 124.95 198.025C126.062 198.487 127.254 198.724 128.457 198.724C129.661 198.724 130.853 198.487 131.965 198.025C133.076 197.563 134.086 196.887 134.935 196.034L196.731 134.239C198.451 132.518 199.417 130.186 199.417 127.753C199.417 125.321 198.451 122.988 196.731 121.268Z" fill="#757575"/>
</g>
<defs>
<clipPath id="clip0_303_17116">
<rect width="142.222" height="142.222" fill="white" transform="translate(57.1968 56.4999)"/>
</clipPath>
</defs>
</svg>
