<svg width="257" height="257" viewBox="0 0 257 257" fill="none" xmlns="http://www.w3.org/2000/svg">
<rect x="0.776123" y="0.68811" width="255" height="255" rx="31.5" fill="white"/>
<rect x="0.776123" y="0.68811" width="255" height="255" rx="31.5" stroke="#878787"/>
<g clip-path="url(#clip0_303_17122)">
<path d="M127.639 58.2564C110.742 58.2407 94.3915 64.2425 81.5171 75.1862C68.6428 86.1299 60.0861 101.3 57.3801 117.98C54.6741 134.659 57.9958 151.756 66.7499 166.209C75.504 180.662 89.1185 191.525 105.154 196.852C108.709 197.506 110.018 195.302 110.018 193.424C110.018 191.547 110.018 186.128 109.918 180.183C90.1352 184.45 85.9681 171.792 85.9681 171.792C82.7254 163.572 78.0606 161.396 78.0606 161.396C71.6179 156.973 78.5583 157.129 78.5583 157.129C85.6694 157.627 89.4526 164.454 89.4526 164.454C95.7957 175.319 106.093 172.176 110.146 170.37C110.466 166.76 112.071 163.384 114.669 160.855C98.8677 158.992 82.2703 152.905 82.2703 125.655C82.1801 118.603 84.8021 111.786 89.5948 106.612C88.8552 104.82 86.4232 97.5808 90.2774 87.7959C90.2774 87.7959 96.2508 85.8759 109.847 95.0777C121.486 91.9022 133.764 91.9022 145.403 95.0777C158.971 85.8759 164.93 87.7959 164.93 87.7959C168.798 97.5808 166.352 104.863 165.627 106.612C170.446 111.773 173.09 118.594 173.008 125.655C173.008 152.962 156.368 158.978 140.539 160.742C143.085 162.946 145.36 167.27 145.36 173.911C145.36 183.426 145.275 191.078 145.275 193.424C145.275 195.316 146.555 197.535 150.167 196.838C166.196 191.502 179.801 180.633 188.546 166.18C197.291 151.726 200.605 134.632 197.895 117.957C195.184 101.283 186.626 86.1181 173.753 75.1789C160.88 64.2398 144.532 58.2408 127.639 58.2564Z" fill="#161616"/>
<path d="M83.1663 159.561C83.0273 159.745 82.8238 159.869 82.5968 159.909C82.3698 159.948 82.1362 159.9 81.9432 159.775C81.4312 159.547 81.1325 159.063 81.3032 158.708C81.4739 158.352 82.0143 158.239 82.5263 158.48C83.0383 158.722 83.337 159.206 83.1663 159.561ZM86.665 162.676C86.3237 162.989 85.6552 162.847 85.2428 162.349C85.0438 162.176 84.9141 161.936 84.8775 161.675C84.841 161.414 84.8999 161.148 85.0437 160.927C85.385 160.614 86.0392 160.756 86.4659 161.254C86.8925 161.751 87.0348 162.42 86.6792 162.676H86.665ZM89.0543 166.672C88.6277 166.971 87.9166 166.672 87.4757 166.061C87.0348 165.449 87.0348 164.639 87.4757 164.368C87.9166 164.098 88.6277 164.368 89.0685 164.966C89.5094 165.563 89.5094 166.388 89.0685 166.672H89.0543ZM93.1219 171.295C92.8225 171.443 92.4846 171.497 92.1539 171.448C91.8232 171.399 91.5154 171.249 91.2721 171.02C91.0289 170.791 90.8617 170.492 90.7932 170.165C90.7247 169.838 90.7581 169.497 90.889 169.19C91.1766 169.008 91.5198 168.935 91.8564 168.985C92.193 169.034 92.5007 169.203 92.7237 169.46C93.3494 170.043 93.5343 170.882 93.1219 171.28V171.295ZM98.3557 172.859C98.185 173.414 97.3885 173.67 96.5921 173.428C95.7957 173.186 95.2552 172.532 95.4117 172.006C95.5681 171.479 96.393 171.181 97.2037 171.423C98.0143 171.664 98.5263 172.319 98.3557 172.845V172.859ZM104.329 173.513C104.329 174.111 103.675 174.594 102.821 174.608C101.968 174.623 101.285 174.153 101.271 173.57C101.257 172.987 101.94 172.489 102.793 172.475C103.646 172.461 104.329 172.93 104.329 173.513ZM110.189 173.3C110.302 173.869 109.705 174.452 108.866 174.608C108.027 174.765 107.287 174.409 107.173 173.84C107.06 173.271 107.671 172.674 108.496 172.518C109.321 172.361 110.089 172.717 110.189 173.3Z" fill="#161616"/>
</g>
<defs>
<clipPath id="clip0_303_17122">
<rect width="142.222" height="138.709" fill="white" transform="translate(56.5281 58.2563)"/>
</clipPath>
</defs>
</svg>
