<svg width="257" height="257" viewBox="0 0 257 257" fill="none" xmlns="http://www.w3.org/2000/svg">
<rect x="0.880615" y="0.797119" width="255" height="255" rx="31.5" fill="white"/>
<rect x="0.880615" y="0.797119" width="255" height="255" rx="31.5" stroke="#878787"/>
<g clip-path="url(#clip0_303_17186)">
<path d="M127.892 194.227L154.075 113.63H101.709L127.892 194.227Z" fill="#707070"/>
<path d="M127.892 194.227L101.709 113.63H65.0016L127.892 194.227Z" fill="#909090"/>
<path d="M65.0016 113.63L57.0514 138.121C56.697 139.209 56.6961 140.381 57.0487 141.469C57.4012 142.557 58.0892 143.506 59.014 144.179L127.892 194.227L65.0016 113.63Z" fill="#B0B0B0"/>
<path d="M65.0016 113.63H101.709L85.9367 65.0896C85.7584 64.5456 85.4128 64.0719 84.9492 63.736C84.4857 63.4001 83.9278 63.2192 83.3553 63.2192C82.7829 63.2192 82.225 63.4001 81.7615 63.736C81.2979 64.0719 80.9523 64.5456 80.774 65.0896L65.0016 113.63Z" fill="#707070"/>
<path d="M127.892 194.227L154.075 113.63H190.783L127.892 194.227Z" fill="#909090"/>
<path d="M190.783 113.63L198.733 138.121C199.087 139.209 199.088 140.381 198.736 141.469C198.383 142.557 197.695 143.506 196.77 144.179L127.892 194.227L190.783 113.63Z" fill="#B0B0B0"/>
<path d="M190.783 113.63H154.075L169.848 65.0896C170.026 64.5456 170.372 64.0719 170.835 63.736C171.299 63.4001 171.857 63.2192 172.429 63.2192C173.002 63.2192 173.559 63.4001 174.023 63.736C174.487 64.0719 174.832 64.5456 175.01 65.0896L190.783 113.63Z" fill="#707070"/>
</g>
<defs>
<clipPath id="clip0_303_17186">
<rect width="142.222" height="131.015" fill="white" transform="translate(56.7811 63.2124)"/>
</clipPath>
</defs>
</svg>
