<svg width="257" height="257" viewBox="0 0 257 257" fill="none" xmlns="http://www.w3.org/2000/svg">
<rect x="0.776123" y="0.985107" width="255" height="255" rx="31.5" fill="white"/>
<rect x="0.776123" y="0.985107" width="255" height="255" rx="31.5" stroke="#878787"/>
<g clip-path="url(#clip0_303_17228)">
<path d="M67.2659 117.426C66.9815 117.426 66.9103 117.298 67.0526 117.085L68.4748 115.208C68.5806 115.088 68.7129 114.995 68.861 114.936C69.0092 114.877 69.1691 114.853 69.3281 114.866H93.9895C94.2739 114.866 94.3308 115.08 94.2028 115.279L93.0223 117.085C92.9397 117.197 92.8355 117.291 92.7158 117.362C92.5961 117.433 92.4633 117.479 92.3255 117.498L67.2659 117.426ZM56.7983 123.798C56.5281 123.798 56.457 123.656 56.5992 123.457L58.0215 121.579C58.1225 121.47 58.2461 121.384 58.3836 121.328C58.5212 121.271 58.6694 121.246 58.8179 121.252H90.3912C90.4445 121.244 90.4989 121.25 90.5491 121.27C90.5994 121.289 90.6438 121.321 90.6781 121.362C90.7125 121.404 90.7355 121.453 90.745 121.506C90.7546 121.559 90.7503 121.614 90.7326 121.665L90.1779 123.329C90.1363 123.458 90.0516 123.57 89.9377 123.645C89.8239 123.72 89.6878 123.754 89.5521 123.741L56.7983 123.798ZM73.5948 130.17C73.3103 130.17 73.2392 129.97 73.3815 129.757L74.3486 128.022C74.428 127.907 74.5315 127.81 74.6518 127.739C74.7721 127.668 74.9064 127.624 75.0455 127.61H88.8979C89.1681 127.61 89.3103 127.823 89.3103 128.093L89.1397 129.786C89.1299 129.911 89.0758 130.028 88.9872 130.117C88.8985 130.205 88.7811 130.259 88.6561 130.269L73.5948 130.17ZM145.474 116.189C141.108 117.298 138.121 118.123 133.84 119.233C132.802 119.503 132.731 119.574 131.821 118.536C130.954 117.424 129.845 116.524 128.578 115.905C126.594 114.906 124.373 114.474 122.16 114.658C119.946 114.841 117.826 115.632 116.034 116.943C113.781 118.3 111.934 120.237 110.683 122.55C109.433 124.864 108.825 127.47 108.923 130.098C108.89 132.738 109.821 135.299 111.541 137.302C113.261 139.305 115.652 140.612 118.267 140.978C120.458 141.299 122.695 141.046 124.759 140.243C126.823 139.44 128.644 138.116 130.043 136.399C130.669 135.645 131.209 134.806 131.906 133.839H118.537C117.115 133.839 116.745 132.943 117.229 131.762C118.125 129.615 119.789 126.074 120.756 124.21C120.907 123.878 121.151 123.596 121.459 123.399C121.767 123.202 122.125 123.099 122.491 123.101H147.721C147.593 124.978 147.593 126.842 147.309 128.719C146.583 133.648 144.627 138.314 141.62 142.287C139.32 145.49 136.388 148.188 133.005 150.213C129.622 152.238 125.86 153.549 121.95 154.063C118.697 154.59 115.372 154.457 112.171 153.673C108.97 152.889 105.96 151.469 103.319 149.498C100.86 147.693 98.8062 145.392 97.2921 142.744C95.7781 140.095 94.837 137.158 94.5299 134.123C94.1019 130.523 94.3972 126.873 95.3985 123.388C96.3998 119.903 98.087 116.653 100.361 113.828C105.047 107.497 111.987 103.209 119.746 101.853C122.875 101.157 126.111 101.098 129.263 101.68C132.415 102.261 135.418 103.471 138.093 105.238C141.687 107.619 144.486 111.022 146.128 115.009C146.541 115.634 146.27 115.976 145.445 116.189H145.474Z" fill="#7D7D7D"/>
<path d="M168.358 154.475C162.181 154.516 156.192 152.359 151.462 148.388C147.434 144.983 144.776 140.233 143.981 135.019C143.395 131.34 143.592 127.578 144.56 123.98C145.529 120.383 147.245 117.03 149.598 114.141C151.89 111.01 154.787 108.369 158.116 106.376C161.445 104.383 165.141 103.077 168.983 102.536C175.995 101.341 182.694 101.981 188.795 106.077C191.453 107.78 193.705 110.046 195.391 112.715C197.077 115.384 198.156 118.39 198.551 121.522C199.218 125.786 198.842 130.148 197.455 134.235C196.068 138.322 193.712 142.012 190.587 144.989C186.075 149.557 180.282 152.646 173.975 153.849C172.098 154.205 170.235 154.262 168.429 154.475H168.358ZM184.841 126.5C184.815 125.733 184.743 124.969 184.628 124.21C184.376 122.643 183.799 121.145 182.934 119.814C182.069 118.483 180.935 117.347 179.605 116.481C178.275 115.614 176.778 115.035 175.211 114.782C173.644 114.528 172.041 114.606 170.505 115.009C167.505 115.558 164.742 117.003 162.579 119.154C160.416 121.304 158.955 124.058 158.388 127.055C157.754 129.637 158.044 132.359 159.208 134.749C160.372 137.139 162.336 139.046 164.759 140.139C166.537 140.939 168.475 141.319 170.423 141.249C172.372 141.18 174.278 140.664 175.995 139.741C178.54 138.565 180.708 136.706 182.26 134.371C183.811 132.036 184.685 129.316 184.784 126.514L184.841 126.5Z" fill="#7D7D7D"/>
</g>
<defs>
<clipPath id="clip0_303_17228">
<rect width="142.222" height="53.1342" fill="white" transform="translate(56.5281 101.341)"/>
</clipPath>
</defs>
</svg>
