<svg width="257" height="257" viewBox="0 0 257 257" fill="none" xmlns="http://www.w3.org/2000/svg">
<rect x="0.641602" y="0.797119" width="255" height="255" rx="31.5" fill="white"/>
<rect x="0.641602" y="0.797119" width="255" height="255" rx="31.5" stroke="#878787"/>
<g clip-path="url(#clip0_303_17221)">
<mask id="mask0_303_17221" style="mask-type:luminance" maskUnits="userSpaceOnUse" x="39" y="56" width="178" height="143">
<path d="M216.409 56.6089H39.6833V198.831H216.409V56.6089Z" fill="white"/>
</mask>
<g mask="url(#mask0_303_17221)">
<path d="M151.825 95.777H157.216L172.576 80.417L173.372 73.889C164.572 66.1159 153.934 60.7155 142.465 58.1981C130.997 55.6807 119.075 56.1296 107.828 59.5023C96.5815 62.875 86.3803 69.06 78.1892 77.4729C69.9981 85.8857 64.0877 96.2484 61.0166 107.581C62.7257 106.871 64.6243 106.755 66.4068 107.254L97.1126 102.12C97.1126 102.12 98.677 99.5459 99.4877 99.7023C106.082 92.488 115.179 88.0597 124.925 87.3198C134.67 86.5798 144.332 89.584 151.939 95.7201L151.825 95.777Z" fill="#747474"/>
<path d="M194.464 107.581C190.934 94.5764 183.683 82.8857 173.6 73.9458L152.039 95.5067C156.535 99.1752 160.138 103.817 162.577 109.082C165.017 114.347 166.228 120.098 166.119 125.9V129.725C171.211 129.725 176.095 131.748 179.695 135.349C183.296 138.95 185.319 143.833 185.319 148.925C185.319 154.018 183.296 158.901 179.695 162.502C176.095 166.103 171.211 168.125 166.119 168.125H127.719L123.893 172.008V195.005L127.733 198.831H166.133C176.85 198.916 187.31 195.549 195.965 189.227C204.62 182.906 211.009 173.966 214.189 163.731C217.368 153.496 217.168 142.51 213.618 132.397C210.068 122.285 203.357 113.583 194.478 107.581H194.464Z" fill="#7D7D7D"/>
<path d="M89.3047 198.618H127.705V167.898H89.3047C86.5625 167.881 83.8559 167.275 81.3687 166.12L75.9785 167.784L60.5189 183.187L59.0967 188.577C67.7906 195.15 78.4061 198.678 89.3047 198.618Z" fill="#7C7C7C"/>
<path d="M89.3047 98.9485C78.9047 99.0063 68.7826 102.312 60.3529 108.403C51.9233 114.494 45.6072 123.067 42.2874 132.923C38.9675 142.779 38.8099 153.426 41.8363 163.376C44.8628 173.326 50.9222 182.082 59.1678 188.42L81.4398 166.12C78.6072 164.844 76.1269 162.899 74.2121 160.452C72.2974 158.006 71.0054 155.131 70.4472 152.074C69.8891 149.018 70.0816 145.872 71.008 142.906C71.9345 139.941 73.5672 137.245 75.7659 135.05C77.9646 132.855 80.6635 131.227 83.6305 130.305C86.5975 129.384 89.7439 129.197 92.7993 129.76C95.8546 130.323 98.7274 131.62 101.171 133.539C103.614 135.458 105.555 137.941 106.826 140.776L129.084 118.518C124.41 112.411 118.388 107.467 111.488 104.072C104.587 100.678 96.9951 98.924 89.3047 98.9485Z" fill="#BBBBBB"/>
</g>
</g>
<defs>
<clipPath id="clip0_303_17221">
<rect width="176.725" height="142.222" fill="white" transform="translate(39.6833 56.6089)"/>
</clipPath>
</defs>
</svg>
