<svg width="257" height="257" viewBox="0 0 257 257" fill="none" xmlns="http://www.w3.org/2000/svg">
<rect x="0.537231" y="0.797119" width="255" height="255" rx="31.5" fill="white"/>
<rect x="0.537231" y="0.797119" width="255" height="255" rx="31.5" stroke="#878787"/>
<g clip-path="url(#clip0_303_17110)">
<path fill-rule="evenodd" clip-rule="evenodd" d="M140.36 72.9714L169.53 89.839C170.78 88.5254 172.298 87.4958 173.98 86.8199C175.663 86.1439 177.471 85.8374 179.283 85.9211C181.094 86.0048 182.866 86.4767 184.479 87.3048C186.093 88.133 187.509 89.2982 188.633 90.7214C189.757 92.1446 190.561 93.7926 190.993 95.5539C191.424 97.3152 191.472 99.1486 191.133 100.93C190.795 102.711 190.077 104.399 189.029 105.879C187.981 107.359 186.628 108.597 185.06 109.508C184.008 110.119 182.873 110.574 181.69 110.859V144.595C182.858 144.875 183.98 145.325 185.018 145.931C186.458 146.763 187.72 147.869 188.732 149.188C189.744 150.507 190.487 152.012 190.918 153.618C191.348 155.224 191.458 156.899 191.241 158.548C191.024 160.196 190.485 161.786 189.654 163.226C188.823 164.666 187.716 165.928 186.397 166.94C185.078 167.952 183.573 168.695 181.967 169.126C180.361 169.556 178.686 169.666 177.038 169.449C175.389 169.233 173.8 168.693 172.36 167.862C171.187 167.193 170.13 166.338 169.231 165.331L140.203 182.084C140.778 183.822 140.969 185.663 140.763 187.481C140.557 189.299 139.96 191.051 139.012 192.616C138.064 194.181 136.788 195.521 135.272 196.546C133.756 197.57 132.036 198.254 130.23 198.549C128.424 198.845 126.576 198.745 124.813 198.258C123.049 197.77 121.412 196.906 120.015 195.725C118.617 194.544 117.493 193.074 116.718 191.417C115.943 189.759 115.537 187.953 115.528 186.123C115.529 184.911 115.702 183.704 116.04 182.539L86.8416 165.629C85.4845 167.056 83.8131 168.147 81.9606 168.814C80.108 169.481 78.1252 169.708 76.1699 169.474C74.2146 169.241 72.3407 168.554 70.6973 167.47C69.0538 166.385 67.6861 164.932 66.7029 163.226C65.0324 160.314 64.5839 156.859 65.4556 153.618C66.3273 150.376 68.4481 147.612 71.3536 145.931C72.3915 145.325 73.5128 144.875 74.6816 144.595V110.859C72.7621 110.402 70.976 109.502 69.4657 108.232C67.9555 106.961 66.7627 105.356 65.9824 103.544C65.2022 101.731 64.856 99.7613 64.9716 97.7914C65.0871 95.8214 65.6611 93.9056 66.6479 92.1967C67.6346 90.4878 69.0069 89.0329 70.6553 87.948C72.3037 86.8632 74.1827 86.1782 76.1425 85.9479C78.1024 85.7175 80.089 85.948 81.944 86.6211C83.799 87.2942 85.4712 88.3912 86.8274 89.8247L116.04 72.9572C115.699 71.7882 115.526 70.5766 115.528 69.359C115.549 67.5555 115.956 65.7775 116.72 64.144C117.485 62.5104 118.59 61.0592 119.961 59.8873C121.332 58.7155 122.937 57.8502 124.67 57.3494C126.402 56.8485 128.222 56.7238 130.007 56.9834C131.792 57.2431 133.5 57.8811 135.018 58.8548C136.537 59.8286 137.829 61.1155 138.809 62.6294C139.79 64.1433 140.435 65.8492 140.703 67.6328C140.97 69.4164 140.853 71.2366 140.36 72.9714ZM137.274 78.1767L166.557 95.1012C166.093 96.7318 165.958 98.4383 166.159 100.122C166.373 101.803 166.914 103.426 167.752 104.9C168.601 106.373 169.739 107.66 171.098 108.681C172.457 109.703 174.008 110.439 175.659 110.845V144.609C175.495 144.638 175.333 144.681 175.176 144.737L136.932 78.5181L137.274 78.1767ZM119.439 78.5181L81.2096 144.737L80.7118 144.609V110.817C82.3627 110.411 83.9144 109.674 85.2734 108.653C86.6324 107.631 87.7705 106.345 88.6194 104.872C89.4634 103.396 90.0049 101.767 90.2122 100.079C90.416 98.4098 90.2806 96.7167 89.814 95.1012L119.026 78.1625L119.382 78.5181H119.439ZM131.727 81.519L169.942 147.723C169.07 148.561 168.323 149.519 167.723 150.568C167.115 151.61 166.664 152.736 166.386 153.91H89.9847C89.7071 152.736 89.2566 151.61 88.6478 150.568C88.045 149.521 87.2981 148.563 86.4291 147.723L124.715 81.519C125.862 81.8474 127.049 82.0149 128.242 82.0167C129.421 82.0135 130.594 81.846 131.727 81.519ZM137.515 177.59L166.628 160.751C166.543 160.481 166.472 160.211 166.401 159.926H89.9705L89.8425 160.41L119.026 177.291C120.21 176.073 121.628 175.106 123.194 174.447C124.757 173.777 126.442 173.438 128.143 173.451C129.908 173.444 131.655 173.808 133.27 174.521C134.885 175.235 136.332 176.28 137.515 177.59Z" fill="#777777"/>
</g>
<defs>
<clipPath id="clip0_303_17110">
<rect width="126.407" height="142.037" fill="white" transform="translate(64.9821 56.7012)"/>
</clipPath>
</defs>
</svg>
