<svg width="257" height="257" viewBox="0 0 257 257" fill="none" xmlns="http://www.w3.org/2000/svg">
<rect x="1.36548" y="1.2821" width="255" height="255" rx="31.5" fill="white"/>
<rect x="1.36548" y="1.2821" width="255" height="255" rx="31.5" stroke="#878787"/>
<g clip-path="url(#clip0_303_17207)">
<path d="M186.731 115.96C190.065 115.833 193.321 116.989 195.829 119.19C198.337 121.391 199.906 124.47 200.213 127.792C202.773 160.902 173.006 197.993 130.297 199.131C127 199.222 123.802 197.999 121.407 195.732C119.012 193.465 117.616 190.339 117.525 187.042C117.435 183.745 118.657 180.548 120.925 178.153C123.192 175.758 126.317 174.361 129.614 174.271C157.945 173.488 175.893 149.012 174.94 128.973C174.86 127.344 175.101 125.716 175.65 124.18C176.199 122.645 177.045 121.233 178.14 120.024C179.235 118.816 180.557 117.835 182.031 117.137C183.505 116.44 185.102 116.04 186.731 115.96Z" fill="url(#paint0_linear_303_17207)"/>
<path d="M70.6773 115.263C72.3078 115.264 73.9219 115.587 75.4276 116.213C76.9333 116.839 78.301 117.755 79.4526 118.909C80.6042 120.063 81.5172 121.433 82.1394 122.94C82.7616 124.447 83.0809 126.062 83.0791 127.693C83.0791 156.351 106.119 174.896 129.145 174.327C132.442 174.246 135.635 175.478 138.024 177.752C140.412 180.026 141.8 183.155 141.881 186.452C141.962 189.749 140.73 192.943 138.456 195.331C136.183 197.719 133.053 199.107 129.756 199.188C120.324 199.328 110.959 197.574 102.215 194.032C93.4714 190.49 85.5267 185.231 78.8507 178.566C72.1747 171.9 66.9029 163.964 63.3469 155.226C59.7909 146.488 58.0229 137.126 58.1475 127.693C58.1701 124.386 59.5006 121.222 61.8483 118.893C64.1961 116.564 67.3702 115.259 70.6773 115.263Z" fill="url(#paint1_linear_303_17207)"/>
<path d="M155.755 128.66C155.755 125.265 157.103 122.009 159.504 119.609C161.904 117.208 165.16 115.86 168.555 115.86H187.228C189.013 115.671 190.817 115.86 192.524 116.413C194.232 116.967 195.803 117.873 197.137 119.073C198.471 120.274 199.538 121.741 200.268 123.38C200.998 125.02 201.376 126.794 201.376 128.589C201.376 130.383 200.998 132.158 200.268 133.797C199.538 135.436 198.471 136.904 197.137 138.104C195.803 139.305 194.232 140.211 192.524 140.765C190.817 141.318 189.013 141.507 187.228 141.318H168.569C165.196 141.322 161.958 139.994 159.559 137.624C157.159 135.254 155.792 132.032 155.755 128.66Z" fill="url(#paint2_linear_303_17207)"/>
<path d="M116.587 128.674C116.601 126.16 117.359 123.706 118.766 121.622C120.174 119.538 122.166 117.918 124.493 116.965C126.821 116.012 129.378 115.771 131.842 116.27C134.307 116.769 136.568 117.987 138.341 119.77C140.114 121.553 141.319 123.821 141.805 126.288C142.29 128.755 142.034 131.311 141.069 133.633C140.103 135.954 138.472 137.938 136.38 139.334C134.288 140.729 131.83 141.474 129.316 141.474C125.933 141.455 122.696 140.098 120.311 137.7C117.925 135.302 116.587 132.057 116.587 128.674Z" fill="url(#paint3_linear_303_17207)"/>
<path d="M141.675 69.1115C141.813 72.4019 140.641 75.6128 138.414 78.0394C136.188 80.4659 133.089 81.9097 129.799 82.0537C100.259 83.2769 82.2399 106.488 83.1075 128.532C83.1877 130.155 82.9464 131.778 82.3972 133.308C81.8481 134.837 81.002 136.243 79.9076 137.445C78.8133 138.646 77.4922 139.619 76.0204 140.308C74.5486 140.997 72.955 141.389 71.3315 141.46C67.9836 141.565 64.7279 140.353 62.2631 138.085C59.7983 135.817 58.3207 132.673 58.1475 129.328C56.7252 93.4173 86.6772 57.9044 128.775 57.1933C132.064 57.0624 135.27 58.2428 137.689 60.475C140.108 62.7072 141.541 65.8085 141.675 69.0973V69.1115Z" fill="url(#paint4_linear_303_17207)"/>
</g>
<defs>
<linearGradient id="paint0_linear_303_17207" x1="144.306" y1="155.696" x2="182.734" y2="160.646" gradientUnits="userSpaceOnUse">
<stop stop-color="#5E5E5E"/>
<stop offset="1" stop-color="#636363"/>
</linearGradient>
<linearGradient id="paint1_linear_303_17207" x1="106.19" y1="140.991" x2="86.6773" y2="192.29" gradientUnits="userSpaceOnUse">
<stop offset="0.01" stop-color="#666666"/>
<stop offset="1" stop-color="#808080"/>
</linearGradient>
<linearGradient id="paint2_linear_303_17207" x1="152.185" y1="89.5773" x2="169.664" y2="116.073" gradientUnits="userSpaceOnUse">
<stop stop-color="#7E7E7E"/>
<stop offset="1" stop-color="#AFAFAF"/>
</linearGradient>
<linearGradient id="paint3_linear_303_17207" x1="102.521" y1="105.463" x2="137.877" y2="136.098" gradientUnits="userSpaceOnUse">
<stop stop-color="#7E7E7E"/>
<stop offset="1" stop-color="#AFAFAF"/>
</linearGradient>
<linearGradient id="paint4_linear_303_17207" x1="170.048" y1="122.943" x2="67.335" y2="88.2831" gradientUnits="userSpaceOnUse">
<stop stop-color="#7E7E7E"/>
<stop offset="1" stop-color="#AFAFAF"/>
</linearGradient>
<clipPath id="clip0_303_17207">
<rect width="142.222" height="142.023" fill="white" transform="translate(58.1475 57.1934)"/>
</clipPath>
</defs>
</svg>
