<svg width="257" height="257" viewBox="0 0 257 257" fill="none" xmlns="http://www.w3.org/2000/svg">
<rect x="1.26111" y="0.797119" width="255" height="255" rx="31.5" fill="white"/>
<rect x="1.26111" y="0.797119" width="255" height="255" rx="31.5" stroke="#878787"/>
<g clip-path="url(#clip0_303_17129)">
<path d="M57.4058 56.6089H199.628V198.831H57.4058V56.6089Z" fill="#6F6F6F"/>
<path d="M106.615 128.673C106.464 128.963 106.345 129.268 106.259 129.583C106.088 130.095 105.875 130.749 105.633 131.517C105.392 132.285 105.121 133.167 104.837 134.12L103.955 137.05C103.642 138.06 103.358 139.027 103.088 139.994C102.817 140.961 102.547 141.814 102.334 142.597C102.12 143.379 101.921 144.019 101.779 144.545C101.637 145.071 101.537 145.384 101.509 145.469C101.408 145.827 101.275 146.174 101.111 146.508C100.939 146.888 100.729 147.25 100.485 147.589C100.252 147.902 99.9793 148.184 99.6743 148.428C99.4169 148.639 99.0968 148.759 98.764 148.769C98.5433 148.785 98.3222 148.745 98.121 148.653C97.9197 148.561 97.7447 148.42 97.612 148.243C97.3184 147.647 97.186 146.985 97.228 146.323V145.91C97.228 145.782 97.228 145.626 97.228 145.484C97.3008 144.891 97.4245 144.306 97.5978 143.734C97.8254 142.881 98.0956 141.914 98.4227 140.89C98.7498 139.866 99.0769 138.7 99.4467 137.548C99.8165 136.396 100.144 135.357 100.442 134.447C99.5794 135.395 98.6313 136.343 97.5978 137.292C96.61 138.219 95.5649 139.083 94.4689 139.88C93.466 140.616 92.3888 141.246 91.2547 141.757C90.2794 142.217 89.2179 142.464 88.14 142.483C87.1032 142.51 86.0791 142.249 85.1818 141.729C84.364 141.226 83.6652 140.552 83.1338 139.752C82.5736 138.879 82.1649 137.917 81.9249 136.908C81.6907 135.92 81.5761 134.908 81.5836 133.893V133.523C81.5768 133.404 81.5768 133.286 81.5836 133.167C81.6972 131.253 81.9635 129.35 82.38 127.478C82.8305 125.497 83.4004 123.545 84.0867 121.633C84.7955 119.693 85.6122 117.793 86.5329 115.944C87.4459 114.118 88.4719 112.351 89.6049 110.653C90.6548 109.054 91.8193 107.533 93.0894 106.102C94.2311 104.788 95.4981 103.587 96.8725 102.518C98.0679 101.572 99.3829 100.788 100.784 100.186C102.015 99.6357 103.346 99.3452 104.695 99.3325C106.2 99.3567 107.672 99.7787 108.961 100.556C110.548 101.566 111.885 102.923 112.872 104.524C113.125 104.899 113.303 105.319 113.399 105.761C113.465 106.151 113.498 106.546 113.498 106.941C113.544 107.682 113.322 108.414 112.872 109.004C112.708 109.229 112.495 109.414 112.248 109.545C112.002 109.675 111.729 109.748 111.45 109.757C111.167 109.735 110.892 109.649 110.646 109.506C110.4 109.363 110.188 109.167 110.028 108.933C109.46 108.184 108.956 107.39 108.52 106.557C108.11 105.756 107.515 105.064 106.785 104.538C106.18 104.129 105.467 103.912 104.737 103.912C103.396 103.992 102.113 104.489 101.068 105.334C99.6368 106.427 98.3469 107.693 97.228 109.103C95.8699 110.789 94.6432 112.577 93.5587 114.451C92.3746 116.436 91.3154 118.492 90.3871 120.609C89.5117 122.622 88.7937 124.7 88.2396 126.824C87.7397 128.622 87.472 130.476 87.4431 132.342C87.44 132.904 87.478 133.465 87.5569 134.021C87.6148 134.555 87.7539 135.078 87.9694 135.571C88.1535 136.016 88.4411 136.411 88.8085 136.723C89.1829 137.034 89.6589 137.196 90.1454 137.178C90.8711 137.138 91.5774 136.929 92.2076 136.566C93.0528 136.107 93.8528 135.569 94.5969 134.959C95.4653 134.259 96.296 133.514 97.0858 132.726C97.9249 131.887 98.7071 131.048 99.4183 130.195C100.129 129.341 100.84 128.517 101.338 127.734C101.809 127.086 102.228 126.401 102.59 125.686L104.865 118.86C105.063 118.235 105.445 117.685 105.96 117.281C106.373 116.978 106.871 116.814 107.383 116.812C107.616 116.813 107.847 116.856 108.065 116.94C108.296 117.005 108.506 117.127 108.677 117.295C108.866 117.473 109.012 117.692 109.104 117.935C109.218 118.23 109.271 118.544 109.26 118.86C109.269 119.738 109.188 120.615 109.018 121.477C108.862 122.281 108.653 123.074 108.392 123.852C108.136 124.634 107.852 125.416 107.553 126.198C107.255 126.981 106.942 127.791 106.643 128.659L106.615 128.673ZM137.576 134.362C136.813 135.375 135.972 136.326 135.059 137.206C134.139 138.098 133.149 138.916 132.101 139.653C131.164 140.327 130.164 140.908 129.114 141.388C128.283 141.788 127.377 142.011 126.455 142.042C126.097 142.055 125.741 141.992 125.41 141.858C125.079 141.723 124.781 141.519 124.535 141.26C123.976 140.486 123.718 139.536 123.809 138.586C123.846 137.535 123.994 136.491 124.25 135.471C123.789 136.281 123.256 137.047 122.657 137.761C122.01 138.552 121.275 139.268 120.467 139.894C119.633 140.543 118.708 141.065 117.722 141.445C116.665 141.851 115.541 142.054 114.408 142.042C113.881 142.041 113.355 141.975 112.844 141.843C112.361 141.712 111.914 141.474 111.536 141.146C111.13 140.785 110.818 140.331 110.625 139.823C110.379 139.159 110.264 138.454 110.284 137.747C110.284 137.747 110.284 137.42 110.384 136.851C110.521 135.935 110.73 135.031 111.009 134.149C111.365 132.911 111.905 131.304 112.645 129.37C113.384 127.436 114.423 125.103 115.76 122.259C115.99 121.623 116.377 121.056 116.883 120.609C117.195 120.388 117.552 120.24 117.929 120.176C118.306 120.112 118.692 120.134 119.059 120.239C119.306 120.308 119.541 120.414 119.756 120.552C119.965 120.697 120.14 120.887 120.268 121.107C120.4 121.341 120.469 121.606 120.467 121.875C120.469 122.063 120.44 122.25 120.382 122.429C120.256 122.879 120.08 123.314 119.856 123.724L118.917 125.558C118.561 126.241 118.177 126.981 117.779 127.777C117.381 128.573 116.997 129.398 116.656 130.252C116.292 131.115 115.979 131.998 115.717 132.897C115.48 133.736 115.342 134.6 115.304 135.471C115.296 135.809 115.38 136.144 115.546 136.438C115.627 136.579 115.746 136.694 115.889 136.77C116.033 136.845 116.195 136.878 116.357 136.865C117.457 136.856 118.524 136.492 119.4 135.827C120.407 135.087 121.307 134.211 122.074 133.224C122.908 132.175 123.65 131.057 124.293 129.882C124.961 128.687 125.516 127.592 125.957 126.611C126.277 125.918 126.552 125.205 126.782 124.477C127 123.767 127.257 123.069 127.55 122.387C127.792 121.811 128.118 121.274 128.517 120.794C128.685 120.581 128.902 120.412 129.15 120.3C129.397 120.189 129.668 120.139 129.939 120.154C130.213 120.138 130.487 120.191 130.735 120.308C130.983 120.425 131.199 120.601 131.361 120.822C131.707 121.28 131.887 121.842 131.873 122.415C131.839 122.903 131.729 123.383 131.546 123.837C131.319 124.449 131.048 125.146 130.707 125.942C130.366 126.739 130.01 127.564 129.612 128.445C129.214 129.327 128.858 130.252 128.517 131.176C128.194 132.061 127.919 132.964 127.692 133.878C127.476 134.681 127.361 135.508 127.351 136.339C127.351 137.036 127.72 137.377 128.432 137.377C129.093 137.339 129.738 137.16 130.323 136.851C131.164 136.465 131.961 135.988 132.698 135.429C133.579 134.753 134.406 134.011 135.173 133.21C136.005 132.342 136.744 131.388 137.377 130.365L137.619 134.319L137.576 134.362Z" fill="white" stroke="white" stroke-width="0.26" stroke-miterlimit="10"/>
<path d="M138.344 132.911C138.16 133.352 137.989 133.878 137.804 134.475C137.645 134.987 137.559 135.518 137.548 136.054C137.54 136.296 137.594 136.536 137.704 136.751C137.763 136.846 137.848 136.922 137.949 136.97C138.05 137.017 138.163 137.035 138.273 137.021C138.721 136.99 139.157 136.864 139.553 136.651C140.135 136.37 140.696 136.047 141.232 135.684C141.829 135.3 142.44 134.831 143.095 134.262C143.749 133.693 144.375 133.224 145.015 132.669C145.655 132.115 146.266 131.56 146.849 131.005L148.428 129.54C148.548 129.402 148.706 129.303 148.883 129.256C149.032 129.194 149.191 129.161 149.352 129.156C149.511 129.156 149.667 129.193 149.808 129.265C149.949 129.336 150.07 129.441 150.163 129.569C150.389 129.882 150.499 130.264 150.476 130.65C150.466 131.143 150.349 131.628 150.135 132.072C149.842 132.625 149.435 133.11 148.94 133.494C147.888 134.646 146.835 135.727 145.768 136.751C144.769 137.722 143.71 138.629 142.597 139.467C141.617 140.201 140.564 140.83 139.454 141.345C138.501 141.791 137.463 142.029 136.41 142.042C135.835 142.062 135.262 141.955 134.732 141.729C134.304 141.529 133.933 141.226 133.651 140.847C133.367 140.457 133.168 140.011 133.068 139.539C132.952 139.016 132.895 138.481 132.897 137.946C132.906 136.959 133.025 135.976 133.253 135.016C133.476 134.083 133.761 133.166 134.106 132.271C134.675 130.763 135.258 129.256 135.856 127.763C136.453 126.269 136.979 124.918 137.477 123.667L144.901 104.964C145.104 104.316 145.52 103.754 146.081 103.371C146.534 103.073 147.061 102.91 147.603 102.902C148.122 102.888 148.628 103.065 149.025 103.4C149.235 103.599 149.396 103.844 149.497 104.115C149.598 104.386 149.636 104.676 149.608 104.964C149.601 105.344 149.529 105.719 149.395 106.074C149.243 106.5 149.068 106.918 148.869 107.325C148.471 108.235 147.973 109.345 147.447 110.667C146.92 111.99 146.28 113.412 145.626 114.934C144.972 116.456 144.318 118.106 143.635 119.784C142.952 121.462 142.298 123.083 141.644 124.676C140.99 126.269 140.364 127.72 139.809 129.142C139.255 130.564 138.743 131.802 138.387 132.854L138.344 132.911Z" fill="white" stroke="white" stroke-width="0.26" stroke-miterlimit="10"/>
<path d="M173.132 127.72C173.336 127.578 173.55 127.449 173.772 127.336C173.943 127.244 174.133 127.196 174.327 127.194C174.494 127.186 174.661 127.227 174.805 127.313C174.949 127.399 175.065 127.526 175.137 127.677C175.331 128.04 175.424 128.447 175.408 128.858C175.406 129.387 175.295 129.91 175.08 130.394C174.868 130.909 174.525 131.36 174.085 131.702C172.336 133.253 170.771 134.675 169.406 135.969C168.04 137.263 166.732 138.259 165.495 139.183C164.389 140.026 163.191 140.742 161.925 141.317C160.743 141.821 159.47 142.077 158.184 142.07C157.172 142.124 156.171 141.839 155.34 141.26C155.008 140.99 154.744 140.646 154.569 140.256C154.394 139.866 154.312 139.44 154.33 139.013V138.799C154.317 138.719 154.317 138.637 154.33 138.557C154.437 137.843 154.694 137.16 155.084 136.552C155.566 135.733 156.098 134.944 156.677 134.191C157.303 133.366 157.971 132.556 158.668 131.717C159.365 130.877 160.09 130.095 160.616 129.341C161.152 128.687 161.65 128.003 162.11 127.293C162.418 126.846 162.604 126.327 162.65 125.786C162.655 125.681 162.636 125.576 162.594 125.48C162.552 125.384 162.489 125.299 162.408 125.231C162.17 125.071 161.883 125 161.598 125.032C160.894 125.045 160.203 125.22 159.578 125.544C158.831 125.924 158.137 126.403 157.516 126.966C156.807 127.548 156.146 128.185 155.539 128.872C154.893 129.603 154.285 130.367 153.719 131.162C153.15 131.958 152.638 132.755 152.168 133.565C151.699 134.376 151.315 135.116 150.988 135.784C150.888 136.012 150.746 136.31 150.561 136.694L149.978 138.003L149.31 139.496C149.068 140.008 148.855 140.492 148.656 140.918L148.129 142.141C147.973 142.511 147.859 142.753 147.788 142.881C147.717 143.009 147.575 143.393 147.39 143.877C147.205 144.36 146.977 144.929 146.736 145.583C146.494 146.237 146.224 146.906 145.968 147.631L145.2 149.665C144.972 150.305 144.759 150.86 144.574 151.357C144.389 151.855 144.275 152.168 144.232 152.339C144.075 152.827 143.88 153.303 143.649 153.761C143.45 154.185 143.197 154.582 142.896 154.941C142.624 155.272 142.29 155.548 141.914 155.752C141.537 155.965 141.11 156.073 140.677 156.065C140.17 156.077 139.671 155.928 139.255 155.638C139.037 155.436 138.871 155.184 138.77 154.905C138.668 154.626 138.635 154.326 138.672 154.031C138.676 153.628 138.729 153.227 138.828 152.837C138.918 152.426 139.037 152.022 139.184 151.628C139.34 151.229 139.482 150.845 139.639 150.461C139.795 150.077 139.937 149.722 140.065 149.381C140.961 147.432 141.857 145.498 142.768 143.549C143.678 141.601 144.574 139.667 145.413 137.761C146.252 135.855 147.034 133.964 147.76 132.072C148.485 130.181 149.082 128.46 149.552 126.781C149.68 126.426 149.864 125.942 150.092 125.359C150.315 124.711 150.571 124.075 150.86 123.453C151.13 122.882 151.464 122.343 151.856 121.846C151.989 121.649 152.167 121.485 152.374 121.367C152.581 121.248 152.812 121.179 153.05 121.164C153.306 121.141 153.563 121.17 153.807 121.248C154.051 121.327 154.277 121.452 154.472 121.619C154.786 121.985 154.945 122.46 154.913 122.941C154.928 123.126 154.928 123.311 154.913 123.496C154.913 123.738 154.913 124.008 154.8 124.293C154.686 124.577 154.686 124.833 154.643 125.089C154.6 125.278 154.543 125.463 154.472 125.644C155.084 124.975 155.738 124.335 156.435 123.681C157.125 123.045 157.856 122.455 158.625 121.917C159.346 121.41 160.118 120.981 160.929 120.637C161.676 120.318 162.478 120.149 163.29 120.14C163.835 120.143 164.376 120.224 164.897 120.381C165.41 120.519 165.892 120.75 166.32 121.064C166.742 121.356 167.092 121.74 167.344 122.188C167.613 122.675 167.751 123.224 167.742 123.781C167.694 124.657 167.467 125.514 167.073 126.298C166.657 127.289 166.153 128.241 165.566 129.142C164.954 130.053 164.3 130.949 163.603 131.802C162.906 132.655 162.181 133.452 161.626 134.163L160.076 135.955C159.794 136.245 159.571 136.588 159.422 136.965C159.42 137.07 159.44 137.174 159.479 137.272C159.518 137.369 159.576 137.458 159.649 137.533C159.859 137.698 160.124 137.775 160.389 137.747C160.825 137.688 161.243 137.532 161.612 137.292C162.404 136.8 163.164 136.258 163.888 135.67C164.855 134.902 166.092 133.878 167.585 132.584C169.079 131.29 170.942 129.74 173.132 127.72Z" fill="white" stroke="white" stroke-width="0.26" stroke-miterlimit="10"/>
</g>
<defs>
<clipPath id="clip0_303_17129">
<rect width="142.222" height="142.222" fill="white" transform="translate(57.4058 56.6089)"/>
</clipPath>
</defs>
</svg>
