<svg width="257" height="257" viewBox="0 0 257 257" fill="none" xmlns="http://www.w3.org/2000/svg">
<rect x="0.776123" y="1.28223" width="255" height="255" rx="31.5" fill="white"/>
<rect x="0.776123" y="1.28223" width="255" height="255" rx="31.5" stroke="#878787"/>
<g clip-path="url(#clip0_303_17140)">
<path d="M57.5575 57.094H199.78V199.316H57.5575V57.094Z" fill="#6B6B6B"/>
<path d="M138.198 169.165V124.365C138.198 124.365 141.042 113.642 102.301 128.746C102.301 128.945 102.301 87.3304 102.301 87.3304L114.973 87.2451V113.983C114.973 113.983 150.528 100.002 150.528 124.578V169.165H138.198ZM145.422 103.387H131.968C136.818 97.4709 141.198 87.3304 141.198 87.3304H155.094C155.094 87.3304 152.718 93.9296 145.422 103.387ZM102.471 169.08V143.579L115.271 156.379L102.471 169.08Z" fill="white"/>
</g>
<defs>
<clipPath id="clip0_303_17140">
<rect width="142.222" height="142.222" fill="white" transform="translate(57.5575 57.094)"/>
</clipPath>
</defs>
</svg>
