<svg width="257" height="256" viewBox="0 0 257 256" fill="none" xmlns="http://www.w3.org/2000/svg">
<rect x="0.776123" y="0.5" width="255" height="255" rx="31.5" fill="white"/>
<rect x="0.776123" y="0.5" width="255" height="255" rx="31.5" stroke="#878787"/>
<g clip-path="url(#clip0_303_17117)">
<path d="M116.496 115.044C132.965 105.899 155.508 93.3689 155.508 56.8889H128.201C128.201 77.2978 118.245 82.816 103.227 91.1787C86.7574 100.324 64.2009 112.853 64.2009 149.333H91.5076C91.5076 128.924 101.449 123.406 116.496 115.044Z" fill="#707070"/>
<path d="M163.756 106.667C163.756 127.076 153.801 132.594 138.782 140.957C122.327 150.101 99.7565 162.631 99.7565 199.111H127.077C127.077 178.702 137.033 173.184 152.052 164.821C168.521 155.677 191.077 143.147 191.077 106.667H163.756Z" fill="#707070"/>
</g>
<defs>
<clipPath id="clip0_303_17117">
<rect width="126.876" height="142.222" fill="white" transform="translate(64.2009 56.8889)"/>
</clipPath>
</defs>
</svg>
