<svg width="256" height="256" viewBox="0 0 256 256" fill="none" xmlns="http://www.w3.org/2000/svg">
<rect x="0.5" y="0.5" width="255" height="255" rx="31.5" fill="white"/>
<rect x="0.5" y="0.5" width="255" height="255" rx="31.5" stroke="#878787"/>
<g clip-path="url(#clip0_303_17139)">
<path d="M76.6649 184.889L65.2871 56.8889H190.713L179.335 184.889L127.865 199.111" fill="#767676"/>
<path d="M127.993 188.217V67.3992H179.264L169.479 176.64" fill="#888888"/>
<path d="M88.5831 83.0579H127.993V98.7023H105.806L107.228 114.773H127.993V130.418H92.8782L88.5831 83.0579ZM93.5609 138.368H109.376L110.485 150.926L128.036 155.62V172.004L95.7796 163.015" fill="#EBEBEB"/>
<path d="M167.275 83.0579H127.865V98.7023H165.81L167.275 83.0579ZM164.43 114.83H127.865V130.475H147.292L145.458 150.926L127.865 155.62V171.933L160.021 163.015" fill="white"/>
</g>
<defs>
<clipPath id="clip0_303_17139">
<rect width="125.426" height="142.222" fill="white" transform="translate(65.2871 56.8889)"/>
</clipPath>
</defs>
</svg>
