<svg width="256" height="257" viewBox="0 0 256 257" fill="none" xmlns="http://www.w3.org/2000/svg">
<rect x="0.5" y="0.68811" width="255" height="255" rx="31.5" fill="white"/>
<rect x="0.5" y="0.68811" width="255" height="255" rx="31.5" stroke="#878787"/>
<g clip-path="url(#clip0_303_17159)">
<path d="M63.212 64.2084H193.573V191.014H63.212V64.2084Z" fill="url(#paint0_radial_303_17159)"/>
<path d="M63.212 64.2084H193.573V191.014H63.212V64.2084ZM57.2814 196.944H199.504V58.2777H57.2814V196.944ZM147.237 115.878C146.126 115.433 144.934 115.229 143.738 115.28C136.101 115.28 130.768 121.154 130.768 130.925C130.768 142.075 136.215 146.569 143.027 146.569C144.483 146.63 145.936 146.388 147.294 145.858L147.237 115.878ZM144.037 106.221C145.086 106.201 146.135 106.239 147.18 106.335V90.5764C147.176 90.4969 147.189 90.4174 147.217 90.343C147.246 90.2687 147.29 90.2012 147.346 90.1449C147.402 90.0886 147.47 90.0448 147.544 90.0162C147.618 89.9876 147.698 89.975 147.777 89.979H157.377C157.847 89.979 157.96 90.1639 157.96 90.4626V145.929C157.928 147.906 158.028 149.882 158.259 151.846C158.259 152.258 158.145 152.329 157.733 152.557C152.879 154.859 147.574 156.054 142.202 156.055C129.16 156.055 119.859 147.878 119.859 131.408C119.859 117.186 129.16 106.221 144.151 106.221H144.037ZM109.306 154.391C109.306 154.989 109.192 155.174 108.538 155.174H99.4218C98.8245 155.174 98.6396 154.875 98.6396 154.391V90.747C98.6396 90.1639 98.9383 89.979 99.4218 89.979H108.595C109.079 89.979 109.306 90.1639 109.306 90.6902V154.391Z" fill="#828282"/>
</g>
<defs>
<radialGradient id="paint0_radial_303_17159" cx="0" cy="0" r="1" gradientUnits="userSpaceOnUse" gradientTransform="translate(103.853 93.2359) scale(99.0862 95.9289)">
<stop stop-color="#363636" stop-opacity="0.98"/>
<stop offset="1" stop-color="#0D0D0D"/>
</radialGradient>
<clipPath id="clip0_303_17159">
<rect width="142.222" height="138.667" fill="white" transform="translate(57.2814 58.2777)"/>
</clipPath>
</defs>
</svg>
