<svg width="257" height="256" viewBox="0 0 257 256" fill="none" xmlns="http://www.w3.org/2000/svg">
<rect x="1.36548" y="0.5" width="255" height="255" rx="31.5" fill="white"/>
<rect x="1.36548" y="0.5" width="255" height="255" rx="31.5" stroke="#878787"/>
<g clip-path="url(#clip0_303_17175)">
<path d="M199.881 130.687C199.899 119.847 197.142 109.184 191.873 99.7109C213.605 50.4736 168.592 57.7411 166.089 58.2247C156.937 60.021 148.038 62.9297 139.593 66.886C138.398 66.886 137.189 66.7865 135.966 66.7865C121.509 66.8002 107.483 71.708 96.1717 80.7106C84.8603 89.7132 76.9301 102.28 73.6726 116.365C89.6868 98.4025 100.88 91.1491 107.593 88.262C106.526 89.2149 105.473 90.182 104.435 91.1065L103.425 92.0878L101.406 94.0647C101.008 94.4487 100.624 94.8469 100.24 95.2451L98.4903 97.0371C98.0779 97.478 97.6939 97.9047 97.2814 98.3313C96.869 98.758 96.2148 99.4691 95.6886 100.052L94.4939 101.403C93.5979 102.413 92.7019 103.437 91.8201 104.461C91.365 105.002 90.9099 105.542 90.469 106.097C90.0281 106.651 89.6726 107.05 89.2886 107.519C88.9046 107.988 88.4494 108.543 88.037 109.069L86.8566 110.491L85.7757 111.914C85.3632 112.44 84.9508 112.98 84.5526 113.521L83.7134 114.658C81.3051 117.949 79.0011 121.305 76.8014 124.728C76.261 125.567 75.7348 126.406 75.2086 127.259L75.1232 127.387C74.6112 128.212 74.0992 129.037 73.6014 129.876V129.962C72.312 132.152 71.0794 134.304 69.9037 136.418C66.5965 142.265 63.6977 148.334 61.2281 154.58C43.0521 219.562 99.7846 192.113 107.692 188.017C115.787 191.997 124.632 194.221 133.647 194.544C142.661 194.866 151.642 193.279 160.001 189.887C168.359 186.494 175.906 181.374 182.146 174.86C188.387 168.346 193.18 160.587 196.211 152.091H162.618C159.948 156.446 156.193 160.032 151.72 162.5C147.248 164.968 142.211 166.233 137.104 166.171C120.99 166.171 107.948 153.969 107.948 138.922H199.354C199.703 136.19 199.879 133.44 199.881 130.687ZM187.948 67.7962C193.452 71.5082 197.904 77.3536 190.281 96.9945C182.931 85.1976 171.951 76.1045 158.992 71.0816C164.908 68.2371 179.557 62.1927 187.877 67.7962H187.948ZM70.9846 187.889C66.4903 183.295 65.7081 172.102 75.5926 151.693C80.5761 165.956 90.4323 178.003 103.425 185.713C97.0254 189.226 80.0157 197.09 70.9846 187.889ZM107.806 121.442C108.318 106.822 121.047 95.1029 136.677 95.1029C152.307 95.1029 165.121 106.822 165.562 121.442H107.806Z" fill="#929292"/>
</g>
<defs>
<clipPath id="clip0_303_17175">
<rect width="142.222" height="139.676" fill="white" transform="translate(57.6584 57.5847)"/>
</clipPath>
</defs>
</svg>
