<svg width="257" height="257" viewBox="0 0 257 257" fill="none" xmlns="http://www.w3.org/2000/svg">
<rect x="0.537231" y="0.688232" width="255" height="255" rx="31.5" fill="white"/>
<rect x="0.537231" y="0.688232" width="255" height="255" rx="31.5" stroke="#878787"/>
<g clip-path="url(#clip0_303_17132)">
<path d="M128.578 195.11C141.928 195.11 154.979 191.151 166.079 183.734C177.179 176.317 185.83 165.776 190.939 153.442C196.048 141.108 197.385 127.536 194.78 114.443C192.176 101.349 185.747 89.3222 176.307 79.8824C166.867 70.4425 154.84 64.0139 141.747 61.4094C128.653 58.805 115.082 60.1417 102.748 65.2505C90.414 70.3593 79.8721 79.0108 72.4553 90.1109C65.0384 101.211 61.0797 114.261 61.0797 127.611C61.0797 145.513 68.1912 162.681 80.8496 175.34C87.1174 181.608 94.5584 186.58 102.748 189.972C110.937 193.364 119.714 195.11 128.578 195.11Z" fill="white"/>
<path d="M128.578 56.5C114.514 56.5 100.765 60.6706 89.0712 68.4844C77.377 76.2982 68.2626 87.4042 62.8803 100.398C57.4981 113.392 56.0899 127.69 58.8337 141.484C61.5775 155.278 68.3502 167.949 78.2953 177.894C88.2403 187.839 100.911 194.612 114.705 197.356C128.5 200.1 142.798 198.691 155.791 193.309C168.785 187.927 179.891 178.812 187.705 167.118C195.519 155.424 199.69 141.676 199.69 127.611C199.69 108.751 192.197 90.6639 178.862 77.328C165.526 63.992 147.438 56.5 128.578 56.5ZM128.578 63.7249C141.214 63.7249 153.566 67.4717 164.072 74.4917C174.578 81.5116 182.766 91.4892 187.602 103.163C192.437 114.837 193.702 127.682 191.237 140.075C188.772 152.467 182.687 163.851 173.753 172.785C164.818 181.72 153.435 187.805 141.042 190.27C128.649 192.735 115.804 191.47 104.13 186.634C92.4565 181.799 82.4789 173.61 75.459 163.104C68.4391 152.598 64.6922 140.247 64.6922 127.611C64.6922 110.667 71.4231 94.4177 83.404 82.4367C95.385 70.4557 111.635 63.7249 128.578 63.7249Z" fill="#282828"/>
<path fill-rule="evenodd" clip-rule="evenodd" d="M129.375 76.9942C140.219 77.0054 150.773 80.5022 159.479 86.9686C168.185 93.435 174.581 102.528 177.725 112.907C180.869 123.286 180.593 134.401 176.939 144.611C173.284 154.821 166.445 163.586 157.429 169.613C148.413 175.64 137.699 178.609 126.868 178.083C116.036 177.557 105.66 173.562 97.2714 166.69C88.8827 159.817 82.9252 150.43 80.2781 139.914C77.6309 129.397 78.4343 118.308 82.5696 108.283C84.2444 110.578 86.396 112.482 88.8767 113.867C91.3574 115.251 94.1083 116.082 96.9406 116.302C99.7728 116.523 102.619 116.128 105.284 115.144C107.949 114.16 110.37 112.612 112.38 110.604C114.389 108.596 115.941 106.177 116.927 103.513C117.914 100.849 118.312 98.0032 118.094 95.1708C117.877 92.3383 117.048 89.5866 115.667 87.1044C114.285 84.6223 112.382 82.4687 110.09 80.7915C116.208 78.2767 122.76 76.9865 129.375 76.9942Z" fill="url(#paint0_linear_303_17132)"/>
</g>
<defs>
<linearGradient id="paint0_linear_303_17132" x1="129.389" y1="178.242" x2="129.389" y2="76.9942" gradientUnits="userSpaceOnUse">
<stop stop-color="#3C3C3C"/>
<stop offset="1" stop-color="#282828"/>
</linearGradient>
<clipPath id="clip0_303_17132">
<rect width="142.222" height="142.222" fill="white" transform="translate(57.4673 56.5)"/>
</clipPath>
</defs>
</svg>
