<svg width="257" height="257" viewBox="0 0 257 257" fill="none" xmlns="http://www.w3.org/2000/svg">
<rect x="1.08948" y="1.39111" width="255" height="255" rx="31.5" fill="white"/>
<rect x="1.08948" y="1.39111" width="255" height="255" rx="31.5" stroke="#878787"/>
<g clip-path="url(#clip0_303_17182)">
<path d="M186.313 57.2031H69.8894C66.4682 57.2031 63.1872 58.5622 60.7681 60.9813C58.3489 63.4005 56.9899 66.6815 56.9899 70.1027V186.526C56.9899 189.947 58.3489 193.228 60.7681 195.647C63.1872 198.066 66.4682 199.425 69.8894 199.425H186.313C189.734 199.425 193.015 198.066 195.434 195.647C197.853 193.228 199.212 189.947 199.212 186.526V70.1027C199.212 66.6815 197.853 63.4005 195.434 60.9813C193.015 58.5622 189.734 57.2031 186.313 57.2031Z" fill="#6E6E6E"/>
<path d="M104.52 101.946C106.201 101.915 107.835 101.389 109.218 100.433C110.601 99.4765 111.67 98.1332 112.292 96.5715C112.914 95.0098 113.061 93.2991 112.714 91.6543C112.367 90.0094 111.542 88.5036 110.343 87.3258C109.144 86.148 107.623 85.3507 105.972 85.0339C104.321 84.7171 102.614 84.895 101.063 85.5452C99.5132 86.1954 98.1896 87.289 97.2587 88.6887C96.3278 90.0884 95.831 91.7319 95.8307 93.4129C95.8305 94.5468 96.0563 95.6694 96.4949 96.715C96.9335 97.7606 97.5761 98.7084 98.3851 99.5029C99.1942 100.297 100.153 100.923 101.207 101.342C102.26 101.762 103.387 101.967 104.52 101.946ZM86.5009 147.799C86.0073 149.906 85.7497 152.062 85.7329 154.227C85.7329 161.765 89.8289 166.771 98.5329 166.771C105.729 166.771 111.575 162.504 115.784 155.578L113.21 165.889H127.504L135.681 133.093C137.729 124.787 141.697 120.478 147.699 120.478C152.421 120.478 155.365 123.422 155.365 128.272C155.387 129.826 155.171 131.376 154.725 132.865L150.458 147.941C149.868 150.018 149.571 152.167 149.576 154.327C149.576 161.438 153.843 166.728 162.604 166.728C170.142 166.728 176.144 161.864 179.472 150.245L173.783 148.069C170.938 155.863 168.549 157.271 166.672 157.271C164.794 157.271 163.742 155.991 163.742 153.445C163.796 152.101 164.011 150.769 164.382 149.477L168.464 134.785C169.391 131.767 169.871 128.628 169.886 125.47C169.886 114.49 163.244 108.744 155.194 108.744C147.656 108.744 139.991 115.557 136.151 122.711L138.995 109.911H117.164L114.092 121.203H124.318L118.017 146.376C113.082 157.37 103.994 157.541 102.856 157.285C100.993 156.858 99.7987 156.161 99.7987 153.729C99.8559 151.747 100.157 149.779 100.695 147.87L110.266 109.825H85.9889L82.9312 121.203H93.0147L86.5009 147.799Z" fill="white"/>
</g>
<defs>
<clipPath id="clip0_303_17182">
<rect width="142.222" height="142.222" fill="white" transform="translate(56.9899 57.2031)"/>
</clipPath>
</defs>
</svg>
