<svg width="257" height="257" viewBox="0 0 257 257" fill="none" xmlns="http://www.w3.org/2000/svg">
<rect x="0.604492" y="1.28223" width="255" height="255" rx="31.5" fill="white"/>
<rect x="0.604492" y="1.28223" width="255" height="255" rx="31.5" stroke="#878787"/>
<g clip-path="url(#clip0_303_17135)">
<path fill-rule="evenodd" clip-rule="evenodd" d="M192.247 97.92L192.83 99.2711C199.205 113.248 200.883 128.913 197.612 143.922C194.341 158.932 186.298 172.479 174.686 182.536C163.074 192.593 148.517 198.619 133.194 199.713C117.871 200.807 102.606 196.909 89.6835 188.603C76.7606 180.297 66.8749 168.03 61.5055 153.637C56.1362 139.244 55.572 123.5 59.8974 108.76C64.2228 94.0192 73.2052 81.0759 85.5005 71.8666C97.7957 62.6572 112.743 57.677 128.104 57.6711C139.398 57.6684 150.535 60.3186 160.616 65.408L162.039 66.0907L160.816 67.0578C157.944 69.3352 155.686 72.2925 154.245 75.6623L153.861 76.6294L152.979 76.2454C141.596 70.8595 128.772 69.3159 116.437 71.8467C104.101 74.3776 92.9205 80.8461 84.578 90.2789C76.2355 99.7118 71.1819 111.599 70.1776 124.151C69.1734 136.704 72.2727 149.243 79.0094 159.882C85.746 170.522 95.7556 178.685 107.532 183.145C119.308 187.605 132.215 188.12 144.309 184.613C156.403 181.105 167.032 173.765 174.595 163.696C182.157 153.627 186.246 141.375 186.245 128.782C186.271 121.141 184.763 113.572 181.808 106.524L181.409 105.557L182.376 105.173C185.792 103.894 188.847 101.805 191.28 99.0862L192.247 97.92ZM174.64 99.2711C177.568 99.2711 180.43 98.4028 182.865 96.776C185.3 95.1492 187.197 92.8369 188.318 90.1316C189.438 87.4262 189.732 84.4494 189.16 81.5774C188.589 78.7055 187.179 76.0674 185.109 73.9969C183.038 71.9263 180.4 70.5162 177.528 69.945C174.656 69.3737 171.679 69.6669 168.974 70.7875C166.268 71.908 163.956 73.8057 162.329 76.2404C160.703 78.6751 159.834 81.5376 159.834 84.4658C159.834 88.3924 161.394 92.1582 164.171 94.9348C166.947 97.7113 170.713 99.2711 174.64 99.2711ZM128.104 96.3698C121.694 96.3698 115.427 98.2708 110.097 101.832C104.767 105.394 100.613 110.456 98.1593 116.379C95.7061 122.301 95.0642 128.818 96.3148 135.106C97.5655 141.393 100.652 147.168 105.185 151.701C109.718 156.234 115.494 159.321 121.781 160.572C128.069 161.823 134.586 161.181 140.508 158.727C146.431 156.274 151.493 152.12 155.054 146.79C158.616 141.459 160.517 135.193 160.517 128.782C160.517 124.526 159.679 120.311 158.05 116.379C156.421 112.446 154.033 108.873 151.024 105.863C148.014 102.853 144.441 100.466 140.508 98.8371C136.576 97.2082 132.361 96.3698 128.104 96.3698Z" fill="#787878"/>
</g>
<defs>
<clipPath id="clip0_303_17135">
<rect width="142.222" height="142.222" fill="white" transform="translate(56.9934 57.6711)"/>
</clipPath>
</defs>
</svg>
