<svg width="257" height="257" viewBox="0 0 257 257" fill="none" xmlns="http://www.w3.org/2000/svg">
<rect x="1.05225" y="0.797119" width="255" height="255" rx="31.5" fill="white"/>
<rect x="1.05225" y="0.797119" width="255" height="255" rx="31.5" stroke="#878787"/>
<g clip-path="url(#clip0_303_17114)">
<path d="M128.308 57.6086C114.244 57.6086 100.495 61.7792 88.8008 69.593C77.1066 77.4068 67.9921 88.5128 62.6099 101.507C57.2276 114.501 55.8194 128.799 58.5633 142.593C61.3071 156.387 68.0798 169.058 78.0248 179.003C87.9699 188.948 100.641 195.721 114.435 198.464C128.229 201.208 142.527 199.8 155.521 194.418C168.515 189.036 179.621 179.921 187.435 168.227C195.248 156.533 199.419 142.784 199.419 128.72V57.6086H128.308Z" fill="#585858"/>
<path d="M124.439 132.588V184.428C111.095 183.642 98.4896 178.037 88.9655 168.657C79.4414 159.277 73.6461 146.758 72.6564 133.427V132.588H124.439ZM174.971 132.588C173.549 160.179 153.41 182.366 128.223 184.371H127.455V132.588H174.971ZM174.971 81.9856V129.573H127.455V81.9856H174.971Z" fill="white"/>
</g>
<defs>
<clipPath id="clip0_303_17114">
<rect width="142.222" height="142.222" fill="white" transform="translate(57.1968 57.6086)"/>
</clipPath>
</defs>
</svg>
