<svg width="257" height="257" viewBox="0 0 257 257" fill="none" xmlns="http://www.w3.org/2000/svg">
<rect x="1.08948" y="0.985107" width="255" height="255" rx="31.5" fill="white"/>
<rect x="1.08948" y="0.985107" width="255" height="255" rx="31.5" stroke="#878787"/>
<g clip-path="url(#clip0_303_17206)">
<path d="M110.315 166.792C110.315 166.792 104.882 169.949 114.184 171.058C125.462 172.338 131.25 172.153 143.638 169.807C146.131 171.303 148.748 172.583 151.46 173.632C123.627 185.565 88.4556 172.936 110.315 166.834V166.792ZM106.916 151.147C106.916 151.147 100.815 155.656 110.13 156.623C122.177 157.86 131.677 157.96 148.132 154.788C149.813 156.369 151.803 157.585 153.977 158.358C120.313 168.2 82.8663 159.14 106.916 151.147Z" fill="#777777"/>
<path d="M135.602 124.808C142.457 132.701 133.796 139.812 133.796 139.812C133.796 139.812 151.218 130.752 143.211 119.56C135.744 109.049 130.013 103.83 161.032 85.8386C161.032 85.8386 112.349 97.9986 135.602 124.808Z" fill="#878787"/>
<path d="M172.424 178.297C172.424 178.297 176.449 181.611 167.986 184.185C151.915 189.064 101.099 190.486 86.9907 184.37C81.9134 182.166 91.4281 179.108 94.429 178.454C96.0208 178.068 97.6553 177.886 99.293 177.913C93.6041 173.931 62.8272 185.721 83.6485 189.092C140.438 198.294 187.144 184.939 172.424 178.297ZM112.932 135.019C112.932 135.019 87.0903 141.163 103.773 143.396C110.884 144.335 124.879 144.121 137.906 143.026C148.616 142.13 159.353 140.182 159.353 140.182C157.096 141.159 154.922 142.32 152.854 143.652C126.657 150.664 75.9543 147.435 90.5463 140.367C97.4785 136.834 105.152 135.001 112.932 135.019ZM159.297 160.946C185.992 147.08 173.647 133.753 164.985 135.545C163.946 135.737 162.923 136.013 161.928 136.37C162.493 135.568 163.285 134.954 164.203 134.607C181.27 128.619 194.34 152.271 158.713 161.629C158.933 161.434 159.112 161.197 159.24 160.932" fill="#777777"/>
<path d="M143.211 56.7969C143.211 56.7969 157.988 71.5738 129.16 94.3151C106.063 112.548 123.897 122.944 129.16 134.82C115.677 122.66 105.792 111.951 112.434 101.995C122.191 87.3747 149.17 80.2778 143.211 56.7969Z" fill="#878787"/>
<path d="M115.549 198.578C141.149 200.214 180.502 197.668 181.426 185.536C181.426 185.536 179.634 190.144 160.264 193.785C138.404 197.895 111.439 197.426 95.453 194.752C95.453 194.752 98.7241 197.469 115.549 198.55" fill="#777777"/>
</g>
<defs>
<clipPath id="clip0_303_17206">
<rect width="104.889" height="142.222" fill="white" transform="translate(76.5374 56.7969)"/>
</clipPath>
</defs>
</svg>
