<svg width="257" height="257" viewBox="0 0 257 257" fill="none" xmlns="http://www.w3.org/2000/svg">
<rect x="1.43286" y="1.28223" width="255" height="255" rx="31.5" fill="white"/>
<rect x="1.43286" y="1.28223" width="255" height="255" rx="31.5" stroke="#878787"/>
<g clip-path="url(#clip0_303_17133)">
<path d="M185.653 127.124C185.653 123.612 184.258 120.245 181.774 117.761C179.291 115.278 175.923 113.883 172.412 113.883C171.942 113.883 171.473 113.883 170.989 113.883L189.208 60.3224H111.939L130.086 113.983C129.821 113.969 129.555 113.969 129.29 113.983C126.131 113.982 123.075 115.111 120.676 117.166C118.276 119.221 116.69 122.066 116.204 125.187C115.718 128.309 116.364 131.501 118.026 134.188C119.688 136.875 122.255 138.879 125.265 139.839C122.448 144.686 118.941 149.099 114.854 152.938C109.553 158.009 103.257 161.927 96.3654 164.443C88.2872 160.29 84.4614 151.06 87.9032 142.968C88.3014 142.043 88.6997 141.119 89.0694 140.123C92.0218 139.433 94.648 137.751 96.509 135.357C98.37 132.963 99.3531 130.004 99.2941 126.972C99.235 123.941 98.1374 121.021 96.1847 118.702C94.2319 116.383 91.5423 114.804 88.5652 114.229C85.5882 113.654 82.5041 114.119 79.8284 115.545C77.1527 116.971 75.0474 119.272 73.8643 122.063C72.6813 124.855 72.4922 127.968 73.3286 130.883C74.165 133.797 75.9762 136.336 78.4597 138.075C75.1174 145.513 70.3103 153.322 68.8028 162.338C67.0108 173.19 68.8028 184.696 78.1752 191.195C100.021 206.342 123.686 181.809 148.732 175.65C157.791 173.418 167.747 173.773 175.754 169.151C178.63 167.511 181.112 165.261 183.024 162.558C184.936 159.855 186.231 156.765 186.819 153.506C187.343 150.39 187.236 147.201 186.503 144.127C185.77 141.054 184.426 138.159 182.552 135.615C184.557 133.225 185.65 130.201 185.638 127.081" fill="#5F5F5F"/>
<path d="M183.605 152.938C183.104 155.738 181.993 158.393 180.352 160.716C178.71 163.039 176.577 164.972 174.104 166.378C169.382 169.108 163.722 169.933 157.734 170.801C154.451 171.216 151.19 171.795 147.964 172.536C139.43 174.655 131.082 178.779 123.061 182.762C106.989 190.783 93.1086 197.638 80.0241 188.564C70.4383 181.922 70.8792 169.634 72.0454 162.893C73.0268 156.65 75.8286 150.961 78.5308 145.357C79.0001 144.404 79.4552 143.466 79.953 142.513C81.3202 143.06 82.7556 143.419 84.2197 143.579C81.4037 152.667 85.7414 162.552 94.801 167.231L96.0526 167.857L97.361 167.402C104.708 164.761 111.422 160.615 117.073 155.227C120.798 151.723 124.071 147.767 126.815 143.451C127.635 143.569 128.462 143.631 129.29 143.636C133.266 143.63 137.107 142.187 140.104 139.574C143.102 136.961 145.054 133.353 145.603 129.414C149.03 129.286 152.714 129.286 156.085 129.414C156.633 133.355 158.588 136.965 161.588 139.578C164.589 142.192 168.433 143.633 172.412 143.636C175.77 143.639 179.048 142.606 181.798 140.678C183.685 144.485 184.317 148.792 183.605 152.98V152.938ZM85.9974 117.211C88.6378 117.211 91.1701 118.26 93.0371 120.127C94.9041 121.994 95.953 124.527 95.953 127.167C95.9581 129.08 95.4045 130.954 94.3601 132.557C93.5217 133.876 92.3844 134.98 91.0403 135.778C89.6961 136.576 88.1829 137.046 86.6232 137.151H85.9406C84.7454 137.149 83.5602 136.933 82.4419 136.511C80.2826 135.691 78.4701 134.155 77.3077 132.159C76.4394 130.655 75.9877 128.946 75.9992 127.21C75.9992 124.569 77.0481 122.037 78.9151 120.17C80.7822 118.303 83.3144 117.254 85.9548 117.254L85.9974 117.211ZM119.277 127.167C119.268 124.759 120.124 122.429 121.691 120.601C123.258 118.773 125.43 117.57 127.811 117.211C128.282 117.14 128.757 117.102 129.233 117.098C131.873 117.098 134.406 118.146 136.273 120.013C138.14 121.88 139.189 124.413 139.189 127.053C139.186 127.834 139.096 128.611 138.918 129.371C138.453 131.379 137.382 133.195 135.851 134.573C134.32 135.952 132.402 136.827 130.357 137.08C130.015 137.08 129.688 137.08 129.347 137.08C126.706 137.08 124.174 136.031 122.307 134.164C120.44 132.297 119.391 129.765 119.391 127.124L119.277 127.167ZM161.034 115.263C158.855 117.341 157.29 119.978 156.511 122.886C152.742 122.744 148.959 122.744 145.133 122.886C144.291 119.788 142.567 117.001 140.17 114.865L150.524 93.9296L161.034 115.263ZM116.447 63.5651H184.714L168.572 111.138C167.875 111.297 167.19 111.506 166.524 111.764L150.609 79.2522L134.623 111.537C133.924 111.304 133.212 111.114 132.49 110.968L116.447 63.5651ZM182.41 127.124C182.409 128.088 182.265 129.047 181.983 129.969C181.54 131.203 180.857 132.338 179.975 133.309C179.093 134.28 178.028 135.067 176.841 135.627C175.655 136.186 174.37 136.506 173.059 136.569C171.749 136.631 170.439 136.435 169.205 135.992C167.97 135.548 166.835 134.866 165.864 133.984C164.893 133.101 164.106 132.036 163.546 130.85C162.987 129.663 162.667 128.378 162.604 127.068C162.542 125.757 162.738 124.448 163.181 123.213C163.437 122.603 163.756 122.021 164.134 121.478C165.046 120.12 166.278 119.007 167.721 118.238C169.165 117.469 170.776 117.067 172.412 117.069H173.35C175.832 117.293 178.14 118.44 179.818 120.284C181.495 122.127 182.42 124.532 182.41 127.025V127.124ZM188.881 127.124C188.881 123.284 187.539 119.565 185.087 116.61C182.636 113.655 179.229 111.649 175.455 110.939L193.717 57.094H107.43L125.706 111.039C122.512 111.751 119.603 113.398 117.35 115.769C115.096 118.141 113.6 121.131 113.052 124.356C112.504 127.582 112.93 130.898 114.274 133.881C115.618 136.864 117.821 139.379 120.6 141.105C118.305 144.517 115.633 147.661 112.636 150.477C108.003 154.916 102.555 158.417 96.593 160.788C93.7924 159.167 91.669 156.592 90.6113 153.534C89.5536 150.476 89.6323 147.139 90.833 144.134L91.0321 143.65L91.4019 142.769C94.7886 141.596 97.7008 139.352 99.6975 136.375C101.694 133.399 102.666 129.853 102.467 126.275C102.267 122.697 100.907 119.281 98.5922 116.545C96.2772 113.809 93.1335 111.902 89.6375 111.113C86.1415 110.324 82.4836 110.696 79.218 112.173C75.9523 113.649 73.2569 116.15 71.5399 119.296C69.823 122.442 69.1782 126.061 69.7031 129.607C70.228 133.152 71.8941 136.429 74.449 138.943C73.8801 140.138 73.297 141.332 72.7139 142.527C69.9548 148.216 66.8117 154.673 65.6028 161.841C63.2419 176.063 67.025 187.441 76.3263 193.883C81.3025 197.433 87.2664 199.333 93.3788 199.316C104.202 199.316 115.167 193.869 125.877 188.55C133.585 184.724 141.521 180.756 149.457 178.808C152.387 178.097 155.402 177.656 158.602 177.201C164.988 176.276 171.601 175.338 177.29 171.981C180.582 170.101 183.419 167.52 185.602 164.42C187.784 161.321 189.258 157.78 189.919 154.047C191.002 147.703 189.754 141.182 186.406 135.686C187.987 133.12 188.824 130.166 188.824 127.153L188.881 127.124Z" fill="white"/>
</g>
<defs>
<clipPath id="clip0_303_17133">
<rect width="128.782" height="142.222" fill="white" transform="translate(64.9343 57.094)"/>
</clipPath>
</defs>
</svg>
