<svg width="257" height="257" viewBox="0 0 257 257" fill="none" xmlns="http://www.w3.org/2000/svg">
<rect x="0.708862" y="0.797119" width="255" height="255" rx="31.5" fill="white"/>
<rect x="0.708862" y="0.797119" width="255" height="255" rx="31.5" stroke="#878787"/>
<g clip-path="url(#clip0_303_17155)">
<path d="M193.768 56.6089H125.288C125.276 64.8 128.514 72.6613 134.29 78.4684C137.163 81.3408 140.573 83.6193 144.326 85.1737C148.079 86.7282 152.102 87.5282 156.164 87.528H168.779V99.7022C168.794 107.895 172.06 115.747 177.86 121.534C183.66 127.32 191.52 130.568 199.713 130.564V62.5538C199.713 60.9771 199.086 59.465 197.971 58.3501C196.856 57.2352 195.344 56.6089 193.768 56.6089Z" fill="#757575"/>
<path d="M159.89 90.7422H91.3961C91.4036 98.9326 94.6605 106.785 100.452 112.577C106.244 118.368 114.096 121.625 122.287 121.633H134.916V133.85C134.931 142.036 138.194 149.883 143.988 155.666C149.782 161.45 157.634 164.698 165.821 164.698V96.6729C165.817 95.1011 165.191 93.5948 164.08 92.4834C162.968 91.372 161.462 90.7459 159.89 90.7422Z" fill="url(#paint0_linear_303_17155)"/>
<path d="M125.97 124.875H57.4903C57.5016 133.068 60.7641 140.922 66.5614 146.711C72.3586 152.5 80.2165 155.752 88.4094 155.752H101.067V167.94C101.071 176.125 104.321 183.973 110.104 189.764C115.887 195.555 123.731 198.816 131.915 198.831V130.778C131.904 129.208 131.273 127.707 130.159 126.602C129.045 125.496 127.54 124.875 125.97 124.875Z" fill="url(#paint1_linear_303_17155)"/>
</g>
<defs>
<linearGradient id="paint0_linear_303_17155" x1="164.143" y1="90.6426" x2="135.186" y2="120.865" gradientUnits="userSpaceOnUse">
<stop offset="0.18" stop-color="#474747"/>
<stop offset="1" stop-color="#757575"/>
</linearGradient>
<linearGradient id="paint1_linear_303_17155" x1="132.2" y1="124.947" x2="98.6921" y2="157.899" gradientUnits="userSpaceOnUse">
<stop offset="0.18" stop-color="#474747"/>
<stop offset="1" stop-color="#757575"/>
</linearGradient>
<clipPath id="clip0_303_17155">
<rect width="142.222" height="142.222" fill="white" transform="translate(57.4903 56.6089)"/>
</clipPath>
</defs>
</svg>
