<svg width="257" height="256" viewBox="0 0 257 256" fill="none" xmlns="http://www.w3.org/2000/svg">
<rect x="1.15673" y="0.5" width="255" height="255" rx="31.5" fill="white"/>
<rect x="1.15673" y="0.5" width="255" height="255" rx="31.5" stroke="#878787"/>
<g clip-path="url(#clip0_303_17164)">
<path d="M65.8798 153.721C66.0117 154.02 66.1638 154.31 66.335 154.589C66.4165 154.759 66.5067 154.925 66.6052 155.086C66.7616 155.399 66.9323 155.684 67.0887 155.982L68.0274 157.547C68.1981 157.845 68.3545 158.13 68.5536 158.414C68.8807 158.969 69.2647 159.509 69.6061 160.064C69.7625 160.306 69.9047 160.533 70.0754 160.761C70.7296 161.771 71.3127 162.61 71.9527 163.435C72.5927 164.26 72.8487 164.644 73.375 165.241L73.887 165.924L75.1954 167.502C75.3518 167.687 75.5083 167.901 75.679 168.085C76.2621 168.797 76.8878 169.508 77.4994 170.148C78.2405 171.087 79.0743 171.95 79.9883 172.722C80.4576 173.205 80.927 173.689 81.4105 174.144L82.0079 174.727C82.6621 175.339 83.3163 175.95 84.0132 176.533L84.3545 176.832C84.9519 177.358 85.5634 177.87 86.1892 178.354L86.9287 178.98C87.4407 179.392 87.9527 179.762 88.479 180.16L89.2754 180.772C89.8301 181.198 90.4132 181.597 90.9821 181.995C91.1812 182.151 91.3945 182.293 91.6079 182.436L91.7785 182.564L93.4425 183.659L94.1536 184.128C95.0212 184.683 95.8887 185.209 96.7563 185.735C97.0123 185.863 97.2541 185.991 97.4816 186.133C98.1216 186.503 98.7901 186.873 99.4301 187.214C99.7856 187.413 100.155 187.584 100.525 187.769C100.895 187.954 101.435 188.267 101.947 188.509C102.066 188.545 102.18 188.592 102.289 188.651L102.858 188.921C103.569 189.281 104.308 189.623 105.076 189.945L105.531 190.144C106.385 190.528 107.238 190.884 108.12 191.225C108.319 191.225 108.532 191.381 108.746 191.453C109.542 191.765 110.367 192.064 111.178 192.363L111.476 192.462C112.387 192.775 113.283 193.074 114.207 193.344L114.861 193.543C115.793 193.864 116.743 194.13 117.706 194.34C178.577 205.39 196.269 157.931 196.269 157.931C181.435 177.33 155.053 182.407 130.079 176.747C129.155 176.533 128.23 176.235 127.235 175.965C125.907 175.595 124.599 175.182 123.309 174.727L123.864 174.898L123.508 174.756C122.698 174.485 121.915 174.187 121.133 173.888L120.607 173.632H120.536C119.668 173.277 118.815 172.921 117.976 172.551C117.791 172.551 117.635 172.409 117.45 172.338C116.454 171.897 115.473 171.442 114.491 170.916L115.316 171.271L114.676 170.973L113.012 170.205L111.789 169.579H111.903L109.883 168.469C109.672 168.33 109.454 168.202 109.229 168.085C108.219 167.502 107.224 166.891 106.243 166.265L106.627 166.493L105.901 166.066C105.275 165.682 104.65 165.269 104.038 164.843L103.441 164.416C102.801 163.989 102.175 163.534 101.563 162.994L101.706 163.108C101.45 162.894 101.179 162.709 100.923 162.51C100.397 162.112 99.871 161.714 99.3447 161.287L98.6763 160.832C97.9367 160.235 97.2541 159.623 96.4861 158.997L94.4381 157.12L93.8265 156.565L92.4043 155.143L91.8354 154.546C91.2096 153.934 90.6123 153.309 90.0292 152.683L89.9296 152.597L87.9812 150.436L87.5119 149.853L86.1607 148.231C85.5634 147.463 84.9661 146.695 84.383 145.913L84.1554 145.586C70.3456 126.699 65.2825 100.786 76.3758 79.481L66.5767 91.8543C53.9901 109.86 55.5403 133.284 65.1545 152.413C65.3678 152.882 65.6096 153.309 65.8514 153.835L65.8798 153.721Z" fill="#545454"/>
<path d="M114.918 135.588L115.444 136.128C116.127 136.768 116.867 137.408 117.521 138.048L117.606 138.119C118.317 138.745 119.128 139.399 119.939 140.039L120.067 140.139C120.266 140.281 120.436 140.437 120.635 140.565C121.475 141.205 122.299 141.817 123.181 142.429H123.267C123.636 142.699 124.02 142.941 124.433 143.197C124.603 143.31 124.788 143.453 124.973 143.552C125.599 143.965 126.211 144.334 126.851 144.718C126.943 144.767 127.038 144.81 127.135 144.846C127.661 145.173 128.244 145.486 128.799 145.771C128.998 145.899 129.183 145.984 129.396 146.098L130.563 146.695L130.747 146.781C131.544 147.179 132.369 147.549 133.165 147.904L133.706 148.132L135.697 148.942L136.55 149.241C137.147 149.469 137.787 149.682 138.385 149.881L139.21 150.151C140.081 150.469 140.975 150.721 141.883 150.905C188.888 158.699 199.768 122.688 199.768 122.688C189.969 136.725 171.011 143.41 150.815 138.19C149.805 137.934 148.81 137.65 147.814 137.323L148.155 137.422L147.345 137.166C146.733 136.953 146.093 136.754 145.496 136.526L144.643 136.213C143.974 135.943 143.306 135.701 142.666 135.417C142.452 135.317 142.267 135.261 142.125 135.175C141.286 134.805 140.461 134.436 139.636 134.037L138.427 133.412L137.716 133.056C137.176 132.772 136.664 132.473 136.152 132.174L135.768 131.961C135.142 131.577 134.488 131.193 133.876 130.795C133.677 130.681 133.492 130.539 133.307 130.425L132.07 129.629C131.217 129.031 130.378 128.405 129.539 127.78L128.984 127.31C119.975 120.396 113.28 110.908 109.784 100.103C106.285 88.9246 107.053 76.3948 113.098 66.2117L105.659 76.6934C96.5287 89.721 97.0407 107.172 104.152 121.01C105.344 123.352 106.703 125.605 108.219 127.751C109.536 129.827 111.098 131.737 112.87 133.44C113.51 134.18 114.193 134.862 114.918 135.573V135.588Z" fill="#545454"/>
<path d="M138.527 65.3441C135.953 69.1784 134.401 73.6062 134.018 78.2082C133.635 82.8102 134.433 87.4338 136.337 91.641C138.367 96.2263 141.304 100.354 144.97 103.775C148.636 107.197 152.956 109.842 157.67 111.552C158.054 111.709 158.438 111.822 158.836 111.965L159.348 112.135C159.903 112.306 160.443 112.505 161.012 112.633C186.968 117.568 194.079 99.321 195.928 96.633C189.812 105.465 179.387 107.584 166.673 104.512C165.568 104.24 164.481 103.903 163.416 103.502H163.601C162.276 103.044 160.979 102.507 159.718 101.895L159.946 101.995C157.668 100.904 155.505 99.5891 153.489 98.0694C142.111 89.5361 135.099 73.1094 142.523 59.7832L138.527 65.3441Z" fill="#545454"/>
</g>
<defs>
<clipPath id="clip0_303_17164">
<rect width="142.222" height="136.292" fill="white" transform="translate(57.5456 59.8542)"/>
</clipPath>
</defs>
</svg>
