<svg width="257" height="257" viewBox="0 0 257 257" fill="none" xmlns="http://www.w3.org/2000/svg">
<rect x="1.05225" y="1.09424" width="255" height="255" rx="31.5" fill="white"/>
<rect x="1.05225" y="1.09424" width="255" height="255" rx="31.5" stroke="#878787"/>
<g clip-path="url(#clip0_303_17203)">
<path d="M199.419 56.906H57.1968V199.128H199.419V56.906Z" fill="#D1D1D1"/>
<path d="M152.728 168.024C155.572 172.689 159.327 176.131 165.912 176.131C171.458 176.131 175 173.372 175 169.546C175 164.995 171.359 163.331 165.286 160.728L161.944 159.306C152.301 155.196 145.901 150.047 145.901 139.167C145.901 129.212 153.538 121.518 165.471 121.518C174.004 121.518 180.077 124.476 184.486 132.213L174.075 138.897C171.785 134.787 169.311 133.208 165.542 133.208C161.773 133.208 159.142 135.697 159.142 138.897C159.142 142.908 161.631 144.586 167.362 147.018L170.704 148.44C182.082 153.318 188.468 158.282 188.468 169.446C188.468 181.478 179.024 188.063 166.324 188.063C153.908 188.063 145.901 182.147 141.976 174.396L152.728 168.024ZM105.552 169.176C107.657 172.902 109.563 176.046 114.157 176.046C118.537 176.046 121.268 174.339 121.268 167.654V122.214H134.637V167.839C134.637 181.678 126.516 187.964 114.726 187.964C104.016 187.964 97.8298 182.431 94.6724 175.761L105.552 169.176Z" fill="black"/>
</g>
<defs>
<clipPath id="clip0_303_17203">
<rect width="142.222" height="142.222" fill="white" transform="translate(57.1968 56.906)"/>
</clipPath>
</defs>
</svg>
