<svg width="257" height="256" viewBox="0 0 257 256" fill="none" xmlns="http://www.w3.org/2000/svg">
<rect x="0.708862" y="0.5" width="255" height="255" rx="31.5" fill="white"/>
<rect x="0.708862" y="0.5" width="255" height="255" rx="31.5" stroke="#878787"/>
<path d="M128.481 162.178C159.946 205.072 190.739 150.206 190.693 117.212C190.64 78.2029 151.101 56.4006 128.455 56.4006C92.1064 56.4001 57.4903 86.4406 57.4903 127.543C57.4903 173.228 97.1709 198.534 128.455 198.534C121.376 197.515 97.7831 192.46 97.4664 138.119C97.2525 101.367 109.455 86.6829 128.404 93.1423C128.829 93.2995 149.305 101.377 149.305 127.765C149.305 154.04 128.481 162.178 128.481 162.178V162.178Z" fill="url(#paint0_linear_303_17168)"/>
<path d="M128.444 93.1121C107.653 85.946 82.1837 103.082 82.1837 137.404C82.1837 193.447 123.713 198.534 128.748 198.534C165.097 198.534 199.713 168.493 199.713 127.391C199.713 81.7054 160.032 56.3999 128.748 56.3999C137.413 55.1999 175.45 65.7776 175.45 117.765C175.45 151.669 147.048 170.125 128.575 162.24C128.15 162.083 107.673 154.005 107.673 127.618C107.673 101.342 128.444 93.1121 128.444 93.1121V93.1121Z" fill="url(#paint1_linear_303_17168)"/>
<defs>
<linearGradient id="paint0_linear_303_17168" x1="78.5244" y1="77.3468" x2="184.763" y2="170.654" gradientUnits="userSpaceOnUse">
<stop/>
<stop offset="1" stop-color="white"/>
</linearGradient>
<linearGradient id="paint1_linear_303_17168" x1="178.717" y1="177.537" x2="63.7291" y2="99.013" gradientUnits="userSpaceOnUse">
<stop/>
<stop offset="1" stop-color="white"/>
</linearGradient>
</defs>
</svg>
