<svg width="257" height="257" viewBox="0 0 257 257" fill="none" xmlns="http://www.w3.org/2000/svg">
<rect x="1.43286" y="1.39111" width="255" height="255" rx="31.5" fill="white"/>
<rect x="1.43286" y="1.39111" width="255" height="255" rx="31.5" stroke="#878787"/>
<g clip-path="url(#clip0_303_17201)">
<path d="M199.948 57.2029H129.136L61.5092 128.314H128.709L129.022 127.987L199.948 57.2029Z" fill="url(#paint0_linear_303_17201)"/>
<path d="M129.022 127.987L128.709 128.314H129.349L129.022 127.987Z" fill="url(#paint1_linear_303_17201)"/>
<path d="M129.136 57.2029H57.7261V128.314H61.5092L129.136 57.2029Z" fill="url(#paint2_linear_303_17201)"/>
<path d="M128.709 128.314H61.5092L57.7261 132.296V199.425L128.709 128.314Z" fill="url(#paint3_linear_303_17201)"/>
<path d="M129.349 128.314H128.709L57.7261 199.425H199.948L129.349 128.314Z" fill="url(#paint4_linear_303_17201)"/>
<path d="M61.5092 128.314H57.7261V132.296L61.5092 128.314Z" fill="url(#paint5_linear_303_17201)"/>
</g>
<defs>
<linearGradient id="paint0_linear_303_17201" x1="33.4487" y1="188.289" x2="165.801" y2="55.9371" gradientUnits="userSpaceOnUse">
<stop stop-color="#848484"/>
<stop offset="0.11" stop-color="#848484"/>
<stop offset="0.17" stop-color="#868686"/>
<stop offset="0.49" stop-color="#939393"/>
<stop offset="0.72" stop-color="#9A9A9A"/>
<stop offset="0.82" stop-color="#9D9D9D"/>
<stop offset="1" stop-color="#9D9D9D"/>
</linearGradient>
<linearGradient id="paint1_linear_303_17201" x1="103.408" y1="224.783" x2="167.92" y2="160.271" gradientUnits="userSpaceOnUse">
<stop stop-color="#838383"/>
<stop offset="0.3" stop-color="#838383"/>
<stop offset="0.69" stop-color="#818181"/>
<stop offset="1" stop-color="#7F7F7F"/>
</linearGradient>
<linearGradient id="paint2_linear_303_17201" x1="56.0905" y1="96.3709" x2="101.346" y2="51.1158" gradientUnits="userSpaceOnUse">
<stop stop-color="#838383"/>
<stop offset="0.3" stop-color="#838383"/>
<stop offset="0.69" stop-color="#818181"/>
<stop offset="1" stop-color="#7F7F7F"/>
</linearGradient>
<linearGradient id="paint3_linear_303_17201" x1="34.3305" y1="189.157" x2="166.668" y2="56.8188" gradientUnits="userSpaceOnUse">
<stop stop-color="#737373"/>
<stop offset="0.11" stop-color="#737373"/>
<stop offset="0.17" stop-color="#757575"/>
<stop offset="0.49" stop-color="#808080"/>
<stop offset="0.72" stop-color="#868686"/>
<stop offset="0.82" stop-color="#898989"/>
<stop offset="1" stop-color="#898989"/>
</linearGradient>
<linearGradient id="paint4_linear_303_17201" x1="103.408" y1="224.783" x2="167.92" y2="160.271" gradientUnits="userSpaceOnUse">
<stop stop-color="#727272"/>
<stop offset="0.3" stop-color="#727272"/>
<stop offset="0.69" stop-color="#707070"/>
<stop offset="1" stop-color="#6F6F6F"/>
</linearGradient>
<linearGradient id="paint5_linear_303_17201" x1="73.8683" y1="114.149" x2="119.123" y2="68.8935" gradientUnits="userSpaceOnUse">
<stop stop-color="#727272"/>
<stop offset="0.3" stop-color="#727272"/>
<stop offset="0.69" stop-color="#707070"/>
<stop offset="1" stop-color="#6F6F6F"/>
</linearGradient>
<clipPath id="clip0_303_17201">
<rect width="142.222" height="142.222" fill="white" transform="translate(57.7261 57.2029)"/>
</clipPath>
</defs>
</svg>
