<svg width="257" height="257" viewBox="0 0 257 257" fill="none" xmlns="http://www.w3.org/2000/svg">
<rect x="0.984985" y="0.688232" width="255" height="255" rx="31.5" fill="white"/>
<rect x="0.984985" y="0.688232" width="255" height="255" rx="31.5" stroke="#878787"/>
<g clip-path="url(#clip0_303_17119)">
<path d="M196.42 88.9196C196.477 89.1039 196.506 89.2957 196.506 89.4885V119.839C196.506 120.228 196.403 120.611 196.207 120.948C196.008 121.277 195.729 121.551 195.396 121.745L169.924 136.408V165.478C169.923 165.867 169.82 166.249 169.625 166.585C169.43 166.922 169.151 167.202 168.815 167.398L115.652 197.99C115.53 198.058 115.401 198.115 115.268 198.161H115.126C114.753 198.26 114.361 198.26 113.988 198.161H113.818C113.689 198.123 113.565 198.071 113.448 198.004L60.2995 167.398C59.9661 167.199 59.6874 166.921 59.4889 166.587C59.293 166.25 59.1899 165.868 59.1902 165.478V74.4556C59.1919 74.2592 59.2158 74.0636 59.2613 73.8725L59.3466 73.6876C59.3854 73.5705 59.433 73.4564 59.4889 73.3463L59.6311 73.1472C59.6311 73.0619 59.7591 72.9623 59.8302 72.8912C59.9026 72.8298 59.9785 72.7728 60.0577 72.7205C60.1291 72.6589 60.211 72.6108 60.2995 72.5783L86.8809 57.2325C87.2119 57.0352 87.5906 56.932 87.976 56.9339C88.3563 56.9366 88.7291 57.0396 89.0569 57.2325L115.667 72.5783C115.753 72.6319 115.834 72.6938 115.908 72.7632C115.986 72.8121 116.057 72.8694 116.122 72.9339C116.2 73.0091 116.267 73.0953 116.321 73.1899C116.381 73.2499 116.433 73.3167 116.477 73.389C116.533 73.499 116.581 73.6131 116.62 73.7303C116.628 73.7917 116.628 73.8538 116.62 73.9152C116.677 74.1043 116.705 74.3008 116.705 74.4983V131.387L138.849 118.587V89.4885C138.827 89.2995 138.827 89.1086 138.849 88.9196L138.934 88.7205C138.976 88.6043 139.023 88.4904 139.076 88.3792L139.219 88.1801L139.418 87.9241L139.645 87.7676L139.887 87.5685L166.611 72.2654C166.948 72.0786 167.327 71.9807 167.713 71.9807C168.098 71.9807 168.478 72.0786 168.815 72.2654L195.396 87.5685L195.638 87.7534L195.852 87.9241C195.927 88.0023 195.993 88.0881 196.051 88.1801C196.107 88.2429 196.159 88.3094 196.207 88.3792C196.261 88.4904 196.308 88.6043 196.349 88.7205C196.355 88.7868 196.355 88.8534 196.349 88.9196H196.42ZM192.068 118.559V93.3143L182.767 98.6761L169.967 106.072V131.302L192.111 118.502L192.068 118.559ZM165.501 164.198V138.953L152.858 146.164L116.776 166.758V192.244L165.501 164.198ZM63.6133 78.2672V164.198L112.339 192.244V166.758L86.8951 152.365L86.6249 152.223L86.4257 152.066C86.3546 152.066 86.312 151.91 86.2409 151.839L86.0844 151.625C86.036 151.538 85.9932 151.448 85.9564 151.355L85.8569 151.099C85.8499 150.99 85.8499 150.881 85.8569 150.772C85.8507 150.692 85.8507 150.611 85.8569 150.53V91.0672L73.0569 83.6716L63.6133 78.2672ZM87.9902 61.6983L65.8462 74.4983L87.976 87.2983L110.12 74.4983L87.976 61.6983H87.9902ZM99.496 141.243L112.296 133.848V78.2672L102.995 83.6147L90.1946 91.0103V146.605L99.496 141.243ZM167.763 76.7454L145.633 89.5454L167.763 102.345L189.907 89.5454L167.763 76.7454ZM165.501 106.072L152.701 98.6761L143.4 93.3143V118.559L156.2 125.94L165.501 131.302V106.072ZM114.557 162.961L147.027 144.472L163.254 135.156L141.139 122.356L115.667 137.062L92.456 150.417L114.557 162.961Z" fill="#6B6B6B"/>
</g>
<defs>
<clipPath id="clip0_303_17119">
<rect width="137.316" height="141.355" fill="white" transform="translate(59.1902 56.9338)"/>
</clipPath>
</defs>
</svg>
