<svg width="256" height="256" viewBox="0 0 256 256" fill="none" xmlns="http://www.w3.org/2000/svg">
<rect x="0.5" y="0.5" width="255" height="255" rx="31.5" fill="white"/>
<rect x="0.5" y="0.5" width="255" height="255" rx="31.5" stroke="#878787"/>
<g clip-path="url(#clip0_303_17187)">
<path fill-rule="evenodd" clip-rule="evenodd" d="M112.713 72.3403C116.705 65.9695 121.991 60.5087 128.229 56.3118C134.392 60.4091 139.617 65.7652 143.561 72.0274C153.962 86.4557 159.207 103.964 158.451 121.734C161.68 124.337 165.008 126.84 168.179 129.499C170.434 131.487 172.142 134.02 173.138 136.856C174.134 139.693 174.385 142.737 173.868 145.699C172.318 153.023 170.782 160.475 169.161 167.857C168.905 168.626 168.5 169.338 167.969 169.95C167.438 170.563 166.791 171.065 166.066 171.427C165.341 171.789 164.551 172.004 163.742 172.06C162.933 172.116 162.121 172.012 161.353 171.754C160.792 171.563 160.26 171.295 159.774 170.957C154.554 166.776 149.477 162.424 144.286 158.243C139.996 162.327 134.31 164.62 128.387 164.654C122.464 164.689 116.751 162.462 112.414 158.427C108.673 161.172 105.203 164.472 101.548 167.43C99.9452 168.999 98.1593 170.369 96.2291 171.512C95.4746 171.806 94.6695 171.948 93.86 171.931C93.0504 171.913 92.2522 171.736 91.5111 171.41C90.77 171.084 90.1006 170.615 89.5411 170.029C88.9815 169.444 88.5429 168.754 88.2504 167.999C88.2504 167.843 88.1366 167.686 88.0939 167.53C86.4157 160.305 84.6806 153.108 83.0593 145.912C82.4373 142.822 82.6585 139.621 83.6994 136.646C84.7404 133.67 86.5629 131.03 88.9757 129.002C91.8202 126.717 94.6646 124.465 97.5091 122.246C98.3055 121.834 97.9073 120.923 97.9499 120.212C97.5844 103.086 102.774 86.3009 112.741 72.3687M117.861 94.7118C116.036 97.0629 115.137 100.002 115.333 102.971C115.53 105.941 116.809 108.736 118.928 110.826C121.361 113.2 124.605 114.561 128.004 114.632C131.403 114.703 134.701 113.48 137.232 111.21C139.051 109.564 140.333 107.408 140.909 105.023C141.485 102.638 141.328 100.135 140.46 97.8407C139.577 95.6294 138.101 93.7049 136.193 92.2795C134.286 90.854 132.022 89.983 129.651 89.7625C127.428 89.5195 125.179 89.8463 123.116 90.7121C121.053 91.578 119.245 92.9544 117.861 94.7118Z" fill="#636363"/>
<path d="M110.921 173.56C110.948 173.158 111.054 172.765 111.233 172.405C111.412 172.044 111.661 171.722 111.965 171.458C112.269 171.193 112.622 170.992 113.004 170.864C113.386 170.737 113.79 170.686 114.192 170.715C114.636 170.742 115.069 170.869 115.458 171.085C119.446 173.023 123.823 174.029 128.258 174.029C132.692 174.029 137.069 173.023 141.058 171.085C141.418 170.881 141.815 170.75 142.226 170.702C142.637 170.654 143.054 170.688 143.452 170.804C143.85 170.919 144.22 171.113 144.542 171.374C144.863 171.634 145.129 171.957 145.324 172.322C145.501 172.649 145.617 173.006 145.666 173.375C145.666 177.898 145.666 182.42 145.666 186.943C145.626 187.342 145.509 187.73 145.319 188.083C145.13 188.437 144.873 188.749 144.562 189.003C144.252 189.257 143.894 189.447 143.51 189.562C143.125 189.677 142.722 189.715 142.323 189.674C141.81 189.63 141.319 189.448 140.901 189.147C139.55 188.01 138.327 186.715 137.033 185.506C134.956 189.375 133.022 193.286 130.931 197.154C130.477 197.831 129.774 198.301 128.976 198.463C128.177 198.626 127.347 198.467 126.665 198.022C126.337 197.794 126.053 197.51 125.826 197.183C123.735 193.314 121.801 189.375 119.696 185.506C118.416 186.73 117.193 188.01 115.827 189.162C115.387 189.461 114.877 189.64 114.347 189.682C113.816 189.723 113.284 189.626 112.803 189.399C112.322 189.172 111.909 188.823 111.603 188.388C111.298 187.952 111.112 187.444 111.063 186.914C111.063 182.463 111.063 177.997 111.063 173.531" fill="#636363"/>
<path d="M128.144 108.422C129.787 108.456 131.378 107.838 132.567 106.703C133.755 105.567 134.446 104.007 134.487 102.363C134.468 100.721 133.799 99.1536 132.626 98.0045C131.452 96.8553 129.871 96.2184 128.229 96.2336C127.415 96.2147 126.605 96.3565 125.845 96.6507C125.085 96.945 124.391 97.3861 123.802 97.9487C123.213 98.5114 122.741 99.1846 122.412 99.9299C122.083 100.675 121.904 101.478 121.886 102.292C121.899 103.107 122.072 103.91 122.396 104.658C122.72 105.405 123.187 106.081 123.772 106.648C124.357 107.215 125.048 107.66 125.806 107.96C126.563 108.259 127.372 108.407 128.186 108.394L128.144 108.422Z" fill="#636363"/>
</g>
<defs>
<clipPath id="clip0_303_17187">
<rect width="91.3493" height="142.222" fill="white" transform="translate(82.7179 56.3118)"/>
</clipPath>
</defs>
</svg>
