<svg width="256" height="256" viewBox="0 0 256 256" fill="none" xmlns="http://www.w3.org/2000/svg">
<rect x="0.5" y="0.5" width="255" height="255" rx="31.5" fill="white"/>
<rect x="0.5" y="0.5" width="255" height="255" rx="31.5" stroke="#878787"/>
<g clip-path="url(#clip0_303_17224)">
<mask id="mask0_303_17224" style="mask-type:luminance" maskUnits="userSpaceOnUse" x="57" y="56" width="143" height="143">
<path d="M199.504 56.3118H57.2814V198.534H199.504V56.3118Z" fill="white"/>
</mask>
<g mask="url(#mask0_303_17224)">
<path d="M57.2814 113.201C57.2814 93.2896 57.2814 83.3341 61.1499 75.7252C64.5673 69.0373 70.0069 63.5977 76.6948 60.1803C84.3037 56.3118 94.2592 56.3118 114.17 56.3118H142.615C162.526 56.3118 172.481 56.3118 180.09 60.1803C186.778 63.5977 192.218 69.0373 195.635 75.7252C199.504 83.3341 199.504 93.2896 199.504 113.201V141.645C199.504 161.556 199.504 171.512 195.635 179.121C192.218 185.809 186.778 191.248 180.09 194.666C172.481 198.534 162.526 198.534 142.615 198.534H114.17C94.2592 198.534 84.3037 198.534 76.6948 194.666C70.0069 191.248 64.5673 185.809 61.1499 179.121C57.2814 171.512 57.2814 161.556 57.2814 141.645V113.201Z" fill="#7C7C7C"/>
<path d="M167.475 105.549C164.256 104.355 161.333 102.48 158.906 100.053C156.478 97.6251 154.603 94.7021 153.409 91.4834C152.21 94.6988 150.333 97.6189 147.906 100.046C145.479 102.472 142.559 104.349 139.344 105.549C142.559 106.749 145.479 108.626 147.906 111.053C150.333 113.48 152.21 116.4 153.409 119.615C154.603 116.396 156.478 113.473 158.906 111.046C161.333 108.618 164.256 106.743 167.475 105.549Z" fill="white"/>
<path d="M128.563 91.8674H93.0077V162.978H164.119V127.423L128.563 162.978V91.8674Z" fill="white"/>
</g>
</g>
<defs>
<clipPath id="clip0_303_17224">
<rect width="142.222" height="142.222" fill="white" transform="translate(57.2814 56.3118)"/>
</clipPath>
</defs>
</svg>
