<svg width="257" height="257" viewBox="0 0 257 257" fill="none" xmlns="http://www.w3.org/2000/svg">
<rect x="0.708862" y="0.688232" width="255" height="255" rx="31.5" fill="white"/>
<rect x="0.708862" y="0.688232" width="255" height="255" rx="31.5" stroke="#878787"/>
<g clip-path="url(#clip0_303_17153)">
<path d="M57.4903 132.745V71.1631L110.824 101.954V122.477L75.2681 101.954V143.014L57.4903 132.745Z" fill="#848484"/>
<path d="M110.824 101.954L164.157 71.1631V132.745L128.601 153.268L110.824 143.014L146.379 122.477V101.954L110.824 122.477V101.954Z" fill="#626262"/>
<path d="M110.824 143.014V163.608L146.379 184.13V163.608L110.824 143.014Z" fill="#848484"/>
<path d="M146.379 184.059L199.713 153.268V112.223L181.935 122.477V143.014L146.379 163.608V184.059ZM181.935 101.954V81.4315L199.713 71.1631V91.6858L181.935 101.954Z" fill="#626262"/>
</g>
<defs>
<clipPath id="clip0_303_17153">
<rect width="142.222" height="112.896" fill="white" transform="translate(57.4903 71.1631)"/>
</clipPath>
</defs>
</svg>
