<svg width="257" height="257" viewBox="0 0 257 257" fill="none" xmlns="http://www.w3.org/2000/svg">
<rect x="0.536987" y="1.2821" width="255" height="255" rx="31.5" fill="white"/>
<rect x="0.536987" y="1.2821" width="255" height="255" rx="31.5" stroke="#878787"/>
<g clip-path="url(#clip0_303_17130)">
<path d="M187.217 166.605L132.248 198.292C131.087 198.962 129.77 199.315 128.43 199.315C127.089 199.315 125.772 198.962 124.611 198.292L69.642 166.605C68.4792 165.93 67.5147 164.961 66.8456 163.795C66.1765 162.629 65.8263 161.307 65.8305 159.963V96.4466C65.8302 95.1126 66.1826 93.8022 66.8519 92.6483C67.5213 91.4943 68.4839 90.5379 69.642 89.8759L124.611 58.1177C125.772 57.4474 127.089 57.0945 128.43 57.0945C129.77 57.0945 131.087 57.4474 132.248 58.1177L187.217 89.8759C188.362 90.5498 189.311 91.5101 189.972 92.6621C190.633 93.8142 190.982 95.1184 190.986 96.4466V159.963C190.964 161.297 190.608 162.605 189.95 163.765C189.291 164.926 188.351 165.902 187.217 166.605Z" fill="#6F6F6F"/>
<path d="M128.408 66.7508C127.25 66.7458 126.113 67.0608 125.123 67.661L77.5922 95.0672C76.5887 95.6382 75.7553 96.4662 75.1779 97.4661C74.6005 98.4659 74.2998 99.6015 74.3069 100.756V155.54C74.2893 156.697 74.5855 157.837 75.1639 158.838C75.7424 159.84 76.5816 160.666 77.5922 161.229L125.066 188.593C126.058 189.188 127.194 189.503 128.351 189.503C129.509 189.503 130.644 189.188 131.637 188.593L179.125 161.186C180.128 160.616 180.96 159.788 181.535 158.787C182.11 157.787 182.407 156.651 182.396 155.497V100.728C182.416 99.5722 182.123 98.4328 181.547 97.4309C180.971 96.429 180.134 95.6023 179.125 95.0388L131.637 67.661C130.663 67.0695 129.547 66.7548 128.408 66.7508ZM128.408 69.0406C129.161 69.0527 129.897 69.2637 130.542 69.6521L177.973 97.0583C178.618 97.4474 179.154 97.9956 179.527 98.6504C179.901 99.3053 180.1 100.045 180.106 100.799V155.611C180.1 156.365 179.901 157.105 179.527 157.76C179.154 158.414 178.618 158.963 177.973 159.352L130.485 186.758C129.84 187.146 129.104 187.357 128.351 187.369C127.597 187.369 126.858 187.157 126.218 186.758L78.73 159.352C78.0843 158.963 77.5491 158.414 77.1756 157.76C76.8021 157.105 76.6028 156.365 76.5967 155.611V100.799C76.6028 100.045 76.8021 99.3053 77.1756 98.6504C77.5491 97.9956 78.0843 97.4474 78.73 97.0583L126.218 69.6521C126.884 69.2645 127.638 69.0539 128.408 69.0406ZM123.957 116.827H130.371C130.472 116.832 130.573 116.814 130.667 116.774C130.76 116.735 130.844 116.675 130.911 116.6C134.723 112.333 135.178 103.387 135.178 100.728C135.178 100.526 135.099 100.333 134.958 100.19C134.817 100.046 134.625 99.9634 134.424 99.9597H119.989C119.787 99.9634 119.596 100.046 119.455 100.19C119.314 100.333 119.235 100.526 119.235 100.728C119.235 103.316 119.619 112.248 123.502 116.6C123.567 116.674 123.648 116.733 123.739 116.773C123.83 116.812 123.929 116.831 124.028 116.827H123.957ZM122.207 102.321H132.291C132.492 102.324 132.684 102.407 132.825 102.55C132.966 102.694 133.045 102.887 133.045 103.089C133.045 105.222 132.661 111.252 130.072 114.381C129.901 114.528 129.686 114.613 129.461 114.623H124.952C124.852 114.625 124.753 114.604 124.662 114.562C124.57 114.52 124.49 114.458 124.426 114.381C121.823 111.337 121.582 105.222 121.439 103.089C121.439 102.885 121.52 102.69 121.664 102.546C121.808 102.401 122.004 102.321 122.207 102.321ZM128.622 98.4379C128.997 98.2207 129.324 97.9292 129.583 97.5811C129.842 97.233 130.027 96.8357 130.127 96.4136C130.227 95.9915 130.239 95.5534 130.164 95.1263C130.088 94.6991 129.927 94.2919 129.688 93.9295C128.693 92.4077 128.266 91.085 128.622 90.573C127.626 91.7961 125.948 93.0903 127.782 95.8352C128.34 96.5872 128.635 97.5018 128.622 98.4379ZM125.564 98.6655C125.818 98.5173 126.039 98.3186 126.213 98.0816C126.387 97.8446 126.51 97.5744 126.575 97.2877C126.641 97.0011 126.647 96.704 126.592 96.415C126.538 96.126 126.425 95.8513 126.261 95.6077C125.564 94.6121 125.265 93.7019 125.564 93.389C124.881 94.2281 123.814 95.0672 125.038 96.9872C125.371 97.4845 125.553 98.0671 125.564 98.6655ZM125.336 113.698H129.162C129.338 113.685 129.501 113.604 129.617 113.471C130.865 111.714 131.626 109.658 131.822 107.512C131.822 107.512 131.822 108.209 129.916 108.934C127.641 109.465 125.287 109.567 122.975 109.233C123.298 110.775 123.948 112.23 124.881 113.499C124.934 113.568 125.003 113.623 125.083 113.658C125.163 113.693 125.25 113.707 125.336 113.698ZM96.6358 135.145V119.885H93.7913L89.1549 127.067L84.49 119.885H81.6456V135.231H84.3193V124.308L89.0411 131.419H89.1265L93.9336 124.308V135.217L96.6358 135.145ZM113.702 120.184C112.681 119.79 111.597 119.583 110.502 119.572C108.924 119.527 107.368 119.964 106.045 120.825C104.721 121.687 103.691 122.932 103.093 124.393C102.698 125.36 102.491 126.393 102.481 127.437V127.522C102.483 128.567 102.691 129.601 103.093 130.566C103.441 131.527 103.989 132.404 104.7 133.139C105.41 133.875 106.268 134.452 107.217 134.833C108.239 135.226 109.322 135.433 110.417 135.444C111.52 135.477 112.617 135.268 113.631 134.833C114.578 134.455 115.436 133.883 116.149 133.154C116.873 132.433 117.444 131.571 117.827 130.623C118.234 129.639 118.446 128.587 118.453 127.522V127.437C118.45 126.392 118.243 125.358 117.841 124.393C117.494 123.448 116.946 122.589 116.234 121.876C115.526 121.137 114.668 120.56 113.717 120.184H113.702ZM115.608 127.593C115.574 128.29 115.43 128.976 115.182 129.627C114.692 130.886 113.733 131.905 112.508 132.472C111.865 132.78 111.159 132.936 110.446 132.927C109.738 132.928 109.038 132.773 108.398 132.472C107.803 132.177 107.26 131.788 106.79 131.32C106.33 130.829 105.968 130.254 105.724 129.627C105.48 128.937 105.351 128.212 105.34 127.48V127.409C105.359 126.71 105.488 126.019 105.724 125.361C106.214 124.102 107.172 123.083 108.398 122.516C109.036 122.207 109.737 122.052 110.446 122.061C111.159 122.052 111.865 122.207 112.508 122.516C113.102 122.811 113.645 123.2 114.115 123.668C114.575 124.159 114.938 124.733 115.182 125.361C115.441 126.053 115.585 126.783 115.608 127.522V127.593ZM126.858 125.361C127.125 124.746 127.49 124.18 127.939 123.682C128.406 123.213 128.943 122.819 129.532 122.516C130.149 122.205 130.832 122.049 131.523 122.061C132.344 122.03 133.158 122.217 133.884 122.601C134.57 123.002 135.21 123.48 135.79 124.024L137.553 122.047C137.187 121.695 136.802 121.362 136.401 121.051C135.998 120.751 135.564 120.493 135.107 120.283C134.581 120.141 134.111 119.985 133.5 119.828C132.868 119.737 132.232 119.684 131.594 119.672C130.499 119.674 129.413 119.881 128.394 120.283C127.447 120.661 126.59 121.233 125.877 121.961C125.2 122.707 124.656 123.563 124.27 124.493C123.869 125.458 123.662 126.492 123.658 127.537V127.622C123.667 128.666 123.875 129.699 124.27 130.665C124.619 131.614 125.167 132.477 125.877 133.197C126.574 133.906 127.399 134.475 128.309 134.875C129.278 135.277 130.317 135.485 131.366 135.487C132.058 135.513 132.749 135.46 133.429 135.33C133.987 135.228 134.529 135.046 135.036 134.79C135.544 134.572 136.022 134.29 136.458 133.951C136.902 133.612 137.312 133.231 137.681 132.813L135.932 131.049C135.31 131.58 134.644 132.056 133.941 132.472C133.218 132.864 132.401 133.051 131.58 133.012C130.895 132.978 130.221 132.824 129.589 132.557C128.986 132.284 128.444 131.892 127.996 131.405C127.501 130.895 127.114 130.29 126.858 129.627C126.619 128.936 126.494 128.211 126.488 127.48V127.409C126.502 126.711 126.627 126.019 126.858 125.361ZM142.972 119.942V135.145H145.646V128.745H152.97V135.145H155.644V119.885H152.97V126.214H145.646V119.885L142.972 119.942ZM172.284 131.547L173.82 135.217H176.664L169.923 119.814H167.477L160.764 135.145H163.509L165.116 131.49L172.284 131.547ZM168.7 123.014L171.288 129.115H166.097L168.7 123.014ZM79.7682 140.806H177.091V139.967H79.7682V140.806ZM135.718 111.252C135.718 111.565 135.718 111.793 135.718 112.091H177.091V111.252H135.718ZM118.652 111.252H79.7682V112.091H118.78C118.78 111.793 118.694 111.565 118.694 111.252H118.652Z" fill="white"/>
</g>
<defs>
<clipPath id="clip0_303_17130">
<rect width="125.198" height="142.222" fill="white" transform="translate(65.8304 57.0939)"/>
</clipPath>
</defs>
</svg>
