<svg width="257" height="257" viewBox="0 0 257 257" fill="none" xmlns="http://www.w3.org/2000/svg">
<rect x="0.880615" y="1.39111" width="255" height="255" rx="31.5" fill="white"/>
<rect x="0.880615" y="1.39111" width="255" height="255" rx="31.5" stroke="#878787"/>
<g clip-path="url(#clip0_303_17189)">
<path d="M127.451 57.5869L131.234 64.698C132.052 65.9823 133.005 67.1744 134.079 68.2535C137.27 71.4059 140.244 74.77 142.982 78.3229C149.239 86.7387 153.936 96.2091 156.849 106.284C158.717 112.443 159.708 118.835 159.793 125.27C160.086 134.407 158.504 143.507 155.146 152.01C151.788 160.512 146.723 168.237 140.266 174.707C138.102 176.882 135.767 178.88 133.282 180.68C131.974 180.68 131.348 179.67 130.808 178.732C129.82 177.011 129.164 175.12 128.874 173.157C128.346 170.825 128.136 168.433 128.248 166.046V164.95C128.148 164.723 126.982 58.0704 127.451 57.5157V57.5869Z" fill="#797979"/>
<path d="M127.451 57.3594C127.295 57.0465 127.138 57.274 126.982 57.4305C127.011 58.9578 126.547 60.4539 125.659 61.6971C124.666 62.9657 123.525 64.1116 122.26 65.1105C115.455 71.1029 109.81 78.2957 105.606 86.33C99.9545 97.0785 96.6622 108.909 95.9491 121.032C95.5651 125.441 97.3714 140.943 98.7936 145.509C102.644 157.157 109.324 167.668 118.235 176.101C120.417 178.191 122.715 180.157 125.119 181.989C125.816 181.989 125.887 181.377 126.058 180.908C126.362 179.921 126.595 178.913 126.754 177.893L128.305 166.273L127.451 57.3594Z" fill="#8E8E8E"/>
<path d="M131.234 185.402C131.487 183.688 132.156 182.062 133.183 180.666C132.267 180.24 131.506 179.539 131.007 178.661C130.537 177.849 130.151 176.991 129.855 176.101C128.933 172.856 128.389 169.515 128.234 166.145V164.097C127.835 164.41 127.764 167.041 127.764 167.425C127.526 170.942 127.051 174.439 126.342 177.893C126.231 179.311 125.803 180.686 125.09 181.918C125.06 182.096 125.06 182.279 125.09 182.458C126.383 186.52 127.106 190.741 127.238 195.002V196.581C127.238 198.43 127.167 198.003 128.66 198.671C129.343 198.819 129.997 199.078 130.594 199.439C131.064 199.439 131.135 199.055 131.135 198.742L130.907 196.182V189.071C130.895 187.851 131 186.631 131.22 185.431L131.234 185.402Z" fill="#C0C0C0"/>
</g>
<defs>
<clipPath id="clip0_303_17189">
<rect width="63.8862" height="142.222" fill="white" transform="translate(95.9491 57.2029)"/>
</clipPath>
</defs>
</svg>
