<svg width="257" height="257" viewBox="0 0 257 257" fill="none" xmlns="http://www.w3.org/2000/svg">
<rect x="0.708862" y="1.09424" width="255" height="255" rx="31.5" fill="white"/>
<rect x="0.708862" y="1.09424" width="255" height="255" rx="31.5" stroke="#878787"/>
<path d="M181.263 134.025C181.263 135.234 181.846 136.193 183.476 136.193C185.393 136.193 187.436 134.817 187.559 131.692C186.664 131.549 185.761 131.467 184.855 131.446C182.93 131.444 181.263 131.985 181.263 134.025Z" fill="black"/>
<path d="M57.4903 105.212V150.822H199.712V105.212H57.4903ZM97.7516 139.61H89.8851V129.025C89.8851 125.775 88.8011 124.524 86.6771 124.524C84.0935 124.524 83.0512 126.358 83.0512 128.983V135.532H85.539V139.615H77.6725V129.025C77.6725 125.775 76.5909 124.524 74.4645 124.524C71.8809 124.524 70.8386 126.358 70.8386 128.983V135.532H74.4129V139.615H62.9525V135.532H65.4526V124.9H62.7485V120.817H70.8288V123.649C71.9547 121.65 73.9139 120.441 76.5368 120.441C79.2409 120.441 81.7459 121.734 82.6628 124.485C83.7051 121.985 85.829 120.441 88.7888 120.441C92.1639 120.441 95.2491 122.484 95.2491 126.943V135.532H97.7491L97.7516 139.61ZM109.711 140.026C103.919 140.026 99.9173 136.483 99.9173 130.483C99.9173 124.981 103.251 120.438 109.996 120.438C116.742 120.438 120.041 124.981 120.041 130.232C120.045 136.235 115.712 140.028 109.711 140.028V140.026ZM139.633 139.61H123.212L122.671 136.776L132.996 124.898H127.12L126.287 127.816L122.41 127.4L123.076 120.814H139.596L140.011 123.649L129.588 135.532H135.663L136.538 132.614L140.788 133.029L139.633 139.61ZM149.8 139.61H144.173V132.86H149.8V139.61ZM149.8 127.565H144.173V120.817H149.8V127.565ZM152.75 139.61L160.884 110.949H166.177L158.05 139.61H152.75ZM163.67 139.61L171.799 110.949H177.092L168.97 139.61H163.67ZM191.674 140.026C189.174 140.026 187.8 138.565 187.549 136.274C186.465 138.192 184.548 140.026 181.507 140.026C178.803 140.026 175.715 138.565 175.715 134.649C175.715 130.023 180.174 128.941 184.466 128.941C185.497 128.933 186.528 128.988 187.552 129.109V128.484C187.552 126.567 187.51 124.276 184.466 124.276C183.341 124.276 182.465 124.359 181.59 124.816L180.895 127.484L176.602 127.024L177.436 122.149C180.727 120.814 182.394 120.428 185.479 120.428C189.523 120.428 192.94 122.513 192.94 126.805V134.974C192.94 136.058 193.355 136.434 194.233 136.434C194.502 136.43 194.768 136.388 195.025 136.309L195.066 139.143C194.027 139.709 192.865 140.013 191.681 140.028L191.674 140.026Z" fill="black"/>
<path d="M109.917 124.566C107.167 124.566 105.458 126.606 105.458 130.151C105.458 133.401 106.958 135.901 109.883 135.901C112.676 135.901 114.509 133.651 114.509 130.067C114.502 126.274 112.462 124.566 109.917 124.566V124.566Z" fill="black"/>
</svg>
