<svg width="257" height="257" viewBox="0 0 257 257" fill="none" xmlns="http://www.w3.org/2000/svg">
<rect x="0.708862" y="1.39111" width="255" height="255" rx="31.5" fill="white"/>
<rect x="0.708862" y="1.39111" width="255" height="255" rx="31.5" stroke="#878787"/>
<g clip-path="url(#clip0_303_17154)">
<path d="M188.491 167.07C180.754 166.87 174.753 167.653 169.732 169.814C168.31 170.398 165.949 170.398 165.764 172.275C166.532 173.057 166.632 174.337 167.314 175.404C168.627 177.68 170.326 179.711 172.335 181.406C174.369 182.97 176.402 184.549 178.521 185.914C182.305 188.303 186.557 189.726 190.226 192.001C192.36 193.423 194.493 195.144 196.612 196.623C197.679 197.406 198.361 198.686 199.713 199.169V198.885C199.03 197.989 198.845 196.723 198.162 195.742C197.195 194.76 196.228 193.864 195.318 192.897C192.498 189.082 189.106 185.724 185.263 182.942C182.162 180.78 175.393 177.836 174.141 174.209L173.885 174.081C176.151 173.756 178.384 173.227 180.555 172.502C183.855 171.621 186.841 171.82 190.226 170.938C191.777 170.54 193.327 170.056 194.877 169.516V168.634C193.142 166.87 191.876 164.51 190.041 162.846C185.053 158.414 179.727 154.377 174.113 150.771C171.112 148.808 167.243 147.528 164.043 145.85C162.891 145.267 160.957 144.968 160.274 143.987C158.692 141.615 157.362 139.084 156.306 136.435C153.462 131.03 150.802 125.057 148.37 119.368C146.635 115.542 145.526 111.717 143.449 108.175C133.451 91.4643 122.614 81.3523 105.988 71.4252C102.404 69.3629 98.1516 68.4812 93.6005 67.4145C91.1827 67.3149 88.765 67.13 86.3472 67.0305C84.797 66.3336 83.2467 64.4705 81.8956 63.5887C76.3774 60.0332 62.1694 52.3816 58.1019 62.4936C55.485 68.8367 61.9703 75.1656 64.189 78.4083C66.0707 80.6918 67.7237 83.1546 69.1241 85.7612C69.8067 87.4394 69.9916 89.2029 70.6743 90.9665C72.0903 95.4476 73.7715 99.8405 75.709 104.122C76.748 106.236 77.9412 108.27 79.2787 110.209C80.061 111.29 81.4121 111.788 81.6965 113.551C80.3454 115.514 80.2743 118.458 79.4779 120.918C75.9934 132.012 77.3445 145.765 82.3223 153.914C83.8725 156.36 87.5419 161.765 92.477 159.702C96.829 157.939 95.8619 152.335 97.1276 147.429C97.4121 146.248 97.2272 145.466 97.7961 144.684V144.869C99.2183 147.628 100.513 150.273 101.764 153.018C105.204 158.068 109.451 162.518 114.337 166.188C116.669 167.951 118.504 170.995 121.448 172.076V171.777H121.249C120.58 171.015 119.804 170.353 118.945 169.814C117.109 167.992 115.425 166.023 113.91 163.926C109.818 158.275 106.198 152.295 103.087 146.049C101.579 143.006 100.157 139.663 98.9196 136.62C98.3365 135.454 98.3365 133.676 97.3694 133.093C95.9472 135.254 93.7996 137.118 92.733 139.763C90.8983 144.03 90.6992 149.192 90.0165 154.597C89.6325 154.696 89.8316 154.597 89.6325 154.796C86.5463 153.999 85.4796 150.771 84.3134 148.012C81.469 141.043 80.9285 129.85 83.4459 121.8C84.1143 119.738 87.0299 113.267 85.8636 111.29C85.2805 109.427 83.3463 108.346 82.2796 106.881C80.9495 104.889 79.7932 102.786 78.8236 100.595C76.5054 95.0909 75.3534 89.0038 72.8361 83.5283C71.4277 80.871 69.8007 78.3354 67.9721 75.9478C66.1232 73.3025 64.1036 71.4252 62.653 68.282C62.1694 67.2012 61.4867 65.4376 62.2547 64.2572C62.3149 63.917 62.488 63.607 62.7461 63.3773C63.0041 63.1477 63.3321 63.0117 63.677 62.9914C64.9285 61.9105 68.5125 63.2758 69.7641 63.8732C73.1109 65.1676 76.3023 66.8325 79.2787 68.8367C80.701 69.818 82.1232 71.6812 83.8299 72.1789H85.9347C89.0352 72.8616 92.5054 72.3638 95.4067 73.2598C100.319 74.92 105.002 77.1947 109.345 80.0296C122.158 88.3568 132.544 99.9208 139.453 113.551C140.605 115.813 141.089 117.818 142.155 120.222C144.246 125.043 146.706 129.992 148.74 134.657C150.774 139.322 152.779 143.987 155.624 147.827C157.046 149.875 162.877 150.956 165.48 152.094C167.755 152.895 169.986 153.816 172.164 154.853C175.449 156.915 178.735 159.262 181.835 161.523C183.385 162.703 188.221 165.164 188.505 167.126L188.491 167.07Z" fill="#3D3D3D"/>
<path d="M89.8316 81.7363C88.4926 81.7223 87.1578 81.8898 85.8636 82.2341V82.4332H86.0485C86.9778 83.852 88.0143 85.1975 89.149 86.4581C89.9312 88.0225 90.5712 89.6012 91.3819 91.1656L91.5668 90.9665C92.2871 90.3823 92.8504 89.6277 93.2055 88.7709C93.5606 87.9142 93.6964 86.9823 93.6005 86.0598C93.1744 85.3943 92.785 84.7058 92.4343 83.9976C91.8654 83.0163 90.5996 82.5754 89.8316 81.7363Z" fill="#3D3D3D"/>
</g>
<defs>
<clipPath id="clip0_303_17154">
<rect width="142.222" height="141.71" fill="white" transform="translate(57.4903 57.459)"/>
</clipPath>
</defs>
</svg>
