<svg width="256" height="256" viewBox="0 0 256 256" fill="none" xmlns="http://www.w3.org/2000/svg">
<rect x="0.5" y="0.5" width="255" height="255" rx="31.5" fill="white"/>
<rect x="0.5" y="0.5" width="255" height="255" rx="31.5" stroke="#878787"/>
<g clip-path="url(#clip0_303_17148)">
<path d="M151.403 153.998H138.916L137.948 152.96V123.747C137.948 118.542 135.9 114.517 129.628 114.375C126.414 114.29 122.716 114.375 118.777 114.531L118.18 115.129V152.946L117.141 153.984H104.583L103.545 152.946V103.026L104.583 101.987H132.672C137.915 101.987 142.943 104.07 146.651 107.778C150.358 111.485 152.441 116.513 152.441 121.756V152.96L151.403 153.998Z" fill="#333333"/>
<path d="M86.1653 181.66H84.4444L75.9111 173.127V171.363L89.024 158.251H98.1262L99.3493 159.459V168.547L86.1653 181.66Z" fill="#858585"/>
<path d="M75.8684 84.6221V82.9012L84.4017 74.3679H86.1226L99.2497 87.495V96.583L98.1262 97.6781H88.9813L75.8684 84.6221Z" fill="#858585"/>
<path d="M87.9431 135.296H38.0089L36.9706 134.258V121.742L38.0089 120.704H87.9431L88.9813 121.742V134.258L87.9431 135.296Z" fill="#858585"/>
<path d="M217.991 135.296H168.057L167.019 134.258V121.742L168.057 120.704H217.991L219.029 121.742V134.258L217.991 135.296Z" fill="#858585"/>
<path d="M120.796 86.3857V48.9386L121.849 47.9003H134.35L135.403 48.9386V86.3857L134.35 87.4381H121.849L120.796 86.3857Z" fill="#858585"/>
<path d="M120.796 207.047V169.6L121.849 168.562H134.35L135.403 169.6V207.047L134.35 208.099H121.849L120.796 207.047Z" fill="#858585"/>
</g>
<defs>
<clipPath id="clip0_303_17148">
<rect width="182.059" height="160.199" fill="white" transform="translate(36.9706 47.9003)"/>
</clipPath>
</defs>
</svg>
