<svg width="257" height="256" viewBox="0 0 257 256" fill="none" xmlns="http://www.w3.org/2000/svg">
<rect x="1.05225" y="0.5" width="255" height="255" rx="31.5" fill="white"/>
<rect x="1.05225" y="0.5" width="255" height="255" rx="31.5" stroke="#878787"/>
<g clip-path="url(#clip0_303_17113)">
<path d="M142.246 148.935L107.373 141.639C107.216 141.924 107.06 142.194 106.875 142.464L138.633 188.786L140.553 186.866L145.958 153.273C145.04 152.891 144.226 152.296 143.583 151.538C142.945 150.783 142.488 149.893 142.246 148.935ZM129.517 103.339C128.855 104.362 127.947 105.203 126.876 105.784C125.805 106.366 124.606 106.669 123.387 106.667C123.001 106.662 122.616 106.628 122.235 106.567L106.335 131.456L148.831 113.166C148.831 112.996 148.831 112.839 148.831 112.654C148.84 112.306 148.878 111.958 148.944 111.616L129.517 103.339ZM130.683 98.8018L151.277 107.605C151.931 107.09 152.68 106.708 153.481 106.482L156.866 85.4471L143.952 72.5334L129.46 95.2889C130.167 96.3437 130.589 97.5639 130.683 98.8303V98.8018ZM173.819 102.4L160.905 89.4863L158.061 106.937C158.774 107.29 159.416 107.772 159.952 108.359L173.819 102.4ZM142.872 144.341C143.37 143.417 144.094 142.634 144.976 142.066C145.865 141.507 146.874 141.17 147.92 141.084L151.632 118.044C151.341 117.855 151.069 117.635 150.822 117.39L108.07 135.737C108.183 136.204 108.26 136.68 108.297 137.159L142.872 144.384V144.341ZM177.346 105.941L162.441 112.356L199.291 128.128L199.419 128L177.346 105.941ZM150.623 153.344L146.128 181.276L172.226 155.193L153.439 151.268C152.707 152.216 151.72 152.936 150.594 153.344H150.623ZM99.8635 146.162C98.9435 146.165 98.0297 146.011 97.1613 145.707L88.5568 159.289L85.2004 155.947L93.4066 143.147C93.2075 142.891 93.0226 142.62 92.8519 142.35L77.9755 148.75L74.4484 145.237L90.7328 138.226L61.2928 132.025L57.2679 128L58.5479 126.72L92.4822 133.831C92.8612 133.096 93.3398 132.416 93.9044 131.812L77.492 107.776L80.82 104.448L98.0288 129.55C98.6309 129.413 99.246 129.341 99.8635 129.337C100.574 129.34 101.281 129.431 101.968 129.607L118.125 104.42C116.814 103.054 116.08 101.235 116.077 99.3423C116.077 98.7817 116.144 98.2231 116.276 97.6783L96.1942 89.1449L99.7071 85.6178L118.751 93.7529C119.708 92.9456 120.859 92.4006 122.091 92.1713C123.322 91.9419 124.592 92.0361 125.776 92.4445L140.624 69.2054L128.308 56.8889L57.1968 128L128.308 199.111L135.305 192.114L103.32 145.436C102.25 145.916 101.092 146.163 99.9204 146.162H99.8635ZM156.098 118.997L152.315 142.464C152.978 142.992 153.525 143.65 153.922 144.398C154.323 145.143 154.57 145.96 154.648 146.802L176.08 151.282L195.707 131.655L160.336 116.523C159.321 117.864 157.819 118.753 156.155 118.997H156.098Z" fill="#959595"/>
</g>
<defs>
<clipPath id="clip0_303_17113">
<rect width="142.222" height="142.222" fill="white" transform="translate(57.1968 56.8889)"/>
</clipPath>
</defs>
</svg>
