<svg width="256" height="256" viewBox="0 0 256 256" fill="none" xmlns="http://www.w3.org/2000/svg">
<rect x="0.5" y="0.5" width="255" height="255" rx="31.5" fill="white"/>
<rect x="0.5" y="0.5" width="255" height="255" rx="31.5" stroke="#878787"/>
<g clip-path="url(#clip0_303_17142)">
<mask id="mask0_303_17142" style="mask-type:luminance" maskUnits="userSpaceOnUse" x="57" y="56" width="143" height="143">
<path d="M199.504 56.3118H57.2814V198.534H199.504V56.3118Z" fill="white"/>
</mask>
<g mask="url(#mask0_303_17142)">
<path d="M128.392 198.534C142.457 198.534 156.206 194.363 167.9 186.55C179.594 178.736 188.708 167.63 194.091 154.636C199.473 141.642 200.881 127.344 198.137 113.55C195.393 99.7557 188.621 87.0849 178.676 77.1398C168.731 67.1948 156.06 60.4221 142.266 57.6782C128.471 54.9344 114.173 56.3426 101.179 61.7249C88.1856 67.1071 77.0795 76.2216 69.2658 87.9158C61.452 99.6099 57.2814 113.359 57.2814 127.423C57.2814 146.283 64.7734 164.37 78.1093 177.706C91.4452 191.042 109.533 198.534 128.392 198.534Z" fill="black"/>
<path d="M175.411 180.771L111.909 98.9785H99.948V155.867H109.52V111.139L167.902 186.516C170.528 184.767 173.036 182.848 175.411 180.771Z" fill="url(#paint0_linear_303_17142)"/>
<path d="M157.633 98.9785H148.147V155.867H157.633V98.9785Z" fill="url(#paint1_linear_303_17142)"/>
</g>
</g>
<defs>
<linearGradient id="paint0_linear_303_17142" x1="130.938" y1="158.413" x2="158.999" y2="193.187" gradientUnits="userSpaceOnUse">
<stop stop-color="white"/>
<stop offset="1" stop-color="white" stop-opacity="0"/>
</linearGradient>
<linearGradient id="paint1_linear_303_17142" x1="152.997" y1="98.9643" x2="152.841" y2="140.749" gradientUnits="userSpaceOnUse">
<stop stop-color="white"/>
<stop offset="1" stop-color="white" stop-opacity="0"/>
</linearGradient>
<clipPath id="clip0_303_17142">
<rect width="142.222" height="142.222" fill="white" transform="translate(57.2814 56.3118)"/>
</clipPath>
</defs>
</svg>
