<svg width="257" height="257" viewBox="0 0 257 257" fill="none" xmlns="http://www.w3.org/2000/svg">
<rect x="0.776123" y="0.797119" width="255" height="255" rx="31.5" fill="white"/>
<rect x="0.776123" y="0.797119" width="255" height="255" rx="31.5" stroke="#878787"/>
<mask id="mask0_303_17118" style="mask-type:luminance" maskUnits="userSpaceOnUse" x="56" y="114" width="143" height="30">
<path d="M198.75 114.384H56.5281V143.255H198.75V114.384Z" fill="white"/>
</mask>
<g mask="url(#mask0_303_17118)">
<path d="M151.077 114.384H175.853V118.964H166.039V143.028H161.104V118.964H151.148L151.077 114.384Z" fill="black"/>
<path d="M110.331 114.384V118.964H90.4197V126.331H106.448V130.896H90.4766V138.448H110.388V143.028H85.5557V118.964V114.384H110.331Z" fill="black"/>
<path d="M122.704 114.384H116.261L139.301 143.042H145.758L134.238 128.734L145.73 114.384H139.301L131.01 124.738L122.704 114.384Z" fill="black"/>
<path d="M129.303 134.85L126.075 130.853L116.261 143.056H122.718L129.303 134.85Z" fill="black"/>
<path fill-rule="evenodd" clip-rule="evenodd" d="M85.7263 143.028L62.6721 114.384H56.5281V143.013H61.4347V120.5L79.5539 143.028H85.7263Z" fill="black"/>
<path d="M176.948 142.829C176.776 142.833 176.606 142.803 176.447 142.74C176.288 142.676 176.144 142.58 176.023 142.459C175.788 142.217 175.656 141.893 175.656 141.556C175.656 141.218 175.788 140.894 176.023 140.653C176.271 140.412 176.603 140.279 176.948 140.283C177.116 140.281 177.283 140.313 177.44 140.377C177.596 140.44 177.738 140.534 177.858 140.653C177.98 140.768 178.077 140.907 178.143 141.061C178.209 141.215 178.243 141.381 178.242 141.549C178.245 141.778 178.186 142.004 178.071 142.203C177.948 142.391 177.782 142.546 177.588 142.658C177.395 142.774 177.173 142.833 176.948 142.829Z" fill="black"/>
<path d="M185.339 130.782H187.515V139.173C187.531 139.87 187.359 140.558 187.017 141.164C186.68 141.722 186.185 142.168 185.595 142.444C184.955 142.746 184.254 142.897 183.547 142.885C182.906 142.89 182.271 142.759 181.684 142.501C181.106 142.288 180.609 141.9 180.261 141.392C179.918 140.843 179.744 140.205 179.764 139.557H181.954C181.947 139.847 182.02 140.133 182.167 140.382C182.302 140.617 182.506 140.806 182.75 140.923C183.015 141.054 183.308 141.117 183.604 141.108C183.918 141.12 184.229 141.041 184.5 140.88C184.745 140.728 184.939 140.505 185.054 140.24C185.195 139.903 185.263 139.539 185.253 139.173L185.339 130.782Z" fill="black"/>
<path d="M196.475 134.068C196.458 133.83 196.386 133.6 196.265 133.395C196.144 133.19 195.977 133.016 195.778 132.887C195.308 132.586 194.757 132.437 194.199 132.46C193.796 132.445 193.394 132.513 193.019 132.66C192.724 132.776 192.464 132.967 192.265 133.214C192.097 133.446 192.002 133.724 191.995 134.011C191.986 134.238 192.051 134.462 192.18 134.651C192.297 134.842 192.458 135.003 192.649 135.12C192.859 135.25 193.083 135.355 193.317 135.433L194.057 135.66L195.195 135.931C195.647 136.036 196.089 136.179 196.517 136.357C196.926 136.531 197.309 136.761 197.655 137.04C197.988 137.306 198.26 137.641 198.452 138.021C198.661 138.44 198.763 138.904 198.75 139.372C198.759 140.029 198.571 140.673 198.21 141.221C197.812 141.776 197.264 142.205 196.631 142.459C195.042 143.037 193.3 143.037 191.71 142.459C191.057 142.206 190.493 141.765 190.089 141.193C189.688 140.6 189.47 139.903 189.463 139.188H191.639C191.66 139.567 191.8 139.93 192.037 140.226C192.279 140.503 192.587 140.713 192.933 140.837C193.332 140.972 193.75 141.04 194.171 141.036C194.598 141.045 195.022 140.972 195.422 140.823C195.754 140.703 196.049 140.497 196.276 140.226C196.476 139.976 196.587 139.665 196.588 139.344C196.594 139.057 196.493 138.778 196.304 138.562C196.091 138.34 195.835 138.166 195.55 138.05C195.178 137.905 194.798 137.782 194.412 137.68L192.99 137.339C192.123 137.149 191.313 136.754 190.629 136.187C190.34 135.93 190.111 135.611 189.961 135.254C189.811 134.897 189.743 134.511 189.762 134.124C189.752 133.466 189.956 132.822 190.345 132.29C190.751 131.738 191.302 131.309 191.938 131.052C192.656 130.746 193.432 130.595 194.213 130.612C194.99 130.594 195.761 130.744 196.475 131.052C197.082 131.318 197.607 131.74 197.996 132.276C198.372 132.792 198.572 133.415 198.565 134.053L196.475 134.068Z" fill="black"/>
</g>
</svg>
