<svg width="257" height="257" viewBox="0 0 257 257" fill="none" xmlns="http://www.w3.org/2000/svg">
<rect x="1.32837" y="0.797119" width="255" height="255" rx="31.5" fill="white"/>
<rect x="1.32837" y="0.797119" width="255" height="255" rx="31.5" stroke="#878787"/>
<g clip-path="url(#clip0_303_17107)">
<path d="M123.153 59.1305C124.932 58.1339 126.937 57.6106 128.977 57.6106C131.016 57.6106 133.021 58.1339 134.801 59.1305C152.522 69.1429 170.247 79.1554 187.978 89.1678C189.643 90.1194 191.03 91.4906 192.001 93.145C192.972 94.7993 193.492 96.6791 193.51 98.5972V158.857C193.485 160.857 192.919 162.813 191.872 164.518C190.826 166.223 189.337 167.614 187.565 168.542L134.573 198.409C132.753 199.417 130.695 199.916 128.615 199.854C126.535 199.791 124.511 199.169 122.755 198.053C117.464 194.981 112.164 191.919 106.854 188.866C105.692 188.339 104.648 187.584 103.782 186.647C104.465 185.737 105.674 185.623 106.627 185.225C108.801 184.474 110.901 183.521 112.899 182.38C113.148 182.226 113.439 182.153 113.732 182.171C114.025 182.189 114.305 182.297 114.534 182.48C119.057 185.068 123.551 187.742 128.102 190.316C129.069 190.871 130.051 190.131 130.875 189.676C148.217 179.835 165.582 170.021 182.971 160.236C183.274 160.085 183.524 159.848 183.691 159.554C183.858 159.26 183.935 158.924 183.91 158.587C183.91 138.675 183.91 118.764 183.91 98.8532C183.942 98.4677 183.852 98.0819 183.653 97.7503C183.454 97.4186 183.156 97.1577 182.801 97.0043L130.008 67.2798C129.704 67.0658 129.341 66.9515 128.97 66.9527C128.599 66.9542 128.236 67.0683 127.931 67.2798C110.343 77.1975 92.7457 87.1198 75.1386 97.0469C74.7869 97.194 74.4897 97.4469 74.2883 97.7706C74.087 98.0943 73.9915 98.4727 74.015 98.8532C74.015 118.764 74.015 138.647 74.015 158.501C73.9852 158.842 74.0596 159.185 74.2284 159.483C74.4056 159.784 74.6678 160.026 74.9821 160.179L89.0764 168.144C90.3817 168.947 91.8411 169.466 93.36 169.67C94.8789 169.873 96.4236 169.755 97.8941 169.324C99.1704 168.842 100.269 167.981 101.044 166.858C101.819 165.735 102.233 164.403 102.232 163.038C102.232 143.269 102.232 123.5 102.232 103.746C102.215 103.533 102.246 103.319 102.323 103.119C102.4 102.92 102.52 102.741 102.676 102.594C102.832 102.448 103.019 102.339 103.222 102.275C103.426 102.211 103.642 102.193 103.853 102.224C106.115 102.224 108.362 102.224 110.623 102.224C110.838 102.241 111.048 102.302 111.238 102.404C111.429 102.506 111.596 102.646 111.73 102.816C111.863 102.985 111.96 103.181 112.014 103.39C112.069 103.599 112.079 103.817 112.045 104.03C112.045 123.941 112.045 143.852 112.045 163.692C112.045 168.997 109.869 174.757 104.934 177.346C98.9893 180.531 91.4657 179.92 85.5493 176.876C80.3866 174.302 75.4515 171.187 70.3884 168.485C68.6197 167.567 67.1328 166.188 66.086 164.492C65.0392 162.797 64.4716 160.849 64.4435 158.857V98.5972C64.4518 96.6412 64.9838 94.7233 65.9843 93.0425C66.9847 91.3618 68.417 89.9797 70.1324 89.0398L123.153 59.1305Z" fill="#A8A8A8"/>
<path d="M138.555 100.873C146.264 100.375 154.513 100.574 161.453 104.371C166.815 107.216 169.787 113.388 169.887 119.347C169.787 119.726 169.553 120.055 169.229 120.275C168.905 120.495 168.512 120.589 168.124 120.542C165.891 120.542 163.658 120.542 161.425 120.542C160.994 120.514 160.59 120.326 160.29 120.016C159.99 119.706 159.817 119.295 159.804 118.864C159.558 117.393 158.992 115.994 158.147 114.765C157.301 113.536 156.197 112.508 154.911 111.753C150.801 109.69 146.008 109.79 141.514 109.833C138.243 110.003 134.701 110.288 131.928 112.222C130.906 112.996 130.157 114.073 129.786 115.3C129.416 116.526 129.443 117.839 129.866 119.049C130.577 120.755 132.554 121.31 134.132 121.822C143.419 124.24 153.261 123.998 162.363 127.198C166.132 128.506 169.83 131.038 171.11 134.978C172.021 137.647 172.239 140.505 171.741 143.281C171.243 146.058 170.047 148.663 168.266 150.85C165.056 154.185 160.884 156.432 156.333 157.278C150.433 158.478 144.38 158.737 138.399 158.046C132.71 157.406 126.893 155.927 122.555 152.087C120.748 150.43 119.331 148.394 118.404 146.124C117.477 143.855 117.063 141.408 117.194 138.96C117.244 138.568 117.444 138.212 117.751 137.965C118.059 137.718 118.451 137.601 118.843 137.637C121.091 137.637 123.338 137.637 125.599 137.637C125.807 137.631 126.014 137.667 126.208 137.742C126.401 137.818 126.578 137.931 126.728 138.075C126.878 138.219 126.997 138.392 127.079 138.583C127.161 138.774 127.204 138.979 127.206 139.187C127.315 140.582 127.709 141.939 128.365 143.175C129.021 144.41 129.924 145.498 131.018 146.37C135.583 149.328 141.329 149.129 146.563 149.214C150.9 149.029 155.779 148.972 159.363 146.099C160.235 145.239 160.871 144.167 161.207 142.988C161.543 141.81 161.569 140.564 161.283 139.372C160.728 137.381 158.651 136.457 156.874 135.859C147.7 133.015 137.759 134.01 128.671 130.725C124.987 129.431 121.432 126.956 120.01 123.173C118.966 120.472 118.702 117.532 119.248 114.688C119.793 111.844 121.127 109.211 123.096 107.088C127.149 103.006 133.051 101.399 138.57 100.873H138.555Z" fill="#A8A8A8"/>
</g>
<defs>
<clipPath id="clip0_303_17107">
<rect width="129.067" height="142.222" fill="white" transform="translate(64.4435 57.6086)"/>
</clipPath>
</defs>
</svg>
