<svg width="257" height="257" viewBox="0 0 257 257" fill="none" xmlns="http://www.w3.org/2000/svg">
<rect x="1.15673" y="0.985107" width="255" height="255" rx="31.5" fill="white"/>
<rect x="1.15673" y="0.985107" width="255" height="255" rx="31.5" stroke="#878787"/>
<g clip-path="url(#clip0_303_17176)">
<path d="M137.237 175.318H190.115C191.793 175.319 193.441 174.877 194.893 174.038C195.978 173.423 196.93 172.599 197.694 171.613C198.457 170.628 199.018 169.5 199.344 168.297C199.669 167.093 199.753 165.837 199.589 164.601C199.426 163.365 199.019 162.173 198.392 161.096L162.837 100.139C161.987 98.6971 160.776 97.5016 159.323 96.6711C157.87 95.8405 156.226 95.4036 154.552 95.4036C152.879 95.4036 151.234 95.8405 149.781 96.6711C148.328 97.5016 147.117 98.6971 146.268 100.139L137.194 115.784L119.487 85.2343C118.638 83.7985 117.43 82.6087 115.981 81.7822C114.532 80.9558 112.892 80.5211 111.224 80.5211C109.556 80.5211 107.917 80.9558 106.468 81.7822C105.019 82.6087 103.81 83.7985 102.961 85.2343L58.7299 161.096C58.105 162.174 57.6997 163.365 57.5374 164.601C57.3751 165.837 57.4589 167.092 57.7842 168.295C58.1094 169.498 58.6696 170.625 59.4324 171.611C60.1952 172.596 61.1455 173.421 62.2286 174.038C63.6813 174.877 65.3296 175.319 67.0073 175.318H100.202C113.357 175.318 123.043 169.629 129.727 158.422L145.926 130.617L154.602 115.741L180.643 160.427H145.926L137.237 175.318ZM99.6615 160.413H76.4935L111.224 100.822L128.561 130.617L116.956 150.529C112.504 157.782 107.484 160.413 99.6615 160.413Z" fill="#909090"/>
</g>
<defs>
<clipPath id="clip0_303_17176">
<rect width="142.222" height="94.8195" fill="white" transform="translate(57.4499 80.4983)"/>
</clipPath>
</defs>
</svg>
