<svg width="256" height="256" viewBox="0 0 256 256" fill="none" xmlns="http://www.w3.org/2000/svg">
<rect x="0.5" y="0.5" width="255" height="255" rx="31.5" fill="white"/>
<rect x="0.5" y="0.5" width="255" height="255" rx="31.5" stroke="#878787"/>
<g clip-path="url(#clip0_303_17144)">
<path d="M189.505 114.538C191.184 109.839 191.791 104.824 191.283 99.8603C190.687 94.8879 189.183 90.0672 186.846 85.6381C182.971 79.0901 177.246 73.8349 170.391 70.5341C163.431 67.3708 155.623 66.5909 148.175 68.3154C144.679 64.7258 140.625 61.7242 136.172 59.4265C131.585 57.2872 126.57 56.2219 121.509 56.3118C113.877 56.2635 106.42 58.595 100.175 62.9821C94.0464 67.334 89.5187 73.5808 87.2902 80.7598C82.26 82.0936 77.4637 84.1896 73.0679 86.9749C69.2285 90.131 65.9243 93.8866 63.283 98.0967C59.4093 104.654 57.8469 112.321 58.8457 119.871C59.7323 127.41 62.8244 134.519 67.7346 140.308C66.049 145.006 65.4414 150.022 65.9568 154.986C66.5528 159.958 68.0569 164.779 70.3942 169.208C74.263 175.755 79.9837 181.011 86.835 184.312C93.7994 187.475 101.612 188.255 109.064 186.53C112.561 190.12 116.614 193.122 121.068 195.419C125.655 197.559 130.67 198.624 135.731 198.534C143.362 198.58 150.819 196.249 157.064 191.864C163.189 187.507 167.715 181.262 169.95 174.086C174.97 173.133 179.693 171.003 183.731 167.871C187.78 164.942 191.119 161.142 193.502 156.749C197.379 150.193 198.947 142.527 197.953 134.975C197.22 127.477 194.28 120.365 189.505 114.538ZM136.172 189.204C129.824 189.329 123.652 187.112 118.835 182.975C119.079 182.737 119.393 182.582 119.731 182.534L148.175 166.093C148.968 165.741 149.601 165.108 149.953 164.315C150.309 163.633 150.461 162.863 150.394 162.097V122.09L162.398 129.201V162.097C162.518 165.615 161.929 169.121 160.664 172.406C159.4 175.691 157.487 178.688 155.04 181.218C152.592 183.748 149.66 185.759 146.418 187.131C143.177 188.503 139.692 189.208 136.172 189.204ZM78.8422 164.756C75.6069 159.432 74.4949 153.085 75.7275 146.979C75.9693 147.22 76.2844 147.375 76.6235 147.419L105.068 163.86C105.746 164.228 106.518 164.387 107.287 164.315C108.057 164.434 108.844 164.273 109.505 163.86L144.179 143.864V157.645L115.279 174.527C109.231 178.032 102.04 178.994 95.283 177.201C91.8388 176.357 88.6035 174.818 85.7761 172.678C82.9487 170.538 80.589 167.842 78.8422 164.756ZM71.2902 102.975C74.4274 97.6677 79.2852 93.5928 85.0573 91.4265V125.204C84.9387 125.974 85.1001 126.762 85.5124 127.423C85.8596 128.219 86.4946 128.854 87.2902 129.201L121.95 149.197L109.946 156.308L81.5017 139.867C78.4726 138.156 75.813 135.86 73.6769 133.114C71.5408 130.367 69.9706 127.225 69.0573 123.867C67.1079 116.873 67.9067 109.399 71.2902 102.975ZM169.509 125.645L134.835 105.649L146.839 98.5376L175.283 114.978C179.65 117.473 183.201 121.177 185.509 125.645C187.889 130.149 188.967 135.226 188.623 140.308C188.177 145.341 186.31 150.143 183.241 154.156C180.172 158.17 176.026 161.229 171.287 162.979V129.201C171.403 128.432 171.247 127.647 170.846 126.982C170.537 126.418 170.073 125.954 169.509 125.645ZM181.512 107.867C181.268 107.629 180.954 107.475 180.616 107.426L152.172 90.9856C151.493 90.6184 150.722 90.4601 149.953 90.5305C149.183 90.4106 148.395 90.5722 147.735 90.9856L113.061 110.982V97.2007L141.946 80.3189C146.413 77.7932 151.496 76.562 156.623 76.7634C161.753 76.8908 166.718 78.594 170.846 81.6416C174.902 84.625 178.117 88.6087 180.175 93.2043C181.952 97.878 182.415 102.949 181.512 107.867ZM106.846 132.756L94.8422 125.645V92.3083C94.7746 87.2777 96.1649 82.3352 98.8451 78.0777C101.525 73.8201 105.381 70.4295 109.946 68.3154C114.48 66.0391 119.62 65.2622 124.623 66.0967C129.664 66.6905 134.435 68.6916 138.391 71.8709C138.153 72.1108 137.843 72.2657 137.509 72.3118L109.064 88.7527C108.269 89.0999 107.634 89.7349 107.287 90.5305C106.931 91.213 106.778 91.9827 106.846 92.7492V132.756ZM113.061 118.534L128.62 109.645L144.179 118.534V136.312L128.62 145.201L113.061 136.312V118.534Z" fill="#2B2B2B"/>
</g>
<defs>
<clipPath id="clip0_303_17144">
<rect width="139.634" height="142.222" fill="white" transform="translate(58.5755 56.3118)"/>
</clipPath>
</defs>
</svg>
