<svg width="257" height="257" viewBox="0 0 257 257" fill="none" xmlns="http://www.w3.org/2000/svg">
<rect x="0.604492" y="1.39111" width="255" height="255" rx="31.5" fill="white"/>
<rect x="0.604492" y="1.39111" width="255" height="255" rx="31.5" stroke="#878787"/>
<g clip-path="url(#clip0_303_17232)">
<path fill-rule="evenodd" clip-rule="evenodd" d="M128.646 164.353C167.913 164.353 199.757 148.211 199.757 128.314C199.757 108.417 167.913 92.275 128.646 92.275C89.3781 92.275 57.5345 108.403 57.5345 128.314C57.5345 148.225 89.3781 164.353 128.646 164.353Z" fill="#818181"/>
<path fill-rule="evenodd" clip-rule="evenodd" d="M143.053 139.962L146.58 121.8C147.376 117.704 146.722 114.689 144.617 112.727C142.512 110.764 139.127 109.882 134.05 109.882H127.949L129.698 100.951C129.734 100.782 129.734 100.607 129.698 100.439C129.651 100.278 129.574 100.129 129.471 99.9977C129.365 99.8626 129.229 99.7552 129.072 99.6848C128.916 99.6119 128.747 99.5731 128.575 99.571H120.112C119.844 99.5724 119.583 99.6666 119.376 99.8377C119.169 100.009 119.027 100.246 118.975 100.51L115.248 119.781C114.957 117.721 114.084 115.786 112.731 114.206C110.256 111.361 106.345 109.939 101.097 109.939H84.7559C84.4871 109.94 84.227 110.035 84.0197 110.206C83.8124 110.377 83.6705 110.614 83.6181 110.878L76.0234 149.889C75.9899 150.056 75.9942 150.228 76.0361 150.393C76.0779 150.558 76.1562 150.712 76.2652 150.842C76.3746 150.974 76.5114 151.081 76.6662 151.154C76.8209 151.228 76.9898 151.267 77.1612 151.269H85.6945C85.964 151.27 86.2255 151.177 86.4333 151.005C86.6412 150.834 86.7824 150.595 86.8323 150.33L88.667 140.901H94.9959C97.7988 140.968 100.595 140.603 103.287 139.82C105.557 139.073 107.632 137.829 109.36 136.179C110.797 134.892 112.025 133.39 113.001 131.727L111.479 139.521C111.451 139.688 111.457 139.859 111.499 140.023C111.541 140.188 111.616 140.341 111.721 140.474C111.831 140.606 111.967 140.713 112.122 140.786C112.277 140.86 112.446 140.899 112.617 140.901H121.051C121.32 140.899 121.58 140.805 121.787 140.634C121.994 140.463 122.136 140.226 122.189 139.962L126.342 118.543H132.059C134.519 118.543 135.245 119.041 135.444 119.24C135.643 119.439 135.999 120.122 135.572 122.255L132.23 139.521C132.187 139.684 132.187 139.856 132.23 140.019C132.267 140.187 132.345 140.343 132.457 140.474C132.563 140.609 132.7 140.716 132.855 140.787C133.007 140.855 133.172 140.889 133.339 140.887H141.872C142.137 140.889 142.394 140.799 142.598 140.631C142.808 140.464 142.949 140.226 142.996 139.962H143.053ZM103.97 124.986C103.698 127.179 102.642 129.199 100.998 130.675C98.9239 131.965 96.492 132.558 94.0572 132.367H90.2456L92.9621 118.359H97.8403C101.41 118.359 102.861 119.127 103.43 119.781C104.24 120.663 104.411 122.44 103.927 124.915L103.97 124.986ZM178.566 114.206C176.105 111.361 172.194 109.939 166.946 109.939H150.605C150.336 109.94 150.076 110.035 149.869 110.206C149.661 110.377 149.519 110.614 149.467 110.878L141.887 149.889C141.853 150.056 141.857 150.228 141.899 150.393C141.941 150.558 142.019 150.712 142.128 150.842C142.238 150.974 142.375 151.081 142.529 151.154C142.684 151.228 142.853 151.267 143.024 151.269H151.558C151.827 151.27 152.089 151.177 152.296 151.005C152.504 150.834 152.646 150.595 152.695 150.33L154.53 140.901H160.859C163.657 140.969 166.449 140.604 169.136 139.82C171.412 139.077 173.492 137.833 175.223 136.179C176.69 134.85 177.934 133.294 178.907 131.571C179.865 129.83 180.542 127.948 180.912 125.996C181.879 121.032 181.111 117.064 178.608 114.206H178.566ZM170.303 124.986C170.018 127.175 168.965 129.192 167.33 130.675C165.256 131.963 162.824 132.556 160.39 132.367H156.621L159.337 118.359H164.201C167.771 118.359 169.207 119.127 169.791 119.781C170.587 120.663 170.758 122.44 170.288 124.915L170.303 124.986Z" fill="white"/>
<path fill-rule="evenodd" clip-rule="evenodd" d="M97.6412 117.263C100.87 117.263 103.017 117.847 104.098 119.041C105.179 120.236 105.421 122.284 104.866 125.185C104.56 127.681 103.351 129.978 101.467 131.642C99.1871 133.08 96.5019 133.739 93.8154 133.519H88.6385L91.8101 117.263H97.6412ZM76.9336 150.117H85.467L87.4012 139.735H94.683C97.36 139.812 100.033 139.471 102.605 138.725C104.729 138.034 106.673 136.878 108.294 135.34C111.072 132.826 112.947 129.467 113.627 125.783C114.575 121.146 113.897 117.543 111.593 114.974C109.346 112.385 105.762 111.105 100.841 111.105H84.5567L76.9336 150.117ZM119.885 100.723H128.319L126.299 111.105H133.808C138.549 111.105 141.811 111.925 143.593 113.566C145.376 115.206 145.916 117.88 145.215 121.587L141.687 139.735H133.154L136.468 122.483C136.852 120.52 136.71 119.169 136.041 118.458C135.373 117.747 133.979 117.391 131.775 117.391H125.076L120.738 139.735H112.304L119.885 100.723ZM163.974 117.263C167.202 117.263 169.35 117.847 170.416 119.041C171.483 120.236 171.753 122.284 171.184 125.185C170.889 127.681 169.684 129.98 167.799 131.642C165.519 133.078 162.834 133.737 160.148 133.519H154.971L158.143 117.207L163.974 117.263ZM143.266 150.117H151.799L153.819 139.735H161.101C163.778 139.811 166.45 139.471 169.023 138.725C171.147 138.034 173.091 136.878 174.711 135.34C177.49 132.826 179.364 129.467 180.045 125.783C180.941 121.146 180.272 117.548 178.011 114.974C175.75 112.399 172.166 111.105 167.259 111.105H150.847L143.266 150.117Z" fill="black"/>
</g>
<defs>
<clipPath id="clip0_303_17232">
<rect width="142.222" height="72.0782" fill="white" transform="translate(57.5345 92.275)"/>
</clipPath>
</defs>
</svg>
