<svg width="257" height="257" viewBox="0 0 257 257" fill="none" xmlns="http://www.w3.org/2000/svg">
<rect x="0.984985" y="1.39111" width="255" height="255" rx="31.5" fill="white"/>
<rect x="0.984985" y="1.39111" width="255" height="255" rx="31.5" stroke="#878787"/>
<g clip-path="url(#clip0_303_17120)">
<path d="M196.264 142.394C195.837 141.148 195.067 140.049 194.044 139.221C193.02 138.393 191.783 137.871 190.476 137.715C188.932 137.527 187.367 137.614 185.853 137.971C183.516 138.495 181.136 138.809 178.742 138.91C185.146 128.063 190.036 116.393 193.277 104.222C198.099 85.4766 195.524 76.9433 192.509 73.0891C184.531 62.8917 172.84 57.3735 158.86 57.2028C152.939 57.1497 147.043 57.979 141.366 59.6633C137.983 59.0781 134.559 58.7642 131.126 58.7246C124.889 58.4828 118.711 60.0114 113.306 63.1335C109.209 61.7335 105.004 60.6727 100.733 59.9619C88.4169 57.9282 78.504 59.5068 71.2507 64.6553C62.4756 70.8704 58.4507 81.7219 59.1476 96.7833C59.3893 101.576 62.0631 116.154 66.2587 129.992C68.2148 136.764 70.7855 143.343 73.9387 149.647C77.7218 156.758 81.7751 161.025 86.3262 162.59C88.3848 163.269 90.588 163.385 92.7065 162.925C94.825 162.465 96.7815 161.445 98.3725 159.973C99.0959 160.831 99.9503 161.57 100.904 162.163C102.386 163.073 103.997 163.754 105.683 164.182C111.214 165.724 117.102 165.368 122.408 163.173C122.408 164.054 122.408 164.879 122.479 165.605C122.479 166.771 122.479 167.909 122.579 168.975C122.877 176.2 123.361 181.775 124.812 185.743C124.897 185.957 124.996 186.298 125.11 186.639C126.013 189.969 127.757 193.01 130.173 195.471C133.039 198.118 136.827 199.537 140.726 199.425C142.391 199.417 144.05 199.232 145.676 198.87C150.952 197.733 156.968 196.026 161.32 189.797C165.43 183.937 167.436 175.091 167.791 161.182C167.791 160.783 167.891 160.399 167.919 160.044L168.019 159.318L168.986 159.404H169.228C174.713 159.618 180.18 158.648 185.256 156.559C188.442 155.137 198.696 149.647 196.278 142.337" fill="black"/>
<path d="M187.062 143.816C171.048 147.13 169.996 141.697 169.996 141.697C186.906 116.524 193.974 84.5806 187.873 76.7584C171.233 55.4251 142.362 65.5228 141.935 65.7788H141.779C138.257 65.0722 134.676 64.7008 131.084 64.6695C125.007 64.3562 119.011 66.1608 114.116 69.7753C114.116 69.7753 62.7031 48.5415 65.0924 96.4846C65.6044 106.682 79.6702 173.654 96.3813 153.374C102.525 145.978 108.442 139.72 108.442 139.72C111.427 141.741 115.022 142.661 118.611 142.323L118.895 142.081C118.817 143.03 118.856 143.985 119.009 144.926C114.742 149.775 115.951 150.614 107.318 152.406C98.6853 154.198 103.706 157.427 107.062 158.266C111.13 159.29 120.531 160.741 126.888 151.809L126.632 152.833C128.324 154.255 129.476 161.679 129.32 168.478C129.164 175.276 128.993 179.855 130.33 183.567C131.667 187.279 133.018 195.471 144.396 193.039C153.882 190.991 158.803 185.715 159.485 176.883C159.969 170.625 161.078 171.55 161.149 165.946L162.031 163.286C163.041 154.753 162.188 152.051 168.033 153.331L169.455 153.445C174.01 153.65 178.556 152.889 182.796 151.212C189.907 147.898 194.173 142.366 187.062 143.816Z" fill="#5C5C5C"/>
<path d="M117.117 101.036C115.957 100.786 114.745 100.962 113.704 101.534C113.568 101.63 113.453 101.753 113.365 101.894C113.277 102.036 113.218 102.194 113.192 102.358C113.188 102.947 113.395 103.517 113.775 103.966C114.461 104.898 115.48 105.529 116.62 105.729H117.075C117.829 105.737 118.567 105.514 119.19 105.089C119.814 104.665 120.291 104.059 120.559 103.354C120.73 102.088 118.909 101.249 117.132 100.993L117.117 101.036ZM164.947 101.036C164.804 100.054 163.055 99.77 161.391 99.9975C159.727 100.225 158.106 100.993 158.248 101.974C158.491 102.608 158.92 103.153 159.478 103.539C160.037 103.924 160.698 104.133 161.377 104.136H161.804C162.682 103.978 163.486 103.539 164.093 102.885C164.595 102.435 164.901 101.807 164.947 101.135" fill="white"/>
<path d="M192.381 143.446C191.77 141.597 189.807 141 186.536 141.669C176.836 143.674 173.366 142.294 172.228 141.441C179.906 129.621 185.666 116.661 189.295 103.041C190.776 97.6437 191.631 92.0936 191.841 86.5006C191.926 81.3806 191.059 77.6259 189.267 75.3362C182.042 66.0917 171.418 61.1282 158.618 60.9859C152.591 60.9069 146.596 61.8692 140.897 63.8304C137.638 63.0269 134.298 62.5974 130.941 62.5504C124.897 62.2832 118.922 63.936 113.875 67.2722C109.373 65.6206 104.725 64.3968 99.9938 63.6171C88.744 61.8108 79.8124 63.1762 73.4409 67.7131C65.832 73.0748 62.3191 82.8028 63.0018 96.3851C63.2293 100.979 65.8462 115.102 69.9564 128.627C75.3751 146.433 81.3342 156.517 87.464 158.593C88.2668 158.859 89.1072 158.993 89.9529 158.991C92.2142 158.991 94.9875 157.982 97.8747 154.497C101.392 150.316 105.047 146.187 108.84 142.11C111.252 143.427 113.943 144.153 116.691 144.229C116.698 144.3 116.698 144.371 116.691 144.442C116.221 145.011 115.766 145.58 115.268 146.163C113.377 148.581 112.979 149.007 106.877 150.344C105.128 150.7 100.52 151.653 100.449 154.895C100.378 158.437 105.91 159.93 106.536 160.086C108.603 160.622 110.729 160.899 112.865 160.911C117.535 160.998 122.063 159.299 125.523 156.161C125.423 168.805 125.949 181.249 127.457 185.032C128.694 188.147 131.724 195.727 141.281 195.727C142.847 195.705 144.406 195.514 145.932 195.158C155.887 193.011 160.239 188.588 161.917 178.845C162.884 173.683 164.307 161.238 165.075 154.568C166.904 155.068 168.796 155.303 170.692 155.265C175.079 155.3 179.428 154.469 183.492 152.819C187.105 151.141 193.604 147.03 192.424 143.446H192.381ZM168.573 98.3477C168.503 100.255 168.303 102.156 167.976 104.037C167.606 106.22 167.369 108.424 167.265 110.636C167.256 113.134 167.432 115.63 167.791 118.102C168.388 123.08 169 128.214 166.625 133.278C166.236 132.573 165.889 131.847 165.587 131.101C165.288 130.39 164.648 129.238 163.766 127.645C160.31 121.445 152.246 106.938 156.371 101.007C157.608 99.2437 160.723 97.4375 168.573 98.4046V98.3477ZM159.116 64.9824C170.607 65.2384 179.709 69.5477 186.138 77.7824C191.073 84.0971 185.64 112.883 169.91 137.715L169.427 137.117L169.228 136.847C173.295 130.12 172.499 123.45 171.788 117.548C171.462 115.272 171.296 112.977 171.29 110.678C171.393 108.624 171.616 106.577 171.958 104.549C172.411 102.067 172.62 99.5473 172.584 97.0251C172.644 96.6721 172.644 96.3114 172.584 95.9584C172.328 93.2419 169.228 85.0784 162.913 77.6971C158.724 72.7285 153.482 68.7545 147.567 66.0633C151.365 65.2759 155.238 64.9133 159.116 64.9824ZM94.8169 151.951C91.6453 155.791 89.4409 155.052 88.7298 154.796C84.0222 153.217 78.5609 143.261 73.7538 127.446C69.5866 113.779 67.1546 100.026 66.9698 96.1575C66.3582 83.9833 69.3022 75.4926 75.7306 70.9131C86.184 63.4891 103.364 67.9406 110.262 70.1877L109.949 70.4864C98.6426 81.9495 98.8844 101.562 98.8844 102.714C98.8844 103.183 98.8844 103.837 98.984 104.733C99.4193 110.222 99.2954 115.74 98.6142 121.203C98.1473 124.319 98.395 127.5 99.3387 130.506C100.282 133.512 101.897 136.264 104.061 138.554C104.507 139.024 104.982 139.466 105.484 139.877C103.535 141.967 99.3253 146.575 94.8311 151.994L94.8169 151.951ZM106.92 135.752C105.175 133.897 103.874 131.669 103.115 129.237C102.356 126.806 102.159 124.234 102.54 121.715C103.267 116.023 103.42 110.271 102.995 104.549C102.995 104.065 102.995 103.638 102.924 103.311C104.573 101.889 112.239 97.7219 117.715 98.9735C118.93 99.2454 120.03 99.8884 120.863 100.813C121.696 101.738 122.221 102.9 122.365 104.136C125.636 119.326 122.806 125.64 120.516 130.732C120.047 131.784 119.606 132.765 119.222 133.789L118.924 134.586C118.194 136.445 117.572 138.344 117.06 140.275C115.154 140.241 113.274 139.825 111.532 139.05C109.79 138.276 108.222 137.159 106.92 135.766V135.752ZM107.503 156.218C106.563 155.993 105.668 155.608 104.858 155.08C105.771 154.694 106.725 154.412 107.702 154.241C114.813 152.819 115.994 151.71 118.412 148.552C118.966 147.841 119.606 147.045 120.474 146.063C121.768 144.641 122.365 144.854 123.446 145.31C123.955 145.586 124.402 145.965 124.757 146.423C125.112 146.88 125.368 147.407 125.508 147.969C125.654 148.379 125.707 148.815 125.665 149.247C125.624 149.68 125.487 150.098 125.267 150.472C120.204 157.583 112.822 157.484 107.532 156.161L107.503 156.218ZM145.092 191.304C136.303 193.196 133.203 188.701 131.14 183.553C129.818 180.239 129.178 165.292 129.633 148.751C129.634 148.535 129.606 148.32 129.548 148.111C129.487 147.719 129.407 147.329 129.306 146.945C129.006 145.804 128.46 144.743 127.705 143.836C126.951 142.929 126.007 142.199 124.94 141.697C123.691 141.086 122.272 140.916 120.915 141.214C121.396 139.452 121.976 137.719 122.65 136.022L122.948 135.226C123.276 134.316 123.702 133.391 124.143 132.382C126.518 127.062 129.832 119.766 126.248 103.311C124.911 97.1531 120.474 94.1379 113.747 94.7779C110.405 95.203 107.165 96.214 104.175 97.7646L103.151 98.4473C103.663 92.2322 105.612 80.6268 112.879 73.2882C117.373 68.6517 123.46 66.3619 130.884 66.4899C136.493 66.5467 142.022 67.8316 147.081 70.2543C152.14 72.677 156.607 76.1787 160.168 80.5131C163.646 84.5866 166.359 89.2555 168.175 94.2944C160.765 93.5406 155.731 95.0055 153.185 98.6748C147.624 106.639 156.214 122.099 160.296 129.523C161.05 130.945 161.718 132.069 161.917 132.566C162.999 135.144 164.467 137.541 166.269 139.678C166.668 140.161 167.037 140.63 167.322 141.1C165.089 141.754 161.05 143.247 161.42 150.742C161.121 154.497 159.016 172.076 157.949 178.319C156.527 186.54 153.512 189.598 145.036 191.418L145.092 191.304ZM181.786 149.206C178.668 150.451 175.357 151.144 172.001 151.254C167.976 151.439 165.914 150.799 165.444 150.401C165.217 145.736 166.867 145.253 168.772 144.712C169.061 144.642 169.346 144.556 169.626 144.456C169.797 144.612 169.982 144.75 170.18 144.869C173.409 147.016 179.183 147.244 187.347 145.551H187.432C185.752 147.056 183.847 148.289 181.786 149.206Z" fill="white"/>
</g>
<defs>
<clipPath id="clip0_303_17120">
<rect width="137.572" height="142.222" fill="white" transform="translate(59.0623 57.2029)"/>
</clipPath>
</defs>
</svg>
