<svg width="257" height="257" viewBox="0 0 257 257" fill="none" xmlns="http://www.w3.org/2000/svg">
<rect x="1.26111" y="1.39111" width="255" height="255" rx="31.5" fill="white"/>
<rect x="1.26111" y="1.39111" width="255" height="255" rx="31.5" stroke="#878787"/>
<g clip-path="url(#clip0_303_17196)">
<path d="M184.794 84.8508C176.198 73.7176 164.493 65.3839 151.159 60.9037C137.826 56.4235 123.464 55.998 109.889 59.6811C96.3139 63.3642 84.1361 70.9904 74.8957 81.5951C65.6553 92.1999 59.7674 105.307 57.9767 119.258C56.1861 133.209 58.573 147.378 64.8358 159.973C71.0985 172.568 80.9557 183.022 93.1605 190.014C105.365 197.006 119.37 200.221 133.402 199.254C147.435 198.286 160.865 193.178 171.994 184.577C179.389 178.874 185.586 171.769 190.233 163.668C194.879 155.567 197.882 146.63 199.071 137.368C200.26 128.105 199.611 118.699 197.161 109.688C194.711 100.676 190.509 92.2365 184.794 84.8508Z" fill="#929292"/>
<path d="M152.495 102.515L122.515 132.737L113.982 124.019C143.493 94.5077 146.465 97.1815 152.382 102.515H152.495Z" fill="white"/>
<path d="M122.515 133.562C122.25 133.551 121.998 133.445 121.804 133.263L113.271 124.73C113.096 124.534 112.999 124.281 112.999 124.019C112.999 123.756 113.096 123.503 113.271 123.308C142.369 94.1806 146.337 95.5174 153.207 101.733C153.324 101.828 153.416 101.95 153.477 102.088C153.548 102.218 153.578 102.367 153.562 102.515C153.586 102.656 153.572 102.802 153.522 102.937C153.472 103.071 153.388 103.191 153.278 103.283L123.283 133.263C123.077 133.46 122.8 133.568 122.515 133.562ZM115.518 124.047L122.515 131.045L150.96 102.6C149.975 101.371 148.573 100.547 147.021 100.284C145.468 100.022 143.873 100.34 142.54 101.178C137.392 103.482 129.1 110.536 115.518 124.047Z" fill="#929292"/>
<path d="M131.105 141.114L122.927 132.765L152.922 103.098C160.972 110.991 149.011 124.147 131.105 141.085V141.114Z" fill="white"/>
<path d="M131.105 142.152C130.841 142.138 130.589 142.033 130.394 141.853L122.046 133.676C121.982 133.527 121.95 133.368 121.95 133.206C121.95 133.045 121.982 132.885 122.046 132.737C121.96 132.488 121.96 132.218 122.046 131.969L152.026 101.974C152.238 101.786 152.511 101.68 152.794 101.676C153.078 101.677 153.352 101.783 153.562 101.974C154.537 102.866 155.309 103.957 155.824 105.174C156.328 106.395 156.571 107.708 156.535 109.029C156.535 117.036 147.404 127.105 131.873 141.74C131.674 141.955 131.398 142.083 131.105 142.095V142.152ZM124.478 132.737L131.162 139.421C143.024 128.229 154.344 116.666 154.401 108.844C154.461 107.188 153.91 105.567 152.851 104.293L124.478 132.737Z" fill="#929292"/>
<path d="M114.295 124.204L120.225 130.134L120.311 130.248C120.317 130.295 120.317 130.343 120.311 130.39C120.317 130.442 120.317 130.495 120.311 130.547L120.225 130.661L107.71 133.334C107.46 133.377 107.203 133.348 106.97 133.249C106.734 133.137 106.54 132.952 106.415 132.723C106.3 132.495 106.26 132.236 106.302 131.983C106.339 131.729 106.459 131.494 106.643 131.315L113.925 124.047C114.062 124.055 114.193 124.11 114.295 124.204Z" fill="white"/>
<path d="M107.411 134.515C107.016 134.505 106.63 134.398 106.288 134.202C105.943 134.008 105.654 133.729 105.448 133.391C105.215 132.956 105.135 132.455 105.221 131.969C105.292 131.489 105.516 131.045 105.861 130.703L113.1 123.421C113.36 123.19 113.697 123.061 114.046 123.061C114.394 123.061 114.731 123.19 114.992 123.421L120.922 129.338C121.086 129.509 121.204 129.719 121.266 129.947C121.328 130.176 121.332 130.416 121.278 130.646C121.205 130.878 121.074 131.088 120.897 131.254C120.72 131.421 120.504 131.54 120.268 131.599L107.767 134.259L107.411 134.515ZM114.039 125.469L107.354 132.154L118.433 129.793L114.039 125.469Z" fill="#929292"/>
<path d="M168.439 85.8605C166.895 84.3735 164.965 83.3481 162.869 82.9001C160.772 82.4521 158.593 82.5994 156.576 83.3254C154.559 84.0514 152.785 85.3272 151.455 87.0084C150.125 88.6897 149.292 90.7094 149.049 92.8394C148.807 94.9694 149.166 97.1247 150.084 99.0616C151.003 100.999 152.445 102.64 154.247 103.8C156.05 104.961 158.141 105.594 160.284 105.628C162.428 105.662 164.538 105.096 166.376 103.994L158.384 95.9299L168.439 85.8605Z" fill="white"/>
<path d="M160.446 106.71C157.994 106.666 155.609 105.906 153.583 104.524C151.558 103.141 149.981 101.196 149.047 98.9291C148.113 96.6619 147.863 94.1709 148.326 91.763C148.79 89.3551 149.947 87.1353 151.656 85.3769C154.03 83.0507 157.222 81.7478 160.545 81.7478C163.869 81.7478 167.06 83.0507 169.434 85.3769C169.604 85.5193 169.721 85.714 169.767 85.9304C169.813 86.1467 169.786 86.3723 169.69 86.5716C169.63 86.7063 169.543 86.8273 169.434 86.9271L159.806 95.9298L167.088 103.112C167.209 103.217 167.298 103.356 167.344 103.51C167.386 103.669 167.386 103.835 167.344 103.994C167.326 104.151 167.273 104.302 167.187 104.435C167.11 104.567 167.003 104.679 166.874 104.762C164.913 105.988 162.659 106.666 160.346 106.724L160.446 106.71ZM160.446 83.7271C158.89 83.7117 157.35 84.0454 155.94 84.7035C154.529 85.3617 153.285 86.3276 152.297 87.5303C151.31 88.7329 150.604 90.1417 150.233 91.653C149.861 93.1642 149.833 94.7395 150.151 96.2629C150.469 97.7864 151.124 99.2192 152.069 100.456C153.013 101.693 154.223 102.702 155.609 103.41C156.995 104.117 158.522 104.505 160.078 104.545C161.634 104.584 163.178 104.274 164.599 103.638L157.601 96.6409C157.497 96.5542 157.413 96.4455 157.355 96.3226C157.297 96.1997 157.268 96.0656 157.268 95.9298C157.268 95.794 157.297 95.6599 157.355 95.537C157.413 95.4141 157.497 95.3054 157.601 95.2187L166.917 85.9174C165.08 84.5086 162.832 83.7394 160.517 83.7271H160.446Z" fill="#929292"/>
<path d="M168.623 86.0313L158.483 96.1148L166.547 104.136C167.357 103.674 168.111 103.12 168.794 102.486C170.905 100.251 172.066 97.2843 172.035 94.2102C172.003 91.136 170.78 88.1939 168.623 86.0028V86.0313Z" fill="white"/>
<path d="M166.362 105.061C166.236 105.087 166.105 105.087 165.978 105.061C165.853 105.012 165.741 104.934 165.651 104.833L157.601 96.769C157.497 96.6823 157.413 96.5736 157.355 96.4507C157.297 96.3278 157.267 96.1937 157.267 96.0579C157.267 95.9221 157.297 95.788 157.355 95.6651C157.413 95.5422 157.497 95.4336 157.601 95.3468L167.671 85.3912C167.77 85.249 167.902 85.1321 168.055 85.0499C168.207 84.9662 168.378 84.9222 168.552 84.9219C168.731 84.9204 168.907 84.9645 169.064 85.0499C169.217 85.1321 169.349 85.249 169.448 85.3912C171.807 87.7122 173.151 90.8718 173.189 94.1806C173.186 95.837 172.853 97.4762 172.207 99.0019C171.571 100.53 170.633 101.914 169.448 103.069C168.749 103.812 167.949 104.453 167.073 104.975C166.844 105.061 166.591 105.061 166.362 104.975V105.061ZM159.806 95.9299L166.504 102.629C166.962 102.301 167.399 101.945 167.813 101.562C168.791 100.596 169.57 99.4475 170.104 98.181C170.639 96.9145 170.918 95.5552 170.927 94.1806C170.934 91.6768 170.012 89.2595 168.339 87.3966L159.806 95.9299Z" fill="#929292"/>
<path d="M153.747 103.752C152.942 103.002 151.882 102.585 150.782 102.585C149.681 102.585 148.622 103.002 147.816 103.752L120.979 130.533L125.416 135.041L153.861 110.152C154.294 109.755 154.638 109.27 154.871 108.73C155.084 108.172 155.181 107.577 155.155 106.981C155.155 106.383 155.029 105.791 154.785 105.245C154.539 104.706 154.186 104.222 153.747 103.823V103.752Z" fill="white"/>
<path d="M125.189 136.108C124.925 136.104 124.671 136.003 124.478 135.823L119.983 131.315C119.887 131.217 119.812 131.102 119.76 130.975C119.709 130.848 119.683 130.712 119.685 130.575C119.683 130.438 119.708 130.302 119.759 130.175C119.81 130.048 119.887 129.933 119.983 129.836L146.821 103.098C147.597 102.328 148.587 101.808 149.662 101.605C150.736 101.402 151.847 101.526 152.851 101.96C153.853 102.39 154.701 103.114 155.283 104.037C155.867 104.963 156.164 106.042 156.136 107.137C156.104 107.879 155.923 108.607 155.606 109.279C155.288 109.95 154.84 110.552 154.287 111.048L125.843 135.937C125.634 136.076 125.382 136.136 125.132 136.108H125.189ZM122.046 130.533L125.004 133.562L152.851 109.384C153.197 109.09 153.477 108.727 153.673 108.318C153.869 107.909 153.977 107.463 153.989 107.009C154.001 106.556 153.917 106.104 153.743 105.685C153.569 105.266 153.309 104.889 152.979 104.577C152.354 103.96 151.511 103.613 150.632 103.61C149.757 103.61 148.918 103.958 148.3 104.577L122.046 130.533Z" fill="#929292"/>
<path d="M100.172 161.025C100.1 161.13 100.061 161.254 100.058 161.381C100.059 161.508 100.099 161.632 100.172 161.736L101.367 166.899C101.409 167.204 101.365 167.514 101.239 167.795C101.097 168.064 100.886 168.29 100.627 168.449C100.364 168.607 100.057 168.675 99.7525 168.645C99.4475 168.614 99.1607 168.485 98.9346 168.278L90.8137 160.456L116.115 134.984H124.89L130.821 140.915C121.57 148.986 111.258 155.752 100.172 161.025Z" fill="white"/>
<path d="M99.6457 169.772C99.3132 169.768 98.9847 169.698 98.6795 169.567C98.3743 169.435 98.0983 169.243 97.8679 169.004L90.1168 161.238C90.0049 161.153 89.9168 161.04 89.8608 160.911C89.7958 160.783 89.762 160.642 89.762 160.499C89.762 160.355 89.7958 160.214 89.8608 160.086C89.9168 159.957 90.0049 159.845 90.1168 159.759L115.603 134.159C115.743 134.007 115.927 133.902 116.129 133.861H124.961C125.191 133.776 125.443 133.776 125.672 133.861L131.603 139.791C131.717 139.889 131.801 140.017 131.845 140.161C131.887 140.31 131.887 140.467 131.845 140.616C131.86 140.764 131.83 140.912 131.759 141.043C131.702 141.179 131.609 141.297 131.489 141.384L131.02 141.811C121.737 149.543 111.528 156.088 100.627 161.295L101.751 166.102C101.841 166.472 101.846 166.858 101.764 167.23C101.683 167.603 101.518 167.951 101.281 168.25C101.05 168.55 100.753 168.793 100.414 168.961C100.073 169.133 99.6998 169.23 99.3185 169.245L99.6457 169.772ZM92.4208 160.47L99.4039 167.581C99.471 167.641 99.5562 167.676 99.6457 167.681C99.7313 167.678 99.8126 167.642 99.8732 167.581C99.9174 167.524 99.9423 167.455 99.9443 167.382C99.9424 167.306 99.9177 167.231 99.8732 167.169L98.6501 161.949C98.5593 161.578 98.5995 161.186 98.7639 160.84C98.9231 160.491 99.2 160.209 99.5461 160.044C110.172 154.912 120.134 148.508 129.214 140.972L124.35 136.108H116.414L92.4208 160.47Z" fill="#929292"/>
<path d="M84.7123 166.572L90.643 160.641L99.7595 169.772L85.2386 168.762C84.9899 168.746 84.7541 168.646 84.5701 168.477C84.3806 168.319 84.2462 168.105 84.1861 167.866C84.1089 167.625 84.1089 167.367 84.1861 167.126C84.2768 166.895 84.4419 166.699 84.6554 166.572H84.7123Z" fill="white"/>
<path d="M99.9444 170.653L85.4804 169.658C85.0643 169.614 84.6679 169.458 84.3326 169.208C83.9973 168.958 83.7355 168.622 83.5746 168.236C83.429 167.838 83.3971 167.408 83.4825 166.994C83.5679 166.579 83.7673 166.196 84.0581 165.889L89.9888 159.958C90.1882 159.768 90.4528 159.661 90.7284 159.66C91.0034 159.664 91.2669 159.771 91.4679 159.958L100.527 169.032C100.656 169.2 100.726 169.404 100.727 169.615C100.726 169.83 100.656 170.04 100.527 170.213C100.392 170.431 100.187 170.597 99.9444 170.682V170.653ZM85.4804 167.34L97.3275 168.108L90.8137 162.006L85.4804 167.34Z" fill="#929292"/>
<path d="M125.672 135.695L113.697 137.53L120.638 130.661L125.672 135.695Z" fill="white"/>
<path d="M113.74 138.653C113.545 138.664 113.351 138.614 113.185 138.511C113.018 138.404 112.884 138.251 112.801 138.07C112.675 137.888 112.614 137.668 112.626 137.446C112.639 137.225 112.726 137.014 112.872 136.847L119.742 129.921C119.948 129.723 120.223 129.611 120.51 129.608C120.797 129.608 121.073 129.72 121.278 129.921L126.327 134.956C126.423 135.114 126.472 135.296 126.469 135.482C126.474 135.672 126.425 135.859 126.327 136.022C126.273 136.219 126.165 136.397 126.014 136.534C125.867 136.669 125.684 136.758 125.488 136.79L113.64 138.625L113.74 138.653ZM120.68 132.196L116.826 136.051L123.468 135.041L120.68 132.196Z" fill="#929292"/>
<path d="M125.672 135.695L117.324 136.762C117.107 136.834 116.872 136.834 116.655 136.762C116.444 136.675 116.269 136.52 116.158 136.321C116.045 136.117 116 135.883 116.03 135.653C116.059 135.428 116.158 135.219 116.314 135.055L120.581 130.789L125.672 135.695Z" fill="white"/>
<path d="M117.139 137.885C116.752 137.886 116.371 137.782 116.038 137.584C115.705 137.386 115.432 137.102 115.247 136.762C115.02 136.355 114.931 135.887 114.991 135.425C115.057 134.966 115.271 134.541 115.603 134.216L119.87 129.949C120.075 129.749 120.351 129.636 120.638 129.637C120.924 129.639 121.199 129.751 121.406 129.949L126.44 134.984C126.592 135.127 126.7 135.309 126.753 135.51C126.81 135.705 126.81 135.913 126.753 136.108C126.693 136.308 126.568 136.483 126.398 136.605C126.239 136.731 126.045 136.806 125.843 136.819L117.537 137.885H117.139ZM117.139 135.695L123.425 134.927L120.581 132.083L117.139 135.695ZM168.68 92.8579C168.571 92.6668 168.393 92.5244 168.183 92.4597C168.084 92.4174 167.977 92.3956 167.87 92.3956C167.762 92.3956 167.656 92.4174 167.557 92.4597C167.457 92.505 167.369 92.5732 167.301 92.6588C167.23 92.7418 167.176 92.8387 167.144 92.9432C167.099 93.0439 167.076 93.1529 167.076 93.2632C167.076 93.3735 167.099 93.4826 167.144 93.5832C167.365 94.0093 167.461 94.4891 167.42 94.9672C167.38 95.4453 167.205 95.9022 166.917 96.2854C166.847 96.3616 166.79 96.4479 166.746 96.5414C166.689 96.6873 166.675 96.8464 166.705 97C166.736 97.1536 166.809 97.2955 166.917 97.409C166.99 97.4443 167.07 97.4626 167.151 97.4626C167.233 97.4626 167.313 97.4443 167.386 97.409C167.525 97.4518 167.674 97.4518 167.813 97.409C167.944 97.3643 168.062 97.2858 168.154 97.1814C168.645 96.5832 168.956 95.8583 169.051 95.0907C169.147 94.323 169.023 93.5439 168.695 92.8437L168.68 92.8579Z" fill="#929292"/>
</g>
<defs>
<clipPath id="clip0_303_17196">
<rect width="142.222" height="142.222" fill="white" transform="translate(57.4058 57.2028)"/>
</clipPath>
</defs>
</svg>
