<svg width="257" height="256" viewBox="0 0 257 256" fill="none" xmlns="http://www.w3.org/2000/svg">
<rect x="1.26111" y="0.5" width="255" height="255" rx="31.5" fill="white"/>
<rect x="1.26111" y="0.5" width="255" height="255" rx="31.5" stroke="#878787"/>
<g clip-path="url(#clip0_303_17115)">
<path d="M162.38 83.405H169.15C170.048 83.405 170.908 83.7617 171.543 84.3964C172.178 85.0312 172.535 85.8922 172.535 86.7899C172.535 87.6876 172.178 88.5486 171.543 89.1834C170.908 89.8182 170.048 90.1748 169.15 90.1748H162.38C161.482 90.1748 160.621 89.8182 159.987 89.1834C159.352 88.5486 158.995 87.6876 158.995 86.7899C158.995 85.8922 159.352 85.0312 159.987 84.3964C160.621 83.7617 161.482 83.405 162.38 83.405Z" fill="#979797"/>
<path d="M60.7907 191.764H94.6538C95.5515 191.764 96.4124 192.121 97.0472 192.756C97.682 193.39 98.0387 194.251 98.0387 195.149C98.0387 196.047 97.682 196.908 97.0472 197.543C96.4124 198.177 95.5515 198.534 94.6538 198.534H60.7907C59.8929 198.534 59.032 198.177 58.3972 197.543C57.7624 196.908 57.4058 196.047 57.4058 195.149C57.4058 194.251 57.7624 193.39 58.3972 192.756C59.032 192.121 59.8929 191.764 60.7907 191.764Z" fill="#888888"/>
<path d="M142.056 137.578H162.38C163.278 137.578 164.139 137.934 164.773 138.569C165.408 139.204 165.765 140.065 165.765 140.963C165.765 141.86 165.408 142.721 164.773 143.356C164.139 143.991 163.278 144.347 162.38 144.347H142.056C141.159 144.347 140.298 143.991 139.663 143.356C139.028 142.721 138.672 141.86 138.672 140.963C138.672 140.065 139.028 139.204 139.663 138.569C140.298 137.934 141.159 137.578 142.056 137.578Z" fill="#9D9D9D"/>
<path d="M101.495 137.578H128.517C129.415 137.578 130.276 137.934 130.91 138.569C131.545 139.204 131.902 140.065 131.902 140.963C131.902 141.86 131.545 142.721 130.91 143.356C130.276 143.991 129.415 144.347 128.517 144.347H101.495C100.597 144.347 99.7359 143.991 99.1012 143.356C98.4664 142.721 98.1097 141.86 98.1097 140.963C98.1097 140.065 98.4664 139.204 99.1012 138.569C99.7359 137.934 100.597 137.578 101.495 137.578Z" fill="#888888"/>
<path d="M60.7907 137.578H87.884C88.7818 137.578 89.6427 137.934 90.2775 138.569C90.9123 139.204 91.2689 140.065 91.2689 140.963C91.2689 141.86 90.9123 142.721 90.2775 143.356C89.6427 143.991 88.7818 144.347 87.884 144.347H60.8618C59.9641 144.347 59.1031 143.991 58.4683 143.356C57.8335 142.721 57.4769 141.86 57.4769 140.963C57.4769 140.065 57.8335 139.204 58.4683 138.569C59.1031 137.934 59.9641 137.578 60.8618 137.578H60.7907Z" fill="#979797"/>
<path d="M60.7907 164.671H94.6538C95.5515 164.671 96.4124 165.028 97.0472 165.662C97.682 166.297 98.0387 167.158 98.0387 168.056C98.0387 168.954 97.682 169.814 97.0472 170.449C96.4124 171.084 95.5515 171.441 94.6538 171.441H60.7907C59.8929 171.441 59.032 171.084 58.3972 170.449C57.7624 169.814 57.4058 168.954 57.4058 168.056C57.4058 167.158 57.7624 166.297 58.3972 165.662C59.032 165.028 59.8929 164.671 60.7907 164.671Z" fill="#9D9D9D"/>
<path d="M60.7907 110.499H94.6538C95.5515 110.499 96.4124 110.855 97.0472 111.49C97.682 112.125 98.0387 112.986 98.0387 113.883C98.0387 114.781 97.682 115.642 97.0472 116.277C96.4124 116.912 95.5515 117.268 94.6538 117.268H60.7907C59.8929 117.268 59.032 116.912 58.3972 116.277C57.7624 115.642 57.4058 114.781 57.4058 113.883C57.4058 112.986 57.7624 112.125 58.3972 111.49C59.032 110.855 59.8929 110.499 60.7907 110.499Z" fill="#9D9D9D"/>
<path d="M94.6537 69.8513H162.38C163.242 69.9071 164.05 70.2888 164.64 70.9188C165.231 71.5488 165.559 72.3799 165.559 73.2433C165.559 74.1068 165.231 74.9379 164.64 75.5679C164.05 76.1978 163.242 76.5795 162.38 76.6353H94.6537C93.7921 76.5795 92.984 76.1978 92.3935 75.5679C91.803 74.9379 91.4744 74.1068 91.4744 73.2433C91.4744 72.3799 91.803 71.5488 92.3935 70.9188C92.984 70.2888 93.7921 69.9071 94.6537 69.8513Z" fill="#BFBFBF"/>
<path d="M60.7907 69.8513H81.1142C81.9759 69.9071 82.784 70.2888 83.3745 70.9188C83.965 71.5488 84.2936 72.3799 84.2936 73.2433C84.2936 74.1068 83.965 74.9379 83.3745 75.5679C82.784 76.1978 81.9759 76.5795 81.1142 76.6353H60.7907C59.929 76.5795 59.1209 76.1978 58.5304 75.5679C57.9399 74.9379 57.6113 74.1068 57.6113 73.2433C57.6113 72.3799 57.9399 71.5488 58.5304 70.9188C59.1209 70.2888 59.929 69.9071 60.7907 69.8513Z" fill="#888888"/>
<path d="M87.8839 178.21H94.6537C95.5154 178.266 96.3235 178.648 96.914 179.278C97.5045 179.908 97.8331 180.739 97.8331 181.602C97.8331 182.466 97.5045 183.297 96.914 183.927C96.3235 184.557 95.5154 184.939 94.6537 184.994H87.8839C87.0223 184.939 86.2142 184.557 85.6237 183.927C85.0332 183.297 84.7046 182.466 84.7046 181.602C84.7046 180.739 85.0332 179.908 85.6237 179.278C86.2142 178.648 87.0223 178.266 87.8839 178.21Z" fill="#BFBFBF"/>
<path d="M87.884 96.9446H94.6538C95.5515 96.9446 96.4125 97.3012 97.0473 97.936C97.6821 98.5708 98.0387 99.4317 98.0387 100.329C98.0387 101.227 97.6821 102.088 97.0473 102.723C96.4125 103.358 95.5515 103.714 94.6538 103.714H87.884C86.9863 103.714 86.1253 103.358 85.4906 102.723C84.8558 102.088 84.4991 101.227 84.4991 100.329C84.4991 99.4317 84.8558 98.5708 85.4906 97.936C86.1253 97.3012 86.9863 96.9446 87.884 96.9446Z" fill="#979797"/>
<path d="M60.7907 178.21H74.3302C74.7942 178.18 75.2593 178.246 75.6969 178.403C76.1346 178.56 76.5354 178.805 76.8745 179.122C77.2137 179.44 77.4841 179.825 77.6689 180.251C77.8537 180.678 77.9491 181.138 77.9491 181.602C77.9491 182.067 77.8537 182.527 77.6689 182.954C77.4841 183.38 77.2137 183.765 76.8745 184.082C76.5354 184.4 76.1346 184.645 75.6969 184.802C75.2593 184.959 74.7942 185.025 74.3302 184.994H60.7907C59.929 184.939 59.1209 184.557 58.5304 183.927C57.9399 183.297 57.6113 182.466 57.6113 181.602C57.6113 180.739 57.9399 179.908 58.5304 179.278C59.1209 178.648 59.929 178.266 60.7907 178.21Z" fill="#979797"/>
<path d="M60.7907 96.9446H74.3302C75.2279 96.9446 76.0889 97.3012 76.7237 97.936C77.3585 98.5708 77.7151 99.4317 77.7151 100.329C77.7151 101.227 77.3585 102.088 76.7237 102.723C76.0889 103.358 75.2279 103.714 74.3302 103.714H60.7907C59.8929 103.714 59.032 103.358 58.3972 102.723C57.7624 102.088 57.4058 101.227 57.4058 100.329C57.4058 99.4317 57.7624 98.5708 58.3972 97.936C59.032 97.3012 59.8929 96.9446 60.7907 96.9446Z" fill="#BFBFBF"/>
<path opacity="0.5" d="M148.84 178.21H155.61C156.472 178.266 157.28 178.648 157.87 179.278C158.461 179.908 158.79 180.739 158.79 181.602C158.79 182.466 158.461 183.297 157.87 183.927C157.28 184.557 156.472 184.939 155.61 184.994H148.84C148.377 185.025 147.911 184.959 147.474 184.802C147.036 184.645 146.635 184.4 146.296 184.082C145.957 183.765 145.687 183.38 145.502 182.954C145.317 182.527 145.222 182.067 145.222 181.602C145.222 181.138 145.317 180.678 145.502 180.251C145.687 179.825 145.957 179.44 146.296 179.122C146.635 178.805 147.036 178.56 147.474 178.403C147.911 178.246 148.377 178.18 148.84 178.21Z" fill="#D3D3D3"/>
<path opacity="0.5" d="M108.193 178.21H135.215C136.077 178.266 136.885 178.648 137.476 179.278C138.066 179.908 138.395 180.739 138.395 181.602C138.395 182.466 138.066 183.297 137.476 183.927C136.885 184.557 136.077 184.939 135.215 184.994H108.193C107.332 184.939 106.524 184.557 105.933 183.927C105.343 183.297 105.014 182.466 105.014 181.602C105.014 180.739 105.343 179.908 105.933 179.278C106.524 178.648 107.332 178.266 108.193 178.21Z" fill="#D3D3D3"/>
<path opacity="0.5" d="M169.15 178.21H196.243C197.105 178.266 197.913 178.648 198.503 179.278C199.094 179.908 199.422 180.739 199.422 181.602C199.422 182.466 199.094 183.297 198.503 183.927C197.913 184.557 197.105 184.939 196.243 184.994H169.15C168.288 184.939 167.48 184.557 166.89 183.927C166.299 183.297 165.97 182.466 165.97 181.602C165.97 180.739 166.299 179.908 166.89 179.278C167.48 178.648 168.288 178.266 169.15 178.21Z" fill="#D3D3D3"/>
<path d="M114.977 124.038H169.15C170.047 124.038 170.908 124.395 171.543 125.029C172.178 125.664 172.535 126.525 172.535 127.423C172.535 128.321 172.178 129.182 171.543 129.816C170.908 130.451 170.047 130.808 169.15 130.808H114.977C114.08 130.808 113.219 130.451 112.584 129.816C111.949 129.182 111.592 128.321 111.592 127.423C111.592 126.525 111.949 125.664 112.584 125.029C113.219 124.395 114.08 124.038 114.977 124.038Z" fill="#979797"/>
<path d="M81.1143 124.038H101.495C102.392 124.038 103.253 124.395 103.888 125.029C104.523 125.664 104.88 126.525 104.88 127.423C104.88 128.321 104.523 129.182 103.888 129.816C103.253 130.451 102.392 130.808 101.495 130.808H81.1143C80.2165 130.808 79.3556 130.451 78.7208 129.816C78.086 129.182 77.7294 128.321 77.7294 127.423C77.7294 126.525 78.086 125.664 78.7208 125.029C79.3556 124.395 80.2165 124.038 81.1143 124.038Z" fill="#BFBFBF"/>
<path d="M60.7907 124.038H67.5604C68.4582 124.038 69.3191 124.395 69.9539 125.029C70.5887 125.664 70.9453 126.525 70.9453 127.423C70.9453 128.321 70.5887 129.182 69.9539 129.816C69.3191 130.451 68.4582 130.808 67.5604 130.808H60.7907C59.8929 130.808 59.032 130.451 58.3972 129.816C57.7624 129.182 57.4058 128.321 57.4058 127.423C57.4058 126.525 57.7624 125.664 58.3972 125.029C59.032 124.395 59.8929 124.038 60.7907 124.038Z" fill="#888888"/>
<path d="M121.747 83.405H148.84C149.738 83.405 150.599 83.7617 151.234 84.3964C151.869 85.0312 152.225 85.8922 152.225 86.7899C152.225 87.6876 151.869 88.5486 151.234 89.1834C150.599 89.8182 149.738 90.1748 148.84 90.1748H121.747C120.849 90.1748 119.988 89.8182 119.354 89.1834C118.719 88.5486 118.362 87.6876 118.362 86.7899C118.362 85.8922 118.719 85.0312 119.354 84.3964C119.988 83.7617 120.849 83.405 121.747 83.405Z" fill="#9D9D9D"/>
<path d="M60.7907 83.405H108.193C109.091 83.405 109.952 83.7617 110.587 84.3964C111.222 85.0312 111.578 85.8922 111.578 86.7899C111.578 87.6876 111.222 88.5486 110.587 89.1834C109.952 89.8182 109.091 90.1748 108.193 90.1748H60.7907C59.8929 90.1748 59.032 89.8182 58.3972 89.1834C57.7624 88.5486 57.4058 87.6876 57.4058 86.7899C57.4058 85.8922 57.7624 85.0312 58.3972 84.3964C59.032 83.7617 59.8929 83.405 60.7907 83.405Z" fill="#979797"/>
<path d="M81.1143 151.131H142.056C142.954 151.131 143.815 151.488 144.45 152.123C145.085 152.758 145.441 153.619 145.441 154.516C145.441 155.414 145.085 156.275 144.45 156.91C143.815 157.545 142.954 157.901 142.056 157.901H81.1143C80.2165 157.901 79.3556 157.545 78.7208 156.91C78.086 156.275 77.7294 155.414 77.7294 154.516C77.7294 153.619 78.086 152.758 78.7208 152.123C79.3556 151.488 80.2165 151.131 81.1143 151.131Z" fill="#BFBFBF"/>
<path d="M60.7907 151.131H67.5604C68.4582 151.131 69.3191 151.488 69.9539 152.123C70.5887 152.758 70.9453 153.619 70.9453 154.516C70.9453 155.414 70.5887 156.275 69.9539 156.91C69.3191 157.545 68.4582 157.901 67.5604 157.901H60.7907C59.8929 157.901 59.032 157.545 58.3972 156.91C57.7624 156.275 57.4058 155.414 57.4058 154.516C57.4058 153.619 57.7624 152.758 58.3972 152.123C59.032 151.488 59.8929 151.131 60.7907 151.131Z" fill="#9D9D9D"/>
<path d="M142.056 96.9446H175.92C176.817 96.9446 177.678 97.3012 178.313 97.936C178.948 98.5708 179.304 99.4317 179.304 100.329C179.304 101.227 178.948 102.088 178.313 102.723C177.678 103.358 176.817 103.714 175.92 103.714H142.056C141.159 103.714 140.298 103.358 139.663 102.723C139.028 102.088 138.672 101.227 138.672 100.329C138.672 99.4317 139.028 98.5708 139.663 97.936C140.298 97.3012 141.159 96.9446 142.056 96.9446Z" fill="#888888"/>
<path d="M142.056 110.499H175.92C176.817 110.499 177.678 110.855 178.313 111.49C178.948 112.125 179.304 112.986 179.304 113.883C179.304 114.781 178.948 115.642 178.313 116.277C177.678 116.912 176.817 117.268 175.92 117.268H142.056C141.159 117.268 140.298 116.912 139.663 116.277C139.028 115.642 138.672 114.781 138.672 113.883C138.672 112.986 139.028 112.125 139.663 111.49C140.298 110.855 141.159 110.499 142.056 110.499Z" fill="#BFBFBF"/>
<path d="M60.7908 56.312H142.057C142.503 56.3063 142.945 56.3899 143.359 56.558C143.772 56.7261 144.147 56.9752 144.463 57.2907C144.778 57.6061 145.027 57.9816 145.195 58.3948C145.364 58.8081 145.447 59.2508 145.441 59.6969C145.447 60.143 145.364 60.5858 145.195 60.999C145.027 61.4123 144.778 61.7877 144.463 62.1032C144.147 62.4186 143.772 62.6678 143.359 62.8358C142.945 63.0039 142.503 63.0876 142.057 63.0818H60.7908C60.3452 63.0856 59.9033 63.0007 59.491 62.8319C59.0786 62.6631 58.7039 62.4139 58.3888 62.0989C58.0738 61.7838 57.8246 61.4091 57.6558 60.9967C57.4871 60.5844 57.4021 60.1425 57.4059 59.6969C57.4021 59.2514 57.4871 58.8095 57.6558 58.3971C57.8246 57.9847 58.0738 57.6101 58.3888 57.295C58.7039 56.9799 59.0786 56.7307 59.491 56.562C59.9033 56.3932 60.3452 56.3083 60.7908 56.312Z" fill="#979797"/>
<path opacity="0.5" d="M155.61 56.3118H196.243C196.689 56.308 197.131 56.393 197.543 56.5617C197.955 56.7305 198.33 56.9797 198.645 57.2948C198.96 57.6098 199.209 57.9845 199.378 58.3969C199.547 58.8093 199.632 59.2511 199.628 59.6967C199.632 60.1423 199.547 60.5841 199.378 60.9965C199.209 61.4089 198.96 61.7835 198.645 62.0986C198.33 62.4137 197.955 62.6629 197.543 62.8316C197.131 63.0004 196.689 63.0854 196.243 63.0816H155.61C155.164 63.0873 154.721 63.0037 154.308 62.8356C153.895 62.6675 153.519 62.4184 153.204 62.1029C152.889 61.7875 152.639 61.412 152.471 60.9988C152.303 60.5855 152.22 60.1428 152.225 59.6967C152.22 59.2506 152.303 58.8079 152.471 58.3946C152.639 57.9813 152.889 57.6059 153.204 57.2904C153.519 56.975 153.895 56.7259 154.308 56.5578C154.721 56.3897 155.164 56.3061 155.61 56.3118Z" fill="#D3D3D3"/>
<path opacity="0.5" d="M155.61 151.131H169.15C170.048 151.131 170.908 151.488 171.543 152.123C172.178 152.758 172.535 153.619 172.535 154.516C172.535 155.414 172.178 156.275 171.543 156.91C170.908 157.545 170.048 157.901 169.15 157.901H155.61C154.713 157.901 153.852 157.545 153.217 156.91C152.582 156.275 152.225 155.414 152.225 154.516C152.225 153.619 152.582 152.758 153.217 152.123C153.852 151.488 154.713 151.131 155.61 151.131Z" fill="#D3D3D3"/>
<path opacity="0.5" d="M182.703 151.131H196.243C197.141 151.131 198.002 151.488 198.637 152.123C199.271 152.758 199.628 153.619 199.628 154.516C199.628 155.414 199.271 156.275 198.637 156.91C198.002 157.545 197.141 157.901 196.243 157.901H182.703C181.806 157.901 180.945 157.545 180.31 156.91C179.675 156.275 179.319 155.414 179.319 154.516C179.319 153.619 179.675 152.758 180.31 152.123C180.945 151.488 181.806 151.131 182.703 151.131Z" fill="#D3D3D3"/>
<path opacity="0.5" d="M175.92 137.578H196.243C197.141 137.578 198.002 137.934 198.637 138.569C199.271 139.204 199.628 140.065 199.628 140.963C199.628 141.86 199.271 142.721 198.637 143.356C198.002 143.991 197.141 144.347 196.243 144.347H175.92C175.022 144.347 174.161 143.991 173.526 143.356C172.891 142.721 172.535 141.86 172.535 140.963C172.535 140.065 172.891 139.204 173.526 138.569C174.161 137.934 175.022 137.578 175.92 137.578Z" fill="#D3D3D3"/>
<path opacity="0.5" d="M175.92 69.8513H196.243C197.105 69.9071 197.913 70.2888 198.503 70.9188C199.094 71.5488 199.423 72.3799 199.423 73.2433C199.423 74.1068 199.094 74.9379 198.503 75.5679C197.913 76.1978 197.105 76.5795 196.243 76.6353H175.92C175.058 76.5795 174.25 76.1978 173.659 75.5679C173.069 74.9379 172.74 74.1068 172.74 73.2433C172.74 72.3799 173.069 71.5488 173.659 70.9188C174.25 70.2888 175.058 69.9071 175.92 69.8513Z" fill="#D3D3D3"/>
<path opacity="0.5" d="M182.703 124.038H196.243C197.141 124.038 198.002 124.395 198.637 125.029C199.271 125.664 199.628 126.525 199.628 127.423C199.628 128.321 199.271 129.182 198.637 129.816C198.002 130.451 197.141 130.808 196.243 130.808H182.703C181.806 130.808 180.945 130.451 180.31 129.816C179.675 129.182 179.319 128.321 179.319 127.423C179.319 126.525 179.675 125.664 180.31 125.029C180.945 124.395 181.806 124.038 182.703 124.038Z" fill="#D3D3D3"/>
<path opacity="0.5" d="M182.703 83.405H196.243C197.141 83.405 198.002 83.7617 198.637 84.3964C199.271 85.0312 199.628 85.8922 199.628 86.7899C199.628 87.6876 199.271 88.5486 198.637 89.1834C198.002 89.8182 197.141 90.1748 196.243 90.1748H182.703C181.806 90.1748 180.945 89.8182 180.31 89.1834C179.675 88.5486 179.319 87.6876 179.319 86.7899C179.319 85.8922 179.675 85.0312 180.31 84.3964C180.945 83.7617 181.806 83.405 182.703 83.405Z" fill="#D3D3D3"/>
<path opacity="0.5" d="M189.473 96.9446H196.243C197.141 96.9446 198.002 97.3012 198.637 97.936C199.271 98.5708 199.628 99.4317 199.628 100.329C199.628 101.227 199.271 102.088 198.637 102.723C198.002 103.358 197.141 103.714 196.243 103.714H189.473C188.576 103.714 187.715 103.358 187.08 102.723C186.445 102.088 186.088 101.227 186.088 100.329C186.088 99.4317 186.445 98.5708 187.08 97.936C187.715 97.3012 188.576 96.9446 189.473 96.9446Z" fill="#D3D3D3"/>
<path opacity="0.5" d="M189.473 110.499H196.243C197.141 110.499 198.002 110.855 198.637 111.49C199.271 112.125 199.628 112.986 199.628 113.883C199.628 114.781 199.271 115.642 198.637 116.277C198.002 116.912 197.141 117.268 196.243 117.268H189.473C188.576 117.268 187.715 116.912 187.08 116.277C186.445 115.642 186.088 114.781 186.088 113.883C186.088 112.986 186.445 112.125 187.08 111.49C187.715 110.855 188.576 110.499 189.473 110.499Z" fill="#D3D3D3"/>
<path opacity="0.5" d="M135.287 164.671H196.243C197.141 164.671 198.002 165.028 198.637 165.662C199.271 166.297 199.628 167.158 199.628 168.056C199.628 168.954 199.271 169.814 198.637 170.449C198.002 171.084 197.141 171.441 196.243 171.441H135.287C134.389 171.441 133.528 171.084 132.893 170.449C132.258 169.814 131.902 168.954 131.902 168.056C131.902 167.158 132.258 166.297 132.893 165.662C133.528 165.028 134.389 164.671 135.287 164.671Z" fill="#D3D3D3"/>
<path opacity="0.5" d="M108.193 164.671H121.747C122.645 164.671 123.506 165.028 124.141 165.662C124.775 166.297 125.132 167.158 125.132 168.056C125.132 168.954 124.775 169.814 124.141 170.449C123.506 171.084 122.645 171.441 121.747 171.441H108.193C107.296 171.441 106.435 171.084 105.8 170.449C105.165 169.814 104.808 168.954 104.808 168.056C104.808 167.158 105.165 166.297 105.8 165.662C106.435 165.028 107.296 164.671 108.193 164.671Z" fill="#D3D3D3"/>
<path opacity="0.5" d="M162.38 191.764H196.243C197.141 191.764 198.002 192.121 198.637 192.756C199.271 193.39 199.628 194.251 199.628 195.149C199.628 196.047 199.271 196.908 198.637 197.543C198.002 198.177 197.141 198.534 196.243 198.534H162.38C161.482 198.534 160.621 198.177 159.987 197.543C159.352 196.908 158.995 196.047 158.995 195.149C158.995 194.251 159.352 193.39 159.987 192.756C160.621 192.121 161.482 191.764 162.38 191.764Z" fill="#D3D3D3"/>
<path opacity="0.5" d="M108.193 191.764H148.84C149.738 191.764 150.599 192.121 151.234 192.756C151.869 193.39 152.225 194.251 152.225 195.149C152.225 196.047 151.869 196.908 151.234 197.543C150.599 198.177 149.738 198.534 148.84 198.534H108.193C107.296 198.534 106.435 198.177 105.8 197.543C105.165 196.908 104.808 196.047 104.808 195.149C104.808 194.251 105.165 193.39 105.8 192.756C106.435 192.121 107.296 191.764 108.193 191.764Z" fill="#D3D3D3"/>
<path opacity="0.5" d="M108.193 96.9446H128.517C129.415 96.9446 130.276 97.3012 130.91 97.936C131.545 98.5708 131.902 99.4317 131.902 100.329C131.902 101.227 131.545 102.088 130.91 102.723C130.276 103.358 129.415 103.714 128.517 103.714H108.193C107.296 103.714 106.435 103.358 105.8 102.723C105.165 102.088 104.808 101.227 104.808 100.329C104.808 99.4317 105.165 98.5708 105.8 97.936C106.435 97.3012 107.296 96.9446 108.193 96.9446Z" fill="#D3D3D3"/>
<path opacity="0.5" d="M108.193 110.499H128.517C129.415 110.499 130.276 110.855 130.91 111.49C131.545 112.125 131.902 112.986 131.902 113.883C131.902 114.781 131.545 115.642 130.91 116.277C130.276 116.912 129.415 117.268 128.517 117.268H108.193C107.296 117.268 106.435 116.912 105.8 116.277C105.165 115.642 104.808 114.781 104.808 113.883C104.808 112.986 105.165 112.125 105.8 111.49C106.435 110.855 107.296 110.499 108.193 110.499Z" fill="#D3D3D3"/>
</g>
<defs>
<clipPath id="clip0_303_17115">
<rect width="142.222" height="142.222" fill="white" transform="translate(57.4058 56.3118)"/>
</clipPath>
</defs>
</svg>
