<svg width="256" height="256" viewBox="0 0 256 256" fill="none" xmlns="http://www.w3.org/2000/svg">
<rect x="0.5" y="0.5" width="255" height="255" rx="31.5" fill="white"/>
<rect x="0.5" y="0.5" width="255" height="255" rx="31.5" stroke="#878787"/>
<g clip-path="url(#clip0_303_17205)">
<path fill-rule="evenodd" clip-rule="evenodd" d="M71.5249 153.933C70.827 152.808 70.4573 151.51 70.4573 150.186C70.4573 148.861 70.827 147.563 71.5249 146.438L124.716 59.6825C125.393 58.6005 126.35 57.7207 127.484 57.1357C128.619 56.5506 129.89 56.2818 131.165 56.3575C132.439 56.4331 133.67 56.8504 134.727 57.5656C135.785 58.2808 136.63 59.2675 137.175 60.4221L185.701 165.823C186.12 166.74 186.34 167.736 186.345 168.745C186.35 169.753 186.14 170.751 185.73 171.673C185.32 172.594 184.718 173.418 183.965 174.089C183.213 174.76 182.325 175.263 181.363 175.565L105.729 198.235C104.251 198.673 102.671 198.618 101.227 198.079C99.7829 197.54 98.5529 196.547 97.7222 195.249L71.5249 153.933ZM130.789 85.055C130.897 84.4947 131.183 83.984 131.603 83.5985C132.024 83.2129 132.558 82.9729 133.125 82.9139C133.693 82.8549 134.264 82.9801 134.755 83.2709C135.246 83.5617 135.631 84.0027 135.852 84.5287L169.345 162.068C169.494 162.413 169.567 162.785 169.562 163.159C169.556 163.534 169.471 163.904 169.313 164.243C169.154 164.583 168.926 164.886 168.642 165.131C168.358 165.376 168.026 165.559 167.667 165.667L115.443 181.311C115.004 181.44 114.539 181.453 114.094 181.35C113.648 181.246 113.237 181.03 112.899 180.721C112.562 180.412 112.31 180.021 112.167 179.586C112.025 179.152 111.997 178.688 112.087 178.239L130.789 85.055Z" fill="#363636"/>
</g>
<defs>
<clipPath id="clip0_303_17205">
<rect width="115.925" height="142.222" fill="white" transform="translate(70.4298 56.3118)"/>
</clipPath>
</defs>
</svg>
