<svg width="257" height="257" viewBox="0 0 257 257" fill="none" xmlns="http://www.w3.org/2000/svg">
<rect x="0.776123" y="1.09424" width="255" height="255" rx="31.5" fill="white"/>
<rect x="0.776123" y="1.09424" width="255" height="255" rx="31.5" stroke="#878787"/>
<g clip-path="url(#clip0_303_17200)">
<path d="M56.5281 58.0935H198.75V197.941H56.5281V58.0935Z" fill="url(#paint0_linear_303_17200)"/>
<path d="M67.9059 69.2153H187.515V186.819H67.9059V69.2153Z" fill="url(#paint1_linear_303_17200)"/>
<path d="M90.9032 97.5032C90.9032 97.5032 99.8916 97.2756 107.287 97.2756C114.683 97.2756 120.087 99.0392 123.685 102.125C125.543 103.853 127.012 105.956 127.993 108.296C128.974 110.636 129.445 113.157 129.374 115.693C129.593 120.696 127.818 125.581 124.439 129.276C120.301 133.542 115.479 135.974 107.245 136.387C104.969 136.486 102.878 136.515 102.878 136.515V155.004H90.9032V97.5032ZM102.921 126.232C104.271 126.308 105.624 126.308 106.974 126.232C113.417 126.147 117.399 122.236 117.399 116.277C117.399 110.943 114.114 106.577 107.927 106.321C105.467 106.221 102.921 106.321 102.921 106.321V126.232Z" fill="url(#paint2_linear_303_17200)"/>
<path d="M133.996 142.005C137.686 144.11 141.794 145.377 146.028 145.717C150.011 145.717 151.717 144.295 151.717 142.119C151.717 139.943 150.395 137.738 145.431 136.003C136.684 133.031 133.314 129.461 133.399 124.469C133.399 116.419 140.155 110.375 150.622 110.375C154.622 110.428 158.551 111.432 162.085 113.304V122.975C160.18 121.923 154.69 119.576 151.049 119.576C147.849 119.576 146.028 120.885 146.028 123.075C146.028 125.265 147.678 126.133 152.869 127.982C160.919 130.826 164.247 134.894 164.375 141.194C164.375 149.159 158.245 155.487 146.028 155.103C141.808 154.821 137.701 153.617 133.996 151.576V142.005Z" fill="url(#paint3_linear_303_17200)"/>
</g>
<defs>
<linearGradient id="paint0_linear_303_17200" x1="91.0881" y1="50.7833" x2="145.602" y2="165.983" gradientUnits="userSpaceOnUse">
<stop stop-color="#C4C4C4"/>
<stop offset="0.39" stop-color="#C4C4C4"/>
<stop offset="0.58" stop-color="#B9B9B9"/>
<stop offset="0.78" stop-color="#B2B2B2"/>
<stop offset="1" stop-color="#AFAFAF"/>
</linearGradient>
<linearGradient id="paint1_linear_303_17200" x1="110.445" y1="70.8651" x2="141.264" y2="173.265" gradientUnits="userSpaceOnUse">
<stop stop-color="#0C0C0C"/>
<stop offset="1" stop-color="#080808"/>
</linearGradient>
<linearGradient id="paint2_linear_303_17200" x1="74.1352" y1="56.913" x2="128.649" y2="172.113" gradientUnits="userSpaceOnUse">
<stop stop-color="#C4C4C4"/>
<stop offset="0.39" stop-color="#C4C4C4"/>
<stop offset="0.58" stop-color="#B9B9B9"/>
<stop offset="0.78" stop-color="#B2B2B2"/>
<stop offset="1" stop-color="#AFAFAF"/>
</linearGradient>
<linearGradient id="paint3_linear_303_17200" x1="105.182" y1="41.8803" x2="159.924" y2="157.535" gradientUnits="userSpaceOnUse">
<stop stop-color="#C4C4C4"/>
<stop offset="0.39" stop-color="#C4C4C4"/>
<stop offset="0.58" stop-color="#B9B9B9"/>
<stop offset="0.78" stop-color="#B2B2B2"/>
<stop offset="1" stop-color="#AFAFAF"/>
</linearGradient>
<clipPath id="clip0_303_17200">
<rect width="142.222" height="139.847" fill="white" transform="translate(56.5281 58.0935)"/>
</clipPath>
</defs>
</svg>
