<svg width="257" height="256" viewBox="0 0 257 256" fill="none" xmlns="http://www.w3.org/2000/svg">
<rect x="1.43286" y="0.5" width="255" height="255" rx="31.5" fill="white"/>
<rect x="1.43286" y="0.5" width="255" height="255" rx="31.5" stroke="#878787"/>
<g clip-path="url(#clip0_303_17163)">
<path d="M177.13 111.559C176.903 106.681 177.571 102.343 175.353 98.7591C170.019 89.5858 156.707 84.2524 130.069 84.2524C103.417 84.2524 89.4077 89.5858 84.1028 98.7876C81.9979 102.571 82.2255 106.78 81.8841 111.673C81.6708 115.556 79.893 119.666 80.661 124.103C81.557 129.877 81.8841 135.652 82.7801 140.971C83.4344 145.237 89.4361 148.964 89.9908 153.074C91.541 164.395 103.317 169.586 129.955 169.586V170.468H130.069V169.586C156.707 169.586 168.028 164.366 169.465 153.045C170.019 148.779 175.58 145.28 176.234 140.942C177.13 135.623 177.457 129.849 178.353 124.075C179.121 119.637 177.344 115.413 177.13 111.531V111.559Z" fill="#D2D2D2"/>
<path d="M129.614 115.541C134.393 115.655 137.721 118.656 140.835 121.429C144.49 124.643 150.705 126.862 153.265 129.635C155.825 132.409 159.139 135.182 160.377 139.52C161.322 143.242 161.847 147.058 161.941 150.898C161.941 152.32 162.709 152.007 164.928 150.898C170.147 148.338 175.921 141.468 175.921 141.468C175.253 145.735 169.593 149.675 169.038 153.785C167.701 165.163 156.721 170.539 129.529 170.539H130.083" fill="#B2B2B2"/>
<path d="M147.15 106.894C148.16 110.336 151.701 121.998 144.832 118.116C144.832 118.116 147.676 119.78 149.482 126.094C151.289 132.409 155.925 133.205 155.925 133.205C155.925 133.205 163.363 134.628 168.91 129.877C173.575 125.881 174.357 118.77 172.352 113.337C170.346 107.904 166.805 106.34 161.586 105.23C156.366 104.121 145.941 103.012 147.15 106.894Z" fill="#B2B2B2"/>
<path d="M160.362 129.323C162.294 129.317 164.18 128.739 165.783 127.662C167.386 126.585 168.634 125.057 169.369 123.271C170.104 121.485 170.294 119.522 169.913 117.628C169.533 115.735 168.6 113.997 167.233 112.633C165.865 111.269 164.124 110.342 162.23 109.967C160.335 109.592 158.372 109.787 156.588 110.528C154.805 111.268 153.28 112.52 152.208 114.127C151.136 115.733 150.563 117.621 150.563 119.552C150.563 120.837 150.817 122.11 151.31 123.298C151.803 124.485 152.525 125.563 153.435 126.471C154.345 127.379 155.426 128.098 156.615 128.587C157.803 129.076 159.077 129.326 160.362 129.323Z" fill="black"/>
<path d="M157.817 117.774C158.324 117.774 158.819 117.624 159.24 117.342C159.662 117.06 159.99 116.659 160.183 116.191C160.376 115.722 160.426 115.207 160.326 114.71C160.226 114.213 159.981 113.757 159.622 113.399C159.262 113.042 158.805 112.799 158.307 112.702C157.81 112.605 157.295 112.657 156.827 112.853C156.36 113.049 155.961 113.38 155.681 113.802C155.402 114.225 155.254 114.722 155.257 115.229C155.257 115.564 155.323 115.896 155.452 116.206C155.581 116.516 155.769 116.797 156.007 117.034C156.245 117.27 156.527 117.458 156.838 117.585C157.149 117.712 157.481 117.776 157.817 117.774Z" fill="white"/>
<path d="M145.486 119.111C145.486 119.111 154.261 125.099 159.097 130.987C163.932 136.875 163.747 137.984 163.747 137.984L160.305 139.534C160.305 139.534 155.427 130.318 149.44 126.876C143.452 123.435 142.656 120.548 142.656 120.548L145.5 119.125L145.486 119.111Z" fill="#D2D2D2"/>
<path d="M129.955 115.541C125.177 115.655 121.621 118.656 118.407 121.429C114.737 124.643 108.309 126.862 105.749 129.635C103.189 132.409 99.7615 135.182 98.5384 139.52C97.5734 143.241 97.0155 147.056 96.8744 150.898C96.8744 152.32 97.0877 152.448 93.8735 150.898C88.6539 148.451 82.8797 141.468 82.8797 141.468C83.5481 145.735 89.2086 149.675 89.7633 153.785C91.3277 165.163 102.307 170.539 129.585 170.539H130.14" fill="#B2B2B2"/>
<path d="M155.697 134.315C152.65 130.388 148.748 127.207 144.288 125.014C139.827 122.82 134.926 121.672 129.955 121.657H129.841C124.87 121.679 119.968 122.829 115.507 125.022C111.045 127.215 107.139 130.392 104.085 134.315C98.5384 141.085 98.9792 143.744 98.9792 150.187C98.9792 173.497 107.2 166.841 112.633 169.728C118.065 172.615 124.01 171.605 129.841 171.605H129.955C135.943 171.605 141.603 172.388 147.15 169.614C152.697 166.841 160.803 173.725 160.803 150.414C160.917 143.972 161.258 141.085 155.697 134.315Z" fill="#3D3D3D"/>
<path d="M129.401 127.431C129.401 127.431 128.618 138.197 127.068 140.316L129.913 139.648L129.401 127.431Z" fill="#303030"/>
<path d="M130.169 127.431C130.169 127.431 130.951 138.197 132.501 140.316L129.657 139.648L130.169 127.431Z" fill="#303030"/>
<path d="M120.853 124.885C119.744 122.325 123.697 118.215 130.069 118.116C136.441 118.016 140.38 122.212 139.271 124.885C138.161 127.559 134.165 128.341 130.069 128.427C125.973 128.512 121.962 127.545 120.853 124.885Z" fill="#3D3D3D"/>
<path d="M130.069 127.431C130.069 126.99 133.838 126.876 135.758 125.54C135.758 125.54 131.662 126.876 130.766 126.322C130.472 126.114 130.222 125.85 130.032 125.545C129.841 125.239 129.714 124.899 129.657 124.544C129.504 125.22 129.158 125.838 128.661 126.322C127.879 126.763 123.214 125.54 123.214 125.54C123.214 125.54 129.443 127.104 129.443 127.431C129.443 127.758 129.329 128.853 129.329 129.65C129.329 132.423 129.329 139.307 129.77 139.861C130.439 140.871 130.211 132.423 130.211 129.65C130.097 128.768 130.097 127.872 129.998 127.431H130.069Z" fill="black"/>
<path d="M130.282 142.308C133.275 142.721 136.108 143.907 138.503 145.749C135.658 142.535 132.174 140.302 130.282 140.302C128.391 140.302 124.067 142.748 121.066 146.304C124.181 143.858 128.177 142.308 130.282 142.308Z" fill="#595959"/>
<path d="M129.514 161.948C125.248 161.948 121.18 160.626 117.411 159.63C116.629 159.403 115.847 159.957 115.079 159.73C108.081 157.511 102.421 153.742 98.9792 148.964V150.073C98.9792 173.383 107.2 166.841 112.633 169.614C118.065 172.388 124.01 171.506 129.841 171.506H129.955C135.943 171.506 141.603 172.274 147.15 169.5C152.697 166.727 160.803 173.497 160.803 150.187C160.782 149.336 160.82 148.486 160.917 147.641C157.703 152.846 151.815 156.956 144.49 159.403C143.822 159.63 142.272 159.076 141.646 159.175C137.649 160.512 134.108 162.02 129.557 162.02L129.514 161.948Z" fill="#303030"/>
<path d="M118.961 149.405C118.961 149.405 116.117 157.739 118.08 161.394L115.52 160.285C115.52 160.285 117.411 151.851 118.961 149.405ZM140.935 149.405C140.935 149.405 143.779 157.739 141.831 161.394L144.377 160.285C144.377 160.285 142.385 151.851 140.935 149.405Z" fill="#303030"/>
<path d="M111.865 106.894C110.855 110.336 107.313 121.998 114.183 118.116C114.183 118.116 111.338 119.78 109.532 126.094C107.726 132.409 103.089 133.205 103.089 133.205C103.089 133.205 95.6513 134.628 90.1046 129.877C85.4397 125.881 84.6575 118.77 86.6628 113.337C88.6681 107.904 92.2095 106.34 97.429 105.23C102.649 104.121 112.974 103.012 111.865 106.894Z" fill="#B2B2B2"/>
<path d="M129.955 140.302C132.942 140.302 142.272 146.745 142.385 154.624V154.183C142.385 145.977 134.833 139.42 129.955 139.42C125.077 139.42 117.525 146.076 117.525 154.183V154.624C117.625 146.745 126.954 140.302 129.955 140.302Z" fill="black"/>
<path d="M132.373 124.942C132.857 124.814 133.041 123.989 132.814 123.107C132.586 122.226 132.017 121.6 131.548 121.685C131.079 121.771 130.865 122.624 131.093 123.52C131.321 124.416 131.904 125.056 132.373 124.942Z" fill="#1F1F1F"/>
<path d="M126.67 124.928C127.139 125.07 127.737 124.473 128.007 123.591C128.277 122.709 128.121 121.884 127.651 121.742C127.182 121.6 126.585 122.197 126.314 123.065C126.044 123.932 126.201 124.771 126.67 124.928Z" fill="#1F1F1F"/>
<path d="M99.2068 129.323C101.138 129.317 103.024 128.739 104.627 127.662C106.23 126.585 107.478 125.057 108.213 123.271C108.949 121.485 109.138 119.522 108.758 117.628C108.378 115.735 107.445 113.997 106.077 112.633C104.71 111.269 102.969 110.342 101.074 109.967C99.1796 109.592 97.2165 109.787 95.4328 110.528C93.6491 111.268 92.1248 112.52 91.0524 114.127C89.9801 115.733 89.4077 117.621 89.4077 119.552C89.4096 120.837 89.6645 122.109 90.158 123.295C90.6514 124.482 91.3738 125.559 92.2837 126.467C93.1936 127.374 94.2734 128.093 95.4612 128.583C96.6491 129.073 97.9219 129.324 99.2068 129.323Z" fill="black"/>
<path d="M101.753 117.774C102.26 117.777 102.757 117.629 103.18 117.349C103.603 117.069 103.934 116.669 104.129 116.201C104.325 115.732 104.377 115.216 104.278 114.718C104.18 114.22 103.936 113.763 103.577 113.404C103.218 113.045 102.761 112.801 102.263 112.703C101.765 112.604 101.249 112.656 100.781 112.852C100.312 113.047 99.9125 113.378 99.6323 113.801C99.3521 114.224 99.204 114.721 99.2068 115.228C99.2106 115.903 99.48 116.548 99.9566 117.024C100.433 117.501 101.079 117.771 101.753 117.774Z" fill="white"/>
<path d="M132.842 119.666C132.842 119.552 130.282 120.775 129.614 120.889C128.946 120.775 126.4 119.552 126.4 119.666H132.842Z" fill="#595959"/>
<path d="M113.415 119.111C113.415 119.111 104.64 125.099 99.8753 130.987C95.1108 136.875 95.2104 137.984 95.2104 137.984L98.6521 139.534C98.6521 139.534 103.53 130.318 109.532 126.876C115.534 123.435 116.302 120.548 116.302 120.548L113.415 119.111Z" fill="#D2D2D2"/>
<path d="M94.2148 101.319C94.2148 101.319 91.2139 109.54 84.5579 112.967C84.5579 112.996 94.9828 111.787 94.2148 101.319ZM164.245 101.319C164.245 101.319 167.246 109.54 173.902 112.967C173.902 112.996 163.477 111.787 164.245 101.319ZM145.273 116.665C145.273 116.665 138.716 109.781 129.955 109.554H130.169C121.294 109.767 114.851 116.665 114.851 116.665C119.286 113.368 124.643 111.542 130.169 111.445C135.599 111.706 140.84 113.517 145.273 116.665ZM137.607 102.229C137.607 102.229 134.279 97.5786 129.841 97.4648H130.069C126.727 97.5786 122.403 102.229 122.403 102.229C124.417 100.12 127.157 98.8542 130.069 98.688C132.935 98.8871 135.624 100.15 137.607 102.229ZM99.2068 136.363C99.2068 136.363 93.9873 138.908 90.2184 137.358H90.1046C86.7766 135.452 85.141 129.764 85.141 129.764C85.6066 131.14 86.3467 132.408 87.3167 133.491C88.2867 134.573 89.4663 135.447 90.7841 136.06C92.1018 136.673 93.5303 137.012 94.983 137.057C96.4357 137.102 97.8823 136.851 99.2353 136.32L99.2068 136.363ZM160.035 136.363C160.035 136.363 165.255 138.908 169.024 137.358C173.461 135.452 174.129 129.764 174.129 129.764C173.664 131.14 172.924 132.408 171.954 133.491C170.984 134.573 169.804 135.447 168.486 136.06C167.169 136.673 165.74 137.012 164.288 137.057C162.835 137.102 161.388 136.851 160.035 136.32V136.363Z" fill="#B2B2B2"/>
<path d="M105.194 100.793C108.98 100.115 112.87 100.305 116.572 101.348C121.351 103.012 117.468 109.113 118.464 109.454C119.459 109.796 120.796 105.188 129.671 105.671C138.545 106.155 139.626 110.123 140.878 109.454C142.129 108.786 139.669 98.3467 153.095 100.793C153.095 100.793 139.001 97.024 139.669 107.236C139.669 107.236 131.562 101.02 120.241 106.567C120.341 106.567 123.228 97.024 105.137 100.793H105.194ZM154.375 100.793C154.588 100.793 154.702 100.907 154.816 100.907C154.929 100.907 154.702 100.793 154.375 100.793ZM101.312 87.0969C101.312 87.0969 89.3224 102.229 87.5446 108.004C85.7668 113.778 84.4441 137.984 82.8797 141.426L77.333 117.66L87.5446 92.9138L101.312 87.0969ZM157.674 87.0969C157.674 87.0969 169.692 102.229 171.47 108.004C173.248 113.778 174.57 137.984 176.163 141.426L181.71 117.66L171.47 92.9138L157.674 87.0969Z" fill="#B2B2B2"/>
<path d="M157.148 87.0968C157.148 87.0968 170.019 97.9057 173.802 110.336C177.585 122.766 176.021 137.87 178.908 139.719C183.004 142.393 187.669 126.521 189.233 124.857C191.665 122.183 199.772 115.413 200.327 114.19C200.881 112.967 183.9 94.464 176.462 90.7946C167.473 86.5848 156.366 86.2435 157.148 87.0968Z" fill="#3D3D3D"/>
<path d="M168.142 93.7957C168.142 93.7957 183.345 113.223 183.118 137.429L189.233 124.985C184.443 113.238 177.26 102.616 168.142 93.7957Z" fill="#303030"/>
<path d="M101.312 87.097C101.312 87.097 88.5117 97.8632 84.6575 110.293C80.8033 122.724 82.4388 137.87 79.5517 139.719C75.4557 142.393 70.7908 126.521 69.2264 124.857C66.7944 122.212 58.6877 115.442 58.1188 114.219C57.5499 112.996 74.5597 94.4641 81.9979 90.7948C90.9864 86.5281 102.094 86.2437 101.312 87.1397V87.097Z" fill="#3D3D3D"/>
<path d="M90.3179 93.7957C90.3179 93.7957 75.1855 113.223 75.3419 137.429L69.3401 124.985C69.3401 124.985 74.6735 109.113 90.3179 93.7957Z" fill="#303030"/>
<path d="M82.1117 137.87C82.1117 137.87 83.221 143.858 84.9561 145.749C86.6913 147.641 85.5108 144.327 85.5108 144.327C85.5108 144.327 83.6193 143.332 83.9464 135.68C84.2735 128.028 82.069 137.899 82.069 137.899L82.1117 137.87ZM176.789 137.87C176.789 137.87 175.68 143.858 173.945 145.749C172.209 147.641 173.39 144.327 173.39 144.327C173.39 144.327 175.281 143.332 174.954 135.68C174.627 128.028 176.832 137.899 176.832 137.899L176.789 137.87Z" fill="#B2B2B2"/>
<path d="M118.407 134.201C118.585 134.204 118.76 134.153 118.91 134.056C119.059 133.958 119.176 133.819 119.246 133.654C119.316 133.49 119.335 133.309 119.3 133.134C119.266 132.958 119.181 132.798 119.054 132.671C118.928 132.545 118.767 132.46 118.592 132.425C118.417 132.391 118.236 132.41 118.072 132.48C117.907 132.549 117.767 132.666 117.67 132.816C117.573 132.965 117.522 133.141 117.525 133.319C117.525 133.553 117.618 133.777 117.783 133.943C117.949 134.108 118.173 134.201 118.407 134.201Z" fill="#303030"/>
<path d="M113.301 139.534C113.479 139.537 113.653 139.487 113.803 139.39C113.952 139.294 114.069 139.155 114.139 138.991C114.209 138.828 114.229 138.647 114.196 138.472C114.163 138.298 114.079 138.137 113.954 138.01C113.829 137.883 113.67 137.796 113.495 137.761C113.321 137.725 113.14 137.742 112.976 137.809C112.811 137.877 112.67 137.991 112.571 138.139C112.472 138.287 112.419 138.461 112.419 138.638C112.419 138.874 112.512 139.099 112.677 139.267C112.842 139.435 113.066 139.531 113.301 139.534Z" fill="#303030"/>
<path d="M111.637 134.201C111.815 134.201 111.989 134.148 112.136 134.049C112.284 133.95 112.399 133.809 112.466 133.644C112.533 133.48 112.55 133.299 112.515 133.125C112.479 132.951 112.392 132.791 112.265 132.666C112.139 132.542 111.978 132.457 111.803 132.424C111.628 132.392 111.448 132.411 111.284 132.481C111.121 132.551 110.982 132.668 110.885 132.818C110.788 132.967 110.738 133.141 110.741 133.319C110.741 133.436 110.764 133.552 110.81 133.66C110.855 133.768 110.921 133.866 111.004 133.948C111.088 134.03 111.187 134.094 111.295 134.138C111.404 134.181 111.52 134.203 111.637 134.201Z" fill="#303030"/>
<path d="M140.053 134.201C140.232 134.207 140.408 134.159 140.56 134.063C140.711 133.967 140.83 133.829 140.902 133.665C140.974 133.501 140.995 133.319 140.963 133.143C140.93 132.967 140.846 132.805 140.72 132.677C140.595 132.549 140.434 132.462 140.258 132.427C140.083 132.392 139.901 132.41 139.735 132.479C139.57 132.548 139.43 132.665 139.332 132.815C139.234 132.965 139.183 133.14 139.185 133.319C139.185 133.551 139.276 133.773 139.439 133.938C139.601 134.103 139.822 134.197 140.053 134.201Z" fill="#303030"/>
<path d="M145.159 139.534C145.337 139.537 145.511 139.487 145.66 139.39C145.81 139.294 145.927 139.155 145.997 138.991C146.067 138.828 146.086 138.647 146.054 138.472C146.021 138.298 145.936 138.137 145.812 138.01C145.687 137.883 145.527 137.796 145.353 137.761C145.179 137.725 144.998 137.742 144.834 137.809C144.669 137.877 144.528 137.991 144.429 138.139C144.33 138.287 144.277 138.461 144.277 138.638C144.277 138.874 144.369 139.099 144.534 139.267C144.699 139.435 144.924 139.531 145.159 139.534Z" fill="#303030"/>
<path d="M146.823 134.201C147.001 134.204 147.176 134.153 147.326 134.056C147.475 133.958 147.592 133.819 147.662 133.654C147.732 133.49 147.75 133.309 147.716 133.134C147.682 132.958 147.597 132.798 147.47 132.671C147.344 132.545 147.183 132.46 147.008 132.425C146.833 132.391 146.652 132.41 146.488 132.48C146.323 132.549 146.183 132.666 146.086 132.816C145.989 132.965 145.938 133.141 145.941 133.319C145.945 133.552 146.039 133.774 146.203 133.939C146.368 134.103 146.59 134.197 146.823 134.201Z" fill="#303030"/>
</g>
<defs>
<clipPath id="clip0_303_17163">
<rect width="142.222" height="87.4951" fill="white" transform="translate(58.1188 84.2524)"/>
</clipPath>
</defs>
</svg>
