<svg width="257" height="257" viewBox="0 0 257 257" fill="none" xmlns="http://www.w3.org/2000/svg">
<rect x="0.984985" y="0.985107" width="255" height="255" rx="31.5" fill="white"/>
<rect x="0.984985" y="0.985107" width="255" height="255" rx="31.5" stroke="#878787"/>
<g clip-path="url(#clip0_303_17127)">
<path d="M162.442 145.096L166.552 134.699H178.414L172.725 118.941L179.822 101.135L199.989 154.681H185.112L181.67 145.096H162.442Z" fill="#3D3D3D"/>
<path d="M149.756 154.681L171.345 101.135H157.023L142.261 135.737L131.722 101.135H120.757L109.478 135.737L101.528 119.965L94.3317 142.137L101.642 154.681H115.722L125.905 123.649L135.633 154.681H149.756Z" fill="#3A3A3A"/>
<path d="M71.3486 136.306H80.1664C82.5668 136.337 84.9599 136.036 87.2775 135.41L89.5531 128.385L95.9531 108.744C95.465 107.97 94.9081 107.241 94.2891 106.568C91.018 102.946 86.2298 101.135 79.9246 101.135H57.7664V154.681H71.3486V136.306ZM83.0251 113.451C83.6764 114.138 84.1822 114.949 84.5121 115.837C84.842 116.724 84.9893 117.668 84.9451 118.614C85.0431 120.49 84.4399 122.335 83.2526 123.791C82.02 125.204 79.754 125.91 76.4544 125.91H71.3486V111.531H76.4829C79.5691 111.531 81.7451 112.171 83.0251 113.451Z" fill="#3D3D3D"/>
</g>
<defs>
<clipPath id="clip0_303_17127">
<rect width="142.222" height="53.5467" fill="white" transform="translate(57.7664 101.135)"/>
</clipPath>
</defs>
</svg>
