<svg width="257" height="257" viewBox="0 0 257 257" fill="none" xmlns="http://www.w3.org/2000/svg">
<rect x="1.32837" y="1.39111" width="255" height="255" rx="31.5" fill="white"/>
<rect x="1.32837" y="1.39111" width="255" height="255" rx="31.5" stroke="#878787"/>
<g clip-path="url(#clip0_303_17227)">
<path d="M128.465 57.5728C92.3546 57.5728 94.6159 73.2172 94.6159 73.2172V89.4305H129.105V94.3088H80.9626C80.9626 94.3088 57.8657 91.7061 57.8657 128.129C57.8657 164.552 78.0328 163.272 78.0328 163.272H90.0648V146.362C90.0648 146.362 89.4106 126.195 109.976 126.195H144.109C144.109 126.195 163.309 126.508 163.309 107.706V76.4456C163.309 76.4456 166.196 57.5728 128.465 57.5728ZM109.464 68.4812C110.303 68.4706 111.135 68.6302 111.91 68.9505C113.423 69.5903 114.627 70.7942 115.267 72.307C115.892 73.8285 115.892 75.5356 115.267 77.0572C114.627 78.5699 113.423 79.7739 111.91 80.4136C110.389 81.0395 108.682 81.0395 107.16 80.4136C105.647 79.7739 104.443 78.5699 103.804 77.0572C103.178 75.5356 103.178 73.8285 103.804 72.307C104.426 70.8074 105.603 69.6053 107.089 68.9505C107.842 68.6396 108.649 68.4801 109.464 68.4812Z" fill="url(#paint0_linear_303_17227)"/>
<path d="M129.489 199.055C165.599 199.055 163.338 183.411 163.338 183.411V167.198H128.849V162.305H176.991C176.991 162.305 200.088 164.922 200.088 128.499C200.088 92.0759 179.921 93.3559 179.921 93.3559H167.889V110.266C167.889 110.266 168.543 130.433 147.978 130.433H113.844C113.844 130.433 94.6444 130.12 94.6444 148.922V180.183C94.6444 180.183 91.7573 199.055 129.489 199.055ZM148.49 188.147C147.48 188.134 146.488 187.876 145.6 187.394C144.713 186.911 143.956 186.22 143.396 185.38C142.836 184.539 142.489 183.575 142.385 182.57C142.281 181.566 142.424 180.551 142.801 179.614C143.441 178.101 144.645 176.897 146.157 176.257C147.679 175.631 149.386 175.631 150.907 176.257C152.42 176.897 153.624 178.101 154.264 179.614C154.89 181.135 154.89 182.842 154.264 184.364C153.624 185.877 152.42 187.081 150.907 187.72C150.154 188.031 149.347 188.191 148.532 188.19L148.49 188.147Z" fill="url(#paint1_linear_303_17227)"/>
</g>
<defs>
<linearGradient id="paint0_linear_303_17227" x1="71.1066" y1="70.7283" x2="141.578" y2="140.503" gradientUnits="userSpaceOnUse">
<stop stop-color="#6F6F6F"/>
<stop offset="1" stop-color="#5E5E5E"/>
</linearGradient>
<linearGradient id="paint1_linear_303_17227" x1="114.399" y1="115.528" x2="190.075" y2="187.08" gradientUnits="userSpaceOnUse">
<stop stop-color="#DADADA"/>
<stop offset="1" stop-color="#C5C5C5"/>
</linearGradient>
<clipPath id="clip0_303_17227">
<rect width="142.222" height="141.483" fill="white" transform="translate(57.8657 57.5728)"/>
</clipPath>
</defs>
</svg>
