<svg width="257" height="257" viewBox="0 0 257 257" fill="none" xmlns="http://www.w3.org/2000/svg">
<rect x="1.36548" y="0.985107" width="255" height="255" rx="31.5" fill="white"/>
<rect x="1.36548" y="0.985107" width="255" height="255" rx="31.5" stroke="#878787"/>
<g clip-path="url(#clip0_303_17202)">
<path d="M181.88 146.411V152.911H193.685C195.454 152.899 197.148 152.192 198.399 150.94C199.65 149.689 200.358 147.996 200.369 146.226V143.709C200.375 142.83 200.206 141.959 199.872 141.146C199.538 140.333 199.045 139.595 198.423 138.975C197.801 138.354 197.062 137.863 196.248 137.531C195.435 137.198 194.564 137.031 193.685 137.039H187.825V134.009H199.431V127.481H188.295C186.511 127.511 184.81 128.237 183.556 129.505C182.301 130.773 181.593 132.482 181.582 134.265V136.527C181.589 138.302 182.3 140.002 183.558 141.255C184.816 142.508 186.519 143.211 188.295 143.211C196.387 143.211 186.36 143.211 193.827 143.211V146.368L181.88 146.411ZM119.004 144.832C119.004 144.832 125.29 144.292 125.29 136.171C125.389 133.999 124.656 131.871 123.239 130.222C121.822 128.572 119.829 127.526 117.667 127.296H103.957V152.896H110.84V146.738L116.814 152.911H127.011L119.004 144.832ZM116.344 139.584H110.84V133.725H116.373C116.89 133.985 117.315 134.397 117.592 134.905C117.869 135.413 117.985 135.994 117.923 136.569C117.987 137.162 117.871 137.76 117.589 138.285C117.307 138.811 116.873 139.239 116.344 139.513V139.584ZM142.314 127.481H135.317C133.547 127.492 131.854 128.2 130.603 129.451C129.351 130.703 128.644 132.396 128.632 134.166V152.911H135.63V148.416H142.215V152.911H148.999V134.194C149.006 133.314 148.838 132.442 148.505 131.627C148.172 130.813 147.68 130.073 147.058 129.451C146.435 128.828 145.696 128.336 144.881 128.003C144.067 127.67 143.194 127.502 142.314 127.51V127.481ZM142.215 141.163H135.601V134.948C135.601 134.948 135.601 133.526 137.791 133.526H140.195C142.143 133.526 142.172 134.948 142.172 134.948V141.163H142.215ZM152.17 127.481H159.466V152.911H152.199L152.17 127.481ZM169.72 146.34V127.481H162.467V152.911H179.534V146.34H169.72Z" fill="#3D3D3D"/>
<path d="M60.6643 152.911H89.1088C89.1088 152.911 83.6901 128.164 101.653 118.137C105.493 116.231 117.966 109.12 138.36 124.239C139.015 123.698 139.626 123.271 139.626 123.271C139.626 123.271 120.938 104.598 100.145 106.674C89.6919 107.613 76.8208 117.127 69.283 129.7C64.8846 136.781 61.9537 144.675 60.6643 152.911Z" fill="#3D3D3D"/>
<path d="M60.6643 152.911H89.1088C89.1088 152.911 83.6901 128.164 101.653 118.137C105.493 116.231 117.966 109.12 138.36 124.239C139.015 123.698 139.626 123.271 139.626 123.271C139.626 123.271 120.938 104.598 100.145 106.674C89.6919 107.613 76.8208 117.127 69.283 129.7C64.8846 136.781 61.9537 144.675 60.6643 152.911Z" fill="#3D3D3D"/>
<path d="M60.6643 152.911H89.1088C89.1088 152.911 83.6901 128.164 101.653 118.137C105.493 116.232 117.966 109.12 138.36 124.239C139.015 123.698 139.626 123.272 139.626 123.272C139.626 123.272 120.938 104.598 100.145 106.674C89.6492 107.613 76.7923 117.128 69.2403 129.7C64.8418 136.777 61.9243 144.673 60.6643 152.911ZM119.786 108.694L119.943 106.276C118.827 105.741 117.659 105.322 116.458 105.024L116.302 107.4C117.496 107.798 118.648 108.224 119.786 108.694Z" fill="#3D3D3D"/>
<path d="M116.373 116.303L116.231 118.55C117.426 118.59 118.616 118.738 119.786 118.991L119.943 116.758C118.765 116.52 117.572 116.368 116.373 116.303ZM103.089 105.095H103.445L102.734 102.905C101.578 102.907 100.424 102.978 99.2776 103.119L99.9603 105.238C100.999 105.138 102.051 105.095 103.089 105.095ZM104.81 118.322L105.635 120.797C106.647 120.302 107.693 119.879 108.764 119.531L107.925 117.127C106.862 117.457 105.821 117.856 104.81 118.322ZM88.4972 108.864L86.8901 106.39C85.9941 106.859 85.0554 107.357 84.0456 107.94L85.7381 110.443C86.6768 109.874 87.5728 109.334 88.4972 108.864ZM95.8643 125.035L97.5852 127.623C98.2259 126.718 98.9343 125.862 99.7043 125.063L98.0972 122.631C97.2905 123.372 96.5439 124.176 95.8643 125.035ZM90.659 136.598L93.5745 138.902C93.7122 137.462 93.9643 136.035 94.3283 134.635L91.7399 132.587C91.2993 133.882 90.9383 135.202 90.659 136.541V136.598ZM74.9292 119.531L72.3692 117.312C71.4448 118.208 70.5345 119.104 69.7096 120L72.483 122.375C73.2368 121.394 74.0616 120.441 74.9292 119.531ZM64.0776 135.616L59.939 134.08C59.2563 135.616 58.5025 137.423 58.147 138.461L62.2714 139.883C62.7408 138.688 63.4945 136.925 64.0776 135.616ZM90.1185 145.743C90.1711 147.257 90.3136 148.767 90.5452 150.265L94.8119 151.815C94.499 150.393 94.1719 148.829 93.9585 147.136L90.1185 145.743Z" fill="#3D3D3D"/>
</g>
<defs>
<clipPath id="clip0_303_17202">
<rect width="142.222" height="50.0053" fill="white" transform="translate(58.147 102.905)"/>
</clipPath>
</defs>
</svg>
