<svg width="256" height="256" viewBox="0 0 256 256" fill="none" xmlns="http://www.w3.org/2000/svg">
<rect x="0.5" y="0.5" width="255" height="255" rx="31.5" fill="white"/>
<rect x="0.5" y="0.5" width="255" height="255" rx="31.5" stroke="#878787"/>
<g clip-path="url(#clip0_303_17162)">
<path fill-rule="evenodd" clip-rule="evenodd" d="M145.047 142.89L142.316 147.64C141.913 148.335 141.334 148.913 140.638 149.315C139.942 149.716 139.152 149.929 138.348 149.93H117.427C116.621 149.928 115.83 149.716 115.132 149.314C114.433 148.913 113.852 148.336 113.445 147.64L110.714 142.904L145.047 142.89ZM152.684 129.62L147.877 137.983H107.884L103.077 129.62H152.684ZM148.048 116.664L152.698 124.714H103.063L107.713 116.664H148.048ZM138.348 104.404C139.156 104.404 139.949 104.617 140.648 105.022C141.348 105.426 141.928 106.008 142.33 106.708L145.246 111.757H110.544L113.388 106.708C113.793 106.01 114.374 105.43 115.072 105.026C115.771 104.621 116.563 104.407 117.37 104.404H138.348Z" fill="#323232"/>
<path d="M87.0201 102.2C84.7019 90.9785 84.1757 82.3599 85.6974 76.1163C86.3911 72.688 88.136 69.5611 90.6894 67.1705C93.3613 64.8693 96.7927 63.6427 100.318 63.7288C106.433 63.7288 112.876 66.5732 119.745 71.8212C122.83 74.2334 125.752 76.8465 128.492 79.6434C128.74 79.3339 129.011 79.0438 129.303 78.7759C137.836 71.1528 145.047 66.431 151.205 64.5537C154.522 63.4612 158.096 63.4313 161.431 64.4683C164.761 65.6343 167.539 67.9964 169.225 71.0959C172.282 76.4008 173.093 83.3839 171.955 92.0025C171.436 95.8986 170.661 99.7563 169.637 103.551C170.068 103.597 170.493 103.693 170.903 103.835C181.754 107.419 189.392 111.288 194.085 115.711C196.699 118.025 198.524 121.098 199.305 124.5C199.971 127.964 199.317 131.551 197.47 134.555C194.412 139.86 188.794 144.042 180.773 147.355C177.217 148.806 173.568 150.018 169.85 150.982C170.037 151.407 170.18 151.851 170.277 152.305C172.595 163.54 173.121 172.145 171.6 178.403C170.903 181.826 169.159 184.947 166.608 187.334C163.938 189.64 160.506 190.872 156.979 190.79C150.849 190.79 144.421 187.946 137.537 182.683C134.39 180.217 131.415 177.536 128.634 174.662C128.319 175.188 127.931 175.667 127.482 176.084C118.949 183.693 111.738 188.429 105.58 190.307C102.268 191.413 98.6931 191.458 95.3543 190.435C92.0242 189.269 89.2464 186.906 87.5606 183.807C84.5028 178.502 83.6921 171.519 84.8299 162.9C85.3944 158.87 86.2355 154.883 87.3472 150.968C86.8649 150.913 86.3888 150.813 85.925 150.669C75.0734 147.071 67.4361 143.203 62.7428 138.794C60.1313 136.453 58.3164 133.355 57.5517 129.933C56.8849 126.47 57.5395 122.883 59.3863 119.878C62.4441 114.573 68.0619 110.392 76.0832 107.078C79.7537 105.582 83.5219 104.337 87.3614 103.352C87.2159 102.978 87.1017 102.593 87.0201 102.2Z" fill="#202020"/>
<path fill-rule="evenodd" clip-rule="evenodd" d="M114.867 98.6301C120.48 98.175 126.273 97.9759 132.247 98.0328C132.517 98.0365 132.785 97.9868 133.036 97.8864C133.287 97.7861 133.515 97.6371 133.708 97.4481C133.901 97.259 134.055 97.0337 134.161 96.785C134.266 96.5363 134.321 96.2691 134.323 95.999C134.327 95.521 134.16 95.0574 133.854 94.6905C120.276 77.9747 109.093 69.6168 100.304 69.6168C91.2488 69.6168 88.6651 79.615 92.5525 99.6114C92.6561 100.137 92.9612 100.6 93.4025 100.903C93.8437 101.206 94.3861 101.325 94.9134 101.233C101.844 100 108.496 99.1326 114.867 98.6301Z" fill="#7C7C7C"/>
<path fill-rule="evenodd" clip-rule="evenodd" d="M146.426 101.375C149.669 106.054 152.798 111.018 155.77 116.237C155.905 116.477 156.085 116.687 156.302 116.855C156.518 117.024 156.766 117.147 157.031 117.219C157.296 117.29 157.573 117.308 157.845 117.272C158.116 117.235 158.378 117.144 158.615 117.005C159.024 116.766 159.34 116.395 159.511 115.953C167.21 95.8046 168.807 81.9095 164.304 74.2675C159.715 66.3789 149.702 69.1048 134.266 82.4452C133.872 82.8005 133.629 83.2932 133.587 83.8222C133.544 84.3512 133.706 84.8763 134.039 85.2897C138.637 90.7226 142.766 96.0843 146.426 101.375Z" fill="#7C7C7C"/>
<path fill-rule="evenodd" clip-rule="evenodd" d="M160.051 129.535C157.614 134.636 154.884 139.766 151.859 144.923C151.716 145.157 151.622 145.416 151.581 145.687C151.54 145.958 151.554 146.234 151.621 146.499C151.689 146.764 151.809 147.013 151.975 147.231C152.14 147.449 152.347 147.631 152.585 147.768C153.011 148.026 153.517 148.117 154.007 148.024C175.169 144.554 187.969 138.998 192.407 131.355C196.958 123.476 189.657 116.256 170.505 109.695C169.999 109.52 169.445 109.551 168.961 109.779C168.477 110.008 168.102 110.417 167.916 110.918C165.432 117.536 162.81 123.742 160.051 129.535Z" fill="#7C7C7C"/>
<path fill-rule="evenodd" clip-rule="evenodd" d="M142.686 155.96C137.054 156.415 131.256 156.614 125.292 156.557C124.751 156.553 124.231 156.764 123.845 157.142C123.458 157.52 123.237 158.036 123.23 158.577C123.224 159.055 123.391 159.52 123.699 159.885C137.258 176.611 148.441 184.973 157.249 184.973C166.304 184.973 168.888 174.975 165.001 154.979C164.954 154.715 164.856 154.463 164.713 154.238C164.569 154.012 164.382 153.817 164.162 153.664C163.943 153.51 163.696 153.402 163.434 153.345C163.173 153.287 162.903 153.282 162.64 153.329C155.713 154.58 149.057 155.462 142.686 155.96Z" fill="#7C7C7C"/>
<path fill-rule="evenodd" clip-rule="evenodd" d="M110.359 153.471C107.116 148.792 103.987 143.828 101.015 138.609C100.882 138.368 100.702 138.157 100.486 137.987C100.269 137.817 100.021 137.693 99.7555 137.621C99.4901 137.549 99.2129 137.532 98.9406 137.57C98.6682 137.607 98.4063 137.7 98.1703 137.841C97.7548 138.072 97.4366 138.446 97.2743 138.893C89.5943 159.041 87.9825 172.936 92.4388 180.579C97.0278 188.467 107.04 185.741 122.476 172.401C122.87 172.046 123.114 171.553 123.156 171.024C123.198 170.495 123.036 169.97 122.704 169.556C118.134 164.123 114.019 158.762 110.359 153.471Z" fill="#7C7C7C"/>
<path fill-rule="evenodd" clip-rule="evenodd" d="M96.7339 124.543C99.1706 119.442 101.901 114.308 104.926 109.14C105.181 108.679 105.249 108.137 105.117 107.626C104.985 107.116 104.662 106.675 104.215 106.395C103.787 106.142 103.28 106.056 102.793 106.154C81.6488 109.586 68.8773 115.123 64.4779 122.765C59.9268 130.644 67.2275 137.864 86.3801 144.426C86.8875 144.603 87.4446 144.573 87.9297 144.341C88.4147 144.109 88.7883 143.695 88.9686 143.188C91.3863 136.551 93.9748 130.336 96.7339 124.543Z" fill="#7C7C7C"/>
<path fill-rule="evenodd" clip-rule="evenodd" d="M119.105 104.66H136.656C137.918 104.655 139.159 104.985 140.251 105.617C141.343 106.25 142.247 107.161 142.871 108.259L151.674 123.604C152.298 124.685 152.627 125.912 152.627 127.16C152.627 128.408 152.298 129.634 151.674 130.715L142.871 146.075C142.247 147.173 141.343 148.084 140.251 148.717C139.159 149.349 137.918 149.679 136.656 149.674H119.105C117.846 149.677 116.608 149.345 115.518 148.713C114.429 148.081 113.527 147.171 112.905 146.075L104.087 130.73C103.463 129.649 103.134 128.422 103.134 127.174C103.134 125.926 103.463 124.7 104.087 123.619L112.905 108.273C113.525 107.175 114.426 106.262 115.516 105.627C116.606 104.992 117.844 104.659 119.105 104.66ZM133.982 109.24C135.245 109.236 136.487 109.568 137.58 110.203C138.672 110.838 139.575 111.752 140.197 112.852L146.341 123.562C146.965 124.643 147.294 125.869 147.294 127.117C147.294 128.365 146.965 129.592 146.341 130.673L140.197 141.439C139.574 142.536 138.669 143.448 137.577 144.08C136.485 144.713 135.244 145.043 133.982 145.037H121.779C120.522 145.038 119.287 144.705 118.2 144.073C117.113 143.441 116.214 142.532 115.593 141.439L109.449 130.73C108.824 129.649 108.496 128.422 108.496 127.174C108.496 125.926 108.824 124.7 109.449 123.619L115.593 112.895C116.206 111.791 117.103 110.871 118.19 110.229C119.278 109.586 120.516 109.245 121.779 109.24H133.982ZM131.137 114.317H124.666C123.399 114.312 122.153 114.645 121.058 115.283C119.963 115.92 119.058 116.839 118.437 117.944L115.194 123.633C114.57 124.714 114.242 125.94 114.242 127.188C114.242 128.437 114.57 129.663 115.194 130.744L118.437 136.433C119.062 137.527 119.967 138.436 121.059 139.066C122.152 139.696 123.391 140.024 124.652 140.017H131.095C132.355 140.024 133.595 139.696 134.687 139.066C135.78 138.436 136.685 137.527 137.31 136.433L140.553 130.744C141.177 129.663 141.505 128.437 141.505 127.188C141.505 125.94 141.177 124.714 140.553 123.633L137.31 117.944C136.685 116.849 135.78 115.94 134.687 115.311C133.595 114.681 132.355 114.353 131.095 114.36L131.137 114.317ZM128.393 119.195C129.653 119.188 130.893 119.516 131.985 120.146C133.077 120.776 133.982 121.685 134.608 122.779L135.063 123.576C135.677 124.66 136 125.885 136 127.131C136 128.378 135.677 129.603 135.063 130.687L134.608 131.483C133.99 132.589 133.088 133.509 131.995 134.149C130.903 134.789 129.659 135.126 128.393 135.124H127.511C126.248 135.134 125.005 134.807 123.91 134.177C122.815 133.547 121.908 132.637 121.281 131.54L120.812 130.744C120.198 129.66 119.875 128.435 119.875 127.188C119.875 125.942 120.198 124.717 120.812 123.633L121.281 122.836C121.895 121.739 122.788 120.825 123.869 120.185C124.951 119.546 126.183 119.204 127.44 119.195H128.393ZM127.952 123.974C127.254 123.978 126.577 124.211 126.025 124.639C125.474 125.066 125.079 125.664 124.901 126.339C124.723 127.014 124.773 127.728 125.043 128.372C125.313 129.015 125.787 129.552 126.393 129.898C126.999 130.245 127.702 130.382 128.393 130.289C129.085 130.195 129.726 129.876 130.218 129.381C130.71 128.886 131.025 128.243 131.114 127.55C131.203 126.858 131.061 126.156 130.711 125.553C130.422 125.063 130.007 124.66 129.509 124.385C129.011 124.11 128.449 123.973 127.881 123.988L127.952 123.974Z" fill="#D5D5D5"/>
</g>
<defs>
<clipPath id="clip0_303_17162">
<rect width="142.222" height="127.388" fill="white" transform="translate(57.2814 63.7288)"/>
</clipPath>
</defs>
</svg>
