<svg width="256" height="256" viewBox="0 0 256 256" fill="none" xmlns="http://www.w3.org/2000/svg">
<rect x="0.5" y="0.5" width="255" height="255" rx="31.5" fill="white"/>
<rect x="0.5" y="0.5" width="255" height="255" rx="31.5" stroke="#878787"/>
<g clip-path="url(#clip0_303_17174)">
<path d="M100.858 140.436C98.2961 140.462 95.7842 139.725 93.6414 138.32C91.4986 136.915 89.8217 134.905 88.8235 132.545C87.8254 130.185 87.5511 127.582 88.0353 125.065C88.5196 122.549 89.7407 120.234 91.5435 118.413C93.3463 116.592 95.6495 115.348 98.1608 114.839C100.672 114.33 103.278 114.578 105.648 115.553C108.017 116.527 110.044 118.184 111.47 120.313C112.897 122.441 113.658 124.946 113.658 127.508C113.666 130.917 112.324 134.191 109.925 136.613C107.527 139.035 104.267 140.41 100.858 140.436ZM70.0814 166.093C66.7288 165.971 63.5548 164.551 61.23 162.132C58.9052 159.714 57.6117 156.486 57.6228 153.131C57.6339 149.776 58.9486 146.557 61.2894 144.154C63.6301 141.75 66.8134 140.351 70.1668 140.251C73.5194 140.373 76.6934 141.793 79.0182 144.212C81.343 146.631 82.6365 149.859 82.6254 153.214C82.6144 156.568 81.2996 159.788 78.9588 162.191C76.6181 164.594 73.4348 165.994 70.0814 166.093ZM186.789 166.093C184.231 166.118 181.723 165.384 179.583 163.983C177.442 162.583 175.765 160.579 174.764 158.224C173.763 155.87 173.483 153.272 173.959 150.759C174.436 148.245 175.647 145.93 177.44 144.105C179.233 142.28 181.526 141.029 184.031 140.508C186.536 139.988 189.138 140.222 191.51 141.181C193.881 142.141 195.915 143.782 197.353 145.897C198.791 148.013 199.569 150.508 199.589 153.066C199.608 156.49 198.271 159.782 195.87 162.223C193.469 164.664 190.199 166.056 186.775 166.093H186.789Z" fill="black"/>
<path d="M162.739 115.348C159.189 114.353 155.55 113.705 151.873 113.414C146.185 112.802 143.966 110.57 143.013 104.881C142.551 101.679 141.657 98.5545 140.353 95.5936C137.751 90.1749 131.635 87.7429 125.548 89.1367C122.919 89.8301 120.571 91.3236 118.828 93.4104C117.085 95.4972 116.034 98.0742 115.82 100.785C115.611 103.666 116.405 106.531 118.066 108.895C119.727 111.259 122.155 112.976 124.937 113.755C127.795 114.566 130.732 115.067 133.697 115.249C139.102 115.633 140.908 117.254 142.359 119.714C143.283 121.265 144.179 122.786 144.179 127.423C144.179 132.059 143.283 133.581 142.359 135.131C140.937 137.592 139.102 139.199 133.697 139.597C130.734 139.749 127.796 140.226 124.937 141.019C122.151 141.797 119.72 143.515 118.058 145.883C116.396 148.25 115.605 151.12 115.82 154.004C116.023 156.725 117.069 159.314 118.812 161.412C120.556 163.51 122.911 165.012 125.548 165.709C131.678 167.131 137.793 164.657 140.396 159.181C141.685 156.223 142.565 153.104 143.013 149.908C143.966 144.219 146.227 142.043 151.873 141.375C155.549 141.077 159.187 140.43 162.739 139.441C165.274 138.619 167.475 136.999 169.014 134.822C170.552 132.646 171.344 130.03 171.273 127.366C171.334 124.711 170.537 122.107 168.999 119.942C167.462 117.776 165.266 116.165 162.739 115.348Z" fill="#797979"/>
</g>
<defs>
<clipPath id="clip0_303_17174">
<rect width="142.222" height="77.3404" fill="white" transform="translate(57.2814 88.7527)"/>
</clipPath>
</defs>
</svg>
