<svg width="257" height="257" viewBox="0 0 257 257" fill="none" xmlns="http://www.w3.org/2000/svg">
<rect x="0.604492" y="1.09424" width="255" height="255" rx="31.5" fill="white"/>
<rect x="0.604492" y="1.09424" width="255" height="255" rx="31.5" stroke="#878787"/>
<path d="M128.653 140.561C131.134 140.564 133.561 139.831 135.626 138.454C137.69 137.077 139.3 135.119 140.252 132.827C141.204 130.536 141.454 128.013 140.972 125.579C140.489 123.144 139.296 120.908 137.542 119.152C135.788 117.397 133.553 116.2 131.119 115.715C128.686 115.23 126.163 115.478 123.87 116.427C121.577 117.376 119.617 118.983 118.238 121.047C116.859 123.11 116.123 125.536 116.123 128.017C116.121 129.664 116.444 131.295 117.073 132.816C117.701 134.338 118.624 135.721 119.788 136.886C120.952 138.051 122.333 138.975 123.855 139.606C125.376 140.237 127.006 140.561 128.653 140.561Z" fill="#B9B9B9"/>
<path d="M128.653 153.702C165.801 153.702 195.924 142.211 195.924 128.017C195.924 113.823 165.801 102.332 128.653 102.332C91.5043 102.332 61.3674 113.838 61.3674 128.017C61.3674 142.197 91.4901 153.702 128.653 153.702Z" stroke="#B9B9B9" stroke-width="5"/>
<path d="M106.395 140.86C124.983 173.045 150 193.383 162.288 186.286C174.576 179.189 169.471 147.359 150.911 115.175C132.351 82.9897 107.291 62.6519 95.003 69.7488C82.715 76.8457 87.8207 108.689 106.395 140.86Z" stroke="#B9B9B9" stroke-width="5"/>
<path d="M106.395 115.174C87.8207 147.359 82.715 179.174 95.0172 186.286C107.319 193.397 132.336 173.045 150.911 140.86C169.485 108.675 174.591 76.8598 162.288 69.7487C149.986 62.6376 124.983 82.9896 106.395 115.174Z" stroke="#B9B9B9" stroke-width="5"/>
</svg>
