<svg width="257" height="257" viewBox="0 0 257 257" fill="none" xmlns="http://www.w3.org/2000/svg">
<rect x="0.813354" y="0.985107" width="255" height="255" rx="31.5" fill="white"/>
<rect x="0.813354" y="0.985107" width="255" height="255" rx="31.5" stroke="#878787"/>
<g clip-path="url(#clip0_303_17198)">
<path d="M194.242 160.726C186.661 164.68 147.337 180.836 138.96 185.231C130.583 189.625 125.947 189.497 119.333 186.397C112.72 183.296 70.8783 166.301 63.2836 162.703C59.5147 160.896 57.5947 159.375 57.5947 157.952V143.574C57.5947 143.574 112.066 131.712 120.855 128.555C129.645 125.398 132.702 125.284 140.183 128.029C147.664 130.774 192.421 138.838 199.817 141.554V155.776C199.817 157.199 198.11 158.763 194.242 160.783" fill="#464646"/>
<path d="M194.242 146.432C186.647 150.386 147.308 166.543 138.96 170.909C130.612 175.275 125.947 175.176 119.333 172.075C112.72 168.975 70.8783 152.008 63.2836 148.409C55.6889 144.811 55.5894 142.322 62.9992 139.435C70.4089 136.548 112.066 120.207 120.855 117.049C129.644 113.892 132.702 113.778 140.183 116.523C147.664 119.268 186.761 134.827 194.128 137.529C201.495 140.232 201.808 142.479 194.213 146.432" fill="#5C5C5C"/>
<path d="M194.242 137.458C186.661 141.412 147.309 157.583 138.96 161.949C130.612 166.315 125.947 166.216 119.333 163.101C112.72 159.986 70.8783 143.048 63.2836 139.435C59.5147 137.643 57.5947 136.121 57.5947 134.685V120.306C57.5947 120.306 112.066 108.431 120.855 105.302C129.645 102.173 132.702 102.031 140.183 104.776C147.664 107.52 192.421 115.542 199.817 118.287V132.509C199.817 133.888 198.11 135.453 194.242 137.458Z" fill="#464646"/>
<path d="M194.242 123.165C186.647 127.119 147.308 143.289 138.96 147.656C130.612 152.022 125.947 151.922 119.333 148.807C112.72 145.693 70.8783 128.754 63.2836 125.156C55.6889 121.558 55.5894 119.069 62.9992 116.167C70.4089 113.266 112.066 96.9391 120.855 93.7959C129.644 90.6528 132.702 90.5248 140.183 93.2555C147.664 95.9862 186.761 111.559 194.128 114.262C201.495 116.964 201.808 119.211 194.213 123.165" fill="#5C5C5C"/>
<path d="M194.242 113.337C186.661 117.291 147.309 133.462 138.96 137.828C130.612 142.194 125.947 142.095 119.333 138.98C112.72 135.865 70.8783 118.927 63.2836 115.314C59.5147 113.522 57.5947 112 57.5947 110.564V96.1853C57.5947 96.1853 112.066 84.3239 120.855 81.1808C129.645 78.0377 132.702 77.9097 140.183 80.6404C147.664 83.3711 192.421 91.4635 199.817 94.2084V108.431C199.817 109.767 198.11 111.275 194.242 113.337Z" fill="#464646"/>
<path d="M194.242 99.044C186.647 102.998 147.308 119.168 138.96 123.535C130.612 127.901 125.947 127.801 119.333 124.687C112.72 121.572 70.8783 104.633 63.2836 101.021C55.6889 97.4084 55.5894 94.948 62.9992 92.0467C70.4089 89.1453 112.066 72.8751 120.855 69.6609C129.644 66.4467 132.702 66.404 140.183 69.1347C147.664 71.8653 186.761 87.4387 194.128 90.1409C201.495 92.8431 201.808 95.0902 194.213 99.044" fill="#5C5C5C"/>
<path d="M146.085 85.0635L133.854 86.3293L131.124 92.9142L126.7 85.5613L112.578 84.2528L123.116 80.4555L119.959 74.6244L129.815 78.5639L139.116 75.5204L136.599 81.5506L146.085 85.1062V85.0635ZM130.384 116.964L107.628 107.492L140.34 102.472L130.384 116.964ZM98.7538 88.7186C108.411 88.7186 116.233 91.7479 116.233 95.5026C116.233 99.2573 108.411 102.272 98.7538 102.272C89.0969 102.272 81.2747 99.2431 81.2747 95.5026C81.2747 91.7622 89.0969 88.7186 98.7538 88.7186Z" fill="white"/>
<path d="M160.535 86.8556L179.906 94.5071L160.564 102.144V86.8556" fill="#303030"/>
<path d="M139.131 95.332L160.464 86.7987V102.144L158.373 102.969L139.131 95.332Z" fill="#4B4B4B"/>
</g>
<defs>
<clipPath id="clip0_303_17198">
<rect width="142.222" height="121.444" fill="white" transform="translate(57.5947 67.1862)"/>
</clipPath>
</defs>
</svg>
