<svg width="257" height="256" viewBox="0 0 257 256" fill="none" xmlns="http://www.w3.org/2000/svg">
<rect x="0.537231" y="0.5" width="255" height="255" rx="31.5" fill="white"/>
<rect x="0.537231" y="0.5" width="255" height="255" rx="31.5" stroke="#878787"/>
<g clip-path="url(#clip0_303_17111)">
<path d="M155.62 154.203C158.186 153.9 160.54 152.631 162.204 150.655C163.868 148.679 164.717 146.143 164.58 143.564C164.442 140.984 163.328 138.553 161.463 136.765C159.598 134.977 157.123 133.966 154.539 133.937H154.17C152.838 133.983 151.529 134.291 150.317 134.843C149.105 135.396 148.014 136.182 147.106 137.157C146.199 138.132 145.492 139.277 145.028 140.525C144.563 141.774 144.35 143.102 144.399 144.433C144.509 146.935 145.519 149.314 147.243 151.131C141.085 163.249 131.67 172.123 117.562 179.576C108.553 184.486 98.2316 186.446 88.0505 185.179C79.9154 184.099 73.5723 180.472 69.5617 174.499C66.7284 170.423 65.0934 165.636 64.842 160.679C64.5907 155.722 65.733 150.793 68.1394 146.452C71.0909 140.757 75.2974 135.806 80.4417 131.974C79.8301 129.599 78.7065 125.603 78.1519 122.715C51.9119 141.716 54.6283 167.416 62.5928 179.547C68.5661 188.593 80.6977 194.211 94.0523 194.211C97.7123 194.232 101.361 193.807 104.918 192.945C128.186 188.408 145.665 174.655 155.62 154.203ZM187.478 131.761C173.697 115.661 153.444 106.843 130.276 106.843H127.432C126.598 105.207 125.327 103.834 123.761 102.875C122.195 101.916 120.394 101.41 118.557 101.411H118.23C115.68 101.635 113.308 102.815 111.592 104.716C109.876 106.616 108.942 109.095 108.978 111.655C109.014 114.215 110.017 116.667 111.786 118.518C113.555 120.369 115.959 121.482 118.515 121.635H118.884C120.789 121.54 122.63 120.912 124.196 119.823C125.762 118.735 126.992 117.229 127.745 115.476H131.03C144.766 115.473 158.191 119.568 169.587 127.238C178.263 132.739 184.971 140.851 188.744 150.406C191.816 158.001 191.588 165.425 188.374 171.739C183.311 181.325 174.806 186.573 163.585 186.573C157.481 186.487 151.454 185.196 145.85 182.776C143.859 184.582 140.161 187.483 137.7 189.29C144.979 192.861 152.948 194.802 161.053 194.979C178.419 194.979 191.275 185.379 196.154 175.793C201.402 165.283 201.046 147.192 187.478 131.803V131.761ZM95.4745 157.275C95.5772 159.899 96.6894 162.382 98.5789 164.205C100.468 166.028 102.989 167.051 105.615 167.06H105.971C108.66 167.013 111.22 165.9 113.089 163.965C114.957 162.03 115.98 159.432 115.933 156.742C115.886 154.053 114.772 151.492 112.837 149.624C110.902 147.755 108.304 146.732 105.615 146.779H105.245C104.815 146.751 104.383 146.814 103.979 146.964C96.6774 134.925 93.4042 120.871 94.6354 106.843C95.1358 96.5977 98.8701 86.774 105.302 78.783C110.55 72.0986 120.691 68.8275 127.574 68.6568C146.746 68.2302 154.895 92.1235 155.435 101.723C157.796 102.264 161.779 103.53 164.495 104.44C162.319 75.1137 144.214 59.9102 126.849 59.9102C110.55 59.9102 95.4745 71.6719 89.5581 89.0515C81.2381 112.219 86.7137 134.477 96.7972 152.027C95.7934 153.588 95.3473 155.443 95.5314 157.29L95.4745 157.275Z" fill="#646464"/>
</g>
<defs>
<clipPath id="clip0_303_17111">
<rect width="142.222" height="135.026" fill="white" transform="translate(57.0746 59.9102)"/>
</clipPath>
</defs>
</svg>
