<svg width="257" height="257" viewBox="0 0 257 257" fill="none" xmlns="http://www.w3.org/2000/svg">
<rect x="0.641602" y="0.985107" width="255" height="255" rx="31.5" fill="white"/>
<rect x="0.641602" y="0.985107" width="255" height="255" rx="31.5" stroke="#878787"/>
<g clip-path="url(#clip0_303_17124)">
<path d="M167.602 150.607L86.4077 198.82L191.553 191.709L199.645 85.6681L167.602 150.607Z" fill="url(#paint0_linear_303_17124)"/>
<path d="M191.723 191.624L182.678 129.245L158.073 161.743L191.723 191.609V191.624Z" fill="url(#paint1_linear_303_17124)"/>
<path d="M191.837 191.624L125.689 186.418L86.7632 198.692L191.837 191.581V191.624Z" fill="url(#paint2_linear_303_17124)"/>
<path d="M86.8486 198.706L103.389 144.52L66.9944 152.285L86.9055 198.692L86.8486 198.706Z" fill="url(#paint3_linear_303_17124)"/>
<path d="M158.059 161.928L142.841 102.322L99.293 143.14L158.059 161.928Z" fill="url(#paint4_linear_303_17124)"/>
<path d="M196.189 103.161L155.03 69.54L143.567 106.603L196.189 103.161Z" fill="url(#paint5_linear_303_17124)"/>
<path d="M176.89 57.5507L152.712 70.9338L137.451 57.3658L176.89 57.5507Z" fill="url(#paint6_linear_303_17124)"/>
<path d="M57.4229 170.475L67.5633 151.986L59.3571 129.942L57.4229 170.475Z" fill="url(#paint7_linear_303_17124)"/>
<path d="M58.845 129.245L67.0939 152.655L102.934 144.619L143.894 106.561L155.442 69.7961L137.252 56.9961L106.319 68.573C96.5623 77.6468 77.6467 95.5952 76.9641 95.9223C76.2814 96.2494 64.5339 118.593 58.845 129.245Z" fill="white"/>
<path d="M87.8015 87.1756C108.921 66.2405 136.157 53.8529 146.61 64.4201C157.064 74.9872 145.985 100.587 124.85 121.522C103.716 142.457 76.8361 155.513 66.3828 144.961C55.9295 134.408 66.6815 108.196 87.8015 87.1756Z" fill="url(#paint8_linear_303_17124)"/>
<path d="M86.8486 198.678L103.261 144.321L157.761 161.828C138.063 180.317 116.146 195.961 86.8486 198.678Z" fill="url(#paint9_linear_303_17124)"/>
<path d="M143.965 106.447L157.96 161.913C174.415 144.619 189.249 126.002 196.36 102.991L143.965 106.447Z" fill="url(#paint10_linear_303_17124)"/>
<path d="M196.274 103.218C201.878 86.3223 203.172 62.0734 176.762 57.5792L155.101 69.5401L196.274 103.218Z" fill="url(#paint11_linear_303_17124)"/>
<path d="M57.4229 170.233C58.2051 198.123 78.3153 198.536 86.8913 198.777L67.094 152.541L57.4229 170.233Z" fill="#3B3B3B"/>
<path d="M144.036 106.532C156.694 114.312 182.18 129.913 182.692 130.212C183.503 130.653 193.686 113.032 196.004 103.062L144.036 106.532Z" fill="url(#paint12_radial_303_17124)"/>
<path d="M103.247 144.321L125.177 186.646C137.129 179.995 148.051 171.645 157.604 161.857L103.247 144.321Z" fill="url(#paint13_radial_303_17124)"/>
<path d="M67.0087 152.598L63.894 189.576C69.7678 197.583 77.8318 198.28 86.294 197.654C80.1785 182.465 67.9332 151.986 67.0087 152.598Z" fill="url(#paint14_linear_303_17124)"/>
<path d="M154.973 69.6397L198.55 75.7552C196.232 65.8992 189.092 59.5419 176.89 57.5508L154.973 69.6397Z" fill="url(#paint15_linear_303_17124)"/>
</g>
<defs>
<linearGradient id="paint0_linear_303_17124" x1="182.337" y1="211.748" x2="152.356" y2="158.756" gradientUnits="userSpaceOnUse">
<stop stop-color="#9A9A9A"/>
<stop offset="0.41" stop-color="#616161"/>
<stop offset="0.99" stop-color="#2E2E2E"/>
<stop offset="1" stop-color="#2E2E2E"/>
</linearGradient>
<linearGradient id="paint1_linear_303_17124" x1="198.223" y1="162.582" x2="156.097" y2="154.347" gradientUnits="userSpaceOnUse">
<stop stop-color="#333333"/>
<stop offset="0.99" stop-color="#373737"/>
<stop offset="1" stop-color="#373737"/>
</linearGradient>
<linearGradient id="paint2_linear_303_17124" x1="139.684" y1="213.867" x2="139.144" y2="187.144" gradientUnits="userSpaceOnUse">
<stop stop-color="#333333"/>
<stop offset="0.99" stop-color="#373737"/>
<stop offset="1" stop-color="#373737"/>
</linearGradient>
<linearGradient id="paint3_linear_303_17124" x1="85.1988" y1="148.431" x2="97.7286" y2="185.167" gradientUnits="userSpaceOnUse">
<stop stop-color="white"/>
<stop offset="0.23" stop-color="#919191"/>
<stop offset="0.46" stop-color="#696969"/>
<stop offset="0.99" stop-color="#323232"/>
<stop offset="1" stop-color="#323232"/>
</linearGradient>
<linearGradient id="paint4_linear_303_17124" x1="126.372" y1="112.064" x2="128.633" y2="151.816" gradientUnits="userSpaceOnUse">
<stop stop-color="white"/>
<stop offset="0.23" stop-color="#909090"/>
<stop offset="0.56" stop-color="#4A4A4A"/>
<stop offset="0.99" stop-color="#3A3A3A"/>
<stop offset="1" stop-color="#3A3A3A"/>
</linearGradient>
<linearGradient id="paint5_linear_303_17124" x1="166.436" y1="74.916" x2="169.75" y2="103.787" gradientUnits="userSpaceOnUse">
<stop stop-color="white"/>
<stop offset="0.18" stop-color="#868686"/>
<stop offset="0.4" stop-color="#535353"/>
<stop offset="0.99" stop-color="#3A3A3A"/>
<stop offset="1" stop-color="#3A3A3A"/>
</linearGradient>
<linearGradient id="paint6_linear_303_17124" x1="154.689" y1="68.0752" x2="159.382" y2="48.2067" gradientUnits="userSpaceOnUse">
<stop stop-color="white"/>
<stop offset="0.54" stop-color="#505050"/>
<stop offset="0.99" stop-color="#3F3F3F"/>
<stop offset="1" stop-color="#3F3F3F"/>
</linearGradient>
<linearGradient id="paint7_linear_303_17124" x1="54.4362" y1="147.734" x2="66.6957" y2="155.4" gradientUnits="userSpaceOnUse">
<stop stop-color="white"/>
<stop offset="0.31" stop-color="#6C6C6C"/>
<stop offset="0.99" stop-color="#494949"/>
<stop offset="1" stop-color="#494949"/>
</linearGradient>
<linearGradient id="paint8_linear_303_17124" x1="44.1961" y1="168.413" x2="154.276" y2="54.9054" gradientUnits="userSpaceOnUse">
<stop stop-color="#3B3B3B"/>
<stop offset="0.07" stop-color="white"/>
<stop offset="0.17" stop-color="white"/>
<stop offset="0.27" stop-color="#5B5B5B"/>
<stop offset="0.33" stop-color="#2E2E2E"/>
<stop offset="0.46" stop-color="#3E3E3E"/>
<stop offset="0.72" stop-color="#414141"/>
<stop offset="0.99" stop-color="#5D5D5D"/>
<stop offset="1" stop-color="#5D5D5D"/>
</linearGradient>
<linearGradient id="paint9_linear_303_17124" x1="127.425" y1="182.408" x2="96.278" y2="169.323" gradientUnits="userSpaceOnUse">
<stop stop-color="#313131"/>
<stop offset="0.54" stop-color="#353535"/>
<stop offset="0.99" stop-color="#3C3C3C"/>
<stop offset="1" stop-color="#3C3C3C"/>
</linearGradient>
<linearGradient id="paint10_linear_303_17124" x1="186.305" y1="138.873" x2="154.219" y2="116.075" gradientUnits="userSpaceOnUse">
<stop stop-color="#313131"/>
<stop offset="0.99" stop-color="#363636"/>
<stop offset="1" stop-color="#363636"/>
</linearGradient>
<linearGradient id="paint11_linear_303_17124" x1="197.014" y1="90.8023" x2="181.924" y2="75.485" gradientUnits="userSpaceOnUse">
<stop stop-color="#313131"/>
<stop offset="0.99" stop-color="#3B3B3B"/>
<stop offset="1" stop-color="#3B3B3B"/>
</linearGradient>
<radialGradient id="paint12_radial_303_17124" cx="0" cy="0" r="1" gradientUnits="userSpaceOnUse" gradientTransform="translate(156.739 114.106) scale(36.1529 18.8871)">
<stop stop-color="#3A3A3A"/>
<stop offset="0.99" stop-color="#2F2F2F"/>
<stop offset="1" stop-color="#2F2F2F"/>
</radialGradient>
<radialGradient id="paint13_radial_303_17124" cx="0" cy="0" r="1" gradientUnits="userSpaceOnUse" gradientTransform="translate(107.97 162.026) scale(48.0569 37.4044)">
<stop stop-color="#383838"/>
<stop offset="0.99" stop-color="#303030"/>
<stop offset="1" stop-color="#303030"/>
</radialGradient>
<linearGradient id="paint14_linear_303_17124" x1="85.3696" y1="188.04" x2="58.3189" y2="165.583" gradientUnits="userSpaceOnUse">
<stop stop-color="#3F3F3F"/>
<stop offset="0.43" stop-color="#3A3A3A"/>
<stop offset="0.99" stop-color="#404040"/>
<stop offset="1" stop-color="#404040"/>
</linearGradient>
<linearGradient id="paint15_linear_303_17124" x1="172.808" y1="62.301" x2="180.488" y2="81.7143" gradientUnits="userSpaceOnUse">
<stop stop-color="#3F3F3F"/>
<stop offset="0.44" stop-color="#353535"/>
<stop offset="0.99" stop-color="#373737"/>
<stop offset="1" stop-color="#373737"/>
</linearGradient>
<clipPath id="clip0_303_17124">
<rect width="142.222" height="141.824" fill="white" transform="translate(57.4229 56.9961)"/>
</clipPath>
</defs>
</svg>
