<svg width="257" height="257" viewBox="0 0 257 257" fill="none" xmlns="http://www.w3.org/2000/svg">
<rect x="1.05225" y="1.39111" width="255" height="255" rx="31.5" fill="white"/>
<rect x="1.05225" y="1.39111" width="255" height="255" rx="31.5" stroke="#878787"/>
<path d="M198.447 126.57L192.477 122.874C192.426 122.294 192.37 121.714 192.307 121.135L197.438 116.349C197.695 116.11 197.886 115.81 197.993 115.477C198.101 115.144 198.121 114.788 198.052 114.445C197.984 114.101 197.83 113.781 197.603 113.514C197.377 113.247 197.085 113.043 196.757 112.92L190.198 110.468C190.033 109.901 189.862 109.337 189.684 108.774L193.776 103.091C193.981 102.807 194.11 102.476 194.15 102.128C194.191 101.78 194.142 101.427 194.008 101.104C193.874 100.78 193.659 100.496 193.385 100.279C193.11 100.061 192.784 99.9176 192.438 99.8615L185.522 98.7365C185.253 98.212 184.973 97.6954 184.691 97.1832L187.597 90.8037C187.743 90.4854 187.805 90.1348 187.777 89.7856C187.749 89.4364 187.632 89.1002 187.437 88.8093C187.243 88.5174 186.978 88.2802 186.666 88.1205C186.354 87.9607 186.007 87.8838 185.657 87.897L178.637 88.1415C178.274 87.6874 177.905 87.239 177.528 86.7965L179.141 79.9587C179.222 79.6177 179.214 79.2617 179.118 78.9246C179.022 78.5875 178.842 78.2806 178.593 78.0332C178.346 77.7854 178.039 77.605 177.702 77.5092C177.366 77.4133 177.01 77.4051 176.669 77.4854L169.833 79.097C169.389 78.7208 168.94 78.3511 168.485 77.9882L168.731 70.9687C168.744 70.6188 168.667 70.2713 168.507 69.9596C168.348 69.6478 168.111 69.3822 167.82 69.1882C167.529 68.9933 167.192 68.8762 166.843 68.848C166.494 68.8198 166.144 68.8814 165.825 69.027L159.447 71.9348C158.933 71.6509 158.415 71.3731 157.894 71.1015L156.766 64.1837C156.71 63.8383 156.566 63.513 156.349 63.2386C156.131 62.9643 155.848 62.75 155.524 62.6161C155.201 62.4822 154.849 62.433 154.501 62.4734C154.153 62.5137 153.822 62.6421 153.537 62.8465L147.851 66.9381C147.291 66.7604 146.728 66.5887 146.161 66.4259L143.708 59.8654C143.586 59.5367 143.382 59.2448 143.115 59.0176C142.848 58.7904 142.527 58.6355 142.183 58.5676C141.84 58.5001 141.485 58.521 141.152 58.6285C140.819 58.736 140.52 58.9265 140.281 59.182L135.495 64.317C134.916 64.2522 134.336 64.1955 133.756 64.147L130.06 58.1748C129.875 57.8772 129.618 57.6316 129.313 57.4613C129.007 57.2909 128.663 57.2015 128.313 57.2015C127.963 57.2015 127.619 57.2909 127.313 57.4613C127.007 57.6316 126.75 57.8772 126.566 58.1748L122.87 64.147C122.289 64.1954 121.708 64.2521 121.129 64.317L116.342 59.182C116.103 58.9256 115.803 58.7344 115.47 58.6268C115.136 58.5192 114.781 58.4986 114.437 58.5671C114.094 58.6356 113.774 58.7909 113.507 59.0181C113.241 59.2453 113.037 59.537 112.915 59.8654L110.462 66.4259C109.894 66.5887 109.332 66.7615 108.771 66.9381L103.085 62.8465C102.801 62.6412 102.469 62.5122 102.121 62.4718C101.773 62.4314 101.42 62.4811 101.097 62.6159C100.774 62.7502 100.49 62.9646 100.273 63.2389C100.056 63.5132 99.9118 63.8384 99.8552 64.1837L98.7274 71.1015C98.2052 71.372 97.6891 71.6504 97.1741 71.9348L90.7957 69.0265C90.4774 68.8808 90.127 68.8191 89.778 68.8474C89.429 68.8757 89.0931 68.993 88.8024 69.1882C88.5107 69.3821 88.2736 69.6476 88.1139 69.9594C87.9542 70.2711 87.8771 70.6187 87.8902 70.9687L88.1346 77.9882C87.6805 78.3518 87.2312 78.7215 86.7868 79.097L79.9507 77.4859C79.6097 77.406 79.254 77.4143 78.9171 77.5101C78.5801 77.6058 78.2732 77.7858 78.0252 78.0332C77.7771 78.2806 77.5964 78.5875 77.5006 78.9246C77.4047 79.2617 77.3967 79.6177 77.4774 79.9587L79.0879 86.7965C78.7141 87.2393 78.3446 87.6876 77.9818 88.1415L70.9618 87.897C70.6122 87.886 70.2656 87.9639 69.9543 88.1233C69.6429 88.2828 69.3772 88.5186 69.1818 88.8087C68.987 89.0998 68.8699 89.4358 68.8416 89.7849C68.8133 90.134 68.8748 90.4845 69.0202 90.8032L71.9279 97.1832C71.6452 97.6954 71.3657 98.212 71.0946 98.7365L64.1785 99.8615C63.8329 99.9179 63.5074 100.062 63.2329 100.279C62.9584 100.496 62.744 100.78 62.6101 101.104C62.4761 101.428 62.4271 101.78 62.4675 102.128C62.508 102.476 62.6366 102.807 62.8413 103.091L66.9329 108.775C66.7552 109.336 66.5824 109.899 66.4191 110.468L59.8591 112.92C59.5315 113.043 59.2407 113.248 59.0142 113.515C58.7878 113.782 58.6332 114.102 58.565 114.445C58.4969 114.788 58.5175 115.143 58.6248 115.477C58.7322 115.81 58.9227 116.11 59.1785 116.349L64.3102 121.134C64.2463 121.712 64.1896 122.294 64.1407 122.874L58.1691 126.57C57.8715 126.754 57.626 127.011 57.4558 127.317C57.2857 127.623 57.1965 127.967 57.1968 128.317C57.1968 129.03 57.5652 129.691 58.1696 130.063L64.1407 133.759C64.1896 134.341 64.2463 134.922 64.3102 135.499L59.1779 140.286C58.9217 140.525 58.7308 140.825 58.6232 141.158C58.5155 141.491 58.4949 141.846 58.5631 142.189C58.6314 142.533 58.7862 142.853 59.0131 143.12C59.2399 143.386 59.5311 143.591 59.8591 143.713L66.4191 146.166C66.5824 146.734 66.7552 147.298 66.9329 147.859L62.8413 153.543C62.6363 153.827 62.5073 154.159 62.4668 154.507C62.4262 154.855 62.4754 155.207 62.6096 155.531C62.7438 155.854 62.9585 156.138 63.2334 156.355C63.5084 156.573 63.8343 156.716 64.1802 156.772L71.0952 157.897C71.3657 158.421 71.6429 158.938 71.9285 159.452L69.0202 165.83C68.8745 166.148 68.8129 166.499 68.8412 166.848C68.8695 167.197 68.9868 167.533 69.1818 167.824C69.3758 168.116 69.6413 168.353 69.9529 168.512C70.2645 168.672 70.6119 168.749 70.9618 168.736L77.9785 168.49C78.3446 168.947 78.7129 169.394 79.0879 169.838L77.4774 176.677C77.3968 177.017 77.4048 177.373 77.5007 177.709C77.5966 178.046 77.7772 178.352 78.0252 178.599C78.2725 178.847 78.5794 179.028 78.9166 179.123C79.2538 179.219 79.6099 179.226 79.9507 179.145L86.7868 177.535C87.2313 177.913 87.6813 178.279 88.1352 178.64L87.8907 185.662C87.8781 186.012 87.9552 186.359 88.1147 186.671C88.2742 186.983 88.5107 187.248 88.8019 187.443C89.093 187.637 89.4291 187.754 89.7781 187.782C90.1271 187.81 90.4774 187.748 90.7957 187.602L97.1741 184.696C97.6876 184.981 98.2055 185.259 98.7274 185.529L99.8552 192.443C99.9109 192.789 100.054 193.114 100.272 193.389C100.489 193.664 100.773 193.878 101.097 194.012C101.42 194.146 101.773 194.195 102.121 194.155C102.469 194.115 102.801 193.987 103.085 193.783L108.768 189.688C109.329 189.866 109.893 190.04 110.461 190.203L112.913 196.761C113.036 197.089 113.24 197.381 113.507 197.607C113.774 197.834 114.094 197.989 114.438 198.056C114.781 198.125 115.136 198.105 115.47 197.997C115.803 197.89 116.103 197.698 116.341 197.442L121.128 192.309C121.706 192.376 122.287 192.432 122.868 192.483L126.565 198.454C126.749 198.751 127.006 198.997 127.312 199.167C127.617 199.337 127.961 199.426 128.311 199.427C128.661 199.426 129.005 199.337 129.31 199.167C129.616 198.997 129.873 198.752 130.058 198.454L133.754 192.483C134.336 192.432 134.916 192.376 135.493 192.309L140.28 197.442C140.518 197.698 140.817 197.89 141.15 197.997C141.484 198.105 141.839 198.125 142.182 198.056C142.525 197.988 142.846 197.834 143.113 197.607C143.38 197.38 143.584 197.089 143.706 196.761L146.159 190.203C146.727 190.04 147.291 189.866 147.852 189.688L153.536 193.783C153.821 193.987 154.152 194.115 154.5 194.156C154.848 194.196 155.201 194.146 155.524 194.012C155.847 193.878 156.131 193.663 156.348 193.389C156.566 193.114 156.709 192.788 156.765 192.443L157.893 185.529C158.415 185.258 158.931 184.977 159.446 184.695L165.824 187.602C166.142 187.748 166.493 187.81 166.842 187.783C167.191 187.755 167.528 187.638 167.819 187.444C168.11 187.249 168.347 186.983 168.506 186.672C168.666 186.36 168.743 186.012 168.73 185.662L168.485 178.641C168.94 178.279 169.388 177.911 169.831 177.535L176.668 179.145C177.362 179.308 178.09 179.106 178.592 178.599C178.84 178.352 179.02 178.046 179.116 177.709C179.212 177.373 179.22 177.017 179.14 176.677L177.53 169.838C177.905 169.394 178.274 168.947 178.635 168.49L185.655 168.736C186.005 168.749 186.352 168.672 186.664 168.513C186.976 168.353 187.241 168.116 187.435 167.825C187.631 167.534 187.748 167.197 187.776 166.848C187.804 166.499 187.742 166.148 187.596 165.829L184.689 159.453C184.973 158.938 185.252 158.421 185.521 157.897L192.437 156.772C192.783 156.716 193.109 156.573 193.383 156.355C193.658 156.138 193.872 155.853 194.005 155.529C194.139 155.206 194.188 154.854 194.148 154.506C194.108 154.158 193.979 153.827 193.775 153.543L189.683 147.859C189.86 147.298 190.032 146.734 190.197 146.166L196.756 143.713C197.084 143.591 197.376 143.387 197.602 143.12C197.829 142.853 197.983 142.532 198.051 142.188C198.12 141.845 198.1 141.49 197.992 141.157C197.884 140.824 197.693 140.524 197.436 140.286L192.306 135.499C192.368 134.921 192.425 134.34 192.475 133.76L198.446 130.063C198.744 129.879 198.99 129.622 199.16 129.317C199.33 129.011 199.419 128.667 199.419 128.317C199.419 127.605 199.052 126.944 198.447 126.57V126.57ZM158.485 176.101C156.205 175.609 154.755 173.362 155.245 171.075C155.732 168.79 157.978 167.337 160.257 167.828C162.537 168.317 163.99 170.568 163.501 172.85C163.012 175.134 160.764 176.589 158.485 176.101ZM156.456 162.379C155.962 162.273 155.451 162.266 154.953 162.357C154.455 162.449 153.981 162.637 153.556 162.912C153.131 163.188 152.765 163.544 152.478 163.961C152.191 164.377 151.989 164.847 151.884 165.342L149.764 175.234C143.222 178.203 135.958 179.853 128.308 179.853C120.482 179.853 113.06 178.122 106.402 175.026L104.283 165.134C103.838 163.052 101.791 161.726 99.7124 162.173L90.9791 164.048C89.356 162.378 87.8474 160.6 86.4635 158.726H128.958C129.438 158.726 129.759 158.639 129.759 158.201V143.169C129.759 142.732 129.438 142.645 128.957 142.645H116.53V133.117H129.972C131.198 133.117 136.532 133.467 138.237 140.285C138.772 142.382 139.944 149.202 140.746 151.385C141.545 153.834 144.798 158.725 148.265 158.725H169.44C169.68 158.725 169.937 158.698 170.207 158.649C168.738 160.645 167.129 162.533 165.391 164.299L156.457 162.379H156.456ZM97.6841 175.894C95.4035 176.387 93.1585 174.933 92.6679 172.648C92.1802 170.36 93.6302 168.114 95.9102 167.622C98.1907 167.134 100.437 168.588 100.926 170.872C101.413 173.155 99.9624 175.405 97.6835 175.894H97.6841ZM81.5635 110.528C82.5096 112.662 81.5468 115.164 79.4152 116.108C77.2835 117.055 74.7885 116.091 73.8429 113.955C72.8968 111.819 73.8591 109.322 75.9913 108.375C76.4984 108.15 77.0449 108.027 77.5995 108.014C78.1542 108 78.706 108.096 79.2235 108.296C79.7411 108.496 80.2141 108.796 80.6156 109.179C81.0171 109.561 81.3392 110.02 81.5635 110.527V110.528ZM76.6091 122.272L85.7068 118.229C86.6408 117.814 87.3716 117.045 87.7387 116.091C88.1058 115.137 88.0792 114.076 87.6646 113.142L85.7913 108.905H93.1602V142.12H78.2929C76.9751 137.481 76.3083 132.681 76.3118 127.858C76.3118 125.97 76.4135 124.105 76.6091 122.272V122.272ZM116.532 119.046V109.255H134.08C134.987 109.255 140.48 110.303 140.48 114.411C140.48 117.821 136.267 119.044 132.802 119.044H116.532V119.046ZM180.306 127.858C180.306 129.157 180.258 130.443 180.163 131.718H174.828C174.294 131.718 174.079 132.069 174.079 132.592V135.042C174.079 140.809 170.827 142.063 167.978 142.383C165.265 142.688 162.256 141.247 161.885 139.586C160.284 130.583 157.617 128.66 153.405 125.337C158.632 122.018 164.071 117.12 164.071 110.565C164.071 103.487 159.219 99.0287 155.911 96.8426C151.271 93.7837 146.133 93.1704 144.747 93.1704H89.5741C97.0557 84.8204 107.196 78.9054 118.664 76.7532L125.167 83.5754C125.516 83.9416 125.934 84.2354 126.397 84.4399C126.859 84.6445 127.358 84.7558 127.863 84.7674C128.369 84.7791 128.872 84.6909 129.344 84.5079C129.815 84.3249 130.246 84.0507 130.611 83.7009L137.888 76.7409C153.135 79.5798 166.045 89.0709 173.484 102.093L168.502 113.344C167.642 115.291 168.52 117.569 170.462 118.431L180.053 122.692C180.218 124.394 180.306 126.114 180.306 127.858ZM125.17 70.9493C126.855 69.3354 129.528 69.3993 131.141 71.0865C132.751 72.7787 132.69 75.4543 131.001 77.067C129.316 78.6815 126.643 78.6187 125.03 76.9282C124.257 76.1161 123.838 75.0306 123.864 73.9098C123.89 72.7889 124.36 71.7242 125.17 70.9493V70.9493ZM174.605 110.733C174.829 110.225 175.151 109.767 175.553 109.384C175.954 109.001 176.427 108.702 176.945 108.502C177.462 108.302 178.014 108.206 178.568 108.22C179.123 108.233 179.669 108.356 180.176 108.581C182.308 109.527 183.271 112.028 182.325 114.162C182.101 114.67 181.779 115.128 181.377 115.511C180.976 115.894 180.503 116.194 179.985 116.394C179.467 116.594 178.915 116.69 178.361 116.677C177.806 116.663 177.26 116.54 176.752 116.315C174.623 115.369 173.661 112.87 174.605 110.733V110.733Z" fill="black"/>
</svg>
