<svg width="257" height="257" viewBox="0 0 257 257" fill="none" xmlns="http://www.w3.org/2000/svg">
<rect x="0.604492" y="0.797119" width="255" height="255" rx="31.5" fill="white"/>
<rect x="0.604492" y="0.797119" width="255" height="255" rx="31.5" stroke="#878787"/>
<g clip-path="url(#clip0_303_17215)">
<path d="M180.002 136.705C175.536 136.714 171.131 137.735 167.117 139.692C165.879 137.603 164.923 135.361 164.272 133.022C163.887 131.151 163.8 129.231 164.016 127.333C164.421 125.309 164.958 123.313 165.623 121.36C165.623 121.089 165.311 119.937 162.452 119.852C159.593 119.767 157.119 120.392 156.763 121.146C156.269 122.54 155.87 123.965 155.568 125.413C155.071 128.001 149.879 137.274 146.864 142.138C145.975 140.615 145.309 138.972 144.887 137.26C144.509 135.412 144.423 133.517 144.631 131.642C145.068 129.594 145.633 127.575 146.324 125.598C146.324 125.328 146.011 124.104 143.152 124.09C140.294 124.076 137.833 124.631 137.549 125.384C137.264 126.138 136.951 127.902 136.354 129.651C135.757 131.4 128.93 146.789 127.11 150.771C126.171 152.819 125.375 154.455 124.791 155.578C124.769 155.654 124.736 155.726 124.692 155.792L123.91 157.214C123.526 157.911 123.113 158.565 122.9 158.565C122.519 157.115 122.519 155.592 122.9 154.142C123.938 148.766 126.399 140.403 126.37 140.119C126.342 139.834 126.839 138.497 124.763 137.744C124.282 137.518 123.744 137.444 123.22 137.533C122.696 137.622 122.212 137.869 121.833 138.241C121.648 138.241 121.52 138.682 121.52 138.682C121.52 138.682 123.839 129.438 117.268 129.438C113.158 129.438 107.497 133.932 104.695 137.971L95.1239 143.191C93.6021 144.044 92.0092 144.912 90.5301 145.708C90.4305 145.608 90.331 145.48 90.2172 145.381C82.267 136.833 67.5754 130.86 68.187 119.482C68.4288 115.216 69.851 104.364 96.4323 91.1231C118.306 80.3426 135.757 83.3293 138.715 89.9426C142.982 99.4004 129.399 116.965 106.8 119.511C98.1674 120.478 93.6448 117.15 92.5781 115.898C91.5114 114.647 91.1559 114.476 90.7576 114.789C90.0323 115.173 90.5016 116.339 90.7576 117.022C91.4403 118.785 94.2136 121.9 98.9212 123.436C103.074 124.787 113.143 125.541 125.417 120.805C139.028 115.514 149.737 100.78 146.594 88.4351C143.451 76.0902 122.672 71.7951 103.046 78.7782C91.3123 82.9311 78.6403 89.4733 69.5239 98.0066C58.6865 108.104 56.9656 116.936 57.6768 120.62C60.1941 133.704 78.2421 142.238 85.467 148.552L84.4856 149.093C80.8732 150.885 67.1061 158.081 63.6785 165.704C59.7816 174.323 64.2901 180.51 67.2768 181.349C76.5639 183.923 86.0928 179.301 91.2128 171.664C96.3328 164.026 95.707 154.099 93.3319 149.548C93.3183 149.473 93.2837 149.404 93.2323 149.349L96.0768 147.699C97.9256 146.604 99.7461 145.594 101.296 144.755C100.245 147.806 99.6271 150.99 99.4616 154.213C99.0634 159.091 101.069 165.434 103.728 167.923C104.199 168.329 104.746 168.637 105.336 168.83C105.927 169.023 106.551 169.097 107.17 169.047C110.228 169.047 111.607 166.501 113.143 163.486C115.007 159.802 116.699 155.507 116.699 155.507C116.699 155.507 114.537 167.127 120.255 167.127C122.331 167.127 124.436 164.424 125.375 163.045L125.531 162.789L125.858 162.234C126.697 160.812 128.56 157.484 131.348 151.994C134.932 144.883 138.459 136.094 138.459 136.094C138.812 138.018 139.287 139.918 139.881 141.783C140.725 144.064 141.718 146.287 142.854 148.439C142.015 149.605 141.503 150.245 141.503 150.245C140.82 151.127 140.08 152.094 139.284 153.089C136.439 156.46 133.083 160.328 132.614 161.452C132.305 161.944 132.198 162.537 132.314 163.106C132.431 163.675 132.762 164.178 133.239 164.51C134.304 165.072 135.52 165.276 136.71 165.093C138.51 164.989 140.28 164.58 141.943 163.884C143.55 163.324 145.065 162.528 146.438 161.523C147.848 160.535 148.981 159.202 149.728 157.65C150.475 156.099 150.811 154.381 150.704 152.663C150.537 150.496 149.983 148.376 149.069 146.405C149.325 146.049 149.552 145.68 149.823 145.324C152.705 141.006 155.309 136.507 157.616 131.856C157.969 133.78 158.444 135.68 159.039 137.544C159.728 139.506 160.575 141.408 161.57 143.233C158.245 145.793 155.631 149.162 153.975 153.018C152.34 157.754 153.62 159.888 156.038 160.371C157.345 160.463 158.653 160.197 159.821 159.603C161.543 159.036 163.166 158.201 164.628 157.128C167.472 155.08 170.089 152.222 169.933 148.353C169.808 146.567 169.405 144.81 168.738 143.148C173.122 141.435 177.876 140.891 182.534 141.569C194.893 142.992 197.339 150.743 196.87 153.985C196.65 155.138 196.185 156.231 195.508 157.19C194.831 158.149 193.957 158.953 192.944 159.546C192.091 160.087 191.807 160.272 191.878 160.656C191.949 161.04 192.404 161.21 193.129 161.111C194.953 160.511 196.558 159.382 197.738 157.868C198.918 156.353 199.621 154.521 199.757 152.606C200.127 144.968 192.859 136.634 180.002 136.705ZM84.5568 168.862C80.4465 173.342 74.7292 175.02 72.2688 173.598C69.8083 172.176 70.6616 165.463 75.6963 160.798C78.6974 158.105 81.9449 155.701 85.3959 153.616L87.9416 152.08L88.2261 151.923L88.8376 151.539C89.72 154.547 89.7887 157.735 89.0366 160.779C88.2846 163.822 86.7387 166.611 84.5568 168.862ZM114.423 148.552C113.001 152.037 110.015 160.94 108.194 160.456C106.63 160.03 105.677 153.274 107.881 146.604C109.007 143.391 110.65 140.384 112.745 137.701C114.978 135.198 117.439 134.373 118.036 135.383C118.847 136.705 115.362 146.376 114.423 148.552ZM139.085 160.343C138.487 160.656 137.904 160.869 137.663 160.712C137.421 160.556 137.919 160.186 137.919 160.186C137.919 160.186 141.019 156.872 142.185 155.365C142.882 154.469 143.707 153.431 144.603 152.264V152.606C144.703 156.574 140.848 159.304 139.142 160.343H139.085ZM158.1 156.076C157.659 155.763 157.73 154.654 159.209 151.482C160.247 149.392 161.699 147.534 163.476 146.021C163.744 146.789 163.883 147.597 163.888 148.41C163.894 150.128 163.336 151.801 162.301 153.173C161.266 154.544 159.811 155.539 158.157 156.005L158.1 156.076Z" fill="#8B8B8B"/>
</g>
<defs>
<clipPath id="clip0_303_17215">
<rect width="142.222" height="106.652" fill="white" transform="translate(57.5345 75.3933)"/>
</clipPath>
</defs>
</svg>
