<svg width="257" height="257" viewBox="0 0 257 257" fill="none" xmlns="http://www.w3.org/2000/svg">
<rect x="0.641602" y="1.39111" width="255" height="255" rx="31.5" fill="white"/>
<rect x="0.641602" y="1.39111" width="255" height="255" rx="31.5" stroke="#878787"/>
<g clip-path="url(#clip0_303_17165)">
<path d="M56.9346 57.2029H199.157V199.425H56.9346V57.2029Z" fill="#939393"/>
<path d="M150.531 105.558C143.022 101.206 136.309 97.7789 127.633 97.9211C122.641 98.0207 118.36 100.766 117.45 105.686C116.625 110.309 120.721 112.798 124.988 114.433C132.099 117.05 138.243 119.795 145.198 122.696C157.912 127.973 164.327 136.506 163.601 147.457C162.62 161.395 154.229 171.393 140.846 174.693C123.424 178.959 106.513 172.431 92.22 163.315C95.8324 157.811 100.014 154.056 103.598 148.595C111.847 152.122 118.346 156.858 126.979 157.598C133.066 158.124 139.964 157.839 141.344 150.686C142.567 144.229 136.963 140.73 131.488 138.838C124.96 136.549 118.46 133.733 112.06 131.116C100.241 126.294 95.4342 116.894 96.2449 105.729C96.2449 99.2011 101.649 86.0171 114.919 81.9211C135.299 75.6207 146.535 82.0776 161.312 91.578C157.386 96.7691 154.371 100.453 150.503 105.587" fill="white"/>
</g>
<defs>
<clipPath id="clip0_303_17165">
<rect width="142.222" height="142.222" fill="white" transform="translate(56.9346 57.2029)"/>
</clipPath>
</defs>
</svg>
