<svg width="257" height="257" viewBox="0 0 257 257" fill="none" xmlns="http://www.w3.org/2000/svg">
<rect x="1.26099" y="0.688232" width="255" height="255" rx="31.5" fill="white"/>
<rect x="1.26099" y="0.688232" width="255" height="255" rx="31.5" stroke="#878787"/>
<path fill-rule="evenodd" clip-rule="evenodd" d="M58.8968 107.968L87.7986 68.7351C88.0942 68.3348 88.4695 67.9999 88.9008 67.7517C89.3321 67.5035 89.8101 67.3472 90.3047 67.2927L128.907 63.0016C129.17 62.9724 129.436 62.9724 129.7 63.0016L168.302 67.2882C168.796 67.3427 169.274 67.499 169.706 67.7472C170.137 67.9954 170.512 68.3302 170.808 68.7306L199.714 107.968C200.198 108.627 200.443 109.43 200.41 110.246C200.378 111.063 200.069 111.844 199.534 112.462L131.354 191.306C131.1 191.6 130.786 191.836 130.433 191.997C130.08 192.159 129.696 192.242 129.308 192.242C128.919 192.242 128.536 192.159 128.182 191.997C127.829 191.836 127.515 191.6 127.261 191.306L59.0681 112.462C58.534 111.844 58.2257 111.062 58.1938 110.246C58.1619 109.429 58.4082 108.626 58.8923 107.968H58.8968ZM139.247 74.5993L166.503 100.346C166.767 100.596 167.101 100.761 167.46 100.818C167.82 100.875 168.188 100.822 168.516 100.666C168.845 100.51 169.119 100.258 169.302 99.9433C169.485 99.6288 169.568 99.2663 169.541 98.9035L168.234 80.6303C168.216 80.4067 168.281 80.1843 168.418 80.0066C168.555 79.8289 168.753 79.7085 168.974 79.6691C169.195 79.6297 169.422 79.674 169.612 79.7934C169.802 79.9128 169.941 80.0986 170.001 80.3147L175.978 101.238C176.179 101.943 176.549 102.588 177.056 103.117C177.562 103.646 178.19 104.044 178.885 104.276L191.641 108.527C191.845 108.594 192.018 108.731 192.129 108.914C192.241 109.097 192.284 109.313 192.25 109.525C192.216 109.736 192.109 109.929 191.946 110.068C191.783 110.208 191.576 110.284 191.362 110.285H179.101C178.344 110.285 177.598 110.477 176.934 110.841C176.27 111.206 175.709 111.733 175.302 112.372L141.883 164.883C141.696 165.17 141.408 165.375 141.076 165.457C140.744 165.539 140.393 165.492 140.094 165.326C139.795 165.16 139.57 164.886 139.465 164.561C139.359 164.235 139.381 163.882 139.526 163.572L163.479 114.17C163.679 113.758 163.771 113.301 163.746 112.844C163.722 112.386 163.581 111.942 163.338 111.553C163.094 111.165 162.756 110.845 162.355 110.623C161.954 110.401 161.503 110.285 161.045 110.285H97.5617C97.1033 110.285 96.6524 110.401 96.2514 110.623C95.8503 110.845 95.5122 111.165 95.2688 111.553C95.0255 111.942 94.8849 112.386 94.8602 112.844C94.8355 113.301 94.9276 113.758 95.1277 114.17L119.08 163.572C119.231 163.882 119.257 164.239 119.153 164.568C119.05 164.897 118.824 165.174 118.523 165.342C118.221 165.51 117.867 165.557 117.533 165.473C117.198 165.388 116.908 165.179 116.723 164.888L83.3047 112.376C82.8979 111.736 82.3359 111.208 81.6709 110.842C81.0059 110.477 80.2593 110.285 79.5004 110.285H66.866C66.6518 110.284 66.4448 110.208 66.282 110.068C66.1192 109.929 66.0113 109.736 65.9777 109.525C65.9441 109.313 65.9869 109.097 66.0984 108.914C66.21 108.731 66.383 108.594 66.5865 108.527L79.6942 104.267C80.3966 104.038 81.032 103.64 81.5445 103.108C82.057 102.576 82.4308 101.926 82.6331 101.216L88.6054 80.3147C88.6656 80.0986 88.8042 79.9128 88.9941 79.7934C89.184 79.674 89.4115 79.6297 89.6324 79.6691C89.8532 79.7085 90.0513 79.8289 90.1882 80.0066C90.325 80.1843 90.3907 80.4067 90.3724 80.6303L89.0652 98.9035C89.0383 99.2663 89.1217 99.6288 89.3046 99.9433C89.4875 100.258 89.7613 100.51 90.0899 100.666C90.4186 100.822 90.7868 100.875 91.1461 100.818C91.5054 100.761 91.8391 100.596 92.1032 100.346L119.36 74.5993C119.524 74.433 119.747 74.3373 119.981 74.3324C120.215 74.3274 120.442 74.4137 120.614 74.573C120.785 74.7322 120.888 74.9519 120.9 75.1856C120.913 75.4193 120.834 75.6487 120.68 75.8253L102.394 98.331C102.179 98.5954 102.044 98.9151 102.004 99.2531C101.963 99.5911 102.019 99.9336 102.166 100.241C102.312 100.549 102.542 100.808 102.83 100.99C103.117 101.172 103.451 101.269 103.791 101.27H154.815C155.156 101.269 155.489 101.172 155.777 100.99C156.064 100.808 156.295 100.549 156.441 100.241C156.587 99.9336 156.643 99.5911 156.603 99.2531C156.562 98.9151 156.427 98.5954 156.213 98.331L137.926 75.8253C137.772 75.6487 137.693 75.4193 137.706 75.1856C137.718 74.9519 137.821 74.7322 137.993 74.573C138.164 74.4137 138.391 74.3274 138.625 74.3324C138.859 74.3373 139.082 74.433 139.247 74.5993V74.5993Z" fill="black"/>
</svg>
