<svg width="256" height="256" viewBox="0 0 256 256" fill="none" xmlns="http://www.w3.org/2000/svg">
<rect x="0.5" y="0.5" width="255" height="255" rx="31.5" fill="white"/>
<rect x="0.5" y="0.5" width="255" height="255" rx="31.5" stroke="#878787"/>
<g clip-path="url(#clip0_303_17213)">
<path fill-rule="evenodd" clip-rule="evenodd" d="M85.2136 73.5491H171.415V159.75H85.2136V73.5491Z" fill="white"/>
<path d="M138.135 121.876H110.273V134.989H137.466C139.049 134.959 140.566 134.352 141.733 133.283C142.318 132.674 142.774 131.953 143.075 131.164C143.376 130.374 143.514 129.533 143.482 128.689C143.532 127.007 143.032 125.354 142.06 123.981C141.622 123.341 141.037 122.816 140.354 122.45C139.671 122.084 138.91 121.887 138.135 121.876ZM139.087 106.004C140.296 105.222 140.823 103.515 140.823 101.283C140.879 100.513 140.782 99.7392 140.538 99.0069C140.294 98.2746 139.907 97.5979 139.4 97.0158C138.426 96.1883 137.194 95.7257 135.916 95.7074H110.316V107.512H135.319C136.702 107.416 138.02 106.889 139.087 106.004Z" fill="#808080"/>
<path d="M183.375 56.3119H74.2341C72.5957 56.293 71.0167 56.9247 69.8435 58.0685C68.6703 59.2124 67.9988 60.7749 67.9763 62.4133V171.355C67.9763 174.698 70.8208 176.774 74.0919 176.774H90.2199V198.534L110.245 176.902H183.39C184.13 176.966 184.875 176.866 185.572 176.61C186.269 176.354 186.902 175.947 187.424 175.419C187.947 174.891 188.347 174.255 188.596 173.555C188.845 172.855 188.937 172.109 188.865 171.37V62.5413C188.865 59.2275 186.718 56.4542 183.247 56.4542L183.375 56.3119ZM165.029 144.604C163.6 147.124 161.542 149.231 159.055 150.719C156.344 152.532 153.328 153.843 150.152 154.587C146.659 155.539 143.062 156.055 139.443 156.123H90.2199V78.4844H146.199C148.771 78.4224 151.314 79.0458 153.566 80.2906C155.635 81.4339 157.476 82.9476 158.999 84.7564C162.11 88.5438 163.783 93.3093 163.72 98.2106C163.672 101.862 162.693 105.44 160.876 108.607C159.02 111.916 156.133 114.528 152.655 116.045C156.801 117.1 160.512 119.428 163.265 122.701C165.921 126.515 167.241 131.101 167.02 135.743C167.105 138.828 166.385 141.882 164.929 144.604H165.029Z" fill="#808080"/>
</g>
<defs>
<clipPath id="clip0_303_17213">
<rect width="120.832" height="142.222" fill="white" transform="translate(67.9763 56.3118)"/>
</clipPath>
</defs>
</svg>
