<svg width="256" height="256" viewBox="0 0 256 256" fill="none" xmlns="http://www.w3.org/2000/svg">
<rect x="0.5" y="0.5" width="255" height="255" rx="31.5" fill="white"/>
<rect x="0.5" y="0.5" width="255" height="255" rx="31.5" stroke="#878787"/>
<g clip-path="url(#clip0_303_17225)">
<path d="M75.7204 187.37L71.3116 69.9652C71.2339 68.0976 71.8948 66.2746 73.1511 64.8905C74.4074 63.5065 76.1581 62.6727 78.0244 62.5696L177.864 56.3119C178.839 56.253 179.816 56.3929 180.735 56.7229C181.655 57.053 182.497 57.5663 183.212 58.2319C183.921 58.8958 184.491 59.6933 184.89 60.5785C185.275 61.4774 185.473 62.4451 185.473 63.423V191.423C185.477 192.401 185.278 193.369 184.89 194.267C184.506 195.154 183.95 195.957 183.255 196.628C182.547 197.282 181.715 197.787 180.809 198.114C179.903 198.442 178.94 198.584 177.978 198.534L82.5471 194.267C80.7519 194.197 79.0501 193.449 77.7837 192.174C76.5173 190.9 75.7801 189.194 75.7204 187.398V187.37Z" fill="#858585"/>
<path fill-rule="evenodd" clip-rule="evenodd" d="M170.014 56.8239L156.275 57.7341L155.607 73.8479C155.605 74.051 155.654 74.2514 155.749 74.431C155.85 74.6018 155.998 74.74 156.176 74.8292C156.354 74.9265 156.556 74.9709 156.759 74.9572C156.961 74.9442 157.155 74.8698 157.313 74.7439L163.571 69.9936L168.862 74.1607C169.024 74.2831 169.215 74.3614 169.416 74.3883C169.622 74.4083 169.83 74.3688 170.014 74.2745C170.197 74.1877 170.347 74.0427 170.44 73.8621C170.548 73.6923 170.603 73.4942 170.597 73.2932L170.014 56.8239ZM159.319 110.868C156.816 112.817 138.071 114.154 138.071 111.366C138.469 100.756 133.719 100.287 131.073 100.287C128.428 100.287 124.346 101.041 124.346 106.73C124.346 112.419 130.519 115.803 137.758 119.643C148.055 125.091 160.513 131.704 160.513 148.315C160.513 164.159 147.571 172.934 131.045 172.934C113.978 172.934 99.1302 166.051 100.808 142.171C101.477 139.327 123.123 140.038 123.123 142.171C122.853 152.027 125.1 154.971 130.775 154.971C135.141 154.971 137.118 152.568 137.118 148.529C137.118 142.399 130.689 138.787 123.28 134.634C113.324 129.016 101.477 122.388 101.477 107.199C101.477 92.0096 111.93 81.9119 130.547 81.9119C149.164 81.9119 159.319 91.8674 159.319 110.797V110.868Z" fill="white"/>
</g>
<defs>
<clipPath id="clip0_303_17225">
<rect width="114.162" height="142.222" fill="white" transform="translate(71.3115 56.3118)"/>
</clipPath>
</defs>
</svg>
