<svg width="256" height="256" viewBox="0 0 256 256" fill="none" xmlns="http://www.w3.org/2000/svg">
<rect x="0.5" y="0.5" width="255" height="255" rx="31.5" fill="white"/>
<rect x="0.5" y="0.5" width="255" height="255" rx="31.5" stroke="#878787"/>
<g clip-path="url(#clip0_303_17177)">
<path fill-rule="evenodd" clip-rule="evenodd" d="M150.025 114.986L195.393 111.942C198.451 111.942 200.627 114.986 198.878 117.176L167.034 160.795C166.147 161.491 165.093 161.942 163.977 162.104H92.4388C91.8947 162.042 91.3732 161.852 90.917 161.549C90.4642 161.241 90.0892 160.832 89.8219 160.354L57.9783 117.176C57.5751 116.663 57.3352 116.041 57.2897 115.39C57.2442 114.739 57.3953 114.09 57.7232 113.526C58.0512 112.962 58.541 112.509 59.1292 112.227C59.7173 111.944 60.3767 111.845 61.0219 111.942L106.405 114.986L125.548 94.0505C126.97 92.3011 129.957 92.3011 130.825 94.0505L150.025 114.559V114.986ZM159.681 155.121L129.957 144.226V155.121H159.681ZM126.529 155.121V144.226L96.805 155.121H126.473H126.529ZM123.031 142.036L92.837 152.945L71.0628 122.41L123.415 141.595L123.031 142.036ZM133.498 142.036L163.948 152.945L185.793 122.41L133.441 141.595L133.498 142.036ZM126.529 139.419V103.21L102.096 130.232L126.529 138.95V139.419ZM130.014 139.419V103.21L154.874 130.232L129.957 138.978L130.014 139.419ZM94.6148 127.643L100.304 121.528L72.3712 119.764L94.6148 127.643ZM161.801 127.643L156.112 121.528L183.617 119.764L161.801 127.643Z" fill="#5C5C5C"/>
</g>
<defs>
<clipPath id="clip0_303_17177">
<rect width="142.222" height="69.3618" fill="white" transform="translate(57.2814 92.742)"/>
</clipPath>
</defs>
</svg>
