<svg width="257" height="257" viewBox="0 0 257 257" fill="none" xmlns="http://www.w3.org/2000/svg">
<rect x="0.812988" y="1.2821" width="255" height="255" rx="31.5" fill="white"/>
<rect x="0.812988" y="1.2821" width="255" height="255" rx="31.5" stroke="#878787"/>
<g clip-path="url(#clip0_303_17128)">
<path d="M194.313 199.33H63.0984C61.636 199.323 60.2361 198.737 59.2047 197.7C58.1733 196.663 57.5943 195.26 57.5944 193.798V62.6122C57.6018 61.1547 58.1841 59.7591 59.2147 58.7285C60.2453 57.6979 61.6409 57.1156 63.0984 57.1082H194.313C195.77 57.1156 197.166 57.6979 198.196 58.7285C199.227 59.7591 199.809 61.1547 199.817 62.6122V193.826C199.809 195.284 199.227 196.679 198.196 197.71C197.166 198.741 195.77 199.323 194.313 199.33Z" fill="#4D4D4D"/>
<path d="M90.3766 100.045L164.801 76.4362C164.801 76.4362 170.092 73.6629 168.812 78.7829L168.997 101.538C168.997 101.538 169.921 104.881 165.342 105.72L135.105 115.163L90.3766 100.045Z" fill="#A8A8A8"/>
<path d="M90.3766 100.045C90.3766 100.045 87.4469 100.742 88.3144 105.734L88.158 127.665C88.158 127.665 87.902 130.509 93.15 131.547L166.906 155.298C166.906 155.298 169.381 156.28 169.097 153.222V128.774C169.097 128.774 169.808 126.257 165.214 124.607L135.106 115.163L90.3766 100.045Z" fill="#A8A8A8"/>
<path d="M122.874 141.105L91.5001 150.69C91.5001 150.69 87.7028 150.818 88.1579 157.915C88.613 165.012 88.1579 179.249 88.1579 179.249C88.1579 179.249 88.485 181.894 92.1116 180.372L166.494 156.664C166.494 156.664 169.125 155.995 166.906 155.242C164.688 154.488 122.817 141.019 122.817 141.019L122.874 141.105Z" fill="url(#paint0_linear_303_17128)"/>
</g>
<defs>
<linearGradient id="paint0_linear_303_17128" x1="92.4672" y1="166.292" x2="167.76" y2="140.251" gradientUnits="userSpaceOnUse">
<stop offset="0.23" stop-color="#A8A8A8"/>
<stop offset="1" stop-color="#848484"/>
</linearGradient>
<clipPath id="clip0_303_17128">
<rect width="142.222" height="142.194" fill="white" transform="translate(57.5944 57.1082)"/>
</clipPath>
</defs>
</svg>
