<svg width="257" height="257" viewBox="0 0 257 257" fill="none" xmlns="http://www.w3.org/2000/svg">
<rect x="0.776123" y="1.39111" width="255" height="255" rx="31.5" fill="white"/>
<rect x="0.776123" y="1.39111" width="255" height="255" rx="31.5" stroke="#878787"/>
<g clip-path="url(#clip0_303_17150)">
<path d="M179.365 76.0188C166.082 57.1175 139.984 51.5139 121.054 63.5317L87.9733 84.6375C81.2343 88.8708 75.9956 95.1144 72.9973 102.486C72.0074 104.926 71.2734 107.462 70.8071 110.053C70.4096 112.226 70.1955 114.428 70.1671 116.638C70.0784 123.294 71.6473 129.868 74.7324 135.766C74.0355 136.833 73.3813 137.942 72.784 139.08C72.1866 140.218 71.6604 141.384 71.1769 142.536C70.6962 143.727 70.2784 144.942 69.9253 146.177C69.584 147.414 69.2853 148.666 69.0578 149.918C68.1072 155.246 68.2329 160.71 69.4275 165.989C70.6151 171.251 72.8444 176.222 75.984 180.609C89.1964 199.51 115.365 205.114 134.167 193.096L167.305 172.076C169.528 170.665 171.601 169.03 173.492 167.197C175.391 165.375 177.088 163.353 178.555 161.167C181.513 156.795 183.528 151.855 184.471 146.661C185.267 142.311 185.325 137.859 184.642 133.491C184.315 131.303 183.801 129.148 183.106 127.048C182.411 124.954 181.55 122.918 180.532 120.961C181.228 119.894 181.954 118.785 182.48 117.647C183.081 116.493 183.617 115.306 184.087 114.092C184.568 112.901 184.986 111.686 185.339 110.451C185.694 109.214 185.993 107.962 186.22 106.71C186.686 104.058 186.891 101.367 186.832 98.6748C186.776 95.9842 186.447 93.3062 185.851 90.6819C184.678 85.4449 182.473 80.494 179.365 76.1184" fill="#717171"/>
<path d="M117.883 182.43C112.667 183.785 107.161 183.508 102.108 181.637C97.0547 179.765 92.6971 176.388 89.6231 171.962C88.6752 170.625 87.8651 169.196 87.2053 167.695C86.5499 166.222 86.0402 164.688 85.6836 163.116C84.9761 159.966 84.9132 156.705 85.4987 153.53C85.4987 153.274 85.584 153.018 85.6409 152.762C85.6978 152.506 85.7689 152.25 85.8258 151.994L86.0391 151.226C86.1102 150.97 86.1956 150.728 86.2809 150.472L86.9209 148.566L88.6133 149.832C89.5947 150.558 90.6044 151.254 91.6285 151.852C92.6525 152.449 93.7191 153.061 94.8142 153.601C95.9093 154.142 96.9902 154.625 98.1138 155.023C99.2373 155.422 100.375 155.862 101.541 156.204L102.807 156.574L102.693 157.854C102.634 158.716 102.726 159.582 102.964 160.414C103.079 160.829 103.231 161.234 103.419 161.622C103.605 162.017 103.829 162.394 104.087 162.746C104.546 163.404 105.103 163.989 105.737 164.481C106.372 164.979 107.083 165.372 107.842 165.647C108.599 165.929 109.396 166.092 110.203 166.131C110.98 166.183 111.761 166.12 112.521 165.946C112.705 165.902 112.886 165.845 113.061 165.775L113.573 165.576L114.071 165.334L114.555 165.064L147.664 143.958C148.07 143.701 148.451 143.406 148.802 143.077C149.136 142.739 149.441 142.372 149.712 141.982C149.981 141.583 150.21 141.159 150.395 140.716C150.566 140.255 150.695 139.778 150.779 139.294C150.864 138.825 150.902 138.348 150.892 137.871C150.88 137.392 150.818 136.916 150.708 136.449C150.609 135.958 150.452 135.48 150.238 135.027C150.041 134.585 149.798 134.166 149.513 133.775C149.053 133.109 148.491 132.519 147.849 132.026C146.57 131.031 145.016 130.454 143.397 130.376C142.589 130.335 141.778 130.417 140.994 130.618C140.814 130.662 140.639 130.719 140.468 130.789L139.956 130.988L139.444 131.23L138.96 131.514L126.26 139.578C125.748 139.905 125.207 140.218 124.667 140.502C124.126 140.787 123.572 141.057 123.017 141.299C122.462 141.541 121.879 141.782 121.296 141.982C120.713 142.181 120.13 142.366 119.547 142.522C116.957 143.19 114.281 143.459 111.611 143.318C108.936 143.19 106.297 142.648 103.788 141.711C101.303 140.777 98.9724 139.473 96.8765 137.843C94.7685 136.198 92.9182 134.247 91.3867 132.054C90.451 130.712 89.6461 129.284 88.9831 127.788C86.9911 123.328 86.3913 118.371 87.2622 113.566C87.8168 110.432 89.0222 107.45 90.8007 104.812C92.5792 102.174 94.8913 99.9376 97.5876 98.2482L130.725 77.1993C131.237 76.8722 131.764 76.5593 132.304 76.2749C132.844 75.9904 133.399 75.7202 133.954 75.4784C134.508 75.2367 135.077 75.0091 135.66 74.7958C136.244 74.5824 136.812 74.4118 137.41 74.2553C142.62 72.9034 148.12 73.1814 153.168 75.0518C158.223 76.9277 162.581 80.308 165.655 84.7371C166.598 86.0495 167.403 87.4554 168.059 88.9327C168.725 90.4079 169.24 91.9471 169.595 93.5264C170.315 96.6882 170.393 99.9626 169.822 103.155L169.652 103.937C169.652 104.193 169.538 104.449 169.467 104.705C169.396 104.961 169.339 105.231 169.268 105.473C169.196 105.715 169.111 105.985 169.026 106.241L168.4 108.147L166.708 106.881C165.726 106.156 164.716 105.459 163.678 104.847C162.64 104.236 161.588 103.624 160.492 103.084C158.328 102.004 156.078 101.105 153.765 100.396L152.485 100.026L152.599 98.7602C152.642 98.3251 152.642 97.8869 152.599 97.4518C152.558 97.0197 152.482 96.5916 152.372 96.1718C152.247 95.7544 152.095 95.3458 151.916 94.9487C151.727 94.5555 151.503 94.1796 151.248 93.8251C150.788 93.1756 150.232 92.6001 149.598 92.1184C148.961 91.638 148.257 91.2546 147.508 90.9807C145.997 90.4283 144.354 90.3538 142.8 90.7673C142.615 90.8091 142.435 90.8662 142.26 90.938L141.748 91.1371L141.236 91.3789L140.752 91.6633L107.6 112.67C107.192 112.924 106.815 113.224 106.476 113.566C106.131 113.897 105.821 114.264 105.552 114.661C105.29 115.056 105.066 115.475 104.884 115.912C104.698 116.37 104.565 116.847 104.485 117.334C104.407 117.804 104.369 118.28 104.372 118.757C104.403 119.738 104.625 120.705 105.026 121.601C105.226 122.046 105.469 122.47 105.751 122.867C106.211 123.521 106.767 124.101 107.401 124.588C108.031 125.085 108.737 125.479 109.492 125.754C110.997 126.321 112.641 126.41 114.199 126.01L114.74 125.854L115.252 125.64C115.424 125.574 115.591 125.493 115.749 125.398L116.233 125.128L128.948 117.078C129.46 116.735 129.992 116.422 130.54 116.14C131.081 115.841 131.636 115.571 132.19 115.329C132.745 115.087 133.328 114.86 133.911 114.661C134.494 114.462 135.077 114.277 135.675 114.106C139.573 113.093 143.651 112.988 147.597 113.8C151.542 114.611 155.248 116.316 158.43 118.785C160.545 120.423 162.396 122.375 163.92 124.574C164.863 125.914 165.672 127.343 166.338 128.84C167.658 131.813 168.378 135.018 168.457 138.27C168.498 139.89 168.374 141.51 168.087 143.105C167.803 144.663 167.36 146.188 166.764 147.656C166.181 149.154 165.437 150.585 164.546 151.923C162.761 154.557 160.452 156.794 157.762 158.494L124.61 179.514C124.084 179.841 123.557 180.154 123.017 180.453C122.476 180.751 121.922 181.007 121.353 181.249C120.791 181.506 120.217 181.734 119.632 181.932C119.063 182.131 118.466 182.316 117.883 182.472" fill="white"/>
</g>
<defs>
<clipPath id="clip0_303_17150">
<rect width="118.414" height="142.222" fill="white" transform="translate(68.432 57.2029)"/>
</clipPath>
</defs>
</svg>
