<svg width="257" height="257" viewBox="0 0 257 257" fill="none" xmlns="http://www.w3.org/2000/svg">
<rect x="0.984985" y="1.09424" width="255" height="255" rx="31.5" fill="white"/>
<rect x="0.984985" y="1.09424" width="255" height="255" rx="31.5" stroke="#878787"/>
<g clip-path="url(#clip0_303_17126)">
<path d="M88.3387 56.9059H167.087C170.889 56.892 174.666 57.5319 178.252 58.7975C183.54 60.7404 188.213 64.0619 191.786 68.418C195.36 72.774 197.704 78.0062 198.575 83.5726C198.866 85.6167 198.994 87.6806 198.959 89.745V166.545C199.005 169.006 198.8 171.465 198.348 173.884C197.234 179.4 194.664 184.518 190.905 188.707C187.147 192.896 182.336 196.003 176.972 197.706C173.745 198.684 170.388 199.164 167.016 199.128C165.508 199.128 88.0969 199.128 86.9307 199.128C81.2219 198.83 75.7014 196.987 70.9591 193.795C66.3253 190.66 62.5897 186.371 60.1218 181.35C58.0289 177.038 56.949 172.305 56.9645 167.512V88.5219C56.8393 83.8145 57.8491 79.1461 59.9085 74.9112C62.2984 69.8629 65.9962 65.5464 70.6178 62.4099C75.3457 59.1701 80.8792 57.3043 86.6036 57.0197C87.1769 56.9261 87.758 56.888 88.3387 56.9059Z" fill="url(#paint0_linear_303_17126)"/>
<path d="M176.687 173.244C176.187 172.447 175.631 171.686 175.023 170.968C173.633 169.334 172.025 167.898 170.244 166.702C168.031 165.171 165.437 164.285 162.749 164.142C160.858 164.047 158.968 164.352 157.203 165.038C155.418 165.67 153.686 166.445 152.026 167.356C150.077 168.351 148.129 169.347 146.081 170.2C143.618 171.2 141.072 171.98 138.472 172.533C135.211 173.117 131.9 173.379 128.588 173.315C122.651 173.219 116.754 172.334 111.052 170.684C106.084 169.193 101.311 167.121 96.8294 164.511C92.9129 162.25 89.2137 159.631 85.7787 156.689C82.9781 154.258 80.3457 151.64 77.8996 148.853C76.2356 146.904 74.6142 144.856 73.1209 142.737C72.5135 141.904 71.9578 141.035 71.4569 140.134L56.7369 124.234V88.4082C56.7313 84.2757 57.5399 80.1826 59.1166 76.3626C60.6933 72.5427 63.0072 69.0709 65.926 66.1454C68.8449 63.22 72.3115 60.8983 76.1278 59.313C79.9442 57.7276 84.0355 56.9097 88.168 56.906L116.214 56.906L136.979 78.0118C183.855 109.912 168.694 145.084 168.694 145.084C168.694 145.084 182.02 160.088 176.687 173.258V173.244Z" fill="url(#paint1_linear_303_17126)"/>
<path d="M137.092 78.0117C183.969 109.912 168.808 145.084 168.808 145.084C168.808 145.084 182.134 160.145 176.744 173.315C176.744 173.315 171.254 164.085 162.024 164.085C153.149 164.085 147.93 173.315 130.038 173.315C90.216 173.315 71.4 140.035 71.4 140.035C107.268 163.573 131.759 146.904 131.759 146.904C115.603 137.517 81.2275 92.6322 81.2275 92.6322C111.165 118.133 124.093 124.845 124.093 124.845C116.385 118.46 94.7244 87.2419 94.7244 87.2419C112.047 104.792 146.479 129.297 146.479 129.297C156.292 102.189 137.092 78.0117 137.092 78.0117Z" fill="white"/>
</g>
<defs>
<linearGradient id="paint0_linear_303_17126" x1="141.359" y1="51.8286" x2="114.493" y2="204.177" gradientUnits="userSpaceOnUse">
<stop stop-color="#B9B9B9"/>
<stop offset="1" stop-color="#727272"/>
</linearGradient>
<linearGradient id="paint1_linear_303_17126" x1="129.284" y1="59.21" x2="109.601" y2="170.769" gradientUnits="userSpaceOnUse">
<stop stop-color="#A8A8A8"/>
<stop offset="1" stop-color="#656565"/>
</linearGradient>
<clipPath id="clip0_303_17126">
<rect width="142.222" height="142.222" fill="white" transform="translate(56.7369 56.906)"/>
</clipPath>
</defs>
</svg>
