<svg width="257" height="257" viewBox="0 0 257 257" fill="none" xmlns="http://www.w3.org/2000/svg">
<rect x="1.32837" y="0.985107" width="255" height="255" rx="31.5" fill="white"/>
<rect x="1.32837" y="0.985107" width="255" height="255" rx="31.5" stroke="#878787"/>
<g clip-path="url(#clip0_303_17191)">
<path d="M128.977 85.2556C110.014 85.2556 98.162 94.7371 93.4213 113.7C100.532 104.219 108.829 100.668 118.31 103.048C123.715 104.399 127.583 108.324 131.864 112.662C138.833 119.716 146.911 127.922 164.532 127.922C183.495 127.922 195.347 118.441 200.088 99.4778C192.977 108.959 184.681 112.515 175.199 110.145C169.795 108.722 165.926 104.868 161.645 100.516C154.676 93.4476 146.598 85.2556 128.977 85.2556ZM93.4213 127.922C74.4583 127.922 62.6065 137.404 57.8657 156.367C64.9768 146.885 73.2731 143.33 82.7546 145.7C88.1591 147.051 92.0275 150.976 96.3084 155.314C103.277 162.383 111.356 170.589 128.977 170.589C147.94 170.589 159.792 161.107 164.532 142.145C157.421 151.626 149.125 155.182 139.644 152.811C134.239 151.389 130.371 147.535 126.09 143.183C119.121 136.1 111.043 127.922 93.4213 127.922Z" fill="#848484"/>
</g>
<defs>
<clipPath id="clip0_303_17191">
<rect width="142.222" height="85.3049" fill="white" transform="translate(57.8657 85.2556)"/>
</clipPath>
</defs>
</svg>
