<svg width="256" height="256" viewBox="0 0 256 256" fill="none" xmlns="http://www.w3.org/2000/svg">
<rect x="0.5" y="0.5" width="255" height="255" rx="31.5" fill="white"/>
<rect x="0.5" y="0.5" width="255" height="255" rx="31.5" stroke="#878787"/>
<g clip-path="url(#clip0_303_17145)">
<path d="M157.833 56.3118H98.9525C87.9007 56.3118 77.3015 60.7022 69.4866 68.517C61.6718 76.3319 57.2814 86.9311 57.2814 97.9829L57.2814 156.863C57.2814 167.915 61.6718 178.514 69.4866 186.329C77.3015 194.144 87.9007 198.534 98.9525 198.534H157.833C168.884 198.534 179.484 194.144 187.298 186.329C195.113 178.514 199.504 167.915 199.504 156.863V97.9829C199.504 86.9311 195.113 76.3319 187.298 68.517C179.484 60.7022 168.884 56.3118 157.833 56.3118Z" fill="#7A7A7A"/>
<path fill-rule="evenodd" clip-rule="evenodd" d="M128.236 77.1474L147.977 88.5252V94.783L171.884 108.593V132.202L178.284 135.956V158.712L158.558 170.09L149.797 165.027L128.464 177.329L107.287 165.098L98.6966 170.09L78.9561 158.712V135.956L85.1286 132.401V108.607L108.481 95.0958V88.5394L128.236 77.1474ZM147.977 100.728V111.323L128.25 122.701L108.481 111.323V101.012L90.2486 111.565V129.386L98.6966 124.579L118.437 135.956V158.712L112.464 162.168L128.521 171.427L144.691 162.097L138.832 158.712V135.956L158.558 124.579L166.793 129.243V111.565L147.977 100.728ZM143.952 155.754V141.844L155.998 148.756V162.694L143.952 155.754ZM173.164 141.83L161.104 148.756V162.694L173.15 155.725L173.164 141.83ZM84.0903 155.725V141.83L96.1366 148.756V162.666L84.0903 155.725ZM113.303 141.83L101.257 148.756V162.666L113.303 155.711V141.83ZM146.526 137.379L158.558 130.424L170.604 137.379L158.558 144.333L146.526 137.379ZM98.6966 130.41L86.6503 137.379L98.6966 144.305L110.729 137.379L98.6966 130.41ZM113.644 108.351V94.4558L125.676 101.411V115.306L113.644 108.351ZM142.842 94.4558L130.81 101.411V115.306L142.842 108.351V94.4558ZM116.218 90.0185L128.236 83.0638L140.282 90.0185L128.236 96.959L116.218 90.0185Z" fill="white"/>
</g>
<defs>
<clipPath id="clip0_303_17145">
<rect width="142.222" height="142.222" fill="white" transform="translate(57.2814 56.3118)"/>
</clipPath>
</defs>
</svg>
