<svg width="257" height="257" viewBox="0 0 257 257" fill="none" xmlns="http://www.w3.org/2000/svg">
<rect x="0.880615" y="0.985107" width="255" height="255" rx="31.5" fill="white"/>
<rect x="0.880615" y="0.985107" width="255" height="255" rx="31.5" stroke="#878787"/>
<g clip-path="url(#clip0_303_17190)">
<path d="M56.7811 56.7969H156.781V156.797H56.7811V56.7969Z" fill="#5F5F5F"/>
<path d="M104.781 93.7968H109.571V102.077H96.5711V138.957L96.2311 139.047C95.7611 139.167 89.5911 139.167 88.2311 139.047L87.1711 138.957V102.107H74.1711V93.7968H78.3911C80.6411 93.7968 86.3911 93.7968 91.2311 93.7968C96.0711 93.7968 102.141 93.7968 104.781 93.7968ZM141.411 135.047C139.422 137.109 136.857 138.524 134.051 139.107C132.561 139.517 132.311 139.527 128.971 139.517C125.631 139.507 125.361 139.517 123.731 139.077C119.833 138.188 116.346 136.015 113.831 132.907C113.149 132.037 112.566 131.095 112.091 130.097C112.091 130.027 112.251 129.887 112.451 129.797C112.651 129.707 113.081 129.437 113.451 129.237C113.821 129.037 114.451 128.657 114.841 128.437C115.231 128.217 116.481 127.497 117.541 126.857C118.227 126.418 118.946 126.033 119.691 125.707C119.791 125.707 120.001 125.917 120.151 126.187C121.311 127.979 122.904 129.451 124.781 130.467C126.087 130.955 127.459 131.244 128.851 131.327C130.083 131.253 131.293 130.972 132.431 130.497C133.306 130.14 134.037 129.504 134.511 128.687C134.921 128.047 134.961 127.877 134.951 126.687C135.061 125.996 134.927 125.289 134.571 124.687C133.701 123.247 132.511 122.497 127.701 120.367C122.701 118.167 120.491 116.857 118.701 115.087C117.656 114.18 116.82 113.058 116.251 111.797C115.161 109.687 115.011 108.997 115.001 105.857C114.896 104.627 114.983 103.389 115.261 102.187C115.709 100.827 116.341 99.5345 117.141 98.3468C117.751 97.5721 118.441 96.8648 119.201 96.2368C121.69 94.3677 124.699 93.3192 127.811 93.2368C128.171 93.2368 129.361 93.2968 130.471 93.3768C133.182 93.4629 135.793 94.4162 137.921 96.0968C139.501 97.3468 141.921 100.287 141.661 100.677C141.501 100.907 135.261 105.067 134.861 105.187C134.611 105.267 134.441 105.187 134.091 104.767C131.971 102.227 131.091 101.677 129.091 101.547C127.956 101.374 126.798 101.639 125.851 102.287C125.339 102.638 124.928 103.117 124.659 103.677C124.39 104.237 124.274 104.858 124.321 105.477C124.321 107.597 125.151 108.597 128.151 110.087C130.091 111.037 131.741 111.817 131.871 111.817C132.001 111.817 136.071 113.817 137.121 114.437C141.991 117.297 143.981 120.237 144.491 125.297C144.728 127.045 144.582 128.825 144.064 130.511C143.547 132.198 142.669 133.752 141.491 135.067L141.411 135.047Z" fill="white"/>
</g>
<defs>
<clipPath id="clip0_303_17190">
<rect width="100" height="100" fill="white" transform="translate(56.7811 56.7969)"/>
</clipPath>
</defs>
</svg>
