<svg width="257" height="257" viewBox="0 0 257 257" fill="none" xmlns="http://www.w3.org/2000/svg">
<rect x="0.641602" y="0.688232" width="255" height="255" rx="31.5" fill="white"/>
<rect x="0.641602" y="0.688232" width="255" height="255" rx="31.5" stroke="#878787"/>
<g clip-path="url(#clip0_303_17194)">
<path d="M51.887 99.5225C53.811 99.5225 55.6918 98.9521 57.2916 97.8834C58.8915 96.8147 60.1386 95.2957 60.8754 93.5183C61.6121 91.741 61.8054 89.7851 61.4308 87.898C61.0561 86.0108 60.1304 84.2771 58.7707 82.9159C57.4109 81.5547 55.6781 80.6272 53.7913 80.2507C51.9046 79.8741 49.9485 80.0654 48.1704 80.8003C46.3923 81.5352 44.872 82.7808 43.8016 84.3795C42.7313 85.9783 42.159 87.8585 42.157 89.7825C42.1557 91.0611 42.4064 92.3274 42.8948 93.5091C43.3832 94.6907 44.0997 95.7645 45.0033 96.6691C45.9069 97.5737 46.98 98.2913 48.1612 98.7809C49.3423 99.2705 50.6084 99.5225 51.887 99.5225Z" fill="#888888"/>
<path d="M121.637 139.783C123.562 139.784 125.444 139.216 127.045 138.148C128.647 137.08 129.895 135.561 130.633 133.783C131.371 132.005 131.566 130.049 131.191 128.16C130.817 126.272 129.891 124.538 128.531 123.176C127.17 121.814 125.437 120.886 123.549 120.51C121.661 120.134 119.704 120.326 117.926 121.062C116.147 121.798 114.627 123.045 113.557 124.646C112.488 126.246 111.917 128.128 111.917 130.053C111.917 132.631 112.941 135.105 114.763 136.929C116.586 138.754 119.058 139.78 121.637 139.783Z" fill="#BABABA"/>
<path d="M121.637 59.2425C123.561 59.2425 125.443 58.6718 127.043 57.6027C128.643 56.5335 129.89 55.0139 130.626 53.236C131.363 51.4581 131.555 49.5017 131.18 47.6142C130.805 45.7268 129.878 43.9931 128.517 42.6323C127.156 41.2716 125.423 40.3449 123.535 39.9694C121.648 39.594 119.691 39.7867 117.913 40.5231C116.136 41.2596 114.616 42.5067 113.547 44.1068C112.478 45.7069 111.907 47.5881 111.907 49.5125C111.907 52.093 112.932 54.5679 114.757 56.3926C116.582 58.2174 119.056 59.2425 121.637 59.2425Z" fill="#3F3F3F"/>
<path d="M98.3869 65.7225C104.177 65.7298 109.77 67.8203 114.146 71.6118C118.521 75.4034 121.386 80.6428 122.217 86.3725H138.887C138.138 77.2217 134.289 68.6002 127.977 61.9325C125.902 62.9784 123.6 63.4915 121.278 63.4257C118.955 63.3598 116.686 62.7171 114.674 61.5553C112.662 60.3936 110.971 58.7494 109.753 56.771C108.535 54.7925 107.828 52.5421 107.697 50.2225C104.645 49.5122 101.521 49.1532 98.3869 49.1525C92.4078 49.1424 86.5003 50.4536 81.0869 52.9925L89.4269 67.4525C92.286 66.2965 95.343 65.7089 98.4269 65.7225H98.3869Z" fill="#888888"/>
<path d="M74.317 89.7825C74.3141 86.1364 75.1421 82.5376 76.7379 79.2593C78.3337 75.981 80.6555 73.1094 83.527 70.8625L75.157 56.4125C73.1817 57.7988 71.3284 59.3511 69.617 61.0525C64.8638 65.7869 61.3621 71.6288 59.427 78.0525C61.3836 79.3174 62.9922 81.0522 64.106 83.0986C65.2197 85.1449 65.8033 87.4376 65.8033 89.7675C65.8033 92.0973 65.2197 94.39 64.106 96.4364C62.9922 98.4828 61.3836 100.218 59.427 101.482C61.3621 107.906 64.8638 113.748 69.617 118.482C71.3234 120.201 73.1771 121.767 75.157 123.162L83.497 108.712C80.6325 106.459 78.3176 103.584 76.7273 100.305C75.1369 97.0251 74.3128 93.4272 74.317 89.7825Z" fill="#BABABA"/>
<path d="M122.217 93.1925C121.702 96.8032 120.373 100.25 118.33 103.271C116.288 106.293 113.586 108.811 110.427 110.636C107.269 112.46 103.738 113.543 100.099 113.802C96.4614 114.061 92.812 113.49 89.4269 112.133L81.0769 126.583C86.4919 129.128 92.4034 130.443 98.3869 130.433C101.524 130.431 104.651 130.073 107.707 129.363C107.823 127.036 108.519 124.775 109.733 122.787C110.946 120.798 112.639 119.146 114.655 117.979C116.672 116.813 118.948 116.17 121.277 116.11C123.606 116.049 125.912 116.573 127.987 117.633C134.293 110.963 138.135 102.341 138.877 93.1925H122.217Z" fill="#3F3F3F"/>
</g>
<defs>
<clipPath id="clip0_303_17194">
<rect width="96.73" height="100" fill="white" transform="translate(42.157 39.7825)"/>
</clipPath>
</defs>
</svg>
