<svg width="256" height="256" viewBox="0 0 256 256" fill="none" xmlns="http://www.w3.org/2000/svg">
<rect x="0.5" y="0.5" width="255" height="255" rx="31.5" fill="white"/>
<rect x="0.5" y="0.5" width="255" height="255" rx="31.5" stroke="#878787"/>
<g clip-path="url(#clip0_303_17143)">
<path d="M164.014 101.885L130.015 151.036C129.633 151.565 129.088 151.953 128.462 152.138C127.863 152.341 127.214 152.341 126.615 152.138C126.017 151.935 125.501 151.544 125.143 151.024C124.785 150.504 124.604 149.882 124.628 149.251L125.994 122.098L104.026 117.441C103.556 117.346 103.117 117.132 102.753 116.82C102.384 116.511 102.096 116.117 101.915 115.671C101.747 115.225 101.683 114.747 101.729 114.273C101.791 113.801 101.961 113.35 102.226 112.954L136.302 63.8025C136.665 63.2831 137.186 62.895 137.788 62.6963C138.39 62.4976 139.039 62.499 139.64 62.7003C140.25 62.9024 140.775 63.3023 141.132 63.8366C141.49 64.3709 141.658 65.009 141.612 65.65L140.261 92.8028L162.229 97.4602C162.705 97.5404 163.153 97.7388 163.533 98.0371C163.913 98.3354 164.212 98.7242 164.402 99.1679C164.588 99.6086 164.653 100.091 164.588 100.565C164.518 101.048 164.319 101.504 164.014 101.885Z" fill="#C6C6C6"/>
<path d="M128.416 192.301C127.51 192.298 126.614 192.119 125.777 191.773C124.934 191.411 124.174 190.883 123.541 190.221L91.4359 158.146C90.1451 156.856 89.4199 155.105 89.4199 153.279C89.4199 151.454 90.1451 149.703 91.4359 148.412C92.7267 147.122 94.4774 146.396 96.3029 146.396C98.1284 146.396 99.8791 147.122 101.17 148.412L128.416 175.674L187.798 116.292C188.762 115.341 189.986 114.696 191.315 114.438C192.644 114.18 194.02 114.32 195.27 114.84C196.52 115.361 197.589 116.239 198.342 117.364C199.095 118.49 199.499 119.812 199.504 121.166C199.51 122.066 199.34 122.959 199.002 123.792C198.663 124.626 198.164 125.385 197.532 126.026L133.353 190.283C132.72 190.946 131.959 191.474 131.117 191.835C130.257 192.17 129.338 192.328 128.416 192.301Z" fill="#818181"/>
<path d="M128.385 192.301C129.29 192.297 130.187 192.118 131.024 191.773C131.859 191.408 132.614 190.88 133.244 190.221L165.38 158.084C166.671 156.794 167.396 155.043 167.396 153.217C167.396 151.392 166.671 149.641 165.38 148.35C164.089 147.06 162.339 146.334 160.513 146.334C158.688 146.334 156.937 147.06 155.646 148.35L128.385 175.674L68.9871 116.292C67.6967 115.018 65.9564 114.304 64.1434 114.305C62.3279 114.322 60.5906 115.046 59.2996 116.323C58.0207 117.614 57.3032 119.357 57.3032 121.174C57.3032 122.991 58.0207 124.735 59.2996 126.026L123.51 190.283C124.143 190.946 124.903 191.474 125.746 191.835C126.587 192.159 127.483 192.317 128.385 192.301Z" fill="#818181" fill-opacity="0.5"/>
</g>
<defs>
<clipPath id="clip0_303_17143">
<rect width="142.222" height="129.756" fill="white" transform="translate(57.2814 62.545)"/>
</clipPath>
</defs>
</svg>
