<svg width="256" height="257" viewBox="0 0 256 257" fill="none" xmlns="http://www.w3.org/2000/svg">
<rect x="0.5" y="1.39111" width="255" height="255" rx="31.5" fill="white"/>
<rect x="0.5" y="1.39111" width="255" height="255" rx="31.5" stroke="#878787"/>
<g clip-path="url(#clip0_303_17161)">
<path d="M197.747 78.2518L132.154 197.562C131.851 198.12 131.404 198.586 130.858 198.911C130.312 199.236 129.689 199.408 129.054 199.408C128.419 199.408 127.795 199.236 127.25 198.911C126.704 198.586 126.256 198.12 125.953 197.562L59.1089 78.2376C58.7523 77.6436 58.5747 76.9592 58.5975 76.2668C58.6204 75.5743 58.8426 74.9032 59.2376 74.3339C59.6326 73.7647 60.1835 73.3217 60.8242 73.0579C61.4649 72.7942 62.1681 72.7211 62.8494 72.8473L128.513 84.7798C128.932 84.8509 129.36 84.8509 129.779 84.7798L194.064 72.8616C194.736 72.7469 195.428 72.8252 196.058 73.0874C196.688 73.3496 197.231 73.785 197.624 74.3431C198.017 74.9013 198.244 75.5593 198.278 76.241C198.313 76.9227 198.153 77.6001 197.818 78.1949L197.747 78.2518Z" fill="url(#paint0_linear_303_17161)"/>
<path d="M159.717 57.2029L111.205 66.9167C110.817 66.9929 110.466 67.1985 110.209 67.4998C109.956 67.8059 109.807 68.1844 109.783 68.5807L106.796 119.88C106.785 120.162 106.834 120.443 106.938 120.705C107.051 120.96 107.219 121.187 107.431 121.369C107.643 121.552 107.892 121.684 108.161 121.758C108.432 121.829 108.716 121.829 108.986 121.758L122.497 118.586C122.791 118.523 123.096 118.534 123.385 118.619C123.673 118.703 123.936 118.859 124.149 119.071C124.363 119.282 124.52 119.544 124.606 119.832C124.693 120.12 124.706 120.425 124.645 120.719L120.592 140.716C120.524 141.021 120.537 141.338 120.63 141.636C120.723 141.934 120.892 142.202 121.12 142.415C121.349 142.628 121.629 142.777 121.933 142.848C122.237 142.919 122.554 142.91 122.853 142.821L131.201 140.232C131.5 140.143 131.818 140.134 132.122 140.205C132.426 140.276 132.706 140.425 132.934 140.638C133.162 140.851 133.331 141.119 133.424 141.417C133.517 141.715 133.53 142.032 133.463 142.337L127.077 173.825C126.936 174.246 126.958 174.704 127.138 175.109C127.318 175.515 127.643 175.838 128.049 176.016C128.455 176.195 128.913 176.214 129.333 176.072C129.754 175.93 130.105 175.636 130.32 175.247L131.031 174.124L170.583 93.6829C170.738 93.3848 170.806 93.049 170.779 92.714C170.753 92.3789 170.632 92.0581 170.432 91.7882C170.232 91.5183 169.96 91.3101 169.647 91.1874C169.334 91.0647 168.993 91.0325 168.663 91.0945L154.739 93.8252C154.436 93.8789 154.124 93.8544 153.834 93.7539C153.543 93.6534 153.282 93.4802 153.077 93.2509C152.872 93.0215 152.729 92.7435 152.661 92.4433C152.594 92.143 152.604 91.8305 152.691 91.5354L161.779 59.5212C161.873 59.2229 161.889 58.9054 161.823 58.5995C161.758 58.2937 161.614 58.01 161.406 57.7764C161.199 57.5427 160.934 57.367 160.637 57.2665C160.341 57.166 160.024 57.1441 159.717 57.2029Z" fill="url(#paint1_linear_303_17161)"/>
</g>
<defs>
<linearGradient id="paint0_linear_303_17161" x1="98.5756" y1="51.6989" x2="170.896" y2="148.239" gradientUnits="userSpaceOnUse">
<stop stop-color="#ABABAB"/>
<stop offset="1" stop-color="#737373"/>
</linearGradient>
<linearGradient id="paint1_linear_303_17161" x1="131.912" y1="60.2465" x2="146.974" y2="161.722" gradientUnits="userSpaceOnUse">
<stop stop-color="#E5E5E5"/>
<stop offset="0.08" stop-color="#D5D5D5"/>
<stop offset="1" stop-color="#B0B0B0"/>
</linearGradient>
<clipPath id="clip0_303_17161">
<rect width="139.62" height="142.222" fill="white" transform="translate(58.5828 57.2029)"/>
</clipPath>
</defs>
</svg>
