<svg width="257" height="257" viewBox="0 0 257 257" fill="none" xmlns="http://www.w3.org/2000/svg">
<rect x="1.15673" y="0.797119" width="255" height="255" rx="31.5" fill="white"/>
<rect x="1.15673" y="0.797119" width="255" height="255" rx="31.5" stroke="#878787"/>
<g clip-path="url(#clip0_303_17218)">
<path d="M58.8722 107.436C58.8722 107.436 55.4162 104.933 59.5691 101.605L69.2544 92.9436C69.9708 92.1583 70.9636 91.6811 72.0243 91.6122C73.0851 91.5432 74.1313 91.8879 74.9433 92.5739L164.259 160.229V192.684C164.259 192.684 164.259 197.776 157.674 197.207L58.8722 107.436Z" fill="#727272"/>
<path d="M81.8411 128.343L58.8722 149.292C58.8722 149.292 56.5113 151.056 58.8722 154.199L69.5673 163.927C69.5673 163.927 72.1131 166.657 75.8677 163.557L100.287 145.068L81.8411 128.343Z" fill="#5B5B5B"/>
<path d="M122.275 128.528L164.529 96.2575L164.259 64.0584C164.259 64.0584 162.453 56.9472 156.437 60.6166L100.216 111.817L122.275 128.528Z" fill="#5D5D5D"/>
<path d="M157.674 197.249C158.356 197.973 159.212 198.509 160.162 198.805C161.111 199.102 162.12 199.149 163.093 198.942L196.017 182.714C200.284 179.87 199.644 176.286 199.644 176.286V79.4041C199.644 75.1374 195.292 73.7152 195.292 73.7152L166.748 59.9196C160.518 56.0654 156.437 60.6165 156.437 60.6165C156.437 60.6165 161.685 56.8334 164.259 64.0583V192.058C164.258 192.934 164.064 193.798 163.69 194.59C162.936 196.097 161.315 197.52 157.404 196.922L157.674 197.249Z" fill="#848484"/>
</g>
<defs>
<clipPath id="clip0_303_17218">
<rect width="142.222" height="140.7" fill="white" transform="translate(57.45 58.3694)"/>
</clipPath>
</defs>
</svg>
