<svg width="256" height="257" viewBox="0 0 256 257" fill="none" xmlns="http://www.w3.org/2000/svg">
<rect x="0.5" y="0.797119" width="255" height="255" rx="31.5" fill="white"/>
<rect x="0.5" y="0.797119" width="255" height="255" rx="31.5" stroke="#878787"/>
<g clip-path="url(#clip0_303_17231)">
<path d="M128.393 57.6086L65.5447 93.1642V164.275L128.393 199.831L191.241 164.275V93.1642L128.393 57.6086Z" fill="white"/>
<path d="M76.766 161.815L126.316 189.875V168.016L95.4113 151.034L76.766 161.815ZM73.3811 158.757V100.133L91.5144 110.601V148.275L73.3811 158.757ZM180.218 161.815L130.668 189.875V168.016L161.545 151.034L180.218 161.815ZM183.589 158.757V100.133L165.484 110.601V148.275L183.589 158.757ZM181.498 96.3358L130.668 67.5642V88.6984L163.223 106.604L163.479 106.746L181.498 96.3358ZM75.5002 96.3358L126.316 67.5642V88.6984L93.7615 106.604L93.5198 106.746L75.5002 96.3358Z" fill="#C4C4C4"/>
<path d="M130.668 163.052L161.132 146.313V113.075L130.668 130.711V163.052ZM126.316 163.052L95.8665 146.313V113.075L126.316 130.711V163.052ZM159.027 109.278L128.492 92.4673L97.9145 109.278L128.492 126.942L159.07 109.278" fill="#646464"/>
</g>
<defs>
<clipPath id="clip0_303_17231">
<rect width="125.696" height="142.222" fill="white" transform="translate(65.5447 57.6086)"/>
</clipPath>
</defs>
</svg>
