<svg width="257" height="257" viewBox="0 0 257 257" fill="none" xmlns="http://www.w3.org/2000/svg">
<rect x="0.708862" y="0.985107" width="255" height="255" rx="31.5" fill="white"/>
<rect x="0.708862" y="0.985107" width="255" height="255" rx="31.5" stroke="#878787"/>
<g clip-path="url(#clip0_303_17181)">
<path d="M67.6023 127.908C67.5977 139.363 70.8197 150.589 76.8992 160.298C82.9787 170.007 91.6699 177.807 101.977 182.806L72.8787 103.076C69.3893 110.889 67.5912 119.351 67.6023 127.908ZM169.846 124.822C169.744 118.85 167.98 113.024 164.754 107.997C161.668 102.976 158.767 98.7239 158.767 93.7746C158.694 90.9814 159.73 88.273 161.65 86.242C163.569 84.2111 166.214 83.0228 169.007 82.9373C169.277 82.9373 169.533 82.9373 169.803 82.9373C163.29 76.9713 155.558 72.4911 147.143 69.8064C138.728 67.1216 129.83 66.2965 121.065 67.3879C112.3 68.4793 103.877 71.4613 96.3769 76.1276C88.8773 80.794 82.4806 87.0335 77.629 94.4146C79.0512 94.4146 80.4734 94.4146 81.5543 94.4146C87.9401 94.4146 97.8103 93.6466 97.8103 93.6466C98.476 93.5938 99.1355 93.8076 99.6436 94.241C100.152 94.6745 100.467 95.292 100.52 95.9577C100.572 96.6235 100.359 97.2829 99.9252 97.791C99.4918 98.2991 98.8743 98.6142 98.2085 98.667C98.2085 98.667 94.909 99.051 91.2254 99.2502L113.441 165.383L126.795 125.348L117.224 99.307C113.938 99.1079 110.838 98.7239 110.838 98.7239C107.538 98.5248 107.993 93.5044 111.222 93.7035C111.222 93.7035 121.291 94.4715 127.279 94.4715C133.665 94.4715 143.549 93.7035 143.549 93.7035C144.215 93.6526 144.873 93.8682 145.38 94.303C145.887 94.7377 146.2 95.356 146.251 96.0217C146.302 96.6875 146.086 97.3462 145.652 97.8529C145.217 98.3597 144.599 98.673 143.933 98.7239C143.933 98.7239 140.619 99.1079 136.95 99.307L159.051 164.886L165.138 144.548C167.784 136.114 169.846 130.055 169.846 124.822Z" fill="#555555"/>
<path d="M129.668 133.241L111.364 186.432C123.655 190.04 136.768 189.696 148.854 185.451C148.681 185.188 148.538 184.907 148.427 184.612L129.668 133.241ZM182.134 98.6387C182.409 100.718 182.546 102.813 182.546 104.911C182.439 112.426 180.859 119.848 177.896 126.756L159.265 180.63C173.007 172.637 183.087 159.595 187.359 144.281C191.63 128.967 189.756 112.591 182.134 98.6387Z" fill="#555555"/>
<path d="M128.601 56.7969C114.537 56.7969 100.788 60.9675 89.0942 68.7813C77.4001 76.595 68.2856 87.7011 62.9033 100.695C57.5211 113.689 56.1129 127.987 58.8567 141.781C61.6005 155.575 68.3732 168.246 78.3183 178.191C88.2634 188.136 100.934 194.909 114.728 197.653C128.523 200.397 142.821 198.988 155.814 193.606C168.808 188.224 179.914 179.109 187.728 167.415C195.542 155.721 199.713 141.972 199.713 127.908C199.69 109.055 192.191 90.9808 178.86 77.6498C165.529 64.3188 147.454 56.8195 128.601 56.7969ZM128.601 195.762C115.181 195.762 102.062 191.783 90.9036 184.327C79.7451 176.871 71.048 166.273 65.9123 153.875C60.7766 141.476 59.4328 127.833 62.051 114.67C64.6692 101.508 71.1317 89.4174 80.6213 79.9278C90.1108 70.4382 102.201 63.9757 115.364 61.3576C128.526 58.7394 142.169 60.0831 154.568 65.2189C166.967 70.3546 177.564 79.0516 185.02 90.2102C192.476 101.369 196.456 114.488 196.456 127.908C196.433 145.897 189.277 163.143 176.557 175.863C163.836 188.583 146.591 195.74 128.601 195.762Z" fill="#555555"/>
</g>
<defs>
<clipPath id="clip0_303_17181">
<rect width="142.222" height="142.222" fill="white" transform="translate(57.4903 56.7969)"/>
</clipPath>
</defs>
</svg>
