<svg width="257" height="257" viewBox="0 0 257 257" fill="none" xmlns="http://www.w3.org/2000/svg">
<rect x="1.32837" y="1.09424" width="255" height="255" rx="31.5" fill="white"/>
<rect x="1.32837" y="1.09424" width="255" height="255" rx="31.5" stroke="#878787"/>
<g clip-path="url(#clip0_303_17112)">
<path d="M63.7964 64.6145H194.157V191.42H63.7964V64.6145Z" fill="#111111"/>
<path d="M57.8657 58.6838V197.351H200.088V58.6838H57.8657ZM63.7964 64.6145H194.157V191.42H63.7964V64.6145Z" fill="#7B7B7B"/>
<path d="M161.147 116.995C160.062 116.55 158.892 116.346 157.72 116.398C150.253 116.398 145.275 122.087 145.275 131.687C145.275 142.595 150.31 146.862 157.009 146.862C158.399 146.905 159.784 146.683 161.091 146.207V116.995H161.147ZM134.666 132.099C134.666 118.303 143.555 107.509 158.132 107.509C159.158 107.486 160.184 107.529 161.204 107.637V92.2199C161.204 92.1421 161.22 92.0651 161.25 91.9934C161.28 91.9218 161.324 91.8568 161.38 91.8025C161.436 91.7482 161.502 91.7055 161.574 91.677C161.647 91.6486 161.724 91.6349 161.802 91.6368H171.345C171.814 91.6368 171.942 91.8075 171.942 92.1061V146.264C171.909 148.207 172.004 150.151 172.227 152.081C172.227 152.494 172.227 152.551 171.871 152.721C167.137 154.984 161.957 156.16 156.71 156.163C143.91 156.163 134.666 148.227 134.666 132.099ZM114.399 122.499L130.996 154.684C131.281 155.153 131.11 155.637 130.641 155.637H120.33C120.063 155.668 119.794 155.608 119.567 155.465C119.339 155.323 119.167 155.108 119.078 154.855C115.281 147.032 111.441 138.926 107.459 130.506H107.345C103.789 138.442 99.8782 147.103 96.0808 154.926C95.9873 155.127 95.8358 155.295 95.6456 155.409C95.4555 155.523 95.2355 155.578 95.0142 155.566H85.1866C84.5893 155.566 84.5324 155.096 84.831 154.741L101.059 123.452L85.4142 92.4048C85.3384 92.3287 85.2878 92.2313 85.269 92.1256C85.2502 92.0199 85.2642 91.911 85.3091 91.8135C85.354 91.716 85.4276 91.6345 85.5201 91.5801C85.6126 91.5256 85.7195 91.5007 85.8266 91.5088H96.0239C96.6213 91.5088 96.9199 91.6368 97.0906 92.163C100.831 100.042 104.614 107.807 108.17 115.758H108.298C111.725 107.935 115.523 100.113 119.135 92.291C119.434 91.8075 119.604 91.5088 120.202 91.5088H129.688C130.157 91.5088 130.342 91.8644 130.043 92.4048L114.399 122.442V122.499Z" fill="#7B7B7B"/>
</g>
<defs>
<clipPath id="clip0_303_17112">
<rect width="142.222" height="138.667" fill="white" transform="translate(57.8657 58.6838)"/>
</clipPath>
</defs>
</svg>
