<svg width="256" height="256" viewBox="0 0 256 256" fill="none" xmlns="http://www.w3.org/2000/svg">
<rect x="0.5" y="0.5" width="255" height="255" rx="31.5" fill="white"/>
<rect x="0.5" y="0.5" width="255" height="255" rx="31.5" stroke="#878787"/>
<g clip-path="url(#clip0_303_17147)">
<path fill-rule="evenodd" clip-rule="evenodd" d="M160.364 137.108H136.442V139.469H98.3552V148.586H104.627V156.138H149.328V148.586H156.069V139.668H160.336L160.364 137.108Z" fill="#474747"/>
<path fill-rule="evenodd" clip-rule="evenodd" d="M137.125 75.0282L132.958 77.4318L131.934 75.6682L129.516 77.0904L128.393 75.0282L124.638 77.1473L123.415 75.0282L122.974 75.2558L121.637 72.9376L121.011 73.2931L119.859 71.3304L65.1037 102.946L66.8814 106.004L67.493 105.634L68.6592 107.626L69.0859 107.37L70.5081 109.688L70.9632 109.389L71.8166 110.811L72.0157 110.683L72.8263 112.106L74.5899 115.163L138.889 78.1002L137.125 75.0282Z" fill="#474747"/>
<path fill-rule="evenodd" clip-rule="evenodd" d="M174.871 79.9918L173.136 80.9447L171.955 78.8967L152.641 90.0896L153.822 92.1518L89.4236 129.3L97.957 144.177L183.461 94.8682L174.871 79.9918Z" fill="#474747"/>
<path fill-rule="evenodd" clip-rule="evenodd" d="M170.391 70.9891H87.5463L57.2814 101.098L126.003 183.857L131.479 177.656L199.504 101.382L170.391 70.9891ZM167.376 78.1002L189.861 101.567L126.188 172.991L66.8814 101.553L90.4761 78.1002H167.376Z" fill="#606060"/>
</g>
<defs>
<clipPath id="clip0_303_17147">
<rect width="142.222" height="112.868" fill="white" transform="translate(57.2814 70.9891)"/>
</clipPath>
</defs>
</svg>
