<svg width="257" height="257" viewBox="0 0 257 257" fill="none" xmlns="http://www.w3.org/2000/svg">
<rect x="1.05212" y="1.28223" width="255" height="255" rx="31.5" fill="#1D1F23"/>
<rect x="1.05212" y="1.28223" width="255" height="255" rx="31.5" stroke="black"/>
<path fill-rule="evenodd" clip-rule="evenodd" d="M96.5787 184.049L78.8915 177.701V151.777L96.5787 157.803V184.049ZM99.8232 184.049L117.51 177.702V151.777L99.8232 157.803V184.049ZM80.7091 149.838L98.6099 144.798L115.209 150.151L98.6099 155.786L80.7091 149.838V149.838ZM75.5207 147.83L57.8335 141.485V115.559L75.5207 121.585V147.83ZM78.7652 147.83L96.4536 141.485V115.559L78.7652 121.585V147.83V147.83ZM59.6511 113.619L77.5531 108.58L94.1521 113.932L77.5531 119.568L59.6511 113.62V113.619ZM116.793 147.83L99.1044 141.485V115.559L116.793 121.585V147.83ZM120.037 147.83L137.726 141.485V115.559L120.037 121.585V147.83V147.83ZM100.924 113.619L118.825 108.58L135.423 113.932L118.825 119.568L100.924 113.62V113.619ZM137.851 111.61L120.162 105.267V79.3406L137.851 85.3657V111.61ZM141.095 111.61L158.782 105.267V79.3406L141.094 85.3657V111.61H141.095ZM121.981 77.4014L139.883 72.3618L156.481 77.713L139.883 83.3499L121.981 77.4014ZM179.124 111.61L161.436 105.267V79.3406L179.124 85.3657V111.61ZM182.367 111.61L200.056 105.267V79.3406L182.367 85.3657V111.61ZM163.253 77.4014L181.155 72.3618L197.753 77.713L181.155 83.3487L163.253 77.4002" fill="#FF9900"/>
</svg>
