<svg width="257" height="257" viewBox="0 0 257 257" fill="none" xmlns="http://www.w3.org/2000/svg">
<rect x="0.880615" y="1.09424" width="255" height="255" rx="31.5" fill="#1D1F23"/>
<rect x="0.880615" y="1.09424" width="255" height="255" rx="31.5" stroke="black"/>
<path d="M192.129 181.331C192.181 191.096 184.307 199.047 174.548 199.099C173.822 199.105 173.091 199.064 172.371 198.976C163.315 197.637 156.68 189.756 156.902 180.606V75.3999C156.686 66.2379 163.338 58.3571 172.401 57.029C182.095 55.894 190.877 62.8328 192.012 72.5273C192.094 73.2411 192.135 73.9548 192.129 74.6745V181.331Z" fill="#F9AB00"/>
<path d="M81.2718 163.896C91.0013 163.896 98.888 171.783 98.888 181.512C98.888 191.242 91.0013 199.128 81.2718 199.128C71.5422 199.128 63.6556 191.242 63.6556 181.512C63.6556 171.783 71.5422 163.896 81.2718 163.896ZM127.62 110.509C117.844 111.047 110.262 119.244 110.49 129.032V176.346C110.49 189.188 116.141 196.981 124.42 198.643C133.974 200.579 143.282 194.407 145.219 184.853C145.459 183.683 145.576 182.495 145.57 181.301V128.213C145.587 118.448 137.689 110.521 127.924 110.503C127.825 110.503 127.72 110.503 127.62 110.509Z" fill="#E37400"/>
</svg>
