<svg width="257" height="257" viewBox="0 0 257 257" fill="none" xmlns="http://www.w3.org/2000/svg">
<rect x="1.26111" y="1.09424" width="255" height="255" rx="31.5" fill="#1D1F23"/>
<rect x="1.26111" y="1.09424" width="255" height="255" rx="31.5" stroke="black"/>
<path d="M161.246 147.818C157.98 147.818 155.324 145.159 155.324 141.894C155.324 138.628 157.98 135.972 161.246 135.972C164.512 135.972 167.168 138.628 167.168 141.894C167.168 145.16 164.512 147.818 161.246 147.818ZM95.7877 147.818C92.5223 147.818 89.866 145.159 89.866 141.894C89.866 138.628 92.5217 135.972 95.7877 135.972C99.0532 135.972 101.71 138.628 101.71 141.894C101.71 145.16 99.0538 147.818 95.7877 147.818ZM163.37 112.144L175.206 91.6447C175.532 91.0789 175.62 90.4071 175.451 89.7765C175.282 89.1459 174.87 88.6081 174.305 88.2811C173.739 87.9554 173.067 87.8674 172.436 88.0364C171.806 88.2054 171.268 88.6175 170.941 89.1824L158.957 109.941C149.792 105.759 139.5 103.429 128.517 103.429C117.534 103.429 107.242 105.759 98.0771 109.941L86.0926 89.1824C85.7655 88.6175 85.2277 88.2054 84.5972 88.0364C83.9666 87.8674 83.2948 87.9554 82.7291 88.2811C82.1637 88.6078 81.7512 89.1456 81.5822 89.7763C81.4132 90.407 81.5015 91.079 81.8277 91.6447L93.6637 112.144C73.3396 123.198 59.4392 143.773 57.4057 168.082H199.628C197.593 143.774 183.692 123.198 163.37 112.143" fill="#3DDB85"/>
</svg>
