<svg width="257" height="257" viewBox="0 0 257 257" fill="none" xmlns="http://www.w3.org/2000/svg">
<rect x="1.36548" y="0.797119" width="255" height="255" rx="31.5" fill="#1D1F23"/>
<rect x="1.36548" y="0.797119" width="255" height="255" rx="31.5" stroke="black"/>
<path d="M166.054 171.344L151.817 127.52L189.086 100.444H143.017L128.778 56.6213L128.774 56.6094H174.85L189.092 100.439L189.093 100.438L189.105 100.431C197.375 125.858 188.857 154.778 166.054 171.343V171.344ZM91.4986 171.344L91.4872 171.352L128.766 198.436L166.054 171.345L128.778 144.26L91.4991 171.344H91.4986ZM68.4582 100.432C59.7514 127.235 69.8581 155.636 91.4917 171.349L91.4952 171.335L105.735 127.514L68.4735 100.443H114.532L128.771 56.6208L128.774 56.6089H82.6952L68.4577 100.432H68.4582Z" fill="#EB5424"/>
</svg>
