<svg width="257" height="257" viewBox="0 0 257 257" fill="none" xmlns="http://www.w3.org/2000/svg">
<rect x="1.15674" y="0.68811" width="255" height="255" rx="31.5" fill="#1D1F23"/>
<rect x="1.15674" y="0.68811" width="255" height="255" rx="31.5" stroke="black"/>
<path d="M89.3374 168.998L75.5714 172.138V82.9869L89.3374 86.1337V168.998Z" fill="#F68536"/>
<path d="M106.513 174.26L89.3374 179.141V76.1067L106.513 80.9817V174.26V174.26ZM128.545 179.666L106.513 187.729V67.518L128.545 75.5775V179.666ZM187.457 169.266L128.545 198.722V56.4999L187.457 85.9556V169.266Z" fill="#F68536"/>
<path d="M116.802 62.3725L128.545 56.4999V198.722L116.802 192.851V62.3725V62.3725ZM97.4222 72.0613L106.513 67.5162V187.706L97.4222 183.161V72.0613ZM82.096 79.7256L89.3374 76.1048V179.117L82.096 175.494V79.7256ZM75.5714 82.9869L69.6653 85.94V169.284L75.5714 172.235V82.9869Z" fill="#9D5025"/>
</svg>
