<svg width="257" height="257" viewBox="0 0 257 257" fill="none" xmlns="http://www.w3.org/2000/svg">
<rect x="0.880615" y="0.68811" width="255" height="255" rx="31.5" fill="#1D1F23"/>
<rect x="0.880615" y="0.68811" width="255" height="255" rx="31.5" stroke="black"/>
<path d="M96.8608 115.975C96.8608 117.725 97.05 119.144 97.3811 120.185C97.7595 121.225 98.2325 122.361 98.8947 123.59C99.1313 123.969 99.2259 124.347 99.2259 124.678C99.2259 125.151 98.942 125.624 98.3271 126.097L95.3471 128.084C94.9214 128.368 94.4957 128.51 94.1173 128.51C93.6443 128.51 93.1712 128.273 92.6982 127.848C92.036 127.138 91.4684 126.381 90.9954 125.624C90.5224 124.82 90.0493 123.921 89.529 122.834C85.8395 127.185 81.2039 129.361 75.6223 129.361C71.649 129.361 68.4798 128.226 66.162 125.955C63.8442 123.685 62.6617 120.658 62.6617 116.874C62.6617 112.853 64.0807 109.589 66.9661 107.129C69.8515 104.67 73.683 103.44 78.555 103.44C80.1633 103.44 81.8188 103.582 83.569 103.818C85.3192 104.055 87.1166 104.433 89.0087 104.859V101.406C89.0087 97.811 88.2519 95.304 86.7855 93.8376C85.2719 92.3713 82.7176 91.6617 79.0754 91.6617C77.4198 91.6617 75.7169 91.8509 73.9668 92.2767C72.2166 92.7024 70.5138 93.2227 68.8582 93.8849C68.1014 94.216 67.5338 94.4052 67.2026 94.4998C66.8715 94.5944 66.635 94.6417 66.4458 94.6417C65.7836 94.6417 65.4525 94.1687 65.4525 93.1754V90.8576C65.4525 90.1008 65.5471 89.5332 65.7836 89.2021C66.0201 88.8709 66.4458 88.5398 67.108 88.2087C68.7636 87.3573 70.7503 86.6478 73.068 86.0801C75.3858 85.4652 77.8455 85.1814 80.4471 85.1814C86.076 85.1814 90.1912 86.4586 92.8401 89.0128C95.4417 91.5671 96.7662 95.4459 96.7662 100.649V115.975H96.8608ZM77.6563 123.165C79.2173 123.165 80.8255 122.881 82.5284 122.313C84.2312 121.746 85.7449 120.705 87.022 119.286C87.7789 118.387 88.3465 117.394 88.6303 116.259C88.9141 115.123 89.1033 113.752 89.1033 112.143V110.157C87.7316 109.826 86.2652 109.542 84.7516 109.353C83.2379 109.163 81.7716 109.069 80.3052 109.069C77.136 109.069 74.8182 109.684 73.2573 110.961C71.6963 112.238 70.9395 114.035 70.9395 116.401C70.9395 118.624 71.5071 120.279 72.6896 121.414C73.8249 122.597 75.4804 123.165 77.6563 123.165V123.165ZM115.64 128.273C114.788 128.273 114.22 128.131 113.842 127.8C113.464 127.516 113.133 126.854 112.849 125.955L101.733 89.3913C101.449 88.4452 101.307 87.8303 101.307 87.4992C101.307 86.7424 101.686 86.3167 102.442 86.3167H107.078C107.977 86.3167 108.592 86.4586 108.923 86.7897C109.301 87.0735 109.585 87.7357 109.869 88.6344L117.815 119.948L125.194 88.6344C125.431 87.6884 125.715 87.0735 126.093 86.7897C126.472 86.5059 127.134 86.3167 127.985 86.3167H131.769C132.668 86.3167 133.283 86.4586 133.661 86.7897C134.04 87.0735 134.371 87.7357 134.56 88.6344L142.034 120.327L150.217 88.6344C150.501 87.6884 150.832 87.0735 151.163 86.7897C151.541 86.5059 152.156 86.3167 153.008 86.3167H157.407C158.164 86.3167 158.589 86.6951 158.589 87.4992C158.589 87.7357 158.542 87.9722 158.495 88.256C158.448 88.5398 158.353 88.9182 158.164 89.4386L146.764 126.003C146.48 126.949 146.149 127.564 145.771 127.848C145.392 128.131 144.777 128.321 143.973 128.321H139.905C139.007 128.321 138.392 128.179 138.013 127.848C137.635 127.516 137.304 126.901 137.114 125.955L129.783 95.4459L122.498 125.908C122.262 126.854 121.978 127.469 121.6 127.8C121.221 128.131 120.559 128.273 119.707 128.273H115.64ZM176.422 129.55C173.962 129.55 171.503 129.267 169.138 128.699C166.773 128.131 164.928 127.516 163.698 126.807C162.941 126.381 162.421 125.908 162.232 125.482C162.042 125.057 161.948 124.584 161.948 124.158V121.746C161.948 120.752 162.326 120.279 163.036 120.279C163.32 120.279 163.603 120.327 163.887 120.421C164.171 120.516 164.597 120.705 165.07 120.894C166.678 121.604 168.428 122.171 170.273 122.55C172.165 122.928 174.01 123.117 175.902 123.117C178.882 123.117 181.2 122.597 182.808 121.556C184.416 120.516 185.268 119.002 185.268 117.063C185.268 115.738 184.842 114.65 183.99 113.752C183.139 112.853 181.531 112.049 179.213 111.292L172.354 109.163C168.901 108.075 166.347 106.467 164.786 104.339C163.225 102.257 162.421 99.9395 162.421 97.4798C162.421 95.4932 162.847 93.743 163.698 92.2294C164.549 90.7157 165.685 89.3913 167.104 88.3506C168.523 87.2627 170.131 86.4586 172.023 85.8909C173.915 85.3233 175.902 85.0868 177.983 85.0868C179.024 85.0868 180.112 85.1341 181.152 85.276C182.24 85.4179 183.234 85.6071 184.227 85.7963C185.173 86.0328 186.072 86.2693 186.923 86.5532C187.775 86.837 188.437 87.1208 188.91 87.4046C189.572 87.783 190.045 88.1614 190.329 88.5871C190.613 88.9655 190.755 89.4859 190.755 90.1481V92.3713C190.755 93.3646 190.376 93.8849 189.667 93.8849C189.288 93.8849 188.673 93.6957 187.869 93.3173C185.173 92.0875 182.146 91.4725 178.787 91.4725C176.091 91.4725 173.962 91.8982 172.496 92.797C171.03 93.6957 170.273 95.0675 170.273 97.0068C170.273 98.3313 170.746 99.4665 171.692 100.365C172.638 101.264 174.388 102.163 176.895 102.967L183.612 105.095C187.018 106.183 189.477 107.697 190.944 109.636C192.41 111.576 193.12 113.799 193.12 116.259C193.12 118.293 192.694 120.137 191.89 121.746C191.038 123.354 189.903 124.773 188.437 125.908C186.97 127.091 185.22 127.942 183.186 128.557C181.058 129.219 178.835 129.55 176.422 129.55V129.55Z" fill="white"/>
<path fill-rule="evenodd" clip-rule="evenodd" d="M185.362 152.539C169.8 164.033 147.19 170.135 127.749 170.135C100.503 170.135 75.9534 160.06 57.4112 143.315C55.9448 141.991 57.2693 140.193 59.0194 141.234C79.0753 152.87 103.814 159.918 129.404 159.918C146.669 159.918 165.637 156.323 183.092 148.944C185.693 147.761 187.916 150.647 185.362 152.539V152.539Z" fill="#FF9900"/>
<path fill-rule="evenodd" clip-rule="evenodd" d="M191.842 145.16C189.856 142.606 178.693 143.93 173.631 144.545C172.118 144.734 171.881 143.41 173.253 142.416C182.146 136.173 196.762 137.97 198.465 140.051C200.167 142.18 197.992 156.796 189.667 163.797C188.389 164.885 187.16 164.317 187.727 162.898C189.619 158.215 193.829 147.667 191.842 145.16V145.16Z" fill="#FF9900"/>
</svg>
