<svg width="257" height="257" viewBox="0 0 257 257" fill="none" xmlns="http://www.w3.org/2000/svg">
<rect x="0.813354" y="1.09424" width="255" height="255" rx="31.5" fill="#1D1F23"/>
<rect x="0.813354" y="1.09424" width="255" height="255" rx="31.5" stroke="black"/>
<path fill-rule="evenodd" clip-rule="evenodd" d="M186.97 111.054C181.16 111.054 177.878 112.175 175.993 114.804C174.024 117.55 173.628 121.884 173.628 127.989C173.628 139.972 175.482 144.981 186.97 144.981C188.35 144.981 193.067 144.955 195.82 144.619C196.891 144.441 197.371 143.621 197.371 142.887V141.563C197.371 140.533 196.593 139.756 195.56 139.756H186.97C180.488 139.756 179.319 138.228 179.153 129.542V126.73C179.208 117.842 180.377 116.279 186.97 116.279C193.05 116.279 194.216 117.666 194.418 125.491H184.758V130.774H197.463C199.966 130.774 199.966 129.024 199.966 128.449V126.763C199.784 114.577 196.869 111.054 186.97 111.054V111.054ZM170.24 111.519L170.102 111.483C168.919 111.234 165.685 111.054 164.082 111.054C158.409 111.054 155.41 113.429 155.41 117.923V142.944C155.41 143.974 156.131 144.693 157.164 144.693H159.182C160.215 144.693 160.935 143.974 160.935 142.944V118.382C160.935 117.273 161.216 116.279 164.601 116.279L169.614 116.274C170.105 116.333 170.573 116.197 170.934 115.892C171.327 115.56 171.544 115.075 171.544 114.529V113.263C171.544 112.433 171.068 111.797 170.24 111.519V111.519ZM146.011 111.457H143.993C142.96 111.457 142.239 112.176 142.239 113.206V139.757H133.846C128.655 139.757 126.548 139.426 126.548 131.152V113.206C126.548 112.176 125.827 111.457 124.795 111.457H122.834C121.801 111.457 121.023 112.208 121.023 113.206V131.152C121.023 142.912 125.288 144.981 134.25 144.981C137.474 144.981 141.889 144.981 146.099 144.388L146.197 144.369C147.237 144.109 147.764 143.514 147.764 142.599V113.206C147.764 112.176 147.043 111.457 146.011 111.457" fill="white"/>
<path fill-rule="evenodd" clip-rule="evenodd" d="M114.798 112.278C114.539 111.727 113.984 111.399 113.312 111.399H110.718C109.965 111.399 109.402 111.702 109.105 112.249L105.26 117.866L108.626 122.469L114.502 114.04C115.147 113.256 114.924 112.547 114.798 112.278" fill="#74BB11"/>
<path fill-rule="evenodd" clip-rule="evenodd" d="M94.529 112.185L94.5256 112.18C93.9395 111.399 93.1597 111.399 92.9033 111.399H90.3661C89.716 111.399 89.1837 111.697 88.9056 112.217C88.6196 112.75 88.6802 113.39 89.076 113.983L98.4755 127.013L87.6669 142.088C87.2893 142.655 87.2363 143.286 87.5215 143.818C87.8012 144.338 88.3339 144.636 88.9828 144.636H91.5764C92.2435 144.636 92.83 144.29 93.1233 143.744L105.221 127.073L94.529 112.185Z" fill="#009CD9"/>
<path fill-rule="evenodd" clip-rule="evenodd" d="M116.089 142.22L108.548 131.871L105.231 136.444L111.194 144.403L111.349 144.471C111.586 144.577 111.842 144.633 112.102 144.635H114.638C115.251 144.635 115.771 144.363 116.065 143.888C116.367 143.4 116.376 142.793 116.089 142.22" fill="#EB2084"/>
<path fill-rule="evenodd" clip-rule="evenodd" d="M77.6912 130.544V139.332C75.123 139.727 71.2083 139.814 69.8742 139.814C63.9724 139.814 63.3257 138.201 63.3257 134.777C63.3257 131.572 64.525 130.543 68.26 130.543L77.6912 130.544ZM69.586 111.053C67.7624 111.053 65.2756 111.101 62.1814 111.473L62.0416 111.504C61.1402 111.76 60.6837 112.352 60.6837 113.263V114.529C60.6837 115.608 61.3554 116.278 62.437 116.278H69.5865C75.3429 116.278 77.6912 117.838 77.6912 121.661V125.376H68.26C60.8888 125.376 57.7434 128.187 57.7434 134.776C57.7434 142.12 60.999 144.981 69.3555 144.981C72.7404 144.981 78.9711 144.718 81.274 144.016C83.2158 143.477 83.2158 141.993 83.2158 141.506V121.316C83.2158 114.41 78.7575 111.053 69.5865 111.053H69.586Z" fill="white"/>
</svg>
