<svg width="257" height="257" viewBox="0 0 257 257" fill="none" xmlns="http://www.w3.org/2000/svg">
<rect x="1.15674" y="1.28223" width="255" height="255" rx="31.5" fill="#1D1F23"/>
<rect x="1.15674" y="1.28223" width="255" height="255" rx="31.5" stroke="black"/>
<path d="M105.352 61.1625H147.437L103.749 190.682C103.525 191.343 103.2 191.966 102.785 192.527C102.371 193.089 101.871 193.582 101.304 193.989C100.737 194.396 100.111 194.712 99.4462 194.926C98.7813 195.139 98.0879 195.249 97.391 195.249H64.6386C63.5754 195.249 62.5264 194.997 61.5806 194.51C60.6337 194.024 59.8164 193.319 59.1964 192.454C58.576 191.59 58.1702 190.59 58.0124 189.537C57.8541 188.484 57.9501 187.409 58.2897 186.401L98.9928 65.7263C99.2151 65.065 99.5404 64.4427 99.9565 63.8809C100.371 63.3191 100.872 62.8266 101.437 62.4195C102.005 62.0123 102.63 61.6959 103.295 61.4825C103.96 61.2692 104.654 61.1589 105.351 61.1589V61.1607L105.352 61.1625Z" fill="url(#paint0_linear_301_8849)"/>
<path d="M182.932 195.249H145.143C144.722 195.249 144.301 195.21 143.885 195.13C143.47 195.052 143.063 194.935 142.67 194.78C142.277 194.625 141.9 194.433 141.543 194.209C141.186 193.984 140.851 193.726 140.542 193.438L97.6594 153.389C97.2058 152.965 96.8899 152.415 96.7526 151.81C96.6155 151.205 96.6638 150.572 96.8911 149.995C97.1185 149.418 97.5144 148.922 98.0274 148.573C98.5412 148.224 99.1475 148.038 99.768 148.038H166.503L182.929 195.251L182.932 195.249Z" fill="#0078D4"/>
<path d="M147.588 61.1625L118.128 148.046L166.263 148.036L182.774 195.25H145.127C144.738 195.246 144.349 195.21 143.965 195.141C143.581 195.072 143.204 194.97 142.837 194.835C142.103 194.568 141.42 194.176 140.818 193.678L111.87 166.661L103.766 190.56C103.557 191.157 103.269 191.724 102.909 192.245C102.19 193.293 101.205 194.131 100.056 194.675C99.4838 194.946 98.8782 195.139 98.255 195.25H64.6581C63.5842 195.253 62.5246 194.997 61.5699 194.503C60.615 194.009 59.7931 193.293 59.1735 192.414C58.554 191.535 58.1551 190.521 58.0105 189.455C57.8665 188.39 57.9805 187.305 58.343 186.293L98.9803 65.817C99.1919 65.1432 99.5102 64.5085 99.9226 63.936C100.333 63.3635 100.835 62.8586 101.404 62.4426C101.973 62.0266 102.605 61.703 103.276 61.4861C103.946 61.2692 104.648 61.1589 105.354 61.1625H147.59H147.588Z" fill="url(#paint1_linear_301_8849)"/>
<path d="M199.808 186.401C200.148 187.41 200.244 188.484 200.087 189.537C199.929 190.59 199.524 191.589 198.905 192.455C198.285 193.319 197.468 194.023 196.522 194.509C195.575 194.995 194.527 195.249 193.463 195.25H146.559C147.622 195.25 148.671 194.995 149.618 194.51C150.564 194.025 151.382 193.319 152.002 192.455C152.623 191.591 153.028 190.59 153.187 189.537C153.345 188.485 153.249 187.409 152.909 186.401L112.204 65.7228C111.756 64.3935 110.902 63.2381 109.763 62.4195C109.198 62.0124 108.572 61.6977 107.909 61.4843C107.246 61.271 106.552 61.1625 105.857 61.1625H152.76C153.457 61.1625 154.148 61.271 154.813 61.4843C155.476 61.6977 156.102 62.0141 156.669 62.4195C157.235 62.8266 157.734 63.3191 158.149 63.8792C158.563 64.4392 158.886 65.0615 159.11 65.7228L199.815 186.401H199.808Z" fill="url(#paint2_linear_301_8849)"/>
<defs>
<linearGradient id="paint0_linear_301_8849" x1="120.712" y1="71.1009" x2="76.9755" y2="200.3" gradientUnits="userSpaceOnUse">
<stop stop-color="#114A8B"/>
<stop offset="1" stop-color="#0669BC"/>
</linearGradient>
<linearGradient id="paint1_linear_301_8849" x1="134.348" y1="131.3" x2="124.232" y2="134.732" gradientUnits="userSpaceOnUse">
<stop stop-opacity="0.3"/>
<stop offset="0.1" stop-opacity="0.2"/>
<stop offset="0.3" stop-opacity="0.1"/>
<stop offset="0.6" stop-opacity="0.1"/>
<stop offset="1" stop-opacity="0"/>
</linearGradient>
<linearGradient id="paint2_linear_301_8849" x1="128.765" y1="67.3318" x2="176.768" y2="195.216" gradientUnits="userSpaceOnUse">
<stop stop-color="#3CCBF4"/>
<stop offset="1" stop-color="#2892DF"/>
</linearGradient>
</defs>
</svg>
