<svg width="257" height="257" viewBox="0 0 257 257" fill="none" xmlns="http://www.w3.org/2000/svg">
<rect x="0.537231" y="1.09424" width="255" height="255" rx="31.5" fill="#1D1F23"/>
<rect x="0.537231" y="1.09424" width="255" height="255" rx="31.5" stroke="black"/>
<path d="M190.827 99.0076C190.826 96.6398 190.32 94.5474 189.296 92.7522C188.29 90.9858 186.783 89.5058 184.762 88.3356C168.082 78.7176 151.386 69.129 134.711 59.5012C130.215 56.9059 125.856 57.001 121.394 59.6336C114.755 63.5486 81.5143 82.5929 71.6091 88.3302C67.5298 90.6922 65.5448 94.3062 65.5438 99.0032C65.5375 118.346 65.5438 137.688 65.5375 157.03C65.5375 159.346 66.0233 161.398 67.0023 163.167C68.0088 164.986 69.5363 166.507 71.6037 167.703C81.5094 173.441 114.754 192.483 121.392 196.4C125.856 199.034 130.215 199.128 134.712 196.532C151.388 186.904 168.085 177.315 184.768 167.697C186.835 166.501 188.363 164.98 189.369 163.162C190.347 161.393 190.834 159.341 190.834 157.025C190.834 157.025 190.834 118.35 190.827 99.0076Z" fill="#A179DC"/>
<path d="M128.377 127.828L67.0023 163.167C68.0088 164.986 69.5364 166.507 71.6037 167.703C81.5095 173.441 114.754 192.483 121.392 196.4C125.856 199.034 130.215 199.128 134.712 196.532C151.388 186.904 168.085 177.315 184.768 167.697C186.835 166.501 188.363 164.98 189.369 163.162L128.377 127.828Z" fill="#280068"/>
<path d="M190.828 99.0076C190.827 96.6397 190.32 94.5474 189.296 92.7521L128.378 127.829L189.37 163.162C190.347 161.393 190.833 159.341 190.834 157.025C190.834 157.025 190.834 118.35 190.828 99.0076" fill="#390091"/>
<path d="M164.513 114.618V121.223H171.118V114.618H174.421V121.223H181.026V124.526H174.421V131.131H181.026V134.434H174.421V141.039H171.118V134.434H164.513V141.039H161.21V134.434H154.605V131.131H161.21V124.526H154.605V121.223H161.21V114.618H164.513ZM171.118 124.526H164.513V131.131H171.118V124.526Z" fill="white"/>
<path d="M128.512 81.4443C145.741 81.4443 160.783 90.801 168.84 104.709L168.762 104.575L148.49 116.247C144.497 109.485 137.175 104.921 128.776 104.827L128.511 104.826C115.704 104.826 105.321 115.209 105.321 128.017C105.317 132.053 106.371 136.021 108.379 139.523C112.377 146.501 119.892 151.208 128.512 151.208C137.186 151.208 144.743 146.441 148.72 139.388L148.624 139.557L168.864 151.283C160.895 165.073 146.059 174.401 129.031 174.587L128.512 174.59C111.229 174.59 96.144 165.175 88.107 151.194C84.1836 144.368 81.9388 136.455 81.9388 128.017C81.9388 102.296 102.79 81.4438 128.511 81.4438L128.512 81.4443Z" fill="white"/>
</svg>
