<svg width="256" height="257" viewBox="0 0 256 257" fill="none" xmlns="http://www.w3.org/2000/svg">
<rect x="0.5" y="0.936035" width="255" height="255" rx="31.5" fill="#1D1F23"/>
<rect x="0.5" y="0.936035" width="255" height="255" rx="31.5" stroke="black"/>
<g clip-path="url(#clip0_307_1359)">
<path d="M128.392 56.7478C89.183 56.7478 57.2814 88.6495 57.2814 127.859C57.2814 167.073 89.183 198.973 128.392 198.973C167.602 198.973 199.504 167.073 199.504 127.859C199.504 88.6495 167.602 56.7478 128.392 56.7478Z" fill="white"/>
<path d="M125.791 129.138C125.153 130.523 124.448 132.078 123.718 133.734C121.137 139.581 118.279 146.695 117.235 151.253C116.86 152.876 116.628 154.888 116.633 157.118C116.633 158.001 116.68 158.928 116.755 159.872C120.403 161.213 124.344 161.95 128.459 161.957C132.205 161.95 135.804 161.331 139.172 160.211C138.38 159.487 137.625 158.716 136.937 157.846C132.37 152.023 129.823 143.488 125.791 129.138Z" fill="#91DC47"/>
<path d="M108.931 100.206C100.21 106.353 94.5025 116.491 94.4808 127.98C94.5025 139.297 100.038 149.303 108.54 155.476C110.626 146.788 115.854 138.834 123.693 122.89C123.228 121.611 122.697 120.211 122.103 118.74C119.931 113.292 116.797 106.966 114 104.101C112.574 102.604 110.843 101.311 108.931 100.206Z" fill="#91DC47"/>
<path d="M158.056 166.952C153.556 166.388 149.842 165.707 146.593 164.561C141.129 167.275 134.975 168.807 128.459 168.807C105.912 168.807 87.6347 150.533 87.6319 127.98C87.6319 115.742 93.023 104.772 101.552 97.2906C99.2708 96.7395 96.8919 96.4178 94.4619 96.4223C82.483 96.5351 69.838 103.165 64.5736 121.068C64.0814 123.675 64.1986 125.645 64.1986 127.981C64.1986 163.472 92.9714 192.245 128.46 192.245C150.195 192.245 169.395 181.446 181.022 164.929C174.733 166.496 168.685 167.246 163.506 167.262C161.565 167.262 159.743 167.158 158.056 166.952Z" fill="#63B132"/>
<path d="M145.98 154.499C146.377 154.696 147.276 155.017 148.528 155.372C156.949 149.191 162.421 139.233 162.443 127.979H162.439C162.408 109.218 147.225 94.0372 128.459 94C124.729 94.0072 121.145 94.6228 117.79 95.7344C124.69 103.599 128.008 114.838 131.217 127.132C131.219 127.137 131.221 127.142 131.223 127.146C131.229 127.156 132.249 130.56 134.001 135.076C135.741 139.586 138.22 145.169 140.924 149.238C142.699 151.965 144.651 153.924 145.98 154.499Z" fill="#90B4FE"/>
<path d="M128.46 63.715C106.936 63.715 87.8959 74.3111 76.2336 90.5583C82.3031 86.7572 88.5003 85.3861 93.9086 85.435C101.379 85.4566 107.251 87.7727 110.069 89.3572C110.75 89.7494 111.396 90.1716 112.029 90.6055C117.056 88.3911 122.612 87.1527 128.459 87.1527C151.008 87.1555 169.288 105.43 169.291 127.979H169.288C169.288 139.348 164.638 149.628 157.142 157.03C158.982 157.236 160.944 157.364 162.948 157.354C170.065 157.358 177.758 155.787 183.525 150.937C187.286 147.769 190.436 143.131 192.184 136.176C192.525 133.49 192.722 130.759 192.722 127.981C192.722 92.4905 163.952 63.715 128.46 63.715Z" fill="#5881D8"/>
</g>
<defs>
<clipPath id="clip0_307_1359">
<rect width="142.222" height="142.222" fill="white" transform="translate(57.2814 56.7478)"/>
</clipPath>
</defs>
</svg>
