<svg width="257" height="257" viewBox="0 0 257 257" fill="none" xmlns="http://www.w3.org/2000/svg">
<rect x="1.36548" y="1.09424" width="255" height="255" rx="31.5" fill="#1D1F23"/>
<rect x="1.36548" y="1.09424" width="255" height="255" rx="31.5" stroke="black"/>
<path d="M179.115 171.284C178.089 171.284 177.098 170.919 176.318 170.253C175.537 169.588 175.02 168.666 174.859 167.653C174.698 166.641 174.903 165.604 175.438 164.729C175.973 163.854 176.803 163.199 177.778 162.881C185.971 160.2 191.265 153.018 191.265 144.584C191.265 133.903 182.576 125.213 171.895 125.213C171.153 125.213 170.355 125.271 169.383 125.397L165.172 125.944L164.567 121.738C161.979 103.707 146.271 90.1091 128.03 90.1091C112.949 90.1091 99.5237 99.1369 93.8304 113.11L92.7581 115.739L89.9215 115.791C76.8831 116.03 66.2759 126.829 66.2759 139.86C66.2759 149.374 71.7992 158.049 80.3465 161.961C81.3852 162.437 82.1926 163.305 82.591 164.376C82.9893 165.447 82.946 166.632 82.4706 167.671C81.9952 168.709 81.1267 169.517 80.056 169.915C78.9853 170.313 77.8002 170.27 76.7615 169.795C65.1565 164.484 57.6587 152.734 57.6587 139.861C57.6587 123.108 70.5665 109.075 86.9615 107.351C94.5159 91.5547 110.349 81.4952 128.028 81.4952C149.189 81.4952 167.584 96.3313 172.354 116.604C187.574 116.85 199.881 129.307 199.881 144.585C199.881 156.624 192.074 167.266 180.457 171.069C180.013 171.214 179.56 171.284 179.115 171.284Z" fill="#0071CE"/>
<path d="M113.224 173.147L113.221 173.146L113.218 173.145H113.216L113.215 173.144L113.214 173.142C113.214 173.142 113.213 173.142 113.213 173.141H113.212L113.211 173.14C113.212 173.139 113.21 173.139 113.21 173.139L113.209 173.138H113.208L113.206 173.137L113.205 173.136L113.202 173.135L113.201 173.134L113.2 173.132L113.199 173.131L113.195 173.13C113.194 173.131 113.194 173.129 113.193 173.129L113.192 173.128L113.19 173.127L113.189 173.126C113.188 173.125 113.185 173.125 113.184 173.125L113.18 173.124L113.178 173.122H113.176C113.175 173.121 113.174 173.121 113.173 173.121C113.171 173.12 113.169 173.12 113.169 173.12H113.168L113.166 173.119C113.165 173.119 113.165 173.118 113.165 173.118H113.164C113.096 173.094 113.025 173.08 112.953 173.076H112.946H112.943L112.941 173.075H112.93H112.931H112.922C111.06 173.075 109.537 171.56 109.526 169.702V131.852H112.426C112.868 131.871 113.169 131.531 113.169 131.124C113.169 130.819 112.983 130.558 112.718 130.449L98.7998 120.843C98.678 120.759 98.5336 120.714 98.3856 120.714C98.2377 120.714 98.0933 120.759 97.9715 120.843L83.9448 130.524C83.8176 130.613 83.7219 130.74 83.6716 130.886C83.6213 131.033 83.6191 131.192 83.6652 131.34C83.7113 131.488 83.8034 131.618 83.9281 131.71C84.0528 131.802 84.2036 131.852 84.3587 131.853H87.2587L87.2615 169.712C87.2759 172.33 89.3781 174.466 92.0531 174.534C92.0837 174.537 92.1126 174.539 92.1431 174.539H112.933C113.124 174.536 113.298 174.459 113.426 174.336L113.427 174.335L113.433 174.33C113.434 174.329 113.435 174.329 113.436 174.326L113.437 174.325L113.438 174.324L113.439 174.323L113.44 174.322L113.441 174.321L113.443 174.32C113.445 174.319 113.444 174.319 113.445 174.317L113.446 174.316L113.447 174.315L113.448 174.314C113.574 174.184 113.653 174.007 113.654 173.811V173.8C113.651 173.662 113.609 173.527 113.533 173.412C113.457 173.296 113.35 173.204 113.224 173.147V173.147Z" fill="#DC8327"/>
<path d="M143.284 173.147L143.282 173.146L143.278 173.145H143.277L143.275 173.144L143.274 173.143H143.273L143.272 173.141L143.271 173.14C143.272 173.139 143.27 173.139 143.269 173.139L143.268 173.138H143.267C143.265 173.138 143.265 173.137 143.265 173.137C143.263 173.138 143.263 173.136 143.263 173.136L143.261 173.135L143.26 173.134H143.259L143.258 173.133L143.257 173.131L143.254 173.13C143.253 173.131 143.253 173.129 143.251 173.129L143.25 173.128L143.249 173.127L143.247 173.126C143.245 173.125 143.243 173.125 143.242 173.125L143.238 173.124L143.235 173.123L143.233 173.121L143.231 173.12L143.228 173.119C143.225 173.119 143.227 173.119 143.226 173.118L143.224 173.117L143.223 173.116H143.222C143.154 173.092 143.082 173.078 143.01 173.074H143.002L143 173.073H142.978C141.117 173.073 139.594 171.558 139.583 169.7V140.328H142.482C142.654 140.336 142.823 140.283 142.96 140.178C143.096 140.073 143.191 139.924 143.228 139.755C143.264 139.587 143.24 139.412 143.16 139.26C143.079 139.107 142.947 138.989 142.788 138.925L128.869 129.319C128.747 129.235 128.603 129.19 128.455 129.19C128.307 129.19 128.162 129.235 128.04 129.319L114.019 138.999C113.892 139.088 113.796 139.215 113.746 139.361C113.696 139.508 113.694 139.667 113.74 139.815C113.786 139.963 113.878 140.093 114.003 140.185C114.127 140.277 114.278 140.327 114.433 140.328H117.32L117.323 169.711C117.335 172.33 119.441 174.467 122.117 174.534C122.146 174.537 122.175 174.538 122.204 174.538H142.995C143.186 174.535 143.359 174.458 143.487 174.335L143.488 174.334C143.49 174.332 143.495 174.33 143.494 174.329C143.495 174.328 143.496 174.328 143.497 174.325L143.498 174.324L143.499 174.323L143.5 174.322C143.5 174.322 143.502 174.322 143.502 174.321L143.503 174.32C143.504 174.32 143.504 174.319 143.504 174.319C143.507 174.318 143.506 174.318 143.506 174.316L143.507 174.315L143.508 174.314L143.509 174.313C143.635 174.183 143.714 174.006 143.715 173.81V173.799C143.711 173.661 143.669 173.527 143.593 173.411C143.517 173.296 143.41 173.204 143.284 173.147V173.147Z" fill="#F4B21B"/>
<path d="M173.422 173.147L173.42 173.146L173.416 173.145H173.415L173.414 173.144L173.413 173.142C173.412 173.142 173.412 173.142 173.412 173.141H173.411L173.41 173.14L173.409 173.139C173.409 173.139 173.407 173.139 173.407 173.138H173.406L173.405 173.137C173.404 173.138 173.404 173.136 173.403 173.136C173.404 173.135 173.402 173.135 173.401 173.135L173.4 173.134H173.399L173.397 173.132L173.396 173.131L173.394 173.13C173.393 173.131 173.393 173.129 173.391 173.129L173.39 173.128C173.391 173.127 173.389 173.127 173.387 173.127C173.387 173.127 173.386 173.127 173.386 173.126C173.385 173.125 173.383 173.125 173.382 173.125L173.377 173.124L173.375 173.122L173.372 173.121L173.37 173.12L173.368 173.119C173.365 173.119 173.365 173.119 173.366 173.118C173.365 173.118 173.365 173.117 173.365 173.117L173.362 173.116H173.361C173.293 173.092 173.222 173.078 173.15 173.074H173.14L173.137 173.073H173.125H173.117H173.122H173.121C171.26 173.073 169.737 171.557 169.725 169.7V148.8H172.633C173.043 148.791 173.376 148.48 173.376 148.072C173.376 147.767 173.189 147.506 172.924 147.397L159.005 137.792C158.883 137.708 158.739 137.663 158.591 137.663C158.443 137.663 158.299 137.708 158.177 137.792L144.15 147.472C144.023 147.561 143.927 147.687 143.877 147.834C143.827 147.981 143.825 148.14 143.871 148.288C143.917 148.436 144.009 148.565 144.134 148.658C144.258 148.75 144.409 148.8 144.564 148.801H147.457L147.459 169.711C147.474 172.33 149.578 174.468 152.253 174.534C152.282 174.537 152.311 174.538 152.341 174.538H173.131C173.322 174.535 173.495 174.458 173.624 174.335L173.625 174.334C173.627 174.332 173.63 174.33 173.63 174.329C173.631 174.327 173.632 174.327 173.634 174.325L173.635 174.324L173.636 174.323L173.637 174.322L173.638 174.321L173.639 174.32L173.64 174.319C173.644 174.317 173.641 174.317 173.642 174.316L173.644 174.315L173.645 174.314L173.646 174.313C173.772 174.182 173.85 174.006 173.851 173.81V173.799C173.848 173.661 173.807 173.527 173.731 173.411C173.655 173.296 173.548 173.204 173.422 173.147V173.147Z" fill="#F2D864"/>
</svg>
