<svg width="257" height="257" viewBox="0 0 257 257" fill="none" xmlns="http://www.w3.org/2000/svg">
<rect x="0.708862" y="1.28223" width="255" height="255" rx="31.5" fill="#1D1F23"/>
<rect x="0.708862" y="1.28223" width="255" height="255" rx="31.5" stroke="black"/>
<path d="M107.485 199.126C107.484 199.126 107.483 199.125 107.481 199.125C90.5796 195.234 75.6131 184.234 70.9435 166.955C66.2706 149.663 72.6294 132.23 83.0162 118.369C88.2096 111.444 94.2838 105.229 100.602 99.3283C106.484 93.8348 112.964 88.7867 118.292 82.7405C123.786 76.5032 130.654 65.3464 125.441 56.9135C134.906 63.9851 142.54 75.8023 141.264 87.975C140.244 97.6877 132.957 107.577 140.095 116.749C144.535 122.451 153.523 121.255 156.843 115.748L156.599 116.011C157.167 115.106 157.584 114.114 157.831 113.074C157.848 112.231 157.699 111.288 157.242 110.18L158.111 110.654C174.753 119.283 188.187 134.354 187.81 153.937C187.356 177.74 165.179 194.398 143.715 199.136C153.872 195.134 162.928 187.209 164.161 175.813C165.299 165.3 159.663 156.235 152.031 149.531C144.775 143.152 136.117 139.039 128.226 133.597C123.677 130.461 116.773 124.164 119.203 117.779C116.042 120.5 113.547 124.306 112.562 128.37C110.596 136.477 115.593 142.791 120.759 148.381C125.984 154.026 125.58 163.714 116.766 165.644C112.995 166.464 109 164.952 106.719 161.841C104.266 158.494 104.806 155.072 105.796 151.33C97.5585 157.161 90.9352 166.035 90.9585 176.486C90.9775 186.07 98.955 195.437 107.481 199.125C107.483 199.125 107.484 199.125 107.486 199.126L107.485 199.126Z" fill="#EE4323"/>
</svg>
