<svg width="257" height="256" viewBox="0 0 257 256" fill="none" xmlns="http://www.w3.org/2000/svg">
<rect x="0.604492" y="0.5" width="255" height="255" rx="31.5" fill="#1D1F23"/>
<rect x="0.604492" y="0.5" width="255" height="255" rx="31.5" stroke="black"/>
<path d="M191.348 56.8889L179.923 184.874L128.569 199.111L77.356 184.894L65.9435 56.8889H191.348Z" fill="#264DE4"/>
<path d="M170.142 176.724L179.906 67.3552H128.646V188.229L170.142 176.724Z" fill="#2965F1"/>
<path d="M92.1066 114.831L93.5136 130.53H128.646V114.831H92.1066Z" fill="#EBEBEB"/>
<path d="M128.646 83.0545H128.591H89.2792L90.7064 98.754H128.646V83.0545Z" fill="#EBEBEB"/>
<path d="M128.646 171.937V155.603L128.577 155.621L111.092 150.9L109.975 138.379H101.479H94.2151L96.4146 163.029L128.573 171.957L128.646 171.937Z" fill="#EBEBEB"/>
<path d="M147.923 130.529L146.101 150.89L128.591 155.616V171.949L160.776 163.03L161.012 160.377L164.701 119.046L165.084 114.83L167.918 83.0545H128.591V98.754H150.713L149.285 114.83H128.591V130.529H147.923Z" fill="white"/>
</svg>
