<svg width="257" height="257" viewBox="0 0 257 257" fill="none" xmlns="http://www.w3.org/2000/svg">
<rect x="0.537109" y="0.985107" width="255" height="255" rx="31.5" fill="#1D1F23"/>
<rect x="0.537109" y="0.985107" width="255" height="255" rx="31.5" stroke="black"/>
<path fill-rule="evenodd" clip-rule="evenodd" d="M128.436 199.019V171.457C157.61 171.457 180.256 142.526 169.053 111.82C166.995 106.179 163.729 101.056 159.484 96.8096C155.238 92.5636 150.116 89.297 144.475 87.2389C113.769 76.1182 84.8377 98.6819 84.8377 127.856H57.3555C57.3555 81.359 102.326 45.0927 151.082 60.3216C172.359 67.0145 189.363 83.9352 195.973 105.215C211.205 154.049 175.018 199.019 128.436 199.019Z" fill="#0080FF"/>
<path fill-rule="evenodd" clip-rule="evenodd" d="M101.116 171.537H128.516V144.138H101.119L101.116 171.537ZM80.002 192.652H101.114V171.54H80.002V192.652ZM62.351 171.54H80.002V153.886H62.351V171.54Z" fill="#0080FF"/>
</svg>
