<svg width="257" height="257" viewBox="0 0 257 257" fill="none" xmlns="http://www.w3.org/2000/svg">
<rect x="0.880615" y="1.28223" width="255" height="255" rx="31.5" fill="#1D1F23"/>
<rect x="0.880615" y="1.28223" width="255" height="255" rx="31.5" stroke="black"/>
<path d="M109.461 87.6626C90.8757 84.2776 76.1802 87.8214 70.3235 97.9645C65.9531 105.533 67.2007 115.57 73.3514 126.299C73.4759 126.516 73.6419 126.707 73.8401 126.86C74.0383 127.013 74.2647 127.126 74.5063 127.191C74.748 127.257 75.0003 127.274 75.2487 127.242C75.497 127.21 75.7367 127.13 75.9539 127.005C76.3925 126.753 76.7133 126.338 76.8457 125.85C76.978 125.362 76.9112 124.841 76.6599 124.402C71.1188 114.739 70.0389 106.077 73.6249 99.8702C78.4895 91.444 91.5958 88.2831 108.777 91.413C109.088 91.4743 109.409 91.4574 109.711 91.3637C110.014 91.2701 110.288 91.1026 110.509 90.8764C110.731 90.6502 110.893 90.3724 110.98 90.068C111.067 89.7637 111.077 89.4425 111.009 89.1332C110.927 88.7615 110.736 88.4228 110.46 88.1607C110.184 87.8987 109.835 87.7253 109.46 87.663L109.461 87.6626ZM83.0164 139.338C90.5309 147.597 100.294 155.343 111.429 161.772C138.389 177.338 167.09 181.498 181.234 171.853C181.642 171.564 181.92 171.127 182.008 170.635C182.096 170.144 181.988 169.637 181.707 169.225C181.426 168.812 180.994 168.526 180.504 168.429C180.014 168.331 179.506 168.43 179.088 168.703C166.428 177.336 139.164 173.383 113.335 158.471C102.532 152.233 93.0788 144.733 85.8362 136.774C85.5844 136.488 85.2528 136.284 84.8841 136.188C84.5154 136.093 84.1266 136.11 83.7676 136.237C83.4692 136.343 83.2019 136.522 82.9899 136.757C82.7778 136.992 82.6278 137.277 82.5532 137.584C82.4787 137.892 82.482 138.214 82.5628 138.52C82.6437 138.826 82.7996 139.107 83.0164 139.338V139.338Z" fill="#2DD0ED"/>
<path d="M176.724 137.02C188.893 122.644 193.143 108.184 187.299 98.0608C182.998 90.6124 173.906 86.6798 161.824 86.5229C161.319 86.5164 160.831 86.7108 160.469 87.0634C160.107 87.416 159.9 87.8979 159.893 88.4033C159.887 88.7804 159.994 89.1506 160.199 89.4669C160.404 89.7833 160.699 90.0314 161.046 90.1799C161.276 90.2788 161.523 90.3315 161.773 90.3349C172.64 90.4753 180.474 93.8641 183.998 99.967C188.851 108.375 185.063 121.27 173.815 134.558C173.647 134.748 173.519 134.97 173.439 135.21C173.358 135.45 173.326 135.704 173.345 135.956C173.363 136.209 173.432 136.456 173.547 136.681C173.662 136.907 173.821 137.108 174.015 137.271C174.208 137.434 174.432 137.558 174.674 137.633C174.916 137.709 175.17 137.736 175.422 137.713C175.674 137.69 175.919 137.616 176.143 137.497C176.366 137.378 176.564 137.216 176.724 137.02V137.02ZM145.449 88.2976C134.445 90.6558 122.734 95.2648 111.488 101.758C83.6548 117.827 65.4993 141.519 68.0218 158.701C68.0532 158.953 68.1345 159.196 68.2611 159.416C68.3877 159.636 68.557 159.828 68.7589 159.982C68.9609 160.135 69.1916 160.247 69.4374 160.311C69.6831 160.374 69.9391 160.388 70.1902 160.351C70.4413 160.314 70.6825 160.227 70.8997 160.096C71.1168 159.964 71.3055 159.791 71.4547 159.585C71.6039 159.38 71.7106 159.147 71.7685 158.9C71.8264 158.653 71.8344 158.397 71.7919 158.146C69.5541 142.893 86.7626 120.433 113.392 105.059C124.303 98.7597 135.644 94.2981 146.248 92.0237C146.727 91.9032 147.141 91.6015 147.402 91.182C147.663 90.7625 147.751 90.258 147.648 89.7749C147.544 89.2917 147.257 88.8677 146.847 88.5921C146.437 88.3165 145.935 88.211 145.449 88.2976Z" fill="#2DD0ED"/>
<path d="M100.36 170.611C106.725 188.376 117.133 199.316 128.839 199.316C137.375 199.316 145.272 193.498 151.432 183.253C151.57 183.038 151.663 182.798 151.707 182.547C151.751 182.295 151.743 182.038 151.686 181.789C151.613 181.478 151.464 181.189 151.251 180.951C151.038 180.712 150.769 180.531 150.468 180.424C150.166 180.317 149.843 180.288 149.527 180.338C149.212 180.389 148.914 180.518 148.661 180.714C148.46 180.871 148.292 181.066 148.167 181.289C142.631 190.496 135.831 195.506 128.839 195.506C119.117 195.506 109.832 185.748 103.95 169.326C103.869 169.085 103.741 168.863 103.574 168.672C103.406 168.482 103.202 168.326 102.974 168.215C102.746 168.105 102.498 168.041 102.245 168.027C101.991 168.013 101.738 168.051 101.499 168.136C101.261 168.222 101.041 168.355 100.854 168.526C100.667 168.697 100.517 168.904 100.411 169.135C100.305 169.365 100.245 169.614 100.237 169.868C100.229 170.122 100.271 170.374 100.362 170.611H100.36ZM158.481 167.135C161.775 156.611 163.542 144.467 163.542 131.813C163.542 100.241 152.493 73.0222 136.753 66.0329C136.293 65.8394 135.775 65.834 135.311 66.0178C134.847 66.2017 134.474 66.5602 134.271 67.0163C134.069 67.4725 134.053 67.9898 134.228 68.4573C134.403 68.9247 134.754 69.305 135.206 69.5165C149.244 75.7509 159.732 101.581 159.732 131.813C159.732 144.088 158.018 155.849 154.844 165.997C154.762 166.238 154.729 166.492 154.747 166.746C154.765 166.999 154.834 167.247 154.949 167.474C155.122 167.815 155.394 168.096 155.73 168.281C156.066 168.465 156.449 168.544 156.83 168.508C157.212 168.471 157.573 168.321 157.867 168.076C158.162 167.831 158.376 167.503 158.481 167.135V167.135ZM194.374 165.269C194.382 164.066 194.151 162.874 193.696 161.76C193.241 160.647 192.571 159.635 191.723 158.781C190.875 157.928 189.867 157.251 188.757 156.789C187.646 156.327 186.455 156.089 185.253 156.089C184.05 156.089 182.859 156.327 181.748 156.789C180.638 157.251 179.63 157.928 178.782 158.782C177.934 159.635 177.264 160.647 176.809 161.761C176.354 162.874 176.124 164.067 176.131 165.269C176.147 167.678 177.115 169.983 178.824 171.681C180.533 173.379 182.844 174.332 185.253 174.332C187.662 174.332 189.973 173.379 191.682 171.681C193.391 169.983 194.359 167.678 194.374 165.269ZM190.562 165.269C190.562 166.677 190.002 168.027 189.007 169.023C188.011 170.019 186.661 170.578 185.253 170.578C184.203 170.578 183.176 170.267 182.303 169.683C181.43 169.1 180.75 168.271 180.348 167.301C179.946 166.331 179.841 165.263 180.046 164.233C180.251 163.204 180.756 162.258 181.499 161.515C182.241 160.773 183.187 160.267 184.217 160.062C185.247 159.857 186.314 159.962 187.284 160.364C188.255 160.766 189.084 161.446 189.667 162.319C190.251 163.192 190.562 164.219 190.562 165.269V165.269ZM72.2936 174.39C73.4915 174.391 74.6776 174.155 75.7844 173.696C76.8911 173.238 77.8967 172.566 78.7437 171.719C79.5908 170.872 80.2626 169.866 80.721 168.76C81.1793 167.653 81.4152 166.467 81.415 165.269C81.4151 164.071 81.1792 162.885 80.7209 161.778C80.2625 160.671 79.5906 159.666 78.7435 158.819C77.8964 157.972 76.8908 157.3 75.7841 156.841C74.6773 156.383 73.4911 156.147 72.2932 156.147C71.0954 156.147 69.9092 156.383 68.8026 156.842C67.6959 157.3 66.6904 157.972 65.8434 158.819C64.9964 159.666 64.3246 160.672 63.8662 161.778C63.4079 162.885 63.172 164.071 63.1721 165.269C63.172 166.467 63.4079 167.653 63.8662 168.76C64.3246 169.866 64.9965 170.872 65.8435 171.719C66.6905 172.566 67.6961 173.238 68.8028 173.696C69.9095 174.155 71.0957 174.39 72.2936 174.39V174.39ZM72.2936 170.578C70.8851 170.578 69.5343 170.019 68.5384 169.023C67.5425 168.027 66.983 166.676 66.983 165.268C66.983 163.859 67.5425 162.509 68.5384 161.513C69.5343 160.517 70.8851 159.957 72.2936 159.957C73.702 159.957 75.0528 160.517 76.0487 161.513C77.0447 162.509 77.6042 163.859 77.6042 165.268C77.6042 166.676 77.0447 168.027 76.0487 169.023C75.0528 170.019 73.702 170.578 72.2936 170.578V170.578Z" fill="#2DD0ED"/>
<path d="M128.839 75.3369C130.643 75.3371 132.407 74.8022 133.907 73.7998C135.407 72.7975 136.576 71.3727 137.266 69.7058C137.84 68.32 138.063 66.8141 137.916 65.3214C137.768 63.8288 137.255 62.3955 136.422 61.1483C135.589 59.9012 134.461 58.8788 133.138 58.1717C131.815 57.4645 130.339 57.0944 128.839 57.0941C127.035 57.0937 125.271 57.6285 123.771 58.6307C122.271 59.6329 121.101 61.0575 120.411 62.7243C119.721 64.3911 119.54 66.2253 119.892 67.9947C120.244 69.7642 121.113 71.3895 122.389 72.665C123.236 73.512 124.242 74.1839 125.348 74.6423C126.455 75.1007 127.641 75.3366 128.839 75.3366V75.3369ZM128.839 71.5246C127.789 71.5245 126.762 71.213 125.889 70.6297C125.016 70.0463 124.336 69.2172 123.934 68.2472C123.666 67.6031 123.529 66.9126 123.529 66.2153C123.529 65.518 123.666 64.8276 123.934 64.1834C124.2 63.5393 124.591 62.9539 125.084 62.4609C125.577 61.9679 126.163 61.5769 126.807 61.3102C127.532 61.0097 128.315 60.8739 129.1 60.9124C129.884 60.951 130.65 61.1629 131.342 61.5331C132.035 61.9032 132.636 62.4223 133.104 63.053C133.572 63.6837 133.894 64.4102 134.047 65.1803C134.2 65.9504 134.181 66.7449 133.99 67.5065C133.799 68.2682 133.442 68.9781 132.944 69.585C132.446 70.192 131.819 70.6809 131.109 71.0166C130.4 71.3523 129.624 71.5265 128.839 71.5265V71.5246ZM130.232 138.265C128.521 138.635 126.733 138.309 125.262 137.361C124.164 136.654 123.301 135.637 122.782 134.439C122.262 133.241 122.11 131.916 122.344 130.632C122.577 129.347 123.187 128.161 124.095 127.223C125.003 126.284 126.169 125.637 127.445 125.361C129.145 125.022 130.909 125.364 132.359 126.314C133.808 127.264 134.826 128.746 135.192 130.44C135.557 132.134 135.242 133.904 134.314 135.368C133.386 136.831 131.92 137.871 130.232 138.264V138.265Z" fill="#2DD0ED"/>
</svg>
