<svg width="257" height="256" viewBox="0 0 257 256" fill="none" xmlns="http://www.w3.org/2000/svg">
<rect x="0.984985" y="0.5" width="255" height="255" rx="31.5" fill="#1D1F23"/>
<rect x="0.984985" y="0.5" width="255" height="255" rx="31.5" stroke="black"/>
<path d="M100.051 109.717L127.034 94.1379C127.366 93.9463 127.742 93.8453 128.126 93.8453C128.509 93.8453 128.885 93.9463 129.217 94.1379L156.201 109.717C156.532 109.909 156.808 110.184 157 110.516C157.191 110.848 157.292 111.224 157.292 111.607V142.765C157.292 143.545 156.876 144.265 156.201 144.656L129.217 160.235C128.885 160.426 128.509 160.527 128.126 160.527C127.742 160.527 127.366 160.426 127.034 160.235L100.051 144.656C99.7188 144.464 99.4432 144.188 99.2516 143.857C99.06 143.525 98.959 143.148 98.9589 142.765V111.607C98.9595 110.827 99.3756 110.107 100.051 109.716" fill="#8080F2"/>
<path d="M198.08 124.633L165.805 68.4845C164.633 66.4544 162.467 64.9567 160.123 64.9567H95.5734C93.2289 64.9567 91.0623 66.4544 89.89 68.4845L57.6161 124.509C56.4439 126.54 56.4439 129.102 57.6161 131.133L89.89 186.821C91.0623 188.851 93.2289 189.889 95.5734 189.889H160.122C162.467 189.889 164.633 188.882 165.805 186.852L198.079 131.073C199.252 129.043 199.252 126.663 198.079 124.633H198.08ZM171.355 151.633C171.355 152.458 170.858 153.222 170.142 153.635L129.032 177.354C128.678 177.556 128.277 177.663 127.869 177.663C127.461 177.663 127.06 177.556 126.706 177.354L85.5639 153.635C84.8489 153.222 84.3484 152.459 84.3484 151.632V104.195C84.3484 103.368 84.8417 102.606 85.5572 102.192L126.666 78.4734C127.019 78.2702 127.42 78.1633 127.828 78.1633C128.236 78.1633 128.637 78.2702 128.991 78.4734L170.135 102.192C170.851 102.606 171.355 103.368 171.355 104.195V151.632V151.633Z" fill="#4B32C3"/>
</svg>
