<svg width="257" height="257" viewBox="0 0 257 257" fill="none" xmlns="http://www.w3.org/2000/svg">
<rect x="0.604492" y="0.985107" width="255" height="255" rx="31.5" fill="#1D1F23"/>
<rect x="0.604492" y="0.985107" width="255" height="255" rx="31.5" stroke="black"/>
<path d="M164.119 86.6305C155.321 89.5672 151.084 94.8349 148.198 103.039C147.453 105.23 145.591 107.654 143.496 109.285L150.712 117.023L127.808 100.988L64.5888 56.7969C64.5888 56.7969 69.151 86.4438 70.7338 97.3518C71.8511 105.043 73.7598 108.493 79.8116 111.989L82.2323 113.294L92.6602 118.795L86.4687 115.578L115.052 131.194L114.866 131.614L84.0945 117.35C85.7239 122.944 88.8894 133.712 90.2395 138.466C91.6826 143.594 93.312 145.459 98.2931 147.276L107.464 150.633L113.143 148.395L105.928 153.197L69.8493 199.019C93.8241 176.737 114.121 168.813 128.971 162.333C147.919 154.129 159.324 148.861 166.772 129.936C172.079 116.65 176.223 99.6361 181.483 93.0631L192.703 78.7059C192.703 78.7059 169.473 84.8592 164.119 86.6305Z" fill="white"/>
</svg>
