<svg width="257" height="256" viewBox="0 0 257 256" fill="none" xmlns="http://www.w3.org/2000/svg">
<rect x="1.32837" y="0.5" width="255" height="255" rx="31.5" fill="#1D1F23"/>
<rect x="1.32837" y="0.5" width="255" height="255" rx="31.5" stroke="black"/>
<path d="M105.273 199.111C118.358 199.111 128.977 188.492 128.977 175.407V151.704H105.273C92.1887 151.704 81.5695 162.323 81.5695 175.407C81.5695 188.492 92.1887 199.111 105.273 199.111Z" fill="#0ACF83"/>
<path d="M81.5695 128C81.5695 114.915 92.1887 104.296 105.273 104.296H128.977V151.704H105.273C92.1887 151.704 81.5695 141.084 81.5695 128Z" fill="#A259FF"/>
<path d="M81.5695 80.5926C81.5695 67.5082 92.1887 56.8889 105.273 56.8889H128.977V104.296H105.273C92.1887 104.296 81.5695 93.6771 81.5695 80.5926Z" fill="#F24E1E"/>
<path d="M128.977 56.8889H152.681C165.765 56.8889 176.384 67.5082 176.384 80.5926C176.384 93.6771 165.765 104.296 152.681 104.296H128.977V56.8889Z" fill="#FF7262"/>
<path d="M176.384 128C176.384 141.084 165.765 151.704 152.681 151.704C139.596 151.704 128.977 141.084 128.977 128C128.977 114.915 139.596 104.296 152.681 104.296C165.765 104.296 176.384 114.915 176.384 128Z" fill="#1ABCFE"/>
</svg>
