<svg width="257" height="256" viewBox="0 0 257 256" fill="none" xmlns="http://www.w3.org/2000/svg">
<rect x="0.641602" y="0.5" width="255" height="255" rx="31.5" fill="#1D1F23"/>
<rect x="0.641602" y="0.5" width="255" height="255" rx="31.5" stroke="black"/>
<path d="M170.484 69.5434C167.024 73.571 165.408 82.6481 168.921 91.8388C172.427 101.036 177.81 99.0391 181.163 108.417C185.591 120.787 183.527 137.411 183.527 137.411C183.527 137.411 188.85 152.821 192.557 136.45C200.758 105.712 170.484 77.1177 170.484 69.5434V69.5434Z" fill="url(#paint0_radial_301_8881)"/>
<path d="M128.248 197.191C163.692 197.191 192.403 168.317 192.403 132.723C192.403 97.129 163.692 68.2545 128.281 68.2545C92.8711 68.2545 64.1595 97.1223 64.1595 132.723C64.0928 168.357 92.8377 197.191 128.248 197.191Z" fill="url(#paint1_radial_301_8881)"/>
<path d="M176.321 172.471C174.932 173.453 173.476 174.328 171.966 175.096C173.97 172.164 175.82 169.125 177.503 165.992C178.872 164.476 180.121 163.007 181.143 161.417C181.637 160.636 182.198 159.674 182.792 158.552C186.392 152.059 190.366 141.56 190.48 130.772V130.746C190.48 130.479 190.486 130.211 190.48 129.951C190.5 127.246 190.219 124.541 189.651 121.896C189.678 122.103 189.705 122.31 189.732 122.517C189.698 122.357 189.671 122.196 189.638 122.036C189.691 122.33 189.732 122.617 189.778 122.898C190.513 129.143 189.992 135.241 187.367 139.729C187.327 139.796 187.28 139.856 187.24 139.923C188.603 133.097 189.057 125.556 187.541 118.008C187.541 118.008 186.933 114.341 182.425 103.2C179.834 96.7883 175.225 91.5317 171.152 87.7044C167.585 83.2894 164.339 80.3238 162.556 78.447C158.823 74.5195 157.26 71.574 156.619 69.6503C156.064 69.3698 148.938 62.4501 148.371 62.1896C145.258 67.012 135.481 82.0872 140.136 96.1805C142.246 102.566 147.576 109.192 153.153 112.912C153.4 113.193 156.472 116.532 157.934 124.066C159.444 131.848 158.649 137.919 155.543 146.903C151.89 154.785 142.527 162.573 133.758 163.367C115.017 165.071 108.152 153.956 108.152 153.956C114.85 156.635 122.25 156.074 126.758 153.295C131.3 150.49 134.045 148.406 136.269 149.227C138.466 150.042 140.216 147.671 138.646 145.213C136.169 141.399 131.654 139.429 127.173 140.217C122.631 140.958 118.47 144.552 112.513 141.072C112.125 140.852 111.751 140.604 111.398 140.337C111.003 140.077 112.673 140.731 112.286 140.437C111.13 139.81 109.08 138.434 108.546 137.946C108.459 137.866 109.447 138.26 109.354 138.18C103.791 133.598 104.485 130.499 104.659 128.555C104.799 126.999 105.807 125.008 107.511 124.2C108.332 124.648 108.846 124.995 108.846 124.995C108.846 124.995 108.492 124.28 108.305 123.899C108.372 123.873 108.432 123.879 108.499 123.853C109.174 124.18 110.663 125.022 111.451 125.536C112.473 126.257 112.8 126.898 112.8 126.898C112.8 126.898 113.067 126.752 112.867 126.124C112.793 125.863 112.486 125.048 111.471 124.22L111.531 124.227C112.139 124.574 112.713 124.968 113.247 125.416C113.535 124.38 114.049 123.292 113.935 121.355C113.869 119.992 113.895 119.638 113.655 119.11C113.441 118.656 113.775 118.483 114.149 118.95C114.082 118.583 113.975 118.222 113.829 117.881V117.848C114.296 116.225 123.693 111.997 124.374 111.503C125.496 110.708 126.438 109.686 127.139 108.497C127.66 107.662 128.054 106.493 128.148 104.723C128.201 103.448 127.607 102.593 118.103 101.597C115.505 101.344 113.982 99.46 113.114 97.7234C112.954 97.3493 112.793 97.0087 112.633 96.668C112.479 96.274 112.353 95.8665 112.266 95.4524C113.822 90.9907 116.427 87.2169 120.267 84.3648C120.474 84.1711 119.432 84.4116 119.639 84.2245C119.886 84.0041 121.476 83.3629 121.776 83.216C122.143 83.0423 120.207 82.2207 118.49 82.4211C116.747 82.6148 116.373 82.8286 115.445 83.2226C115.832 82.8352 117.061 82.3343 116.774 82.3343C114.89 82.6215 112.56 83.7169 110.556 84.9526C110.549 84.7388 110.596 84.5251 110.676 84.3247C109.748 84.7188 107.457 86.3152 106.796 87.671C106.823 87.4106 106.836 87.1501 106.836 86.8896C106.128 87.484 105.487 88.152 104.926 88.8867L104.892 88.9201C99.4961 86.7426 94.7409 86.6024 90.7204 87.5775C89.8388 86.6959 89.4113 87.3371 87.4077 82.9421C87.2742 82.6749 87.5146 83.2026 87.4077 82.9421C87.0805 82.0872 87.6081 84.0776 87.4077 82.9421C84.0417 85.6005 79.6137 88.6061 77.4899 90.7302C77.4632 90.817 79.9677 90.0222 77.4899 90.7302C76.6217 90.9773 76.6818 91.4916 76.5482 96.1537C76.5148 96.5077 76.5416 96.9018 76.5148 97.2224C74.8185 99.3865 73.663 101.217 73.2223 102.165C71.025 105.952 68.6073 111.85 66.2631 121.181C67.2983 118.65 68.5405 116.212 69.9898 113.894C68.0396 118.85 66.1562 126.625 65.7822 138.601C66.2564 136.129 66.8575 133.685 67.5921 131.28C67.1313 141.219 68.8477 151.138 72.6145 160.342C73.9636 163.641 76.1943 168.644 79.9877 174.134C91.9158 186.685 108.739 194.5 127.373 194.5C146.848 194.5 164.319 185.99 176.321 172.471V172.471Z" fill="url(#paint2_linear_301_8881)"/>
<path d="M161.928 181.589C185.47 178.863 195.889 154.604 182.505 154.123C170.417 153.743 150.775 182.878 161.928 181.589Z" fill="url(#paint3_radial_301_8881)"/>
<path d="M184.202 149.174C200.398 139.749 196.177 119.384 196.177 119.384C196.177 119.384 189.925 126.645 185.678 138.22C181.484 149.682 174.464 154.865 184.202 149.174V149.174Z" fill="url(#paint4_radial_301_8881)"/>
<path d="M132.783 193.638C155.363 200.845 174.771 183.051 162.81 177.113C151.93 171.757 122.07 190.231 132.783 193.638Z" fill="url(#paint5_radial_301_8881)"/>
<path d="M185.885 157.817C186.432 157.042 187.174 154.558 187.835 153.449C191.822 147.01 191.849 141.88 191.849 141.767C194.26 129.737 194.039 124.828 192.557 115.744C191.361 108.43 186.152 97.9505 181.637 92.9077C176.982 87.7112 180.261 89.401 175.753 85.6072C171.806 81.2256 167.973 76.8907 165.889 75.1474C150.815 62.5436 151.156 59.8652 151.443 59.411C151.396 59.4645 151.323 59.5446 151.229 59.6515C151.049 58.9368 150.922 58.3423 150.922 58.3423C150.922 58.3423 142.68 66.5846 140.951 80.3105C139.815 89.2741 143.175 98.6185 148.03 104.596C150.561 107.689 153.42 110.501 156.559 112.979V112.972C160.232 118.242 162.249 124.748 162.249 131.748C162.249 149.274 148.037 163.481 130.505 163.481C128.114 163.481 125.737 163.214 123.406 162.686C115.131 161.11 110.356 156.935 107.971 154.103C106.609 152.48 106.028 151.298 106.028 151.298C113.441 153.956 121.636 153.395 126.618 150.643C131.641 147.858 134.679 145.794 137.144 146.609C139.575 147.417 141.512 145.066 139.775 142.628C138.072 140.19 133.644 136.704 127.072 137.672C122.043 138.407 117.435 141.974 110.85 138.514C110.423 138.293 110.015 138.053 109.614 137.786C109.18 137.532 111.024 138.173 110.596 137.886C109.314 137.265 107.043 135.902 106.455 135.421C106.355 135.341 107.451 135.735 107.35 135.655C101.193 131.107 101.961 128.041 102.154 126.11C102.308 124.568 103.43 122.597 105.313 121.796C106.222 122.243 106.789 122.584 106.789 122.584C106.789 122.584 106.402 121.876 106.188 121.495C106.262 121.468 106.335 121.475 106.402 121.448C107.15 121.769 108.8 122.61 109.668 123.118C110.797 123.833 111.157 124.474 111.157 124.474C111.157 124.474 111.458 124.327 111.237 123.706C111.157 123.452 110.817 122.637 109.695 121.816L109.761 121.822C110.429 122.163 111.064 122.557 111.658 123.005C111.972 121.976 112.54 120.901 112.419 118.977C112.346 117.628 112.379 117.274 112.112 116.753C111.872 116.305 112.246 116.132 112.66 116.592C112.586 116.225 112.473 115.871 112.306 115.53L112.313 115.497C112.827 113.887 123.232 109.699 123.987 109.205C125.209 108.437 126.251 107.422 127.046 106.226C127.627 105.398 128.061 104.242 128.168 102.486C128.201 101.691 127.961 101.07 125.202 100.469C123.546 100.108 120.988 99.7606 117.048 99.3866C114.169 99.1328 112.486 97.2626 111.524 95.5393C111.351 95.1653 111.171 94.8313 110.99 94.4973C110.823 94.1033 110.683 93.7025 110.583 93.2884C112.313 88.7732 115.411 84.9259 119.452 82.2876C119.686 82.1006 118.524 82.3344 118.757 82.1473C119.025 81.9269 120.788 81.2924 121.122 81.1454C121.529 80.9718 119.379 80.1569 117.489 80.3573C115.558 80.551 115.151 80.758 114.116 81.1521C114.543 80.7714 115.906 80.2705 115.585 80.2771C113.501 80.5643 110.917 81.6464 108.706 82.8754C108.699 82.6616 108.746 82.4479 108.84 82.2542C107.811 82.6483 105.28 84.2313 104.545 85.5738C104.579 85.32 104.592 85.0595 104.585 84.799C103.811 85.3801 103.103 86.0414 102.475 86.7761L102.435 86.8095C96.4574 84.6521 91.2013 84.5118 86.7466 85.4803C85.7716 84.6053 84.2087 83.2761 81.9914 78.9212C81.8378 78.6607 81.7577 79.4623 81.6441 79.2018C80.7826 77.2047 80.2617 73.9318 80.3485 71.6809C80.3485 71.6809 78.5653 72.4891 77.096 75.8822C76.8221 76.49 76.6485 76.8306 76.4749 77.1646C76.3947 77.2648 76.6552 76.0491 76.6151 76.1159C76.3613 76.5501 75.6934 77.1579 75.4063 77.9394C75.2059 78.5205 74.9254 78.8478 74.7451 79.5691L74.705 79.6359C74.6916 79.4222 74.7584 78.7543 74.7117 78.8945C74.0238 80.2905 73.4294 81.7332 72.9352 83.2093C72.1404 85.8209 71.2187 89.3676 71.0718 93.9897C71.0384 94.337 71.0651 94.7311 71.0384 95.045C69.1617 97.1891 67.8794 99.0059 67.3985 99.9476C64.9608 103.688 62.2827 109.539 59.6847 118.79C60.8401 116.265 62.2226 113.841 63.8121 111.563C61.6549 116.472 59.5711 124.187 59.1504 136.069C59.6713 133.611 60.3459 131.187 61.154 128.809C60.78 136.73 61.7016 146.549 66.7106 157.63C69.6826 164.149 76.5283 177.381 93.2517 187.707C109.975 198.033 98.9419 191.942 108.719 195.114C109.441 195.375 110.175 195.635 110.923 195.882C110.696 195.789 110.469 195.689 110.242 195.588C116.754 197.539 123.506 198.534 130.305 198.534C155.624 198.554 163.09 188.388 163.09 188.388C163.09 188.388 163.064 188.408 163.017 188.442C163.371 188.108 163.718 187.754 164.052 187.393C160.058 191.167 150.942 191.414 147.529 191.147C153.34 189.437 157.167 187.994 164.607 185.142C165.475 184.821 166.37 184.454 167.278 184.04C167.378 184 167.478 183.946 167.572 183.906C167.752 183.819 167.933 183.746 168.113 183.653C171.739 181.943 175.145 179.812 178.271 177.294C185.745 171.323 187.367 165.505 188.222 161.671C188.102 162.038 187.735 162.893 187.474 163.454C185.551 167.569 181.283 170.1 176.648 172.264C178.852 169.372 180.896 166.36 182.773 163.241C184.282 161.744 184.756 159.393 185.885 157.817V157.817Z" fill="url(#paint6_radial_301_8881)"/>
<path d="M176.788 172.091C179.834 168.731 182.572 164.89 184.643 160.529C189.979 149.314 198.22 130.666 191.729 111.196C186.593 95.8064 179.547 87.3905 170.604 79.1683C156.071 65.8165 152.011 59.8585 152.011 56.3118C152.011 56.3118 135.234 75.0205 142.507 94.524C149.78 114.028 164.687 113.32 174.544 133.678C186.145 157.637 165.154 183.779 147.796 191.1C148.858 190.866 186.379 182.37 188.356 160.909C188.316 161.303 187.468 167.235 176.788 172.091V172.091Z" fill="url(#paint7_radial_301_8881)"/>
<path d="M128.174 102.472C128.234 101.203 127.573 100.355 117.094 99.3732C112.78 98.9724 111.13 94.9916 110.63 93.3084C109.093 97.2959 108.466 101.47 108.806 106.533C109.04 109.846 111.264 113.4 112.326 115.49C112.326 115.49 112.56 115.183 112.673 115.07C114.677 112.986 123.072 109.806 123.86 109.352C124.721 108.804 128.034 106.386 128.174 102.472V102.472Z" fill="url(#paint8_linear_301_8881)"/>
<path d="M82.0315 78.9279C81.8779 78.6674 81.7977 79.4689 81.6842 79.2084C80.8226 77.2113 80.3017 73.9785 80.4219 71.6875C80.4219 71.6875 78.6387 72.4957 77.1694 75.8888C76.8956 76.4966 76.7219 76.8372 76.5483 77.1712C76.4681 77.2714 76.7286 76.0558 76.6885 76.1226C76.4348 76.5567 75.7669 77.1645 75.4797 77.9126C75.2393 78.5271 74.9988 78.8544 74.8118 79.6158C74.7584 79.8229 74.8653 78.7008 74.8185 78.841C71.3924 85.4669 70.7379 95.4792 71.0985 95.0584C78.3916 87.2703 86.7533 85.4201 86.7533 85.4201C85.8717 84.7589 83.9349 82.8687 82.0315 78.9279V78.9279Z" fill="url(#paint9_linear_301_8881)"/>
<path d="M109.714 160.402C99.6362 156.1 88.1823 150.029 88.6098 136.243C89.1975 118.089 105.54 121.675 105.54 121.675C104.926 121.822 103.276 122.998 102.688 124.253C102.074 125.816 100.945 129.35 104.358 133.057C109.721 138.868 93.3449 146.843 118.617 161.905C119.258 162.245 112.7 161.691 109.714 160.402V160.402Z" fill="url(#paint10_linear_301_8881)"/>
<path d="M106.135 151.35C113.281 153.835 121.603 153.401 126.592 150.649C129.931 148.792 134.205 145.814 136.843 146.548C134.566 145.647 132.836 145.226 130.759 145.126C130.405 145.126 129.984 145.119 129.597 145.079C128.836 145.079 128.074 145.119 127.32 145.206C126.031 145.326 124.608 146.134 123.312 146.007C123.246 146.001 124.568 145.46 124.461 145.486C123.773 145.627 123.025 145.66 122.237 145.76C121.736 145.814 121.302 145.88 120.808 145.9C105.921 147.163 93.3451 137.833 93.3451 137.833C92.2698 141.432 98.1337 148.565 106.135 151.35Z" fill="url(#paint11_linear_301_8881)"/>
<path d="M176.762 172.184C191.815 157.403 199.436 139.436 196.21 119.277C196.21 119.277 197.499 129.61 192.617 140.184C194.961 129.864 195.235 117.04 189.01 103.761C180.702 86.0346 167.038 76.7103 161.815 72.8163C153.914 66.9185 150.635 60.9204 150.575 59.6781C148.21 64.5139 141.071 81.0986 149.807 95.3789C157.995 108.758 170.891 112.732 179.914 125.002C196.551 147.618 176.762 172.184 176.762 172.184V172.184Z" fill="url(#paint12_linear_301_8881)"/>
<path d="M174.604 133.725C169.341 122.858 162.776 118.115 156.565 112.972C157.286 113.981 157.467 114.341 157.867 114.996C163.337 120.82 171.398 135.041 165.541 152.881C154.521 186.471 110.456 170.654 105.834 166.213C107.704 185.649 140.236 194.954 161.421 182.35C173.476 170.935 183.226 151.538 174.604 133.725V133.725Z" fill="url(#paint13_linear_301_8881)"/>
<defs>
<radialGradient id="paint0_radial_301_8881" cx="0" cy="0" r="1" gradientUnits="userSpaceOnUse" gradientTransform="translate(190.438 91.8775) rotate(2.55508) scale(49.705 73.0658)">
<stop offset="0.045" stop-color="#FFEA00"/>
<stop offset="0.12" stop-color="#FFDE00"/>
<stop offset="0.254" stop-color="#FFBF00"/>
<stop offset="0.429" stop-color="#FF8E00"/>
<stop offset="0.769" stop-color="#FF272D"/>
<stop offset="0.872" stop-color="#E0255A"/>
<stop offset="0.953" stop-color="#CC2477"/>
<stop offset="1" stop-color="#C42482"/>
</radialGradient>
<radialGradient id="paint1_radial_301_8881" cx="0" cy="0" r="1" gradientUnits="userSpaceOnUse" gradientTransform="translate(154.993 84.2259) scale(140.089 140.102)">
<stop stop-color="#00CCDA"/>
<stop offset="0.22" stop-color="#0083FF"/>
<stop offset="0.261" stop-color="#007AF9"/>
<stop offset="0.33" stop-color="#0060E8"/>
<stop offset="0.333" stop-color="#005FE7"/>
<stop offset="0.438" stop-color="#2639AD"/>
<stop offset="0.522" stop-color="#401E84"/>
<stop offset="0.566" stop-color="#4A1475"/>
</radialGradient>
<linearGradient id="paint2_linear_301_8881" x1="137.292" y1="161.711" x2="109.618" y2="71.1939" gradientUnits="userSpaceOnUse">
<stop stop-color="#000F43" stop-opacity="0.4"/>
<stop offset="0.485" stop-color="#001962" stop-opacity="0.173"/>
<stop offset="1" stop-color="#002079" stop-opacity="0"/>
</linearGradient>
<radialGradient id="paint3_radial_301_8881" cx="0" cy="0" r="1" gradientUnits="userSpaceOnUse" gradientTransform="translate(175.963 129.431) rotate(5.67027) scale(47.252 47.2564)">
<stop offset="0.003" stop-color="#FFEA00"/>
<stop offset="0.497" stop-color="#FF272D"/>
<stop offset="1" stop-color="#C42482"/>
</radialGradient>
<radialGradient id="paint4_radial_301_8881" cx="0" cy="0" r="1" gradientUnits="userSpaceOnUse" gradientTransform="translate(176.185 83.9169) rotate(5.67019) scale(78.908 78.9144)">
<stop offset="0.003" stop-color="#FFE900"/>
<stop offset="0.157" stop-color="#FFAF0E"/>
<stop offset="0.316" stop-color="#FF7A1B"/>
<stop offset="0.472" stop-color="#FF4E26"/>
<stop offset="0.621" stop-color="#FF2C2E"/>
<stop offset="0.762" stop-color="#FF1434"/>
<stop offset="0.892" stop-color="#FF0538"/>
<stop offset="1" stop-color="#FF0039"/>
</radialGradient>
<radialGradient id="paint5_radial_301_8881" cx="0" cy="0" r="1" gradientUnits="userSpaceOnUse" gradientTransform="translate(180.065 157.814) rotate(5.67019) scale(72.406 72.4117)">
<stop offset="0.003" stop-color="#FF272D"/>
<stop offset="0.497" stop-color="#C42482"/>
<stop offset="0.986" stop-color="#620700"/>
</radialGradient>
<radialGradient id="paint6_radial_301_8881" cx="0" cy="0" r="1" gradientUnits="userSpaceOnUse" gradientTransform="translate(162.519 113.266) scale(113.051 113.061)">
<stop offset="0.156" stop-color="#FFEA00"/>
<stop offset="0.231" stop-color="#FFDE00"/>
<stop offset="0.365" stop-color="#FFBF00"/>
<stop offset="0.541" stop-color="#FF8E00"/>
<stop offset="0.763" stop-color="#FF272D"/>
<stop offset="0.796" stop-color="#F92433"/>
<stop offset="0.841" stop-color="#E91C45"/>
<stop offset="0.893" stop-color="#CF0E62"/>
<stop offset="0.935" stop-color="#B5007F"/>
</radialGradient>
<radialGradient id="paint7_radial_301_8881" cx="0" cy="0" r="1" gradientUnits="userSpaceOnUse" gradientTransform="translate(154.013 56.4954) scale(133.493 133.505)">
<stop offset="0.279" stop-color="#FFEA00"/>
<stop offset="0.402" stop-color="#FFDD00"/>
<stop offset="0.63" stop-color="#FFBA00"/>
<stop offset="0.856" stop-color="#FF9100"/>
<stop offset="0.933" stop-color="#FF6711"/>
<stop offset="0.994" stop-color="#FF4A1D"/>
</radialGradient>
<linearGradient id="paint8_linear_301_8881" x1="61.7994" y1="111.968" x2="113.167" y2="104.172" gradientUnits="userSpaceOnUse">
<stop stop-color="#C42482" stop-opacity="0.5"/>
<stop offset="0.474" stop-color="#FF272D" stop-opacity="0.5"/>
<stop offset="0.486" stop-color="#FF2C2C" stop-opacity="0.513"/>
<stop offset="0.675" stop-color="#FF7A1A" stop-opacity="0.72"/>
<stop offset="0.829" stop-color="#FFB20D" stop-opacity="0.871"/>
<stop offset="0.942" stop-color="#FFD605" stop-opacity="0.964"/>
<stop offset="1" stop-color="#FFE302"/>
</linearGradient>
<linearGradient id="paint9_linear_301_8881" x1="79.8502" y1="93.58" x2="74.0194" y2="72.6791" gradientUnits="userSpaceOnUse">
<stop stop-color="#891551" stop-opacity="0.6"/>
<stop offset="1" stop-color="#C42482" stop-opacity="0"/>
</linearGradient>
<linearGradient id="paint10_linear_301_8881" x1="91.0224" y1="124.116" x2="103.015" y2="140.846" gradientUnits="userSpaceOnUse">
<stop offset="0.005" stop-color="#891551" stop-opacity="0.5"/>
<stop offset="0.484" stop-color="#FF272D" stop-opacity="0.5"/>
<stop offset="1" stop-color="#FF272D" stop-opacity="0"/>
</linearGradient>
<linearGradient id="paint11_linear_301_8881" x1="113.926" y1="153.447" x2="115.015" y2="142.694" gradientUnits="userSpaceOnUse">
<stop stop-color="#C42482"/>
<stop offset="0.083" stop-color="#C42482" stop-opacity="0.81"/>
<stop offset="0.206" stop-color="#C42482" stop-opacity="0.565"/>
<stop offset="0.328" stop-color="#C42482" stop-opacity="0.362"/>
<stop offset="0.447" stop-color="#C42482" stop-opacity="0.204"/>
<stop offset="0.562" stop-color="#C42482" stop-opacity="0.091"/>
<stop offset="0.673" stop-color="#C42482" stop-opacity="0.023"/>
<stop offset="0.773" stop-color="#C42482" stop-opacity="0"/>
</linearGradient>
<linearGradient id="paint12_linear_301_8881" x1="148.838" y1="61.5301" x2="193.022" y2="160.324" gradientUnits="userSpaceOnUse">
<stop stop-color="#FFF14F"/>
<stop offset="0.268" stop-color="#FFEE4C"/>
<stop offset="0.452" stop-color="#FFE643"/>
<stop offset="0.612" stop-color="#FFD834"/>
<stop offset="0.757" stop-color="#FFC41E"/>
<stop offset="0.892" stop-color="#FFAB02"/>
<stop offset="0.902" stop-color="#FFA900"/>
<stop offset="0.949" stop-color="#FFA000"/>
<stop offset="1" stop-color="#FF9100"/>
</linearGradient>
<linearGradient id="paint13_linear_301_8881" x1="157.561" y1="118.35" x2="136.631" y2="174.541" gradientUnits="userSpaceOnUse">
<stop stop-color="#FF8E00"/>
<stop offset="0.04" stop-color="#FF8E00" stop-opacity="0.858"/>
<stop offset="0.084" stop-color="#FF8E00" stop-opacity="0.729"/>
<stop offset="0.13" stop-color="#FF8E00" stop-opacity="0.628"/>
<stop offset="0.178" stop-color="#FF8E00" stop-opacity="0.557"/>
<stop offset="0.227" stop-color="#FF8E00" stop-opacity="0.514"/>
<stop offset="0.282" stop-color="#FF8E00" stop-opacity="0.5"/>
<stop offset="0.389" stop-color="#FF8E00" stop-opacity="0.478"/>
<stop offset="0.524" stop-color="#FF8E00" stop-opacity="0.416"/>
<stop offset="0.676" stop-color="#FF8E00" stop-opacity="0.314"/>
<stop offset="0.838" stop-color="#FF8E00" stop-opacity="0.172"/>
<stop offset="1" stop-color="#FF8E00" stop-opacity="0"/>
</linearGradient>
</defs>
</svg>
