<svg width="337" height="337" viewBox="0 0 337 337" fill="none" xmlns="http://www.w3.org/2000/svg">
<g filter="url(#filter0_d_301_8802)">
<rect x="40.0372" y="36.8911" width="256" height="256" rx="32" fill="#1D1F23"/>
<rect x="40.5372" y="37.3911" width="255" height="255" rx="31.5" stroke="black"/>
</g>
<path d="M184.266 144.573L170.042 157.816L156.839 131.174L163.66 115.855C165.384 112.8 168.203 112.759 169.927 115.855L184.266 144.573Z" fill="#FFA000"/>
<path d="M170.048 157.811L116.844 207.295L156.845 131.174L170.048 157.811Z" fill="#F57F17"/>
<path d="M199.861 124.319C202.409 121.892 205.033 122.71 205.696 126.158L219.527 206.627L173.651 234.168C172.043 235.068 167.776 235.419 167.776 235.419C167.776 235.419 163.896 234.947 162.409 234.128L116.844 207.296L199.861 124.319Z" fill="#FFCA28"/>
<path d="M156.845 131.174L116.844 207.295L134.671 96.0338C135.34 92.586 137.294 92.2343 139.059 95.29L156.845 131.174Z" fill="#FFA000"/>
<defs>
<filter id="filter0_d_301_8802" x="0.0372314" y="0.891113" width="336" height="336" filterUnits="userSpaceOnUse" color-interpolation-filters="sRGB">
<feFlood flood-opacity="0" result="BackgroundImageFix"/>
<feColorMatrix in="SourceAlpha" type="matrix" values="0 0 0 0 0 0 0 0 0 0 0 0 0 0 0 0 0 0 127 0" result="hardAlpha"/>
<feOffset dy="4"/>
<feGaussianBlur stdDeviation="20"/>
<feComposite in2="hardAlpha" operator="out"/>
<feColorMatrix type="matrix" values="0 0 0 0 0.0367917 0 0 0 0 0.0348958 0 0 0 0 0.0484375 0 0 0 0.1 0"/>
<feBlend mode="normal" in2="BackgroundImageFix" result="effect1_dropShadow_301_8802"/>
<feBlend mode="normal" in="SourceGraphic" in2="effect1_dropShadow_301_8802" result="shape"/>
</filter>
</defs>
</svg>
