<svg width="257" height="257" viewBox="0 0 257 257" fill="none" xmlns="http://www.w3.org/2000/svg">
<rect x="0.641602" y="1.2821" width="255" height="255" rx="31.5" fill="#1D1F23"/>
<rect x="0.641602" y="1.2821" width="255" height="255" rx="31.5" stroke="black"/>
<path d="M99.9233 177.743C94.5055 173.481 88.7261 169.395 84.777 163.642C76.4665 153.496 70.0681 141.75 65.6933 129.406C63.0499 121.379 62.1445 112.773 58.7362 105.057C55.1709 99.4521 59.347 93.3253 65.4865 91.5441C68.2192 91.0196 73.0255 88.4416 67.2245 90.2838C62.0239 94.1005 61.5202 86.8205 66.8525 86.3592C70.4929 85.8756 71.8328 82.8959 70.5874 80.2137C66.6814 77.6655 80.0622 74.8659 73.329 71.064C66.3153 63.4975 83.1402 62.0408 78.9886 70.634C77.9954 77.2422 90.7453 69.4227 87.7872 77.0547C90.7929 80.7189 99.0461 77.888 98.8415 83.029C103.221 83.3304 104.725 87.0161 108.836 87.2989C113.098 89.2236 120.822 90.7399 122.273 95.5424C118.045 98.8889 108.255 88.6276 107.785 97.8934C109.062 111.58 108.737 125.679 113.745 138.712C116.113 146.605 121.854 152.817 127.04 158.964C132.002 164.984 138.723 169.222 145.573 172.79C151.582 175.624 158.06 177.504 164.608 178.682C167.264 176.651 171.954 169.098 176.098 172.283C176.294 175.862 167.874 179.764 175.701 179.368C180.298 177.982 183.486 182.923 187.271 178.466C190.758 182.597 201.766 175.827 199.285 184.27C195.929 186.435 191.036 185.127 187.675 188.105C182.135 185.337 177.723 190.581 171.588 189.918C164.776 191.138 157.846 191.631 150.939 191.641C139.608 190.746 128.038 190.369 117.258 186.424C111.187 184.66 105.26 181.201 99.9233 177.743ZM109.493 181.889C115.422 184.453 121.22 187.156 127.718 187.97C138.028 189.405 148.674 191.61 159.021 189.598C154.338 187.484 149.497 190.422 144.832 188.086C139.237 189.29 133.233 187.78 127.544 187.036C121.076 184.154 114.096 182.173 108.038 178.434C100.469 175.669 111.953 181.979 113.997 182.49C118.729 185.176 108.794 181.114 107.393 179.997C103.431 177.774 102.925 178.238 107.001 180.495C107.822 180.976 108.632 181.48 109.493 181.889ZM98.2099 173.915C103.956 176.043 98.1846 169.875 95.5523 170.233C94.3857 168.209 91.0958 166.931 93.4163 165.844C89.241 167.293 89.0423 160.332 87.0804 161.327C82.6632 159.932 85.3617 154.992 80.1002 151.958C79.6195 148.761 74.8728 145.988 73.3595 141.166C72.6899 138.697 67.9953 131.607 70.8798 138.205C73.335 144.557 77.6546 149.997 81.2496 155.43C84.0411 160.603 87.3378 166.01 92.4216 169.237C94.1357 170.881 95.7904 173.4 98.2099 173.915ZM81.6581 155.742C82.7086 157.62 81.859 154.874 81.6581 155.742ZM105.091 176.467C106.363 175.897 103.262 175.749 105.091 176.467ZM108.21 177.605C107.887 176.034 106.787 178.483 108.21 177.605ZM112.115 179.233C113.973 177.463 109.25 178.117 112.115 179.233ZM118.806 182.962C119.935 181.293 115.191 182.332 118.806 182.962ZM105.957 174.005C108.844 172.137 102.227 173.979 105.957 174.005ZM108.886 175.465C108.804 174.478 107.842 175.908 108.886 175.465ZM123.523 184.601C125.876 186.087 137.265 187.856 130.133 185.211C128.94 185.462 116.911 181.809 123.523 184.601ZM100.285 166.503C100.056 165.513 96.6319 165.409 100.285 166.503ZM107.1 170.474C108.873 169.238 103.419 169.521 107.1 170.474ZM112.832 173.989C115.376 173.029 108.703 173.026 112.832 173.989ZM97.5128 163.484C100.273 165.6 108.648 163.755 101.741 162.219C98.5968 160.543 91.5116 159.396 96.341 163.229L97.512 163.483L97.5128 163.484ZM116.714 175.203C117.864 173.243 111.891 174.084 116.714 175.203ZM110.879 170.566C117.631 172.476 105.201 166.295 109.213 169.863L110.102 170.265L110.879 170.566ZM122.577 177.327C128.972 177.388 116.802 176.445 122.577 177.327ZM95.0516 159.783C94.8016 158.593 93.4743 159.884 95.0516 159.783ZM133.394 183.395C133.565 181.243 131.307 184.995 133.394 183.395ZM105.964 166.466C105.577 165.333 103.966 166.419 105.964 166.466ZM95.658 159.035C99.3296 158.815 90.6322 157.418 95.658 159.035ZM83.4489 151.144C82.9921 149.384 79.4544 147.98 83.4489 151.144ZM115.5 171.485C115.184 171.652 114.828 170.718 115.5 171.485ZM135.45 183.727C135.386 182.555 134.364 184.17 135.45 183.727ZM113.735 169.661C114.094 168.151 110.604 169.204 113.735 169.661ZM98.8728 160.242C101.603 159.95 94.4981 158.396 98.8728 160.242ZM124.013 175.864C128.269 174.178 119.866 175.041 124.013 175.864ZM110.936 166.987C115.841 167.62 105.1 163.65 109.86 166.632L110.936 166.987ZM127.984 177.469C132.563 174.732 131.054 183.881 135.754 178.243C140.389 174.858 131.75 182.428 137.463 178.846C141.596 176.083 147.699 180.156 151.554 181.485C154.326 181.349 157.022 183.883 159.864 182.341C165.336 180.868 149.164 180.155 153.404 177.541C148.396 178.998 144.699 175.804 142.235 172.597C136.619 171.3 130.125 168.429 127.323 163.459C126.18 161.593 128.974 163.722 126.336 160.671C122.952 157.662 121.262 154.246 118.991 150.587C116.277 149.139 115.961 144.878 115.686 150.444C115.709 146.931 112.41 144.566 111.606 145.55C111.591 142.166 115.134 143.862 112.654 141.359C112.12 137.852 110.362 134.198 109.833 130.24C109.012 128.331 109.717 124.244 107.031 128.564C106.052 133.13 106.706 122.954 108.229 126.31C110.226 122.885 107.511 123.288 107.4 123.763C108.702 120.874 108.223 116.775 107.06 118.339C107.754 115.277 108.156 107.069 106.022 108.524C107.316 105.322 108.475 93.8714 102.86 98.2371C100.585 98.2691 96.6445 99.063 94.7823 99.9893C100.623 103.209 94.1945 101.152 91.8174 100.64C91.5079 103.619 89.1532 102.331 86.2114 102.36C90.9098 102.941 83.9236 107.166 81.2281 105.525C77.7275 107.198 84.2487 111.374 81.298 112.665C81.6603 114.612 75.9352 111.962 76.3846 116.458C72.986 115.028 75.9166 121.791 77.6167 119.504C83.3976 121.068 81.6864 124.634 81.8329 128.022C80.8918 129.996 77.1829 123.382 81.0071 123.689C77.9909 118.788 77.6703 121.917 75.1637 124.194C74.5804 124.359 81.5577 127.433 77.1792 128.953C81.0317 129.548 81.141 132.919 81.9259 135.052C84.2405 137.463 83.7673 132.388 86.5373 135.287C84.7844 132.705 77.2514 128.012 83.3157 129.517C83.2837 126.918 82.2191 124.823 84.0776 124.874C85.9175 121.541 82.1506 133.091 86.2984 128.854C87.4464 128.354 87.7306 125.518 89.7952 129.122C92.7921 132.071 90.8778 134.209 86.6489 131.508C87.4055 134.075 92.3055 134.992 91.3844 139.005C92.3613 142.535 93.7265 141.235 94.9169 141.031C95.8514 144.46 96.3811 141.938 96.4258 140.307C100.702 141.222 99.7001 143.75 101.039 145.515C103.985 146.846 96.8201 136.5 101.879 142.405C107.202 147.21 103.875 149.216 99.099 148.447C102.122 148.201 103.097 152.533 106.878 152.381C110.327 154.021 112.661 160.322 106.718 157.698C104.657 155.84 97.361 153.547 103.32 157.082C108.822 159.631 113.193 161.156 118.5 164.354C122.299 167.066 123.94 170.172 125.379 170.786C122.188 172.311 115.759 169.569 120.532 168.728C117.555 168.186 114.207 166.681 117.058 170.39C119.483 172.414 125.649 172.2 126.755 172.429C125.818 174.494 124.21 174.658 126.793 174.819C123.911 176.354 127.717 176.592 127.984 177.469ZM122.091 160.826C120.337 158.993 119.884 155.558 121.779 158.547C122.751 158.937 124.893 164.159 122.091 160.826ZM141.284 173.018C142.377 172.947 141.316 173.849 141.284 173.018ZM119.322 156.33C119.956 158.468 119.255 153.558 119.322 156.33ZM117.415 153.763C120.195 154.97 115.209 149.502 117.415 153.763ZM94.2972 137.808C95.5925 137.463 94.9348 140.025 94.2972 137.808ZM112.695 147.781C113.63 150.288 113.491 144.792 112.695 147.781ZM99.6971 138.743C101.614 140.29 98.7813 137.094 99.6971 138.743ZM110.852 142.319C108.763 137.637 112.331 139.762 111.314 143.086L110.852 142.319ZM91.6158 129.49C90.6813 127.954 89.1361 123.448 89.6338 122.073C90.0839 124.312 94.3984 131.714 91.7505 125.138C88.8236 119.626 95.248 126.927 95.9094 128.302C96.2167 129.67 94.1037 127.929 95.5352 131.135C92.9238 127.485 93.9936 133.152 91.6158 129.49ZM85.6712 125.394C87.032 127.842 85.9153 121.823 85.6712 125.394ZM88.3452 126.314C90.5087 130.071 89.6211 123.619 88.3452 126.314ZM81.9118 121.338C79.6984 119.138 78.0973 117.112 82.016 119.973C83.5263 120.032 78.6605 115.363 82.379 118.49C86.2895 119.203 84.3097 124.901 81.9118 121.338ZM85.2911 121.25C86.5767 119.976 85.9733 122.503 85.2911 121.25ZM87.3705 121.916C89.735 123.448 85.4213 118.263 87.3705 121.916ZM83.2369 117.966C76.8028 112.24 91.3227 120.96 84.2881 119.027L83.2369 117.966ZM101.673 128.678C98.8884 127.008 100.935 116.924 101.885 123.821C104.591 122.945 101.735 127.383 103.754 127.342C103.436 130.141 102.533 131.148 101.672 128.678H101.673ZM108.492 132.708C109.066 134.785 108.765 129.669 108.492 132.708ZM107.308 131.538C107.614 130.24 107.339 133.066 107.308 131.538ZM84.4994 116.085C80.3658 110.381 96.5128 121.854 87.1466 117.531C86.1682 117.275 84.9905 117.185 84.4994 116.085ZM97.6303 123.047C98.5038 123.843 97.239 118.244 97.6303 123.047ZM107.6 129.442C108.371 126.706 107.657 131.251 107.6 129.442ZM85.1326 113.907C87.5893 113.383 95.3142 118.222 88.2202 115.291C87.4315 114.418 85.7516 114.815 85.1326 113.907ZM106.229 124.424C106.492 119.513 107.696 121.491 106.238 125.127L106.229 124.424ZM86.9606 112.2C87.9613 110.732 84.303 105.561 87.4881 110.345C88.8645 111.439 91.4722 112.177 89.1695 112.637C92.7913 115.832 88.2864 113.503 86.9606 112.2ZM105.186 122.89C105.878 117.296 105.796 126.167 105.186 122.89ZM84.8707 107.033C85.6355 106.705 85.2747 108.052 84.8707 107.033ZM89.6249 109.862C91.8814 112.725 90.848 107.295 89.6249 109.862ZM103.034 117.322C103.287 118.756 103.021 116.336 103.034 117.322ZM102.257 115.602C103.989 118.034 100.396 111.01 102.257 115.602ZM101.114 112.592C102.176 114.976 100.802 110.695 101.114 112.592ZM102.974 109.568C101.697 107.318 104.587 99.6507 104.91 104.405C103.561 108.111 104.52 110.184 105.461 105.214C107.198 101.302 105.086 112.932 102.974 109.568ZM104.886 98.165C105.442 97.482 105.009 98.9893 104.886 98.165ZM101.694 161.059C101.789 161.479 100.937 160.398 101.694 161.059ZM108.269 164.385C111.926 165.324 111.908 163.816 108.602 163.368C106.824 161.714 101.214 159.959 106.236 163.163C106.568 164.005 107.619 163.986 108.269 164.385ZM95.283 155.76C97.2985 157.262 102.873 160.018 98.1533 156.332C99.7448 154.483 95.1081 153.499 96.646 152.263C92.734 149.869 93.5599 150.081 96.3008 150.157C91.5987 148.055 96.9793 148.212 96.7263 147.136C94.9132 146.778 87.7217 143.939 91.9528 147.369C87.6518 145.176 90.9276 148.186 89.6278 147.867C85.2293 146.669 93.5443 151.217 88.9285 150.088C91.4521 152.088 95.7212 155.21 89.9961 152.204C89.2417 153.29 94.0926 154.935 95.283 155.76ZM102.16 159.71C110.522 162.405 98.0603 156.419 102.16 159.71ZM137.364 181.037C137.472 179.378 136.221 182.452 137.364 181.037ZM140.982 182.56C142.911 180.69 141.061 185.537 144.179 182.102C144.212 179.643 144.082 178.19 140.596 181.178C139.634 181.71 139.204 183.977 140.982 182.56ZM83.5464 146.489C82.9534 144.161 79.3934 144.172 83.5464 146.489ZM87.41 149.02C85.9748 146.642 82.2912 146.867 87.41 149.02ZM109.39 162.276C111.536 164.182 119.247 163.675 111.996 162.511C110.923 160.924 105.178 161.306 109.39 162.276ZM139.605 180.937C142.909 178.166 136.406 182.174 139.605 180.937ZM146.475 185.658C146.496 184.768 145.051 186.047 146.475 185.658ZM146.485 184.413C150.143 180.537 142.941 184.642 146.485 184.413ZM74.044 138.534C70.9266 134.085 72.1059 132.086 69.1001 128.455C68.531 125.677 63.9427 119.375 66.7268 126.052C69.2772 129.957 70.0346 136.003 74.044 138.534ZM145.339 183.181C152.068 178.832 142.577 181.286 145.339 183.181ZM150.475 185.193C153.846 182.3 148.344 184.588 150.475 185.193ZM82.4014 141.572C83.3656 140.138 79.9112 141.389 82.4014 141.572ZM149.403 183.819C152.666 181.716 148.652 182.038 148.812 184.012L149.403 183.819ZM105.125 155.91C105.013 154.49 103.402 156.031 105.125 155.91ZM107.861 157.485C106.991 155.727 106.524 157.761 107.861 157.485ZM154.638 185.241C158.818 182.225 152.105 184.663 153.761 185.812L154.638 185.241ZM153.038 184.467C156.443 181.614 149.443 185.732 153.038 184.467ZM161.215 189.913C163.502 188.382 158.438 189.417 161.215 189.913ZM84.4972 140.538C87.5625 141.225 96.7435 148.085 91.3271 141.013C88.552 140.191 90.2163 133.409 87.3869 134.61C89.2863 137.783 88.9493 139.133 84.9615 137.133C79.9491 134.686 82.1447 138.345 83.1238 139.354C81.7898 139.657 84.89 140.513 84.4972 140.538ZM70.536 129.511C71.0844 127.242 65.4843 117.027 67.8911 124.392C68.7601 125.936 68.6723 128.859 70.536 129.511ZM96.1617 145.31C96.0873 145.123 94.5836 143.99 96.1617 145.31ZM100.048 146.214C100.045 143.811 95.7525 145.238 100.048 146.214ZM133.722 167.443C133.08 165.801 131.183 167.405 133.722 167.443ZM135.339 168.624C135.101 167.705 134.406 168.802 135.339 168.624ZM148.687 177.031C149.971 176.083 147.085 176.91 148.687 177.031ZM77.5096 131.292C81.1812 129.871 73.576 130.278 77.5096 131.292ZM130.758 164.839C130.717 162.462 128.417 165.429 130.758 164.839ZM76.0588 127.912C78.4172 127.115 73.8773 127.387 76.0588 127.912ZM82.905 131.228C82.8619 130.446 82.1811 131.524 82.905 131.228ZM166.404 182.432C169.438 181.817 176.349 183.976 177.466 181.628C173.783 181.538 164.723 179.029 164.294 182.227L165.101 182.353L166.404 182.432ZM85.0805 131.776C85.1333 129.368 83.2026 131.687 85.0805 131.776ZM67.0809 119.29C66.2632 114.7 63.9717 118.595 67.0809 119.29ZM71.3738 120.369C71.4259 118.896 67.4447 119.043 71.3738 120.369ZM73.826 121.574C73.271 122.299 73.117 120.999 73.826 121.574ZM89.2603 131.475C89.9872 130.807 87.5402 130.98 89.2603 131.475ZM72.1929 118.856C71.7778 115.39 67.2208 118.337 72.1929 118.856ZM63.3921 113.147C63.2664 111.547 62.5343 113.75 63.3921 113.147ZM64.7008 112.158C64.4873 110.261 63.5774 112.4 64.7008 112.158ZM71.9325 116.476C74.9911 115.274 66.3629 113.991 71.3076 116.249L71.9325 116.476ZM168.726 176.263C170.683 174.468 166.238 175.708 168.726 176.263ZM180.419 182.324C181.203 180.004 178.444 182.629 180.419 182.324ZM72.6735 112.685C72.995 110.44 70.2481 113.131 72.6735 112.685ZM62.3825 105.79C61.8297 102.622 61.9056 97.0594 67.1925 98.9395C60.1349 100.34 72.0769 107.711 70.5688 101.892C73.5366 102.037 76.3742 100.138 74.817 103.02C80.6641 102.375 84.7174 97.3042 90.3651 98.0147C94.7644 97.4321 99.5744 96.9909 104.315 95.2202C108.214 94.939 111.966 90.7428 109.829 88.2549C104.513 87.8055 98.9494 88.4707 93.074 89.6387C86.564 90.9913 80.6492 93.5633 74.0812 94.6667C67.6783 95.5268 75.3683 97.0363 73.5351 97.3726C70.1938 98.5325 77.5192 99.3145 73.1013 100.536C70.3731 100.018 67.534 99.0801 68.6991 96.2045C62.5656 97.0006 57.176 99.5458 62.0217 105.787L62.3825 105.79ZM77.1614 98.2639C78.5995 92.9666 84.8655 102.623 79.5184 98.967C78.88 98.4894 77.8295 98.0995 77.1614 98.2639ZM77.4411 95.6949C79.5169 94.1489 78.5445 96.5624 77.4411 95.6949ZM80.0764 95.7373C80.2638 93.2992 86.1102 97.0274 81.0406 96.6152L80.0764 95.7373ZM83.6818 94.2872C84.9987 92.7494 84.0597 95.6562 83.6818 94.2872ZM84.6043 93.6697C86.7962 91.036 97.018 91.9883 89.5356 93.413C87.5305 91.9027 85.9941 94.3036 84.6043 93.6697ZM97.9443 91.6133C104.571 94.1704 97.6102 84.4188 97.9443 91.6133ZM101.729 91.5932C103.113 87.967 107.099 90.138 102.369 90.8641C102.472 91.2502 102.23 92.736 101.729 91.5932ZM71.1803 110.823C75.3155 108.292 66.7907 108.626 71.1803 110.823ZM74.2382 111.673C75.6875 110.131 71.0873 111.048 74.2382 111.673ZM65.2291 105.279C67.5913 103.464 62.4331 104.589 65.2291 105.279ZM187.321 181.66C187.39 179.554 185.515 182.609 187.321 181.66ZM174.915 173.193C175.268 170.769 173.32 173.405 174.915 173.193ZM190.732 182.477C194.036 182.488 200.741 181.45 193.554 181.454C192.426 181.63 186.982 181.592 190.732 182.477ZM76.927 110.187C79.6002 110.004 81.1098 107.238 76.4099 107.397C69.1262 106.643 82.8359 109.891 75.4755 108.962C74.4859 109.617 76.8705 110.368 76.927 110.187ZM79.281 111.378C79.002 109.662 78.4552 112.291 79.281 111.378ZM82.074 103.931C83.2346 102.492 80.4692 103.546 82.074 103.931ZM73.1832 89.0696C77.9545 87.4462 84.4794 85.6226 86.7314 89.8686C84.4392 87.1091 85.8067 84.3928 87.9717 88.4275C91.034 92.5098 92.5666 86.5705 90.5757 85.2015C92.8449 88.0213 95.4266 89.3538 92.0949 85.3801C95.7153 81.0254 84.8461 85.95 82.3761 85.9009C81.1872 86.4336 70.1045 88.7266 73.1832 89.0703V89.0696ZM75.9799 83.7143C78.7007 81.6608 85.39 84.9359 81.0979 81.6735C80.6775 81.3029 71.6974 84.1473 75.9799 83.7143ZM85.8997 84.1235C89.084 84.2053 84.5262 79.8455 88.3206 81.8215C87.6979 79.7852 83.9028 79.4035 82.0472 78.5903C80.9982 80.4518 84.1832 84.1488 85.8997 84.1242V84.1235ZM77.7186 75.1196C78.8205 73.6264 75.7879 75.877 77.7186 75.1196ZM81.7734 76.0905C86.9055 75.4097 80.4655 73.8808 80.7393 76.0354L81.7734 76.0905ZM74.2032 70.166C70.5896 65.449 80.9989 70.9584 77.3273 66.0197C74.2374 63.5593 71.2681 68.7889 74.2025 70.166H74.2032ZM120.577 95.1436C122.234 92.2055 113.734 91.1833 119.46 94.102C119.987 94.2791 119.868 95.3467 120.577 95.1436Z" fill="white"/>
</svg>
