<svg width="256" height="257" viewBox="0 0 256 257" fill="none" xmlns="http://www.w3.org/2000/svg">
<rect x="0.5" y="0.936035" width="255" height="255" rx="31.5" fill="#1D1F23"/>
<rect x="0.5" y="0.936035" width="255" height="255" rx="31.5" stroke="black"/>
<g clip-path="url(#clip0_307_1360)">
<path d="M171.754 147.517C173.248 149.011 172.189 151.563 170.079 151.563H130.763C129.451 151.563 128.393 152.621 128.393 153.933V193.25C128.393 195.359 125.84 196.418 124.347 194.925L81.9096 152.487C81.317 151.895 80.9851 151.089 80.9851 150.251V106.526C80.9851 105.214 82.0439 104.155 83.3555 104.155H128.393L171.754 147.517Z" fill="white"/>
<path d="M128.392 104.155L85.0305 60.7932C83.5372 59.2999 84.596 56.7478 86.7056 56.7478H173.43C174.741 56.7478 175.8 57.8066 175.8 59.1182V101.785C175.8 103.096 174.741 104.155 173.43 104.155H128.392Z" fill="white"/>
</g>
<defs>
<clipPath id="clip0_307_1360">
<rect width="94.8148" height="142.222" fill="white" transform="translate(80.9851 56.7478)"/>
</clipPath>
</defs>
</svg>
