<svg width="257" height="256" viewBox="0 0 257 256" fill="none" xmlns="http://www.w3.org/2000/svg">
<rect x="0.813354" y="0.5" width="255" height="255" rx="31.5" fill="#1D1F23"/>
<rect x="0.813354" y="0.5" width="255" height="255" rx="31.5" stroke="black"/>
<path d="M128.855 56.3118C89.5784 56.3118 57.7434 88.1469 57.7434 127.423C57.7434 166.699 89.5784 198.534 128.855 198.534C168.131 198.534 199.966 166.699 199.966 127.423C199.966 88.1469 168.131 56.3118 128.855 56.3118ZM73.0238 128.163L128.115 183.254C97.8615 182.861 73.4163 158.416 73.0238 128.163ZM141.353 181.86L74.4175 114.924C80.0951 90.1038 102.31 71.5808 128.855 71.5808C147.406 71.5808 163.847 80.6318 174.002 94.5582L166.27 101.379C158.033 89.5691 144.345 81.8379 128.855 81.8379C109.131 81.8379 92.3319 94.3648 85.9831 111.898L144.38 170.289C158.562 165.152 169.468 153.182 173.12 138.357H148.919V127.423H184.702C184.697 153.967 166.174 176.182 141.353 181.86Z" fill="#744C9E"/>
</svg>
