<svg width="257" height="257" viewBox="0 0 257 257" fill="none" xmlns="http://www.w3.org/2000/svg">
<rect x="0.880615" y="0.797119" width="255" height="255" rx="31.5" fill="#1D1F23"/>
<rect x="0.880615" y="0.797119" width="255" height="255" rx="31.5" stroke="black"/>
<path d="M127.892 194.225L154.08 113.63H101.705L127.892 194.225H127.892Z" fill="#E24329"/>
<path d="M127.892 194.225L101.705 113.629H65.0043L127.892 194.225Z" fill="#FC6D26"/>
<path d="M65.0043 113.629L57.0465 138.122C56.6927 139.211 56.6927 140.384 57.0464 141.473C57.4001 142.562 58.0895 143.51 59.0157 144.183L127.892 194.225L65.0038 113.63L65.0043 113.629Z" fill="#FCA326"/>
<path d="M65.0043 113.63H101.705L85.9329 65.0872C85.1212 62.5893 81.5876 62.5899 80.7765 65.0872L65.0043 113.63Z" fill="#E24329"/>
<path d="M127.892 194.225L154.08 113.629H190.78L127.892 194.225H127.892Z" fill="#FC6D26"/>
<path d="M190.78 113.629L198.738 138.122C199.092 139.211 199.092 140.384 198.738 141.473C198.384 142.562 197.695 143.511 196.768 144.183L127.892 194.225L190.78 113.63V113.629Z" fill="#FCA326"/>
<path d="M190.78 113.63H154.08L169.852 65.0872C170.664 62.5893 174.197 62.5899 175.008 65.0872L190.78 113.63Z" fill="#E24329"/>
</svg>
