<svg width="257" height="256" viewBox="0 0 257 256" fill="none" xmlns="http://www.w3.org/2000/svg">
<rect x="0.776123" y="0.5" width="255" height="255" rx="31.5" fill="#1D1F23"/>
<rect x="0.776123" y="0.5" width="255" height="255" rx="31.5" stroke="black"/>
<path d="M116.957 115.048C133.426 105.899 155.981 93.3657 155.981 56.8889H128.67C128.67 77.2978 118.734 82.8176 103.693 91.1736C87.2243 100.326 64.6687 112.854 64.6687 149.335H91.9807C91.9807 128.924 101.917 123.404 116.957 115.048Z" fill="#FF3C00"/>
<path d="M164.229 106.666C164.229 127.076 154.293 132.596 139.253 140.951C122.788 150.1 100.228 162.632 100.228 199.111H127.539C127.539 178.701 137.475 173.181 152.515 164.826C168.984 155.676 191.539 143.146 191.539 106.666H164.229Z" fill="#FF3C00"/>
</svg>
