<svg width="256" height="256" viewBox="0 0 256 256" fill="none" xmlns="http://www.w3.org/2000/svg">
<rect x="0.5" y="0.5" width="255" height="255" rx="31.5" fill="#1D1F23"/>
<rect x="0.5" y="0.5" width="255" height="255" rx="31.5" stroke="black"/>
<path d="M76.6978 184.937L65.2896 56.8889H190.711L179.302 184.868L127.896 199.111" fill="#E44D26"/>
<path d="M128 188.223V67.3993H179.267L169.484 176.641" fill="#F16529"/>
<path d="M88.59 83.059H128V98.7539H105.806L107.258 114.829H128V130.489H92.8767L88.59 83.059ZM93.5681 138.372H109.332L110.438 150.921L128 155.622V172.008L95.7806 163.02" fill="#EBEBEB"/>
<path d="M167.271 83.059H127.93V98.7539H165.819L167.271 83.059ZM164.402 114.829H127.93V130.524H147.29L145.457 150.921L127.93 155.622V171.939L160.081 163.02" fill="white"/>
</svg>
