<svg width="257" height="256" viewBox="0 0 257 256" fill="none" xmlns="http://www.w3.org/2000/svg">
<rect x="1.36548" y="0.5" width="255" height="255" rx="31.5" fill="#1D1F23"/>
<rect x="1.36548" y="0.5" width="255" height="255" rx="31.5" stroke="black"/>
<path d="M199.881 130.53C199.881 119.287 196.975 108.725 191.877 99.5458C213.605 50.3713 168.596 57.5736 166.09 58.0641C156.554 59.9302 147.732 62.9258 139.594 66.7236C138.394 66.6558 137.187 66.6186 135.971 66.6186C105.601 66.6186 80.1799 87.8008 73.6738 116.197C89.6805 98.2397 100.882 90.9942 107.591 88.0953C106.527 89.0468 105.477 90.0132 104.441 90.9942C104.097 91.318 103.767 91.6469 103.428 91.9725C102.749 92.623 102.075 93.2795 101.407 93.9419C101.013 94.3347 100.629 94.7308 100.241 95.1269C99.6537 95.7217 99.0713 96.3208 98.4933 96.9242C98.0855 97.3519 97.6878 97.7803 97.2878 98.2086C96.753 98.7795 96.2224 99.3543 95.6961 99.9331C95.2905 100.381 94.8905 100.829 94.4916 101.279C93.5918 102.291 92.7036 103.313 91.8272 104.345C91.3704 104.885 90.9167 105.427 90.4661 105.971C90.0694 106.451 89.6738 106.93 89.2855 107.41C88.8691 107.925 88.4554 108.442 88.0444 108.962C87.6466 109.463 87.2494 109.963 86.8611 110.464C86.4911 110.94 86.1322 111.414 85.7705 111.889C85.3622 112.426 84.9505 112.963 84.5533 113.497C84.2688 113.879 83.9961 114.258 83.7166 114.639C81.3083 117.924 79.0019 121.282 76.8005 124.71C76.7949 124.718 76.7894 124.725 76.7855 124.734C76.2469 125.574 75.7145 126.418 75.1883 127.265C75.1605 127.31 75.1316 127.356 75.1038 127.402C74.5944 128.224 74.0908 129.049 73.5933 129.879L73.541 129.965C72.2934 132.043 71.0827 134.143 69.9094 136.264C64.1533 146.695 61.351 153.983 61.2299 154.415C43.0532 219.399 99.7833 191.957 107.699 187.86C116.223 192.072 125.819 194.441 135.971 194.441C163.76 194.441 187.404 176.703 196.205 151.931H162.624C157.655 160.325 148.089 166.011 137.099 166.011C120.997 166.011 107.944 153.811 107.944 138.761H199.355C199.702 136.066 199.881 133.319 199.881 130.53ZM187.942 67.6375C193.446 71.3525 197.86 77.1858 190.28 96.8319C183.008 85.1386 172.07 75.9658 159.068 70.9241C164.982 68.068 179.629 62.0263 187.942 67.6375V67.6375ZM70.981 187.73C66.4977 183.133 65.7055 171.936 75.5977 151.533C80.5894 165.886 90.5511 177.912 103.427 185.544C97.0233 189.069 80.0233 197.005 70.981 187.73V187.73ZM107.803 121.285C108.314 106.658 121.044 94.9458 136.684 94.9458C152.325 94.9458 165.056 106.658 165.567 121.285H107.803Z" fill="#1EBBEE"/>
</svg>
