<svg width="257" height="257" viewBox="0 0 257 257" fill="none" xmlns="http://www.w3.org/2000/svg">
<rect x="1.08948" y="1.39111" width="255" height="255" rx="31.5" fill="#1D1F23"/>
<rect x="1.08948" y="1.39111" width="255" height="255" rx="31.5" stroke="black"/>
<path d="M186.319 57.2029H69.8828C62.7622 57.2029 56.99 62.9751 56.99 70.0957V186.532C56.99 193.653 62.7622 199.425 69.8828 199.425H186.319C193.44 199.425 199.212 193.653 199.212 186.532V70.0957C199.212 62.9751 193.44 57.2029 186.319 57.2029Z" fill="#DC395F"/>
<path d="M104.521 101.95C109.248 101.95 113.209 98.2446 113.209 93.3879C113.209 88.5346 109.248 84.8296 104.521 84.8296C99.7927 84.8296 95.8333 88.5346 95.8333 93.3879C95.8333 98.244 99.7927 101.95 104.521 101.95ZM86.5061 147.795C85.9955 149.967 85.7394 152.312 85.7394 154.226C85.7394 161.765 89.8277 166.77 98.5161 166.77C105.722 166.77 111.563 162.491 115.769 155.582L113.201 165.889H127.509L135.687 133.09C137.732 124.785 141.692 120.475 147.698 120.475C152.425 120.475 155.363 123.415 155.363 128.268C155.363 129.674 155.236 131.206 154.724 132.867L150.508 147.944C149.869 150.116 149.614 152.289 149.614 154.332C149.614 161.489 153.829 166.724 162.645 166.724C170.184 166.724 176.188 161.871 179.511 150.244L173.889 148.074C171.078 155.864 168.651 157.272 166.734 157.272C164.817 157.272 163.795 155.995 163.795 153.441C163.795 152.291 164.052 151.015 164.434 149.479L168.523 134.791C169.545 131.342 169.929 128.284 169.929 125.474C169.929 114.486 163.284 108.751 155.235 108.751C147.698 108.751 140.031 115.551 136.199 122.707L139.009 109.862H117.162L114.096 121.176H124.317L118.023 146.376C113.08 157.364 104.001 157.542 102.861 157.287C100.99 156.865 99.7933 156.154 99.7933 153.723C99.7933 152.32 100.049 150.305 100.688 147.876L110.271 109.862H85.9955L82.9288 121.176H93.0216L86.5066 147.795" fill="white"/>
</svg>
