<svg width="257" height="257" viewBox="0 0 257 257" fill="none" xmlns="http://www.w3.org/2000/svg">
<rect x="1.08948" y="0.985107" width="255" height="255" rx="31.5" fill="#1D1F23"/>
<rect x="1.08948" y="0.985107" width="255" height="255" rx="31.5" stroke="black"/>
<path d="M110.318 166.786C110.318 166.786 104.883 169.946 114.186 171.015C125.456 172.301 131.215 172.117 143.635 169.766C143.635 169.766 146.901 171.813 151.46 173.587C123.619 185.519 88.4495 172.896 110.318 166.786ZM106.916 151.214C106.916 151.214 100.82 155.727 110.13 156.689C122.168 157.931 131.676 158.033 148.127 154.865C148.127 154.865 150.403 157.172 153.981 158.434C120.319 168.277 82.8253 159.21 106.916 151.214Z" fill="white"/>
<path d="M135.596 124.801C142.457 132.699 133.794 139.806 133.794 139.806C133.794 139.806 151.213 130.814 143.213 119.554C135.742 109.053 130.012 103.835 161.03 85.8458C161.03 85.8458 112.342 98.0058 135.596 124.801" fill="#E76F00"/>
<path d="M172.419 178.303C172.419 178.303 176.441 181.617 167.989 184.18C151.919 189.049 101.102 190.519 86.9856 184.374C81.9112 182.167 91.4275 179.104 94.4208 178.46C97.5425 177.783 99.3268 177.91 99.3268 177.91C93.6833 173.934 62.8498 185.716 83.665 189.09C140.431 198.296 187.143 184.945 172.419 178.303ZM112.931 135.081C112.931 135.081 87.0828 141.221 103.778 143.45C110.827 144.394 124.879 144.18 137.968 143.083C148.665 142.182 159.407 140.263 159.407 140.263C159.407 140.263 155.635 141.878 152.906 143.741C126.657 150.645 75.9494 147.434 90.5476 140.372C102.893 134.404 112.931 135.081 112.931 135.081H112.931ZM159.3 161C185.984 147.134 173.646 133.81 165.035 135.605C162.924 136.044 161.983 136.424 161.983 136.424C161.983 136.424 162.767 135.197 164.263 134.666C181.299 128.677 194.401 152.33 158.764 161.699C158.764 161.699 159.177 161.33 159.3 161" fill="white"/>
<path d="M143.213 56.7973C143.213 56.7973 157.991 71.5803 129.197 94.3112C106.108 112.546 123.932 122.943 129.188 134.821C115.71 122.661 105.819 111.957 112.455 101.994C122.194 87.3685 149.175 80.278 143.213 56.7969" fill="#E76F00"/>
<path d="M115.553 198.572C141.166 200.212 180.497 197.662 181.428 185.543C181.428 185.543 179.638 190.138 160.261 193.786C138.4 197.9 111.438 197.42 95.4463 194.783C95.4467 194.783 98.72 197.493 115.554 198.572" fill="white"/>
</svg>
