<svg width="257" height="257" viewBox="0 0 257 257" fill="none" xmlns="http://www.w3.org/2000/svg">
<rect x="0.708862" y="0.797119" width="255" height="255" rx="31.5" fill="#1D1F23"/>
<rect x="0.708862" y="0.797119" width="255" height="255" rx="31.5" stroke="black"/>
<path d="M193.771 56.6089H125.284C125.284 64.8084 128.542 72.672 134.34 78.4699C140.137 84.2678 148.001 87.525 156.2 87.525H168.816V99.7061C168.828 116.765 182.654 130.591 199.712 130.603V62.5502C199.712 59.2699 197.053 56.6089 193.771 56.6089Z" fill="#2684FF"/>
<path d="M159.884 90.7334H91.3978C91.4084 107.792 105.234 121.619 122.294 121.63H134.91V133.85C134.932 150.909 148.767 164.726 165.826 164.726V96.6757C165.826 93.3943 163.166 90.734 159.884 90.734V90.7334Z" fill="url(#paint0_linear_301_8875)"/>
<path d="M125.977 124.839H57.4904C57.4904 141.913 71.3325 155.755 88.4064 155.755H101.062V167.935C101.073 184.978 114.875 198.799 131.919 198.831V130.78C131.919 127.499 129.259 124.839 125.977 124.839Z" fill="url(#paint1_linear_301_8875)"/>
<defs>
<linearGradient id="paint0_linear_301_8875" x1="164.361" y1="90.8525" x2="135.404" y2="121.067" gradientUnits="userSpaceOnUse">
<stop offset="0.18" stop-color="#0052CC"/>
<stop offset="1" stop-color="#2684FF"/>
</linearGradient>
<linearGradient id="paint1_linear_301_8875" x1="132.414" y1="125.175" x2="98.9189" y2="158.13" gradientUnits="userSpaceOnUse">
<stop offset="0.18" stop-color="#0052CC"/>
<stop offset="1" stop-color="#2684FF"/>
</linearGradient>
</defs>
</svg>
