<svg width="257" height="256" viewBox="0 0 257 256" fill="none" xmlns="http://www.w3.org/2000/svg">
<rect x="0.708862" y="0.5" width="255" height="255" rx="31.5" fill="#1D1F23"/>
<rect x="0.708862" y="0.5" width="255" height="255" rx="31.5" stroke="black"/>
<path d="M128.481 162.178C159.946 205.072 190.739 150.206 190.693 117.212C190.64 78.2029 151.101 56.4007 128.455 56.4007C92.1064 56.4001 57.4903 86.4407 57.4903 127.543C57.4903 173.228 97.1708 198.534 128.455 198.534C121.376 197.515 97.7831 192.46 97.4664 138.119C97.2525 101.367 109.455 86.6829 128.404 93.1424C128.829 93.2996 149.305 101.377 149.305 127.765C149.305 154.04 128.481 162.178 128.481 162.178V162.178Z" fill="url(#paint0_linear_301_8869)"/>
<path d="M128.444 93.1123C107.653 85.9462 82.1837 103.082 82.1837 137.404C82.1837 193.447 123.713 198.534 128.748 198.534C165.096 198.534 199.713 168.493 199.713 127.391C199.713 81.7056 160.032 56.4001 128.748 56.4001C137.413 55.2001 175.45 65.7778 175.45 117.766C175.45 151.669 147.048 170.126 128.575 162.24C128.15 162.083 107.673 154.005 107.673 127.618C107.673 101.342 128.444 93.1123 128.444 93.1123V93.1123Z" fill="url(#paint1_linear_301_8869)"/>
<defs>
<linearGradient id="paint0_linear_301_8869" x1="78.5243" y1="77.3469" x2="184.763" y2="170.654" gradientUnits="userSpaceOnUse">
<stop/>
<stop offset="1" stop-color="white"/>
</linearGradient>
<linearGradient id="paint1_linear_301_8869" x1="178.717" y1="177.538" x2="63.729" y2="99.0132" gradientUnits="userSpaceOnUse">
<stop/>
<stop offset="1" stop-color="white"/>
</linearGradient>
</defs>
</svg>
