<svg width="257" height="257" viewBox="0 0 257 257" fill="none" xmlns="http://www.w3.org/2000/svg">
<rect x="0.984985" y="0.688232" width="255" height="255" rx="31.5" fill="#1D1F23"/>
<rect x="0.984985" y="0.688232" width="255" height="255" rx="31.5" stroke="black"/>
<path d="M196.305 88.9491C196.356 89.1376 196.382 89.3319 196.382 89.5271V119.869C196.382 120.258 196.279 120.641 196.084 120.978C195.889 121.315 195.608 121.594 195.27 121.788L169.804 136.45V165.512C169.804 166.303 169.384 167.033 168.698 167.431L115.539 198.033C115.417 198.102 115.284 198.146 115.151 198.193C115.102 198.21 115.055 198.24 115.002 198.254C114.631 198.352 114.24 198.352 113.868 198.254C113.807 198.237 113.752 198.204 113.694 198.182C113.572 198.138 113.445 198.099 113.329 198.033L60.1811 167.431C59.8434 167.237 59.5629 166.957 59.3677 166.621C59.1725 166.284 59.0696 165.901 59.0694 165.512V74.4861C59.0694 74.287 59.097 74.0934 59.1468 73.9054C59.1634 73.8418 59.2021 73.7837 59.2242 73.7201C59.2657 73.6039 59.3044 73.485 59.3653 73.3772C59.4067 73.3053 59.4676 73.2472 59.5174 73.1808C59.581 73.0923 59.639 73.0011 59.7137 72.9237C59.7773 72.86 59.8603 72.813 59.9322 72.7577C60.0124 72.6914 60.0843 72.6195 60.1755 72.5669H60.1783L86.7537 57.266C87.0902 57.0724 87.4716 56.9705 87.8598 56.9705C88.2481 56.9705 88.6295 57.0724 88.966 57.266L115.541 72.5669H115.547C115.635 72.6222 115.71 72.6914 115.79 72.755C115.862 72.8103 115.942 72.86 116.006 72.9209C116.083 73.0011 116.139 73.0923 116.205 73.1808C116.252 73.2472 116.316 73.3053 116.354 73.3772C116.418 73.4878 116.454 73.6039 116.498 73.7201C116.52 73.7837 116.559 73.8418 116.576 73.9081C116.627 74.0966 116.653 74.2909 116.653 74.4861V131.34L138.798 118.589V89.5243C138.798 89.3307 138.826 89.1344 138.876 88.9491C138.895 88.8827 138.931 88.8247 138.953 88.7611C138.997 88.6449 139.036 88.526 139.097 88.4181C139.138 88.3462 139.199 88.2882 139.246 88.2218C139.313 88.1333 139.368 88.0421 139.445 87.9646C139.509 87.901 139.589 87.854 139.661 87.7987C139.744 87.7323 139.816 87.6604 139.904 87.6079H139.907L166.485 72.307C166.822 72.1131 167.203 72.011 167.592 72.011C167.98 72.011 168.361 72.1131 168.698 72.307L195.273 87.6079C195.367 87.6632 195.439 87.7323 195.522 87.7959C195.591 87.8512 195.671 87.901 195.735 87.9619C195.812 88.0421 195.868 88.1333 195.934 88.2218C195.984 88.2882 196.045 88.3462 196.083 88.4181C196.147 88.526 196.183 88.6449 196.227 88.7611C196.252 88.8247 196.288 88.8827 196.305 88.9491V88.9491ZM191.952 118.589V93.3571L182.652 98.7109L169.804 106.108V131.34L191.955 118.589H191.952ZM165.376 164.231V138.983L152.739 146.201L116.65 166.798V192.284L165.376 164.231ZM63.4995 78.3162V164.231L112.22 192.281V166.8L86.7675 152.396L86.7592 152.39L86.7482 152.384C86.6624 152.335 86.5905 152.263 86.5103 152.202C86.4412 152.147 86.361 152.102 86.3002 152.042L86.2946 152.033C86.2227 151.964 86.173 151.878 86.1121 151.801C86.0568 151.726 85.9904 151.663 85.9462 151.585L85.9434 151.577C85.8936 151.494 85.8632 151.394 85.8273 151.3C85.7913 151.217 85.7443 151.14 85.7222 151.052V151.049C85.6945 150.944 85.689 150.833 85.6779 150.725C85.6669 150.642 85.6448 150.559 85.6448 150.476V91.0674L72.7995 83.6672L63.4995 78.3189V78.3162ZM87.8626 61.7404L65.7201 74.4861L87.8571 87.2318L109.997 74.4833L87.8571 61.7404H87.8626ZM99.3777 141.284L112.223 133.889V78.3162L102.923 83.67L90.0749 91.0674V146.641L99.3777 141.284ZM167.592 76.7814L145.452 89.5271L167.592 102.273L189.729 89.5243L167.592 76.7814ZM165.376 106.108L152.528 98.7109L143.228 93.3571V118.589L156.074 125.983L165.376 131.34V106.108ZM114.432 162.968L146.906 144.428L163.139 135.164L141.016 122.427L115.544 137.092L92.3287 150.457L114.432 162.968Z" fill="#FF2D20"/>
</svg>
