<svg width="256" height="256" viewBox="0 0 256 256" fill="none" xmlns="http://www.w3.org/2000/svg">
<rect x="0.5" y="0.5" width="255" height="255" rx="31.5" fill="#1D1F23"/>
<rect x="0.5" y="0.5" width="255" height="255" rx="31.5" stroke="black"/>
<path fill-rule="evenodd" clip-rule="evenodd" d="M112.882 72.3405C116.87 65.9658 122.159 60.5043 128.401 56.3118C134.562 60.4065 139.783 65.7642 143.721 72.0263C154.116 86.442 159.358 103.932 158.608 121.69C161.84 124.296 165.169 126.798 168.348 129.455C172.905 133.517 175.025 139.649 173.955 145.656C172.419 153.059 170.948 160.478 169.326 167.864C168.25 171.092 164.754 172.839 161.522 171.759C160.959 171.57 160.428 171.303 159.939 170.962C154.724 166.772 149.642 162.438 144.444 158.245C140.432 162.002 135.244 164.255 129.762 164.62C123.434 164.928 117.246 162.699 112.57 158.423C108.835 161.171 105.363 164.474 101.71 167.425C100.109 168.996 98.3268 170.369 96.3966 171.516C93.2211 172.747 89.6483 171.172 88.4149 167.997C88.3556 167.843 88.3022 167.688 88.2548 167.532C86.5855 160.309 84.8391 153.11 83.2232 145.878C81.966 139.598 84.2313 133.129 89.1353 129.008C91.9728 126.718 94.8459 124.471 97.7397 122.247C98.5432 121.838 98.14 120.919 98.1815 120.21C97.7961 103.09 102.964 86.3027 112.909 72.3643M118.026 94.7202C114.249 99.5857 114.702 106.512 119.091 110.841C124.14 115.769 132.146 115.935 137.393 111.217C141.126 107.852 142.41 102.539 140.622 97.8396C138.811 93.3179 134.609 90.1928 129.756 89.7599C125.255 89.2915 120.828 91.1622 118.023 94.7142" fill="#754ABC"/>
<path d="M111.08 173.555C111.201 171.865 112.669 170.593 114.359 170.712C114.804 170.744 115.237 170.872 115.628 171.088C123.695 174.99 133.106 174.99 141.177 171.088C142.678 170.267 144.56 170.818 145.381 172.322C145.562 172.648 145.681 173.004 145.731 173.374C145.755 177.896 145.755 182.417 145.731 186.939C145.562 188.62 144.062 189.848 142.381 189.676C141.868 189.625 141.379 189.444 140.955 189.154C139.6 188.004 138.378 186.711 137.076 185.501C135.007 189.37 133.068 193.293 130.986 197.15C130.041 198.577 128.116 198.962 126.69 198.016C126.358 197.794 126.071 197.512 125.845 197.183C123.758 193.317 121.828 189.37 119.72 185.507C118.436 186.723 117.211 188.012 115.853 189.16C114.454 190.111 112.547 189.747 111.595 188.347C111.308 187.923 111.13 187.431 111.08 186.918C111.044 182.459 111.08 177.997 111.08 173.537" fill="#754ABC"/>
<path d="M128.302 108.419C131.727 108.499 134.564 105.786 134.644 102.365V102.326C134.588 98.9044 131.768 96.1737 128.346 96.2272L128.302 96.23C124.88 96.1531 122.043 98.8661 121.969 102.287L121.966 102.326C122.025 105.751 124.848 108.478 128.269 108.419H128.302Z" fill="#754ABC"/>
</svg>
