<svg width="256" height="256" viewBox="0 0 256 256" fill="none" xmlns="http://www.w3.org/2000/svg">
<rect x="0.5" y="0.5" width="255" height="255" rx="31.5" fill="#1D1F23"/>
<rect x="0.5" y="0.5" width="255" height="255" rx="31.5" stroke="black"/>
<g clip-path="url(#clip0_301_8850)">
<path d="M57.2814 113.201C57.2814 93.2882 57.2814 83.3312 61.1569 75.7252C64.5657 69.0353 70.0048 63.5962 76.6947 60.1874C84.3008 56.3118 94.2592 56.3118 114.17 56.3118H142.615C162.527 56.3118 172.484 56.3118 180.09 60.1874C186.78 63.5962 192.219 69.0353 195.628 75.7252C199.504 83.3312 199.504 93.2896 199.504 113.201V141.645C199.504 161.558 199.504 171.515 195.628 179.121C192.219 185.811 186.78 191.25 180.09 194.658C172.484 198.534 162.526 198.534 142.615 198.534H114.17C94.2577 198.534 84.3008 198.534 76.6947 194.658C70.0048 191.25 64.5657 185.811 61.1569 179.121C57.2814 171.515 57.2814 161.556 57.2814 141.645V113.201Z" fill="#179DE3"/>
<path d="M167.475 105.548C164.256 104.353 161.333 102.478 158.905 100.05C156.478 97.6225 154.603 94.6994 153.408 91.4805C152.212 94.6985 150.336 97.6207 147.909 100.048C145.481 102.475 142.559 104.351 139.341 105.546C142.559 106.743 145.481 108.619 147.908 111.047C150.335 113.474 152.211 116.397 153.407 119.615C154.602 116.397 156.478 113.474 158.906 111.046C161.334 108.619 164.257 106.743 167.475 105.548Z" fill="white"/>
<path d="M128.566 91.8674H93.0105V162.978H164.107V127.423L128.566 162.964V91.8674Z" fill="white"/>
</g>
<defs>
<clipPath id="clip0_301_8850">
<rect width="142.222" height="142.222" fill="white" transform="translate(57.2814 56.3118)"/>
</clipPath>
</defs>
</svg>
