<svg width="257" height="257" viewBox="0 0 257 257" fill="none" xmlns="http://www.w3.org/2000/svg">
<rect x="0.708862" y="1.39111" width="255" height="255" rx="31.5" fill="#1D1F23"/>
<rect x="0.708862" y="1.39111" width="255" height="255" rx="31.5" stroke="black"/>
<path d="M188.492 167.063C180.754 166.867 174.756 167.653 169.726 169.813C168.275 170.401 165.954 170.402 165.76 172.267C166.534 173.053 166.631 174.33 167.308 175.409C168.47 177.373 170.5 180.024 172.338 181.399C174.369 182.97 176.401 184.541 178.528 185.915C182.301 188.272 186.558 189.646 190.233 192.003C192.362 193.377 194.489 195.146 196.617 196.618C197.681 197.402 198.358 198.68 199.713 199.171V198.876C199.035 197.992 198.841 196.716 198.165 195.734C197.198 194.752 196.23 193.868 195.262 192.886C192.458 189.058 188.975 185.719 185.203 182.97C182.108 180.81 175.336 177.864 174.079 174.231C174.079 174.231 173.982 174.133 173.886 174.035C176.013 173.839 178.528 173.053 180.56 172.464C183.849 171.58 186.847 171.776 190.233 170.893C191.78 170.5 193.328 170.009 194.876 169.518V168.635C193.135 166.867 191.878 164.511 190.04 162.842C185.106 158.52 179.689 154.299 174.079 150.764C171.08 148.8 167.211 147.524 164.019 145.855C162.859 145.265 160.924 144.971 160.247 143.989C158.505 141.829 157.538 138.982 156.281 136.429C153.476 131.028 150.767 125.039 148.349 119.345C146.608 115.515 145.544 111.685 143.416 108.151C133.453 91.4591 122.619 81.3457 105.982 71.4282C102.403 69.3666 98.1465 68.4828 93.6003 67.4032C91.1829 67.3045 88.7638 67.1086 86.3459 67.0099C84.798 66.3225 83.2502 64.4573 81.8958 63.5735C76.3833 60.0383 62.1631 52.3805 58.1006 62.4939C55.4886 68.8756 61.9702 75.1592 64.1941 78.4003C65.8398 80.6583 67.9669 83.2109 69.1278 85.7641C69.805 87.4324 69.9979 89.2011 70.6751 90.9681C72.2235 95.2871 73.6735 100.099 75.7056 104.126C76.7697 106.187 77.9301 108.347 79.2844 110.213C80.0583 111.292 81.4121 111.784 81.7029 113.551C80.3491 115.515 80.2518 118.461 79.4773 120.915C75.9953 132.011 77.3502 145.757 82.2828 153.906C83.8301 156.36 87.5062 161.762 92.4394 159.699C96.7927 157.932 95.8253 152.335 97.0818 147.426C97.3732 146.247 97.1797 145.462 97.7596 144.676V144.873C99.1139 147.622 100.468 150.274 101.725 153.023C104.724 157.833 109.947 162.842 114.3 166.18C116.622 167.947 118.46 170.991 121.362 172.071V171.776H121.168C120.587 170.892 119.717 170.5 118.943 169.812C117.203 168.046 115.267 165.885 113.913 163.921C109.852 158.422 106.272 152.335 103.08 146.051C101.532 143.008 100.178 139.669 98.9204 136.625C98.3394 135.446 98.3394 133.679 97.3726 133.091C95.9215 135.251 93.7938 137.116 92.7296 139.767C90.8927 143.989 90.6986 149.193 90.0215 154.593C89.6345 154.692 89.8274 154.593 89.6339 154.79C86.5394 154.004 85.4752 150.764 84.3138 148.015C81.4116 141.044 80.9279 129.85 83.4437 121.799C84.1209 119.737 87.0231 113.257 85.8622 111.293C85.2818 109.427 83.3464 108.347 82.2828 106.875C81.0257 105.009 79.6708 102.653 78.8007 100.59C76.479 95.0918 75.3181 89.0041 72.8034 83.5055C71.6425 80.9524 69.6121 78.3021 67.9669 75.9454C66.1294 73.2946 64.0979 71.4282 62.6468 68.2864C62.1636 67.2068 61.4859 65.4392 62.2598 64.2609C62.4533 63.4753 62.8397 63.1812 63.6142 62.9848C64.8718 61.9041 68.4512 63.2789 69.7077 63.8681C73.2871 65.3399 76.2855 66.7158 79.2844 68.7774C80.6382 69.7594 82.0893 71.6252 83.8301 72.1162H85.8616C88.9573 72.803 92.4388 72.3126 95.3411 73.1958C100.468 74.8646 105.111 77.3196 109.271 79.9709C121.942 88.1203 132.388 99.7066 139.45 113.551C140.611 115.808 141.094 117.872 142.158 120.227C144.19 125.039 146.705 129.948 148.735 134.661C150.767 139.276 152.701 143.989 155.603 147.819C157.055 149.88 162.858 150.961 165.47 152.041C167.405 152.924 170.404 153.71 172.144 154.79C175.433 156.851 178.722 159.209 181.817 161.466C183.365 162.645 188.201 165.1 188.492 167.063V167.063Z" fill="white"/>
<path d="M89.8269 81.7374C88.1828 81.7374 87.0225 81.9349 85.8616 82.229V82.4254H86.0551C86.8296 83.9965 88.1828 85.0767 89.1497 86.4509C89.9242 88.0215 90.6008 89.5933 91.3753 91.1645C91.4714 91.0657 91.5682 90.9681 91.5682 90.9681C92.9231 89.9855 93.5997 88.4149 93.5997 86.0581C93.0193 85.3713 92.9225 84.6839 92.4388 83.9965C91.859 83.014 90.6008 82.5235 89.8269 81.7374V81.7374Z" fill="white"/>
</svg>
