<svg width="256" height="257" viewBox="0 0 256 257" fill="none" xmlns="http://www.w3.org/2000/svg">
<rect x="0.5" y="0.718018" width="255" height="255" rx="31.5" fill="#1D1F23"/>
<rect x="0.5" y="0.718018" width="255" height="255" rx="31.5" stroke="black"/>
<path fill-rule="evenodd" clip-rule="evenodd" d="M141.024 56.8086C139.995 56.8086 139.04 57.029 138.159 57.3228C140.032 58.5716 141.06 60.2244 141.574 62.0976C141.611 62.3547 141.685 62.5383 141.721 62.7954C141.758 63.0158 141.795 63.2362 141.795 63.4566C141.942 66.6887 140.95 67.0927 140.252 69.0027C139.187 71.4635 139.481 74.108 140.766 76.2383C140.877 76.4954 141.024 76.7892 141.207 77.0463C139.811 67.7539 147.561 66.3582 148.994 63.4566C149.104 60.9223 147.01 59.2327 145.358 58.0574C143.778 57.1024 142.346 56.8086 141.024 56.8086ZM152.703 58.9022C152.556 59.7469 152.667 59.5265 152.63 59.9673C152.593 60.2611 152.593 60.6284 152.557 60.9223C152.483 61.2161 152.41 61.5099 152.299 61.8038C152.226 62.0976 152.116 62.3914 152.006 62.6852C151.859 62.9791 151.749 63.2362 151.602 63.53C151.491 63.677 151.418 63.8238 151.308 63.9708C151.234 64.081 151.161 64.1911 151.087 64.3013C150.904 64.5584 150.72 64.8155 150.536 65.0359C150.316 65.2563 150.132 65.5134 149.875 65.697V65.7338C149.655 65.9175 149.435 66.1378 149.177 66.3215C148.406 66.9091 147.525 67.3499 146.717 67.9008C146.46 68.0845 146.202 68.2314 145.982 68.4518C145.725 68.6354 145.505 68.8191 145.284 69.0394C145.027 69.2598 144.843 69.4802 144.623 69.7373C144.439 69.9577 144.219 70.2148 144.072 70.4719C143.888 70.729 143.705 70.9861 143.558 71.2432C143.411 71.537 143.301 71.7941 143.154 72.0879C143.044 72.3818 142.934 72.6389 142.86 72.9327C142.75 73.2633 142.676 73.5571 142.603 73.851C142.566 73.9979 142.566 74.1815 142.53 74.3284C142.493 74.4754 142.493 74.6223 142.456 74.7692C142.456 75.063 142.419 75.3936 142.419 75.6874C142.419 75.9078 142.419 76.1282 142.456 76.3485C142.456 76.6424 142.493 76.9362 142.566 77.2668C142.603 77.5606 142.677 77.8544 142.75 78.1483C142.86 78.4421 142.934 78.7359 143.044 79.0297C143.117 79.2134 143.227 79.397 143.301 79.544L134.853 76.2751C133.421 75.871 132.025 75.5038 130.593 75.1732C129.821 74.9896 129.05 74.8059 128.279 74.6223C126.075 74.1815 123.835 73.851 121.594 73.6306C121.521 73.6306 121.484 73.5938 121.41 73.5938C119.207 73.3734 117.04 73.2632 114.836 73.2632C113.22 73.2632 111.604 73.3366 110.024 73.4469C107.784 73.5939 105.543 73.8876 103.303 74.2549C102.752 74.3283 102.201 74.4386 101.65 74.5488C100.512 74.7691 99.4097 75.0262 98.3445 75.2833C97.7936 75.4303 97.2426 75.5772 96.6917 75.7241C96.1408 75.9445 95.6266 76.2016 95.1123 76.4219C94.7083 76.6056 94.3043 76.7892 93.9003 76.9729C93.8269 77.0097 93.7533 77.0097 93.7167 77.0463C93.3494 77.2299 93.0188 77.3768 92.6882 77.5605C92.5781 77.5973 92.5046 77.6339 92.4311 77.6707C92.0271 77.8543 91.6231 78.0747 91.2925 78.2583C91.0354 78.3685 90.7783 78.5154 90.558 78.6256C90.4478 78.699 90.3008 78.7726 90.2274 78.8093C89.8968 78.9929 89.5663 79.1766 89.2724 79.3602C88.9419 79.5439 88.648 79.7275 88.3909 79.9111C88.1338 80.0948 87.8767 80.2417 87.6563 80.4253C87.6195 80.4621 87.5829 80.4621 87.5462 80.4988C87.3258 80.6457 87.0687 80.8293 86.8483 81.013C86.8483 81.013 86.8115 81.0497 86.7749 81.0864C86.5913 81.2334 86.4076 81.3802 86.224 81.5271C86.1506 81.5639 86.077 81.6373 86.0036 81.6741C85.8199 81.8211 85.6363 82.0047 85.4527 82.1516C85.4159 82.225 85.3425 82.2618 85.3057 82.2985C85.0853 82.5189 84.8649 82.7026 84.6446 82.9229C84.6078 82.9229 84.6078 82.9597 84.5712 82.9963C84.3508 83.18 84.1304 83.4004 83.91 83.6207C83.8732 83.6575 83.8732 83.6941 83.8366 83.6941C83.653 83.8778 83.4693 84.0614 83.2857 84.2818C83.2123 84.3552 83.102 84.4288 83.0286 84.5022C82.845 84.7225 82.6246 84.9429 82.4042 85.1633C82.3674 85.2367 82.294 85.2735 82.2572 85.3469C81.9634 85.6408 81.7063 85.9346 81.4125 86.2284C81.3757 86.2652 81.3391 86.3018 81.3023 86.3386C80.7146 86.963 80.0902 87.5874 79.4291 88.1384C78.768 88.726 78.0701 89.277 77.3723 89.7544C76.6377 90.2687 75.9398 90.7094 75.1685 91.1501C74.4339 91.5541 73.6626 91.9215 72.8546 92.252C72.0833 92.5826 71.2752 92.8764 70.4672 93.1335C68.9246 93.4641 67.3452 94.0885 65.9862 94.1987C65.6924 94.1987 65.3618 94.2721 65.068 94.3088C64.7374 94.3822 64.4436 94.4558 64.1498 94.5292C63.856 94.6394 63.5621 94.7496 63.2683 94.8598C62.9744 94.97 62.6806 95.1169 62.3868 95.2638C62.1297 95.4474 61.8358 95.5944 61.5787 95.778C61.3216 95.9616 61.0645 96.182 60.8442 96.4024C60.5871 96.5861 60.3299 96.8432 60.1096 97.0635C59.8892 97.3206 59.6688 97.541 59.4852 97.7981C59.3015 98.0919 59.0812 98.349 58.9342 98.6429C58.7506 98.9 58.567 99.1938 58.42 99.4876C58.2731 99.8182 58.1262 100.112 58.016 100.443C57.9058 100.736 57.7956 101.067 57.6854 101.398C57.612 101.691 57.5385 101.985 57.5018 102.279C57.5018 102.316 57.465 102.352 57.465 102.389C57.3916 102.72 57.3916 103.161 57.3548 103.381C57.318 103.638 57.2814 103.858 57.2814 104.116C57.2814 104.262 57.2814 104.446 57.3182 104.593C57.355 104.85 57.3916 105.07 57.4652 105.291C57.5386 105.511 57.6122 105.732 57.7223 105.952V105.989C57.8325 106.209 57.9794 106.43 58.1263 106.65C58.2733 106.87 58.4202 107.091 58.6038 107.311C58.7874 107.495 59.0078 107.715 59.2282 107.899C59.4486 108.119 59.6689 108.303 59.926 108.486C60.8075 109.258 61.0279 109.515 62.1665 110.102C62.3502 110.213 62.5338 110.286 62.7542 110.396C62.791 110.396 62.8276 110.433 62.8644 110.433C62.8644 110.506 62.8644 110.543 62.9012 110.617C62.938 110.911 63.0114 111.204 63.0848 111.498C63.1582 111.829 63.2685 112.123 63.3787 112.38C63.4888 112.6 63.5623 112.82 63.6725 113.041C63.7093 113.114 63.7459 113.188 63.7827 113.224C63.9296 113.518 64.0765 113.775 64.2234 114.032C64.4071 114.29 64.5907 114.547 64.7743 114.804C64.958 115.024 65.1784 115.281 65.3987 115.502C65.6191 115.722 65.8395 115.906 66.0966 116.126C66.0966 116.126 66.1334 116.163 66.17 116.163C66.3904 116.347 66.6108 116.53 66.8311 116.677C67.0882 116.861 67.3453 117.008 67.6392 117.155C67.8963 117.302 68.1901 117.448 68.4839 117.559C68.7043 117.669 68.9614 117.742 69.2185 117.816C69.2553 117.853 69.2919 117.853 69.3655 117.889C69.5125 117.926 69.696 117.962 69.843 117.999C69.7328 119.983 69.696 121.856 69.9899 122.517C70.3205 123.252 71.9366 121.011 73.5527 118.44C73.3323 120.974 73.1854 123.949 73.5527 124.831C73.9567 125.749 76.1604 122.884 78.0703 119.726C104.111 113.702 127.875 131.699 130.373 157.116C129.895 153.149 125.01 150.945 122.77 151.496C121.668 154.214 119.795 157.703 116.783 159.87C117.04 157.446 116.93 154.949 116.416 152.525C115.607 155.904 114.028 159.062 111.861 161.78C108.372 162.037 104.883 160.348 103.046 157.814C102.899 157.703 102.862 157.483 102.752 157.336C102.642 157.079 102.532 156.822 102.458 156.565C102.348 156.308 102.275 156.051 102.238 155.794C102.201 155.536 102.201 155.279 102.201 154.985C102.201 154.802 102.201 154.618 102.201 154.435C102.238 154.177 102.311 153.92 102.385 153.663C102.458 153.406 102.532 153.149 102.642 152.892C102.789 152.635 102.899 152.378 103.083 152.121C103.707 150.358 103.707 148.925 102.569 148.08C102.348 147.933 102.128 147.823 101.871 147.713C101.724 147.676 101.54 147.603 101.393 147.566C101.283 147.529 101.21 147.493 101.099 147.456C100.842 147.383 100.585 147.309 100.328 147.272C100.071 147.199 99.8139 147.162 99.5568 147.162C99.2997 147.125 99.0059 147.089 98.7488 147.089C98.5651 147.089 98.3815 147.125 98.1978 147.125C97.904 147.125 97.6469 147.162 97.3898 147.236C97.1327 147.273 96.8756 147.309 96.6185 147.383C96.3614 147.456 96.1043 147.53 95.8472 147.64C95.5901 147.75 95.3697 147.86 95.1126 147.97C94.8922 148.081 94.6718 148.227 94.4147 148.338C85.8568 153.92 90.9622 166.996 96.8021 170.779C94.5984 171.183 92.3579 171.661 91.7335 172.138C91.6967 172.175 91.6601 172.211 91.6601 172.211C93.2395 173.166 94.8923 173.974 96.6185 174.672C98.9692 175.444 101.467 176.141 102.569 176.435V176.472C105.617 177.096 108.702 177.317 111.824 177.133C128.095 175.995 141.428 163.617 143.852 147.309C143.926 147.64 143.999 147.934 144.073 148.264C144.183 148.925 144.33 149.623 144.403 150.321V150.358C144.476 150.688 144.513 151.019 144.55 151.313V151.46C144.587 151.79 144.623 152.121 144.623 152.415C144.66 152.819 144.697 153.223 144.697 153.627V154.214C144.697 154.398 144.734 154.618 144.734 154.802C144.734 155.022 144.697 155.243 144.697 155.463V155.977C144.697 156.235 144.66 156.455 144.66 156.712C144.66 156.859 144.66 157.006 144.623 157.189C144.623 157.447 144.587 157.704 144.587 157.998C144.55 158.108 144.55 158.218 144.55 158.328C144.513 158.622 144.476 158.879 144.439 159.173C144.439 159.283 144.439 159.393 144.403 159.503C144.366 159.871 144.293 160.201 144.256 160.569V160.605V160.642C144.182 160.973 144.109 161.34 144.035 161.671V161.781C143.962 162.111 143.888 162.442 143.815 162.772C143.815 162.809 143.778 162.883 143.778 162.919C143.705 163.25 143.631 163.581 143.521 163.911V164.021C143.411 164.389 143.301 164.719 143.227 165.05C143.19 165.086 143.19 165.123 143.19 165.123C143.08 165.49 142.97 165.858 142.86 166.225C142.713 166.592 142.603 166.923 142.456 167.29C142.309 167.657 142.199 168.025 142.052 168.355C141.905 168.723 141.758 169.053 141.611 169.42H141.574C141.427 169.751 141.28 170.118 141.097 170.449C141.06 170.559 141.023 170.632 140.987 170.706C140.95 170.743 140.95 170.779 140.913 170.816C138.526 175.628 135 179.851 130.592 183.157C130.299 183.341 130.005 183.561 129.711 183.781C129.637 183.855 129.527 183.892 129.454 183.965C129.197 184.149 128.94 184.332 128.646 184.516L128.756 184.736H128.793C129.307 184.663 129.821 184.589 130.335 184.516H130.372C131.327 184.369 132.282 184.185 133.237 184.002C133.494 183.965 133.788 183.892 134.045 183.818C134.229 183.781 134.376 183.745 134.559 183.708C134.816 183.671 135.073 183.598 135.331 183.561C135.551 183.488 135.771 183.451 135.992 183.377C139.665 182.496 143.227 181.284 146.643 179.851C140.803 187.822 132.98 194.249 123.834 198.473C128.058 198.179 132.282 197.481 136.359 196.306C151.161 191.935 163.612 181.982 171.068 168.576C169.562 177.06 166.183 185.14 161.188 192.192C164.751 189.842 168.019 187.124 170.994 184.039C179.222 175.444 184.621 164.535 186.457 152.819C187.706 158.622 188.074 164.609 187.523 170.522C214.041 133.536 189.726 95.1908 179.552 85.0903C179.516 85.0169 179.479 84.9801 179.479 84.9067C179.442 84.9435 179.442 84.9435 179.442 84.9801C179.442 84.9433 179.442 84.9433 179.405 84.9067C179.405 85.3474 179.369 85.7882 179.332 86.2289C179.222 87.0737 179.112 87.8817 178.965 88.6898C178.781 89.4978 178.561 90.3058 178.34 91.1139C178.083 91.8852 177.789 92.6932 177.459 93.4646C177.128 94.1991 176.761 94.9704 176.357 95.705C175.953 96.4029 175.512 97.1375 175.035 97.7986C174.557 98.4964 174.043 99.1576 173.529 99.7819C172.978 100.443 172.39 101.031 171.802 101.618C171.435 101.949 171.105 102.243 170.737 102.537C170.444 102.794 170.186 103.014 169.893 103.271C169.231 103.785 168.57 104.263 167.836 104.704C167.138 105.144 166.403 105.585 165.669 105.952C164.897 106.32 164.126 106.65 163.355 106.981C162.583 107.275 161.775 107.532 160.967 107.752C160.159 107.973 159.315 108.156 158.507 108.303C157.662 108.45 156.817 108.523 156.009 108.597C155.421 108.634 154.834 108.67 154.246 108.67C153.401 108.67 152.556 108.597 151.748 108.523C150.904 108.45 150.059 108.34 149.251 108.156C148.406 108.009 147.598 107.789 146.79 107.532H146.753C147.561 107.458 148.369 107.385 149.177 107.238C150.022 107.091 150.83 106.907 151.638 106.687C152.446 106.467 153.254 106.209 154.026 105.916C154.834 105.622 155.605 105.254 156.339 104.887C157.111 104.52 157.809 104.116 158.543 103.675C159.241 103.198 159.939 102.72 160.6 102.206C161.261 101.692 161.886 101.141 162.473 100.553C163.098 100.002 163.649 99.3778 164.2 98.7534C164.75 98.0923 165.265 97.4312 165.742 96.7701C165.816 96.6599 165.889 96.513 165.963 96.4028C166.33 95.8151 166.697 95.2274 167.028 94.6398C167.432 93.9052 167.799 93.1706 168.13 92.3993C168.46 91.628 168.754 90.8567 169.011 90.0486C169.268 89.2773 169.452 88.4693 169.635 87.6612C169.782 86.8165 169.929 86.0084 170.003 85.2004C170.076 84.3556 170.15 83.5108 170.15 82.7028C170.15 82.1151 170.113 81.5275 170.076 80.9398C170.003 80.0951 169.893 79.287 169.782 78.479C169.635 77.6342 169.452 76.8262 169.232 76.0181C168.974 75.2468 168.717 74.4388 168.423 73.6675C168.13 72.8961 167.762 72.1248 167.395 71.3902C166.991 70.6557 166.587 69.9211 166.146 69.2232C165.669 68.5254 165.191 67.8643 164.677 67.2031C164.126 66.5787 163.575 65.9543 162.988 65.33C162.694 65.0361 162.363 64.7056 162.033 64.4117C160.38 63.1262 158.654 61.9141 156.927 60.8123C156.67 60.6653 156.45 60.5552 156.193 60.445C154.981 59.6737 153.842 59.2694 152.703 58.9022Z" fill="#E0234E"/>
</svg>
