<svg width="256" height="256" viewBox="0 0 256 256" fill="none" xmlns="http://www.w3.org/2000/svg">
<rect x="0.5" y="0.5" width="255" height="255" rx="31.5" fill="#1D1F23"/>
<rect x="0.5" y="0.5" width="255" height="255" rx="31.5" stroke="black"/>
<path d="M151.802 152.461H139.319L138.276 151.418V122.198C138.276 116.999 136.233 112.969 129.964 112.828C126.737 112.744 123.046 112.828 119.101 112.983L118.509 113.589V125.396V151.404L117.467 152.447H104.984L103.941 151.404V101.487L104.984 100.444H133.077C143.996 100.444 152.844 109.292 152.844 120.211V151.418L151.802 152.461Z" fill="white"/>
<path d="M86.5693 180.118H84.8504L76.2703 171.537V169.819L89.3871 156.702H98.4746L99.6862 157.913V167.001L86.5693 180.118Z" fill="#32E6E2"/>
<path d="M76.2703 83.0724V81.3535L84.8504 72.7732H86.5693L99.6862 85.8901V94.9775L98.4746 96.1892H89.3871L76.2703 83.0724Z" fill="#32E6E2"/>
<path d="M88.3445 133.751H38.4129L37.3704 132.708V120.197L38.4129 119.154H88.3445L89.3871 120.197V132.708L88.3445 133.751Z" fill="#32E6E2"/>
<path d="M218.387 133.751H168.455L167.412 132.708V120.197L168.455 119.154H218.387L219.429 120.197V132.708L218.387 133.751Z" fill="#32E6E2"/>
<path d="M121.2 84.8476V47.3989L122.243 46.3563H134.754L135.796 47.3989V84.8476L134.754 85.8901H122.243L121.2 84.8476Z" fill="#32E6E2"/>
<path d="M121.2 205.506V168.057L122.243 167.015H134.754L135.796 168.057V205.506L134.754 206.548H122.243L121.2 205.506Z" fill="#32E6E2"/>
</svg>
