<svg width="257" height="256" viewBox="0 0 257 256" fill="none" xmlns="http://www.w3.org/2000/svg">
<rect x="1.05225" y="0.5" width="255" height="255" rx="31.5" fill="#1D1F23"/>
<rect x="1.05225" y="0.5" width="255" height="255" rx="31.5" stroke="black"/>
<path d="M142.249 148.931L107.369 141.642C107.223 141.925 107.06 142.199 106.882 142.462L138.635 188.782L140.551 186.869L145.953 153.275C145.04 152.889 144.23 152.296 143.587 151.541C142.943 150.787 142.485 149.893 142.249 148.931V148.931ZM129.525 103.335C128.218 105.34 125.962 106.666 123.394 106.666C122.998 106.666 122.614 106.626 122.236 106.566L106.329 131.455L148.827 113.167C148.814 112.996 148.776 112.836 148.776 112.66C148.776 112.302 148.825 111.956 148.883 111.613L129.525 103.336V103.335ZM130.68 98.7998L151.271 107.604C151.928 107.091 152.678 106.712 153.48 106.489L156.865 85.4445L143.971 72.5508L129.458 95.2604C130.169 96.3126 130.591 97.5335 130.68 98.8004V98.7998ZM173.827 102.406L160.905 89.4822L158.096 106.931C158.808 107.289 159.447 107.776 159.982 108.366L173.827 102.406V102.406ZM142.867 144.335C143.372 143.417 144.099 142.64 144.98 142.073C145.862 141.506 146.871 141.168 147.916 141.089L151.627 118.007C151.336 117.813 151.076 117.582 150.82 117.345L108.078 135.74C108.187 136.186 108.262 136.642 108.298 137.115L142.867 144.335V144.335ZM177.347 105.929L162.396 112.362L199.285 128.133L199.418 128L177.347 105.929ZM150.629 153.345L146.136 181.28L172.227 155.189L153.434 151.265C152.713 152.208 151.741 152.929 150.629 153.345V153.345ZM99.9155 146.162C98.9711 146.162 98.0667 146 97.22 145.713L88.5535 159.276L85.2047 155.929L93.4134 143.085C93.2104 142.833 93.0212 142.57 92.8468 142.297L77.9759 148.7L74.4509 145.175L90.7285 138.169L61.3006 132.027L57.2757 128L58.549 126.727L92.4845 133.811C92.8748 133.071 93.3745 132.393 93.9667 131.802L77.4959 107.777L80.8225 104.451L98.0306 129.553C98.6485 129.41 99.2806 129.336 99.915 129.333C100.642 129.333 101.346 129.435 102.019 129.609L118.122 104.413C116.811 103.053 116.079 101.238 116.08 99.3487C116.08 98.7709 116.153 98.2109 116.28 97.6732L96.1912 89.0844L99.715 85.56L118.748 93.6999C119.713 92.9044 120.867 92.3707 122.098 92.15C123.329 91.9294 124.596 92.0292 125.777 92.4399L140.624 69.2042L128.309 56.8888L57.1979 128L128.309 199.111L135.307 192.113L103.315 145.442C102.245 145.916 101.087 146.162 99.9155 146.162V146.162ZM156.154 119.002L152.378 142.466C153.038 142.997 153.584 143.654 153.985 144.4C154.385 145.145 154.632 145.964 154.709 146.807L176.138 151.28L195.76 131.658L160.342 116.516C159.329 117.865 157.823 118.759 156.154 119.002V119.002Z" fill="#25C7B7"/>
</svg>
