<svg width="256" height="256" viewBox="0 0 256 256" fill="none" xmlns="http://www.w3.org/2000/svg">
<rect x="0.5" y="0.5" width="255" height="255" rx="31.5" fill="#1D1F23"/>
<rect x="0.5" y="0.5" width="255" height="255" rx="31.5" stroke="black"/>
<g clip-path="url(#clip0_301_8858)">
<path d="M128.392 198.534C167.666 198.534 199.504 166.697 199.504 127.423C199.504 88.1494 167.666 56.3118 128.392 56.3118C89.1189 56.3118 57.2814 88.1494 57.2814 127.423C57.2814 166.697 89.1189 198.534 128.392 198.534Z" fill="black"/>
<path d="M175.411 180.772L111.912 98.9785H99.948V155.844H109.519V111.133L167.898 186.56C170.532 184.797 173.042 182.862 175.411 180.772Z" fill="url(#paint0_linear_301_8858)"/>
<path d="M157.627 98.9785H148.146V155.867H157.627V98.9785Z" fill="url(#paint1_linear_301_8858)"/>
</g>
<defs>
<linearGradient id="paint0_linear_301_8858" x1="143.405" y1="148.361" x2="171.454" y2="183.127" gradientUnits="userSpaceOnUse">
<stop stop-color="white"/>
<stop offset="1" stop-color="white" stop-opacity="0"/>
</linearGradient>
<linearGradient id="paint1_linear_301_8858" x1="152.887" y1="98.9785" x2="152.728" y2="140.756" gradientUnits="userSpaceOnUse">
<stop stop-color="white"/>
<stop offset="1" stop-color="white" stop-opacity="0"/>
</linearGradient>
<clipPath id="clip0_301_8858">
<rect width="142.222" height="142.222" fill="white" transform="translate(57.2814 56.3118)"/>
</clipPath>
</defs>
</svg>
