<svg width="256" height="257" viewBox="0 0 256 257" fill="none" xmlns="http://www.w3.org/2000/svg">
<rect x="0.5" y="0.718018" width="255" height="255" rx="31.5" fill="#1D1F23"/>
<rect x="0.5" y="0.718018" width="255" height="255" rx="31.5" stroke="black"/>
<path d="M128.957 78.902C128.957 78.902 123.507 83.2085 117.952 87.4859C112.236 87.3044 101.027 88.5841 94.9534 90.7929C89.3583 87.2483 84.4419 83.3346 84.4419 83.3346C84.4419 83.3346 80.2408 90.5621 77.5988 94.8036C73.6807 96.8874 69.7469 99.2312 66.2408 102.332C62.1629 100.713 57.4357 98.7387 57.2814 98.6734C62.6818 109.566 66.3122 120.473 76.1879 127.029C91.9106 102.198 164.973 104.486 181.02 126.888C191.392 121.479 195.425 109.84 199.504 99.0956C199.056 99.2429 193.507 101.101 189.909 102.473C187.761 100.134 182.699 96.539 179.821 94.8035C177.092 89.8054 173.119 83.0532 173.119 83.0532C173.119 83.0532 168.414 86.5526 162.96 90.3707C155.593 89.0107 146.681 87.3582 139.186 87.7673C134.084 83.5736 128.957 78.902 128.957 78.902Z" fill="#F3D400"/>
<path d="M62.865 121.822C62.865 121.822 70.5192 140.356 75.8352 153.234C98.361 182.952 155.883 185.018 180.959 153.809C186.894 140.436 194.899 121.642 194.899 121.642C188.466 131.172 177.996 137.751 171.548 141.295C166.966 143.806 156.393 145.323 156.393 145.323L128.637 130.939L100.721 145.035C100.721 145.035 90.2887 143.359 85.566 141.152C76.0344 136.063 69.6236 130.052 62.865 121.822Z" fill="#FFE953"/>
</svg>
