<svg width="257" height="257" viewBox="0 0 257 257" fill="none" xmlns="http://www.w3.org/2000/svg">
<rect x="1.32837" y="0.718018" width="255" height="255" rx="31.5" fill="#1D1F23"/>
<rect x="1.32837" y="0.718018" width="255" height="255" rx="31.5" stroke="black"/>
<path d="M141.942 132.386C141.942 132.386 172.425 115.305 172.95 115.567C170.037 104.185 162.732 94.4215 152.636 88.4129C142.539 82.4043 130.473 80.6406 119.08 83.5078C108.361 86.2141 99.0649 92.8807 93.0638 102.165C93.3266 102.165 141.942 132.386 141.942 132.386Z" fill="#0364B8"/>
<path d="M112.247 107.421C106.631 103.983 100.174 102.164 93.5892 102.165H93.0637C83.6568 102.311 74.6922 106.184 68.139 112.934C61.5858 119.684 57.9799 128.76 58.1133 138.167C58.2276 145.296 60.4195 152.237 64.4201 158.139L113.298 153.146L141.942 125.553L112.247 107.421Z" fill="#0F78D4"/>
<path d="M173.213 115.568H171.373C167.481 115.539 163.628 116.345 160.074 117.933L142.204 125.291L161.65 146.839L196.864 157.876C198.672 154.531 199.801 150.862 200.185 147.08C200.569 143.298 200.2 139.476 199.101 135.837C198.002 132.197 196.194 128.811 193.78 125.874C191.366 122.936 188.395 120.505 185.038 118.721C181.339 116.911 177.322 115.84 173.213 115.568Z" fill="#1490DF"/>
<path d="M171.374 142.897L164.016 138.43L147.197 128.444L141.942 125.29L128.54 131.072L102.524 142.109L90.6986 146.839L64.4202 157.876C67.7062 162.566 72.0709 166.399 77.147 169.052C82.2231 171.704 87.862 173.098 93.5893 173.117H171.111C176.334 173.088 181.454 171.659 185.938 168.978C190.421 166.297 194.103 162.463 196.601 157.876L171.374 142.897Z" fill="#28A8EA"/>
</svg>
