<svg width="256" height="256" viewBox="0 0 256 256" fill="none" xmlns="http://www.w3.org/2000/svg">
<rect x="0.5" y="0.5" width="255" height="255" rx="31.5" fill="#1D1F23"/>
<rect x="0.5" y="0.5" width="255" height="255" rx="31.5" stroke="black"/>
<path d="M189.634 114.534C191.411 109.645 191.856 104.756 191.411 99.8674C190.967 94.9785 189.189 90.0896 186.967 85.6452C182.967 78.9785 177.189 73.6452 170.522 70.5341C163.411 67.4229 155.856 66.5341 148.3 68.3118C144.745 64.7563 140.745 61.6452 136.3 59.4229C131.856 57.2007 126.522 56.3118 121.634 56.3118C114.078 56.3118 106.522 58.5341 100.3 62.9785C94.078 67.4229 89.6335 73.6452 87.4113 80.7563C82.078 82.0896 77.6335 84.3118 73.1891 86.9785C69.1891 90.0896 66.078 94.0896 63.4113 98.0896C59.4113 104.756 58.078 112.312 58.9669 119.867C59.8557 127.423 62.9669 134.534 67.8557 140.312C66.078 145.201 65.6335 150.09 66.078 154.979C66.5224 159.867 68.3002 164.756 70.5224 169.201C74.5224 175.867 80.3002 181.201 86.9669 184.312C94.078 187.423 101.634 188.312 109.189 186.534C112.745 190.09 116.745 193.201 121.189 195.423C125.634 197.645 130.967 198.534 135.856 198.534C143.411 198.534 150.967 196.312 157.189 191.867C163.411 187.423 167.856 181.201 170.078 174.09C174.967 173.201 179.856 170.979 183.856 167.867C187.856 164.756 191.411 161.201 193.634 156.756C197.634 150.09 198.967 142.534 198.078 134.979C197.189 127.423 194.522 120.312 189.634 114.534ZM136.3 189.201C129.189 189.201 123.856 186.979 118.967 182.979C118.967 182.979 119.411 182.534 119.856 182.534L148.3 166.09C149.189 165.645 149.634 165.201 150.078 164.312C150.522 163.423 150.522 162.978 150.522 162.09V122.09L162.522 129.201V162.09C162.967 177.645 150.522 189.201 136.3 189.201ZM78.9669 164.756C75.8557 159.423 74.5224 153.201 75.8557 146.978C75.8557 146.978 76.3002 147.423 76.7446 147.423L105.189 163.867C106.078 164.312 106.522 164.312 107.411 164.312C108.3 164.312 109.189 164.312 109.634 163.867L144.3 143.867V157.645L115.411 174.534C109.189 178.09 102.078 178.979 95.4113 177.201C88.3002 175.423 82.5224 170.978 78.9669 164.756ZM71.4113 102.978C74.5224 97.6452 79.4113 93.6452 85.1891 91.4229V92.3118V125.201C85.1891 126.09 85.1891 126.978 85.6335 127.423C86.078 128.312 86.5224 128.756 87.4113 129.201L122.078 149.201L110.078 156.312L81.6335 139.867C75.4113 136.312 70.9669 130.534 69.1891 123.867C67.4113 117.201 67.8557 109.201 71.4113 102.978ZM169.634 125.645L134.967 105.645L146.967 98.5341L175.411 114.978C179.856 117.645 183.411 121.201 185.634 125.645C187.856 130.09 189.189 134.978 188.745 140.312C188.3 145.201 186.522 150.09 183.411 154.09C180.3 158.09 176.3 161.201 171.411 162.979V129.201C171.411 128.312 171.411 127.423 170.967 126.978C170.967 126.978 170.522 126.09 169.634 125.645ZM181.634 107.867C181.634 107.867 181.189 107.423 180.745 107.423L152.3 90.9785C151.411 90.5341 150.967 90.5341 150.078 90.5341C149.189 90.5341 148.3 90.5341 147.856 90.9785L113.189 110.978V97.2007L142.078 80.3118C146.522 77.6452 151.411 76.7563 156.745 76.7563C161.634 76.7563 166.522 78.5341 170.967 81.6452C174.967 84.7563 178.522 88.7563 180.3 93.2007C182.078 97.6452 182.522 102.978 181.634 107.867ZM106.967 132.756L94.9669 125.645V92.3118C94.9669 87.4229 96.3002 82.0896 98.9669 78.0896C101.634 73.6452 105.634 70.5341 110.078 68.3118C114.522 66.0896 119.856 65.2007 124.745 66.0896C129.634 66.5341 134.522 68.7563 138.522 71.8674C138.522 71.8674 138.078 72.3118 137.634 72.3118L109.189 88.7563C108.3 89.2007 107.856 89.6452 107.411 90.5341C106.967 91.4229 106.967 91.8674 106.967 92.7563V132.756ZM113.189 118.534L128.745 109.645L144.3 118.534V136.312L128.745 145.201L113.189 136.312V118.534Z" fill="#FF8BFF"/>
</svg>
