<svg width="257" height="257" viewBox="0 0 257 257" fill="none" xmlns="http://www.w3.org/2000/svg">
<rect x="0.604492" y="1.39111" width="255" height="255" rx="31.5" fill="#1D1F23"/>
<rect x="0.604492" y="1.39111" width="255" height="255" rx="31.5" stroke="black"/>
<path fill-rule="evenodd" clip-rule="evenodd" d="M128.646 164.351C167.919 164.351 199.757 148.216 199.757 128.314C199.757 108.412 167.919 92.2769 128.646 92.2769C89.3728 92.2769 57.5345 108.412 57.5345 128.314C57.5345 148.216 89.3728 164.351 128.646 164.351Z" fill="#6E81B6"/>
<path fill-rule="evenodd" clip-rule="evenodd" d="M143.057 139.962L146.585 121.808C147.381 117.71 146.719 114.654 144.618 112.723C142.583 110.854 139.128 109.946 134.056 109.946H127.947L129.695 100.951C129.727 100.784 129.723 100.611 129.681 100.446C129.639 100.28 129.561 100.126 129.453 99.9947C129.344 99.863 129.208 99.757 129.054 99.6841C128.899 99.6113 128.731 99.5736 128.56 99.5736H120.129C119.575 99.5736 119.1 99.9665 118.994 100.51L115.248 119.783C114.907 117.614 114.068 115.75 112.725 114.211C110.252 111.381 106.34 109.946 101.097 109.946H84.7559C84.2021 109.946 83.7266 110.339 83.6208 110.881L76.0392 149.893C75.973 150.232 76.0615 150.581 76.2817 150.848C76.5009 151.115 76.8277 151.269 77.1742 151.269H85.6717C86.2254 151.269 86.7009 150.876 86.8067 150.332L88.6409 140.896H94.9662C98.2854 140.896 101.075 140.537 103.252 139.828C105.478 139.104 107.527 137.877 109.333 136.186C110.792 134.845 111.998 133.344 112.926 131.725L111.412 139.519C111.345 139.859 111.434 140.209 111.654 140.474C111.873 140.742 112.201 140.896 112.547 140.896H120.978C121.532 140.896 122.007 140.503 122.113 139.96L126.274 118.546H132.059C134.525 118.546 135.247 119.037 135.444 119.248C135.622 119.44 135.992 120.119 135.576 122.257L132.223 139.518C132.19 139.685 132.196 139.858 132.238 140.023C132.28 140.188 132.358 140.342 132.466 140.473C132.575 140.605 132.711 140.711 132.865 140.784C133.019 140.856 133.187 140.894 133.358 140.895H141.923C142.191 140.895 142.451 140.802 142.658 140.632C142.865 140.462 143.006 140.225 143.057 139.962V139.962ZM103.968 124.962C103.439 127.683 102.441 129.624 101.002 130.731C99.54 131.858 97.2019 132.429 94.0521 132.429H90.2858L93.0091 118.415H97.8786C101.456 118.415 102.897 119.179 103.476 119.82C104.278 120.709 104.448 122.488 103.968 124.962V124.962ZM178.572 114.211C176.099 111.381 172.188 109.946 166.945 109.946H150.604C150.049 109.946 149.574 110.339 149.469 110.881L141.888 149.893C141.821 150.232 141.909 150.581 142.129 150.848C142.35 151.115 142.677 151.269 143.021 151.269H151.519C152.074 151.269 152.549 150.876 152.654 150.332L154.489 140.896H160.815C164.135 140.896 166.922 140.537 169.1 139.828C171.327 139.104 173.376 137.877 175.181 136.186C176.688 134.802 177.927 133.247 178.866 131.568C179.805 129.888 180.478 128.015 180.871 126C181.837 121.029 181.063 117.063 178.572 114.211V114.211ZM170.299 124.962C169.768 127.683 168.771 129.624 167.333 130.731C165.87 131.858 163.532 132.429 160.383 132.429H156.616L159.338 118.415H164.209C167.786 118.415 169.227 119.179 169.807 119.82C170.607 120.709 170.778 122.488 170.299 124.962V124.962Z" fill="white"/>
<path fill-rule="evenodd" clip-rule="evenodd" d="M97.6369 117.258C100.865 117.258 103.017 117.854 104.093 119.046C105.168 120.238 105.424 122.284 104.862 125.183C104.274 128.202 103.142 130.357 101.465 131.648C99.7884 132.94 97.2362 133.585 93.8104 133.585H88.6407L91.8137 117.258H97.6369ZM76.9316 150.113H85.429L87.4455 139.742H94.7245C97.9361 139.742 100.579 139.404 102.653 138.729C104.727 138.054 106.612 136.923 108.309 135.335C109.733 134.027 110.885 132.582 111.768 131.004C112.649 129.425 113.275 127.684 113.646 125.779C114.545 121.154 113.866 117.552 111.612 114.973C109.358 112.392 105.771 111.102 100.855 111.102H84.5141L76.9316 150.113V150.113ZM119.887 100.73H128.318L126.302 111.102H133.814C138.539 111.102 141.8 111.926 143.594 113.574C145.388 115.223 145.925 117.895 145.208 121.588L141.681 139.742H133.115L136.469 122.48C136.85 120.516 136.71 119.178 136.047 118.463C135.384 117.749 133.973 117.392 131.817 117.392H125.079L120.735 139.742H112.304L119.887 100.73ZM163.967 117.258C167.195 117.258 169.347 117.854 170.423 119.046C171.498 120.238 171.754 122.284 171.191 125.183C170.605 128.202 169.473 130.357 167.795 131.648C166.12 132.94 163.567 133.585 160.142 133.585H154.973L158.145 117.258H163.967V117.258ZM143.26 150.113H151.758L153.774 139.742H161.053C164.266 139.742 166.908 139.404 168.982 138.729C171.056 138.054 172.942 136.923 174.638 135.335C176.062 134.027 177.215 132.582 178.096 131.004C178.977 129.425 179.604 127.684 179.976 125.779C180.874 121.154 180.196 117.552 177.942 114.973C175.687 112.392 172.101 111.102 167.185 111.102H150.844L143.26 150.113V150.113Z" fill="black"/>
</svg>
