<svg width="257" height="257" viewBox="0 0 257 257" fill="none" xmlns="http://www.w3.org/2000/svg">
<rect x="0.984985" y="1.39111" width="255" height="255" rx="31.5" fill="#1D1F23"/>
<rect x="0.984985" y="1.39111" width="255" height="255" rx="31.5" stroke="black"/>
<path d="M196.268 142.397C195.441 139.886 193.275 138.137 190.474 137.717C189.153 137.52 187.641 137.604 185.851 137.974C182.731 138.619 180.416 138.865 178.727 138.913C185.103 128.118 190.288 115.807 193.272 104.219C198.099 85.482 195.52 76.9459 192.506 73.0849C184.53 62.8651 172.893 57.375 158.854 57.207C151.365 57.1152 144.791 58.5979 141.361 59.6641C138.168 59.0991 134.735 58.7837 131.132 58.7254C124.379 58.6173 118.412 60.0936 113.313 63.1276C110.491 62.1705 105.961 60.8212 100.729 59.9602C88.4249 57.9346 78.5081 59.5129 71.2544 64.6514C62.4709 70.8729 58.3991 81.6825 59.1522 96.7799C59.3913 101.573 62.0653 116.157 66.2755 129.989C68.6952 137.939 71.2754 144.54 73.9445 149.613C77.7297 156.805 81.7799 161.04 86.3268 162.561C88.8752 163.412 93.5056 164.009 98.3757 159.941C98.993 160.691 99.8166 161.436 100.91 162.128C102.298 163.006 103.995 163.723 105.69 164.148C111.799 165.679 117.521 165.296 122.403 163.15C122.434 164.021 122.457 164.852 122.476 165.571C122.508 166.736 122.541 167.878 122.583 168.947C122.873 176.171 123.363 181.788 124.815 185.718C124.895 185.934 125.002 186.264 125.115 186.613C125.84 188.838 127.051 192.561 130.133 195.478C133.325 198.499 137.185 199.425 140.721 199.425C142.495 199.425 144.187 199.192 145.671 198.873C150.96 197.736 156.968 196.004 161.314 189.799C165.423 183.933 167.42 175.098 167.782 161.176C167.829 160.782 167.872 160.406 167.913 160.048L167.999 159.313L168.967 159.398L169.217 159.415C174.604 159.661 181.192 158.515 185.238 156.631C188.435 155.143 198.68 149.719 196.268 142.397" fill="black"/>
<path d="M187.056 143.821C171.036 147.135 169.934 141.696 169.934 141.696C186.849 116.529 193.92 84.5821 187.818 76.7634C171.171 55.4353 142.355 65.5222 141.874 65.7836L141.72 65.8117C138.554 65.1527 135.013 64.7605 131.031 64.6952C123.783 64.5764 118.284 66.6009 114.112 69.7737C114.112 69.7737 62.7069 48.538 65.098 96.4812C65.6065 106.68 79.6765 173.655 96.4581 153.426C102.592 146.028 108.519 139.774 108.519 139.774C111.462 141.734 114.986 142.735 118.68 142.376L118.967 142.131C118.878 143.05 118.919 143.948 119.082 145.012C114.759 149.855 116.029 150.705 107.387 152.49C98.6418 154.297 103.779 157.514 107.133 158.356C111.2 159.375 120.607 160.819 126.963 151.896L126.71 152.915C128.404 154.275 129.593 161.764 129.394 168.553C129.194 175.342 129.061 180.003 130.396 183.644C131.731 187.284 133.061 195.476 144.423 193.035C153.915 190.995 158.835 185.708 159.52 176.889C160.005 170.62 161.105 171.547 161.173 165.942L162.055 163.289C163.072 154.791 162.217 152.049 168.065 153.324L169.487 153.449C173.791 153.645 179.426 152.755 182.733 151.214C189.853 147.9 194.076 142.368 187.055 143.821H187.056" fill="#336791"/>
<path d="M117.121 101.042C115.677 100.841 114.37 101.027 113.708 101.53C113.337 101.812 113.221 102.139 113.19 102.365C113.107 102.961 113.524 103.622 113.781 103.962C114.506 104.925 115.565 105.588 116.613 105.734C116.765 105.755 116.916 105.765 117.066 105.765C118.814 105.765 120.404 104.4 120.544 103.393C120.719 102.131 118.893 101.29 117.121 101.043V101.042ZM164.946 101.082C164.808 100.093 163.053 99.8113 161.387 100.044C159.724 100.276 158.111 101.029 158.246 102.02C158.354 102.791 159.742 104.107 161.385 104.107C161.524 104.107 161.664 104.097 161.805 104.077C162.902 103.925 163.706 103.227 164.089 102.824C164.671 102.211 165.008 101.527 164.946 101.082" fill="white"/>
<path d="M192.387 143.445C191.776 141.592 189.81 140.997 186.543 141.673C176.845 143.68 173.371 142.29 172.231 141.448C179.77 129.932 185.971 116.011 189.317 103.023C190.902 96.8702 191.777 91.1564 191.849 86.4992C191.928 81.3876 191.059 77.6314 189.269 75.3368C182.05 66.0866 171.454 61.1247 158.628 60.9886C149.811 60.8892 142.361 63.1519 140.917 63.7883C137.876 63.0299 134.56 62.5643 130.951 62.5048C124.331 62.3973 118.61 63.9865 113.873 67.2258C111.815 66.4577 106.497 64.6271 99.994 63.5765C88.7509 61.7616 79.8166 63.1368 73.4409 67.666C65.8333 73.0709 62.3212 82.7321 63.0015 96.3808C63.2305 100.973 65.8398 115.099 69.9573 128.627C75.3774 146.433 81.2693 156.513 87.4683 158.586C88.1939 158.829 89.0305 158.998 89.9532 158.998C92.2145 158.998 94.9871 157.977 97.8716 154.499C101.39 150.267 105.029 146.137 108.786 142.115C111.222 143.427 113.9 144.159 116.638 144.233C116.643 144.305 116.65 144.376 116.657 144.448C116.185 145.011 115.724 145.583 115.272 146.163C113.375 148.578 112.98 149.081 106.873 150.341C105.136 150.701 100.522 151.655 100.455 154.898C100.381 158.441 105.909 159.929 106.538 160.087C108.733 160.638 110.847 160.91 112.863 160.91C117.767 160.91 122.082 159.293 125.531 156.166C125.424 168.799 125.95 181.246 127.462 185.038C128.701 188.143 131.727 195.731 141.287 195.73C142.689 195.73 144.233 195.567 145.932 195.201C155.908 193.057 160.241 188.635 161.916 178.887C162.813 173.677 164.352 161.237 165.076 154.564C166.604 155.042 168.571 155.261 170.697 155.26C175.131 155.26 180.248 154.315 183.457 152.822C187.061 151.143 193.566 147.024 192.387 143.445V143.445ZM168.628 98.3524C168.595 100.322 168.325 102.111 168.038 103.978C167.73 105.985 167.411 108.061 167.331 110.581C167.251 113.033 167.557 115.583 167.852 118.049C168.449 123.029 169.061 128.156 166.691 133.215C166.297 132.515 165.946 131.792 165.64 131.05C165.346 130.333 164.706 129.183 163.82 127.591C160.373 121.392 152.301 106.875 156.433 100.952C157.664 99.1891 160.787 97.3763 168.628 98.3524V98.3524ZM159.124 64.9777C170.616 65.2321 179.706 69.5431 186.142 77.7902C191.079 84.116 185.643 112.899 169.907 137.731C169.749 137.529 169.59 137.328 169.43 137.128L169.23 136.878C173.297 130.144 172.502 123.481 171.794 117.574C171.503 115.15 171.228 112.86 171.298 110.709C171.371 108.43 171.671 106.474 171.962 104.584C172.319 102.254 172.683 99.8432 172.583 97.0014C172.657 96.7033 172.688 96.3511 172.648 95.933C172.392 93.2079 169.29 85.0521 162.966 77.6703C159.506 73.6326 154.462 69.1142 147.574 66.0666C150.537 65.4509 154.588 64.8767 159.124 64.9777V64.9777ZM94.819 151.954C91.6408 155.786 89.4463 155.051 88.7245 154.81C84.0219 153.237 78.5652 143.27 73.7544 127.465C69.5916 113.79 67.159 100.038 66.9661 96.1815C66.3585 83.9858 69.3066 75.4864 75.7292 70.9189C86.1815 63.4863 103.366 67.935 110.271 70.1913C110.172 70.2896 110.069 70.3814 109.971 70.4813C98.6392 81.9564 98.908 101.562 98.936 102.761C98.9349 103.223 98.9737 103.878 99.0265 104.778C99.2215 108.076 99.5846 114.213 98.615 121.163C97.7143 127.622 99.6998 133.943 104.061 138.507C104.509 138.975 104.98 139.419 105.471 139.84C103.53 141.925 99.3104 146.536 94.819 151.954V151.954ZM106.928 135.753C103.412 132.074 101.816 126.958 102.547 121.714C103.57 114.372 103.193 107.978 102.989 104.543C102.961 104.062 102.936 103.64 102.921 103.308C104.576 101.836 112.248 97.715 117.718 98.9719C120.214 99.545 121.736 101.25 122.368 104.182C125.641 119.362 122.801 125.689 120.519 130.773C120.049 131.82 119.605 132.811 119.225 133.835L118.931 134.627C118.187 136.628 117.494 138.49 117.065 140.257C113.328 140.246 109.692 138.645 106.928 135.752V135.753ZM107.501 156.225C106.41 155.951 105.429 155.477 104.853 155.083C105.334 154.856 106.19 154.547 107.674 154.24C114.858 152.758 115.968 151.711 118.391 148.626C118.946 147.918 119.576 147.117 120.448 146.14L120.449 146.139C121.748 144.681 122.342 144.928 123.42 145.376C124.293 145.738 125.143 146.836 125.488 148.044C125.651 148.614 125.834 149.696 125.235 150.539C120.174 157.645 112.798 157.554 107.501 156.225V156.225ZM145.1 191.309C136.311 193.197 133.199 188.701 131.148 183.56C129.825 180.241 129.174 165.276 129.636 148.748C129.642 148.529 129.61 148.316 129.55 148.116C129.496 147.722 129.414 147.332 129.304 146.949C128.618 144.544 126.946 142.532 124.939 141.698C124.142 141.367 122.679 140.76 120.921 141.211C121.296 139.661 121.946 137.912 122.651 136.018L122.947 135.221C123.279 134.322 123.697 133.392 124.139 132.407C126.527 127.087 129.797 119.801 126.248 103.341C124.919 97.1754 120.479 94.1645 113.749 94.864C109.714 95.2826 106.023 96.915 104.182 97.8511C103.786 98.052 103.424 98.2465 103.085 98.4355C103.599 92.2237 105.541 80.6147 112.803 73.2696C117.376 68.6459 123.465 66.3621 130.885 66.4853C145.504 66.7251 154.879 74.2484 160.17 80.518C164.729 85.9201 167.198 91.3622 168.183 94.2974C160.774 93.5417 155.735 95.0082 153.18 98.6705C147.623 106.637 156.221 122.098 160.353 129.529C161.111 130.891 161.765 132.068 161.97 132.568C163.316 135.838 165.058 138.021 166.33 139.615C166.72 140.103 167.098 140.577 167.386 140.991C165.141 141.639 161.111 143.138 161.478 150.631C161.182 154.39 159.075 171.992 158.005 178.211C156.592 186.427 153.577 189.487 145.1 191.31V191.309ZM181.785 149.211C179.49 150.279 175.65 151.08 172.002 151.253C167.973 151.442 165.922 150.8 165.439 150.405C165.213 145.736 166.946 145.248 168.78 144.732C169.068 144.651 169.35 144.571 169.621 144.476C169.79 144.614 169.974 144.751 170.177 144.885C173.415 147.028 179.192 147.259 187.346 145.571L187.436 145.553C186.336 146.585 184.454 147.968 181.785 149.211Z" fill="white"/>
</svg>
