<svg width="256" height="257" viewBox="0 0 256 257" fill="none" xmlns="http://www.w3.org/2000/svg">
<rect x="0.5" y="0.936035" width="255" height="255" rx="31.5" fill="#1D1F23"/>
<rect x="0.5" y="0.936035" width="255" height="255" rx="31.5" stroke="black"/>
<path fill-rule="evenodd" clip-rule="evenodd" d="M140.363 74.7761C156.352 74.7705 172.341 74.7219 188.329 74.7893C197.834 74.8282 200.514 78.0042 198.465 87.3912C192.465 114.882 186.33 142.346 180.112 169.789C178.145 178.463 173.628 182.016 164.503 182.043C132.525 182.138 100.548 182.149 68.5707 182.039C58.1186 182.002 55.3692 178.462 57.6211 168.557C63.7313 141.656 69.8741 114.763 76.0664 87.8803C78.4253 77.6359 81.9702 74.8233 92.3959 74.7934C108.385 74.7483 124.374 74.7816 140.363 74.7761Z" fill="#E0EAF5"/>
<path fill-rule="evenodd" clip-rule="evenodd" d="M116.201 178.847C100.21 178.841 84.2192 178.915 68.2294 178.81C60.1209 178.757 58.6465 176.843 60.4718 168.913C66.6598 142.016 73.0473 115.165 79.0977 88.2383C80.7201 81.0164 84.2199 77.8244 91.9574 77.896C123.936 78.1926 155.919 77.9911 187.9 78.0238C195.92 78.0314 197.267 79.7469 195.466 87.8812C189.621 114.289 183.738 140.689 177.753 167.066C175.513 176.937 172.932 178.821 162.547 178.844C147.098 178.876 131.649 178.852 116.201 178.847Z" fill="#2671BE"/>
<path fill-rule="evenodd" clip-rule="evenodd" d="M129.808 126.136C128.736 124.878 127.558 123.43 126.312 122.046C119.244 114.195 112.238 106.285 105.044 98.5512C101.752 95.0118 100.702 91.5745 104.656 88.081C108.563 84.6278 112.402 84.9335 115.986 88.9064C125.967 99.9672 135.936 111.041 146.082 121.949C149.87 126.024 148.988 128.794 144.816 131.813C128.801 143.404 112.876 155.122 96.9692 166.861C93.3937 169.501 89.9849 170.162 87.0966 166.263C83.9101 161.963 86.8582 159.405 90.1635 156.998C101.984 148.388 113.782 139.745 125.53 131.035C127.166 129.822 129.515 129.115 129.808 126.136Z" fill="#FDFDFE"/>
<path fill-rule="evenodd" clip-rule="evenodd" d="M134.871 167.733C130.566 167.733 126.254 167.881 121.959 167.686C118.532 167.531 116.47 165.616 116.513 162.007C116.555 158.594 118.275 156.028 121.698 155.935C131.108 155.683 140.531 155.737 149.943 155.922C152.935 155.98 155.143 157.929 155.125 161.046C155.103 164.621 153.222 167.392 149.392 167.622C144.568 167.914 139.713 167.695 134.871 167.695C134.871 167.706 134.871 167.72 134.871 167.733Z" fill="#FCFDFD"/>
</svg>
