<svg width="257" height="256" viewBox="0 0 257 256" fill="none" xmlns="http://www.w3.org/2000/svg">
<rect x="1.26111" y="0.5" width="255" height="255" rx="31.5" fill="#1D1F23"/>
<rect x="1.26111" y="0.5" width="255" height="255" rx="31.5" stroke="black"/>
<path d="M162.379 83.4017H169.152C171.048 83.4017 172.538 84.8917 172.538 86.788C172.538 88.6843 171.048 90.1742 169.152 90.1742H162.379C160.483 90.1742 158.993 88.6843 158.993 86.788C158.993 84.8917 160.483 83.4017 162.379 83.4017Z" fill="#56B3B4"/>
<path d="M60.7919 191.762H94.6543C96.5506 191.762 98.0406 193.252 98.0406 195.148C98.0406 197.044 96.5506 198.534 94.6543 198.534H60.7919C58.8956 198.534 57.4057 197.044 57.4057 195.148C57.4057 193.252 58.8956 191.762 60.7919 191.762Z" fill="#EA5E5E"/>
<path d="M142.062 137.582H162.379C164.275 137.582 165.765 139.072 165.765 140.968C165.765 142.864 164.275 144.354 162.379 144.354H142.062C140.166 144.354 138.676 142.864 138.676 140.968C138.676 139.072 140.166 137.582 142.062 137.582Z" fill="#BF85BF"/>
<path d="M101.427 137.582H128.517C130.413 137.582 131.903 139.072 131.903 140.968C131.903 142.864 130.413 144.354 128.517 144.354H101.427C99.5307 144.354 98.0407 142.864 98.0407 140.968C98.0407 139.072 99.5307 137.582 101.427 137.582Z" fill="#EA5E5E"/>
<path d="M60.7919 137.582H87.8819C89.7782 137.582 91.2682 139.072 91.2682 140.968C91.2682 142.864 89.7782 144.354 87.8819 144.354H60.7919C58.8956 144.354 57.4057 142.864 57.4057 140.968C57.4057 139.072 58.8956 137.582 60.7919 137.582Z" fill="#56B3B4"/>
<path d="M60.7919 164.672H94.6543C96.5506 164.672 98.0406 166.161 98.0406 168.058C98.0406 169.954 96.5506 171.444 94.6543 171.444H60.7919C58.8956 171.444 57.4057 169.954 57.4057 168.058C57.4057 166.161 58.8956 164.672 60.7919 164.672Z" fill="#BF85BF"/>
<path d="M60.7919 110.492H94.6543C96.5506 110.492 98.0406 111.982 98.0406 113.878C98.0406 115.774 96.5506 117.264 94.6543 117.264H60.7919C58.8956 117.264 57.4057 115.774 57.4057 113.878C57.4057 111.982 58.8956 110.492 60.7919 110.492Z" fill="#BF85BF"/>
<path d="M94.6544 69.8568H162.379C164.275 69.8568 165.765 71.3467 165.765 73.243C165.765 75.1393 164.275 76.6293 162.379 76.6293H94.6544C92.7581 76.6293 91.2681 75.1393 91.2681 73.243C91.2681 71.3467 92.7581 69.8568 94.6544 69.8568Z" fill="#F7BA3E"/>
<path d="M60.7919 69.8568H81.1094C83.0057 69.8568 84.4956 71.3467 84.4956 73.243C84.4956 75.1393 83.0057 76.6293 81.1094 76.6293H60.7919C58.8956 76.6293 57.4057 75.1393 57.4057 73.243C57.4057 71.3467 58.8956 69.8568 60.7919 69.8568Z" fill="#EA5E5E"/>
<path d="M87.8819 178.216H94.6545C96.5508 178.216 98.0407 179.706 98.0407 181.603C98.0407 183.499 96.5508 184.989 94.6545 184.989H87.8819C85.9856 184.989 84.4957 183.499 84.4957 181.603C84.4957 179.706 85.9856 178.216 87.8819 178.216Z" fill="#F7BA3E"/>
<path d="M87.8819 96.9469H94.6545C96.5508 96.9469 98.0407 98.4368 98.0407 100.333C98.0407 102.229 96.5508 103.719 94.6545 103.719H87.8819C85.9856 103.719 84.4957 102.229 84.4957 100.333C84.4957 98.4368 85.9856 96.9469 87.8819 96.9469Z" fill="#56B3B4"/>
<path d="M60.7919 178.216H74.3369C76.2332 178.216 77.7232 179.706 77.7232 181.603C77.7232 183.499 76.2332 184.989 74.3369 184.989H60.7919C58.8957 184.989 57.4057 183.499 57.4057 181.603C57.4057 179.706 58.8957 178.216 60.7919 178.216Z" fill="#56B3B4"/>
<path d="M60.7919 96.9469H74.3369C76.2332 96.9469 77.7232 98.4368 77.7232 100.333C77.7232 102.229 76.2332 103.719 74.3369 103.719H60.7919C58.8957 103.719 57.4057 102.229 57.4057 100.333C57.4057 98.4368 58.8957 96.9469 60.7919 96.9469Z" fill="#F7BA3E"/>
<path opacity="0.5" d="M148.834 178.216H155.607C157.503 178.216 158.993 179.706 158.993 181.603C158.993 183.499 157.503 184.989 155.607 184.989H148.834C146.938 184.989 145.448 183.499 145.448 181.603C145.448 179.706 146.938 178.216 148.834 178.216Z" fill="#D0D4D8"/>
<path opacity="0.5" d="M108.199 178.216H135.289C137.186 178.216 138.676 179.706 138.676 181.603C138.676 183.499 137.186 184.989 135.289 184.989H108.199C106.303 184.989 104.813 183.499 104.813 181.603C104.813 179.706 106.303 178.216 108.199 178.216Z" fill="#D0D4D8"/>
<path opacity="0.5" d="M169.152 178.216H196.242C198.138 178.216 199.628 179.706 199.628 181.603C199.628 183.499 198.138 184.989 196.242 184.989H169.152C167.255 184.989 165.766 183.499 165.766 181.603C165.766 179.706 167.255 178.216 169.152 178.216Z" fill="#D0D4D8"/>
<path d="M114.972 124.037H169.152C171.048 124.037 172.538 125.527 172.538 127.423C172.538 129.319 171.048 130.809 169.152 130.809H114.972C113.076 130.809 111.586 129.319 111.586 127.423C111.586 125.527 113.076 124.037 114.972 124.037Z" fill="#56B3B4"/>
<path d="M81.1094 124.037H101.427C103.323 124.037 104.813 125.527 104.813 127.423C104.813 129.319 103.323 130.809 101.427 130.809H81.1094C79.2131 130.809 77.7231 129.319 77.7231 127.423C77.7231 125.527 79.2131 124.037 81.1094 124.037Z" fill="#F7BA3E"/>
<path d="M60.7919 124.037H67.5644C69.4607 124.037 70.9507 125.527 70.9507 127.423C70.9507 129.319 69.4607 130.809 67.5644 130.809H60.7919C58.8956 130.809 57.4057 129.319 57.4057 127.423C57.4057 125.527 58.8956 124.037 60.7919 124.037Z" fill="#EA5E5E"/>
<path d="M121.744 83.4017H148.834C150.731 83.4017 152.221 84.8917 152.221 86.788C152.221 88.6843 150.731 90.1742 148.834 90.1742H121.744C119.848 90.1742 118.358 88.6843 118.358 86.788C118.358 84.8917 119.848 83.4017 121.744 83.4017Z" fill="#BF85BF"/>
<path d="M60.7919 83.4017H108.199C110.096 83.4017 111.586 84.8917 111.586 86.788C111.586 88.6843 110.096 90.1742 108.199 90.1742H60.7919C58.8956 90.1742 57.4057 88.6843 57.4057 86.788C57.4057 84.8917 58.8956 83.4017 60.7919 83.4017Z" fill="#56B3B4"/>
<path d="M81.1094 151.127H142.062C143.958 151.127 145.448 152.617 145.448 154.513C145.448 156.409 143.958 157.899 142.062 157.899H81.1094C79.2131 157.899 77.7231 156.409 77.7231 154.513C77.7231 152.617 79.2131 151.127 81.1094 151.127Z" fill="#F7BA3E"/>
<path d="M60.7919 151.127H67.5644C69.4607 151.127 70.9507 152.617 70.9507 154.513C70.9507 156.409 69.4607 157.899 67.5644 157.899H60.7919C58.8956 157.899 57.4057 156.409 57.4057 154.513C57.4057 152.617 58.8956 151.127 60.7919 151.127Z" fill="#BF85BF"/>
<path d="M142.062 96.9469H175.924C177.82 96.9469 179.31 98.4368 179.31 100.333C179.31 102.229 177.82 103.719 175.924 103.719H142.062C140.166 103.719 138.676 102.229 138.676 100.333C138.676 98.4368 140.166 96.9469 142.062 96.9469Z" fill="#EA5E5E"/>
<path d="M142.062 110.492H175.924C177.82 110.492 179.31 111.982 179.31 113.878C179.31 115.774 177.82 117.264 175.924 117.264H142.062C140.166 117.264 138.676 115.774 138.676 113.878C138.676 111.982 140.166 110.492 142.062 110.492Z" fill="#F7BA3E"/>
<path d="M60.7919 56.3118H142.062C143.958 56.3118 145.448 57.8018 145.448 59.6981C145.448 61.5944 143.958 63.0843 142.062 63.0843H60.7919C58.8956 63.0843 57.4057 61.5944 57.4057 59.6981C57.4057 57.8018 58.8956 56.3118 60.7919 56.3118Z" fill="#56B3B4"/>
<path opacity="0.5" d="M155.607 56.3118H196.242C198.138 56.3118 199.628 57.8018 199.628 59.6981C199.628 61.5944 198.138 63.0843 196.242 63.0843H155.607C153.711 63.0843 152.221 61.5944 152.221 59.6981C152.221 57.8018 153.711 56.3118 155.607 56.3118Z" fill="#D0D4D8"/>
<path opacity="0.5" d="M155.607 151.127H169.152C171.048 151.127 172.538 152.617 172.538 154.513C172.538 156.409 171.048 157.899 169.152 157.899H155.607C153.711 157.899 152.221 156.409 152.221 154.513C152.221 152.617 153.711 151.127 155.607 151.127Z" fill="#D0D4D8"/>
<path opacity="0.5" d="M182.697 151.127H196.242C198.138 151.127 199.628 152.617 199.628 154.513C199.628 156.409 198.138 157.899 196.242 157.899H182.697C180.8 157.899 179.31 156.409 179.31 154.513C179.31 152.617 180.8 151.127 182.697 151.127Z" fill="#D0D4D8"/>
<path opacity="0.5" d="M175.924 137.582H196.242C198.138 137.582 199.628 139.072 199.628 140.968C199.628 142.864 198.138 144.354 196.242 144.354H175.924C174.028 144.354 172.538 142.864 172.538 140.968C172.538 139.072 174.028 137.582 175.924 137.582Z" fill="#D0D4D8"/>
<path opacity="0.5" d="M175.924 69.8568H196.242C198.138 69.8568 199.628 71.3467 199.628 73.243C199.628 75.1393 198.138 76.6293 196.242 76.6293H175.924C174.028 76.6293 172.538 75.1393 172.538 73.243C172.538 71.3467 174.028 69.8568 175.924 69.8568Z" fill="#D0D4D8"/>
<path opacity="0.5" d="M182.697 124.037H196.242C198.138 124.037 199.628 125.527 199.628 127.423C199.628 129.319 198.138 130.809 196.242 130.809H182.697C180.8 130.809 179.31 129.319 179.31 127.423C179.31 125.527 180.8 124.037 182.697 124.037Z" fill="#D0D4D8"/>
<path opacity="0.5" d="M182.697 83.4017H196.242C198.138 83.4017 199.628 84.8917 199.628 86.788C199.628 88.6843 198.138 90.1742 196.242 90.1742H182.697C180.8 90.1742 179.31 88.6843 179.31 86.788C179.31 84.8917 180.8 83.4017 182.697 83.4017Z" fill="#D0D4D8"/>
<path opacity="0.5" d="M189.469 96.9469H196.242C198.138 96.9469 199.628 98.4368 199.628 100.333C199.628 102.229 198.138 103.719 196.242 103.719H189.469C187.573 103.719 186.083 102.229 186.083 100.333C186.083 98.4368 187.573 96.9469 189.469 96.9469Z" fill="#D0D4D8"/>
<path opacity="0.5" d="M189.469 110.492H196.242C198.138 110.492 199.628 111.982 199.628 113.878C199.628 115.774 198.138 117.264 196.242 117.264H189.469C187.573 117.264 186.083 115.774 186.083 113.878C186.083 111.982 187.573 110.492 189.469 110.492Z" fill="#D0D4D8"/>
<path opacity="0.5" d="M135.29 164.672H196.242C198.138 164.672 199.628 166.161 199.628 168.058C199.628 169.954 198.138 171.444 196.242 171.444H135.29C133.393 171.444 131.903 169.954 131.903 168.058C131.903 166.161 133.393 164.672 135.29 164.672Z" fill="#D0D4D8"/>
<path opacity="0.5" d="M108.199 164.672H121.744C123.641 164.672 125.131 166.161 125.131 168.058C125.131 169.954 123.641 171.444 121.744 171.444H108.199C106.303 171.444 104.813 169.954 104.813 168.058C104.813 166.161 106.303 164.672 108.199 164.672Z" fill="#D0D4D8"/>
<path opacity="0.5" d="M162.379 191.762H196.242C198.138 191.762 199.628 193.252 199.628 195.148C199.628 197.044 198.138 198.534 196.242 198.534H162.379C160.483 198.534 158.993 197.044 158.993 195.148C158.993 193.252 160.483 191.762 162.379 191.762Z" fill="#D0D4D8"/>
<path opacity="0.5" d="M108.199 191.762H148.834C150.73 191.762 152.22 193.252 152.22 195.148C152.22 197.044 150.73 198.534 148.834 198.534H108.199C106.303 198.534 104.813 197.044 104.813 195.148C104.813 193.252 106.303 191.762 108.199 191.762Z" fill="#D0D4D8"/>
<path opacity="0.5" d="M108.199 96.9469H128.517C130.413 96.9469 131.903 98.4368 131.903 100.333C131.903 102.229 130.413 103.719 128.517 103.719H108.199C106.303 103.719 104.813 102.229 104.813 100.333C104.813 98.4368 106.303 96.9469 108.199 96.9469Z" fill="#D0D4D8"/>
<path opacity="0.5" d="M108.199 110.492H128.517C130.413 110.492 131.903 111.982 131.903 113.878C131.903 115.774 130.413 117.264 128.517 117.264H108.199C106.303 117.264 104.813 115.774 104.813 113.878C104.813 111.982 106.303 110.492 108.199 110.492Z" fill="#D0D4D8"/>
</svg>
