<svg width="256" height="256" viewBox="0 0 256 256" fill="none" xmlns="http://www.w3.org/2000/svg">
<rect x="0.5" y="0.5" width="255" height="255" rx="31.5" fill="#1D1F23"/>
<rect x="0.5" y="0.5" width="255" height="255" rx="31.5" stroke="black"/>
<path fill-rule="evenodd" clip-rule="evenodd" d="M71.182 153.932C69.7351 151.65 69.7133 148.743 71.1257 146.439L124.305 59.6928C127.263 54.868 134.405 55.2899 136.774 60.4292L185.356 165.815C187.159 169.725 185.084 174.326 180.959 175.563L105.387 198.235C102.346 199.147 99.0698 197.925 97.3702 195.243L71.182 153.932ZM130.441 85.0566C130.953 82.5047 134.45 82.1368 135.482 84.526L168.993 162.069C169.624 163.529 168.839 165.213 167.315 165.667L115.1 181.254C113.181 181.827 111.342 180.15 111.737 178.186L130.441 85.0566Z" fill="white"/>
</svg>
