<svg width="257" height="257" viewBox="0 0 257 257" fill="none" xmlns="http://www.w3.org/2000/svg">
<rect x="1.32837" y="1.39111" width="255" height="255" rx="31.5" fill="#1D1F23"/>
<rect x="1.32837" y="1.39111" width="255" height="255" rx="31.5" stroke="black"/>
<path d="M128.464 57.5727C92.3595 57.5727 94.6139 73.2299 94.6139 73.2299L94.654 89.4513H129.108V94.3214H80.9693C80.9693 94.3214 57.8657 91.7012 57.8657 128.131C57.8657 164.561 78.0311 163.269 78.0311 163.269H90.0657V146.364C90.0657 146.364 89.4169 126.199 109.909 126.199H144.082C144.082 126.199 163.281 126.509 163.281 107.644V76.4505C163.281 76.4505 166.197 57.5727 128.464 57.5727ZM109.466 68.4813C110.281 68.4805 111.087 68.6403 111.839 68.9516C112.592 69.2628 113.275 69.7193 113.851 70.2951C114.427 70.8708 114.883 71.5543 115.194 72.3067C115.506 73.059 115.665 73.8654 115.665 74.6795C115.665 75.4937 115.506 76.3 115.194 77.0524C114.883 77.8047 114.427 78.4883 113.851 79.064C113.275 79.6397 112.592 80.0963 111.839 80.4075C111.087 80.7187 110.281 80.8786 109.466 80.8778C108.652 80.8786 107.846 80.7187 107.094 80.4075C106.341 80.0963 105.658 79.6397 105.082 79.064C104.506 78.4883 104.05 77.8047 103.738 77.0524C103.427 76.3 103.267 75.4937 103.268 74.6795C103.267 73.8654 103.427 73.059 103.738 72.3067C104.05 71.5543 104.506 70.8708 105.082 70.2951C105.658 69.7193 106.341 69.2628 107.094 68.9516C107.846 68.6403 108.652 68.4805 109.466 68.4813V68.4813Z" fill="url(#paint0_linear_301_8808)"/>
<path d="M129.49 199.055C165.595 199.055 163.34 183.398 163.34 183.398L163.3 167.177H128.845V162.307H176.984C176.984 162.307 200.088 164.927 200.088 128.497C200.088 92.0665 179.923 93.3585 179.923 93.3585H167.888V110.263C167.888 110.263 168.537 130.429 148.045 130.429H113.872C113.872 130.429 94.673 130.118 94.673 148.985V180.178C94.673 180.178 91.7576 199.055 129.489 199.055H129.49ZM148.488 188.148C147.674 188.149 146.867 187.989 146.115 187.678C145.363 187.366 144.679 186.91 144.103 186.334C143.528 185.758 143.071 185.075 142.76 184.323C142.449 183.57 142.289 182.764 142.29 181.95C142.289 181.135 142.449 180.329 142.76 179.577C143.071 178.824 143.527 178.141 144.103 177.565C144.679 176.989 145.362 176.532 146.115 176.221C146.867 175.91 147.674 175.75 148.488 175.751C149.302 175.75 150.108 175.91 150.861 176.221C151.613 176.532 152.297 176.989 152.872 177.565C153.448 178.14 153.905 178.824 154.216 179.576C154.527 180.329 154.687 181.135 154.686 181.949C154.687 182.763 154.527 183.57 154.216 184.322C153.905 185.074 153.448 185.758 152.872 186.334C152.297 186.909 151.613 187.366 150.861 187.677C150.108 187.988 149.302 188.148 148.488 188.147V188.148Z" fill="url(#paint1_linear_301_8808)"/>
<defs>
<linearGradient id="paint0_linear_301_8808" x1="71.5332" y1="70.2982" x2="142.014" y2="140.076" gradientUnits="userSpaceOnUse">
<stop stop-color="#387EB8"/>
<stop offset="1" stop-color="#366994"/>
</linearGradient>
<linearGradient id="paint1_linear_301_8808" x1="114.794" y1="115.105" x2="190.483" y2="186.656" gradientUnits="userSpaceOnUse">
<stop stop-color="#FFE052"/>
<stop offset="1" stop-color="#FFC331"/>
</linearGradient>
</defs>
</svg>
