<svg width="257" height="257" viewBox="0 0 257 257" fill="none" xmlns="http://www.w3.org/2000/svg">
<rect x="1.36548" y="0.985107" width="255" height="255" rx="31.5" fill="#1D1F23"/>
<rect x="1.36548" y="0.985107" width="255" height="255" rx="31.5" stroke="black"/>
<path d="M182.132 146.544V153.046H193.879C196.285 153.046 200.417 151.286 200.56 146.364V143.85C200.56 139.647 197.112 137.168 193.879 137.168H188.023V134.15H199.626V127.612H188.49C185.616 127.612 181.772 129.983 181.772 134.402V136.665C181.772 141.084 185.58 143.347 188.49 143.347C196.573 143.383 186.55 143.347 194.022 143.347V146.508L182.132 146.544ZM119.193 144.963C119.193 144.963 125.48 144.425 125.48 136.306C125.48 128.187 117.864 127.433 117.864 127.433H104.141V153.046H111.038V146.867L117.002 153.046H127.204L119.193 144.963V144.963ZM116.535 139.718H111.038V133.863H116.571C116.571 133.863 118.115 134.438 118.115 136.773C118.115 139.108 116.535 139.718 116.535 139.718V139.718ZM142.508 127.612H135.502C130.509 127.612 128.821 132.139 128.821 134.294V153.046H135.826V148.556H142.4V153.046H149.189V134.294C149.189 128.834 144.232 127.612 142.508 127.612V127.612ZM142.4 141.299H135.79V135.084C135.79 135.084 135.79 133.683 137.981 133.683H140.388C142.328 133.683 142.364 135.084 142.364 135.084V141.299H142.4V141.299ZM152.387 127.612H159.679V153.046H152.387V127.612ZM169.917 146.472V127.612H162.661V153.046H179.725V146.472H169.917Z" fill="#CC0000"/>
<path d="M60.8528 153.046H89.2326C89.2326 153.046 83.8081 128.295 101.77 118.272C105.686 116.368 118.151 109.255 138.556 124.343C139.203 123.804 139.813 123.373 139.813 123.373C139.813 123.373 121.133 104.729 100.333 106.812C89.8792 107.746 77.0185 117.266 69.4745 129.839C61.9305 142.413 60.8528 153.046 60.8528 153.046Z" fill="#CC0000"/>
<path d="M60.8528 153.046H89.2326C89.2326 153.046 83.8081 128.295 101.77 118.272C105.686 116.368 118.151 109.255 138.556 124.343C139.203 123.804 139.813 123.373 139.813 123.373C139.813 123.373 121.133 104.729 100.333 106.812C89.8792 107.746 77.0185 117.266 69.4745 129.839C61.9305 142.413 60.8528 153.046 60.8528 153.046Z" fill="#CC0000"/>
<path d="M60.8528 153.046H89.2326C89.2326 153.046 83.8081 128.295 101.77 118.272C105.686 116.368 118.151 109.255 138.556 124.343C139.203 123.804 139.813 123.373 139.813 123.373C139.813 123.373 121.133 104.729 100.333 106.812C89.8433 107.746 76.9826 117.266 69.4386 129.839C61.8946 142.413 60.8528 153.046 60.8528 153.046ZM119.983 108.824L120.127 106.417C119.804 106.238 118.906 105.806 116.642 105.16L116.499 107.531C117.684 107.926 118.834 108.357 119.983 108.824Z" fill="#CC0000"/>
<path d="M116.571 116.44L116.427 118.703C117.612 118.739 118.798 118.883 119.983 119.134L120.127 116.907C118.906 116.655 117.72 116.512 116.571 116.44ZM103.279 105.232H103.638L102.92 103.04C101.806 103.04 100.656 103.112 99.471 103.256L100.154 105.375C101.195 105.268 102.237 105.232 103.279 105.232V105.232ZM105.003 118.452L105.829 120.93C106.871 120.427 107.913 119.996 108.955 119.673L108.165 117.302C106.943 117.661 105.901 118.056 105.003 118.452ZM88.6939 109.004L87.0773 106.525C86.1792 106.992 85.2452 107.495 84.2752 108.07L85.9277 110.584C86.8617 110.01 87.7598 109.471 88.6939 109.004ZM96.0582 125.169L97.7826 127.756C98.3933 126.858 99.1117 126.032 99.9021 125.205L98.2855 122.762C97.4593 123.517 96.7049 124.343 96.0582 125.169ZM90.8493 136.737L93.7591 139.036C93.9028 137.635 94.1543 136.234 94.5135 134.833L91.927 132.785C91.46 134.114 91.1367 135.444 90.8493 136.737V136.737ZM75.1147 119.673L72.5641 117.446C71.6301 118.344 70.732 119.242 69.9057 120.14L72.6718 122.511C73.4262 121.541 74.2525 120.571 75.1147 119.673ZM64.2657 135.731L60.1344 134.222C59.4519 135.767 58.6975 137.563 58.3383 138.533L62.4695 140.042C62.9365 138.82 63.6909 137.06 64.2657 135.731ZM90.3104 145.861C90.3823 147.765 90.5619 149.31 90.7415 150.388L95.0524 151.933C94.729 150.532 94.4057 148.951 94.1902 147.262L90.3104 145.861Z" fill="#CC0000"/>
</svg>
