<svg width="256" height="256" viewBox="0 0 256 256" fill="none" xmlns="http://www.w3.org/2000/svg">
<rect x="0.5" y="0.5" width="255" height="255" rx="31.5" fill="#1D1F23"/>
<rect x="0.5" y="0.5" width="255" height="255" rx="31.5" stroke="black"/>
<path fill-rule="evenodd" clip-rule="evenodd" d="M145.048 142.582L142.32 147.319C141.498 148.746 139.977 149.626 138.33 149.626H117.432C115.785 149.626 114.264 148.746 113.442 147.319L110.713 142.582H145.048ZM152.685 129.321L147.875 137.673H107.886L103.076 129.321H152.685ZM148.052 116.353L152.693 124.412H103.069L107.71 116.353H148.052ZM138.33 104.094C139.977 104.094 141.498 104.974 142.32 106.401L145.225 111.444H110.537L113.442 106.401C114.264 104.974 115.785 104.094 117.432 104.094H138.33Z" fill="#00435B"/>
<path d="M87.0163 101.896C84.7013 90.6707 84.2045 82.0608 85.7009 75.8089C86.5909 72.0905 88.218 69.0572 90.6921 66.8687C93.3042 64.5582 96.6067 63.4244 100.317 63.4244C106.439 63.4244 112.874 66.2159 119.751 71.519C122.556 73.682 125.468 76.2892 128.491 79.342C128.732 79.0322 129.004 78.74 129.307 78.4699C137.855 70.8525 145.051 66.1197 151.207 64.2949C154.867 63.2098 158.303 63.1065 161.432 64.1595C164.735 65.2711 167.367 67.5689 169.224 70.7874C172.289 76.0991 173.097 83.0787 171.954 91.6966C171.488 95.2094 170.692 99.0359 169.567 103.182C169.992 103.233 170.417 103.327 170.838 103.467C181.684 107.061 189.364 110.926 194.013 115.343C196.779 117.971 198.586 120.896 199.239 124.135C199.928 127.553 199.256 130.982 197.401 134.198C194.343 139.502 188.718 143.685 180.706 146.999C177.489 148.329 173.849 149.534 169.782 150.618C169.967 151.037 170.111 151.482 170.207 151.949C172.523 163.174 173.019 171.784 171.523 178.036C170.633 181.754 169.006 184.788 166.532 186.976C163.92 189.287 160.617 190.42 156.907 190.42C150.785 190.42 144.35 187.629 137.473 182.326C134.638 180.14 131.694 177.5 128.636 174.405C128.321 174.897 127.935 175.355 127.478 175.762C118.93 183.379 111.734 188.112 105.578 189.937C101.918 191.022 98.4821 191.125 95.3529 190.072C92.0498 188.961 89.4179 186.663 87.5611 183.445C84.4966 178.133 83.6884 171.153 84.8309 162.535C85.3135 158.896 86.1508 154.919 87.3409 150.599C86.8757 150.552 86.4086 150.454 85.9467 150.301C75.1012 146.707 67.4214 142.842 62.7719 138.425C60.0056 135.797 58.1992 132.871 57.5461 129.632C56.8569 126.214 57.529 122.785 59.3837 119.569C62.4424 114.265 68.0666 110.082 76.079 106.769C79.3921 105.399 83.1537 104.162 87.3681 103.053C87.218 102.685 87.0994 102.299 87.0163 101.896Z" fill="#002B3B"/>
<path fill-rule="evenodd" clip-rule="evenodd" d="M114.87 98.3201C120.492 97.8727 126.286 97.6751 132.254 97.7273C133.384 97.7372 134.308 96.8291 134.318 95.699C134.322 95.223 134.16 94.7604 133.86 94.3909C120.278 77.6678 109.094 69.3063 100.309 69.3063C91.2384 69.3063 88.6509 79.3043 92.5459 99.3004C92.7594 100.396 93.8121 101.119 94.9116 100.924C101.846 99.6952 108.499 98.8272 114.87 98.3201Z" fill="#FF4154"/>
<path fill-rule="evenodd" clip-rule="evenodd" d="M146.429 101.073C149.676 105.751 152.792 110.705 155.777 115.936C156.337 116.917 157.587 117.259 158.569 116.699C158.98 116.464 159.298 116.093 159.466 115.65C167.149 95.4985 168.764 81.6009 164.31 73.9576C159.715 66.0702 149.701 68.7975 134.269 82.1393C133.421 82.8728 133.321 84.1527 134.045 85.0089C138.63 90.4288 142.758 95.7833 146.429 101.073Z" fill="#FF4154"/>
<path fill-rule="evenodd" clip-rule="evenodd" d="M160.056 129.226C157.626 134.333 154.894 139.465 151.862 144.624C151.289 145.598 151.615 146.852 152.589 147.425C153.001 147.667 153.486 147.758 153.958 147.68C175.131 144.199 187.916 138.643 192.314 131.011C196.856 123.13 189.552 115.906 170.401 109.339C169.346 108.978 168.196 109.527 167.814 110.575C165.398 117.217 162.812 123.434 160.056 129.226Z" fill="#FF4154"/>
<path fill-rule="evenodd" clip-rule="evenodd" d="M142.683 155.656C137.061 156.104 131.266 156.301 125.299 156.249C124.169 156.239 123.245 157.147 123.235 158.277C123.231 158.753 123.392 159.216 123.693 159.585C137.275 176.308 148.458 184.67 157.244 184.67C166.314 184.67 168.902 174.672 165.007 154.676C164.793 153.58 163.74 152.857 162.641 153.052C155.706 154.281 149.054 155.149 142.683 155.656Z" fill="#FF4154"/>
<path fill-rule="evenodd" clip-rule="evenodd" d="M110.356 153.159C107.109 148.481 103.993 143.526 101.008 138.296C100.448 137.314 99.1979 136.973 98.2164 137.533C97.8048 137.768 97.4875 138.139 97.3187 138.581C89.6358 158.733 88.0211 172.631 92.4747 180.274C97.0704 188.162 107.084 185.434 122.516 172.093C123.364 171.359 123.464 170.079 122.74 169.223C118.155 163.803 114.027 158.449 110.356 153.159Z" fill="#FF4154"/>
<path fill-rule="evenodd" clip-rule="evenodd" d="M96.7294 124.239C99.1594 119.132 101.891 113.999 104.923 108.841C105.496 107.866 105.17 106.612 104.196 106.04C103.784 105.797 103.299 105.707 102.827 105.784C81.6542 109.266 68.8688 114.822 64.4709 122.453C59.9287 130.335 67.2331 137.559 86.3841 144.125C87.4391 144.487 88.5894 143.937 88.9708 142.889C91.3874 136.247 93.9736 130.031 96.7294 124.239Z" fill="#FF4154"/>
<path fill-rule="evenodd" clip-rule="evenodd" d="M119.112 104.35H136.654C139.219 104.35 141.589 105.722 142.866 107.947L151.674 123.295C152.941 125.503 152.941 128.217 151.674 130.425L142.866 145.773C141.589 147.998 139.219 149.37 136.654 149.37H119.112C116.546 149.37 114.177 147.998 112.9 145.773L104.092 130.425C102.825 128.217 102.825 125.503 104.092 123.295L112.9 107.947C114.177 105.722 116.546 104.35 119.112 104.35ZM133.98 108.982C136.547 108.982 138.918 110.356 140.194 112.583L146.336 123.298C147.601 125.505 147.601 128.216 146.336 130.422L140.194 141.137C138.918 143.364 136.547 144.738 133.98 144.738H121.785C119.218 144.738 116.848 143.364 115.571 141.137L109.429 130.422C108.165 128.216 108.165 125.505 109.429 123.298L115.571 112.583C116.848 110.356 119.218 108.982 121.785 108.982H133.98ZM131.099 114.049H124.667C122.103 114.049 119.734 115.42 118.457 117.643L115.211 123.292C113.942 125.501 113.942 128.219 115.211 130.428L118.457 136.077C119.734 138.301 122.103 139.671 124.667 139.671H131.099C133.663 139.671 136.031 138.301 137.309 136.077L140.554 130.428C141.824 128.219 141.824 125.501 140.554 123.292L137.309 117.643C136.031 115.42 133.663 114.049 131.099 114.049ZM128.324 118.898C130.886 118.898 133.253 120.267 134.531 122.488L134.991 123.287C136.264 125.499 136.264 128.221 134.991 130.433L134.531 131.232C133.253 133.453 130.886 134.822 128.324 134.822H127.442C124.88 134.822 122.512 133.453 121.234 131.232L120.774 130.433C119.501 128.221 119.501 125.499 120.774 123.287L121.234 122.488C122.512 120.267 124.88 118.898 127.442 118.898H128.324ZM127.884 123.675C126.744 123.675 125.692 124.282 125.122 125.268C124.553 126.253 124.553 127.467 125.122 128.452C125.692 129.438 126.744 130.045 127.882 130.045C129.022 130.045 130.074 129.438 130.643 128.452C131.212 127.467 131.212 126.253 130.643 125.268C130.074 124.282 129.022 123.675 127.884 123.675ZM102.046 126.86H107.779Z" fill="#FFD94C"/>
</svg>
