<svg width="257" height="256" viewBox="0 0 257 256" fill="none" xmlns="http://www.w3.org/2000/svg">
<rect x="0.537231" y="0.5" width="255" height="255" rx="31.5" fill="#1D1F23"/>
<rect x="0.537231" y="0.5" width="255" height="255" rx="31.5" stroke="black"/>
<path d="M155.62 154.21C160.868 153.666 164.85 149.142 164.668 143.712C164.488 138.282 159.963 133.938 154.533 133.938H154.172C148.561 134.12 144.217 138.825 144.398 144.436C144.58 147.151 145.665 149.503 147.294 151.132C141.141 163.259 131.73 172.127 117.613 179.548C108.021 184.616 98.0667 186.426 88.1128 185.159C79.9684 184.073 73.6339 180.453 69.6517 174.48C63.8606 165.612 63.3178 156.019 68.2045 146.427C71.6434 139.549 77.0723 134.481 80.5111 131.947C79.7873 129.595 78.7011 125.613 78.1584 122.717C51.9156 141.721 54.6306 167.422 62.5939 179.548C68.5661 188.598 80.6923 194.208 94.0851 194.208C97.7045 194.208 101.324 193.846 104.944 192.942C128.11 188.417 145.666 174.661 155.62 154.21V154.21ZM187.473 131.767C173.718 115.658 153.448 106.79 130.282 106.79H127.386C125.757 103.532 122.318 101.36 118.518 101.36H118.156C112.546 101.541 108.202 106.247 108.383 111.858C108.564 117.287 113.088 121.631 118.518 121.631H118.88C122.861 121.45 126.3 118.916 127.748 115.477H131.006C144.761 115.477 157.791 119.459 169.556 127.242C178.605 133.215 185.12 140.997 188.74 150.408C191.816 158.01 191.635 165.431 188.377 171.766C183.31 181.358 174.804 186.607 163.583 186.607C156.343 186.607 149.466 184.435 145.846 182.806C143.856 184.616 140.236 187.511 137.702 189.322C145.485 192.941 153.448 194.932 161.049 194.932C178.423 194.932 191.273 185.34 196.16 175.747C201.409 165.25 201.046 147.151 187.473 131.767V131.767ZM95.5328 157.286C95.7139 162.716 100.238 167.059 105.668 167.059H106.03C111.641 166.878 115.984 162.172 115.803 156.562C115.622 151.132 111.097 146.788 105.668 146.788H105.306C104.944 146.788 104.401 146.788 104.04 146.969C96.6189 134.662 93.5423 121.269 94.6284 106.79C95.3517 95.9301 98.9717 86.5185 105.306 78.7357C110.555 72.039 120.69 68.7812 127.567 68.6007C146.751 68.2385 154.895 92.129 155.438 101.722C157.791 102.265 161.773 103.532 164.488 104.437C162.316 75.1168 144.217 59.9135 126.843 59.9135C110.555 59.9135 95.5328 71.6779 89.56 89.0529C81.235 112.22 86.6645 134.481 96.7995 152.037C95.8951 153.304 95.3517 155.295 95.5328 157.286V157.286Z" fill="#764ABC"/>
</svg>
