<svg width="256" height="257" viewBox="0 0 256 257" fill="none" xmlns="http://www.w3.org/2000/svg">
<rect x="0.5" y="0.718018" width="255" height="255" rx="31.5" fill="#1D1F23"/>
<rect x="0.5" y="0.718018" width="255" height="255" rx="31.5" stroke="black"/>
<path fill-rule="evenodd" clip-rule="evenodd" d="M83.6677 109.452C84.9083 111.162 95.3693 114.387 110.974 117.747C126.578 120.737 142.806 132.546 155.426 128.905C163.962 126.437 173.223 104.449 173.223 101.183V100.848C173.223 98.5682 171.513 96.7376 168.609 95.2154C156.707 89.1333 154.454 86.8935 150.041 88.1073C127.134 94.4308 86.692 91.1986 83.6677 109.452Z" fill="#380D09"/>
<path fill-rule="evenodd" clip-rule="evenodd" d="M83.6677 154.098C84.9083 155.835 95.3693 159.034 110.974 162.4C128.408 165.579 143.57 175.939 156.197 172.291C164.734 169.823 173.223 149.103 173.223 145.83V145.508C173.223 143.235 171.513 141.398 168.609 139.882C159.53 135.054 147.533 129.736 143.128 130.95C120.181 137.26 89.5084 138.648 83.6677 154.098Z" fill="#380D09"/>
<path fill-rule="evenodd" clip-rule="evenodd" d="M83.5404 119.047V119.369C83.5335 119.262 83.5335 119.155 83.5404 119.047Z" fill="#555555"/>
<path fill-rule="evenodd" clip-rule="evenodd" d="M156.164 65.1601C135.067 71.2556 101.599 74.6957 83.5672 74.6957V109.13C83.5729 109.248 83.6177 109.361 83.6946 109.452C95.9997 109.452 133.988 105.428 156.908 99.1247C160.905 98.1073 164.825 96.8053 168.636 95.2287C171.439 93.968 173.25 92.6402 173.25 91.2588V56.5298C173.223 59.8022 164.7 62.6991 156.164 65.1601Z" fill="#DE3423"/>
<path fill-rule="evenodd" clip-rule="evenodd" d="M156.164 109.814C143.537 113.455 126.497 116.164 110.974 117.747C100.553 118.813 90.8161 119.369 83.5672 119.369V153.777C83.5729 153.895 83.6177 154.008 83.6946 154.099C95.9997 154.099 133.988 150.075 156.908 143.778C160.904 142.758 164.824 141.456 168.636 139.882C171.439 138.615 173.25 137.294 173.25 135.913V101.183C173.223 104.449 164.7 107.346 156.164 109.814Z" fill="#DE3423"/>
<path fill-rule="evenodd" clip-rule="evenodd" d="M156.164 154.494C143.537 158.135 126.497 160.838 110.974 162.427C100.539 163.493 90.7893 164.05 83.5403 164.05V198.752C95.718 198.752 133.9 194.762 156.881 188.432C165.35 186.098 173.223 183.443 173.223 180.559V145.83C173.223 149.13 164.7 152 156.164 154.494Z" fill="#DE3423"/>
</svg>
