<svg width="257" height="257" viewBox="0 0 257 257" fill="none" xmlns="http://www.w3.org/2000/svg">
<rect x="0.641602" y="1.39111" width="255" height="255" rx="31.5" fill="#1D1F23"/>
<rect x="0.641602" y="1.39111" width="255" height="255" rx="31.5" stroke="black"/>
<path d="M56.9348 57.2029H199.157V199.425H56.9348V57.2029Z" fill="#34BDB2"/>
<path d="M150.524 105.559C143.015 101.202 136.35 97.7762 127.63 97.9273C122.641 98.014 118.358 100.726 117.457 105.688C116.619 110.306 120.723 112.867 124.993 114.439C132.075 117.047 138.24 119.8 145.198 122.7C157.848 127.971 164.334 136.508 163.567 147.462C162.591 161.4 154.204 171.396 140.873 174.691C123.454 178.998 106.539 172.438 92.2476 163.28C95.8548 157.785 100.04 154.034 103.625 148.572C111.882 152.087 118.369 156.836 127.006 157.576C133.097 158.098 139.998 157.808 141.366 150.654C142.6 144.203 136.985 140.745 131.509 138.813C124.99 136.513 118.483 133.701 112.089 131.09C100.271 126.262 95.462 116.821 96.2714 105.698C96.2714 99.1762 101.683 85.9946 114.95 81.8946C135.334 75.5946 146.565 82.0457 161.347 91.5451C157.421 96.7373 154.403 100.429 150.524 105.559" fill="white"/>
</svg>
