<svg width="257" height="257" viewBox="0 0 257 257" fill="none" xmlns="http://www.w3.org/2000/svg">
<rect x="1.43286" y="0.985107" width="255" height="255" rx="31.5" fill="#1D1F23"/>
<rect x="1.43286" y="0.985107" width="255" height="255" rx="31.5" stroke="black"/>
<path opacity="0.45" d="M151.575 56.7998L128.711 97.437H83.0131L105.86 56.7998H151.575Z" fill="white"/>
<path opacity="0.6" d="M128.711 97.437H174.422L151.577 56.7998H105.86L128.711 97.437Z" fill="white"/>
<path opacity="0.8" d="M105.86 138.057L128.711 97.437L105.86 56.7998L83.0131 97.437L105.86 138.057Z" fill="white"/>
<path opacity="0.45" d="M106.083 199.016L128.947 158.379H174.661L151.797 199.016H106.083Z" fill="white"/>
<path opacity="0.6" d="M128.947 158.379H83.2371L106.083 199.016H151.797L128.947 158.379Z" fill="white"/>
<path opacity="0.8" d="M151.797 117.756L128.947 158.379L151.797 199.016L174.661 158.379L151.797 117.756Z" fill="white"/>
</svg>
