<svg width="256" height="257" viewBox="0 0 256 257" fill="none" xmlns="http://www.w3.org/2000/svg">
<rect x="0.5" y="0.936035" width="255" height="255" rx="31.5" fill="#1D1F23"/>
<rect x="0.5" y="0.936035" width="255" height="255" rx="31.5" stroke="black"/>
<path d="M186.787 64.9909C184.744 69.9583 182.102 74.3621 179.178 78.3079C166.283 65.167 148.246 56.8175 128.341 56.8175C89.2351 56.8175 57.2814 88.5951 57.2814 127.841C57.2814 148.345 66.0537 166.806 79.9696 179.841L82.6119 182.202C94.9072 192.594 110.902 198.901 128.305 198.901C165.649 198.901 196.405 169.765 199.047 132.985C201.161 115.123 195.736 92.259 186.787 64.9909ZM90.2568 180.44C88.2135 183.082 84.4086 183.364 81.7664 181.321C79.1241 179.277 78.8423 175.473 80.8856 172.83C82.929 170.188 86.7338 169.906 89.3761 171.95C91.8774 173.993 92.3002 177.798 90.2568 180.44ZM186.365 159.196C168.926 182.483 131.441 174.592 107.555 175.754C107.555 175.754 103.292 176.036 99.0644 176.635C99.0644 176.635 100.685 175.895 102.728 175.155C119.568 169.307 127.495 168.109 137.747 162.86C156.947 153.031 176.113 131.505 179.953 109.24C172.625 130.625 150.359 149.085 130.137 156.554C116.221 161.698 91.1728 166.665 91.1728 166.665L90.1511 166.066C73.1702 157.717 72.5713 120.795 103.644 108.923C117.278 103.638 130.173 106.562 144.969 103.075C160.647 99.4107 178.825 87.6791 186.118 72.3188C194.256 97.0855 204.226 135.451 186.365 159.196Z" fill="#6CB52D"/>
<path d="M90.2568 180.44C88.2135 183.082 84.4086 183.364 81.7664 181.321C79.1241 179.277 78.8423 175.473 80.8856 172.83C82.929 170.188 86.7338 169.906 89.3761 171.949C91.8774 173.993 92.3002 177.798 90.2568 180.44Z" fill="#6CB52D"/>
</svg>
