<svg width="256" height="256" viewBox="0 0 256 256" fill="none" xmlns="http://www.w3.org/2000/svg">
<rect x="0.5" y="0.5" width="255" height="255" rx="31.5" fill="#1D1F23"/>
<rect x="0.5" y="0.5" width="255" height="255" rx="31.5" stroke="black"/>
<path d="M75.9171 187.37L71.5082 69.9654C71.4417 68.1007 72.1063 66.2838 73.3604 64.9022C74.6145 63.5206 76.3587 62.6837 78.2211 62.5699L178.061 56.3263C179.036 56.2641 180.014 56.4026 180.934 56.7333C181.854 57.0641 182.696 57.58 183.409 58.2491C184.121 58.9183 184.689 59.7265 185.076 60.6238C185.464 61.5211 185.664 62.4884 185.663 63.4659V191.387C185.662 192.353 185.465 193.309 185.085 194.197C184.705 195.084 184.149 195.886 183.45 196.553C182.752 197.22 181.926 197.739 181.022 198.078C180.117 198.417 179.154 198.57 178.189 198.527L82.7437 194.239C80.9507 194.158 79.2535 193.406 77.9889 192.132C76.7244 190.859 75.9849 189.163 75.9171 187.37Z" fill="#FF4785"/>
<path fill-rule="evenodd" clip-rule="evenodd" d="M170.211 56.817L156.472 57.6703L155.804 73.7912C155.796 73.9929 155.845 74.1928 155.946 74.3676C156.047 74.5425 156.195 74.6851 156.374 74.7789C156.553 74.8728 156.754 74.914 156.956 74.8977C157.157 74.8815 157.349 74.8085 157.511 74.6872L163.768 69.937L169.059 74.1041C169.219 74.2305 169.411 74.3086 169.614 74.329C169.817 74.3494 170.021 74.3114 170.203 74.2194C170.384 74.1274 170.536 73.9853 170.64 73.8099C170.743 73.6344 170.794 73.433 170.787 73.2294L170.211 56.817ZM159.516 110.79C157.006 112.746 138.261 114.076 138.261 111.295C138.659 100.678 133.909 100.216 131.264 100.216C128.76 100.216 124.536 100.97 124.536 106.659C124.536 112.454 130.709 115.725 137.955 119.565C148.245 125.02 160.711 131.626 160.711 148.237C160.711 164.166 147.768 172.955 131.271 172.955C114.24 172.955 99.356 166.065 101.034 142.179C101.696 139.377 123.349 140.045 123.349 142.179C123.079 152.035 125.326 154.936 131 154.936C135.36 154.936 137.336 152.532 137.336 148.493C137.336 142.371 130.908 138.758 123.505 134.605C113.486 128.98 101.696 122.36 101.696 107.164C101.696 92.0027 112.12 81.8907 130.737 81.8907C149.354 81.8907 159.516 91.8463 159.516 110.79Z" fill="white"/>
</svg>
