<svg width="257" height="257" viewBox="0 0 257 257" fill="none" xmlns="http://www.w3.org/2000/svg">
<rect x="0.984985" y="1.09424" width="255" height="255" rx="31.5" fill="#1D1F23"/>
<rect x="0.984985" y="1.09424" width="255" height="255" rx="31.5" stroke="black"/>
<path d="M88.3357 56.906H167.083C170.915 56.906 174.635 57.5171 178.245 58.7949C183.465 60.6838 188.186 64.0171 191.74 68.3505C195.349 72.6838 197.737 78.0171 198.57 83.5727C198.904 85.6283 198.959 87.6838 198.959 89.7394V166.573C198.959 169.017 198.848 171.517 198.348 173.906C197.238 179.406 194.628 184.573 190.851 188.739C187.13 192.906 182.244 196.017 176.968 197.684C173.747 198.684 170.415 199.128 167.027 199.128C165.528 199.128 88.1136 199.128 86.9474 199.073C81.2829 198.795 75.674 196.962 70.9536 193.795C66.3443 190.684 62.568 186.35 60.1245 181.35C58.0143 177.073 56.9591 172.295 56.9591 167.517V88.5171C56.848 83.7949 57.8477 79.1283 59.9024 74.906C62.2904 69.906 66.0111 65.5171 70.6204 62.406C75.3408 59.1838 80.8942 57.2949 86.5587 57.0171C87.114 56.906 87.7249 56.906 88.3357 56.906V56.906Z" fill="url(#paint0_linear_301_8818)"/>
<path d="M176.69 173.239C176.19 172.462 175.635 171.684 175.024 170.962C173.636 169.295 172.025 167.85 170.248 166.628C168.027 165.128 165.417 164.184 162.751 164.073C160.863 163.962 158.975 164.295 157.198 164.962C155.42 165.573 153.699 166.462 152.033 167.35C150.089 168.35 148.146 169.35 146.091 170.184C143.647 171.184 141.093 171.962 138.483 172.517C135.206 173.128 131.874 173.35 128.598 173.295C122.656 173.184 116.713 172.295 111.049 170.628C106.051 169.128 101.275 167.073 96.7768 164.462C92.8339 162.184 89.1686 159.573 85.7256 156.628C82.8933 154.184 80.2832 151.573 77.8398 148.795C76.1737 146.85 74.5633 144.795 73.0638 142.684C72.453 141.85 71.8976 140.962 71.3978 140.073L56.7369 124.239V88.406C56.7369 71.0171 70.787 56.906 88.169 56.906H116.214L136.983 78.0171C183.854 109.906 168.693 145.073 168.693 145.073C168.693 145.073 182.021 160.073 176.69 173.239V173.239Z" fill="url(#paint1_linear_301_8818)"/>
<path d="M137.094 78.0172C183.965 109.906 168.804 145.073 168.804 145.073C168.804 145.073 182.132 160.128 176.745 173.295C176.745 173.295 171.247 164.073 162.029 164.073C153.143 164.073 147.923 173.295 130.041 173.295C90.2238 173.295 71.3978 140.017 71.3978 140.017C107.273 163.628 131.763 146.906 131.763 146.906C115.603 137.517 81.2273 92.6283 81.2273 92.6283C111.16 118.128 124.099 124.85 124.099 124.85C116.38 118.462 94.722 87.2394 94.722 87.2394C112.048 104.795 146.479 129.295 146.479 129.295C156.253 102.184 137.094 78.0172 137.094 78.0172Z" fill="white"/>
<defs>
<linearGradient id="paint0_linear_301_8818" x1="141.31" y1="51.831" x2="114.43" y2="204.217" gradientUnits="userSpaceOnUse">
<stop stop-color="#FAAE42"/>
<stop offset="1" stop-color="#EF3E31"/>
</linearGradient>
<linearGradient id="paint1_linear_301_8818" x1="129.271" y1="59.2038" x2="109.597" y2="170.733" gradientUnits="userSpaceOnUse">
<stop stop-color="#E39F3A"/>
<stop offset="1" stop-color="#D33929"/>
</linearGradient>
</defs>
</svg>
