<svg width="257" height="257" viewBox="0 0 257 257" fill="none" xmlns="http://www.w3.org/2000/svg">
<rect x="0.641602" y="0.688232" width="255" height="255" rx="31.5" fill="#1D1F23"/>
<rect x="0.641602" y="0.688232" width="255" height="255" rx="31.5" stroke="black"/>
<path d="M51.8873 99.5183C57.26 99.5183 61.6154 95.1628 61.6154 89.7901C61.6154 84.4174 57.26 80.0619 51.8873 80.0619C46.5146 80.0619 42.1592 84.4174 42.1592 89.7901C42.1592 95.1628 46.5146 99.5183 51.8873 99.5183Z" fill="#FF6309"/>
<path d="M121.644 139.782C127.017 139.782 131.372 135.427 131.372 130.054C131.372 124.681 127.017 120.325 121.644 120.325C116.271 120.325 111.915 124.681 111.915 130.054C111.915 135.427 116.271 139.782 121.644 139.782Z" fill="#FFB515"/>
<path d="M121.636 59.2387C127.008 59.2387 131.364 54.8833 131.364 49.5106C131.364 44.1379 127.008 39.7825 121.636 39.7825C116.263 39.7825 111.907 44.1379 111.907 49.5106C111.907 54.8833 116.263 59.2387 121.636 59.2387Z" fill="#C90016"/>
<path d="M98.3901 65.7179C110.504 65.7179 120.554 74.7125 122.218 86.3736H138.885C138.127 77.2107 134.329 68.67 127.977 61.935C123.909 64.0064 118.907 64.0461 114.658 61.5937C110.406 59.138 107.939 54.7838 107.703 50.2203C104.649 49.5091 101.524 49.1508 98.3887 49.1521C92.3071 49.1521 86.4302 50.4794 81.0854 52.9967L89.4313 67.4494C92.2789 66.3033 95.3204 65.7155 98.3901 65.7179Z" fill="#FF6309"/>
<path d="M74.3195 89.7901C74.3195 82.1208 77.9242 75.2791 83.5274 70.8679L75.1849 56.4172C73.2087 57.7981 71.3575 59.3498 69.6526 61.0543C64.8246 65.8823 61.3623 71.7115 59.4573 78.0734C63.2959 80.5596 65.8378 84.876 65.8378 89.7901C65.8378 94.7029 63.2959 99.0199 59.4573 101.505C61.3623 107.867 64.8246 113.696 69.6526 118.525C71.3562 120.229 73.2058 121.78 75.1802 123.161L83.5241 108.708C77.9222 104.298 74.3195 97.4568 74.3195 89.7901Z" fill="#FFB515"/>
<path d="M122.219 93.1954C120.559 104.86 110.507 113.861 98.3903 113.861C95.2243 113.861 92.1987 113.245 89.4282 112.128L81.083 126.581C86.4265 129.1 92.3067 130.428 98.3897 130.428C101.568 130.428 104.691 130.061 107.71 129.358C107.943 124.789 110.41 120.427 114.665 117.97C118.915 115.516 123.92 115.554 127.988 117.631C134.334 110.894 138.128 102.355 138.883 93.1954H122.219Z" fill="#C90016"/>
</svg>
