<svg width="256" height="257" viewBox="0 0 256 257" fill="none" xmlns="http://www.w3.org/2000/svg">
<rect x="0.5" y="0.718018" width="255" height="255" rx="31.5" fill="#1D1F23"/>
<rect x="0.5" y="0.718018" width="255" height="255" rx="31.5" stroke="black"/>
<path d="M65.3648 125.391C65.3092 126.391 65.2814 128.752 65.2814 129.78C65.2814 164.474 92.5314 192.585 126.143 192.585C159.754 192.585 187.004 164.474 187.004 129.78C187.004 128.752 186.976 127.752 186.92 126.724L65.3648 125.391Z" fill="url(#paint0_linear_307_1345)"/>
<path d="M131.837 185.03C162.335 185.03 187.059 160.306 187.059 129.808C187.059 99.3092 162.335 74.5853 131.837 74.5853C101.339 74.5853 76.6148 99.3092 76.6148 129.808C76.6148 160.306 101.339 185.03 131.837 185.03Z" fill="#007AFF"/>
<path d="M164.059 74.9464C153.948 67.5853 140.726 62.6964 127.393 62.6964C93.087 62.6964 65.3092 91.3909 65.3092 126.752H76.7259C77.7536 101.196 98.8925 80.1964 125.004 80.1964C135.865 80.1964 145.893 83.7797 153.976 89.8075C158.031 92.502 163.531 91.4742 166.337 87.4464C169.143 83.3353 168.143 77.752 164.059 74.9464Z" fill="url(#paint1_linear_307_1345)"/>
<path opacity="0.5" d="M186.337 138.641L160.837 113.141L144.531 111.752H129.615L128.115 131.141L106.976 110.002L101.837 117.391L103.754 149.196L139.059 184.502C163.254 181.363 182.476 162.558 186.337 138.641Z" fill="url(#paint2_linear_307_1345)"/>
<path d="M126.67 107.974V136.196H126.643C126.643 141.363 122.448 145.558 117.281 145.558C112.115 145.558 107.92 141.363 107.92 136.196V112.78C107.92 110.196 105.809 108.085 103.226 108.085C100.643 108.085 98.5314 110.169 98.5314 112.78V136.252C98.5314 146.585 106.92 154.974 117.281 154.974C127.643 154.974 136.031 146.585 136.031 136.252V117.474H150.087C152.643 117.474 154.726 119.558 154.726 122.113C154.726 124.669 152.643 126.752 150.087 126.752H145.615C143.004 126.752 140.865 128.863 140.865 131.474C140.865 134.03 142.893 136.113 145.448 136.196L155.42 152.696C156.254 154.085 157.754 155.03 159.504 155.03C162.115 155.03 164.254 152.919 164.254 150.308C164.254 149.252 163.893 148.252 163.309 147.474L155.781 135.03C160.726 132.835 164.17 127.891 164.17 122.141C164.17 114.335 157.837 108.03 150.031 108.03L126.67 107.974Z" fill="white"/>
<path d="M158.92 86.9742C161.682 86.9742 163.92 84.7357 163.92 81.9742C163.92 79.2128 161.682 76.9742 158.92 76.9742C156.159 76.9742 153.92 79.2128 153.92 81.9742C153.92 84.7357 156.159 86.9742 158.92 86.9742Z" fill="white"/>
<path d="M156.115 86.141C156.115 86.141 138.865 70.9187 117.031 73.8354C108.754 75.1687 102.115 77.6687 95.6703 81.5298C89.2259 85.391 98.5592 78.8354 101.337 77.3354C104.143 75.8354 117.198 67.7243 138.893 71.0021C160.587 74.2798 162.976 79.1132 162.976 79.1132L156.115 86.141Z" fill="white"/>
<defs>
<linearGradient id="paint0_linear_307_1345" x1="65.2814" y1="158.988" x2="187.004" y2="158.988" gradientUnits="userSpaceOnUse">
<stop stop-color="#FF3B30"/>
<stop offset="1" stop-color="#F7951E"/>
</linearGradient>
<linearGradient id="paint1_linear_307_1345" x1="65.3092" y1="94.7242" x2="167.926" y2="94.7242" gradientUnits="userSpaceOnUse">
<stop stop-color="#FF3B30"/>
<stop offset="1" stop-color="#F7951E"/>
</linearGradient>
<linearGradient id="paint2_linear_307_1345" x1="115.565" y1="114.438" x2="170.923" y2="169.796" gradientUnits="userSpaceOnUse">
<stop/>
<stop offset="1" stop-opacity="0"/>
</linearGradient>
</defs>
</svg>
