<svg width="256" height="257" viewBox="0 0 256 257" fill="none" xmlns="http://www.w3.org/2000/svg">
<rect x="0.5" y="0.718018" width="255" height="255" rx="31.5" fill="#1D1F23"/>
<rect x="0.5" y="0.718018" width="255" height="255" rx="31.5" stroke="black"/>
<path d="M128.974 62.4911L63.839 127.714L128.703 192.665L193.838 127.442L128.974 62.4911Z" fill="#019833" stroke="black" stroke-width="0.267335"/>
<path d="M128.703 62.7629V57.0559L57.8683 127.985H63.839L128.703 62.7629Z" fill="#66FE98" stroke="black" stroke-width="0.267335"/>
<path d="M128.54 62.7629V57.0559L199.374 127.985H193.404L128.54 62.7629Z" fill="#45FE02" stroke="black" stroke-width="0.267335"/>
<path d="M128.703 193.045V198.752L57.8683 127.823H63.839L128.703 193.045Z" fill="#017D17" stroke="black" stroke-width="0.267335"/>
<path d="M71.0093 64.2593H116.683L119.466 67.0456V75.5969L117.259 78.2872H112.269V120.755L155.256 78.2872H148.156L145.661 75.5969V66.5652L147.964 64.4514H194.213L196.516 66.7574V75.2126L91.927 182.632H80.0289L76.5849 180.641V77.9029H70.8174L68.7064 75.7891V66.7574L71.0093 64.2593Z" stroke="black" stroke-width="5.3467"/>
<path d="M128.54 193.045V198.752L199.374 127.823H193.404L128.54 193.045Z" fill="#005D04" stroke="black" stroke-width="0.267335"/>
<path d="M128.512 56.5298L57.4108 127.726L128.215 198.626L199.316 127.43L128.512 56.5298Z" stroke="black" stroke-width="1.60401"/>
<path d="M117.168 68.6059L119.747 67.2471L117.101 64.5974H71.031L68.6902 66.9413V75.8075L71.2855 78.4063L72.5237 75.8075L70.8953 74.177V67.9265L72.1166 66.8394H116.083L117.168 68.6059Z" fill="#FEFEFE" stroke="black" stroke-width="0.267335"/>
<path d="M149.739 66.5656L148.113 68.1944V74.1749L149.537 75.6016H157.065V81.3799L107.267 131.922V75.6729H115.543L117.241 73.9727V67.921L115.674 66.7082H72.1217L70.6969 68.135V74.3175L72.1454 75.7681H79.7208V179.35L81.1456 180.776H89.754L194.111 72.9502V68.1944L192.484 66.5656H149.739Z" stroke="black" stroke-width="0.267335"/>
<path d="M79.6451 75.597V179.366L80.9884 180.903L79.9349 182.913L76.9584 179.942V78.2873L79.6451 75.597Z" fill="#FEFEFE" stroke="black" stroke-width="0.267335"/>
<path d="M72.2022 75.597L71.4346 78.0952H76.9999L80.0704 75.597H72.2022Z" fill="#808080" stroke="black" stroke-width="0.267335"/>
<path d="M148.65 78.4027L149.872 75.889L148.108 74.2584V68.6873L150.143 66.6491H192.616L194.245 68.8232L196.552 67.1926L194.177 64.8147H148.515L146.242 67.0907V76.0248L148.599 78.2499M111.698 121.149L107.262 131.926L157.335 81.6503V75.6715L111.698 121.149Z" fill="#FEFEFE"/>
<path d="M148.65 78.4027L149.872 75.889L148.108 74.2584V68.6873L150.143 66.6491H192.616L194.245 68.8232L196.552 67.1926L194.177 64.8147H148.515L146.242 67.0907V76.0248L148.599 78.2499M111.698 121.149L107.262 131.926L157.335 81.6503V75.6715L111.698 121.149Z" stroke="black" stroke-width="0.267335"/>
<path d="M117.067 68.2949L119.274 66.8536V75.5971L116.731 78.1433H111.789V121.236L107.28 131.901V75.5971H115.531L117.067 74.348V68.2949Z" fill="#808080" stroke="black" stroke-width="0.267335"/>
<path d="M149.739 66.5656L148.113 68.1944V74.1749L149.537 75.6016H157.065V81.3799L107.267 131.922V75.6729H115.543L117.241 73.9727V67.921L115.674 66.7082H72.1217L70.6969 68.135V74.3175L72.1454 75.7681H79.7208V179.35L81.1456 180.776H89.754L194.111 72.9502V68.1944L192.484 66.5656H149.739Z" fill="#CCCCCC" stroke="black" stroke-width="0.267335"/>
<path d="M194.245 68.334L196.563 66.994V75.3997L91.4386 182.965H80.2778L81.3441 180.843H89.8931L194.109 73.0898L194.245 68.334Z" fill="#808080" stroke="black" stroke-width="0.267335"/>
<path d="M157.127 75.7411L154.776 78.1912H148.635L150.075 75.7411C150.123 75.7411 157.127 75.7411 157.127 75.7411Z" fill="#808080" stroke="black" stroke-width="0.267335"/>
<path d="M132.059 136.386C131.98 136.403 131.907 136.44 131.846 136.493L129.827 138.229C129.767 138.284 129.722 138.354 129.697 138.431L127.678 144.091C127.648 144.174 127.643 144.264 127.661 144.35C127.68 144.436 127.723 144.515 127.785 144.578L129.329 146.124C129.418 146.21 129.537 146.257 129.661 146.255H135.895C136.018 146.257 136.138 146.21 136.227 146.124L137.854 144.483C137.91 144.427 137.951 144.357 137.972 144.281L139.706 138.324C139.73 138.243 139.731 138.158 139.71 138.076C139.689 137.994 139.647 137.92 139.587 137.861L138.246 136.517C138.156 136.431 138.037 136.384 137.913 136.386H132.154C132.123 136.383 132.091 136.383 132.059 136.386ZM120.637 152.342C120.551 152.36 120.473 152.402 120.41 152.463C120.347 152.524 120.302 152.602 120.281 152.687L119.509 155.754C119.492 155.823 119.491 155.895 119.505 155.964C119.52 156.034 119.55 156.099 119.593 156.155C119.637 156.211 119.692 156.257 119.756 156.288C119.82 156.32 119.889 156.336 119.96 156.337H123.629L114.534 182.339C114.511 182.409 114.504 182.484 114.515 182.557C114.526 182.631 114.554 182.7 114.596 182.76C114.639 182.821 114.696 182.87 114.761 182.904C114.827 182.938 114.899 182.957 114.973 182.958H128.212C128.312 182.959 128.409 182.929 128.49 182.871C128.572 182.813 128.632 182.731 128.664 182.637L129.53 179.842C129.552 179.772 129.557 179.698 129.544 179.625C129.531 179.553 129.502 179.484 129.458 179.425C129.414 179.366 129.357 179.318 129.291 179.285C129.225 179.252 129.153 179.236 129.079 179.236H126.087L135.087 152.96C135.111 152.89 135.117 152.815 135.106 152.742C135.096 152.669 135.068 152.599 135.025 152.539C134.982 152.479 134.925 152.43 134.86 152.395C134.794 152.361 134.722 152.343 134.648 152.342H120.732C120.7 152.339 120.669 152.339 120.637 152.342ZM162.765 152.437C162.663 152.458 162.571 152.513 162.503 152.592L159.749 155.707H155.367L152.446 152.675C152.403 152.63 152.352 152.595 152.294 152.57C152.237 152.546 152.176 152.533 152.114 152.532H141.653C141.557 152.532 141.464 152.562 141.385 152.617C141.306 152.673 141.247 152.751 141.214 152.841L140.252 155.719C140.229 155.789 140.222 155.863 140.233 155.937C140.244 156.01 140.272 156.079 140.315 156.14C140.358 156.2 140.414 156.249 140.479 156.284C140.545 156.318 140.618 156.336 140.692 156.337H143.494L134.778 182.054C134.755 182.124 134.748 182.199 134.759 182.272C134.77 182.345 134.798 182.415 134.841 182.475C134.884 182.535 134.94 182.585 135.006 182.619C135.071 182.653 135.144 182.671 135.218 182.672H146.355C146.451 182.672 146.545 182.642 146.624 182.587C146.702 182.532 146.762 182.453 146.795 182.363L147.649 179.854C147.673 179.784 147.68 179.709 147.669 179.636C147.658 179.563 147.63 179.494 147.587 179.433C147.544 179.373 147.488 179.324 147.422 179.289C147.357 179.255 147.284 179.237 147.21 179.236H145.263L150.82 161.723H160.877L154.536 182.066C154.515 182.136 154.51 182.211 154.523 182.283C154.535 182.356 154.565 182.424 154.608 182.483C154.652 182.542 154.71 182.59 154.775 182.623C154.841 182.656 154.914 182.673 154.987 182.672H165.733C165.824 182.671 165.913 182.644 165.989 182.593C166.065 182.543 166.125 182.471 166.16 182.387L167.122 180.08C167.15 180.01 167.16 179.933 167.153 179.858C167.145 179.783 167.118 179.71 167.076 179.647C167.034 179.584 166.978 179.532 166.911 179.496C166.845 179.459 166.77 179.44 166.695 179.438H164.747L170.399 161.628H179.969L173.534 182.066C173.512 182.136 173.508 182.211 173.52 182.283C173.533 182.356 173.562 182.424 173.606 182.483C173.65 182.542 173.707 182.59 173.773 182.623C173.839 182.656 173.912 182.673 173.985 182.672H185.787C185.882 182.673 185.975 182.645 186.053 182.592C186.132 182.539 186.192 182.463 186.227 182.375L187.188 179.866C187.214 179.795 187.223 179.719 187.213 179.645C187.203 179.57 187.176 179.499 187.133 179.437C187.089 179.375 187.032 179.324 186.965 179.289C186.899 179.255 186.824 179.236 186.749 179.236H184.41L191.522 156.111C191.546 156.039 191.551 155.963 191.539 155.888C191.527 155.814 191.497 155.743 191.451 155.683L189.243 152.711C189.197 152.653 189.14 152.607 189.074 152.576C189.008 152.545 188.935 152.53 188.863 152.532H180.421C180.356 152.531 180.293 152.543 180.234 152.568C180.174 152.592 180.121 152.629 180.076 152.675L177.417 155.6H172.762L170.007 152.58C169.963 152.534 169.909 152.497 169.85 152.473C169.791 152.448 169.727 152.436 169.663 152.437H162.86C162.828 152.434 162.796 152.434 162.765 152.437Z" fill="#CCCCCC" stroke="black" stroke-width="2.13868" stroke-miterlimit="10"/>
<path d="M132.154 136.85L130.136 138.586L128.117 144.245L129.661 145.791H135.895L137.521 144.15L139.255 138.193L137.913 136.85H132.154ZM120.732 152.806L119.96 155.873H124.282L114.973 182.494H128.212L129.079 179.7H125.434L134.648 152.806H120.732ZM162.86 152.901L159.974 156.17H155.177L152.114 152.996H141.653L140.692 155.873H144.147L135.218 182.209H146.355L147.21 179.7H144.622L150.475 161.259H161.518L154.987 182.209H165.733L166.695 179.902H164.106L170.055 161.164H180.611L173.985 182.209H185.787L186.749 179.7H183.769L191.071 155.968L188.863 152.996H180.421L177.63 156.063H172.548L169.663 152.901H162.86Z" fill="#CCCCCC" stroke="black" stroke-width="0.267335" stroke-miterlimit="10"/>
</svg>
