<svg width="256" height="257" viewBox="0 0 256 257" fill="none" xmlns="http://www.w3.org/2000/svg">
<rect x="0.5" y="0.718018" width="255" height="255" rx="31.5" fill="#1D1F23"/>
<rect x="0.5" y="0.718018" width="255" height="255" rx="31.5" stroke="black"/>
<g clip-path="url(#clip0_307_1355)">
<path d="M128.392 198.752C167.666 198.752 199.504 166.914 199.504 127.641C199.504 88.3673 167.666 56.5298 128.392 56.5298C89.1189 56.5298 57.2814 88.3673 57.2814 127.641C57.2814 166.914 89.1189 198.752 128.392 198.752Z" fill="#004E8C"/>
<path opacity="0.1" d="M79.1036 76.5298C71.8747 82.9716 66.0374 90.8219 61.9497 99.5994C57.8619 108.377 55.6098 117.897 55.3314 127.576C55.053 137.254 56.7541 146.888 60.3305 155.886C63.9069 164.884 69.2833 173.057 76.13 179.903C82.9767 186.75 91.1495 192.126 100.148 195.703C109.146 199.279 118.779 200.98 128.458 200.702C138.137 200.424 147.656 198.171 156.434 194.084C165.212 189.996 173.062 184.159 179.504 176.93L79.1036 76.5298Z" fill="white"/>
<path d="M131.259 99.6409L110.615 155.641H103.304L82.9924 99.6409H90.3035L105.859 144.085C106.396 145.697 106.775 147.356 106.992 149.041H107.148C107.381 147.312 107.798 145.614 108.392 143.974L124.215 99.5298L131.259 99.6409Z" fill="white"/>
<path d="M139.326 155.641V99.6409H155.259C159.397 99.4194 163.478 100.68 166.77 103.196C168.147 104.308 169.248 105.723 169.989 107.33C170.729 108.938 171.087 110.694 171.037 112.463C171.08 115.433 170.152 118.336 168.392 120.73C166.617 123.113 164.125 124.866 161.281 125.73V125.885C164.721 126.163 167.942 127.679 170.348 130.152C172.674 132.716 173.896 136.093 173.748 139.552C173.821 141.756 173.395 143.948 172.502 145.964C171.61 147.98 170.273 149.769 168.592 151.196C164.956 154.231 160.326 155.814 155.592 155.641H139.326ZM145.992 105.552V123.641H152.659C155.695 123.784 158.681 122.838 161.081 120.974C162.121 120.068 162.94 118.937 163.476 117.665C164.011 116.394 164.249 115.018 164.17 113.641C164.17 108.204 160.592 105.485 153.437 105.485L145.992 105.552ZM145.992 129.53V149.685H154.881C158.076 149.871 161.231 148.9 163.77 146.952C164.83 146.023 165.666 144.868 166.216 143.571C166.766 142.274 167.016 140.87 166.948 139.463C166.948 132.856 162.444 129.552 153.437 129.552L145.992 129.53Z" fill="white"/>
</g>
<defs>
<clipPath id="clip0_307_1355">
<rect width="142.222" height="142.222" fill="white" transform="translate(57.2814 56.5298)"/>
</clipPath>
</defs>
</svg>
