<svg width="256" height="257" viewBox="0 0 256 257" fill="none" xmlns="http://www.w3.org/2000/svg">
<rect x="0.5" y="1.39111" width="255" height="255" rx="31.5" fill="#1D1F23"/>
<rect x="0.5" y="1.39111" width="255" height="255" rx="31.5" stroke="black"/>
<path d="M197.742 78.2532L132.154 197.569C130.8 200.032 127.321 200.047 125.946 197.595L59.0577 78.2643C57.5601 75.5933 59.8055 72.3573 62.7812 72.8989L128.44 84.8377C128.859 84.9139 129.288 84.9131 129.706 84.8355L193.991 72.9155C196.957 72.3656 199.213 75.5766 197.742 78.2532V78.2532Z" fill="url(#paint0_linear_301_8912)"/>
<path d="M159.716 57.2379L111.179 66.9136C110.792 66.9909 110.44 67.1971 110.18 67.4998C109.92 67.8025 109.766 68.1846 109.743 68.5859L106.757 119.886C106.741 120.167 106.789 120.449 106.898 120.708C107.007 120.967 107.174 121.196 107.386 121.378C107.598 121.56 107.848 121.69 108.117 121.756C108.387 121.822 108.667 121.824 108.937 121.76L122.451 118.588C123.715 118.291 124.858 119.424 124.598 120.717L120.583 140.718C120.313 142.064 121.555 143.215 122.847 142.816L131.194 140.236C132.487 139.836 133.731 140.991 133.457 142.338L127.077 173.754C126.678 175.72 129.247 176.791 130.318 175.107L131.034 173.981L170.585 93.6822C171.248 92.3378 170.105 90.8047 168.654 91.0899L154.744 93.8209C153.437 94.0772 152.325 92.8388 152.694 91.5382L161.772 59.5201C162.142 58.2161 161.025 56.9771 159.717 57.2379H159.716Z" fill="url(#paint1_linear_301_8912)"/>
<defs>
<linearGradient id="paint0_linear_301_8912" x1="57.4246" y1="82.5253" x2="129.745" y2="179.07" gradientUnits="userSpaceOnUse">
<stop stop-color="#41D1FF"/>
<stop offset="1" stop-color="#BD34FE"/>
</linearGradient>
<linearGradient id="paint1_linear_301_8912" x1="134.525" y1="59.8651" x2="149.575" y2="161.344" gradientUnits="userSpaceOnUse">
<stop stop-color="#FFEA83"/>
<stop offset="0.083" stop-color="#FFDD35"/>
<stop offset="1" stop-color="#FFA800"/>
</linearGradient>
</defs>
</svg>
