<svg width="257" height="257" viewBox="0 0 257 257" fill="none" xmlns="http://www.w3.org/2000/svg">
<rect x="1.15674" y="0.797119" width="255" height="255" rx="31.5" fill="#1D1F23"/>
<rect x="1.15674" y="0.797119" width="255" height="255" rx="31.5" stroke="black"/>
<path d="M58.8031 107.434C58.8031 107.434 55.3391 104.937 59.4959 101.603L69.1807 92.9426C69.1807 92.9426 71.9519 90.0271 74.8818 92.5673L164.253 160.231V192.677C164.253 192.677 164.21 197.772 157.671 197.209L58.8031 107.434Z" fill="#2489CA"/>
<path d="M81.8387 128.348L58.8031 149.291C58.8031 149.291 56.436 151.052 58.8031 154.198L69.4982 163.926C69.4982 163.926 72.0385 166.654 75.7911 163.551L100.212 145.033L81.8387 128.348Z" fill="#1070B3"/>
<path d="M122.281 128.521L164.527 96.2624L164.253 63.9894C164.253 63.9894 162.449 56.9459 156.43 60.612L100.212 111.778L122.281 128.521Z" fill="#0877B9"/>
<path d="M157.672 197.253C160.125 199.764 163.099 198.941 163.099 198.941L196.021 182.718C200.236 179.846 199.644 176.281 199.644 176.281V79.4041C199.644 75.1463 195.285 73.674 195.285 73.674L166.75 59.9191C160.515 56.0653 156.43 60.6119 156.43 60.6119C156.43 60.6119 161.684 56.8303 164.253 63.9893V192.085C164.253 192.966 164.066 193.832 163.69 194.611C162.94 196.127 161.309 197.541 157.397 196.949L157.672 197.253Z" fill="#3C99D4"/>
</svg>
