<svg width="257" height="257" viewBox="0 0 257 257" fill="none" xmlns="http://www.w3.org/2000/svg">
<rect x="0.708862" y="0.985107" width="255" height="255" rx="31.5" fill="#1D1F23"/>
<rect x="0.708862" y="0.985107" width="255" height="255" rx="31.5" stroke="black"/>
<path d="M67.599 127.906C67.599 152.054 81.6316 172.92 101.98 182.81L72.8805 103.08C69.3922 110.891 67.5924 119.351 67.599 127.906V127.906ZM169.785 124.828C169.785 117.289 167.077 112.067 164.754 108.004C161.662 102.979 158.764 98.7231 158.764 93.6981C158.764 88.0904 163.016 82.8704 169.007 82.8704C169.277 82.8704 169.534 82.904 169.799 82.9191C158.944 72.9759 144.484 66.905 128.603 66.905C107.291 66.905 88.5406 77.8395 77.6328 94.4015C79.064 94.4445 80.414 94.4735 81.5585 94.4735C87.9393 94.4735 97.8164 93.6993 97.8164 93.6993C101.105 93.5054 101.493 98.3354 98.2087 98.7243C98.2087 98.7243 94.9028 99.1131 91.2255 99.3058L113.44 165.383L126.792 125.344L117.286 99.3047C114.001 99.112 110.889 98.7231 110.889 98.7231C107.602 98.5304 107.987 93.5043 111.274 93.6981C111.274 93.6981 121.349 94.4724 127.343 94.4724C133.723 94.4724 143.601 93.6981 143.601 93.6981C146.892 93.5043 147.278 98.3343 143.992 98.7231C143.992 98.7231 140.68 99.112 137.01 99.3047L159.056 164.882L165.139 144.548C167.778 136.111 169.785 130.05 169.785 124.828V124.828Z" fill="white"/>
<path d="M129.673 133.242L111.37 186.427C116.965 188.076 122.769 188.913 128.603 188.913C135.707 188.913 142.519 187.684 148.861 185.455C148.69 185.189 148.545 184.908 148.426 184.615L129.673 133.242ZM182.131 98.6384C182.393 100.582 182.542 102.669 182.542 104.911C182.542 111.102 181.386 118.061 177.903 126.762L159.269 180.637C177.405 170.061 189.604 150.413 189.604 127.906C189.62 117.676 187.05 107.608 182.131 98.6384V98.6384Z" fill="white"/>
<path d="M128.603 56.7969C89.3926 56.7969 57.4908 88.6963 57.4908 127.906C57.4908 167.121 89.3914 199.02 128.603 199.02C167.811 199.02 199.718 167.122 199.718 127.906C199.717 88.6963 167.811 56.7969 128.603 56.7969ZM128.603 195.76C91.1906 195.76 60.7514 165.32 60.7514 127.906C60.7514 90.4955 91.1895 60.0587 128.603 60.0587C166.013 60.0587 196.45 90.4955 196.45 127.906C196.45 165.32 166.012 195.76 128.603 195.76Z" fill="white"/>
</svg>
