<svg width="256" height="257" viewBox="0 0 256 257" fill="none" xmlns="http://www.w3.org/2000/svg">
<rect x="0.5" y="0.936035" width="255" height="255" rx="31.5" fill="#1D1F23"/>
<rect x="0.5" y="0.936035" width="255" height="255" rx="31.5" stroke="black"/>
<path fill-rule="evenodd" clip-rule="evenodd" d="M98.3183 64.4166C94.4772 64.4248 90.7171 66.611 88.7835 69.9462L58.7091 122.329C56.8056 125.673 56.8056 130.044 58.7091 133.388L88.7835 185.772C90.7173 189.107 94.4772 191.294 98.3183 191.301H158.467C162.308 191.293 166.068 189.107 168.002 185.772L198.076 133.388C199.98 130.044 199.979 125.673 198.076 122.329L168.002 69.9462C166.068 66.611 162.308 64.4242 158.467 64.4166H98.3183ZM98.8641 95.0614C98.9468 95.0532 99.0334 95.0532 99.1163 95.0614H109.491C109.95 95.0709 110.396 95.337 110.625 95.7368L128.225 127.184C128.313 127.339 128.37 127.512 128.392 127.69C128.414 127.512 128.471 127.339 128.559 127.184L146.117 95.7368C146.353 95.3249 146.82 95.0573 147.293 95.0614H157.667C158.586 95.0696 159.274 96.2298 158.843 97.0453L141.664 127.859L158.843 158.63C159.315 159.45 158.61 160.665 157.667 160.656H147.293C146.811 160.652 146.342 160.366 146.117 159.939L128.559 128.492C128.471 128.337 128.414 128.163 128.392 127.986C128.37 128.163 128.313 128.337 128.225 128.492L110.625 159.939C110.406 160.354 109.958 160.637 109.491 160.656H99.1163C98.1738 160.665 97.4691 159.45 97.9403 158.63L115.12 127.859L97.9403 97.0453C97.5285 96.3012 98.0309 95.2202 98.8641 95.0614Z" fill="#3498DB"/>
</svg>
