<svg width="256" height="256" viewBox="0 0 256 256" fill="none" xmlns="http://www.w3.org/2000/svg">
<rect x="0.5" y="0.5" width="255" height="255" rx="31.5" fill="#1D1F23"/>
<rect x="0.5" y="0.5" width="255" height="255" rx="31.5" stroke="black"/>
<path fill-rule="evenodd" clip-rule="evenodd" d="M160.358 136.651H136.44V139.018H98.36V148.132H104.632V155.686H149.332V148.132H156.063V139.218H160.358V136.651Z" fill="white"/>
<path fill-rule="evenodd" clip-rule="evenodd" d="M137.124 74.5681L132.956 76.9758L131.94 75.2176L129.513 76.6185L128.327 74.5681L124.641 76.6965L123.413 74.5681L122.974 74.8205L121.632 72.4951L121.009 72.8538L119.866 70.8743L65.11 102.487L66.8754 105.544L67.4965 105.185L68.6408 107.164L69.0775 106.912L70.4217 109.239L70.9577 108.928L71.8113 110.407L72.0169 110.288L72.8266 111.691L74.592 114.748L138.89 77.6253L137.124 74.5681Z" fill="white"/>
<path fill-rule="evenodd" clip-rule="evenodd" d="M174.865 79.541L173.141 80.5364L171.957 78.486L152.637 89.6412L153.821 91.6901L89.4239 128.869L98.0154 143.749L183.455 94.4197L174.865 79.541Z" fill="white"/>
<path fill-rule="evenodd" clip-rule="evenodd" d="M170.396 70.5341H87.5494L57.2814 100.647L126 183.404L131.484 177.253L199.504 100.93L170.396 70.5341ZM167.37 77.6239L189.861 101.103L126.195 172.53L66.8754 101.103L90.4761 77.6239H167.37Z" fill="white"/>
</svg>
