<svg width="256" height="257" viewBox="0 0 256 257" fill="none" xmlns="http://www.w3.org/2000/svg">
<rect x="0.5" y="0.985107" width="255" height="255" rx="31.5" fill="white"/>
<rect x="0.5" y="0.985107" width="255" height="255" rx="31.5" stroke="white"/>
<path d="M63.2073 64.5006H193.578V191.316H63.2073V64.5006Z" fill="url(#paint0_radial_22_666)"/>
<path d="M63.2072 64.5005H193.578V191.315H63.2072V64.5005ZM57.2814 197.241H199.504V58.5747H57.2814V197.241ZM157.903 125.419C160.925 125.419 161.992 125.419 162.289 125.301C162.289 124.886 162.407 124.589 162.407 124.293C162.407 121.093 160.866 115.167 154.703 115.167C149.014 115.167 146.585 120.145 145.992 125.419H157.903ZM145.874 133.538C145.993 141.538 149.785 146.93 158.792 146.93C162.289 146.93 165.311 146.456 168.452 145.093C168.867 144.916 169.163 144.975 169.163 145.508V152.916C169.163 153.508 168.985 153.805 168.571 154.101C165.43 155.641 161.518 156.353 156.659 156.353C141.015 156.353 135.148 144.797 135.148 131.938C135.148 117.953 142.378 106.516 155.119 106.516C168.037 106.516 172.541 117.36 172.541 126.19C172.541 129.034 172.363 131.346 172.067 132.472C171.949 132.946 171.771 133.124 171.297 133.242C170.111 133.42 166.615 133.657 161.4 133.657H145.874V133.538ZM114.111 127.493C112.452 120.915 108.422 106.575 106.941 99.6413H106.822C105.578 106.575 102.318 118.308 99.8888 127.493H114.111ZM97.459 137.093L92.7777 154.812C92.6592 155.286 92.4814 155.464 91.8887 155.464H83.1775C82.585 155.464 82.4663 155.286 82.585 154.575L99.4145 95.7303C99.7108 94.6637 99.8885 93.834 100.007 90.8712C100.007 90.4564 100.185 90.2787 100.481 90.2787H112.926C113.34 90.2787 113.518 90.3972 113.637 90.8712L132.481 154.693C132.6 155.167 132.481 155.464 132.007 155.464H122.229C121.755 155.464 121.459 155.286 121.34 154.871L116.481 137.094L97.459 137.093Z" fill="#D8A1FF"/>
<defs>
<radialGradient id="paint0_radial_22_666" cx="0" cy="0" r="1" gradientUnits="userSpaceOnUse" gradientTransform="translate(106.145 92.92) scale(99.0814 95.929)">
<stop stop-color="#442F55" stop-opacity="0.98"/>
<stop offset="1" stop-color="#12002C"/>
</radialGradient>
</defs>
</svg>
