<svg width="256" height="257" viewBox="0 0 256 257" fill="none" xmlns="http://www.w3.org/2000/svg">
<rect x="0.5" y="1.09424" width="255" height="255" rx="31.5" fill="#F4F2ED"/>
<rect x="0.5" y="1.09424" width="255" height="255" rx="31.5" stroke="#F4F2ED"/>
<path d="M57.2814 58.3877H199.504V197.647H57.2814V58.3877Z" fill="url(#paint0_linear_20_1678)"/>
<path d="M109.163 129.282H121.77L115.467 104.837L109.163 129.282ZM68.0413 69.2917V186.811H188.924V69.2917H68.0413ZM128.688 156.084L124.076 140.198H107.011L102.398 156.084H90.7141L107.164 99.9177V93.7681H122.846L141.602 156.084H128.688V156.084ZM159.744 156.084H147.138V108.681H159.744V156.084ZM153.517 102.993C149.909 102.993 146.983 100.102 146.983 96.5357C146.983 92.9695 149.908 90.0784 153.517 90.0784C157.127 90.0784 160.052 92.9695 160.052 96.5357C160.052 100.102 157.126 102.993 153.517 102.993Z" fill="url(#paint1_linear_20_1678)"/>
<defs>
<linearGradient id="paint0_linear_20_1678" x1="198.763" y1="57.6467" x2="59.3805" y2="197.029" gradientUnits="userSpaceOnUse">
<stop stop-color="#FFAA2A"/>
<stop offset="1" stop-color="#FFC06C"/>
</linearGradient>
<linearGradient id="paint1_linear_20_1678" x1="128.483" y1="69.0944" x2="128.483" y2="186.218" gradientUnits="userSpaceOnUse">
<stop stop-color="#251200"/>
<stop offset="1"/>
</linearGradient>
</defs>
</svg>
