<svg width="257" height="257" viewBox="0 0 257 257" fill="none" xmlns="http://www.w3.org/2000/svg">
<rect x="1.43286" y="0.797119" width="255" height="255" rx="31.5" fill="#F4F2ED"/>
<rect x="1.43286" y="0.797119" width="255" height="255" rx="31.5" stroke="#F4F2ED"/>
<path d="M121.626 70.7328L68.6016 92.6734C65.6529 93.8938 65.6835 98.0828 68.6507 99.2589L121.896 120.374C126.575 122.229 131.785 122.229 136.463 120.374L189.71 99.2581C192.676 98.0828 192.708 93.8946 189.758 92.6742L136.735 70.732C131.897 68.7303 126.463 68.7303 121.626 70.732" fill="#FCB400"/>
<path d="M133.904 131.904V184.653C133.904 187.161 136.434 188.879 138.766 187.955L198.098 164.925C198.76 164.663 199.328 164.208 199.728 163.619C200.127 163.03 200.341 162.335 200.341 161.623V108.875C200.341 106.366 197.811 104.648 195.479 105.572L136.147 128.602C135.485 128.865 134.918 129.32 134.518 129.908C134.118 130.497 133.904 131.193 133.904 131.904" fill="#18BFFF"/>
<path d="M120.049 134.625L102.441 143.127L100.653 143.991L63.4824 161.802C61.127 162.938 58.1188 161.221 58.1188 158.604V109.095C58.1188 108.148 58.6044 107.331 59.2555 106.716C59.5227 106.45 59.8257 106.223 60.1559 106.041C61.0434 105.508 62.3103 105.365 63.3875 105.791L119.753 128.125C122.618 129.262 122.843 133.276 120.049 134.626" fill="#F82B60"/>
<path d="M120.049 134.625L102.441 143.127L59.2556 106.715C59.5227 106.449 59.8258 106.222 60.1559 106.041C61.0434 105.508 62.3103 105.365 63.3876 105.791L119.753 128.125C122.618 129.262 122.843 133.276 120.049 134.626" fill="black" fill-opacity="0.25"/>
</svg>
