<svg width="257" height="257" viewBox="0 0 257 257" fill="none" xmlns="http://www.w3.org/2000/svg">
<rect x="1.26111" y="1.09424" width="255" height="255" rx="31.5" fill="white"/>
<rect x="1.26111" y="1.09424" width="255" height="255" rx="31.5" stroke="white"/>
<path d="M161.246 147.817C157.98 147.817 155.324 145.159 155.324 141.893C155.324 138.628 157.98 135.972 161.246 135.972C164.512 135.972 167.168 138.627 167.168 141.893C167.168 145.159 164.512 147.817 161.246 147.817ZM95.7878 147.817C92.5223 147.817 89.866 145.159 89.866 141.893C89.866 138.628 92.5218 135.972 95.7878 135.972C99.0533 135.972 101.71 138.627 101.71 141.893C101.71 145.159 99.0538 147.817 95.7878 147.817ZM163.37 112.144L175.206 91.6444C175.532 91.0787 175.62 90.4069 175.451 89.7763C175.282 89.1457 174.87 88.6079 174.305 88.2809C173.739 87.9552 173.067 87.8672 172.437 88.0362C171.806 88.2051 171.268 88.6173 170.941 89.1822L158.957 109.94C149.792 105.758 139.5 103.428 128.517 103.428C117.534 103.428 107.242 105.758 98.0772 109.94L86.0927 89.1822C85.7656 88.6173 85.2278 88.2051 84.5972 88.0362C83.9667 87.8672 83.2949 87.9552 82.7291 88.2809C82.1638 88.6076 81.7512 89.1454 81.5822 89.7761C81.4132 90.4068 81.5015 91.0788 81.8278 91.6444L93.6637 112.144C73.3397 123.197 59.4393 143.773 57.4058 168.082H199.628C197.593 143.774 183.692 123.197 163.37 112.143" fill="#3DDB85"/>
</svg>
