<svg width="256" height="256" viewBox="0 0 256 256" fill="none" xmlns="http://www.w3.org/2000/svg">
<rect x="0.5" y="0.5" width="255" height="255" rx="31.5" fill="white"/>
<rect x="0.5" y="0.5" width="255" height="255" rx="31.5" stroke="white"/>
<path d="M108.049 177.449C101.646 171.576 99.777 159.235 102.445 150.295C107.07 155.932 113.48 157.717 120.118 158.725C130.367 160.28 140.432 159.699 149.952 154.998C151.041 154.46 152.048 153.745 153.238 153.02C154.131 155.62 154.363 158.246 154.052 160.918C153.293 167.426 150.066 172.453 144.932 176.264C142.879 177.788 140.707 179.151 138.587 180.588C132.074 185.005 130.312 190.185 132.759 197.719C132.817 197.903 132.869 198.086 133.001 198.534C129.675 197.041 127.246 194.867 125.396 192.007C123.44 188.99 122.51 185.652 122.462 182.04C122.437 180.283 122.437 178.51 122.201 176.777C121.626 172.553 119.65 170.661 115.927 170.552C112.106 170.44 109.083 172.811 108.282 176.544C108.221 176.83 108.132 177.113 108.043 177.446L108.049 177.449Z" fill="#FF5D01"/>
<path d="M71.5037 148.805C71.5037 148.805 90.4642 139.537 109.478 139.537L123.813 95.0182C124.35 92.8653 125.917 91.4022 127.686 91.4022C129.455 91.4022 131.022 92.8653 131.559 95.0182L145.895 139.537C168.413 139.537 183.869 148.805 183.869 148.805C183.869 148.805 151.663 60.7677 151.6 60.5911C150.675 57.9882 149.115 56.3118 147.011 56.3118H108.364C106.261 56.3118 104.763 57.9882 103.776 60.5911C103.706 60.7644 71.5037 148.805 71.5037 148.805Z" fill="#000014"/>
</svg>
