<svg width="257" height="257" viewBox="0 0 257 257" fill="none" xmlns="http://www.w3.org/2000/svg">
<rect x="0.984985" y="0.797119" width="255" height="255" rx="31.5" fill="#F4F2ED"/>
<rect x="0.984985" y="0.797119" width="255" height="255" rx="31.5" stroke="#F4F2ED"/>
<path d="M98.8826 122.342C98.23 121.49 97.2664 120.931 96.2028 120.788C95.1392 120.645 94.0621 120.929 93.2073 121.578C92.7044 121.974 92.2988 122.48 92.0213 123.058L57.176 192.768C56.6824 193.756 56.6014 194.899 56.9506 195.947C57.2998 196.995 58.0507 197.861 59.0383 198.355C59.6156 198.647 60.2537 198.798 60.9006 198.796H109.449C110.226 198.816 110.993 198.609 111.655 198.2C112.316 197.79 112.844 197.197 113.174 196.493C123.652 174.85 117.3 141.946 98.8826 122.342Z" fill="url(#paint0_linear_22_659)"/>
<path d="M124.495 58.9046C115.808 72.2718 110.746 87.6675 109.804 103.581C108.862 119.495 112.074 135.381 119.123 149.679L142.53 196.492C142.876 197.184 143.407 197.766 144.065 198.173C144.723 198.58 145.481 198.795 146.255 198.796H194.793C195.341 198.797 195.883 198.69 196.389 198.481C196.895 198.272 197.355 197.966 197.742 197.579C198.129 197.191 198.436 196.732 198.645 196.226C198.853 195.72 198.96 195.177 198.959 194.63C198.959 193.984 198.812 193.347 198.528 192.768L131.581 58.885C131.264 58.2141 130.762 57.6472 130.135 57.2503C129.507 56.8533 128.78 56.6426 128.038 56.6426C127.296 56.6426 126.569 56.8533 125.941 57.2503C125.314 57.6472 124.812 58.2141 124.495 58.885V58.9046Z" fill="#2684FF"/>
<defs>
<linearGradient id="paint0_linear_22_659" x1="118.065" y1="132.997" x2="81.2687" y2="196.728" gradientUnits="userSpaceOnUse">
<stop stop-color="#0052CC"/>
<stop offset="0.92" stop-color="#2684FF"/>
</linearGradient>
</defs>
</svg>
