<svg width="257" height="257" viewBox="0 0 257 257" fill="none" xmlns="http://www.w3.org/2000/svg">
<rect x="0.880615" y="0.68811" width="255" height="255" rx="31.5" fill="#F4F2ED"/>
<rect x="0.880615" y="0.68811" width="255" height="255" rx="31.5" stroke="#F4F2ED"/>
<path d="M96.8608 115.975C96.8608 117.725 97.05 119.144 97.3811 120.185C97.7595 121.225 98.2325 122.361 98.8948 123.59C99.1313 123.969 99.2259 124.347 99.2259 124.678C99.2259 125.151 98.9421 125.624 98.3271 126.097L95.3471 128.084C94.9214 128.368 94.4957 128.51 94.1173 128.51C93.6443 128.51 93.1713 128.273 92.6982 127.848C92.036 127.138 91.4684 126.381 90.9954 125.624C90.5224 124.82 90.0493 123.922 89.529 122.834C85.8395 127.185 81.2039 129.361 75.6223 129.361C71.649 129.361 68.4798 128.226 66.162 125.956C63.8442 123.685 62.6617 120.658 62.6617 116.874C62.6617 112.853 64.0807 109.589 66.9661 107.129C69.8515 104.67 73.683 103.44 78.555 103.44C80.1633 103.44 81.8189 103.582 83.569 103.818C85.3192 104.055 87.1166 104.433 89.0087 104.859V101.406C89.0087 97.8111 88.2519 95.3041 86.7855 93.8377C85.2719 92.3714 82.7176 91.6618 79.0754 91.6618C77.4198 91.6618 75.7169 91.8511 73.9668 92.2768C72.2166 92.7025 70.5138 93.2228 68.8582 93.885C68.1014 94.2161 67.5338 94.4053 67.2026 94.4999C66.8715 94.5945 66.635 94.6418 66.4458 94.6418C65.7836 94.6418 65.4525 94.1688 65.4525 93.1755V90.8577C65.4525 90.1009 65.5471 89.5333 65.7836 89.2022C66.0201 88.871 66.4458 88.5399 67.108 88.2088C68.7636 87.3574 70.7503 86.6479 73.0681 86.0802C75.3858 85.4653 77.8455 85.1815 80.4471 85.1815C86.076 85.1815 90.1913 86.4587 92.8401 89.013C95.4417 91.5672 96.7662 95.446 96.7662 100.649V115.975H96.8608ZM77.6563 123.165C79.2173 123.165 80.8255 122.881 82.5284 122.313C84.2312 121.746 85.7449 120.705 87.022 119.286C87.7789 118.387 88.3465 117.394 88.6303 116.259C88.9141 115.123 89.1033 113.752 89.1033 112.143V110.157C87.7316 109.826 86.2652 109.542 84.7516 109.353C83.2379 109.163 81.7716 109.069 80.3052 109.069C77.136 109.069 74.8182 109.684 73.2573 110.961C71.6963 112.238 70.9395 114.036 70.9395 116.401C70.9395 118.624 71.5071 120.279 72.6896 121.415C73.8249 122.597 75.4804 123.165 77.6563 123.165V123.165ZM115.64 128.273C114.788 128.273 114.22 128.131 113.842 127.8C113.464 127.517 113.133 126.854 112.849 125.956L101.733 89.3914C101.449 88.4453 101.307 87.8304 101.307 87.4993C101.307 86.7425 101.686 86.3168 102.442 86.3168H107.078C107.977 86.3168 108.592 86.4587 108.923 86.7898C109.301 87.0736 109.585 87.7358 109.869 88.6345L117.815 119.948L125.194 88.6345C125.431 87.6885 125.715 87.0736 126.093 86.7898C126.472 86.506 127.134 86.3168 127.985 86.3168H131.769C132.668 86.3168 133.283 86.4587 133.661 86.7898C134.04 87.0736 134.371 87.7358 134.56 88.6345L142.034 120.327L150.217 88.6345C150.501 87.6885 150.832 87.0736 151.163 86.7898C151.541 86.506 152.156 86.3168 153.008 86.3168H157.407C158.164 86.3168 158.589 86.6952 158.589 87.4993C158.589 87.7358 158.542 87.9723 158.495 88.2561C158.448 88.5399 158.353 88.9183 158.164 89.4387L146.764 126.003C146.48 126.949 146.149 127.564 145.771 127.848C145.392 128.131 144.777 128.321 143.973 128.321H139.905C139.007 128.321 138.392 128.179 138.013 127.848C137.635 127.517 137.304 126.902 137.114 125.956L129.783 95.446L122.498 125.908C122.262 126.854 121.978 127.469 121.6 127.8C121.221 128.131 120.559 128.273 119.707 128.273H115.64ZM176.422 129.55C173.962 129.55 171.503 129.267 169.138 128.699C166.773 128.131 164.928 127.517 163.698 126.807C162.941 126.381 162.421 125.908 162.232 125.483C162.042 125.057 161.948 124.584 161.948 124.158V121.746C161.948 120.752 162.326 120.279 163.036 120.279C163.32 120.279 163.603 120.327 163.887 120.421C164.171 120.516 164.597 120.705 165.07 120.894C166.678 121.604 168.428 122.171 170.273 122.55C172.165 122.928 174.01 123.117 175.902 123.117C178.882 123.117 181.2 122.597 182.808 121.556C184.416 120.516 185.268 119.002 185.268 117.063C185.268 115.738 184.842 114.65 183.99 113.752C183.139 112.853 181.531 112.049 179.213 111.292L172.354 109.163C168.901 108.076 166.347 106.467 164.786 104.339C163.225 102.257 162.421 99.9396 162.421 97.4799C162.421 95.4933 162.847 93.7431 163.698 92.2295C164.549 90.7158 165.685 89.3914 167.104 88.3507C168.523 87.2628 170.131 86.4587 172.023 85.891C173.915 85.3234 175.902 85.0869 177.983 85.0869C179.024 85.0869 180.112 85.1342 181.152 85.2761C182.24 85.418 183.234 85.6072 184.227 85.7964C185.173 86.0329 186.072 86.2695 186.923 86.5533C187.775 86.8371 188.437 87.1209 188.91 87.4047C189.572 87.7831 190.045 88.1615 190.329 88.5872C190.613 88.9657 190.755 89.486 190.755 90.1482V92.3714C190.755 93.3647 190.376 93.885 189.667 93.885C189.288 93.885 188.673 93.6958 187.869 93.3174C185.173 92.0876 182.146 91.4726 178.787 91.4726C176.091 91.4726 173.962 91.8984 172.496 92.7971C171.03 93.6958 170.273 95.0676 170.273 97.0069C170.273 98.3314 170.746 99.4666 171.692 100.365C172.638 101.264 174.388 102.163 176.895 102.967L183.612 105.096C187.018 106.183 189.477 107.697 190.944 109.636C192.41 111.576 193.12 113.799 193.12 116.259C193.12 118.293 192.694 120.137 191.89 121.746C191.038 123.354 189.903 124.773 188.437 125.908C186.97 127.091 185.22 127.942 183.186 128.557C181.058 129.219 178.835 129.55 176.422 129.55V129.55Z" fill="#252F3E"/>
<path fill-rule="evenodd" clip-rule="evenodd" d="M185.362 152.539C169.8 164.033 147.19 170.135 127.749 170.135C100.503 170.135 75.9534 160.06 57.4112 143.315C55.9449 141.991 57.2693 140.193 59.0195 141.234C79.0753 152.87 103.814 159.918 129.404 159.918C146.669 159.918 165.637 156.323 183.092 148.944C185.693 147.762 187.916 150.647 185.362 152.539V152.539Z" fill="#FF9900"/>
<path fill-rule="evenodd" clip-rule="evenodd" d="M191.842 145.16C189.856 142.606 178.693 143.93 173.631 144.545C172.118 144.734 171.881 143.41 173.253 142.417C182.146 136.173 196.762 137.97 198.465 140.051C200.167 142.18 197.992 156.796 189.667 163.797C188.389 164.885 187.16 164.317 187.727 162.898C189.619 158.215 193.829 147.667 191.842 145.16V145.16Z" fill="#FF9900"/>
</svg>
