<svg width="257" height="257" viewBox="0 0 257 257" fill="none" xmlns="http://www.w3.org/2000/svg">
<rect x="1.26111" y="0.985107" width="255" height="255" rx="31.5" fill="#F4F2ED"/>
<rect x="1.26111" y="0.985107" width="255" height="255" rx="31.5" stroke="#F4F2ED"/>
<path d="M155.581 105.13L155.55 104.826L155.056 104.868L155.087 105.172L155.581 105.13V105.13ZM158.901 113.113L158.911 113.281L159.258 113.25C159.247 113.145 159.289 112.977 159.363 112.767L159.331 112.462C159.184 112.473 159.037 112.693 158.901 113.113ZM145.949 123.165C145.928 122.882 145.046 121.779 143.302 119.836C143.271 119.479 143.869 118.943 145.098 118.239L148.607 115.183C149.394 114.185 149.857 112.567 149.993 110.319L149.951 109.805C149.815 108.25 148.691 107 146.559 106.044C145.298 105.194 143.029 104.721 139.752 104.637C137.042 104.868 133.502 105.834 129.143 107.546C127.946 108.408 126.58 109.269 125.047 110.13L125.067 110.393C125.162 110.382 125.309 110.33 125.477 110.214C125.656 110.193 125.761 110.277 125.771 110.445L126.034 110.309L126.16 110.298L126.171 110.414C126.181 110.55 125.236 111.296 123.324 112.63L123.471 112.903L123.345 112.914L123.03 112.798C123.04 112.893 122.904 112.956 122.641 112.977L122.652 113.092L122.956 113.47C122.862 113.481 122.715 113.439 122.515 113.365C122.074 113.407 121.643 113.639 121.213 114.08L121.391 113.302C122.032 110.54 122.473 108.092 122.704 105.971L122.673 105.834C122.232 105.55 121.801 105.151 121.402 104.647C121.412 104.322 121.412 104.133 121.402 104.09L121.37 103.975L121.244 104.007C119.858 106.086 117.19 109.637 113.23 114.657C110.215 118.229 108.661 120.214 108.566 120.613C107.337 121.884 106.749 122.651 106.812 122.914C106.486 123.124 106.35 123.334 106.402 123.565C106.308 123.586 106.245 123.554 106.224 123.46C105.699 124.31 104.921 124.857 103.881 125.098L102.789 125.35C102.642 125.382 102.568 125.487 102.579 125.665L102.61 125.802L103.02 125.707L103.052 125.823L102.127 126.18L100.489 126.558L99.6272 126.611C99.5011 126.737 100.31 126.6 99.995 126.674L98.9236 126.926C98.2722 127.073 97.9153 127.02 97.8522 126.758L97.7261 126.789C97.7472 126.905 97.7575 126.989 97.7367 127.062L97.6736 126.8L96.8122 126.999C96.7492 126.6 95.5833 125.151 93.325 122.651C93.283 122.168 94.0811 121.464 95.7094 120.55L100.31 116.506C101.339 115.183 101.949 113.061 102.148 110.141L102.085 109.458C101.907 107.399 100.415 105.74 97.6105 104.458C95.9508 103.334 92.9678 102.735 88.6614 102.641C85.09 102.946 80.4261 104.217 74.6911 106.433C73.1155 107.578 71.3194 108.712 69.3028 109.836L69.3341 110.193C69.4708 110.183 69.6491 110.109 69.8697 109.983C70.1008 109.962 70.2269 110.067 70.248 110.277L70.605 110.078L70.7836 110.067L70.7941 110.235C70.8047 110.403 69.5547 111.38 67.0233 113.166L67.2228 113.481L67.0444 113.492L66.6555 113.355C66.6661 113.46 66.4875 113.534 66.12 113.565L66.1408 113.754L66.5611 114.216C66.4247 114.227 66.2355 114.185 65.9939 114.101C65.1747 114.174 64.3764 114.762 63.5886 115.876L63.788 116.191C64.4708 115.561 64.87 115.246 64.9855 115.235L65.0275 115.75C64.9119 115.76 64.7333 115.834 64.4919 115.96L64.9225 116.611C65.7358 115.732 66.657 114.959 67.6641 114.311C68.1578 114.437 68.4203 114.594 68.4308 114.762L68.8089 114.731C71.5189 112.725 74.1975 111.275 76.855 110.382L76.8864 110.739C76.3928 111.475 76.0566 111.853 75.878 111.874C75.8991 112.126 75.983 112.347 76.1405 112.536C76.1828 112.987 74.9747 116.034 72.5272 121.664C66.9708 134.751 62.3069 144.436 58.5153 150.696C58.5255 150.822 58.5991 150.99 58.7358 151.2C59.6705 150.98 60.2589 150.749 60.5108 150.528L60.7105 150.507L60.7419 150.864L61.0886 150.833L61.4458 150.633C61.4564 150.738 61.5719 150.791 61.8133 150.77L61.845 151.127C61.8764 151.474 61.6769 151.999 61.2566 152.724C60.8786 153.154 60.4689 154.057 60.0383 155.434L60.0486 155.602L60.3953 155.57C61.908 153.879 63.0528 152.219 63.8405 150.602C68.2522 149.31 71.6136 148.039 73.9453 146.789C76.2878 146.589 78.0733 145.969 79.2919 144.95L79.2708 144.762L78.3886 145.024L78.1889 145.045L78.1678 144.856C79.8905 144.594 81.0775 144.215 81.7391 143.69C85.09 141.106 87.6214 139.279 89.3336 138.197C92.8522 135.613 95.1422 133.092 96.1819 130.644C96.3787 130.602 96.5748 130.556 96.7703 130.508C97.2639 130.487 97.5369 130.476 97.6105 130.455C97.5894 130.361 97.6316 130.308 97.7261 130.287C98.5139 130.203 98.1358 130.34 98.64 130.224L99.9633 129.92C99.8794 129.94 99.8478 129.983 99.8689 130.067L100.068 129.94C100.026 129.94 99.995 129.93 99.9633 129.92L100.184 129.867L100.079 129.93C100.226 129.951 100.384 129.94 100.562 129.899L100.657 130.287L94.638 139.856L93.3039 141.526L92.6528 143.711L92.7789 143.68L93.43 143.407L93.22 144.257L93.283 144.509L93.4614 144.73C93.3775 144.751 93.3461 144.804 93.3669 144.898L93.3986 145.035L93.6716 144.972C94.0708 144.625 94.2389 144.31 94.1758 144.026C94.6064 144.1 94.89 144.131 95.0372 144.089L95.0686 144.226C94.8061 144.289 94.6694 144.499 94.6483 144.856L94.68 144.993L94.8269 144.961C97.0119 142.577 102.369 134.415 106.665 128.88C106.528 128.281 108.766 127.451 113.387 126.38L113.534 126.348C113.702 127.073 113.345 128.827 112.463 131.611C111.896 133.291 111.623 134.216 111.665 134.363C110.929 136.6 110.583 137.808 110.625 137.997L108.986 143.364C107.925 146.117 107.117 149.005 106.549 152.051C106.644 152.03 106.791 152.041 107.001 152.093L107.232 151.894C107.253 151.988 107.316 152.02 107.411 151.999L107.316 151.61L108.03 151.589C108.24 151.537 108.419 151.274 108.566 150.791C108.534 150.066 108.682 149.677 109.007 149.593C109.448 147.871 109.721 147.009 109.816 146.978C110.226 145.266 110.53 144.289 110.73 144.047C111.35 141.82 111.801 140.675 112.095 140.602L112.158 140.875L111.707 142.041C110.919 145.539 110.121 148.301 109.312 150.329L109.543 151.337L109.69 151.305C111.644 147.104 114.459 138.785 118.124 126.348C118.23 125.256 118.755 124.405 119.69 123.806L119.479 123.586L119.448 123.47C119.868 123.376 120.162 123.208 120.33 122.977C120.309 122.882 119.942 122.745 119.227 122.556L121.055 114.72C121.454 114.363 121.685 114.174 121.759 114.174L121.791 114.574C121.696 114.584 121.549 114.636 121.381 114.752L121.727 115.246C122.357 114.563 123.04 113.975 123.786 113.481C124.164 113.586 124.353 113.712 124.374 113.838L124.647 113.817C126.727 112.294 128.765 111.202 130.771 110.54L130.792 110.802C130.425 111.359 130.172 111.643 130.036 111.653C130.057 111.842 130.109 112.01 130.204 112.157C130.236 112.504 129.332 114.815 127.484 119.1C123.261 129.027 119.721 136.369 116.843 141.138C116.854 141.232 116.917 141.358 117.032 141.526C117.736 141.358 118.187 141.18 118.366 141.012L118.492 141.001L118.513 141.264L118.807 141.243L119.07 141.106C119.08 141.18 119.175 141.211 119.354 141.201L119.374 141.484C119.396 141.736 119.249 142.135 118.923 142.682C118.618 143.007 118.303 143.69 117.967 144.73L117.977 144.867L118.251 144.845C119.396 143.564 120.267 142.304 120.866 141.064C124.217 140.077 126.769 139.121 128.534 138.175C130.33 138.018 131.685 137.556 132.609 136.779L132.599 136.642L131.916 136.842L131.769 136.852L131.759 136.715C133.061 136.527 133.975 136.232 134.469 135.844C137.011 133.89 138.933 132.493 140.235 131.674C144.29 128.722 146.18 125.886 145.949 123.165V123.165ZM145.256 123.344L145.351 124.405C145.224 124.668 145.088 124.804 144.962 124.815L144.804 123.008C145.098 123.113 145.246 123.218 145.256 123.344V123.344ZM65.7208 114.794L65.5422 114.804L65.5108 114.479L66.2355 114.416L66.2461 114.584C66.1305 114.594 65.9519 114.657 65.7208 114.794V114.794ZM62.1811 150.202C61.7608 150.014 61.3828 149.94 61.0572 149.971L61.015 149.457C60.9941 149.257 61.1097 149.12 61.3616 149.068C61.5928 149.047 61.7294 149.215 61.7503 149.551C62.3597 148.805 62.6958 148.427 62.7589 148.417L63.1475 148.574C63.0214 149.625 62.6958 150.16 62.1811 150.202V150.202ZM100.006 110.634C99.8269 110.655 99.4697 110.099 98.955 108.996L98.9236 108.67C99.2597 108.639 99.6064 109.185 99.9739 110.309L100.006 110.634V110.634ZM99.5011 106.717L99.3542 107.063L94.2178 104.92C97.6419 105.036 99.4067 105.635 99.5011 106.717ZM77.8108 125.34L77.0861 125.403L77.0544 125.077L77.7791 125.014L77.8108 125.34ZM77.2225 114.153L77.4011 114.143L77.443 114.657C77.275 114.668 77.0544 114.92 76.7814 115.403L76.7497 115.046C77.0755 114.657 77.2436 114.363 77.2225 114.153V114.153ZM75.6994 117.745L75.7625 118.428L75.5839 118.439L75.5208 117.756L75.6994 117.745V117.745ZM74.9011 119.027L75.2478 118.995C75.2164 119.563 75.0589 119.867 74.7753 119.888L74.5966 119.899C74.8172 119.521 74.9222 119.227 74.9011 119.027V119.027ZM74.3025 120.813L74.5019 120.792L74.5125 120.96L74.1869 121.506L73.8403 121.537L73.8297 121.369C74.1764 121.338 74.3339 121.159 74.3025 120.813V120.813ZM73.7141 122.42L73.6091 123.281L73.4305 123.292L73.3572 122.441L73.7141 122.42V122.42ZM67.8216 139.174C67.5905 140.35 67.3383 140.949 67.0758 140.97L67.0653 140.802C67.0022 140.224 67.2544 139.678 67.8216 139.174V139.174ZM66.7397 141.516L66.7503 141.684C66.7711 141.915 66.6661 142.052 66.435 142.062L66.4247 141.894C66.4036 141.694 66.5086 141.568 66.7397 141.516ZM66.4247 146.379L66.9708 146.327L66.9916 146.516C66.8553 146.526 66.6766 146.6 66.4561 146.726L66.1094 146.757C66.0883 146.579 66.2039 146.442 66.4244 146.379H66.4247V146.379ZM81.9703 141.579C78.903 143.091 77.0964 144.121 76.5608 144.656C73.2416 145.812 71.5925 146.526 71.6239 146.81C68.6725 147.976 66.7291 148.837 65.7944 149.373C65.5739 149.394 65.2586 149.31 64.8386 149.12C64.7861 148.522 65.0591 148.039 65.6366 147.65C66.1514 147.608 66.645 147.682 67.1178 147.881C67.6641 147.597 68.62 147.282 69.975 146.946L69.9433 146.589L68.8511 146.684C68.9875 146.495 70.0378 146.001 72.0125 145.203L72.5589 145.15L72.5694 145.318C71.6344 145.402 71.1197 145.675 71.0041 146.169C71.0253 146.39 71.1514 146.484 71.3825 146.463C72.0861 146.022 72.4328 145.759 72.4222 145.686C73.7564 145.434 77.443 143.501 83.4828 139.898L83.5144 140.224C83.525 140.381 83.0103 140.822 81.9703 141.579V141.579ZM72.7058 144.625C73.5883 144.551 74.3444 144.194 74.9747 143.575C75.2266 143.554 75.3633 143.648 75.3739 143.869C74.943 143.911 74.1133 144.268 72.9055 144.961L72.7269 144.972L72.7058 144.625ZM87.6528 133.144L83.0205 136.81C79.5753 139.069 77.7266 140.203 77.4641 140.224C71.9811 143.239 68.5675 144.804 67.2439 144.919L67.0444 144.94C67.2125 144.32 69.6491 139.331 74.3761 129.94C76.4558 129.762 79.733 128.796 84.1972 127.031L85.2894 126.936C87.5478 126.737 89.2389 127.178 90.3525 128.229L90.4153 128.911C89.575 131.327 88.6508 132.735 87.6528 133.144V133.144ZM78.5986 128.05L79.3444 127.987L79.3547 128.155L78.6091 128.218L78.5986 128.05V128.05ZM89.0708 126.275L89.6172 126.222C90.1214 126.464 90.3839 126.674 90.405 126.863L90.4153 127.031C89.9322 127.073 89.4805 126.821 89.0708 126.275V126.275ZM90.5519 117.84C90.0689 118.418 88.7453 119.405 86.5814 120.792C85.8672 120.855 83.2097 121.884 78.6091 123.901C78.3791 123.796 78.1257 123.752 77.8739 123.775L77.8422 123.449C77.7897 122.787 78.0839 121.958 78.735 120.949C79.0922 119.059 79.4808 117.977 79.9116 117.714L83.7455 109.09C83.7033 108.555 84.5228 108.145 86.2033 107.861L86.7494 107.809L86.7916 108.303C88.4405 108.05 89.47 107.904 89.8691 107.872C92.9153 107.609 94.5014 108.229 94.6275 109.71L94.9741 109.679L94.9005 108.807L95.2786 108.775C96.1714 109.269 96.6547 109.868 96.7178 110.571C96.7597 111.055 96.4972 111.653 95.9403 112.368C95.7094 112.389 95.5728 112.22 95.5517 111.884L95.1736 111.916L95.0897 112.966C93.5455 115.277 92.4216 116.464 91.7283 116.527C91.098 117.399 90.7094 117.83 90.5519 117.84ZM92.9047 123.88C92.5897 123.67 92.3375 123.575 92.1486 123.586L92.1064 123.071L92.453 123.04L93.22 123.491C93.2514 123.733 93.1464 123.859 92.9047 123.88V123.88ZM95.3416 126.768C95.6778 126.905 95.8775 127.052 95.9194 127.189L95.7514 127.23L95.7619 127.241C95.7303 127.241 95.6883 127.252 95.6566 127.262L95.4047 127.462L95.3416 126.768V126.768ZM95.5728 128.218L95.5414 128.081L95.9825 127.976L96.0139 128.113L95.5728 128.218ZM96.6336 129.405C97.0853 129.331 97.3058 129.3 98.1461 129.111L98.1778 129.247L96.5811 129.615C96.6022 129.541 96.623 129.468 96.6336 129.405ZM98.1883 130.067C97.5161 130.13 97.663 130.045 96.5916 130.287L96.56 130.151L97.8942 129.72L98.535 129.573L98.5978 129.825C98.3141 129.888 98.5244 129.888 98.1883 130.067ZM99.6064 129.73C99.4486 129.772 99.3228 129.699 99.2491 129.52L99.6589 129.426C99.8372 129.384 99.9528 129.457 99.995 129.636L99.6064 129.73V129.73ZM103.451 125.592L103.419 125.455L104.081 125.298L104.144 125.55L103.451 125.592ZM107.558 150.78C107.6 150.591 107.61 150.455 107.589 150.36L107.736 150.329C107.915 150.287 108.02 150.35 108.062 150.518L108.093 150.654L107.558 150.78V150.78ZM110.436 126.674L110.142 126.621C109.669 126.81 109.27 126.947 108.944 127.02L108.671 127.084C108.514 127.125 108.387 127.062 108.324 126.894L110.247 126.453L110.877 126.159L111.087 126.401C110.782 126.464 110.562 126.558 110.436 126.674V126.674ZM111.917 126.201L111.885 126.065C111.98 126.044 112.106 125.97 112.242 125.834L113.608 125.519L113.639 125.655C112.915 125.834 112.337 126.012 111.917 126.201ZM112.127 123.439C112.032 123.46 111.906 123.544 111.749 123.67C111.728 123.575 111.539 123.575 111.181 123.659C111.119 123.397 112.127 123.029 114.217 122.546L114.511 122.483L114.574 122.735C113.104 123.165 112.284 123.407 112.127 123.439V123.439ZM115.803 119.468C115.656 121.138 115.068 122.084 114.028 122.325L113.997 122.189L113.072 122.546L112.662 122.64C112.452 122.693 112.263 122.682 112.095 122.63L112.011 122.262C111.98 122.126 113.314 120.277 116.024 116.727L116.339 116.779C116.454 117.262 116.276 118.155 115.803 119.468ZM122.305 113.901L122.179 113.912L122.158 113.649L122.704 113.597L122.715 113.733C122.62 113.754 122.484 113.807 122.305 113.901V113.901ZM119.627 140.802C119.311 140.654 119.028 140.592 118.786 140.612L118.755 140.213C118.744 140.077 118.828 139.982 119.007 139.93C119.186 139.909 119.291 140.035 119.311 140.308C119.763 139.73 120.015 139.436 120.068 139.436L120.351 139.552C120.246 140.35 120.005 140.77 119.627 140.802V140.802ZM148.344 110.76C148.207 110.771 147.945 110.351 147.535 109.5L147.514 109.237C147.777 109.216 148.05 109.626 148.323 110.466L148.344 110.76V110.76ZM147.966 107.756L147.84 108.029L143.954 106.401C146.548 106.485 147.892 106.937 147.966 107.756ZM131.486 121.905L130.939 121.958L130.918 121.695L131.464 121.653L131.486 121.905V121.905ZM131.034 113.407L131.181 113.397L131.212 113.796C131.076 113.807 130.908 113.996 130.708 114.363L130.687 114.101C130.929 113.796 131.044 113.565 131.034 113.407ZM129.889 116.139L129.931 116.653L129.784 116.664L129.742 116.149L129.889 116.139ZM129.269 117.115L129.542 117.094C129.511 117.535 129.395 117.767 129.196 117.788L129.049 117.798C129.206 117.504 129.28 117.273 129.269 117.115ZM128.828 118.46L128.954 118.449L128.964 118.586L128.723 119.006L128.45 119.027L128.439 118.89C128.723 118.869 128.849 118.722 128.828 118.46ZM128.387 119.678L128.292 120.35L128.166 120.361L128.114 119.699L128.387 119.678ZM123.902 132.419C123.723 133.302 123.534 133.754 123.334 133.774L123.324 133.659C123.292 133.218 123.481 132.798 123.902 132.419ZM123.072 134.195L123.082 134.31C123.103 134.499 123.019 134.604 122.83 134.615L122.82 134.478C122.809 134.342 122.893 134.247 123.072 134.195V134.195ZM122.841 137.892L123.261 137.86L123.271 137.997C123.177 138.007 123.03 138.06 122.862 138.155L122.589 138.175C122.578 138.029 122.662 137.934 122.841 137.892V137.892ZM134.637 134.247C132.326 135.392 130.95 136.169 130.519 136.569C127.998 137.451 126.748 137.997 126.769 138.218C124.532 139.11 123.061 139.751 122.368 140.161C122.2 140.171 121.958 140.108 121.643 139.961C121.601 139.51 121.811 139.142 122.252 138.869C122.652 138.837 123.03 138.89 123.376 139.037C123.797 138.827 124.521 138.596 125.551 138.333L125.53 138.07L124.668 138.134C124.774 137.987 125.582 137.608 127.084 136.999L127.504 136.968L127.515 137.083C126.801 137.146 126.402 137.356 126.317 137.734C126.328 137.902 126.433 137.987 126.612 137.965C127.137 137.619 127.389 137.419 127.389 137.356C128.397 137.178 131.191 135.707 135.782 132.955L135.802 133.218C135.813 133.333 135.424 133.669 134.637 134.247V134.247ZM127.599 136.558C128.282 136.495 128.859 136.232 129.343 135.77C129.521 135.749 129.626 135.833 129.637 136.001C129.322 136.033 128.702 136.295 127.767 136.8L127.62 136.81L127.599 136.558V136.558ZM138.964 127.829L135.466 130.644C132.851 132.356 131.433 133.218 131.212 133.239C127.053 135.529 124.469 136.715 123.45 136.8L123.303 136.81C123.429 136.337 125.288 132.545 128.881 125.424C130.446 125.287 132.924 124.542 136.328 123.197L137.179 123.124C138.891 122.977 140.172 123.313 141.012 124.121L141.054 124.636C140.414 126.443 139.721 127.504 138.964 127.829V127.829ZM132.095 123.964L132.641 123.911L132.651 124.048L132.105 124.1L132.095 123.964ZM140.046 122.609L140.466 122.577C140.855 122.766 141.054 122.935 141.065 123.071L141.076 123.187C140.708 123.218 140.361 123.029 140.046 122.609V122.609ZM141.149 116.212C140.781 116.653 139.784 117.409 138.156 118.46C137.609 118.512 135.592 119.29 132.105 120.802C131.937 120.739 131.748 120.718 131.548 120.729L131.527 120.466C131.486 119.962 131.706 119.332 132.189 118.565C132.462 117.115 132.767 116.307 133.082 116.117L136.012 109.563C135.981 109.174 136.601 108.859 137.861 108.618L138.281 108.586L138.313 108.985C139.552 108.786 140.33 108.67 140.645 108.639C142.956 108.439 144.164 108.901 144.258 110.036L144.531 110.015L144.479 109.384L144.752 109.364C145.424 109.731 145.781 110.172 145.823 110.697C145.855 111.076 145.666 111.538 145.266 112.074C145.088 112.094 144.983 111.969 144.962 111.695L144.689 111.716L144.605 112.504C143.439 114.279 142.588 115.193 142.052 115.235C141.58 115.876 141.286 116.202 141.149 116.212V116.212ZM142.378 120.582L142.346 120.182L142.619 120.162L143.208 120.519C143.218 120.687 143.134 120.781 142.956 120.802C142.704 120.645 142.514 120.571 142.378 120.582ZM93.4825 146.095L93.2094 146.159L92.9783 146.358C93.0203 146.526 93.1253 146.589 93.3039 146.547C93.4825 146.505 93.5561 146.4 93.5141 146.232L93.4825 146.095V146.095ZM92.4428 144.026L92.4741 144.163C92.6528 144.121 92.7261 144.016 92.6841 143.848L92.6528 143.711C92.4847 143.753 92.4111 143.858 92.4428 144.026V144.026ZM99.8372 126.432L100.152 126.359L100.089 126.086L99.7744 126.159L99.8372 126.432ZM195.149 134.436C191.956 135.15 191.557 135.024 190.885 135.077L190.906 135.34L191.2 135.319L191.357 135.308L191.316 135.277L191.662 135.14C194.824 134.793 195.191 134.919 195.16 134.562L195.149 134.436V134.436ZM177.954 136.715L177.976 136.978H178.017L177.997 136.715H177.954V136.715ZM175.98 129.794L175.696 129.699C175.465 130.319 175.349 130.686 175.36 130.791L175.371 130.907C175.591 130.896 175.791 130.518 175.98 129.794ZM195.801 134.384L195.822 134.646L196.284 134.73L196.263 134.468L195.801 134.384V134.384ZM174.068 137.041L173.354 136.957L173.228 137.23L173.238 137.367L177.492 137.01L177.471 136.747L174.068 137.041ZM172.135 127.724L172.125 127.588L171.978 127.598L171.715 127.766L171.862 128.018C172.062 127.997 172.156 127.903 172.135 127.724V127.724ZM197.817 132.451L198.017 132.43C198.132 132.419 198.185 132.325 198.174 132.157L198.059 131.905C197.334 131.968 196.998 131.999 196.41 132.325L196.399 132.189L195.527 132.272C195.506 132.01 195.433 131.873 195.317 131.884L194.866 131.926C194.341 131.968 194.088 131.947 193.826 132.146C193.815 132.052 193.784 132.01 193.731 132.01L193.227 132.052L192.933 132.22C192.922 132.125 192.891 132.083 192.838 132.083L192.66 132.241L192.649 132.104L191.946 132.052L191.777 132.062L191.799 132.325L192.156 132.419L192.492 132.399C192.607 132.472 192.733 132.493 192.881 132.482L193.175 132.335L193.185 132.451C191.536 132.861 191.546 132.787 190.412 132.976C190.286 132.892 190.191 132.85 190.128 132.861L190.107 132.882C189.981 132.871 189.908 132.787 189.897 132.65L190.486 132.577C190.527 132.577 190.559 132.619 190.885 132.682C191.357 132.451 191.378 132.356 191.631 132.335L191.609 132.073C189.992 132.388 190.643 132.178 188.616 132.356L188.521 132.367L188.5 132.104C191.105 131.789 190.234 131.968 191.126 131.716C191.137 131.81 191.168 131.852 191.221 131.852C191.317 131.754 191.442 131.692 191.578 131.674L191.757 131.663C192.67 131.59 192.975 131.768 194.782 131.264L194.792 131.38L195.086 131.232L195.359 131.212C195.338 130.949 195.737 130.907 195.874 130.896L195.853 130.613C192.681 131.254 191.851 131.075 190.969 131.327L190.958 131.212C190.129 131.359 190.097 131.295 189.887 131.306C189.824 131.317 189.729 131.369 189.624 131.474C189.614 131.38 189.582 131.337 189.519 131.337C189.488 131.337 189.477 131.348 189.467 131.348L186.778 131.789C186.767 131.716 186.736 131.674 186.673 131.684C185.276 131.978 185.654 132.031 183.784 132.199C183.7 132.209 183.585 132.251 183.437 132.346C183.427 132.272 183.385 132.23 183.291 132.241L182.146 132.335L181.379 132.524C181.368 132.451 181.326 132.409 181.232 132.419C180.801 132.535 180.423 132.609 180.118 132.63H180.097C179.908 132.65 180.192 132.577 180.045 132.514L179.814 132.65C179.477 132.682 179.656 132.63 178.501 132.64C176.474 132.892 176.694 132.924 176.474 132.934L175.717 132.882C175.728 132.955 175.686 133.008 175.602 133.008C174.74 132.892 174.299 132.755 174.289 132.598C174.404 131.779 174.604 131.359 174.887 131.337L175.034 131.327L174.908 131.6L175.056 131.59C175.329 131.443 175.455 131.306 175.444 131.18L175.423 130.896L175.15 130.917L175.129 130.655C175.108 130.455 175.139 130.277 175.213 130.13L175.833 129.132L175.854 129.394L176.148 129.373L176.127 129.111L175.959 128.869C176.179 128.68 176.347 128.575 176.484 128.565L176.474 128.428L176.074 128.46L176.043 128.06C176.841 126.401 177.219 125.434 177.198 125.161L177.482 125.277C177.661 125.266 177.744 125.161 177.734 124.972L177.461 124.993L177.45 124.878C177.431 124.686 177.468 124.493 177.555 124.321C177.986 123.869 178.186 123.418 178.144 122.945C178.228 122.934 178.27 122.977 178.28 123.071C178.648 122.861 178.931 122.304 179.141 121.38C179.793 120.204 180.717 117.851 181.925 114.332C184.236 108.114 184.141 107.452 184.467 105.981L184.194 106.002C184.215 106.191 184.173 106.37 184.089 106.538C183.9 106.464 183.753 106.422 183.648 106.433L183.637 106.317C183.595 105.782 183.816 105.141 184.32 104.385L184.446 104.374L184.677 105.277L184.95 105.257C184.94 105.194 185.013 104.836 185.16 104.175C185.15 104.038 185.045 103.954 184.834 103.944L184.572 104.112C184.551 103.922 184.561 103.429 184.593 102.641L184.456 102.652C184.225 102.42 184.11 102.231 184.099 102.074L182.597 102.221C182.587 102.116 182.534 101.958 182.429 101.759C182.419 101.622 182.755 101.485 183.448 101.349L183.753 101.465L184.036 101.297C184.047 101.391 184.099 101.433 184.204 101.423L184.488 101.255C184.498 101.349 184.551 101.391 184.656 101.38L184.792 101.37L184.771 101.065C184.561 101.087 184.005 101.087 183.122 101.055L182.839 101.244L182.828 101.076C175.78 101.654 171.778 101.979 170.822 102.074C170.696 102.084 170.203 102.074 169.331 102.053C169.341 102.168 169.236 102.231 169.026 102.252L168.722 102.116L167.692 102.379C167.451 102.399 167.041 102.389 166.474 102.326C166.316 102.452 166.127 102.525 165.896 102.547C165.77 102.557 167.398 102.462 168.911 102.357C168.753 102.484 168.512 102.557 168.176 102.589C167.944 102.61 167.745 102.578 167.577 102.484C167.346 102.589 166.6 102.757 165.35 103.009L165.045 102.893L160.129 103.649C159.94 103.555 159.72 103.523 159.468 103.544C159.205 103.565 158.764 103.66 158.155 103.828L155.781 104.815L155.959 105.109C156.075 105.099 156.243 105.036 156.442 104.92L157.283 104.994L157.178 105.782C156.401 106.128 155.949 106.643 155.823 107.294C154.657 107.809 154.079 108.177 154.079 108.397L154.09 108.534L154.268 108.523L154.583 108.355L154.951 108.796L155.004 109.405C155.024 109.595 153.06 113.723 149.132 121.79C145.729 129.562 143.943 133.817 143.775 134.583C142.609 134.909 141.937 135.382 141.737 136.012C141.758 136.211 142.105 136.348 142.777 136.4L142.809 136.705L142.504 137.209L142.556 137.819C142.588 138.134 143.439 138.375 145.109 138.543C145.098 138.438 145.151 138.375 145.266 138.365C145.298 138.743 145.193 139.478 144.951 140.57L145.13 140.56C145.823 139.615 146.149 138.963 146.117 138.606L146.264 138.596C146.432 138.585 146.611 138.774 146.821 139.184C146.611 139.268 145.876 140.938 144.615 144.205L144.794 144.499L144.972 144.489C146.516 140.581 147.483 138.417 147.882 138.007C149.909 137.829 153.417 137.472 158.396 136.936L158.711 136.747C158.722 136.852 158.785 136.905 158.901 136.894L159.226 136.863L159.541 136.674C159.552 136.779 159.615 136.831 159.73 136.82L163.501 136.495C164.499 136.411 164.972 136.106 164.93 135.592C164.919 135.455 165.507 135.297 166.694 135.129C166.81 135.119 166.978 135.15 167.209 135.224C167.199 135.129 167.797 135.035 168.995 134.93C169.026 134.3 169.226 133.964 169.583 133.932L169.551 133.627C169.215 133.659 168.837 133.743 168.396 133.89C167.608 133.848 167.104 133.785 166.894 133.711C166.684 133.827 166.526 133.89 166.411 133.9L163.785 133.985L163.47 134.153C163.459 134.058 163.396 134.016 163.281 134.027L163.134 134.037L162.797 134.205C162.787 134.11 162.514 134.037 161.967 133.964L161.632 134.163L160.98 134.215L160.97 134.047C164.352 133.68 166.022 133.218 165.98 132.672C166.201 132.65 166.316 132.755 166.337 132.976L167.325 132.724L167.293 132.419L159.195 132.64C159.205 132.745 159.152 132.808 159.037 132.819L158.05 132.735C157.797 132.755 157.587 132.829 157.419 132.955L157.052 132.819C156.033 132.903 155.277 133.029 154.772 133.186C154.079 133.134 153.312 133.144 152.462 133.218L150.644 133.375L149.804 133.281C149.762 132.745 150.802 130.109 152.945 125.382C153.565 123.785 154.132 122.787 154.678 122.409C154.794 122.399 154.962 122.441 155.193 122.535L156.485 122.094L157.146 122.199C158.26 122.105 159.552 121.79 161.033 121.243C161.401 121.212 161.674 121.233 161.873 121.317L162.861 121.086L165.802 120.834C167.051 120.729 168.406 120.455 169.877 120.004L169.846 119.699C169.299 119.752 169.016 119.657 168.995 119.437C168.963 119.027 168.564 118.859 167.797 118.922L167.766 118.617L168.575 118.386L170.696 118.208L170.665 117.903C170.581 117.914 170.15 117.903 169.352 117.872L169.32 117.546L170.14 117.472C170.36 117.452 170.455 117.346 170.434 117.136C169.331 117.168 168.774 117.115 168.764 116.968C161.075 117.346 157.22 117.42 157.199 117.178C157.083 117.189 156.926 117.262 156.716 117.389L156.516 117.073C158.554 112.746 159.751 110.561 160.098 110.529C160.108 110.697 160.024 110.97 159.835 111.338L159.846 111.475L160.171 111.443C160.98 109.51 161.663 108.513 162.23 108.471C164.646 108.26 161.894 108.103 167.062 107.294C167.272 107.389 167.419 107.431 167.524 107.42C169.551 107.011 172.377 106.58 176.001 106.139L175.98 105.834L174.047 106.013L174.026 105.708C174.257 105.687 174.446 105.614 174.604 105.488L174.614 105.656C174.719 105.645 174.866 105.572 175.056 105.445C175.392 105.414 175.644 105.445 175.822 105.54C176.494 105.362 177.041 105.257 177.44 105.214L178.648 105.099C178.942 104.91 179.078 104.742 179.068 104.584L179.057 104.448C178.753 104.479 178.406 104.458 177.997 104.385C177.986 104.217 178.07 104.101 178.27 104.049L180.517 103.839L181.547 103.576C181.557 103.691 181.61 103.734 181.694 103.734C181.799 103.723 181.946 103.649 182.135 103.523C182.187 103.534 182.251 103.534 182.303 103.544C182.167 103.828 182.009 104.238 181.851 104.773L181.557 104.794C181.536 104.595 181.484 104.416 181.389 104.259L181.242 104.269C178.511 111.874 177.293 115.414 174.772 121.254C174.31 122.745 173.921 123.575 173.585 123.754C173.596 123.922 173.701 124.006 173.879 123.985C173.942 124.72 173.774 125.445 173.364 126.159C172.198 129.52 171.421 131.359 171.022 131.695L171.284 133.281C171.295 133.449 171.211 133.543 171.032 133.564L170.759 133.585C170.717 133.144 170.56 132.934 170.276 132.966L170.129 132.976C169.772 133.533 169.499 134.174 169.32 134.919L169.593 134.898C169.961 134.657 170.129 134.373 170.097 134.047L170.644 133.995L170.959 134.11C170.707 134.51 170.591 134.825 170.612 135.066L170.759 135.319L170.402 136.159L170.413 136.295C170.728 136.264 171.074 136.369 171.442 136.589C171.694 136.569 171.967 136.453 172.272 136.253C172.587 136.222 173.763 136.211 175.791 136.211L176.809 135.865C178.049 135.854 178.249 135.886 179.32 135.791L179.761 135.749L179.992 135.592L180.003 135.728C181.127 135.634 181.2 135.707 182.082 135.812L182.093 135.949L181.473 136.001L181.494 136.264C181.683 136.243 181.851 136.19 181.988 136.075C182.146 136.064 182.24 136.148 182.251 136.337C181.999 136.359 181.715 136.421 181.4 136.527L181.127 136.432C180.696 136.547 180.791 136.579 180.496 136.6L180.066 136.516C180.076 136.589 180.034 136.642 179.961 136.642C179.971 136.81 180.066 136.894 180.223 136.884L180.664 136.842L182.965 136.642L183.837 136.453C183.847 136.527 183.879 136.569 183.952 136.558L184.372 136.4L185.16 136.337C185.769 136.285 185.759 136.243 187.082 136.033C187.072 135.949 187.103 135.917 187.166 135.907L187.177 136.022C189.33 135.655 189.467 135.634 189.813 135.518L189.845 135.581C190.381 135.455 190.076 135.487 190.223 135.382C190.234 135.476 190.265 135.518 190.317 135.518L190.696 135.487L190.675 135.203L189.908 135.192L189.897 135.172C189.866 135.182 189.845 135.182 189.813 135.192H189.708V135.214C189.194 135.319 189.183 135.245 188.847 135.277L186.925 135.382L186.914 135.245L187.986 135.098L188.374 135.066L188.595 134.909L188.605 135.045C190.118 134.919 190.654 135.297 197.649 133.806C198.027 133.774 197.996 133.459 198.237 132.808C198.109 132.817 197.981 132.788 197.87 132.724C197.292 132.945 196.987 132.84 195.874 133.018C195.779 133.029 195.706 132.945 195.674 132.777L195.664 132.661L196.735 132.692C196.935 132.672 197.324 132.64 197.901 132.314C197.901 132.409 197.691 132.462 197.817 132.451V132.451ZM146.096 133.281L145.602 133.323C145.582 133.123 145.844 132.367 146.39 131.075L146.716 131.044C146.727 131.348 146.527 132.094 146.096 133.281ZM146.695 130.886L146.684 130.749C146.674 130.581 146.779 130.466 147.01 130.413L147.021 130.55C147.031 130.749 146.926 130.865 146.695 130.886V130.886ZM153.26 135.959L153.271 136.096L152.451 136.169L152.441 136.033L153.26 135.959ZM152.272 135.875C152.283 136.043 152.031 136.232 151.485 136.421L150.476 136.348L150.151 136.379L150.119 136.075L152.272 135.875V135.875ZM158.911 105.32L158.417 105.362L158.407 105.194C158.396 105.025 158.491 104.91 158.701 104.857L158.879 104.847L159.216 104.983C159.226 105.183 159.132 105.299 158.911 105.32V105.32ZM166.421 103.849L166.579 103.839L166.6 104.143L166.148 104.185C166.138 104.017 166.222 103.902 166.421 103.849ZM164.531 104.511L163.785 104.427L163.774 104.29C164.751 104.206 165.077 104.101 165.676 103.933C165.686 104.049 165.791 104.09 165.98 104.07L166.001 104.374L165.707 104.406C165.476 104.427 165.276 104.395 165.108 104.301C164.93 104.416 164.741 104.49 164.531 104.511V104.511ZM165.466 107.231L165.455 107.095L166.663 106.979L166.673 107.116L165.466 107.231ZM166.757 106.181L166.747 106.013L167.335 105.96L167.346 106.128L166.757 106.181ZM166.894 104.122L166.736 104.133L166.873 103.807L168.217 103.681L168.228 103.849C167.881 103.88 167.43 103.975 166.894 104.122V104.122ZM167.577 107.021L167.556 106.717L168.144 106.664C168.344 106.643 168.449 106.737 168.459 106.948L167.577 107.021V107.021ZM171.137 102.168L170.381 102.379L170.245 102.389C169.887 102.42 169.425 102.41 168.879 102.357C169.856 102.294 170.791 102.221 171.137 102.168V102.168ZM170.329 105.53L170.339 105.666L169.299 105.761L169.289 105.624L170.329 105.53ZM172.03 106.338C172.02 106.212 171.82 106.128 171.411 106.086L170.371 106.38L169.572 106.412C169.394 106.286 169.299 106.202 169.289 106.139L170.213 106.191L172.293 105.855L173.354 105.897L173.364 106.065C172.839 106.118 172.398 106.212 172.03 106.338ZM182.734 103.576C182.86 103.586 182.944 103.586 182.975 103.586C183.343 103.229 183.753 102.946 184.225 102.746C183.847 104.406 183.259 105.635 182.45 106.433L181.862 106.076C182.356 104.826 182.65 103.996 182.734 103.576V103.576ZM180.927 106.675L181.074 106.664C180.874 107.042 180.696 107.242 180.549 107.252L180.517 106.853C180.612 106.853 180.749 106.79 180.927 106.675ZM179.761 109.458C180.045 108.324 180.318 107.683 180.57 107.515L180.581 107.651C180.433 108.702 180.202 109.259 179.898 109.3L179.95 109.962C179.698 110.319 179.582 110.592 179.593 110.802L179.446 110.813L179.362 109.899C179.53 109.878 179.667 109.731 179.761 109.458V109.458ZM179.309 110.97C179.32 111.128 179.215 111.496 179.005 112.063L178.858 112.074L178.826 111.674C179.026 111.212 179.194 110.981 179.309 110.97ZM170.833 135.57L170.822 135.455L171.096 135.434L171.127 135.833C170.98 135.844 170.875 135.76 170.833 135.57ZM182.944 135.886C182.933 135.791 182.891 135.749 182.797 135.76L182.114 135.823L182.104 135.686H182.167L183.784 135.55L183.795 135.686C183.322 135.707 183.038 135.781 182.944 135.886V135.886ZM182.135 135.55C182.198 135.581 182.167 135.613 182.135 135.634C182.104 135.623 182.062 135.592 182.135 135.55ZM182.219 133.659L181.316 133.732L181.305 133.596L182.124 133.522L182.839 133.344C182.849 133.428 182.891 133.459 182.986 133.449C183.837 133.302 183.753 133.26 184.162 133.228C184.299 133.218 184.383 133.302 184.393 133.47L182.219 133.659V133.659ZM185.381 133.386C184.877 133.333 184.845 133.291 184.488 133.323L184.477 133.207L185.286 133.134L185.297 133.249C185.213 133.26 185.517 133.281 185.381 133.386ZM185.444 133.239L185.433 133.123L185.874 133.081L185.885 133.197L185.444 133.239ZM186.421 133.155L186.41 133.039C186.484 133.029 186.589 132.976 186.725 132.871C186.946 132.85 187.061 132.997 187.082 133.165L186.421 133.155V133.155ZM187.671 132.997L187.66 132.861L188.196 132.819L188.206 132.955L187.671 132.997ZM188.416 132.934C188.406 132.777 188.469 132.682 188.606 132.661L188.784 132.892C188.774 132.819 188.805 132.777 188.868 132.766L189.005 133.018L188.416 132.934ZM180.486 136.359L180.465 136.096L180.381 136.106L180.402 136.369L180.486 136.359ZM198.941 131.579C199.025 131.527 199.067 131.474 198.868 131.443C198.773 131.548 198.973 131.579 198.763 131.59L198.773 131.684C198.794 131.663 198.847 131.632 198.889 131.6L198.773 131.695V131.705L198.552 131.989L198.994 131.831H199.046L199.025 131.569L198.941 131.579ZM199.708 132.178L199.624 132.189L199.645 132.451L200.265 132.399C200.254 132.23 199.844 132.178 199.708 132.178ZM198.752 131.716L198.763 131.705V131.695C198.763 131.695 198.752 131.705 198.752 131.716Z" fill="black"/>
<path d="M158.428 112.273L158.438 112.441L158.785 112.41C158.774 112.305 158.816 112.137 158.89 111.926L158.859 111.622C158.711 111.632 158.564 111.853 158.428 112.273V112.273ZM155.109 104.29L155.077 103.985L154.583 104.027L154.615 104.332L155.109 104.29V104.29ZM145.477 122.325C145.456 122.042 144.573 120.939 142.83 118.995C142.798 118.638 143.397 118.103 144.626 117.399L148.134 114.342C148.922 113.344 149.384 111.727 149.521 109.479L149.479 108.964C149.342 107.41 148.218 106.16 146.086 105.204C144.825 104.353 142.556 103.88 139.279 103.796C136.569 104.027 133.029 104.994 128.671 106.706C127.473 107.567 126.107 108.428 124.574 109.29L124.595 109.553C124.689 109.542 124.836 109.49 125.005 109.374C125.183 109.353 125.288 109.437 125.299 109.605L125.561 109.468L125.687 109.458L125.698 109.573C125.708 109.71 124.763 110.456 122.851 111.79L122.998 112.063L122.872 112.073L122.557 111.958C122.568 112.052 122.431 112.115 122.169 112.137L122.179 112.252L122.484 112.63C122.389 112.641 122.242 112.599 122.042 112.525C121.601 112.567 121.171 112.798 120.74 113.239L120.919 112.462C121.559 109.7 122.001 107.252 122.232 105.13L122.2 104.994C121.759 104.71 121.328 104.311 120.929 103.807C120.94 103.481 120.94 103.292 120.929 103.25L120.897 103.135L120.772 103.166C119.385 105.246 116.717 108.796 112.757 113.817C109.742 117.388 108.188 119.373 108.093 119.773C106.864 121.044 106.276 121.81 106.339 122.073C106.014 122.283 105.877 122.493 105.93 122.724C105.835 122.745 105.772 122.714 105.751 122.619C105.226 123.47 104.449 124.016 103.409 124.258L102.316 124.51C102.169 124.542 102.096 124.647 102.106 124.825L102.138 124.962L102.547 124.867L102.579 124.983L101.654 125.34L100.016 125.718L99.1547 125.77C99.0286 125.897 99.8372 125.76 99.5222 125.833L98.4508 126.086C97.7997 126.233 97.4425 126.18 97.3794 125.918L97.2533 125.949C97.2744 126.065 97.285 126.148 97.2639 126.222L97.2008 125.96L96.3394 126.159C96.2766 125.76 95.1105 124.31 92.8522 121.81C92.8103 121.327 93.6086 120.623 95.2366 119.71L99.8372 115.666C100.867 114.342 101.476 112.22 101.676 109.3L101.612 108.618C101.434 106.559 99.9425 104.899 97.1378 103.618C95.4783 102.494 92.4953 101.895 88.1886 101.801C84.6172 102.105 79.9536 103.376 74.2183 105.593C72.6428 106.737 70.8466 107.872 68.83 108.996L68.8614 109.353C68.998 109.342 69.1766 109.269 69.3972 109.143C69.6283 109.122 69.7544 109.227 69.7753 109.437L70.1325 109.237L70.3111 109.227L70.3214 109.395C70.3319 109.563 69.0819 110.54 66.5505 112.325L66.7503 112.641L66.5716 112.651L66.183 112.515C66.1936 112.62 66.015 112.693 65.6472 112.725L65.6683 112.914L66.0883 113.376C65.9519 113.387 65.7628 113.344 65.5214 113.26C64.7019 113.334 63.9036 113.922 63.1158 115.035L63.3155 115.351C63.9983 114.72 64.3972 114.405 64.5128 114.395L64.555 114.91C64.4394 114.92 64.2608 114.993 64.0191 115.12L64.45 115.771C65.2634 114.892 66.1845 114.119 67.1914 113.47C67.685 113.597 67.9478 113.754 67.958 113.922L68.3364 113.891C71.0464 111.884 73.7247 110.435 76.3822 109.542L76.4139 109.899C75.92 110.634 75.5839 111.013 75.4053 111.033C75.4264 111.286 75.5105 111.506 75.668 111.695C75.71 112.147 74.5019 115.193 72.0547 120.823C66.498 133.911 61.8344 143.595 58.0425 149.856C58.053 149.982 58.1266 150.15 58.263 150.36C59.198 150.139 59.7861 149.908 60.0383 149.688L60.2378 149.667L60.2694 150.024L60.6158 149.992L60.973 149.793C60.9836 149.898 61.0991 149.95 61.3408 149.929L61.3722 150.287C61.4036 150.633 61.2041 151.158 60.7839 151.883C60.4058 152.314 59.9961 153.217 59.5655 154.593L59.5761 154.761L59.9228 154.73C61.4353 153.038 62.5803 151.379 63.368 149.761C67.7797 148.469 71.1408 147.198 73.4728 145.948C75.815 145.749 77.6005 145.129 78.8191 144.11L78.798 143.921L77.9158 144.184L77.7161 144.205L77.6953 144.016C79.4178 143.753 80.6047 143.375 81.2666 142.85C84.6172 140.266 87.1486 138.438 88.8608 137.356C92.3797 134.772 94.6694 132.251 95.7094 129.804C95.8983 129.762 96.0875 129.72 96.2975 129.667C96.7911 129.647 97.0644 129.636 97.1378 129.615C97.1169 129.52 97.1589 129.468 97.2533 129.447C98.0411 129.363 97.663 129.499 98.1672 129.384L99.4908 129.079L99.7114 129.027L99.6064 129.09C99.7533 129.111 99.9108 129.1 100.089 129.058L100.184 129.447L94.1653 139.016L92.8314 140.686L92.18 142.871L92.3061 142.839L92.9572 142.566L92.7472 143.417L92.8103 143.669L92.9889 143.89C92.9047 143.911 92.8733 143.963 92.8941 144.058L92.9258 144.194L93.1989 144.131C93.598 143.785 93.7661 143.47 93.703 143.186C94.1336 143.259 94.4172 143.291 94.5644 143.249L94.5958 143.385C94.3333 143.448 94.1966 143.658 94.1758 144.016L94.2072 144.152L94.3544 144.121C96.5392 141.736 101.896 133.575 106.192 128.039C106.056 127.441 108.293 126.611 112.915 125.539L113.062 125.508C113.23 126.233 112.873 127.987 111.99 130.77C111.423 132.451 111.15 133.375 111.192 133.522C110.457 135.76 110.11 136.968 110.152 137.157L108.514 142.524C107.452 145.276 106.644 148.165 106.077 151.211C106.171 151.19 106.318 151.2 106.528 151.253L106.759 151.053C106.78 151.148 106.843 151.179 106.938 151.158L106.843 150.77L107.558 150.749C107.768 150.696 107.946 150.433 108.093 149.95C108.062 149.226 108.209 148.837 108.534 148.753C108.976 147.03 109.249 146.169 109.343 146.137C109.753 144.425 110.057 143.448 110.257 143.207C110.877 140.98 111.329 139.835 111.623 139.762L111.686 140.035L111.234 141.201C110.446 144.698 109.648 147.461 108.839 149.488L109.07 150.497L109.217 150.465C111.171 146.263 113.986 137.944 117.652 125.508C117.757 124.415 118.282 123.565 119.217 122.966L119.007 122.745L118.975 122.63C119.396 122.535 119.69 122.367 119.858 122.136C119.837 122.042 119.469 121.905 118.755 121.716L120.582 113.88C120.982 113.523 121.213 113.334 121.286 113.334L121.318 113.733C121.223 113.743 121.076 113.796 120.908 113.912L121.255 114.405C121.885 113.723 122.568 113.134 123.313 112.641C123.692 112.746 123.881 112.872 123.902 112.998L124.175 112.977C126.254 111.454 128.292 110.361 130.299 109.7L130.319 109.962C129.952 110.519 129.7 110.802 129.563 110.813C129.584 111.002 129.637 111.17 129.731 111.317C129.763 111.664 128.859 113.975 127.011 118.26C122.788 128.186 119.248 135.528 116.37 140.297C116.381 140.392 116.444 140.518 116.559 140.686C117.263 140.518 117.715 140.339 117.894 140.171L118.019 140.161L118.041 140.423L118.335 140.402L118.597 140.266C118.608 140.339 118.702 140.371 118.881 140.36L118.902 140.644C118.923 140.896 118.776 141.295 118.45 141.841C118.146 142.167 117.831 142.85 117.494 143.89L117.505 144.026L117.778 144.005C118.923 142.724 119.795 141.463 120.393 140.224C123.744 139.237 126.297 138.28 128.061 137.335C129.857 137.178 131.212 136.715 132.137 135.938L132.126 135.802L131.443 136.001L131.296 136.012L131.286 135.875C132.588 135.686 133.502 135.392 133.996 135.003C136.538 133.05 138.46 131.653 139.762 130.833C143.817 127.882 145.708 125.046 145.477 122.325V122.325ZM144.783 122.504L144.878 123.565C144.752 123.827 144.615 123.964 144.489 123.974L144.332 122.168C144.626 122.273 144.773 122.378 144.783 122.504V122.504ZM65.248 113.954L65.0697 113.964L65.038 113.638L65.7628 113.575L65.7733 113.743C65.6578 113.754 65.4791 113.817 65.248 113.954V113.954ZM61.7083 149.362C61.2883 149.173 60.91 149.1 60.5844 149.131L60.5425 148.616C60.5214 148.417 60.6369 148.28 60.8891 148.228C61.12 148.207 61.2566 148.375 61.2778 148.711C61.8869 147.965 62.223 147.587 62.2861 147.577L62.6747 147.734C62.5486 148.784 62.223 149.32 61.7083 149.362V149.362ZM99.5328 109.794C99.3542 109.815 98.9969 109.258 98.4825 108.155L98.4508 107.83C98.7869 107.798 99.1336 108.345 99.5011 109.468L99.5328 109.794V109.794ZM99.0286 105.876L98.8814 106.223L93.745 104.08C97.1694 104.195 98.9341 104.794 99.0286 105.876ZM77.338 124.5L76.6133 124.563L76.5819 124.237L77.3066 124.174L77.338 124.5ZM76.7497 113.313L76.9283 113.302L76.9705 113.817C76.8025 113.828 76.5819 114.08 76.3086 114.563L76.2772 114.206C76.6028 113.817 76.7708 113.523 76.7497 113.313V113.313ZM75.2266 116.905L75.2897 117.588L75.1114 117.598L75.0483 116.916L75.2266 116.905ZM74.4286 118.187L74.7753 118.155C74.7436 118.722 74.5861 119.027 74.3025 119.048L74.1239 119.058C74.3444 118.68 74.4494 118.386 74.4286 118.187V118.187ZM73.8297 119.972L74.0294 119.951L74.0397 120.119L73.7141 120.666L73.3675 120.697L73.3572 120.529C73.7039 120.498 73.8614 120.319 73.8297 119.972V119.972ZM73.2416 121.58L73.1366 122.441L72.958 122.451L72.8844 121.6L73.2416 121.58V121.58ZM67.3489 138.333C67.1178 139.51 66.8658 140.108 66.603 140.129L66.5928 139.961C66.5297 139.383 66.7816 138.837 67.3489 138.333V138.333ZM66.2669 140.675L66.2775 140.843C66.2986 141.075 66.1936 141.211 65.9625 141.222L65.9519 141.053C65.9308 140.854 66.0358 140.728 66.2669 140.675ZM65.9519 145.539L66.498 145.486L66.5191 145.675C66.3825 145.686 66.2039 145.759 65.9833 145.885L65.6366 145.917C65.6158 145.738 65.7314 145.602 65.9519 145.539V145.539ZM81.4975 140.738C78.4305 142.251 76.6239 143.28 76.088 143.816C72.7689 144.972 71.1197 145.686 71.1514 145.969C68.1997 147.135 66.2564 147.997 65.3216 148.532C65.1011 148.553 64.7861 148.469 64.3658 148.28C64.3133 147.682 64.5864 147.198 65.1641 146.81C65.6789 146.768 66.1725 146.841 66.6453 147.041C67.1914 146.757 68.1472 146.442 69.5022 146.106L69.4708 145.749L68.3783 145.843C68.5147 145.654 69.5653 145.161 71.54 144.362L72.0861 144.31L72.0966 144.478C71.1619 144.562 70.6472 144.835 70.5316 145.329C70.5525 145.549 70.6786 145.644 70.9097 145.623C71.6136 145.182 71.96 144.919 71.9497 144.845C73.2836 144.593 76.9705 142.661 83.0103 139.058L83.0416 139.383C83.0522 139.541 82.5375 139.982 81.4975 140.738V140.738ZM72.2333 143.785C73.1155 143.711 73.8719 143.354 74.5019 142.734C74.7541 142.713 74.8908 142.808 74.9011 143.028C74.4705 143.07 73.6408 143.427 72.4328 144.121L72.2541 144.131L72.2333 143.785ZM87.1803 132.304L82.548 135.98C79.1028 138.238 77.2541 139.373 76.9808 139.394C71.498 142.408 68.0841 143.974 66.7608 144.089L66.5611 144.11C66.7291 143.49 69.1661 138.501 73.8928 129.111C75.9725 128.932 79.2497 127.966 83.7139 126.201L84.8064 126.107C87.0647 125.907 88.7558 126.348 89.8691 127.398L89.9322 128.081C89.1025 130.487 88.178 131.894 87.1803 132.304V132.304ZM78.1258 127.21L78.8716 127.147L78.8822 127.315L78.1364 127.378L78.1258 127.21ZM88.5983 125.434L89.1444 125.382C89.6486 125.623 89.9111 125.833 89.9322 126.023L89.9428 126.191C89.4594 126.233 89.0078 125.98 88.5983 125.434V125.434ZM90.0791 117C89.5961 117.577 88.2725 118.565 86.1089 119.951C85.3944 120.014 82.7369 121.044 78.1364 123.06C77.9064 122.955 77.653 122.912 77.4011 122.934L77.3697 122.609C77.3172 121.947 77.6111 121.117 78.2625 120.109C78.6194 118.218 79.0083 117.136 79.4389 116.874L83.2728 108.25C83.2308 107.714 84.05 107.305 85.7305 107.021L86.2769 106.968L86.3189 107.462C87.968 107.21 88.9972 107.063 89.3964 107.032C92.4428 106.769 94.0286 107.389 94.1547 108.87L94.5014 108.838L94.4278 107.967L94.8061 107.935C95.6989 108.428 96.1819 109.027 96.245 109.731C96.2869 110.214 96.0244 110.813 95.4678 111.527C95.2366 111.548 95.1 111.38 95.0791 111.044L94.7008 111.076L94.6169 112.126C93.0728 114.437 91.9489 115.624 91.2558 115.687C90.6255 116.558 90.2369 116.989 90.0791 117ZM92.4322 123.04C92.1169 122.829 91.865 122.735 91.6758 122.745L91.6339 122.231L91.9805 122.199L92.7472 122.651C92.7789 122.892 92.6736 123.018 92.4322 123.04V123.04ZM94.8692 125.928C95.2053 126.065 95.4047 126.212 95.4466 126.348L95.2786 126.39L95.2891 126.401C95.2578 126.401 95.2155 126.411 95.1842 126.422L94.9319 126.621L94.8692 125.928V125.928ZM95.1 127.378L95.0686 127.241L95.5097 127.136L95.5414 127.273L95.1 127.378ZM96.1611 128.565C96.6128 128.491 96.8333 128.46 97.6736 128.27L97.705 128.407L96.1086 128.775C96.1294 128.701 96.1505 128.628 96.1611 128.565ZM97.7155 129.226C97.0433 129.289 97.1903 129.205 96.1189 129.447L96.0875 129.31L97.4319 128.88L98.0728 128.733L98.1358 128.985C97.8416 129.048 98.0516 129.048 97.7155 129.226ZM99.1336 128.89C98.9761 128.932 98.85 128.859 98.7764 128.68L99.1861 128.585C99.3647 128.543 99.4803 128.617 99.5222 128.796L99.1336 128.89V128.89ZM102.978 124.752L102.946 124.615L103.608 124.457L103.671 124.71L102.978 124.752ZM107.085 149.94C107.127 149.751 107.137 149.614 107.116 149.52L107.264 149.488C107.442 149.446 107.547 149.509 107.589 149.677L107.621 149.814L107.085 149.94V149.94ZM109.963 125.833L109.669 125.781C109.196 125.97 108.797 126.107 108.471 126.18L108.198 126.243C108.041 126.285 107.915 126.222 107.852 126.054L109.774 125.613L110.404 125.319L110.614 125.56C110.31 125.623 110.089 125.718 109.963 125.833V125.833ZM111.444 125.361L111.412 125.224C111.507 125.203 111.633 125.13 111.77 124.993L113.135 124.678L113.167 124.815C112.442 124.993 111.864 125.172 111.444 125.361ZM111.654 122.598C111.56 122.619 111.434 122.703 111.276 122.829C111.255 122.735 111.066 122.735 110.709 122.819C110.646 122.556 111.654 122.189 113.744 121.705L114.039 121.642L114.102 121.895C112.631 122.325 111.812 122.567 111.654 122.598ZM115.331 118.628C115.184 120.298 114.595 121.243 113.555 121.485L113.524 121.348L112.599 121.705L112.19 121.8C111.98 121.853 111.791 121.842 111.623 121.79L111.539 121.422C111.507 121.285 112.841 119.437 115.551 115.886L115.866 115.939C115.982 116.422 115.803 117.315 115.331 118.628ZM121.832 113.061L121.706 113.071L121.685 112.809L122.232 112.756L122.242 112.893C122.147 112.914 122.011 112.966 121.832 113.061V113.061ZM119.154 139.961C118.839 139.814 118.555 139.751 118.314 139.772L118.282 139.373C118.272 139.237 118.356 139.142 118.534 139.089C118.713 139.068 118.818 139.194 118.839 139.467C119.291 138.89 119.542 138.596 119.595 138.596L119.879 138.711C119.774 139.51 119.532 139.93 119.154 139.961V139.961ZM147.871 109.92C147.735 109.931 147.472 109.51 147.063 108.66L147.042 108.397C147.304 108.376 147.577 108.786 147.851 109.626L147.871 109.92V109.92ZM147.493 106.916L147.367 107.189L143.481 105.561C146.075 105.645 147.42 106.097 147.493 106.916ZM131.013 121.065L130.467 121.117L130.446 120.855L130.992 120.802L131.013 121.065ZM130.561 112.567L130.708 112.557L130.74 112.956C130.603 112.966 130.435 113.155 130.236 113.523L130.214 113.26C130.456 112.956 130.572 112.725 130.561 112.567V112.567ZM129.416 115.298L129.458 115.813L129.311 115.823L129.269 115.309L129.416 115.298ZM128.796 116.275L129.069 116.254C129.038 116.695 128.922 116.926 128.723 116.947L128.576 116.958C128.733 116.664 128.807 116.433 128.796 116.275V116.275ZM128.355 117.62L128.481 117.609L128.492 117.745L128.25 118.166L127.977 118.187L127.967 118.05C128.25 118.029 128.376 117.882 128.355 117.62V117.62ZM127.914 118.838L127.82 119.51L127.694 119.521L127.641 118.859L127.914 118.838ZM123.429 131.579C123.251 132.462 123.061 132.913 122.862 132.934L122.851 132.818C122.82 132.377 123.009 131.957 123.429 131.579ZM122.599 133.354L122.61 133.47C122.631 133.659 122.547 133.764 122.357 133.774L122.347 133.638C122.337 133.501 122.421 133.407 122.599 133.354V133.354ZM122.368 137.052L122.788 137.02L122.799 137.157C122.704 137.167 122.557 137.22 122.389 137.314L122.116 137.335C122.106 137.188 122.189 137.094 122.368 137.052V137.052ZM134.164 133.407C131.853 134.552 130.477 135.329 130.046 135.728C127.526 136.61 126.276 137.157 126.297 137.377C124.059 138.27 122.589 138.911 121.896 139.32C121.727 139.331 121.486 139.268 121.171 139.121C121.129 138.669 121.339 138.302 121.78 138.028C122.179 137.997 122.557 138.05 122.904 138.197C123.324 137.987 124.049 137.755 125.078 137.493L125.057 137.23L124.206 137.304C124.311 137.157 125.12 136.778 126.622 136.169L127.042 136.138L127.053 136.253C126.339 136.316 125.939 136.527 125.855 136.905C125.866 137.073 125.971 137.157 126.149 137.136C126.675 136.789 126.927 136.589 126.927 136.527C127.935 136.348 130.729 134.877 135.319 132.125L135.34 132.388C135.34 132.493 134.952 132.829 134.164 133.407V133.407ZM127.126 135.718C127.809 135.655 128.387 135.392 128.87 134.93C129.049 134.919 129.154 134.993 129.164 135.161C128.849 135.192 128.229 135.455 127.294 135.959L127.147 135.97L127.126 135.718V135.718ZM138.492 126.989L134.994 129.804C132.378 131.516 130.96 132.377 130.74 132.398C126.58 134.688 123.996 135.875 122.977 135.959L122.83 135.97C122.956 135.497 124.816 131.705 128.408 124.583C129.973 124.447 132.452 123.701 135.855 122.357L136.706 122.283C138.418 122.136 139.699 122.472 140.54 123.281L140.582 123.796C139.941 125.602 139.248 126.663 138.492 126.989V126.989ZM131.622 123.123L132.168 123.071L132.179 123.208L131.632 123.26L131.622 123.123V123.123ZM139.573 121.768L139.994 121.737C140.382 121.926 140.582 122.094 140.592 122.231L140.603 122.346C140.235 122.378 139.889 122.189 139.573 121.768V121.768ZM140.676 115.372C140.309 115.813 139.311 116.569 137.683 117.62C137.137 117.672 135.12 118.449 131.632 119.962C131.464 119.899 131.275 119.878 131.076 119.888L131.055 119.626C131.013 119.122 131.233 118.491 131.717 117.725C131.99 116.275 132.294 115.466 132.609 115.277L135.54 108.723C135.508 108.334 136.128 108.019 137.389 107.777L137.809 107.746L137.84 108.145C139.08 107.945 139.857 107.83 140.172 107.798C142.483 107.599 143.691 108.061 143.786 109.195L144.059 109.174L144.006 108.544L144.279 108.523C144.951 108.891 145.309 109.332 145.351 109.857C145.382 110.235 145.193 110.697 144.794 111.233C144.615 111.254 144.51 111.128 144.489 110.855L144.216 110.876L144.132 111.664C142.966 113.439 142.115 114.353 141.58 114.395C141.107 115.035 140.813 115.361 140.676 115.372V115.372ZM141.905 119.741L141.874 119.342L142.147 119.321L142.735 119.678C142.746 119.846 142.662 119.941 142.483 119.962C142.231 119.804 142.042 119.731 141.905 119.741V119.741ZM93.0097 145.255L92.7366 145.318L92.5055 145.518C92.5478 145.686 92.6528 145.749 92.8314 145.707C93.0097 145.665 93.0833 145.56 93.0414 145.392L93.0097 145.255V145.255ZM91.97 143.186L92.0014 143.322C92.18 143.28 92.2536 143.175 92.2116 143.007L92.18 142.871C92.0119 142.913 91.9383 143.018 91.97 143.186V143.186ZM99.4066 129.216L99.6064 129.09C99.5642 129.09 99.5328 129.079 99.5011 129.069C99.4278 129.09 99.3961 129.142 99.4066 129.216ZM99.3647 125.592L99.6797 125.518L99.6167 125.245L99.3017 125.319L99.3647 125.592V125.592ZM173.596 136.201L172.881 136.117L172.755 136.39L172.766 136.527L177.02 136.169L176.999 135.907L173.596 136.201ZM177.482 135.875L177.503 136.138H177.545L177.524 135.875H177.482ZM195.328 133.543L195.349 133.806L195.811 133.89L195.79 133.627L195.328 133.543V133.543ZM194.677 133.596C191.484 134.31 191.084 134.184 190.412 134.237L190.433 134.499L190.727 134.478L190.885 134.468L190.843 134.436L191.189 134.3C194.351 133.953 194.719 134.079 194.687 133.722L194.677 133.596ZM175.507 128.953L175.224 128.859C174.992 129.478 174.877 129.846 174.887 129.951L174.898 130.067C175.119 130.056 175.318 129.678 175.507 128.953ZM171.663 126.884L171.652 126.747L171.505 126.758L171.242 126.926L171.39 127.178C171.589 127.157 171.684 127.062 171.663 126.884V126.884ZM180.013 135.518L179.992 135.255L179.908 135.266L179.929 135.528L180.013 135.518V135.518ZM197.345 131.611L197.544 131.59C197.66 131.579 197.712 131.485 197.702 131.317L197.586 131.064C196.861 131.127 196.525 131.159 195.937 131.485L195.927 131.348L195.055 131.432C195.034 131.169 194.96 131.033 194.845 131.043L194.393 131.085C193.868 131.127 193.616 131.107 193.353 131.306C193.343 131.212 193.311 131.169 193.259 131.169L192.754 131.212L192.46 131.38C192.45 131.285 192.418 131.243 192.366 131.243L192.187 131.4L192.177 131.264L191.473 131.212L191.305 131.222L191.326 131.485L191.683 131.579L192.019 131.558C192.135 131.632 192.261 131.653 192.408 131.642L192.702 131.495L192.712 131.611C191.063 132.02 191.074 131.947 189.939 132.136C189.813 132.052 189.719 132.01 189.656 132.02L189.635 132.041C189.509 132.031 189.435 131.947 189.425 131.81L190.013 131.737C190.055 131.737 190.086 131.779 190.412 131.842C190.885 131.611 190.906 131.516 191.158 131.495L191.137 131.232C189.519 131.548 190.171 131.337 188.143 131.516L188.049 131.527L188.028 131.264C190.633 130.949 189.761 131.127 190.654 130.875C190.664 130.97 190.696 131.012 190.748 131.012C190.844 130.914 190.97 130.851 191.105 130.833L191.284 130.823C192.198 130.749 192.502 130.928 194.309 130.424L194.319 130.539L194.614 130.392L194.887 130.371C194.866 130.108 195.265 130.067 195.401 130.056L195.381 129.772C192.208 130.413 191.378 130.235 190.496 130.487L190.486 130.371C189.656 130.518 189.624 130.455 189.414 130.466C189.351 130.476 189.257 130.529 189.152 130.634C189.141 130.539 189.11 130.497 189.047 130.497C189.015 130.497 189.005 130.508 188.994 130.508L186.305 130.949C186.295 130.875 186.263 130.833 186.2 130.844C184.803 131.138 185.181 131.19 183.311 131.358C183.227 131.369 183.112 131.411 182.965 131.505C182.954 131.432 182.912 131.39 182.818 131.4L181.673 131.495L180.906 131.684C180.896 131.611 180.854 131.568 180.759 131.579C180.328 131.695 179.95 131.768 179.646 131.789H179.625C179.436 131.81 179.719 131.737 179.572 131.674L179.341 131.81C179.005 131.842 179.184 131.789 178.028 131.8C176.001 132.052 176.221 132.083 176.001 132.094L175.244 132.041C175.255 132.115 175.213 132.167 175.129 132.167C174.268 132.052 173.827 131.915 173.816 131.758C173.932 130.938 174.131 130.518 174.415 130.497L174.562 130.487L174.436 130.76L174.583 130.749C174.856 130.602 174.982 130.466 174.971 130.34L174.951 130.056L174.677 130.077L174.656 129.814C174.635 129.615 174.667 129.436 174.74 129.289L175.36 128.291L175.381 128.554L175.675 128.533L175.654 128.27L175.486 128.029C175.707 127.84 175.875 127.735 176.011 127.724L176.001 127.588L175.602 127.619L175.57 127.22C176.369 125.56 176.747 124.594 176.726 124.321L177.009 124.437C177.188 124.426 177.272 124.321 177.261 124.132L176.988 124.153L176.978 124.037C176.958 123.846 176.995 123.652 177.083 123.481C177.513 123.029 177.713 122.577 177.671 122.105C177.755 122.094 177.797 122.136 177.807 122.231C178.175 122.021 178.459 121.464 178.669 120.54C179.32 119.363 180.244 117.01 181.452 113.492C183.763 107.273 183.669 106.612 183.994 105.141L183.721 105.162C183.742 105.351 183.7 105.53 183.616 105.698C183.427 105.624 183.28 105.582 183.175 105.593L183.164 105.477C183.122 104.941 183.343 104.301 183.847 103.544L183.973 103.534L184.204 104.437L184.477 104.416C184.467 104.353 184.541 103.996 184.687 103.334C184.677 103.198 184.572 103.114 184.362 103.103L184.099 103.271C184.078 103.082 184.089 102.588 184.12 101.801L183.984 101.811C183.753 101.58 183.637 101.391 183.627 101.233L182.124 101.38C182.114 101.275 182.062 101.118 181.956 100.918C181.946 100.782 182.282 100.645 182.975 100.509L183.28 100.624L183.564 100.456C183.574 100.551 183.627 100.593 183.732 100.582L184.015 100.414C184.026 100.509 184.078 100.551 184.183 100.54L184.32 100.53L184.299 100.225C184.089 100.246 183.532 100.246 182.65 100.215L182.366 100.404L182.356 100.236C175.307 100.813 171.306 101.139 170.35 101.233C170.224 101.244 169.73 101.233 168.858 101.212C168.869 101.328 168.764 101.391 168.554 101.412L168.249 101.275L167.22 101.538C166.978 101.559 166.568 101.548 166.001 101.485C165.844 101.612 165.654 101.685 165.423 101.706C165.297 101.717 166.926 101.622 168.438 101.517C168.281 101.643 168.039 101.717 167.703 101.748C167.472 101.769 167.272 101.738 167.104 101.643C166.873 101.748 166.127 101.916 164.877 102.168L164.573 102.053L159.657 102.809C159.468 102.715 159.247 102.683 158.995 102.704C158.732 102.725 158.291 102.82 157.682 102.988L155.308 103.975L155.487 104.269C155.602 104.258 155.77 104.195 155.97 104.08L156.81 104.153L156.705 104.941C155.928 105.288 155.476 105.803 155.35 106.454C154.184 106.968 153.607 107.336 153.607 107.557L153.617 107.693L153.796 107.683L154.111 107.515L154.478 107.956L154.531 108.565C154.552 108.754 152.588 112.882 148.659 120.949C145.256 128.722 143.47 132.976 143.302 133.743C142.136 134.068 141.464 134.541 141.264 135.172C141.286 135.371 141.632 135.508 142.304 135.56L142.336 135.865L142.031 136.369L142.084 136.978C142.115 137.293 142.966 137.535 144.636 137.703C144.626 137.598 144.678 137.535 144.794 137.524C144.825 137.902 144.72 138.638 144.479 139.73L144.657 139.72C145.351 138.774 145.676 138.123 145.645 137.766L145.792 137.755C145.96 137.745 146.138 137.934 146.348 138.343C146.138 138.428 145.403 140.098 144.142 143.364L144.321 143.658L144.5 143.648C146.044 139.741 147.01 137.577 147.409 137.167C149.437 136.988 152.945 136.632 157.924 136.096L158.239 135.907C158.249 136.012 158.312 136.064 158.428 136.054L158.754 136.022L159.069 135.833C159.079 135.938 159.142 135.991 159.258 135.98L163.029 135.655C164.026 135.57 164.499 135.266 164.457 134.751C164.447 134.615 165.035 134.457 166.222 134.289C166.337 134.278 166.505 134.31 166.736 134.383C166.726 134.289 167.325 134.195 168.522 134.09C168.554 133.459 168.753 133.123 169.11 133.092L169.079 132.787C168.743 132.818 168.364 132.903 167.923 133.05C167.136 133.008 166.631 132.945 166.421 132.871C166.211 132.987 166.054 133.05 165.938 133.06L163.312 133.144L162.997 133.312C162.986 133.218 162.924 133.176 162.808 133.186L162.661 133.197L162.325 133.365C162.314 133.27 162.041 133.197 161.495 133.123L161.159 133.323L160.508 133.375L160.497 133.207C163.879 132.84 165.549 132.377 165.507 131.831C165.728 131.81 165.844 131.915 165.864 132.136L166.852 131.884L166.821 131.579L158.722 131.8C158.732 131.905 158.68 131.968 158.564 131.978L157.577 131.894C157.325 131.915 157.115 131.989 156.947 132.115L156.579 131.978C155.56 132.062 154.804 132.188 154.3 132.346C153.607 132.293 152.84 132.304 151.989 132.377L150.172 132.535L149.332 132.44C149.289 131.905 150.329 129.268 152.472 124.542C153.092 122.945 153.659 121.947 154.205 121.569C154.321 121.558 154.489 121.6 154.72 121.695L156.012 121.254L156.674 121.359C157.787 121.264 159.079 120.949 160.56 120.403C160.928 120.372 161.201 120.393 161.401 120.477L162.388 120.245L165.329 119.993C166.579 119.888 167.934 119.615 169.404 119.163L169.373 118.859C168.827 118.912 168.543 118.817 168.522 118.596C168.491 118.187 168.091 118.018 167.325 118.082L167.293 117.777L168.102 117.546L170.224 117.367L170.192 117.063C170.108 117.073 169.677 117.063 168.879 117.031L168.848 116.706L169.667 116.632C169.887 116.611 169.982 116.506 169.961 116.296C168.858 116.327 168.301 116.275 168.291 116.128C160.602 116.506 156.747 116.58 156.726 116.338C156.611 116.348 156.453 116.422 156.243 116.548L156.044 116.233C158.081 111.905 159.279 109.72 159.625 109.689C159.636 109.857 159.552 110.13 159.373 110.498L159.384 110.634L159.709 110.603C160.518 108.67 161.201 107.672 161.768 107.63C164.184 107.42 161.432 107.263 166.6 106.454C166.81 106.548 166.957 106.59 167.062 106.58C169.089 106.17 171.915 105.74 175.539 105.298L175.517 104.994L173.585 105.172L173.564 104.868C173.795 104.847 173.984 104.773 174.142 104.647L174.152 104.815C174.257 104.805 174.404 104.731 174.593 104.605C174.929 104.574 175.181 104.605 175.36 104.7C176.032 104.521 176.579 104.416 176.978 104.374L178.186 104.258C178.48 104.07 178.616 103.902 178.606 103.744L178.595 103.607C178.291 103.639 177.944 103.618 177.534 103.544C177.524 103.376 177.608 103.261 177.807 103.208L180.055 102.998L181.085 102.735C181.095 102.851 181.148 102.893 181.232 102.893C181.337 102.883 181.484 102.809 181.673 102.683C181.726 102.693 181.788 102.693 181.841 102.704C181.704 102.988 181.547 103.397 181.389 103.933L181.095 103.954C181.074 103.754 181.022 103.576 180.927 103.418L180.78 103.429C178.049 111.033 176.831 114.573 174.31 120.413C173.847 121.905 173.459 122.735 173.123 122.913C173.133 123.082 173.238 123.165 173.417 123.145C173.48 123.88 173.312 124.605 172.902 125.319C171.736 128.68 170.959 130.518 170.56 130.854L170.822 132.44C170.833 132.608 170.749 132.703 170.57 132.724L170.297 132.745C170.255 132.304 170.097 132.094 169.814 132.125L169.667 132.136C169.31 132.692 169.037 133.333 168.858 134.079L169.131 134.058C169.499 133.817 169.667 133.533 169.636 133.207L170.182 133.155L170.497 133.27C170.245 133.669 170.129 133.985 170.15 134.226L170.297 134.478L169.94 135.318L169.951 135.455C170.266 135.423 170.612 135.528 170.98 135.749C171.232 135.728 171.505 135.613 171.81 135.413C172.125 135.382 173.301 135.371 175.329 135.371L176.347 135.024C177.587 135.014 177.786 135.045 178.858 134.951L179.299 134.909L179.53 134.751L179.541 134.888C180.664 134.793 180.738 134.867 181.62 134.972L181.631 135.108L181.011 135.161L181.032 135.423C181.221 135.402 181.389 135.35 181.526 135.234C181.683 135.224 181.778 135.308 181.788 135.497C181.536 135.518 181.253 135.581 180.937 135.686L180.664 135.592C180.234 135.707 180.328 135.738 180.034 135.76L179.604 135.676C179.614 135.749 179.572 135.802 179.499 135.802C179.509 135.97 179.604 136.054 179.761 136.043L180.202 136.001L182.503 135.802L183.374 135.613C183.385 135.686 183.416 135.728 183.49 135.718L183.91 135.56L184.698 135.497C185.307 135.445 185.297 135.402 186.62 135.192C186.61 135.108 186.641 135.077 186.704 135.066L186.715 135.182C188.868 134.814 189.004 134.793 189.351 134.678L189.383 134.741C189.918 134.615 189.614 134.646 189.761 134.541C189.771 134.636 189.803 134.678 189.855 134.678L190.234 134.646L190.212 134.363L189.446 134.352L189.435 134.331C189.404 134.342 189.383 134.342 189.351 134.352H189.246V134.373C188.731 134.478 188.721 134.405 188.385 134.436L186.462 134.541L186.452 134.405L187.524 134.258L187.912 134.226L188.133 134.068L188.143 134.205C189.656 134.079 190.191 134.457 197.187 132.966C197.565 132.934 197.534 132.619 197.775 131.968C197.647 131.976 197.519 131.947 197.408 131.884C196.83 132.104 196.525 131.999 195.412 132.178C195.317 132.188 195.244 132.104 195.212 131.936L195.202 131.821L196.273 131.852C196.473 131.831 196.861 131.8 197.439 131.474C197.439 131.568 197.219 131.621 197.344 131.611H197.345V131.611ZM145.624 132.44L145.13 132.482C145.109 132.283 145.372 131.527 145.918 130.235L146.243 130.203C146.254 130.508 146.054 131.253 145.624 132.44V132.44ZM146.222 130.045L146.212 129.909C146.201 129.741 146.306 129.625 146.537 129.573L146.548 129.709C146.559 129.909 146.453 130.025 146.222 130.045ZM152.787 135.119L152.798 135.255L151.979 135.329L151.968 135.192L152.787 135.119ZM151.8 135.035C151.811 135.203 151.558 135.392 151.012 135.581L150.004 135.508L149.678 135.539L149.647 135.234L151.8 135.035ZM158.438 104.479L157.945 104.521L157.934 104.353C157.924 104.185 158.018 104.07 158.228 104.017L158.407 104.007L158.743 104.143C158.753 104.343 158.659 104.458 158.438 104.479ZM165.949 103.008L166.106 102.998L166.127 103.303L165.676 103.345C165.665 103.177 165.749 103.061 165.949 103.008V103.008ZM164.058 103.67L163.312 103.586L163.302 103.45C164.279 103.366 164.604 103.261 165.203 103.093C165.213 103.208 165.318 103.25 165.507 103.229L165.528 103.534L165.234 103.565C165.003 103.586 164.804 103.555 164.636 103.46C164.457 103.576 164.268 103.649 164.058 103.67V103.67ZM164.993 106.391L164.982 106.254L166.19 106.139L166.201 106.275L164.993 106.391ZM166.285 105.34L166.274 105.172L166.862 105.12L166.873 105.288L166.285 105.34ZM166.421 103.282L166.264 103.292L166.4 102.967L167.745 102.84L167.755 103.008C167.409 103.04 166.957 103.135 166.421 103.282ZM167.104 106.181L167.083 105.876L167.671 105.824C167.871 105.803 167.976 105.897 167.986 106.107L167.104 106.181ZM170.665 101.328L169.909 101.538L169.772 101.548C169.415 101.58 168.953 101.57 168.406 101.517C169.383 101.454 170.318 101.38 170.665 101.328V101.328ZM169.856 104.689L169.867 104.826L168.827 104.92L168.816 104.784L169.856 104.689ZM171.558 105.498C171.547 105.372 171.347 105.288 170.938 105.246L169.898 105.54L169.1 105.572C168.921 105.445 168.827 105.362 168.816 105.298L169.741 105.351L171.82 105.015L172.881 105.057L172.892 105.225C172.366 105.277 171.925 105.372 171.558 105.498V105.498ZM182.261 102.735C182.387 102.746 182.471 102.746 182.503 102.746C182.87 102.389 183.28 102.105 183.753 101.906C183.374 103.565 182.786 104.794 181.977 105.593L181.389 105.235C181.883 103.985 182.177 103.156 182.261 102.735ZM180.454 105.834L180.601 105.824C180.402 106.202 180.223 106.401 180.076 106.412L180.045 106.013C180.139 106.013 180.276 105.95 180.454 105.834V105.834ZM179.289 108.618C179.572 107.483 179.845 106.843 180.097 106.675L180.108 106.811C179.961 107.861 179.73 108.418 179.425 108.46L179.477 109.122C179.226 109.479 179.11 109.752 179.12 109.962L178.973 109.973L178.889 109.059C179.057 109.038 179.194 108.891 179.289 108.618V108.618ZM178.837 110.13C178.847 110.288 178.742 110.655 178.532 111.223L178.385 111.233L178.354 110.834C178.553 110.372 178.721 110.141 178.837 110.13H178.837ZM170.36 134.73L170.35 134.615L170.623 134.594L170.654 134.993C170.507 135.003 170.402 134.919 170.36 134.73V134.73ZM182.471 135.045C182.461 134.951 182.419 134.909 182.324 134.919L181.641 134.982L181.631 134.846H181.694L183.311 134.709L183.322 134.846C182.849 134.867 182.566 134.94 182.471 135.045V135.045ZM181.662 134.709C181.726 134.741 181.694 134.772 181.662 134.793C181.631 134.783 181.589 134.751 181.662 134.709ZM181.746 132.818L180.843 132.892L180.832 132.755L181.652 132.682L182.366 132.503C182.377 132.587 182.419 132.619 182.513 132.608C183.364 132.462 183.28 132.419 183.69 132.388C183.826 132.377 183.91 132.462 183.921 132.63L181.746 132.818V132.818ZM184.908 132.545C184.404 132.493 184.372 132.451 184.015 132.482L184.005 132.367L184.814 132.293L184.824 132.409C184.74 132.419 185.045 132.44 184.908 132.545ZM184.971 132.398L184.961 132.283L185.402 132.241L185.412 132.356L184.971 132.398ZM185.948 132.314L185.937 132.199C186.011 132.188 186.116 132.136 186.252 132.031C186.473 132.01 186.589 132.157 186.61 132.325L185.948 132.314ZM187.198 132.157L187.187 132.02L187.723 131.978L187.734 132.115L187.198 132.157ZM187.944 132.094C187.933 131.936 187.996 131.842 188.133 131.821L188.311 132.052C188.301 131.978 188.332 131.936 188.395 131.926L188.532 132.178L187.944 132.094ZM198.279 130.875L198.29 130.865V130.854C198.29 130.854 198.279 130.865 198.279 130.875ZM198.469 130.739C198.552 130.686 198.595 130.634 198.395 130.602C198.301 130.707 198.5 130.739 198.29 130.749L198.301 130.844C198.321 130.823 198.374 130.791 198.416 130.76L198.301 130.854V130.865L198.08 131.148L198.521 130.991H198.574L198.552 130.728L198.469 130.739V130.739ZM199.235 131.338L199.151 131.348L199.172 131.611L199.792 131.558C199.782 131.39 199.372 131.338 199.235 131.338V131.338Z" fill="#F9DC3E"/>
</svg>
