<svg width="257" height="257" viewBox="0 0 257 257" fill="none" xmlns="http://www.w3.org/2000/svg">
<rect x="0.984985" y="1.2821" width="255" height="255" rx="31.5" fill="white"/>
<rect x="0.984985" y="1.2821" width="255" height="255" rx="31.5" stroke="white"/>
<path d="M71.626 57.0939V134.011L128.878 166.646V144.462L90.5768 122.629V88.3361L128.878 110.169V89.7296L71.626 57.0939Z" fill="#002A41"/>
<path d="M186.129 57.0939V134.011L128.878 166.646V144.462L167.178 122.629V88.3361L128.877 110.169V89.7296L186.129 57.0939H186.129Z" fill="#0071B5"/>
<path d="M71.626 199.316V122.399L128.878 89.7635V111.948L90.5768 133.78V166.329L128.878 144.496V166.68L71.626 199.316Z" fill="#0071B5"/>
<path d="M186.129 199.316V122.399L128.878 89.7635V111.948L167.178 133.78V166.329L128.877 144.496V166.68L186.129 199.316V199.316Z" fill="#002A41"/>
</svg>
