<svg width="257" height="257" viewBox="0 0 257 257" fill="none" xmlns="http://www.w3.org/2000/svg">
<rect x="0.604492" y="0.68811" width="255" height="255" rx="31.5" fill="white"/>
<rect x="0.604492" y="0.68811" width="255" height="255" rx="31.5" stroke="white"/>
<path d="M62.1501 63.6671C61.485 63.6585 60.8261 63.7956 60.2196 64.0688C59.6132 64.342 59.0739 64.7447 58.6397 65.2485C58.2054 65.7523 57.8867 66.3451 57.706 66.9852C57.5252 67.6253 57.4868 68.2972 57.5934 68.9538L76.9373 186.383C77.1782 187.82 77.9178 189.126 79.0262 190.072C80.1345 191.018 81.5407 191.543 82.9978 191.555H175.798C176.89 191.569 177.95 191.19 178.787 190.487C179.623 189.785 180.179 188.805 180.354 187.727L199.698 68.9765C199.804 68.32 199.766 67.6482 199.585 67.0082C199.404 66.3682 199.085 65.7755 198.651 65.2718C198.217 64.7681 197.678 64.3656 197.071 64.0925C196.465 63.8194 195.806 63.6824 195.141 63.691L62.1501 63.6671ZM143.603 148.538H113.984L105.964 106.638H150.78L143.603 148.538Z" fill="#2684FF"/>
<path d="M193.428 106.579H150.698L143.526 148.446H113.93L78.985 189.925C80.0927 190.883 81.5048 191.415 82.9689 191.427H175.717C176.809 191.441 177.869 191.063 178.705 190.361C179.54 189.659 180.096 188.68 180.271 187.603L193.428 106.579Z" fill="url(#paint0_linear_22_684)"/>
<defs>
<linearGradient id="paint0_linear_22_684" x1="203.308" y1="118.304" x2="153.947" y2="188.391" gradientUnits="userSpaceOnUse">
<stop offset="0.18" stop-color="#0052CC"/>
<stop offset="1" stop-color="#2684FF"/>
</linearGradient>
</defs>
</svg>
