<svg width="257" height="257" viewBox="0 0 257 257" fill="none" xmlns="http://www.w3.org/2000/svg">
<rect x="1.32837" y="0.68811" width="255" height="255" rx="31.5" fill="white"/>
<rect x="1.32837" y="0.68811" width="255" height="255" rx="31.5" stroke="white"/>
<path d="M57.8657 180.384C57.8657 190.513 66.0763 198.722 76.2041 198.722H181.749C191.879 198.722 200.088 190.512 200.088 180.384V74.8388C200.088 64.7093 191.877 56.4999 181.75 56.4999H76.2046C66.0752 56.4999 57.8657 64.7104 57.8657 74.8382V180.383V180.384Z" fill="#563D7C"/>
<path d="M116.842 119.41V99.2693H134.571C136.26 99.2693 137.887 99.4099 139.455 99.6915C141.023 99.9726 142.41 100.475 143.616 101.199C144.822 101.923 145.787 102.928 146.511 104.214C147.234 105.5 147.596 107.149 147.596 109.158C147.596 112.777 146.511 115.39 144.34 116.998C142.169 118.606 139.395 119.41 136.018 119.41H116.842V119.41ZM97.9073 84.5554V170.667H139.636C143.496 170.667 147.255 170.184 150.913 169.219C154.571 168.254 157.827 166.767 160.682 164.757C163.536 162.747 165.808 160.154 167.496 156.978C169.185 153.802 170.029 150.043 170.029 145.702C170.029 140.314 168.722 135.712 166.109 131.893C163.496 128.073 159.536 125.4 154.229 123.872C158.089 122.023 161.004 119.651 162.974 116.757C164.943 113.862 165.928 110.244 165.928 105.902C165.928 101.882 165.265 98.5054 163.938 95.7715C162.611 93.0382 160.742 90.8471 158.33 89.1988C155.918 87.5504 153.024 86.3643 149.646 85.641C146.27 84.9171 142.531 84.5554 138.43 84.5554H97.9073V84.5554ZM116.842 155.953V132.314H137.465C141.566 132.314 144.862 133.259 147.355 135.149C149.847 137.038 151.094 140.194 151.094 144.616C151.094 146.868 150.712 148.717 149.948 150.164C149.184 151.611 148.159 152.757 146.872 153.601C145.586 154.445 144.099 155.048 142.41 155.41C140.721 155.772 138.953 155.953 137.104 155.953H116.842V155.953Z" fill="white"/>
</svg>
