<svg width="257" height="257" viewBox="0 0 257 257" fill="none" xmlns="http://www.w3.org/2000/svg">
<rect x="1.15673" y="1.09424" width="255" height="255" rx="31.5" fill="#F4F2ED"/>
<rect x="1.15673" y="1.09424" width="255" height="255" rx="31.5" stroke="#F4F2ED"/>
<path fill-rule="evenodd" clip-rule="evenodd" d="M86.9899 71.3696C78.8749 71.3696 72.8702 78.4724 73.1391 86.1752C73.3972 93.5755 73.0619 103.16 70.6491 110.976C68.2277 118.814 64.1355 123.781 57.4499 124.419V131.616C64.1355 132.255 68.2277 137.22 70.6488 145.059C73.0619 152.875 73.3969 162.459 73.1388 169.86C72.8699 177.561 78.8747 184.665 86.991 184.665H170.143C178.258 184.665 184.262 177.562 183.993 169.86C183.735 162.459 184.07 152.875 186.483 145.059C188.904 137.22 192.986 132.253 199.672 131.616V124.419C192.987 123.78 188.904 118.815 186.483 110.976C184.07 103.161 183.735 93.5755 183.993 86.1752C184.262 78.4735 178.258 71.3696 170.143 71.3696H86.9888H86.9899ZM153.872 141.11C153.872 151.717 145.96 158.149 132.831 158.149H110.482C109.843 158.149 109.229 157.895 108.777 157.443C108.325 156.991 108.071 156.378 108.071 155.739V100.296C108.071 99.657 108.325 99.0438 108.777 98.5918C109.229 98.1397 109.843 97.8857 110.482 97.8857H132.704C143.652 97.8857 150.836 103.816 150.836 112.92C150.836 119.31 146.003 125.031 139.845 126.034V126.367C148.228 127.286 153.872 133.092 153.872 141.11V141.11ZM130.394 105.527H117.651V123.527H128.384C136.681 123.527 141.256 120.186 141.256 114.214C141.255 108.617 137.322 105.527 130.394 105.527ZM117.651 130.669V150.505H130.863C139.502 150.505 144.078 147.039 144.078 140.525C144.078 134.01 139.374 130.668 130.308 130.668H117.651V130.669Z" fill="#7952B3"/>
</svg>
