<svg width="257" height="257" viewBox="0 0 257 257" fill="none" xmlns="http://www.w3.org/2000/svg">
<rect x="1.15673" y="1.39111" width="255" height="255" rx="31.5" fill="white"/>
<rect x="1.15673" y="1.39111" width="255" height="255" rx="31.5" stroke="white"/>
<path d="M63.3758 64.9064H193.746V191.722H63.3758V64.9064Z" fill="url(#paint0_radial_22_680)"/>
<path d="M63.3758 64.9063H193.747V191.721H63.3758V64.9063ZM57.45 197.648H199.672V58.9805H57.45V197.648ZM140.709 117.351C140.709 116.64 140.709 114.921 140.413 111.603C140.413 111.129 140.532 111.01 140.887 110.832C144.502 109.351 153.095 106.744 162.695 106.744C163.169 106.744 163.406 106.862 163.406 107.336V115.869C163.406 116.343 163.228 116.462 162.695 116.462C158.961 116.284 153.45 116.758 151.376 117.647V155.04C151.376 155.514 151.198 155.751 150.665 155.751H141.361C140.887 155.751 140.65 155.573 140.65 155.04V117.351H140.709V117.351V117.351ZM96.8576 155.751C96.1464 155.751 95.9686 155.455 95.9686 154.862V91.1583C95.9686 90.6842 96.1464 90.3877 96.6799 90.3877H106.043C106.517 90.3877 106.635 90.5655 106.635 91.099V145.973H131.05C131.524 145.973 131.702 146.151 131.583 146.684L130.102 155.099C129.983 155.573 129.687 155.81 129.213 155.81H96.8576V155.751V155.751Z" fill="#AAD1EB"/>
<defs>
<radialGradient id="paint0_radial_22_680" cx="0" cy="0" r="1" gradientUnits="userSpaceOnUse" gradientTransform="translate(106.314 93.3258) scale(99.0816 95.9292)">
<stop stop-color="#39464D" stop-opacity="0.98"/>
<stop offset="1" stop-color="#05151F"/>
</radialGradient>
</defs>
</svg>
