<svg width="257" height="257" viewBox="0 0 257 257" fill="none" xmlns="http://www.w3.org/2000/svg">
<rect x="1.08948" y="1.09424" width="255" height="255" rx="31.5" fill="#F4F2ED"/>
<rect x="1.08948" y="1.09424" width="255" height="255" rx="31.5" stroke="#F4F2ED"/>
<path d="M191.092 98.7387C191.091 96.3538 190.581 94.2464 189.549 92.4377C188.536 90.6591 187.019 89.1684 184.983 87.9897C168.182 78.3023 151.365 68.6445 134.57 58.9472C130.042 56.3332 125.652 56.4285 121.158 59.08C114.47 63.0238 80.9897 82.2056 71.0129 87.9843C66.9042 90.3628 64.9049 94.0029 64.9039 98.7343C64.8975 118.216 64.9039 137.698 64.8975 157.18C64.8984 159.513 65.3868 161.579 66.3729 163.361C67.3866 165.193 68.9252 166.725 71.0075 167.93C80.9847 173.709 114.47 192.889 121.156 196.834C125.652 199.487 130.042 199.582 134.571 196.967C151.367 187.269 168.185 177.612 184.989 167.924C187.071 166.72 188.61 165.187 189.623 163.356C190.608 161.574 191.097 159.508 191.098 157.175C191.098 157.175 191.098 118.221 191.092 98.7387" fill="#5C8DBC"/>
<path d="M128.191 127.768L66.3728 163.361C67.3865 165.193 68.9251 166.725 71.0074 167.93C80.9847 173.709 114.47 192.889 121.156 196.834C125.652 199.487 130.042 199.582 134.571 196.967C151.367 187.269 168.185 177.612 184.989 167.925C187.071 166.72 188.61 165.187 189.623 163.356L128.191 127.768" fill="#1A4674"/>
<path d="M109.881 138.311C113.478 144.59 120.241 148.826 127.998 148.826C135.803 148.826 142.604 144.537 146.183 138.19L128.191 127.768L109.881 138.311" fill="#1A4674"/>
<path d="M191.092 98.7389C191.091 96.3539 190.581 94.2465 189.549 92.4377L128.191 127.768L189.623 163.356C190.608 161.575 191.097 159.508 191.098 157.175C191.098 157.175 191.098 118.221 191.092 98.7389" fill="#1B598E"/>
<path d="M187.714 130.311H182.913V135.113H178.112V130.311H173.312V125.511H178.112V120.711H182.913V125.511H187.714V130.311ZM170.197 130.311H165.397V135.113H160.597V130.311H155.796V125.511H160.597V120.711H165.397V125.511H170.197V130.311Z" fill="white"/>
<path d="M146.183 138.19C142.604 144.537 135.803 148.826 127.998 148.826C120.241 148.826 113.478 144.59 109.881 138.311C108.074 135.159 107.125 131.589 107.129 127.957C107.129 116.432 116.473 107.088 127.998 107.088C135.705 107.088 142.432 111.271 146.047 117.487L164.288 106.983C157.037 94.468 143.501 86.0481 127.998 86.0481C104.851 86.0481 86.0884 104.812 86.0884 127.957C86.0884 135.55 88.1084 142.671 91.6389 148.813C98.8708 161.395 112.445 169.866 127.998 169.866C143.579 169.866 157.175 161.361 164.396 148.742L146.183 138.19Z" fill="white"/>
</svg>
