<svg width="257" height="257" viewBox="0 0 257 257" fill="none" xmlns="http://www.w3.org/2000/svg">
<rect x="1.26099" y="1.2821" width="255" height="255" rx="31.5" fill="#F4F2ED"/>
<rect x="1.26099" y="1.2821" width="255" height="255" rx="31.5" stroke="#F4F2ED"/>
<path d="M200.265 161.995V139.476C200.265 144.78 194.457 149.651 184.762 153.503L129.154 139.476V161.995L184.762 176.021C194.457 172.175 200.265 167.304 200.265 161.995Z" fill="#D32F2F"/>
<path d="M184.762 131.002C194.457 127.127 200.265 122.279 200.265 116.97V94.4214C200.265 82.0125 168.413 71.9088 129.153 71.9088C89.8646 71.9088 58.0424 82.0066 58.0424 94.4155V116.97C58.0424 129.396 89.8824 139.482 129.153 139.482V116.981L184.762 131.002ZM129.153 184.501V161.995C89.8646 161.995 58.0424 151.891 58.0424 139.488V161.995C58.0424 174.421 89.8646 184.501 129.153 184.501Z" fill="#D32F2F"/>
</svg>
