<svg width="257" height="257" viewBox="0 0 257 257" fill="none" xmlns="http://www.w3.org/2000/svg">
<rect x="1.08948" y="0.797119" width="255" height="255" rx="31.5" fill="#F4F2ED"/>
<rect x="1.08948" y="0.797119" width="255" height="255" rx="31.5" stroke="#F4F2ED"/>
<path d="M127.917 56.6216C127.917 56.6216 169.686 54.7415 191.823 96.7195H124.365C124.365 96.7195 111.625 96.3005 100.764 111.757C97.6322 118.232 94.2914 124.916 98.05 138.071C92.6203 128.883 69.2288 88.1575 69.2288 88.1575C69.2288 88.1575 85.7297 58.2917 127.917 56.6216Z" fill="#C6352E"/>
<path d="M189.649 163.203C189.649 163.203 170.387 200.312 122.963 198.488C128.814 188.361 156.701 140.072 156.701 140.072C156.701 140.072 163.433 129.249 155.483 112.115C151.442 106.164 147.326 99.9281 134.053 96.6033C144.728 96.4973 191.689 96.6101 191.689 96.6101C191.689 96.6101 209.3 125.834 189.649 163.203Z" fill="#F4D911"/>
<path d="M66.4816 163.485C66.4816 163.485 43.9763 128.244 69.2711 88.0891C75.1162 98.2195 102.988 146.518 102.988 146.518C102.988 146.518 108.993 157.759 127.807 159.443C134.979 158.92 142.439 158.473 151.956 148.642C146.709 157.938 123.128 198.553 123.128 198.553C123.128 198.553 89.0143 199.189 66.4816 163.485Z" fill="#81B354"/>
<path d="M122.963 198.831L132.452 159.235C132.452 159.235 142.886 158.421 151.628 148.826C146.201 158.373 122.963 198.831 122.963 198.831V198.831Z" fill="#7BAA50"/>
<path d="M96.1371 128.163C96.1371 110.708 110.286 96.5579 127.743 96.5579C145.198 96.5579 159.348 110.708 159.348 128.163C159.348 145.619 145.198 159.77 127.743 159.77C110.286 159.77 96.1371 145.62 96.1371 128.163V128.163Z" fill="white"/>
<path d="M101.427 128.163C101.427 113.63 113.208 101.848 127.743 101.848C142.274 101.848 154.057 113.63 154.057 128.163C154.057 142.696 142.274 154.479 127.743 154.479C113.208 154.479 101.427 142.696 101.427 128.163V128.163Z" fill="url(#paint0_linear_22_678)"/>
<path d="M191.69 96.61L152.617 108.066C152.617 108.066 146.725 99.4192 134.052 96.6031C145.033 96.5658 191.69 96.61 191.69 96.61Z" fill="#E7CE12"/>
<path d="M97.2904 136.65C91.7993 127.14 69.2301 88.1565 69.2301 88.1565L98.1743 116.789C98.1743 116.789 95.1999 122.907 96.3277 131.646L97.2904 136.65V136.65Z" fill="#BC332C"/>
<defs>
<linearGradient id="paint0_linear_22_678" x1="127.742" y1="102.221" x2="127.742" y2="152.904" gradientUnits="userSpaceOnUse">
<stop stop-color="#A2C0E6"/>
<stop offset="1" stop-color="#406CB1"/>
</linearGradient>
</defs>
</svg>
