<svg width="256" height="257" viewBox="0 0 256 257" fill="none" xmlns="http://www.w3.org/2000/svg">
<rect x="0.5" y="0.718018" width="255" height="255" rx="31.5" fill="white"/>
<rect x="0.5" y="0.718018" width="255" height="255" rx="31.5" stroke="white"/>
<path d="M128.392 198.752C167.666 198.752 199.504 166.915 199.504 127.641C199.504 88.3674 167.666 56.5298 128.392 56.5298C89.1189 56.5298 57.2814 88.3674 57.2814 127.641C57.2814 166.915 89.1189 198.752 128.392 198.752Z" fill="white" fill-opacity="0.965067" stroke="#FFFFFE" stroke-width="0.377953" stroke-linecap="round"/>
<path d="M175.355 140.349L141.055 174.58C140.918 174.717 140.712 174.786 140.575 174.717L93.7219 162.164C93.5161 162.095 93.3789 161.958 93.3789 161.821L80.7566 115.036C80.688 114.83 80.7566 114.693 80.8938 114.556L115.193 80.325C115.331 80.1878 115.536 80.1192 115.674 80.1878L162.527 92.7414C162.733 92.81 162.87 92.9472 162.87 93.0844L175.423 139.869C175.561 140.075 175.492 140.212 175.355 140.349ZM129.393 103.1L83.3634 115.379C83.2948 115.379 83.2262 115.516 83.2948 115.585L116.977 149.198C117.046 149.267 117.183 149.267 117.183 149.13L129.531 103.168C129.599 103.168 129.462 103.031 129.393 103.1Z" fill="black"/>
</svg>
