<svg width="257" height="257" viewBox="0 0 257 257" fill="none" xmlns="http://www.w3.org/2000/svg">
<rect x="0.813354" y="0.797119" width="255" height="255" rx="31.5" fill="#F4F2ED"/>
<rect x="0.813354" y="0.797119" width="255" height="255" rx="31.5" stroke="#F4F2ED"/>
<path d="M123.267 56.7493H146.508V163.271C134.603 165.523 125.839 166.409 116.357 166.409C87.9715 166.379 73.1953 153.697 73.1953 129.342C73.1953 105.875 88.8688 90.6455 113.157 90.6455C116.926 90.6455 119.797 90.9421 123.267 91.8307V56.7493ZM124.081 111.027C121.359 110.138 119.116 109.842 116.244 109.842C104.489 109.842 97.6997 117.012 97.6997 129.578C97.6997 141.812 104.191 148.568 116.095 148.568C118.667 148.568 120.761 148.423 124.081 147.978V111.027V111.027Z" fill="#2BA977"/>
<path d="M184.513 93.5054V146.839C184.513 165.206 183.138 174.039 179.1 181.654C175.331 188.975 170.366 193.592 160.106 198.691L138.54 188.528C148.8 183.76 153.765 179.547 156.936 173.118C160.255 166.543 161.302 158.928 161.302 138.898V93.5058H184.513V93.5054ZM158.96 56.7493H182.201V80.3642H158.96V56.7493Z" fill="#2BA977"/>
</svg>
