<svg width="256" height="257" viewBox="0 0 256 257" fill="none" xmlns="http://www.w3.org/2000/svg">
<rect x="0.5" y="0.936035" width="255" height="255" rx="31.5" fill="#F4F2ED"/>
<rect x="0.5" y="0.936035" width="255" height="255" rx="31.5" stroke="#F4F2ED"/>
<path d="M162.769 135.544C176.657 135.544 187.916 125.224 187.916 112.493C187.916 99.7625 176.657 89.4423 162.769 89.4423C148.881 89.4423 137.623 99.7625 137.623 112.493C137.623 125.224 148.881 135.544 162.769 135.544Z" fill="#B03931"/>
<path d="M191.424 94.5687C195.886 94.5687 199.504 91.2527 199.504 87.1622C199.504 83.0717 195.886 79.7556 191.424 79.7556C186.961 79.7556 183.344 83.0717 183.344 87.1622C183.344 91.2527 186.961 94.5687 191.424 94.5687Z" fill="#B03931"/>
<path d="M60.4103 82.2847C58.6594 82.5012 57.2872 83.8988 57.2814 85.5902L57.3919 171.957C57.3919 173.265 57.7458 175.962 61.4253 175.962L94.5012 175.83C103.956 175.813 110.288 175.652 114.06 175.175C114.082 175.175 114.127 175.175 114.149 175.175C117.758 174.674 121.581 173.75 125.738 172.4C132.964 170.141 139.372 166.803 144.881 162.344C150.276 158.025 154.456 152.911 157.394 147.158C160.332 141.406 161.813 135.323 161.802 129.018C161.786 120.241 159.131 112.022 153.804 104.628C148.476 97.2334 141.203 91.5707 132.254 87.8205C123.155 83.9631 111.292 82.2056 96.5746 82.2319L60.8578 82.2841C60.7043 82.2849 60.5586 82.2664 60.4103 82.2847ZM79.6341 100.056L95.0308 100.034C102.226 100.021 107.346 100.24 110.249 100.638C113.193 101.043 116.417 101.896 119.831 103.215C123.215 104.504 126.164 106.083 128.699 108.049C135.672 113.471 138.96 119.887 138.975 128.383C138.99 137.081 135.813 143.857 129.021 149.54C126.931 151.264 124.608 152.727 122.044 153.937C119.621 155.066 116.461 156.038 112.47 156.876C108.706 157.629 102.992 158.057 95.5527 158.071L79.7084 158.094L79.6341 100.056Z" fill="#B03931"/>
</svg>
