<svg width="257" height="257" viewBox="0 0 257 257" fill="none" xmlns="http://www.w3.org/2000/svg">
<rect x="1.05225" y="0.985107" width="255" height="255" rx="31.5" fill="#F4F2ED"/>
<rect x="1.05225" y="0.985107" width="255" height="255" rx="31.5" stroke="#F4F2ED"/>
<path d="M198.016 115.406C197.631 115.099 194.03 112.38 186.436 112.38C184.431 112.389 182.43 112.561 180.453 112.895C178.983 102.821 170.654 97.9094 170.281 97.6891L168.242 96.5132L166.901 98.4484C165.221 101.048 163.995 103.914 163.275 106.924C161.916 112.674 162.743 118.076 165.664 122.693C162.136 124.659 156.478 125.143 155.333 125.185H61.6488C59.2018 125.189 57.2161 127.166 57.2028 129.613C57.0935 137.82 58.484 145.979 61.3058 153.686C64.5331 162.15 69.3343 168.384 75.5808 172.199C82.5804 176.486 93.9526 178.935 106.843 178.935C112.667 178.954 118.479 178.426 124.205 177.361C132.164 175.9 139.822 173.118 146.863 169.131C152.665 165.771 157.887 161.497 162.326 156.473C169.749 148.071 174.17 138.713 177.459 130.397H178.769C186.895 130.397 191.893 127.145 194.648 124.42C196.48 122.682 197.91 120.565 198.837 118.217L199.419 116.514L198.016 115.406Z" fill="#2496ED"/>
<path d="M70.3325 122.442H82.8865C83.492 122.442 83.9827 121.951 83.9827 121.346V110.164C83.986 109.558 83.498 109.065 82.8927 109.061C82.8907 109.061 82.8885 109.061 82.8865 109.061H70.3325C69.727 109.061 69.2364 109.552 69.2364 110.157V110.164V121.346C69.2364 121.951 69.727 122.442 70.3325 122.442V122.442Z" fill="#2496ED"/>
<path d="M87.6327 122.442H100.187C100.792 122.442 101.283 121.951 101.283 121.346V110.164C101.286 109.558 100.798 109.065 100.193 109.061C100.191 109.061 100.189 109.061 100.187 109.061H87.6325C87.0236 109.061 86.5302 109.555 86.5302 110.164V121.346C86.5338 121.952 87.0262 122.442 87.6327 122.442" fill="#2496ED"/>
<path d="M105.196 122.442H117.75C118.356 122.442 118.846 121.951 118.846 121.346V110.164C118.85 109.558 118.361 109.065 117.756 109.061C117.754 109.061 117.752 109.061 117.75 109.061H105.196C104.59 109.061 104.1 109.552 104.1 110.157V110.164V121.346C104.1 121.951 104.591 122.442 105.196 122.442V122.442Z" fill="#2496ED"/>
<path d="M122.551 122.442H135.105C135.712 122.442 136.204 121.952 136.208 121.346V110.164C136.208 109.555 135.714 109.061 135.105 109.061H122.551C121.946 109.061 121.455 109.552 121.455 110.157V110.164V121.346C121.455 121.951 121.946 122.442 122.551 122.442V122.442Z" fill="#2496ED"/>
<path d="M87.6327 106.355H100.187C100.793 106.351 101.283 105.859 101.283 105.252V94.0701C101.283 93.4646 100.792 92.974 100.187 92.974H87.6327C87.0264 92.974 86.5338 93.4636 86.5304 94.0701V105.252C86.5338 105.86 87.0252 106.351 87.6327 106.355Z" fill="#2496ED"/>
<path d="M105.196 106.355H117.75C118.356 106.351 118.846 105.859 118.846 105.252V94.0701C118.846 93.4646 118.355 92.974 117.75 92.974H105.196C104.59 92.974 104.1 93.4648 104.1 94.0701V105.252C104.1 105.859 104.59 106.351 105.196 106.355Z" fill="#2496ED"/>
<path d="M122.551 106.355H135.105C135.713 106.351 136.204 105.86 136.208 105.252V94.0701C136.204 93.4636 135.712 92.974 135.105 92.974H122.551C121.946 92.974 121.455 93.4648 121.455 94.0701V105.252C121.455 105.859 121.945 106.351 122.551 106.355Z" fill="#2496ED"/>
<path d="M122.551 90.2611H135.105C135.712 90.2611 136.204 89.7713 136.208 89.165V77.9764C136.204 77.3699 135.712 76.8802 135.105 76.8802H122.551C121.946 76.8802 121.455 77.3709 121.455 77.9764V89.1648C121.455 89.7703 121.946 90.2611 122.551 90.2611Z" fill="#2496ED"/>
<path d="M140.06 122.442H152.614C153.22 122.442 153.713 121.952 153.716 121.346V110.164C153.716 109.555 153.222 109.061 152.614 109.061H140.06C139.454 109.061 138.963 109.552 138.963 110.157V110.164V121.346C138.963 121.951 139.454 122.442 140.06 122.442" fill="#2496ED"/>
</svg>
