<svg width="256" height="257" viewBox="0 0 256 257" fill="none" xmlns="http://www.w3.org/2000/svg">
<rect x="0.5" y="0.718018" width="255" height="255" rx="31.5" fill="#F4F2ED"/>
<rect x="0.5" y="0.718018" width="255" height="255" rx="31.5" stroke="#F4F2ED"/>
<g clip-path="url(#clip0_307_371)">
<path d="M128.392 198.752C167.666 198.752 199.503 166.915 199.503 127.641C199.503 88.3674 167.666 56.5298 128.392 56.5298C89.1188 56.5298 57.2812 88.3674 57.2812 127.641C57.2812 166.915 89.1188 198.752 128.392 198.752Z" fill="#7D2AE7"/>
<path d="M128.392 198.752C167.666 198.752 199.503 166.915 199.503 127.641C199.503 88.3674 167.666 56.5298 128.392 56.5298C89.1188 56.5298 57.2812 88.3674 57.2812 127.641C57.2812 166.915 89.1188 198.752 128.392 198.752Z" fill="url(#paint0_radial_307_371)"/>
<path d="M128.392 198.752C167.666 198.752 199.503 166.915 199.503 127.641C199.503 88.3674 167.666 56.5298 128.392 56.5298C89.1188 56.5298 57.2812 88.3674 57.2812 127.641C57.2812 166.915 89.1188 198.752 128.392 198.752Z" fill="url(#paint1_radial_307_371)"/>
<path d="M128.392 198.752C167.666 198.752 199.503 166.915 199.503 127.641C199.503 88.3674 167.666 56.5298 128.392 56.5298C89.1188 56.5298 57.2812 88.3674 57.2812 127.641C57.2812 166.915 89.1188 198.752 128.392 198.752Z" fill="url(#paint2_radial_307_371)"/>
<path d="M128.392 198.752C167.666 198.752 199.503 166.915 199.503 127.641C199.503 88.3674 167.666 56.5298 128.392 56.5298C89.1188 56.5298 57.2812 88.3674 57.2812 127.641C57.2812 166.915 89.1188 198.752 128.392 198.752Z" fill="url(#paint3_radial_307_371)"/>
<path d="M159.093 142.228C158.506 142.228 157.989 142.724 157.452 143.806C151.383 156.113 140.9 164.821 128.77 164.821C114.744 164.821 106.058 152.159 106.058 134.667C106.058 105.038 122.567 87.9065 137.067 87.9065C143.843 87.9065 147.981 92.1646 147.981 98.9407C147.981 106.983 143.412 111.241 143.412 114.077C143.412 115.351 144.204 116.121 145.774 116.121C152.083 116.121 159.489 108.871 159.489 98.6295C159.489 88.6987 150.845 81.3992 136.345 81.3992C112.381 81.3992 91.084 103.616 91.084 134.356C91.084 158.151 104.672 173.874 125.637 173.874C147.889 173.874 160.755 151.735 160.755 144.549C160.755 142.958 159.942 142.228 159.093 142.228Z" fill="white"/>
</g>
<defs>
<radialGradient id="paint0_radial_307_371" cx="0" cy="0" r="1" gradientUnits="userSpaceOnUse" gradientTransform="translate(84.7532 182.585) rotate(-49.416) scale(109.997)">
<stop stop-color="#6420FF"/>
<stop offset="1" stop-color="#6420FF" stop-opacity="0"/>
</radialGradient>
<radialGradient id="paint1_radial_307_371" cx="0" cy="0" r="1" gradientUnits="userSpaceOnUse" gradientTransform="translate(94.9325 72.698) rotate(54.703) scale(124.042)">
<stop stop-color="#00C4CC"/>
<stop offset="1" stop-color="#00C4CC" stop-opacity="0"/>
</radialGradient>
<radialGradient id="paint2_radial_307_371" cx="0" cy="0" r="1" gradientUnits="userSpaceOnUse" gradientTransform="translate(84.7526 182.584) rotate(-45.1954) scale(108.665 49.9766)">
<stop stop-color="#6420FF"/>
<stop offset="1" stop-color="#6420FF" stop-opacity="0"/>
</radialGradient>
<radialGradient id="paint3_radial_307_371" cx="0" cy="0" r="1" gradientUnits="userSpaceOnUse" gradientTransform="translate(115.443 75.6924) rotate(66.5198) scale(111.971 187.576)">
<stop stop-color="#00C4CC" stop-opacity="0.725916"/>
<stop offset="0.0001" stop-color="#00C4CC"/>
<stop offset="1" stop-color="#00C4CC" stop-opacity="0"/>
</radialGradient>
<clipPath id="clip0_307_371">
<rect width="142.222" height="142.222" fill="white" transform="translate(57.2812 56.5298)"/>
</clipPath>
</defs>
</svg>
