<svg width="257" height="256" viewBox="0 0 257 256" fill="none" xmlns="http://www.w3.org/2000/svg">
<rect x="1.08948" y="0.5" width="255" height="255" rx="31.5" fill="#F4F2ED"/>
<rect x="1.08948" y="0.5" width="255" height="255" rx="31.5" stroke="#F4F2ED"/>
<path d="M185.351 162.155C183.455 163.147 181.5 164.021 179.496 164.772C173.119 167.158 166.363 168.373 159.554 168.36C133.268 168.36 110.371 150.279 110.371 127.076C110.404 123.964 111.268 120.917 112.872 118.25C114.477 115.584 116.764 113.393 119.497 111.906C95.7225 112.905 89.6121 137.68 89.6121 152.195C89.6121 193.235 127.435 197.396 135.585 197.396C139.978 197.396 146.605 196.118 150.583 194.863L151.31 194.618C166.616 189.327 179.663 178.983 188.306 165.288C188.571 164.871 188.689 164.378 188.642 163.886C188.595 163.394 188.385 162.932 188.047 162.573C187.708 162.214 187.259 161.977 186.77 161.902C186.282 161.826 185.783 161.915 185.351 162.155V162.155Z" fill="url(#paint0_linear_22_679)"/>
<path opacity="0.35" d="M185.351 162.155C183.455 163.147 181.5 164.021 179.496 164.772C173.119 167.158 166.363 168.373 159.554 168.36C133.268 168.36 110.371 150.279 110.371 127.076C110.404 123.964 111.268 120.917 112.872 118.25C114.477 115.584 116.764 113.393 119.497 111.906C95.7225 112.905 89.6121 137.68 89.6121 152.195C89.6121 193.235 127.435 197.396 135.585 197.396C139.978 197.396 146.605 196.118 150.583 194.863L151.31 194.618C166.616 189.327 179.663 178.983 188.306 165.288C188.571 164.871 188.689 164.378 188.642 163.886C188.595 163.394 188.385 162.932 188.047 162.573C187.708 162.214 187.259 161.977 186.77 161.902C186.282 161.826 185.783 161.915 185.351 162.155V162.155Z" fill="url(#paint1_radial_22_679)"/>
<path d="M115.726 190.419C110.771 187.344 106.477 183.314 103.094 178.565C99.2375 173.281 96.5839 167.218 95.3189 160.801C94.054 154.383 94.2085 147.766 95.7715 141.415C97.3345 135.063 100.268 129.131 104.367 124.033C108.465 118.935 113.63 114.796 119.498 111.906C121.231 111.089 124.191 109.611 128.13 109.684C130.905 109.704 133.637 110.366 136.113 111.619C138.589 112.872 140.741 114.681 142.4 116.905C144.644 119.9 145.88 123.529 145.933 127.27C145.933 127.154 159.521 83.0532 101.494 83.0532C77.1079 83.0532 57.0547 106.195 57.0547 126.498C56.9585 137.238 59.2565 147.865 63.7817 157.606C71.1771 173.385 84.1096 185.899 100.124 192.771C116.137 199.644 134.118 200.396 150.649 194.885C144.861 196.71 138.746 197.258 132.725 196.491C126.704 195.724 120.922 193.66 115.776 190.441L115.726 190.419Z" fill="url(#paint2_linear_22_679)"/>
<path opacity="0.41" d="M115.726 190.419C110.771 187.344 106.477 183.314 103.094 178.565C99.2375 173.281 96.5839 167.218 95.3189 160.801C94.054 154.383 94.2085 147.766 95.7715 141.415C97.3345 135.063 100.268 129.131 104.367 124.033C108.465 118.935 113.63 114.796 119.498 111.906C121.231 111.089 124.191 109.611 128.13 109.684C130.905 109.704 133.637 110.366 136.113 111.619C138.589 112.872 140.741 114.681 142.4 116.905C144.644 119.9 145.88 123.529 145.933 127.27C145.933 127.154 159.521 83.0532 101.494 83.0532C77.1079 83.0532 57.0547 106.195 57.0547 126.498C56.9585 137.238 59.2565 147.865 63.7817 157.606C71.1771 173.385 84.1096 185.899 100.124 192.771C116.137 199.644 134.118 200.396 150.649 194.885C144.861 196.71 138.746 197.258 132.725 196.491C126.704 195.724 120.922 193.66 115.776 190.441L115.726 190.419Z" fill="url(#paint3_radial_22_679)"/>
<path d="M141.612 139.002C141.162 139.585 139.779 140.391 139.779 142.146C139.779 143.596 140.723 144.99 142.401 146.163C150.388 151.717 165.448 150.984 165.487 150.984C171.406 150.97 177.212 149.368 182.301 146.346C187.435 143.348 191.696 139.06 194.661 133.908C197.627 128.755 199.193 122.916 199.205 116.971C199.35 104.523 194.761 96.2461 192.906 92.5798C181.135 69.5547 155.727 56.3118 128.097 56.3118C109.411 56.3099 91.4755 63.6637 78.1695 76.7826C64.8634 89.9015 57.2564 107.731 56.9937 126.415C57.2603 106.117 77.4358 89.7246 101.433 89.7246C103.377 89.7246 114.465 89.9134 124.764 95.3184C133.84 100.084 138.595 105.839 141.901 111.544C145.334 117.471 145.945 124.959 145.945 127.942C145.945 130.925 144.423 135.347 141.612 139.002V139.002Z" fill="url(#paint4_radial_22_679)"/>
<path d="M141.612 139.002C141.162 139.585 139.779 140.391 139.779 142.146C139.779 143.596 140.723 144.99 142.401 146.163C150.388 151.717 165.448 150.984 165.487 150.984C171.406 150.97 177.212 149.368 182.301 146.346C187.435 143.348 191.696 139.06 194.661 133.908C197.627 128.755 199.193 122.916 199.205 116.971C199.35 104.523 194.761 96.2461 192.906 92.5798C181.135 69.5547 155.727 56.3118 128.097 56.3118C109.411 56.3099 91.4755 63.6637 78.1695 76.7826C64.8634 89.9015 57.2564 107.731 56.9937 126.415C57.2603 106.117 77.4358 89.7246 101.433 89.7246C103.377 89.7246 114.465 89.9134 124.764 95.3184C133.84 100.084 138.595 105.839 141.901 111.544C145.334 117.471 145.945 124.959 145.945 127.942C145.945 130.925 144.423 135.347 141.612 139.002V139.002Z" fill="url(#paint5_radial_22_679)"/>
<defs>
<linearGradient id="paint0_linear_22_679" x1="89.6121" y1="154.662" x2="188.678" y2="154.662" gradientUnits="userSpaceOnUse">
<stop stop-color="#0C59A4"/>
<stop offset="1" stop-color="#114A8B"/>
</linearGradient>
<radialGradient id="paint1_radial_22_679" cx="0" cy="0" r="1" gradientUnits="userSpaceOnUse" gradientTransform="translate(144.328 155.442) scale(52.9827 50.3336)">
<stop offset="0.72" stop-opacity="0"/>
<stop offset="0.95" stop-opacity="0.53"/>
<stop offset="1"/>
</radialGradient>
<linearGradient id="paint2_linear_22_679" x1="141.839" y1="111.689" x2="79.963" y2="179.087" gradientUnits="userSpaceOnUse">
<stop stop-color="#1B9DE2"/>
<stop offset="0.16" stop-color="#1595DF"/>
<stop offset="0.67" stop-color="#0680D7"/>
<stop offset="1" stop-color="#0078D4"/>
</linearGradient>
<radialGradient id="paint3_radial_22_679" cx="0" cy="0" r="1" gradientUnits="userSpaceOnUse" gradientTransform="translate(96.2082 166.859) rotate(-81.3844) scale(79.6722 64.367)">
<stop offset="0.76" stop-opacity="0"/>
<stop offset="0.95" stop-opacity="0.5"/>
<stop offset="1"/>
</radialGradient>
<radialGradient id="paint4_radial_22_679" cx="0" cy="0" r="1" gradientUnits="userSpaceOnUse" gradientTransform="translate(71.3601 82.6292) rotate(92.2906) scale(112.538 239.683)">
<stop stop-color="#35C1F1"/>
<stop offset="0.11" stop-color="#34C1ED"/>
<stop offset="0.23" stop-color="#2FC2DF"/>
<stop offset="0.31" stop-color="#2BC3D2"/>
<stop offset="0.67" stop-color="#36C752"/>
</radialGradient>
<radialGradient id="paint5_radial_22_679" cx="0" cy="0" r="1" gradientUnits="userSpaceOnUse" gradientTransform="translate(190.352 99.3102) rotate(73.7398) scale(54.0715 43.971)">
<stop stop-color="#66EB6E"/>
<stop offset="1" stop-color="#66EB6E" stop-opacity="0"/>
</radialGradient>
</defs>
</svg>
