<svg width="257" height="257" viewBox="0 0 257 257" fill="none" xmlns="http://www.w3.org/2000/svg">
<rect x="0.776123" y="0.936035" width="255" height="255" rx="31.5" fill="white"/>
<rect x="0.776123" y="0.936035" width="255" height="255" rx="31.5" stroke="white"/>
<path fill-rule="evenodd" clip-rule="evenodd" d="M132.664 57.0848C122.217 60.7916 112.445 71.5751 102.672 89.0983C88.1822 115.72 69.6481 153.462 95.2588 183.454C107.053 197.27 126.935 205.358 152.546 192.552C173.102 182.106 179.168 152.114 171.417 138.298C155.916 109.317 140.415 102.241 136.371 84.3805C133.675 72.2491 132.327 63.1505 132.664 57.0848Z" fill="url(#paint0_linear_307_449)"/>
<path fill-rule="evenodd" clip-rule="evenodd" d="M132.664 56.7478C122.217 60.4547 112.108 71.2381 102.672 88.7613C88.1822 115.383 69.6481 153.125 95.2588 183.117C107.053 196.933 126.598 201.314 137.382 193.226C144.458 187.835 149.176 182.78 151.872 171.996C154.905 159.865 152.546 144.027 150.861 136.276C148.839 126.84 148.165 116.731 148.839 105.274C148.839 105.274 148.502 105.274 148.502 104.937C142.773 98.1969 138.73 92.1311 136.708 83.7065C133.675 71.9121 132.327 62.8135 132.664 56.7478Z" fill="url(#paint1_linear_307_449)"/>
<path fill-rule="evenodd" clip-rule="evenodd" d="M123.902 61.4656C114.13 69.2163 107.053 82.0217 102.335 99.8818C95.2588 126.841 94.5848 151.777 96.9437 166.605C101.661 194.911 126.935 205.358 152.546 192.215C168.384 184.128 175.124 166.942 174.787 148.071C174.45 128.525 136.708 106.621 130.305 90.4463C125.924 79.3258 123.902 69.8902 123.902 61.4656Z" fill="url(#paint2_linear_307_449)"/>
<path fill-rule="evenodd" clip-rule="evenodd" d="M148.502 112.013C160.297 126.84 162.656 137.287 156.253 143.016C146.48 151.777 122.218 157.506 107.39 147.06C97.2808 139.983 93.574 124.819 95.9329 101.567C91.8891 110.328 88.1823 118.753 85.4864 127.851C82.7905 136.613 81.7796 146.049 83.1275 155.484C86.8344 162.561 95.2589 167.616 109.075 169.974C129.631 173.681 149.176 171.659 162.319 165.257C171.08 160.876 175.124 156.495 174.787 152.114C175.124 145.712 173.102 139.646 168.721 133.58C164.678 127.514 157.938 120.438 148.502 112.013Z" fill="url(#paint3_linear_307_449)"/>
<path fill-rule="evenodd" clip-rule="evenodd" d="M103.009 97.1859C103.009 107.969 105.705 118.079 111.434 127.851C119.859 142.342 129.631 156.832 144.458 168.626C154.231 176.714 162.319 179.073 168.047 176.377C163.33 185.139 157.938 189.183 152.546 189.183C144.458 188.846 134.349 185.476 118.511 166.268C107.727 153.462 100.651 141.331 96.6068 129.873C97.2808 125.493 97.9547 120.775 98.6287 116.394C99.6397 112.013 100.988 105.611 103.009 97.1859Z" fill="url(#paint4_linear_307_449)"/>
<path fill-rule="evenodd" clip-rule="evenodd" d="M128.283 112.013C129.294 120.775 132.664 134.928 128.283 144.027C123.903 153.462 104.021 170.311 109.412 185.139C114.804 199.966 128.283 196.596 136.708 189.856C145.133 183.117 149.513 171.996 150.524 163.909C151.535 156.158 148.165 140.994 147.154 127.851C146.48 119.09 146.817 111.676 148.502 105.274L145.806 101.904L130.642 97.5229C128.62 101.23 127.609 105.947 128.283 112.013Z" fill="url(#paint5_linear_307_449)"/>
<path fill-rule="evenodd" clip-rule="evenodd" d="M133.675 68.5423C128.62 70.5642 124.239 74.608 119.859 81.0107C113.119 90.1093 109.749 95.838 112.445 114.035C114.13 126.167 115.141 137.287 116.152 147.734L137.382 86.0655C136.708 83.0326 136.034 79.9997 135.36 77.6409C134.349 74.608 134.012 71.9121 133.675 68.5423Z" fill="url(#paint6_linear_307_449)"/>
<path fill-rule="evenodd" clip-rule="evenodd" d="M137.045 85.7285C131.653 88.7613 127.609 95.501 124.576 104.937C121.544 114.709 118.848 128.188 116.489 145.712C119.859 134.591 121.881 126.504 122.891 121.449C124.576 114.035 124.913 103.252 129.294 96.175C131.99 91.4572 134.686 88.0873 137.045 85.7285Z" fill="#330A4C" fill-opacity="0.3163"/>
<path fill-rule="evenodd" clip-rule="evenodd" d="M111.771 190.193C120.533 191.541 125.25 192.552 125.587 193.563C126.261 194.911 124.576 196.259 119.522 195.585C116.489 194.911 113.793 193.226 111.771 190.193Z" fill="white"/>
<path fill-rule="evenodd" clip-rule="evenodd" d="M116.489 68.5423C111.771 74.271 107.39 80.6737 103.684 87.0764C99.9767 93.4791 97.6178 98.5339 95.9329 101.567C95.5959 103.926 95.2589 107.632 95.2589 112.35C95.2589 117.068 95.5959 122.123 96.6068 127.851C97.2808 116.731 99.3027 105.611 103.01 95.164C106.379 84.7175 111.097 75.619 116.489 68.5423Z" fill="#EDEDED" fill-opacity="0.6033"/>
<defs>
<linearGradient id="paint0_linear_307_449" x1="129.895" y1="67.4912" x2="124.947" y2="199.119" gradientUnits="userSpaceOnUse">
<stop stop-color="#D9D8DC"/>
<stop offset="1" stop-color="white" stop-opacity="0.3853"/>
</linearGradient>
<linearGradient id="paint1_linear_307_449" x1="128.095" y1="65.3014" x2="76.4031" y2="178.593" gradientUnits="userSpaceOnUse">
<stop stop-color="#8D67AF" stop-opacity="0.6719"/>
<stop offset="1" stop-color="#9F8DAF"/>
</linearGradient>
<linearGradient id="paint2_linear_307_449" x1="135.364" y1="104.201" x2="135.364" y2="195.331" gradientUnits="userSpaceOnUse">
<stop stop-color="#26053D" stop-opacity="0.7616"/>
<stop offset="1" stop-color="#B7B4B4" stop-opacity="0.2777"/>
</linearGradient>
<linearGradient id="paint3_linear_307_449" x1="101.351" y1="106.811" x2="124.55" y2="168.263" gradientUnits="userSpaceOnUse">
<stop stop-color="#91739F" stop-opacity="0.4595"/>
<stop offset="1" stop-color="#32054F" stop-opacity="0.5399"/>
</linearGradient>
<linearGradient id="paint4_linear_307_449" x1="153.787" y1="186.037" x2="89.999" y2="133.204" gradientUnits="userSpaceOnUse">
<stop stop-color="#463D49" stop-opacity="0.3312"/>
<stop offset="1" stop-color="#340A50" stop-opacity="0.8214"/>
</linearGradient>
<linearGradient id="paint5_linear_307_449" x1="138.002" y1="103.18" x2="93.0148" y2="171.631" gradientUnits="userSpaceOnUse">
<stop stop-color="#715383" stop-opacity="0.1452"/>
<stop offset="1" stop-color="#F4F4F4" stop-opacity="0.2336"/>
</linearGradient>
<linearGradient id="paint6_linear_307_449" x1="145.471" y1="120.102" x2="113.613" y2="118.157" gradientUnits="userSpaceOnUse">
<stop stop-color="#A5A1A8" stop-opacity="0.3561"/>
<stop offset="1" stop-color="#370C50" stop-opacity="0.582"/>
</linearGradient>
</defs>
</svg>
