<svg width="257" height="257" viewBox="0 0 257 257" fill="none" xmlns="http://www.w3.org/2000/svg">
<rect x="1.32837" y="1.28223" width="255" height="255" rx="31.5" fill="#F4F2ED"/>
<rect x="1.32837" y="1.28223" width="255" height="255" rx="31.5" stroke="#F4F2ED"/>
<g clip-path="url(#clip0_33_2415)">
<path d="M129.465 57.4038C168.738 57.4038 200.576 89.2416 200.576 128.515C200.576 167.788 168.738 199.626 129.465 199.626C90.1917 199.626 58.3539 167.788 58.3539 128.515C58.3539 89.2416 90.1917 57.4038 129.465 57.4038Z" fill="#E05C43"/>
<path fill-rule="evenodd" clip-rule="evenodd" d="M130.871 84.2127C140.033 84.0316 146.507 86.5161 152.078 94.4239C164.227 124.545 120.804 140.091 119.063 140.702L119.008 140.719C119.008 140.719 117.697 148.901 130.151 148.586C145.476 148.586 161.588 136.707 167.717 131.686C168.43 131.101 169.337 130.806 170.257 130.86C171.178 130.915 172.044 131.315 172.682 131.981L177.271 136.747C177.915 137.412 178.284 138.297 178.301 139.224C178.319 140.15 177.984 141.048 177.365 141.737C173.376 146.178 164.016 155.296 149.925 161.186C149.925 161.186 126.414 172.073 110.569 161.764C101.122 155.619 98.5228 148.263 97.4661 140.611C97.4716 140.611 85.995 140.028 78.625 137.151C71.2528 134.271 78.6794 125.583 78.6794 125.583C78.6794 125.583 80.9461 121.991 85.2572 125.583C89.5716 129.169 97.6239 127.552 97.6239 127.552C98.3416 121.886 99.535 114.409 103.051 106.518C110.419 89.9794 121.705 84.3905 130.871 84.2127ZM136.263 100.785C131.408 96.1072 117.392 105.454 116.851 126.841C116.851 126.841 120.988 128.101 130.151 121.807C139.317 115.517 141.117 105.454 136.263 100.785Z" fill="white"/>
</g>
<defs>
<clipPath id="clip0_33_2415">
<rect width="142.222" height="142.222" fill="white" transform="translate(58.3539 57.4038)"/>
</clipPath>
</defs>
</svg>
