<svg width="257" height="257" viewBox="0 0 257 257" fill="none" xmlns="http://www.w3.org/2000/svg">
<rect x="0.604492" y="0.985107" width="255" height="255" rx="31.5" fill="#F4F2ED"/>
<rect x="0.604492" y="0.985107" width="255" height="255" rx="31.5" stroke="#F4F2ED"/>
<path d="M164.119 86.6305C155.321 89.5672 151.084 94.8349 148.198 103.039C147.453 105.23 145.591 107.654 143.496 109.285L150.712 117.023L127.807 100.988L64.5887 56.7969C64.5887 56.7969 69.1509 86.4438 70.7338 97.3518C71.851 105.043 73.7597 108.493 79.8116 111.989L82.2323 113.294L92.6602 118.795L86.4686 115.578L115.052 131.194L114.866 131.614L84.0944 117.35C85.7238 122.944 88.8894 133.712 90.2394 138.466C91.6825 143.594 93.3119 145.459 98.2931 147.276L107.464 150.633L113.143 148.395L105.928 153.196L69.8492 199.019C93.824 176.737 114.121 168.812 128.971 162.333C147.919 154.129 159.324 148.861 166.772 129.936C172.079 116.65 176.223 99.636 181.483 93.0631L192.703 78.7059C192.703 78.7059 169.473 84.8592 164.119 86.6305Z" fill="#3F00A5"/>
</svg>
