<svg width="257" height="257" viewBox="0 0 257 257" fill="none" xmlns="http://www.w3.org/2000/svg">
<rect x="0.537231" y="1.39111" width="255" height="255" rx="31.5" fill="white"/>
<rect x="0.537231" y="1.39111" width="255" height="255" rx="31.5" stroke="white"/>
<path d="M144.266 108.573L130.042 121.816L116.839 95.1742L123.66 79.8554C125.384 76.7997 128.203 76.7593 129.927 79.8554L144.266 108.573Z" fill="#FFA000"/>
<path d="M130.048 121.811L76.8444 171.296L116.845 95.1743L130.048 121.811Z" fill="#F57F17"/>
<path d="M159.861 88.3191C162.409 85.8918 165.033 86.7105 165.696 90.1583L179.527 170.627L133.651 198.168C132.043 199.068 127.776 199.419 127.776 199.419C127.776 199.419 123.896 198.947 122.409 198.128L76.8444 171.296L159.861 88.3191Z" fill="#FFCA28"/>
<path d="M116.845 95.1742L76.8444 171.295L94.6711 60.0337C95.3399 56.586 97.2944 56.2343 99.0587 59.29L116.845 95.1742Z" fill="#FFA000"/>
</svg>
