<svg width="257" height="257" viewBox="0 0 257 257" fill="none" xmlns="http://www.w3.org/2000/svg">
<rect x="0.641602" y="1.2821" width="255" height="255" rx="31.5" fill="#F4F2ED"/>
<rect x="0.641602" y="1.2821" width="255" height="255" rx="31.5" stroke="#F4F2ED"/>
<path d="M99.9231 177.743C94.5053 173.481 88.7259 169.395 84.7767 163.642C76.4662 153.496 70.0678 141.75 65.6931 129.406C63.0497 121.379 62.1442 112.773 58.7359 105.057C55.1707 99.4521 59.3468 93.3253 65.4863 91.5441C68.219 91.0196 73.0252 88.4416 67.2242 90.2838C62.0237 94.1005 61.52 86.8205 66.8522 86.3592C70.4926 85.8756 71.8326 82.8959 70.5871 80.2137C66.6811 77.6655 80.062 74.8659 73.3288 71.064C66.3151 63.4975 83.1399 62.0408 78.9884 70.634C77.9951 77.2422 90.7451 69.4227 87.7869 77.0547C90.7927 80.7189 99.0459 77.888 98.8413 83.029C103.221 83.3304 104.725 87.0161 108.836 87.2989C113.098 89.2236 120.822 90.7399 122.273 95.5424C118.045 98.8889 108.255 88.6276 107.785 97.8934C109.062 111.58 108.737 125.679 113.744 138.712C116.113 146.605 121.854 152.817 127.04 158.964C132.002 164.984 138.723 169.222 145.573 172.79C151.581 175.624 158.059 177.504 164.608 178.682C167.264 176.651 171.954 169.098 176.098 172.283C176.294 175.862 167.873 179.764 175.701 179.368C180.297 177.982 183.486 182.923 187.271 178.466C190.758 182.597 201.766 175.827 199.284 184.27C195.929 186.435 191.036 185.127 187.675 188.105C182.134 185.337 177.722 190.581 171.588 189.918C164.776 191.138 157.846 191.631 150.938 191.641C139.608 190.746 128.037 190.369 117.258 186.424C111.186 184.66 105.26 181.201 99.9231 177.743ZM109.492 181.889C115.422 184.453 121.22 187.156 127.718 187.97C138.028 189.405 148.674 191.61 159.021 189.598C154.338 187.484 149.497 190.422 144.832 188.086C139.237 189.29 133.233 187.78 127.544 187.036C121.076 184.154 114.096 182.173 108.038 178.434C100.469 175.669 111.953 181.979 113.997 182.49C118.728 185.176 108.794 181.114 107.393 179.997C103.43 177.774 102.925 178.238 107.001 180.495C107.821 180.976 108.632 181.48 109.492 181.889ZM98.2096 173.915C103.956 176.043 98.1843 169.875 95.5521 170.233C94.3855 168.209 91.0955 166.931 93.416 165.844C89.2407 167.293 89.0421 160.332 87.0801 161.327C82.663 159.932 85.3615 154.992 80.0999 151.958C79.6193 148.761 74.8726 145.988 73.3593 141.166C72.6897 138.697 67.995 131.607 70.8795 138.205C73.3347 144.557 77.6544 149.997 81.2494 155.43C84.0409 160.603 87.3376 166.01 92.4213 169.237C94.1355 170.881 95.7902 173.4 98.2096 173.915ZM81.6579 155.742C82.7084 157.62 81.8587 154.874 81.6579 155.742ZM105.091 176.467C106.363 175.897 103.261 175.749 105.091 176.467ZM108.21 177.605C107.887 176.034 106.786 178.483 108.21 177.605ZM112.114 179.233C113.973 177.463 109.25 178.117 112.114 179.233ZM118.806 182.962C119.935 181.293 115.191 182.332 118.806 182.962ZM105.957 174.005C108.844 172.137 102.227 173.979 105.957 174.005ZM108.885 175.465C108.803 174.478 107.841 175.908 108.885 175.465ZM123.523 184.601C125.876 186.087 137.264 187.856 130.133 185.211C128.94 185.462 116.911 181.809 123.523 184.601ZM100.285 166.503C100.056 165.513 96.6316 165.409 100.285 166.503ZM107.1 170.474C108.873 169.238 103.418 169.521 107.1 170.474ZM112.831 173.989C115.376 173.029 108.702 173.026 112.831 173.989ZM97.5125 163.484C100.273 165.6 108.648 163.755 101.741 162.219C98.5965 160.543 91.5114 159.396 96.3407 163.229L97.5118 163.483L97.5125 163.484ZM116.714 175.203C117.864 173.243 111.89 174.084 116.714 175.203ZM110.878 170.566C117.631 172.476 105.201 166.295 109.213 169.863L110.102 170.265L110.878 170.566ZM122.577 177.327C128.972 177.388 116.801 176.445 122.577 177.327ZM95.0514 159.783C94.8014 158.593 93.4741 159.884 95.0514 159.783ZM133.394 183.395C133.565 181.243 131.307 184.995 133.394 183.395ZM105.964 166.466C105.577 165.333 103.966 166.419 105.964 166.466ZM95.6577 159.035C99.3294 158.815 90.632 157.418 95.6577 159.035ZM83.4487 151.144C82.9919 149.384 79.4541 147.98 83.4487 151.144ZM115.5 171.485C115.184 171.652 114.828 170.718 115.5 171.485ZM135.45 183.727C135.386 182.555 134.364 184.17 135.45 183.727ZM113.735 169.661C114.094 168.151 110.604 169.204 113.735 169.661ZM98.8725 160.242C101.603 159.95 94.4978 158.396 98.8725 160.242ZM124.013 175.864C128.269 174.178 119.865 175.041 124.013 175.864ZM110.936 166.987C115.841 167.62 105.1 163.65 109.86 166.632L110.936 166.987ZM127.984 177.469C132.563 174.732 131.054 183.881 135.753 178.243C140.389 174.858 131.75 182.428 137.463 178.846C141.595 176.083 147.698 180.156 151.554 181.485C154.326 181.349 157.022 183.883 159.864 182.341C165.336 180.868 149.164 180.155 153.403 177.541C148.396 178.998 144.699 175.804 142.234 172.597C136.619 171.3 130.125 168.429 127.322 163.459C126.18 161.593 128.974 163.722 126.336 160.671C122.952 157.662 121.262 154.246 118.991 150.587C116.277 149.139 115.961 144.878 115.686 150.444C115.709 146.931 112.41 144.566 111.605 145.55C111.59 142.166 115.134 143.862 112.654 141.359C112.119 137.852 110.362 134.198 109.833 130.24C109.012 128.331 109.717 124.244 107.031 128.564C106.052 133.13 106.706 122.954 108.228 126.31C110.226 122.885 107.51 123.288 107.4 123.763C108.702 120.874 108.223 116.775 107.06 118.339C107.754 115.277 108.155 107.069 106.022 108.524C107.315 105.322 108.475 93.8714 102.86 98.2371C100.584 98.2691 96.6443 99.063 94.782 99.9893C100.622 103.209 94.1943 101.152 91.8172 100.64C91.5077 103.619 89.1529 102.331 86.2111 102.36C90.9095 102.941 83.9233 107.166 81.2278 105.525C77.7273 107.198 84.2485 111.374 81.2978 112.665C81.6601 114.612 75.935 111.962 76.3844 116.458C72.9858 115.028 75.9164 121.791 77.6164 119.504C83.3973 121.068 81.6861 124.634 81.8327 128.022C80.8915 129.996 77.1827 123.382 81.0069 123.689C77.9907 118.788 77.67 121.917 75.1635 124.194C74.5802 124.359 81.5574 127.433 77.179 128.953C81.0314 129.548 81.1408 132.919 81.9257 135.052C84.2403 137.463 83.7671 132.388 86.537 135.287C84.7841 132.705 77.2511 128.012 83.3155 129.517C83.2835 126.918 82.2188 124.823 84.0773 124.874C85.9173 121.541 82.1504 133.091 86.2982 128.854C87.4462 128.354 87.7304 125.518 89.795 129.122C92.7918 132.071 90.8775 134.209 86.6486 131.508C87.4053 134.075 92.3053 134.992 91.3842 139.005C92.3611 142.535 93.7263 141.235 94.9167 141.031C95.8512 144.46 96.3809 141.938 96.4255 140.307C100.701 141.222 99.6999 143.75 101.038 145.515C103.985 146.846 96.8198 136.5 101.879 142.405C107.202 147.21 103.875 149.216 99.0987 148.447C102.122 148.201 103.097 152.533 106.878 152.381C110.326 154.021 112.66 160.322 106.717 157.698C104.656 155.84 97.3607 153.547 103.319 157.082C108.822 159.631 113.192 161.156 118.5 164.354C122.299 167.066 123.939 170.172 125.379 170.786C122.187 172.311 115.759 169.569 120.532 168.728C117.555 168.186 114.206 166.681 117.057 170.39C119.483 172.414 125.649 172.2 126.755 172.429C125.817 174.494 124.209 174.658 126.793 174.819C123.91 176.354 127.717 176.592 127.984 177.469ZM122.091 160.826C120.337 158.993 119.884 155.558 121.779 158.547C122.751 158.937 124.893 164.159 122.091 160.826ZM141.284 173.018C142.377 172.947 141.316 173.849 141.284 173.018ZM119.321 156.33C119.956 158.468 119.254 153.558 119.321 156.33ZM117.415 153.763C120.195 154.97 115.209 149.502 117.415 153.763ZM94.2969 137.808C95.5922 137.463 94.9346 140.025 94.2969 137.808ZM112.695 147.781C113.63 150.288 113.491 144.792 112.695 147.781ZM99.6969 138.743C101.613 140.29 98.781 137.094 99.6969 138.743ZM110.852 142.319C108.763 137.637 112.331 139.762 111.314 143.086L110.852 142.319ZM91.6156 129.49C90.6811 127.954 89.1358 123.448 89.6335 122.073C90.0837 124.312 94.3981 131.714 91.7502 125.138C88.8233 119.626 95.2478 126.927 95.9092 128.302C96.2165 129.67 94.1035 127.929 95.535 131.135C92.9235 127.485 93.9934 133.152 91.6156 129.49ZM85.671 125.394C87.0318 127.842 85.915 121.823 85.671 125.394ZM88.3449 126.314C90.5085 130.071 89.6209 123.619 88.3449 126.314ZM81.9116 121.338C79.6982 119.138 78.0971 117.112 82.0157 119.973C83.526 120.032 78.6603 115.363 82.3788 118.49C86.2893 119.203 84.3095 124.901 81.9116 121.338ZM85.2908 121.25C86.5764 119.976 85.9731 122.503 85.2908 121.25ZM87.3703 121.916C89.7347 123.448 85.421 118.263 87.3703 121.916ZM83.2366 117.966C76.8025 112.24 91.3224 120.96 84.2879 119.027L83.2366 117.966ZM101.673 128.678C98.8882 127.008 100.935 116.924 101.884 123.821C104.591 122.945 101.735 127.383 103.754 127.342C103.436 130.141 102.532 131.148 101.672 128.678H101.673ZM108.492 132.708C109.066 134.785 108.765 129.669 108.492 132.708ZM107.307 131.538C107.614 130.24 107.339 133.066 107.307 131.538ZM84.4992 116.085C80.3655 110.381 96.5126 121.854 87.1464 117.531C86.168 117.275 84.9902 117.185 84.4992 116.085ZM97.6301 123.047C98.5035 123.843 97.2387 118.244 97.6301 123.047ZM107.6 129.442C108.371 126.706 107.657 131.251 107.6 129.442ZM85.1323 113.907C87.589 113.383 95.314 118.222 88.2199 115.291C87.4313 114.418 85.7513 114.815 85.1323 113.907ZM106.229 124.424C106.492 119.513 107.696 121.491 106.238 125.127L106.229 124.424ZM86.9604 112.2C87.961 110.732 84.3028 105.561 87.4878 110.345C88.8642 111.439 91.472 112.177 89.1693 112.637C92.7911 115.832 88.2862 113.503 86.9604 112.2ZM105.186 122.89C105.878 117.296 105.796 126.167 105.186 122.89ZM84.8705 107.033C85.6353 106.705 85.2744 108.052 84.8705 107.033ZM89.6246 109.862C91.8812 112.725 90.8478 107.295 89.6246 109.862ZM103.034 117.322C103.287 118.756 103.021 116.336 103.034 117.322ZM102.257 115.602C103.988 118.034 100.396 111.01 102.257 115.602ZM101.114 112.592C102.176 114.976 100.802 110.695 101.114 112.592ZM102.974 109.568C101.697 107.318 104.587 99.6507 104.909 104.405C103.561 108.111 104.52 110.184 105.461 105.214C107.198 101.302 105.086 112.932 102.974 109.568ZM104.886 98.165C105.442 97.482 105.009 98.9893 104.886 98.165ZM101.694 161.059C101.789 161.479 100.936 160.398 101.694 161.059ZM108.269 164.385C111.926 165.324 111.907 163.816 108.602 163.368C106.824 161.714 101.214 159.959 106.236 163.163C106.568 164.005 107.619 163.986 108.269 164.385ZM95.2827 155.76C97.2982 157.262 102.872 160.018 98.1531 156.332C99.7445 154.483 95.1079 153.499 96.6458 152.263C92.7338 149.869 93.5596 150.081 96.3005 150.157C91.5985 148.055 96.9791 148.212 96.7261 147.136C94.913 146.778 87.7215 143.939 91.9526 147.369C87.6515 145.176 90.9274 148.186 89.6276 147.867C85.2291 146.669 93.544 151.217 88.9282 150.088C91.4519 152.088 95.721 155.21 89.9959 152.204C89.2415 153.29 94.0923 154.935 95.2827 155.76ZM102.16 159.71C110.522 162.405 98.0601 156.419 102.16 159.71ZM137.363 181.037C137.471 179.378 136.221 182.452 137.363 181.037ZM140.981 182.56C142.911 180.69 141.06 185.537 144.178 182.102C144.212 179.643 144.082 178.19 140.595 181.178C139.634 181.71 139.204 183.977 140.981 182.56ZM83.5461 146.489C82.9532 144.161 79.3931 144.172 83.5461 146.489ZM87.4097 149.02C85.9746 146.642 82.291 146.867 87.4097 149.02ZM109.39 162.276C111.535 164.182 119.246 163.675 111.996 162.511C110.922 160.924 105.178 161.306 109.39 162.276ZM139.605 180.937C142.908 178.166 136.406 182.174 139.605 180.937ZM146.474 185.658C146.495 184.768 145.051 186.047 146.474 185.658ZM146.485 184.413C150.142 180.537 142.941 184.642 146.485 184.413ZM74.0438 138.534C70.9264 134.085 72.1056 132.086 69.0999 128.455C68.5307 125.677 63.9425 119.375 66.7265 126.052C69.2769 129.957 70.0343 136.003 74.0438 138.534ZM145.338 183.181C152.068 178.832 142.577 181.286 145.338 183.181ZM150.475 185.193C153.845 182.3 148.344 184.588 150.475 185.193ZM82.4011 141.572C83.3653 140.138 79.9109 141.389 82.4011 141.572ZM149.403 183.819C152.665 181.716 148.651 182.038 148.811 184.012L149.403 183.819ZM105.124 155.91C105.013 154.49 103.401 156.031 105.124 155.91ZM107.861 157.485C106.991 155.727 106.524 157.761 107.861 157.485ZM154.638 185.241C158.818 182.225 152.104 184.663 153.76 185.812L154.638 185.241ZM153.038 184.467C156.443 181.614 149.442 185.732 153.038 184.467ZM161.215 189.913C163.502 188.382 158.438 189.417 161.215 189.913ZM84.497 140.538C87.5622 141.225 96.7432 148.085 91.3269 141.013C88.5518 140.191 90.2161 133.409 87.3867 134.61C89.2861 137.783 88.9491 139.133 84.9612 137.133C79.9489 134.686 82.1444 138.345 83.1235 139.354C81.7895 139.657 84.8898 140.513 84.497 140.538ZM70.5358 129.511C71.0841 127.242 65.484 117.027 67.8909 124.392C68.7599 125.936 68.6721 128.859 70.5358 129.511ZM96.1614 145.31C96.087 145.123 94.5834 143.99 96.1614 145.31ZM100.047 146.214C100.045 143.811 95.7522 145.238 100.047 146.214ZM133.722 167.443C133.079 165.801 131.183 167.405 133.722 167.443ZM135.339 168.624C135.101 167.705 134.406 168.802 135.339 168.624ZM148.686 177.031C149.971 176.083 147.085 176.91 148.686 177.031ZM77.5093 131.292C81.181 129.871 73.5758 130.278 77.5093 131.292ZM130.757 164.839C130.717 162.462 128.417 165.429 130.757 164.839ZM76.0585 127.912C78.417 127.115 73.8771 127.387 76.0585 127.912ZM82.9048 131.228C82.8617 130.446 82.1809 131.524 82.9048 131.228ZM166.404 182.432C169.437 181.817 176.348 183.976 177.466 181.628C173.783 181.538 164.723 179.029 164.294 182.227L165.101 182.353L166.404 182.432ZM85.0803 131.776C85.1331 129.368 83.2024 131.687 85.0803 131.776ZM67.0807 119.29C66.263 114.7 63.9715 118.595 67.0807 119.29ZM71.3735 120.369C71.4256 118.896 67.4445 119.043 71.3735 120.369ZM73.8258 121.574C73.2707 122.299 73.1167 120.999 73.8258 121.574ZM89.2601 131.475C89.9869 130.807 87.5399 130.98 89.2601 131.475ZM72.1927 118.856C71.7775 115.39 67.2205 118.337 72.1927 118.856ZM63.3919 113.147C63.2662 111.547 62.5341 113.75 63.3919 113.147ZM64.7006 112.158C64.4871 110.261 63.5772 112.4 64.7006 112.158ZM71.9323 116.476C74.9909 115.274 66.3627 113.991 71.3073 116.249L71.9323 116.476ZM168.725 176.263C170.683 174.468 166.238 175.708 168.725 176.263ZM180.419 182.324C181.203 180.004 178.444 182.629 180.419 182.324ZM72.6733 112.685C72.9947 110.44 70.2479 113.131 72.6733 112.685ZM62.3823 105.79C61.8295 102.622 61.9054 97.0594 67.1923 98.9395C60.1347 100.34 72.0766 107.711 70.5685 101.892C73.5363 102.037 76.374 100.138 74.8168 103.02C80.6639 102.375 84.7172 97.3042 90.3649 98.0147C94.7642 97.4321 99.5741 96.9909 104.315 95.2202C108.213 94.939 111.965 90.7428 109.829 88.2549C104.513 87.8055 98.9492 88.4707 93.0738 89.6387C86.5638 90.9913 80.649 93.5633 74.081 94.6667C67.6781 95.5268 75.3681 97.0363 73.5349 97.3726C70.1936 98.5325 77.519 99.3145 73.1011 100.536C70.3729 100.018 67.5337 99.0801 68.6989 96.2045C62.5653 97.0006 57.1758 99.5458 62.0214 105.787L62.3823 105.79ZM77.1611 98.2639C78.5993 92.9666 84.8652 102.623 79.5181 98.967C78.8798 98.4894 77.8292 98.0995 77.1611 98.2639ZM77.4409 95.6949C79.5166 94.1489 78.5442 96.5624 77.4409 95.6949ZM80.0761 95.7373C80.2636 93.2992 86.11 97.0274 81.0403 96.6152L80.0761 95.7373ZM83.6815 94.2872C84.9984 92.7494 84.0595 95.6562 83.6815 94.2872ZM84.6041 93.6697C86.7959 91.036 97.0178 91.9883 89.5353 93.413C87.5303 91.9027 85.9939 94.3036 84.6041 93.6697ZM97.944 91.6133C104.571 94.1704 97.61 84.4188 97.944 91.6133ZM101.729 91.5932C103.113 87.967 107.099 90.138 102.369 90.8641C102.472 91.2502 102.23 92.736 101.729 91.5932ZM71.1801 110.823C75.3153 108.292 66.7905 108.626 71.1801 110.823ZM74.2379 111.673C75.6873 110.131 71.0871 111.048 74.2379 111.673ZM65.2288 105.279C67.591 103.464 62.4329 104.589 65.2288 105.279ZM187.321 181.66C187.389 179.554 185.515 182.609 187.321 181.66ZM174.915 173.193C175.267 170.769 173.32 173.405 174.915 173.193ZM190.732 182.477C194.035 182.488 200.741 181.45 193.553 181.454C192.426 181.63 186.982 181.592 190.732 182.477ZM76.9268 110.187C79.6 110.004 81.1095 107.238 76.4097 107.397C69.1259 106.643 82.8356 109.891 75.4752 108.962C74.4857 109.617 76.8702 110.368 76.9268 110.187ZM79.2808 111.378C79.0018 109.662 78.4549 112.291 79.2808 111.378ZM82.0738 103.931C83.2344 102.492 80.4689 103.546 82.0738 103.931ZM73.1829 89.0696C77.9542 87.4462 84.4791 85.6226 86.7312 89.8686C84.4389 87.1091 85.8064 84.3928 87.9714 88.4275C91.0338 92.5098 92.5664 86.5705 90.5755 85.2015C92.8447 88.0213 95.4263 89.3538 92.0947 85.3801C95.715 81.0254 84.8459 85.95 82.3758 85.9009C81.1869 86.4336 70.1043 88.7266 73.1829 89.0703V89.0696ZM75.9796 83.7143C78.7005 81.6608 85.3898 84.9359 81.0976 81.6735C80.6773 81.3029 71.6972 84.1473 75.9796 83.7143ZM85.8994 84.1235C89.0837 84.2053 84.526 79.8455 88.3204 81.8215C87.6977 79.7852 83.9025 79.4035 82.047 78.5903C80.9979 80.4518 84.183 84.1488 85.8994 84.1242V84.1235ZM77.7184 75.1196C78.8202 73.6264 75.7877 75.877 77.7184 75.1196ZM81.7732 76.0905C86.9053 75.4097 80.4652 73.8808 80.739 76.0354L81.7732 76.0905ZM74.203 70.166C70.5894 65.449 80.9987 70.9584 77.327 66.0197C74.2372 63.5593 71.2679 68.7889 74.2022 70.166H74.203ZM120.577 95.1436C122.233 92.2055 113.734 91.1833 119.46 94.102C119.987 94.2791 119.868 95.3467 120.577 95.1436Z" fill="black"/>
</svg>
