<svg width="257" height="257" viewBox="0 0 257 257" fill="none" xmlns="http://www.w3.org/2000/svg">
<rect x="1.05225" y="0.68811" width="255" height="255" rx="31.5" fill="white"/>
<rect x="1.05225" y="0.68811" width="255" height="255" rx="31.5" stroke="white"/>
<path d="M196.737 121.274L134.641 59.1822C131.067 55.6061 125.267 55.6061 121.689 59.1822L108.795 72.0767L125.152 88.4339C128.953 87.1494 133.312 88.0111 136.342 91.0411C139.386 94.0905 140.242 98.4867 138.926 102.3L154.69 118.064C158.504 116.751 162.905 117.601 165.951 120.652C170.208 124.907 170.208 131.804 165.951 136.063C161.692 140.322 154.795 140.322 150.535 136.063C147.332 132.857 146.541 128.154 148.162 124.209L133.461 109.508L133.46 148.196C134.525 148.722 135.499 149.419 136.342 150.257C140.599 154.512 140.599 161.41 136.342 165.672C132.083 169.928 125.183 169.928 120.931 165.672C116.674 161.41 116.674 154.513 120.931 150.257C121.951 149.236 123.163 148.428 124.498 147.879V108.831C123.161 108.286 121.948 107.477 120.931 106.453C117.705 103.232 116.93 98.4989 118.582 94.5383L102.458 78.4122L59.8802 120.987C56.3024 124.567 56.3024 130.367 59.8802 133.944L121.977 196.037C125.552 199.614 131.351 199.614 134.93 196.037L196.736 134.232C200.313 130.654 200.313 124.851 196.736 121.274" fill="#DE4C36"/>
</svg>
