<svg width="257" height="257" viewBox="0 0 257 257" fill="none" xmlns="http://www.w3.org/2000/svg">
<rect x="0.776123" y="0.68811" width="255" height="255" rx="31.5" fill="#F4F2ED"/>
<rect x="0.776123" y="0.68811" width="255" height="255" rx="31.5" stroke="#F4F2ED"/>
<path d="M127.639 58.2552C88.3708 58.2552 56.5281 90.0924 56.5281 129.367C56.5281 160.786 76.9036 187.441 105.159 196.845C108.712 197.503 110.017 195.302 110.017 193.423C110.017 191.728 109.951 186.126 109.921 180.184C90.1371 184.486 85.9626 171.794 85.9626 171.794C82.7278 163.574 78.067 161.389 78.067 161.389C71.6154 156.975 78.5533 157.066 78.5533 157.066C85.6943 157.567 89.4544 164.394 89.4544 164.394C95.7968 175.265 106.09 172.122 110.148 170.306C110.786 165.709 112.629 162.572 114.663 160.797C98.8681 158.998 82.2638 152.901 82.2638 125.653C82.2638 117.889 85.0418 111.545 89.5911 106.566C88.8527 104.774 86.4188 97.5418 90.2798 87.7466C90.2798 87.7466 96.2513 85.8353 109.841 95.036C115.513 93.4599 121.596 92.6701 127.639 92.6434C133.683 92.6701 139.771 93.4599 145.454 95.036C159.027 85.8353 164.99 87.7466 164.99 87.7466C168.861 97.5418 166.426 104.774 165.687 106.566C170.247 111.545 173.006 117.889 173.006 125.653C173.006 152.965 156.37 158.98 140.536 160.74C143.086 162.947 145.359 167.274 145.359 173.908C145.359 183.423 145.276 191.081 145.276 193.423C145.276 195.316 146.556 197.533 150.161 196.835C178.4 187.421 198.75 160.775 198.75 129.367C198.75 90.0924 166.912 58.2552 127.639 58.2552Z" fill="#161614"/>
<path d="M83.1615 159.555C83.0053 159.908 82.4487 160.014 81.9429 159.772C81.427 159.54 81.137 159.058 81.3043 158.704C81.4576 158.34 82.0142 158.238 82.529 158.483C83.046 158.714 83.3405 159.201 83.1615 159.555V159.555ZM86.6595 162.676C86.3204 162.991 85.6572 162.845 85.2072 162.348C84.742 161.852 84.655 161.189 84.9991 160.87C85.3488 160.556 85.9919 160.702 86.4581 161.199C86.9233 161.7 87.0136 162.359 86.6589 162.677L86.6595 162.676ZM89.0593 166.669C88.6232 166.972 87.9104 166.688 87.4704 166.056C87.0348 165.424 87.0348 164.666 87.4799 164.362C87.9216 164.058 88.6232 164.331 89.0693 164.958C89.5044 165.601 89.5044 166.36 89.0587 166.67L89.0593 166.669ZM93.1172 171.295C92.7274 171.724 91.8975 171.609 91.2896 171.022C90.6683 170.449 90.4949 169.635 90.8858 169.205C91.2801 168.775 92.115 168.896 92.7274 169.478C93.3448 170.05 93.5333 170.87 93.1178 171.295H93.1172ZM98.362 172.856C98.1908 173.413 97.391 173.666 96.5857 173.429C95.7814 173.186 95.255 172.533 95.4173 171.971C95.5846 171.41 96.3877 171.146 97.1992 171.399C98.0023 171.642 98.5299 172.29 98.3626 172.856H98.362ZM104.332 173.518C104.352 174.105 103.669 174.591 102.823 174.602C101.973 174.62 101.285 174.146 101.276 173.569C101.276 172.977 101.944 172.495 102.794 172.481C103.639 172.464 104.332 172.935 104.332 173.518V173.518ZM110.196 173.293C110.297 173.866 109.709 174.453 108.87 174.61C108.044 174.76 107.28 174.407 107.175 173.84C107.072 173.253 107.671 172.666 108.495 172.514C109.336 172.368 110.089 172.712 110.196 173.293" fill="#161614"/>
</svg>
