<svg width="257" height="257" viewBox="0 0 257 257" fill="none" xmlns="http://www.w3.org/2000/svg">
<rect x="0.776123" y="0.985107" width="255" height="255" rx="31.5" fill="white"/>
<rect x="0.776123" y="0.985107" width="255" height="255" rx="31.5" stroke="white"/>
<path d="M67.2612 117.429C66.9842 117.429 66.9149 117.291 67.0534 117.083L68.5076 115.213C68.6461 115.006 68.9923 114.867 69.2693 114.867H93.99C94.267 114.867 94.3363 115.075 94.1978 115.282L93.0206 117.083C92.8821 117.291 92.5359 117.498 92.3281 117.498L67.2612 117.429ZM56.8051 123.8C56.5281 123.8 56.4588 123.661 56.5973 123.453L58.0515 121.584C58.19 121.376 58.5362 121.238 58.8132 121.238H90.3893C90.6662 121.238 90.8047 121.445 90.7355 121.653L90.1815 123.315C90.1123 123.592 89.8353 123.73 89.5583 123.73L56.8051 123.8ZM73.5625 130.17C73.2856 130.17 73.2163 129.963 73.3548 129.755L74.3242 128.024C74.4627 127.816 74.7397 127.608 75.0167 127.608H88.8659C89.1428 127.608 89.2813 127.816 89.2813 128.093L89.1428 129.755C89.1428 130.032 88.8659 130.24 88.6581 130.24L73.5625 130.17ZM145.44 116.183C141.077 117.291 138.1 118.122 133.806 119.23C132.768 119.506 132.698 119.576 131.798 118.537C130.76 117.36 129.998 116.598 128.544 115.906C124.181 113.759 119.957 114.382 116.01 116.944C111.301 119.991 108.878 124.492 108.947 130.101C109.016 135.641 112.825 140.211 118.295 140.973C123.004 141.596 126.951 139.934 130.067 136.402C130.69 135.641 131.244 134.81 131.937 133.84H118.572C117.118 133.84 116.772 132.94 117.257 131.763C118.157 129.616 119.819 126.016 120.788 124.215C120.996 123.8 121.481 123.107 122.519 123.107H147.725C147.586 124.977 147.586 126.847 147.309 128.716C146.548 133.702 144.678 138.272 141.631 142.288C136.645 148.867 130.136 152.952 121.896 154.06C115.11 154.96 108.809 153.645 103.269 149.49C98.1448 145.612 95.2365 140.488 94.4748 134.117C93.5746 126.57 95.7904 119.783 100.361 113.828C105.277 107.388 111.786 103.303 119.749 101.849C126.259 100.672 132.491 101.433 138.1 105.242C141.77 107.665 144.401 110.989 146.132 115.006C146.548 115.629 146.271 115.975 145.44 116.183Z" fill="#00ACD7"/>
<path d="M168.36 154.476C162.059 154.337 156.311 152.537 151.464 148.382C147.378 144.85 144.816 140.349 143.985 135.017C142.739 127.193 144.886 120.268 149.594 114.105C154.649 107.458 160.743 103.995 168.983 102.541C176.046 101.295 182.694 101.987 188.718 106.073C194.189 109.812 197.582 114.867 198.482 121.515C199.659 130.863 196.958 138.48 190.519 144.989C185.948 149.628 180.339 152.537 173.9 153.852C172.03 154.199 170.16 154.268 168.36 154.476V154.476ZM184.84 126.5C184.771 125.6 184.771 124.908 184.633 124.215C183.386 117.36 177.085 113.482 170.507 115.005C164.067 116.46 159.912 120.545 158.389 127.054C157.142 132.455 159.773 137.926 164.759 140.142C168.568 141.804 172.376 141.596 176.046 139.726C181.517 136.887 184.494 132.455 184.84 126.5V126.5Z" fill="#00ACD7"/>
</svg>
