<svg width="257" height="257" viewBox="0 0 257 257" fill="none" xmlns="http://www.w3.org/2000/svg">
<rect x="0.641602" y="0.797119" width="255" height="255" rx="31.5" fill="#F4F2ED"/>
<rect x="0.641602" y="0.797119" width="255" height="255" rx="31.5" stroke="#F4F2ED"/>
<g clip-path="url(#clip0_25_407)">
<path d="M151.821 95.7739H157.214L172.578 80.4101L173.334 73.8913C144.747 48.6603 101.108 51.379 75.8766 79.9657C68.8614 87.9068 63.7722 97.3518 61.0017 107.575C62.7129 106.871 64.6093 106.76 66.3946 107.249L97.1147 102.182C97.1147 102.182 98.6778 99.5963 99.4852 99.7593C113.153 84.7511 136.154 83.0029 151.932 95.7739H151.821Z" fill="#EA4335"/>
<path d="M194.46 107.575C190.927 94.5738 183.682 82.8843 173.6 73.9431L152.043 95.4998C161.147 102.937 166.333 114.145 166.111 125.901V129.731C176.711 129.731 185.297 138.324 185.297 148.917C185.297 159.518 176.704 168.104 166.111 168.104H127.731L123.901 171.985V195.001L127.731 198.831H166.111C188.112 199.002 207.631 184.742 214.165 163.733C220.684 142.717 212.683 119.901 194.46 107.575Z" fill="#4285F4"/>
<path d="M89.2994 198.616H127.679V167.896H89.2994C86.566 167.896 83.8621 167.311 81.3731 166.17L75.9802 167.837L60.5128 183.201L59.1646 188.594C67.8391 195.142 78.4248 198.661 89.2994 198.616Z" fill="#34A853"/>
<path d="M89.2994 98.9519C67.9798 99.0779 49.0973 112.73 42.297 132.931C35.4966 153.132 42.2747 175.43 59.1719 188.423L81.4323 166.163C71.7726 161.8 67.4835 150.436 71.8466 140.776C76.2098 131.117 87.5734 126.827 97.2332 131.191C101.485 133.117 104.893 136.524 106.819 140.776L129.079 118.516C119.605 106.137 104.885 98.9001 89.2994 98.9519Z" fill="#FBBC05"/>
</g>
<defs>
<clipPath id="clip0_25_407">
<rect width="176.728" height="142.222" fill="white" transform="translate(39.6819 56.6089)"/>
</clipPath>
</defs>
</svg>
