<svg width="257" height="257" viewBox="0 0 257 257" fill="none" xmlns="http://www.w3.org/2000/svg">
<rect x="0.537231" y="0.797119" width="255" height="255" rx="31.5" fill="white"/>
<rect x="0.537231" y="0.797119" width="255" height="255" rx="31.5" stroke="white"/>
<path fill-rule="evenodd" clip-rule="evenodd" d="M140.321 72.8924L169.526 89.7549C170.369 88.8627 171.336 88.097 172.399 87.4815C178.455 83.9994 186.181 86.0669 189.699 92.124C193.181 98.1812 191.114 105.906 185.057 109.425C184.002 110.032 182.866 110.484 181.684 110.768V144.505C182.854 144.789 183.977 145.238 185.02 145.839C191.114 149.357 193.181 157.083 189.663 163.14C186.181 169.197 178.419 171.264 172.362 167.783C171.189 167.109 170.131 166.251 169.231 165.241L140.204 182C140.629 183.287 140.845 184.634 140.844 185.99C140.844 192.953 135.186 198.648 128.186 198.648C121.185 198.648 115.528 192.989 115.528 185.99C115.528 184.745 115.706 183.544 116.04 182.408L86.8427 165.551C86.0088 166.425 85.0548 167.177 84.0094 167.783C77.9162 171.264 70.1905 169.197 66.7084 163.14C63.2268 157.083 65.2943 149.357 71.3509 145.839C72.3943 145.238 73.5179 144.789 74.6879 144.504V110.768C73.505 110.484 72.369 110.032 71.3149 109.425C65.2577 105.943 63.1903 98.1812 66.6724 92.124C70.1545 86.0669 77.9157 83.9994 83.9729 87.4815C85.0291 88.0938 85.9919 88.8545 86.8318 89.7406L116.045 72.8736C115.701 71.7048 115.527 70.4925 115.528 69.274C115.528 62.2747 121.185 56.616 128.186 56.616C135.186 56.616 140.844 62.2742 140.844 69.274C140.844 70.5321 140.661 71.7463 140.321 72.8924ZM137.278 78.0879L166.553 94.9899C166.087 96.6194 165.953 98.326 166.16 100.008C166.366 101.69 166.909 103.314 167.756 104.782C169.538 107.882 172.441 109.937 175.663 110.738V144.517C175.498 144.557 175.335 144.601 175.173 144.648L136.938 78.4261C137.053 78.3155 137.167 78.2029 137.278 78.0884V78.0879ZM119.441 78.4335L81.2072 144.654C81.0419 144.606 80.8756 144.562 80.7085 144.521V110.738C83.9304 109.937 86.8333 107.882 88.6154 104.782C89.4639 103.311 90.0073 101.684 90.2132 99.9986C90.4191 98.3129 90.2832 96.6031 89.8138 94.9711L119.08 78.0741C119.198 78.196 119.318 78.316 119.441 78.433V78.4335ZM131.723 81.4332L169.948 147.639C169.072 148.474 168.322 149.432 167.719 150.482C167.119 151.525 166.669 152.649 166.385 153.819H89.9871C89.7025 152.649 89.253 151.525 88.6519 150.482C88.0475 149.439 87.2984 148.488 86.4269 147.655L124.66 81.4362C125.806 81.7663 126.993 81.9331 128.186 81.932C129.414 81.932 130.6 81.7581 131.723 81.4332ZM137.547 177.462L166.631 160.67C166.544 160.396 166.466 160.119 166.398 159.839H89.9708C89.9303 160.004 89.8863 160.167 89.8394 160.329L119.066 177.204C120.246 175.977 121.663 175.001 123.23 174.335C124.797 173.67 126.483 173.329 128.186 173.332C129.948 173.329 131.691 173.695 133.303 174.406C134.916 175.117 136.361 176.158 137.547 177.462V177.462Z" fill="#E535AB"/>
</svg>
