<svg width="257" height="257" viewBox="0 0 257 257" fill="none" xmlns="http://www.w3.org/2000/svg">
<rect x="1.36548" y="1.2821" width="255" height="255" rx="31.5" fill="#F4F2ED"/>
<rect x="1.36548" y="1.2821" width="255" height="255" rx="31.5" stroke="#F4F2ED"/>
<path d="M186.731 115.964C193.57 115.635 199.625 120.942 200.216 127.788C202.775 160.907 173.01 197.946 130.297 199.132C123.451 199.322 117.749 193.912 117.559 187.048C117.37 180.183 122.765 174.465 129.61 174.274C157.946 173.487 175.898 149.012 174.94 128.979C174.612 122.12 179.89 116.293 186.731 115.964V115.964Z" fill="url(#paint0_linear_101_143)"/>
<path d="M70.6785 115.259C77.5265 115.259 83.0776 120.826 83.0776 127.693C83.0776 156.354 106.123 174.902 129.141 174.334C135.987 174.165 141.673 179.594 141.841 186.458C142.01 193.323 136.597 199.025 129.751 199.195C93.7567 200.082 58.156 171.264 58.156 127.693C58.156 120.826 63.8304 115.259 70.6785 115.259Z" fill="url(#paint1_linear_101_143)"/>
<path d="M155.756 128.656C155.756 121.627 161.491 115.927 168.565 115.927H187.23C194.305 115.927 200.216 121.627 200.216 128.656C200.216 135.687 194.305 141.386 187.23 141.386H168.564C161.491 141.386 155.756 135.687 155.756 128.656Z" fill="url(#paint2_linear_101_143)"/>
<path d="M116.59 128.675C116.59 121.634 122.288 115.927 129.309 115.927C136.33 115.927 142.028 121.634 142.028 128.675C142.028 135.716 136.33 141.423 129.309 141.423C122.288 141.423 116.59 135.716 116.59 128.675Z" fill="url(#paint3_linear_101_143)"/>
<path d="M141.676 69.1127C141.96 75.9736 136.644 81.7663 129.802 82.0514C100.266 83.2818 82.2347 106.496 83.1122 128.538C83.3856 135.399 78.1713 141.184 71.3288 141.458C64.4863 141.732 58.469 136.194 58.1962 129.332C56.7658 93.413 86.6743 57.9034 128.772 57.206C135.614 56.9209 141.392 62.2519 141.675 69.1127H141.676Z" fill="url(#paint4_linear_101_143)"/>
<defs>
<linearGradient id="paint0_linear_101_143" x1="134.894" y1="228.897" x2="173.32" y2="233.836" gradientUnits="userSpaceOnUse">
<stop stop-color="#1A7D75"/>
<stop offset="1" stop-color="#1A8864"/>
</linearGradient>
<linearGradient id="paint1_linear_101_143" x1="63.0761" y1="124.592" x2="43.5644" y2="175.893" gradientUnits="userSpaceOnUse">
<stop offset="0.013" stop-color="#168A81"/>
<stop offset="1" stop-color="#31A97F"/>
</linearGradient>
<linearGradient id="paint2_linear_101_143" x1="91.599" y1="129.531" x2="109.076" y2="156.031" gradientUnits="userSpaceOnUse">
<stop stop-color="#27A59B"/>
<stop offset="1" stop-color="#64D8A2"/>
</linearGradient>
<linearGradient id="paint3_linear_101_143" x1="80.1066" y1="131.345" x2="115.465" y2="161.975" gradientUnits="userSpaceOnUse">
<stop stop-color="#27A59B"/>
<stop offset="1" stop-color="#64D8A2"/>
</linearGradient>
<linearGradient id="paint4_linear_101_143" x1="232.616" y1="-62.4053" x2="129.899" y2="-97.0755" gradientUnits="userSpaceOnUse">
<stop stop-color="#27A59B"/>
<stop offset="1" stop-color="#64D8A2"/>
</linearGradient>
</defs>
</svg>
