<svg width="257" height="257" viewBox="0 0 257 257" fill="none" xmlns="http://www.w3.org/2000/svg">
<rect x="1.26111" y="0.797119" width="255" height="255" rx="31.5" fill="#F4F2ED"/>
<rect x="1.26111" y="0.797119" width="255" height="255" rx="31.5" stroke="#F4F2ED"/>
<path d="M57.4058 56.6094H199.628V198.832H57.4058V56.6094Z" fill="#CF4547"/>
<path d="M106.616 128.667C106.549 128.765 106.432 129.068 106.259 129.584C106.086 130.099 105.877 130.743 105.632 131.517C105.387 132.292 105.12 133.161 104.835 134.119C104.549 135.077 104.253 136.058 103.952 137.055C103.649 138.055 103.359 139.033 103.08 139.994C102.802 140.952 102.551 141.821 102.331 142.596C102.111 143.37 101.927 144.019 101.78 144.546C101.632 145.07 101.543 145.379 101.509 145.476C101.429 145.786 101.298 146.131 101.117 146.51C100.935 146.889 100.724 147.245 100.479 147.585C100.233 147.925 99.9632 148.206 99.668 148.429C99.3727 148.652 99.069 148.763 98.7598 148.763C98.2361 148.763 97.8545 148.588 97.6177 148.24C97.3809 147.892 97.2611 147.251 97.2611 146.32V145.914C97.2611 145.777 97.2694 145.632 97.2862 145.479C97.3029 145.17 97.4255 144.588 97.6539 143.732C97.8823 142.88 98.1581 141.916 98.4757 140.838C98.7932 139.76 99.1387 138.649 99.5064 137.492C99.8741 136.339 100.206 135.306 100.501 134.395C99.6317 135.364 98.693 136.328 97.6762 137.289C96.6622 138.25 95.6203 139.111 94.5589 139.877C93.4948 140.643 92.4223 141.27 91.3414 141.752C90.2606 142.237 89.2215 142.479 88.2242 142.479C87.0793 142.479 86.0931 142.225 85.2658 141.724C84.4384 141.22 83.7559 140.56 83.2155 139.746C82.6751 138.933 82.2739 138.011 82.012 136.983C81.7502 135.955 81.6193 134.927 81.6193 133.899V133.52C81.6193 133.403 81.6276 133.289 81.6443 133.172C81.7418 131.311 82.0093 129.4 82.4411 127.442C82.8756 125.483 83.4439 123.533 84.1487 121.597C84.8535 119.658 85.6669 117.764 86.5918 115.911C87.5166 114.059 88.5223 112.31 89.6115 110.663C90.7007 109.017 91.8568 107.499 93.0853 106.111C94.3138 104.724 95.5729 103.532 96.8655 102.534C98.1581 101.537 99.4646 100.757 100.782 100.194C102.1 99.6317 103.406 99.3503 104.699 99.3503C106.189 99.3503 107.63 99.7571 109.02 100.57C110.41 101.384 111.711 102.704 112.922 104.526C113.201 104.933 113.377 105.345 113.449 105.763C113.521 106.181 113.56 106.574 113.56 106.941C113.56 107.813 113.351 108.501 112.934 109.006C112.516 109.51 112.02 109.761 111.449 109.761C110.925 109.761 110.438 109.485 109.989 108.93C109.538 108.379 109.036 107.588 108.479 106.56C107.955 105.629 107.379 104.955 106.749 104.537C106.12 104.119 105.434 103.913 104.699 103.913C103.554 103.913 102.328 104.39 101.027 105.34C99.7265 106.29 98.4367 107.546 97.1608 109.106C95.8849 110.666 94.6592 112.449 93.4892 114.457C92.3192 116.463 91.2829 118.519 90.3831 120.622C89.4834 122.725 88.7674 124.801 88.2354 126.845C87.7033 128.89 87.4386 130.729 87.4386 132.358C87.4386 132.902 87.4749 133.459 87.5501 134.03C87.6253 134.601 87.7618 135.122 87.9679 135.587C88.1713 136.052 88.4499 136.437 88.8036 136.735C89.1546 137.036 89.6004 137.186 90.1408 137.186C90.7453 137.186 91.4334 136.983 92.2022 136.576C92.9711 136.169 93.7706 135.637 94.5952 134.977C95.4225 134.317 96.2527 133.57 97.0884 132.737C97.9241 131.904 98.7013 131.06 99.42 130.208C100.139 129.355 100.779 128.536 101.334 127.751C101.891 126.965 102.309 126.283 102.585 125.7L104.869 118.867C105.147 118.132 105.512 117.608 105.961 117.296C106.412 116.987 106.875 116.831 107.348 116.831C107.577 116.831 107.805 116.87 108.036 116.948C108.265 117.026 108.471 117.146 108.649 117.313C108.83 117.477 108.972 117.692 109.078 117.953C109.184 118.215 109.237 118.522 109.237 118.87C109.237 119.8 109.156 120.672 108.992 121.488C108.827 122.305 108.618 123.099 108.365 123.873C108.111 124.647 107.83 125.43 107.518 126.213C107.212 126.993 106.908 127.812 106.616 128.667V128.667ZM137.576 134.367C136.855 135.336 136.016 136.281 135.061 137.203C134.102 138.125 133.116 138.944 132.102 139.66C131.088 140.376 130.088 140.952 129.107 141.39C128.124 141.827 127.241 142.044 126.455 142.044C125.67 142.044 125.032 141.782 124.539 141.259C124.049 140.735 123.803 139.844 123.803 138.582C123.803 137.69 123.934 136.651 124.196 135.47C123.77 136.228 123.238 136.994 122.6 137.768C121.962 138.543 121.232 139.25 120.413 139.891C119.594 140.532 118.678 141.05 117.664 141.445C116.65 141.844 115.544 142.042 114.349 142.042C113.808 142.042 113.287 141.975 112.789 141.838C112.29 141.702 111.853 141.47 111.477 141.142C111.101 140.813 110.797 140.373 110.568 139.819C110.34 139.267 110.226 138.573 110.226 137.74C110.226 137.721 110.259 137.426 110.323 136.855C110.387 136.283 110.596 135.381 110.95 134.15C111.301 132.918 111.847 131.325 112.583 129.366C113.321 127.408 114.36 125.035 115.7 122.241C116.042 121.505 116.441 120.976 116.889 120.656C117.341 120.335 117.825 120.176 118.349 120.176C118.577 120.176 118.814 120.21 119.062 120.277C119.307 120.346 119.536 120.452 119.75 120.597C119.962 120.742 120.135 120.926 120.266 121.149C120.397 121.371 120.463 121.628 120.463 121.92C120.463 122.115 120.438 122.299 120.388 122.472C120.307 122.803 120.132 123.232 119.859 123.767C119.589 124.302 119.274 124.912 118.915 125.6C118.555 126.288 118.174 127.029 117.772 127.826C117.371 128.62 116.998 129.444 116.655 130.297C116.313 131.149 116.017 132.019 115.772 132.899C115.527 133.782 115.388 134.64 115.354 135.473C115.354 135.821 115.435 136.141 115.6 136.434C115.764 136.724 116.034 136.871 116.41 136.871C117.474 136.871 118.488 136.523 119.455 135.824C120.422 135.127 121.313 134.258 122.132 133.222C122.951 132.186 123.692 131.071 124.355 129.876C125.018 128.684 125.572 127.595 126.013 126.606C126.325 125.946 126.598 125.238 126.834 124.483C127.071 123.728 127.33 123.029 127.609 122.388C127.887 121.748 128.205 121.215 128.567 120.789C128.926 120.363 129.378 120.149 129.918 120.149C130.506 120.149 130.974 120.371 131.317 120.817C131.659 121.263 131.832 121.798 131.832 122.416C131.832 122.764 131.723 123.246 131.5 123.856C131.278 124.466 131.002 125.166 130.665 125.951C130.33 126.737 129.965 127.575 129.573 128.467C129.18 129.358 128.815 130.266 128.481 131.186C128.144 132.108 127.868 133.007 127.645 133.891C127.425 134.774 127.313 135.593 127.313 136.348C127.313 137.047 127.673 137.395 128.394 137.395C128.901 137.395 129.531 137.219 130.286 136.871C131.041 136.523 131.829 136.033 132.656 135.403C133.484 134.774 134.308 134.033 135.136 133.177C135.963 132.325 136.696 131.403 137.334 130.414L137.576 134.367V134.367Z" fill="white" stroke="white" stroke-width="0.264085" stroke-miterlimit="10"/>
<path d="M138.339 132.913C138.158 133.359 137.983 133.877 137.81 134.47C137.637 135.061 137.554 135.59 137.554 136.055C137.554 136.345 137.604 136.579 137.701 136.755C137.799 136.93 137.988 137.016 138.267 137.016C138.61 137.016 139.039 136.897 139.557 136.652C140.072 136.409 140.629 136.089 141.225 135.69C141.824 135.295 142.445 134.838 143.092 134.323C143.738 133.81 144.382 133.275 145.02 132.724C145.657 132.169 146.268 131.618 146.85 131.066C147.432 130.512 147.95 130.005 148.41 129.54C148.541 129.403 148.697 129.306 148.875 129.25C149.053 129.191 149.209 129.163 149.34 129.163C149.666 129.163 149.939 129.3 150.151 129.57C150.363 129.84 150.468 130.2 150.468 130.645C150.468 131.052 150.354 131.509 150.126 132.013C149.897 132.517 149.496 133.013 148.922 133.495C147.875 134.64 146.819 135.724 145.755 136.752C144.691 137.78 143.632 138.685 142.576 139.471C141.521 140.256 140.473 140.88 139.434 141.348C138.395 141.813 137.384 142.045 136.4 142.045C135.729 142.045 135.169 141.939 134.718 141.724C134.267 141.51 133.907 141.22 133.637 140.852C133.367 140.485 133.175 140.047 133.06 139.543C132.946 139.039 132.888 138.507 132.888 137.944C132.888 136.994 133.007 136.019 133.244 135.022C133.481 134.025 133.762 133.108 134.091 132.275C134.665 130.762 135.244 129.261 135.835 127.768C136.423 126.275 136.963 124.907 137.456 123.667L144.894 104.908C145.189 104.153 145.585 103.618 146.086 103.309C146.585 103 147.089 102.844 147.596 102.844C148.103 102.844 148.566 103.008 148.984 103.337C149.401 103.666 149.61 104.201 149.61 104.936C149.61 105.284 149.541 105.655 149.401 106.042C149.262 106.429 149.087 106.847 148.875 107.293C148.465 108.204 147.978 109.318 147.415 110.636C146.85 111.953 146.245 113.388 145.599 114.94C144.953 116.491 144.29 118.104 143.61 119.781C142.93 121.458 142.267 123.091 141.621 124.681C140.975 126.272 140.37 127.779 139.805 129.202C139.234 130.629 138.746 131.866 138.339 132.913V132.913Z" fill="white" stroke="white" stroke-width="0.264085" stroke-miterlimit="10"/>
<path d="M173.13 127.648C173.359 127.492 173.573 127.367 173.768 127.269C173.963 127.172 174.153 127.124 174.334 127.124C174.693 127.124 174.963 127.286 175.144 127.603C175.325 127.924 175.414 128.317 175.414 128.782C175.414 129.286 175.306 129.799 175.083 130.322C174.863 130.846 174.531 131.281 174.088 131.632C172.336 133.183 170.773 134.598 169.4 135.877C168.024 137.156 166.729 138.256 165.508 139.178C164.288 140.1 163.099 140.811 161.937 141.315C160.776 141.819 159.53 142.07 158.204 142.07C156.959 142.07 155.998 141.797 155.318 141.256C154.639 140.713 154.299 139.966 154.299 139.017V138.799C154.299 138.732 154.307 138.649 154.324 138.551C154.388 137.969 154.644 137.301 155.084 136.546C155.527 135.791 156.059 135.005 156.68 134.189C157.302 133.373 157.965 132.551 158.67 131.718C159.374 130.885 160.023 130.094 160.622 129.347C161.218 128.601 161.714 127.918 162.107 127.297C162.5 126.676 162.698 126.174 162.698 125.784C162.698 125.55 162.614 125.367 162.453 125.233C162.288 125.096 162.018 125.029 161.642 125.029C160.987 125.029 160.313 125.199 159.617 125.539C158.92 125.879 158.232 126.333 157.555 126.904C156.875 127.475 156.212 128.13 155.566 128.868C154.92 129.606 154.315 130.37 153.75 131.166C153.184 131.963 152.669 132.76 152.204 133.565C151.739 134.37 151.34 135.111 151.014 135.791C150.917 136.005 150.778 136.306 150.596 136.693C150.415 137.08 150.22 137.518 150.009 138.003C149.794 138.487 149.571 138.986 149.332 139.498C149.095 140.014 148.878 140.499 148.683 140.953C148.485 141.409 148.309 141.813 148.153 142.176C147.997 142.535 147.886 142.78 147.822 142.917C147.738 143.092 147.605 143.421 147.415 143.905C147.226 144.39 147.011 144.956 146.763 145.608C146.518 146.257 146.259 146.939 145.992 147.658C145.721 148.377 145.468 149.054 145.231 149.694C144.994 150.335 144.785 150.895 144.604 151.38C144.423 151.864 144.309 152.193 144.259 152.369C144.095 152.873 143.902 153.346 143.682 153.795C143.462 154.241 143.209 154.633 142.922 154.973C142.635 155.313 142.309 155.583 141.938 155.787C141.571 155.99 141.156 156.09 140.699 156.09C140.108 156.09 139.624 155.948 139.236 155.67C138.852 155.388 138.66 154.851 138.66 154.057C138.66 153.669 138.71 153.271 138.807 152.864C138.905 152.458 139.03 152.054 139.175 151.658C139.323 151.26 139.473 150.873 139.629 150.497C139.785 150.118 139.927 149.756 140.058 149.405C140.941 147.466 141.844 145.521 142.76 143.574C143.677 141.624 144.557 139.696 145.398 137.785C146.242 135.877 147.022 133.999 147.744 132.158C148.463 130.317 149.062 128.551 149.535 126.865C149.666 126.517 149.847 126.021 150.076 125.38C150.304 124.74 150.566 124.11 150.861 123.489C151.156 122.868 151.488 122.33 151.856 121.876C152.223 121.419 152.622 121.194 153.045 121.194C153.7 121.194 154.173 121.344 154.469 121.645C154.764 121.946 154.912 122.386 154.912 122.968C154.912 123.085 154.895 123.269 154.861 123.52C154.828 123.77 154.786 124.038 154.739 124.319C154.689 124.6 154.636 124.868 154.58 125.119C154.522 125.369 154.469 125.553 154.421 125.67C155.026 125.01 155.68 124.358 156.385 123.706C157.09 123.057 157.817 122.469 158.572 121.946C159.324 121.422 160.093 120.996 160.879 120.664C161.664 120.335 162.45 120.171 163.235 120.171C163.776 120.171 164.311 120.249 164.843 120.405C165.375 120.561 165.848 120.787 166.266 121.088C166.684 121.389 167.024 121.767 167.286 122.221C167.548 122.678 167.679 123.205 167.679 123.807C167.679 124.603 167.478 125.45 167.077 126.353C166.676 127.255 166.171 128.161 165.567 129.072C164.96 129.982 164.305 130.871 163.603 131.732C162.898 132.595 162.241 133.381 161.625 134.089C161.012 134.796 160.497 135.398 160.079 135.891C159.661 136.387 159.444 136.721 159.427 136.894C159.427 137.128 159.502 137.314 159.647 137.462C159.792 137.61 160.04 137.679 160.386 137.679C160.664 137.679 161.074 137.523 161.614 137.214C162.154 136.905 162.912 136.367 163.884 135.601C164.857 134.835 166.093 133.807 167.592 132.517C169.091 131.23 170.938 129.606 173.13 127.648V127.648Z" fill="white" stroke="white" stroke-width="0.264085" stroke-miterlimit="10"/>
</svg>
