<svg width="257" height="257" viewBox="0 0 257 257" fill="none" xmlns="http://www.w3.org/2000/svg">
<rect x="0.776123" y="1.28223" width="255" height="255" rx="31.5" fill="#F4F2ED"/>
<rect x="0.776123" y="1.28223" width="255" height="255" rx="31.5" stroke="#F4F2ED"/>
<path d="M57.5575 57.094H199.78V199.316H57.5575V57.094Z" fill="#6762A5"/>
<path d="M138.198 169.159V124.365C138.198 124.365 141.11 113.647 102.306 128.751C102.238 128.945 102.238 87.3248 102.238 87.3248L114.919 87.2451V113.909C114.919 113.909 150.417 99.9256 150.417 124.513V169.159H138.198ZM145.422 103.384H131.974C136.815 97.4681 141.196 87.3248 141.196 87.3248H155.099C155.105 87.3248 152.721 93.9353 145.422 103.384ZM102.466 169.085V143.576L115.22 156.331L102.466 169.085Z" fill="white"/>
</svg>
