<svg width="257" height="257" viewBox="0 0 257 257" fill="none" xmlns="http://www.w3.org/2000/svg">
<rect x="1.08948" y="1.2821" width="255" height="255" rx="31.5" fill="#F4F2ED"/>
<rect x="1.08948" y="1.2821" width="255" height="255" rx="31.5" stroke="#F4F2ED"/>
<path d="M128.909 57.0939L67.3608 92.7132L67.3686 163.843L129.055 199.316L190.602 163.696L190.603 92.6055L128.908 57.0939H128.909Z" fill="#0E83CD"/>
<path d="M100.035 159.001L100.039 128.243L100.044 97.4843L105.632 94.2163L110.985 97.3838L111.043 109.953L111.101 122.522H146.868L146.926 109.961L146.984 97.4003L152.419 94.2593L157.93 97.4848L157.927 128.222L157.924 158.96L152.469 162.007L146.983 158.921L146.925 146.422L146.867 133.923H111.101L111.043 146.418L111.059 158.976L105.574 162.194L100.036 159.001H100.035Z" fill="white"/>
</svg>
