<svg width="256" height="257" viewBox="0 0 256 257" fill="none" xmlns="http://www.w3.org/2000/svg">
<rect x="0.5" y="0.68811" width="255" height="255" rx="31.5" fill="#F4F2ED"/>
<rect x="0.5" y="0.68811" width="255" height="255" rx="31.5" stroke="#F4F2ED"/>
<path d="M63.2073 64.2034H193.578V191.019H63.2073V64.2034Z" fill="url(#paint0_radial_22_669)"/>
<path d="M63.2072 64.2033H193.578V191.018H63.2072V64.2033ZM57.2814 196.945H199.504V58.2775H57.2814V196.945ZM147.237 115.877C146.348 115.463 145.163 115.285 143.741 115.285C136.096 115.285 130.763 121.152 130.763 130.929C130.763 142.07 136.215 146.574 143.03 146.574C144.511 146.574 146.052 146.396 147.237 145.863V115.877ZM144.096 106.218C145.341 106.218 146.052 106.218 147.237 106.337V90.5738C147.237 90.159 147.533 89.9812 147.829 89.9812H157.429C157.903 89.9812 158.022 90.159 158.022 90.4553V145.863C158.022 147.522 158.022 149.596 158.318 151.848C158.318 152.263 158.2 152.322 157.785 152.559C152.689 154.989 147.296 156.056 142.259 156.056C129.163 156.056 119.8 147.937 119.8 131.404C119.741 117.24 129.104 106.218 144.096 106.218V106.218ZM109.311 154.396C109.311 154.989 109.193 155.167 108.541 155.167H99.4149C98.8223 155.167 98.6444 154.87 98.6444 154.396V90.7515C98.6444 90.159 98.9406 89.981 99.4149 89.981H108.6C109.074 89.981 109.311 90.1588 109.311 90.6923V154.396Z" fill="#FF408C"/>
<defs>
<radialGradient id="paint0_radial_22_669" cx="0" cy="0" r="1" gradientUnits="userSpaceOnUse" gradientTransform="translate(106.145 92.6228) scale(99.0816 95.9292)">
<stop stop-color="#4B2B36" stop-opacity="0.98"/>
<stop offset="1" stop-color="#250012"/>
</radialGradient>
</defs>
</svg>
