<svg width="257" height="256" viewBox="0 0 257 256" fill="none" xmlns="http://www.w3.org/2000/svg">
<rect x="1.36548" y="0.5" width="255" height="255" rx="31.5" fill="#F4F2ED"/>
<rect x="1.36548" y="0.5" width="255" height="255" rx="31.5" stroke="#F4F2ED"/>
<path d="M199.881 130.53C199.881 119.287 196.974 108.725 191.876 99.5457C213.604 50.3712 168.595 57.5734 166.089 58.064C156.553 59.9301 147.731 62.9257 139.594 66.7234C138.394 66.6557 137.186 66.6184 135.97 66.6184C105.601 66.6184 80.1795 87.8007 73.6733 116.197C89.68 98.2396 100.882 90.994 107.59 88.0951C106.527 89.0466 105.476 90.013 104.44 90.994C104.097 91.3179 103.766 91.6468 103.428 91.9724C102.748 92.6228 102.075 93.2793 101.407 93.9418C101.012 94.3346 100.629 94.7307 100.24 95.1268C99.6532 95.7216 99.0708 96.3207 98.4928 96.924C98.085 97.3518 97.6873 97.7802 97.2873 98.2085C96.7525 98.7794 96.2219 99.3542 95.6956 99.9329C95.29 100.381 94.89 100.829 94.4911 101.278C93.5913 102.291 92.7031 103.313 91.8267 104.345C91.3699 104.885 90.9162 105.427 90.4656 105.971C90.0689 106.451 89.6734 106.93 89.285 107.41C88.8686 107.925 88.4549 108.442 88.0439 108.962C87.6461 109.463 87.2489 109.963 86.8606 110.463C86.4906 110.94 86.1317 111.414 85.77 111.889C85.3617 112.426 84.95 112.963 84.5528 113.497C84.2684 113.879 83.9956 114.258 83.7161 114.639C81.3078 117.924 79.0014 121.282 76.8 124.71C76.7945 124.717 76.7889 124.725 76.785 124.734C76.2464 125.573 75.714 126.417 75.1878 127.265C75.16 127.31 75.1311 127.356 75.1033 127.402C74.5939 128.224 74.0903 129.049 73.5928 129.879L73.5406 129.965C72.2929 132.043 71.0822 134.143 69.9089 136.264C64.1528 146.695 61.3505 153.982 61.2294 154.415C43.0527 219.399 99.7828 191.957 107.699 187.86C116.223 192.071 125.818 194.441 135.97 194.441C163.76 194.441 187.403 176.702 196.205 151.931H162.623C157.655 160.325 148.088 166.011 137.098 166.011C120.996 166.011 107.943 153.811 107.943 138.761H199.355C199.701 136.066 199.881 133.319 199.881 130.53ZM187.942 67.6373C193.446 71.3523 197.86 77.1857 190.279 96.8318C183.008 85.1385 172.069 75.9657 159.067 70.924C164.982 68.0679 179.628 62.0262 187.942 67.6373V67.6373ZM70.9806 187.73C66.4972 183.132 65.705 171.936 75.5972 151.533C80.5889 165.886 90.5506 177.912 103.426 185.544C97.0228 189.069 80.0228 197.005 70.9806 187.73V187.73ZM107.802 121.285C108.313 106.657 121.043 94.9457 136.684 94.9457C152.325 94.9457 165.055 106.657 165.566 121.285H107.802Z" fill="#1EBBEE"/>
</svg>
