<svg width="256" height="257" viewBox="0 0 256 257" fill="none" xmlns="http://www.w3.org/2000/svg">
<rect x="0.5" y="0.936035" width="255" height="255" rx="31.5" fill="#F4F2ED"/>
<rect x="0.5" y="0.936035" width="255" height="255" rx="31.5" stroke="#F4F2ED"/>
<g opacity="0.783251">
<g filter="url(#filter0_f_307_595)">
<path d="M115.849 62.7373L63.6414 116.212C43.8734 135.981 76.44 134.333 88.2248 141.81C93.6737 145.358 70.7377 149.92 75.4262 154.608C79.9881 159.297 102.924 163.605 107.486 168.167C112.048 172.856 98.2355 177.798 102.797 182.486C107.233 187.175 117.877 182.74 119.778 193.384C121.172 201.241 139.292 197.312 147.402 190.596C152.471 186.288 138.659 186.288 143.221 181.599C154.625 170.068 164.763 176.404 168.944 165.759C171.225 160.057 151.711 156.002 156.906 152.327C169.325 143.584 214.943 139.148 193.908 118.113L139.799 62.7373C133.083 56.4014 122.059 56.4014 115.849 62.7373ZM175.787 165.759C175.787 168.42 196.442 169.941 195.302 165.126C193.654 157.016 178.068 157.649 175.787 165.759ZM87.7179 179.825C92.4065 183.88 99.5027 178.938 101.784 173.236C97.2218 167.28 80.3683 173.616 87.7179 179.825ZM173.253 171.335C167.424 176.657 174.267 182.233 179.969 178.558C181.49 177.544 179.842 172.602 173.253 171.335Z" fill="black"/>
</g>
<g opacity="0.576355" filter="url(#filter1_f_307_595)">
<path d="M115.849 63.9749L63.6414 117.45C43.8734 137.218 76.44 135.571 88.2248 143.047C93.6737 146.595 70.7377 151.157 75.4262 155.846C79.9881 160.534 102.924 164.843 107.486 169.405C112.048 174.093 98.2355 179.035 102.797 183.724C107.233 188.412 117.877 183.977 119.778 194.622C121.172 202.478 139.292 198.55 147.402 191.834C152.471 187.525 138.659 187.525 143.221 182.837C154.625 171.305 164.763 177.641 168.944 166.997C171.225 161.295 151.711 157.24 156.906 153.565C169.325 144.821 214.943 140.386 193.908 119.351L139.799 63.9749C133.083 57.639 122.059 57.639 115.849 63.9749ZM175.787 166.997C175.787 169.658 196.442 171.179 195.302 166.363C193.654 158.253 178.068 158.887 175.787 166.997ZM87.7179 181.063C92.4065 185.118 99.5027 180.176 101.784 174.473C97.2218 168.518 80.3683 174.853 87.7179 181.063ZM173.253 172.573C167.424 177.895 174.267 183.47 179.969 179.795C181.49 178.782 179.842 173.84 173.253 172.573Z" fill="black"/>
</g>
</g>
<path d="M115.849 61.4998L63.6414 114.975C43.8734 134.743 76.44 133.096 88.2248 140.572C93.6737 144.12 70.7377 148.682 75.4262 153.371C79.9881 158.059 102.924 162.368 107.486 166.929C112.048 171.618 98.2355 176.56 102.797 181.249C107.233 185.937 117.877 181.502 119.778 192.146C121.172 200.003 139.292 196.075 147.402 189.359C152.471 185.05 138.659 185.05 143.221 180.362C154.625 168.83 164.763 175.166 168.944 164.522C171.225 158.819 151.711 154.764 156.906 151.09C169.325 142.346 214.943 137.911 193.908 116.876L139.799 61.4998C133.083 55.1639 122.059 55.1639 115.849 61.4998ZM175.787 164.522C175.787 167.183 196.442 168.704 195.302 163.888C193.654 155.778 178.068 156.412 175.787 164.522ZM87.7179 178.588C92.4065 182.643 99.5027 177.701 101.784 171.998C97.2218 166.042 80.3683 172.378 87.7179 178.588ZM173.253 170.097C167.424 175.42 174.267 180.995 179.969 177.32C181.49 176.307 179.842 171.365 173.253 170.097Z" fill="black"/>
<mask id="mask0_307_595" style="mask-type:luminance" maskUnits="userSpaceOnUse" x="58" y="57" width="141" height="139">
<path d="M115.968 62.1156L64.2537 115.085C44.6725 134.666 76.9312 133.034 88.6046 140.44C94.002 143.955 71.2828 148.473 75.9271 153.118C80.4458 157.762 103.165 162.03 107.684 166.548C112.202 171.193 98.5207 176.088 103.039 180.732C107.433 185.376 117.976 180.983 119.859 191.527C121.24 199.309 139.189 195.418 147.223 188.765C152.243 184.498 138.562 184.498 143.08 179.853C154.377 168.431 164.419 174.707 168.561 164.163C170.82 158.515 151.49 154.498 156.637 150.858C168.937 142.197 214.125 137.804 193.288 116.968L139.691 62.1156C133.039 55.8396 122.118 55.8396 115.968 62.1156ZM103.542 143.327C104.671 143.327 142.202 148.348 127.767 152.239C122.244 153.745 96.8889 143.327 103.542 143.327ZM175.339 164.163C175.339 166.799 195.799 168.306 194.669 163.536C193.037 155.503 177.598 156.13 175.339 164.163ZM88.1025 178.096C92.7468 182.113 99.7759 177.218 102.035 171.569C97.5165 165.67 80.8224 171.946 88.1025 178.096ZM172.829 169.686C167.055 174.958 173.833 180.481 179.481 176.841C180.987 175.837 179.356 170.942 172.829 169.686Z" fill="white"/>
</mask>
<g mask="url(#mask0_307_595)">
<path d="M115.968 62.1156L64.2537 115.085C44.6725 134.666 76.9312 133.034 88.6046 140.44C94.002 143.955 71.2828 148.473 75.9271 153.118C80.4458 157.762 103.165 162.03 107.684 166.548C112.202 171.193 98.5207 176.088 103.039 180.732C107.433 185.376 117.976 180.983 119.859 191.527C121.24 199.309 139.189 195.418 147.223 188.765C152.243 184.498 138.562 184.498 143.08 179.853C154.377 168.431 164.419 174.707 168.561 164.163C170.82 158.515 151.49 154.498 156.637 150.858C168.937 142.197 214.125 137.804 193.288 116.968L139.691 62.1156C133.039 55.8396 122.118 55.8396 115.968 62.1156ZM103.542 143.327C104.671 143.327 142.202 148.348 127.767 152.239C122.244 153.745 96.8889 143.327 103.542 143.327ZM175.339 164.163C175.339 166.799 195.799 168.306 194.669 163.536C193.037 155.503 177.598 156.13 175.339 164.163ZM88.1025 178.096C92.7468 182.113 99.7759 177.218 102.035 171.569C97.5165 165.67 80.8224 171.946 88.1025 178.096ZM172.829 169.686C167.055 174.958 173.833 180.481 179.481 176.841C180.987 175.837 179.356 170.942 172.829 169.686Z" fill="url(#paint0_linear_307_595)"/>
</g>
<path opacity="0.505263" d="M68.2859 117.939C54.091 132.006 79.028 128.042 98.2104 135.587L137.854 65.8913C131.843 59.753 124.17 60.2645 118.671 65.8913L68.2859 117.939Z" fill="url(#paint1_linear_307_595)"/>
<path d="M136.631 65.3013L157.286 86.3366C159.187 88.2373 159.187 92.1656 158.047 93.3061L147.782 84.9427L145.755 97.2344L137.265 92.6725L123.453 101.416L118.891 83.0419L111.541 99.0084L93.1668 98.8817C89.6187 98.8817 90.1256 95.2069 93.8004 91.532C101.023 83.5488 115.089 69.9899 119.524 65.3013C124.086 60.6127 132.069 60.7395 136.631 65.3013Z" fill="url(#paint2_linear_307_595)"/>
<path opacity="0.216749" fill-rule="evenodd" clip-rule="evenodd" d="M108.282 164.673C108.282 164.673 110.524 168.096 110.295 169.707C109.847 172.867 103.04 174.444 104.548 177.257C106.038 180.037 111.409 178.461 115.916 181.368C120.405 184.263 119.198 190.161 122.46 191.645C128.822 194.539 145.531 186.654 144.692 186.821C143.853 186.989 128.202 190.241 124.678 187.389C120.661 184.136 119.509 181.865 116.545 179.942C113.769 178.14 109.868 177.405 108.96 175.929C108.052 174.454 110.778 172.55 110.966 169.707C111.08 167.999 108.282 164.673 108.282 164.673Z" fill="url(#paint3_radial_307_595)"/>
<g opacity="0.275862" filter="url(#filter2_f_307_595)">
<path fill-rule="evenodd" clip-rule="evenodd" d="M108.282 164.673C108.282 164.673 110.524 168.096 110.295 169.707C109.847 172.867 103.04 174.444 104.548 177.257C106.038 180.037 111.409 178.461 115.916 181.368C120.405 184.263 119.198 190.161 122.46 191.645C128.822 194.539 145.531 186.654 144.692 186.821C116.947 186.927 122.125 179.778 111.428 175.076C109.882 174.397 110.778 172.55 110.966 169.707C111.08 167.999 108.282 164.673 108.282 164.673Z" fill="url(#paint4_radial_307_595)"/>
</g>
<path opacity="0.453202" fill-rule="evenodd" clip-rule="evenodd" d="M155.431 150.075C180.333 140.911 188.334 139.652 196.54 131.451C187.035 139.473 166.942 143.777 150.565 150.914L155.431 150.075Z" fill="url(#paint5_radial_307_595)"/>
<g opacity="0.512315" filter="url(#filter3_f_307_595)">
<path fill-rule="evenodd" clip-rule="evenodd" d="M155.431 148.901C196.441 134.367 189.508 134.45 196.54 130.276C183.5 135.267 159.133 135.799 150.565 149.74L155.431 148.901Z" fill="url(#paint6_radial_307_595)"/>
</g>
<path opacity="0.285714" d="M191.254 160.52C191.254 160.954 190.693 161.37 189.694 161.677C188.695 161.984 187.34 162.156 185.927 162.156C184.514 162.156 183.159 161.984 182.16 161.677C181.161 161.37 180.599 160.954 180.599 160.52C180.599 160.086 181.161 159.67 182.16 159.363C183.159 159.057 184.514 158.884 185.927 158.884C187.34 158.884 188.695 159.057 189.694 159.363C190.693 159.67 191.254 160.086 191.254 160.52Z" fill="url(#paint7_linear_307_595)"/>
<g opacity="0.620689" filter="url(#filter4_f_307_595)">
<path d="M193.1 162.408C193.1 163.342 192.344 164.239 190.999 164.899C189.654 165.56 187.829 165.931 185.927 165.931C184.024 165.931 182.2 165.56 180.855 164.899C179.51 164.239 178.754 163.342 178.754 162.408C178.754 161.473 179.51 160.577 180.855 159.916C182.2 159.255 184.024 158.884 185.927 158.884C187.829 158.884 189.654 159.255 190.999 159.916C192.344 160.577 193.1 161.473 193.1 162.408Z" fill="url(#paint8_linear_307_595)"/>
</g>
<g filter="url(#filter5_f_307_595)">
<path fill-rule="evenodd" clip-rule="evenodd" d="M176.153 164.366C178.683 166.705 192.768 167.905 195.071 163.695C190.55 166.906 180.496 165.777 176.153 164.366Z" fill="url(#paint9_radial_307_595)"/>
</g>
<path opacity="0.285714" d="M176.203 172.171C176.326 172.414 176.404 172.676 176.433 172.943C176.463 173.21 176.442 173.476 176.372 173.727C176.303 173.978 176.186 174.208 176.029 174.405C175.871 174.601 175.676 174.76 175.455 174.872C175.233 174.985 174.99 175.048 174.738 175.059C174.487 175.07 174.232 175.028 173.989 174.936C173.745 174.843 173.518 174.703 173.32 174.521C173.122 174.34 172.957 174.122 172.834 173.88C172.711 173.637 172.632 173.375 172.603 173.108C172.574 172.841 172.595 172.575 172.665 172.324C172.734 172.073 172.851 171.843 173.008 171.646C173.166 171.45 173.361 171.291 173.582 171.179C173.803 171.066 174.047 171.003 174.298 170.992C174.55 170.981 174.805 171.023 175.048 171.115C175.291 171.208 175.519 171.348 175.717 171.53C175.915 171.711 176.08 171.929 176.203 172.171Z" fill="url(#paint10_linear_307_595)"/>
<g opacity="0.620689" filter="url(#filter6_f_307_595)">
<path d="M177.202 172.623C177.386 172.986 177.504 173.377 177.551 173.775C177.597 174.172 177.57 174.568 177.472 174.94C177.374 175.313 177.206 175.654 176.977 175.944C176.749 176.234 176.466 176.467 176.143 176.631C175.82 176.795 175.464 176.886 175.095 176.898C174.726 176.911 174.352 176.845 173.993 176.704C173.635 176.564 173.3 176.351 173.006 176.079C172.713 175.806 172.468 175.479 172.284 175.117C172.1 174.754 171.981 174.363 171.935 173.966C171.889 173.568 171.915 173.172 172.014 172.8C172.112 172.428 172.28 172.087 172.508 171.797C172.736 171.506 173.02 171.273 173.343 171.109C173.666 170.945 174.022 170.855 174.391 170.842C174.76 170.829 175.134 170.895 175.492 171.036C175.851 171.177 176.186 171.389 176.479 171.662C176.773 171.934 177.018 172.261 177.202 172.623Z" fill="url(#paint11_linear_307_595)"/>
</g>
<g filter="url(#filter7_f_307_595)">
<path fill-rule="evenodd" clip-rule="evenodd" d="M172.698 176.899C174.731 178.49 182.384 178.694 179.481 174.069C180.238 177.691 175.011 177.308 172.698 176.899Z" fill="url(#paint12_radial_307_595)"/>
</g>
<path fill-rule="evenodd" clip-rule="evenodd" d="M78.2473 152.928C78.2473 152.511 104.319 160.873 108.785 165.344C105.113 161.761 86.5296 153.521 83.7005 153.431C80.8713 153.341 78.5829 153.095 78.2473 152.928Z" fill="url(#paint13_radial_307_595)"/>
<path opacity="0.285714" d="M97.8334 170.84C97.9349 171.142 97.5388 171.54 96.7323 171.946C95.9259 172.352 94.7751 172.734 93.5331 173.006C92.2912 173.279 91.0598 173.421 90.1098 173.4C89.1599 173.379 88.5692 173.198 88.4678 172.896C88.3663 172.594 88.7624 172.196 89.5688 171.79C90.3753 171.384 91.5261 171.002 92.768 170.729C94.01 170.457 95.2414 170.315 96.1913 170.336C97.1413 170.357 97.7319 170.538 97.8334 170.84Z" fill="url(#paint14_linear_307_595)"/>
<g opacity="0.620689" filter="url(#filter8_f_307_595)">
<path d="M99.8972 171.797C100.116 172.448 99.661 173.217 98.633 173.937C97.6051 174.656 96.0882 175.267 94.4159 175.634C92.7437 176.001 91.0531 176.095 89.7161 175.894C88.3792 175.694 87.5053 175.216 87.2868 174.566C87.0682 173.916 87.523 173.146 88.5509 172.427C89.5789 171.707 91.0958 171.097 92.768 170.729C94.4403 170.362 96.1308 170.269 97.4678 170.469C98.8048 170.669 99.6787 171.147 99.8972 171.797Z" fill="url(#paint15_linear_307_595)"/>
</g>
<g opacity="0.615764" filter="url(#filter9_f_307_595)">
<path fill-rule="evenodd" clip-rule="evenodd" d="M86.5949 175.076C86.5949 175.076 88.0066 178.869 91.8803 179.061C95.7991 179.256 100.272 174.358 100.647 172.601C99.9762 174.111 96.2242 178.664 91.3769 178.6C88.6252 178.563 86.5949 175.076 86.5949 175.076Z" fill="url(#paint16_radial_307_595)"/>
</g>
<g filter="url(#filter10_f_307_595)">
<path d="M127.642 58.609C123.716 58.609 119.868 60.0309 117.148 62.8066L64.9561 116.266C60.1844 121.038 59.0381 124.161 59.333 125.928C59.4805 126.812 59.9141 127.579 60.8378 128.383C61.7614 129.187 63.1586 129.975 64.8373 130.68C68.1947 132.089 72.7166 133.225 77.1528 134.442C81.5889 135.659 85.9341 136.944 89.2306 139.036C89.7332 139.363 90.2052 139.766 90.5374 140.342C90.8696 140.919 90.9863 141.681 90.8542 142.322C90.5901 143.606 89.7999 144.283 88.993 144.896C87.3793 146.124 85.162 147.143 82.9343 148.223C80.7066 149.302 78.4676 150.406 77.3508 151.311C76.7924 151.764 76.5903 152.171 76.5984 152.143C76.6065 152.115 76.4503 151.797 76.7172 152.064C77.4164 152.782 79.5989 154.013 82.3799 155.113C85.161 156.213 88.5646 157.325 92.0026 158.439C95.4406 159.554 98.9182 160.657 101.863 161.805C104.807 162.954 107.207 164.022 108.793 165.607C109.582 166.418 110.139 167.426 110.258 168.458C110.377 169.49 110.097 170.458 109.704 171.27C108.916 172.893 107.65 174.143 106.496 175.348C105.342 176.554 104.296 177.706 103.922 178.477C103.735 178.862 103.706 179.113 103.724 179.269C103.742 179.424 103.769 179.581 104.12 179.942C104.133 179.955 104.147 179.968 104.16 179.981C105.672 181.58 108.958 181.805 112.674 182.674C114.531 183.109 116.474 183.767 118.138 185.209C119.803 186.651 121.052 188.846 121.583 191.822C121.807 193.082 122.474 193.696 124.078 194.198C125.682 194.7 128.126 194.788 130.81 194.396C136.178 193.612 142.544 190.98 146.214 187.941C146.442 187.747 146.379 187.798 146.452 187.703C146.205 187.527 145.626 187.15 144.67 186.674C143.54 186.111 142.206 185.585 141.185 184.298C140.675 183.654 140.324 182.639 140.472 181.645C140.621 180.651 141.165 179.824 141.898 179.071C147.912 172.99 153.837 171.538 158.292 170.359C160.52 169.769 162.384 169.229 163.796 168.339C165.209 167.449 166.312 166.231 167.242 163.864C167.344 163.608 167.341 163.534 167.202 163.231C167.063 162.928 166.69 162.443 166.093 161.924C164.901 160.886 162.912 159.771 160.945 158.677C158.979 157.583 157.067 156.563 155.679 155.271C154.984 154.626 154.257 153.812 154.174 152.579C154.091 151.345 154.899 150.232 155.837 149.569C159.316 147.119 164.576 145.254 170.291 143.273C176.006 141.291 182.153 139.24 187.16 136.897C192.167 134.554 195.85 131.856 197.02 129.136C197.606 127.776 197.713 126.4 197.1 124.621C196.486 122.842 195.085 120.667 192.585 118.167L138.532 62.8462C138.518 62.8334 138.506 62.8193 138.492 62.8066C135.505 60.009 131.55 58.609 127.642 58.609ZM185.853 159.984C182.514 160.104 179.442 161.633 178.131 164.023C178.504 164.163 178.839 164.321 179.438 164.458C181.181 164.859 183.614 165.118 186.012 165.171C188.409 165.224 190.807 165.022 192.269 164.617C192.908 164.439 193.247 164.26 193.417 164.142C193.093 162.759 192.321 161.782 191.001 161.053C189.635 160.298 187.762 159.915 185.853 159.984ZM96.5169 171.468C93.8687 171.283 90.5402 172.338 88.9138 173.646C88.1006 174.3 87.7565 174.906 87.7258 175.309C87.6951 175.712 87.8237 176.249 88.9138 177.17C88.914 177.183 88.914 177.196 88.9138 177.209C90.6281 178.692 92.5662 178.537 94.7746 177.328C96.6258 176.314 98.2684 174.413 99.3681 172.418C98.6267 171.94 97.7404 171.553 96.5169 171.468ZM173.815 172.26C173.248 172.98 172.94 173.651 172.904 174.121C172.856 174.769 173.039 175.27 173.538 175.744C174.472 176.633 176.502 177.015 178.567 175.903C178.526 175.663 178.449 175.3 178.131 174.834C177.498 173.903 176.017 172.901 173.815 172.26Z" stroke="url(#paint17_radial_307_595)" stroke-width="0.435076"/>
</g>
<g opacity="0.325123" filter="url(#filter11_f_307_595)">
<path fill-rule="evenodd" clip-rule="evenodd" d="M99.0249 142.326C95.8749 143.256 85.6643 147.114 87.1135 150.061C88.5017 152.884 112.243 154.022 115.886 162.437C117.475 166.106 112.24 168.874 113.566 172.646C114.587 175.551 122.484 182.85 127.48 186.301C131.399 189.008 136.545 184.122 134.45 180.072C131.111 173.619 145.862 165.717 152.549 162.127C156.45 160.033 144.505 149.752 144.505 149.752L99.0249 142.326Z" fill="url(#paint18_linear_307_595)"/>
</g>
<path fill-rule="evenodd" clip-rule="evenodd" d="M100.19 145.176C103.018 147.253 108.6 146 111.952 147.51C119.998 151.133 129.889 155.17 128.069 148.022L126.021 149.723L125.981 146.482L121.227 147.643C121.227 147.643 117.544 144.687 115.856 143.712C115.503 143.509 113.692 145.351 113.692 145.351L113.366 143.394C111.013 143.144 108.683 143.033 106.631 143.05C101.713 143.089 98.3955 143.858 100.19 145.176Z" fill="url(#paint19_linear_307_595)"/>
<g opacity="0.477832" filter="url(#filter12_f_307_595)">
<path fill-rule="evenodd" clip-rule="evenodd" d="M153.013 151.763C151.924 155.771 166.396 161.218 165.311 163.984C162.923 170.073 149.857 165.925 139.864 178.679C138.433 180.506 141.875 187.033 141.411 186.259C140.947 185.486 137.411 180.095 138.317 177.442C141.16 169.122 168.645 166.021 163.609 162.05C160.714 159.766 150.302 153.457 153.013 151.763Z" fill="url(#paint20_radial_307_595)"/>
</g>
<path opacity="0.586207" d="M185.576 160C185.576 160.175 185.409 160.342 185.112 160.465C184.814 160.588 184.411 160.658 183.99 160.658C183.57 160.658 183.166 160.588 182.869 160.465C182.572 160.342 182.405 160.175 182.405 160C182.405 159.826 182.572 159.659 182.869 159.535C183.166 159.412 183.57 159.343 183.99 159.343C184.411 159.343 184.814 159.412 185.112 159.535C185.409 159.659 185.576 159.826 185.576 160Z" fill="white"/>
<path opacity="0.586207" d="M174.979 172.144C174.979 172.318 174.873 172.485 174.685 172.609C174.496 172.732 174.241 172.801 173.974 172.801C173.707 172.801 173.451 172.732 173.263 172.609C173.074 172.485 172.968 172.318 172.968 172.144C172.968 171.969 173.074 171.802 173.263 171.679C173.451 171.555 173.707 171.486 173.974 171.486C174.241 171.486 174.496 171.555 174.685 171.679C174.873 171.802 174.979 171.969 174.979 172.144Z" fill="white"/>
<path opacity="0.586207" d="M94.7708 171.564C94.7708 171.738 94.5834 171.905 94.2498 172.028C93.9161 172.152 93.4636 172.221 92.9918 172.221C92.52 172.221 92.0675 172.152 91.7339 172.028C91.4003 171.905 91.2128 171.738 91.2128 171.564C91.2128 171.389 91.4003 171.222 91.7339 171.099C92.0675 170.975 92.52 170.906 92.9918 170.906C93.4636 170.906 93.9161 170.975 94.2498 171.099C94.5834 171.222 94.7708 171.389 94.7708 171.564Z" fill="white"/>
<path opacity="0.251232" d="M93.7653 142.636C84.7011 148.242 70.6087 150.282 86.0306 154.006C84.1935 149.915 90.0078 150.366 93.7653 142.636Z" fill="url(#paint21_linear_307_595)"/>
<g opacity="0.363158" filter="url(#filter13_f_307_595)">
<path d="M125.942 193.685C125.942 193.685 139.921 192.368 143.155 188.335C145.047 185.975 135.636 183.221 137.667 180.909C145.309 172.213 151.732 172.576 160.593 168.934C169.453 165.291 166.184 163.508 163.318 161.908C158.409 159.17 147.485 156.251 151.099 149.752C154.735 143.211 186.581 134.128 186.581 134.128C196.232 130.831 195.021 124.868 190.294 119.896L161.83 91.587C161.83 91.587 163.243 118.435 157.499 129.951C150.401 144.182 112.611 160.062 128.417 161.818C133.986 162.437 136.659 164.337 138.936 168.624C143.624 177.454 125.942 193.685 125.942 193.685Z" fill="url(#paint22_linear_307_595)"/>
</g>
<defs>
<filter id="filter0_f_307_595" x="55.978" y="56.5501" width="144.829" height="142.618" filterUnits="userSpaceOnUse" color-interpolation-filters="sRGB">
<feFlood flood-opacity="0" result="BackgroundImageFix"/>
<feBlend mode="normal" in="SourceGraphic" in2="BackgroundImageFix" result="shape"/>
<feGaussianBlur stdDeviation="0.71766" result="effect1_foregroundBlur_307_595"/>
</filter>
<filter id="filter1_f_307_595" x="51.1936" y="53.0032" width="154.398" height="152.187" filterUnits="userSpaceOnUse" color-interpolation-filters="sRGB">
<feFlood flood-opacity="0" result="BackgroundImageFix"/>
<feBlend mode="normal" in="SourceGraphic" in2="BackgroundImageFix" result="shape"/>
<feGaussianBlur stdDeviation="3.10986" result="effect1_foregroundBlur_307_595"/>
</filter>
<filter id="filter2_f_307_595" x="102.483" y="162.825" width="44.0878" height="31.3071" filterUnits="userSpaceOnUse" color-interpolation-filters="sRGB">
<feFlood flood-opacity="0" result="BackgroundImageFix"/>
<feBlend mode="normal" in="SourceGraphic" in2="BackgroundImageFix" result="shape"/>
<feGaussianBlur stdDeviation="0.923957" result="effect1_foregroundBlur_307_595"/>
</filter>
<filter id="filter3_f_307_595" x="148.564" y="128.275" width="49.9756" height="23.4647" filterUnits="userSpaceOnUse" color-interpolation-filters="sRGB">
<feFlood flood-opacity="0" result="BackgroundImageFix"/>
<feBlend mode="normal" in="SourceGraphic" in2="BackgroundImageFix" result="shape"/>
<feGaussianBlur stdDeviation="1.00025" result="effect1_foregroundBlur_307_595"/>
</filter>
<filter id="filter4_f_307_595" x="177.845" y="157.976" width="16.1628" height="8.86395" filterUnits="userSpaceOnUse" color-interpolation-filters="sRGB">
<feFlood flood-opacity="0" result="BackgroundImageFix"/>
<feBlend mode="normal" in="SourceGraphic" in2="BackgroundImageFix" result="shape"/>
<feGaussianBlur stdDeviation="0.454186" result="effect1_foregroundBlur_307_595"/>
</filter>
<filter id="filter5_f_307_595" x="175.379" y="162.921" width="20.4672" height="4.34396" filterUnits="userSpaceOnUse" color-interpolation-filters="sRGB">
<feFlood flood-opacity="0" result="BackgroundImageFix"/>
<feBlend mode="normal" in="SourceGraphic" in2="BackgroundImageFix" result="shape"/>
<feGaussianBlur stdDeviation="0.387214" result="effect1_foregroundBlur_307_595"/>
</filter>
<filter id="filter6_f_307_595" x="171.316" y="170.243" width="6.85433" height="7.25377" filterUnits="userSpaceOnUse" color-interpolation-filters="sRGB">
<feFlood flood-opacity="0" result="BackgroundImageFix"/>
<feBlend mode="normal" in="SourceGraphic" in2="BackgroundImageFix" result="shape"/>
<feGaussianBlur stdDeviation="0.29865" result="effect1_foregroundBlur_307_595"/>
</filter>
<filter id="filter7_f_307_595" x="172.189" y="173.56" width="8.45024" height="4.87245" filterUnits="userSpaceOnUse" color-interpolation-filters="sRGB">
<feFlood flood-opacity="0" result="BackgroundImageFix"/>
<feBlend mode="normal" in="SourceGraphic" in2="BackgroundImageFix" result="shape"/>
<feGaussianBlur stdDeviation="0.254613" result="effect1_foregroundBlur_307_595"/>
</filter>
<filter id="filter8_f_307_595" x="86.4948" y="169.627" width="14.1944" height="7.10868" filterUnits="userSpaceOnUse" color-interpolation-filters="sRGB">
<feFlood flood-opacity="0" result="BackgroundImageFix"/>
<feBlend mode="normal" in="SourceGraphic" in2="BackgroundImageFix" result="shape"/>
<feGaussianBlur stdDeviation="0.369182" result="effect1_foregroundBlur_307_595"/>
</filter>
<filter id="filter9_f_307_595" x="85.9676" y="171.974" width="15.307" height="7.72007" filterUnits="userSpaceOnUse" color-interpolation-filters="sRGB">
<feFlood flood-opacity="0" result="BackgroundImageFix"/>
<feBlend mode="normal" in="SourceGraphic" in2="BackgroundImageFix" result="shape"/>
<feGaussianBlur stdDeviation="0.313625" result="effect1_foregroundBlur_307_595"/>
</filter>
<filter id="filter10_f_307_595" x="58.4912" y="57.8104" width="139.82" height="137.629" filterUnits="userSpaceOnUse" color-interpolation-filters="sRGB">
<feFlood flood-opacity="0" result="BackgroundImageFix"/>
<feBlend mode="normal" in="SourceGraphic" in2="BackgroundImageFix" result="shape"/>
<feGaussianBlur stdDeviation="0.290557" result="effect1_foregroundBlur_307_595"/>
</filter>
<filter id="filter11_f_307_595" x="83.7654" y="139.118" width="72.7747" height="51.1715" filterUnits="userSpaceOnUse" color-interpolation-filters="sRGB">
<feFlood flood-opacity="0" result="BackgroundImageFix"/>
<feBlend mode="normal" in="SourceGraphic" in2="BackgroundImageFix" result="shape"/>
<feGaussianBlur stdDeviation="1.60405" result="effect1_foregroundBlur_307_595"/>
</filter>
<filter id="filter12_f_307_595" x="137.089" y="150.683" width="29.3597" height="36.7197" filterUnits="userSpaceOnUse" color-interpolation-filters="sRGB">
<feFlood flood-opacity="0" result="BackgroundImageFix"/>
<feBlend mode="normal" in="SourceGraphic" in2="BackgroundImageFix" result="shape"/>
<feGaussianBlur stdDeviation="0.539901" result="effect1_foregroundBlur_307_595"/>
</filter>
<filter id="filter13_f_307_595" x="122.178" y="89.1769" width="74.1025" height="106.918" filterUnits="userSpaceOnUse" color-interpolation-filters="sRGB">
<feFlood flood-opacity="0" result="BackgroundImageFix"/>
<feBlend mode="normal" in="SourceGraphic" in2="BackgroundImageFix" result="shape"/>
<feGaussianBlur stdDeviation="1.20502" result="effect1_foregroundBlur_307_595"/>
</filter>
<linearGradient id="paint0_linear_307_595" x1="151.137" y1="71.5296" x2="123.374" y2="96.6336" gradientUnits="userSpaceOnUse">
<stop stop-color="#C0CDF9"/>
<stop offset="1" stop-color="#07092D" stop-opacity="0.288043"/>
</linearGradient>
<linearGradient id="paint1_linear_307_595" x1="89.0028" y1="89.9332" x2="120.973" y2="121.904" gradientUnits="userSpaceOnUse">
<stop stop-color="white"/>
<stop offset="1" stop-color="white" stop-opacity="0"/>
</linearGradient>
<linearGradient id="paint2_linear_307_595" x1="123.326" y1="71.0036" x2="161.341" y2="109.019" gradientUnits="userSpaceOnUse">
<stop stop-color="white"/>
<stop offset="1" stop-color="white" stop-opacity="0"/>
</linearGradient>
<radialGradient id="paint3_radial_307_595" cx="0" cy="0" r="1" gradientUnits="userSpaceOnUse" gradientTransform="translate(104.331 190.231) scale(32.2446 21.5832)">
<stop stop-color="white"/>
<stop offset="1" stop-color="white" stop-opacity="0"/>
</radialGradient>
<radialGradient id="paint4_radial_307_595" cx="0" cy="0" r="1" gradientUnits="userSpaceOnUse" gradientTransform="translate(121.332 191.004) scale(41.1414 27.5384)">
<stop stop-color="white"/>
<stop offset="1" stop-color="white" stop-opacity="0"/>
</radialGradient>
<radialGradient id="paint5_radial_307_595" cx="0" cy="0" r="1" gradientUnits="userSpaceOnUse" gradientTransform="translate(173.552 141.182) scale(22.9873 9.73185)">
<stop stop-color="white"/>
<stop offset="1" stop-color="white" stop-opacity="0"/>
</radialGradient>
<radialGradient id="paint6_radial_307_595" cx="0" cy="0" r="1" gradientUnits="userSpaceOnUse" gradientTransform="translate(178.418 143.867) scale(22.9873 9.73185)">
<stop stop-color="white"/>
<stop offset="1" stop-color="white" stop-opacity="0"/>
</radialGradient>
<linearGradient id="paint7_linear_307_595" x1="187.059" y1="157.919" x2="187.143" y2="162.156" gradientUnits="userSpaceOnUse">
<stop stop-color="white"/>
<stop offset="1" stop-color="white" stop-opacity="0"/>
</linearGradient>
<linearGradient id="paint8_linear_307_595" x1="187.227" y1="157.433" x2="187.227" y2="163.866" gradientUnits="userSpaceOnUse">
<stop stop-color="white"/>
<stop offset="1" stop-color="white" stop-opacity="0"/>
</linearGradient>
<radialGradient id="paint9_radial_307_595" cx="0" cy="0" r="1" gradientUnits="userSpaceOnUse" gradientTransform="translate(185.612 165.093) scale(9.45919 1.39755)">
<stop stop-color="white"/>
<stop offset="1" stop-color="white" stop-opacity="0"/>
</radialGradient>
<linearGradient id="paint10_linear_307_595" x1="173.779" y1="170.484" x2="175.864" y2="174.169" gradientUnits="userSpaceOnUse">
<stop stop-color="white"/>
<stop offset="1" stop-color="white" stop-opacity="0"/>
</linearGradient>
<linearGradient id="paint11_linear_307_595" x1="172.995" y1="169.179" x2="175.904" y2="174.917" gradientUnits="userSpaceOnUse">
<stop stop-color="white"/>
<stop offset="1" stop-color="white" stop-opacity="0"/>
</linearGradient>
<radialGradient id="paint12_radial_307_595" cx="0" cy="0" r="1" gradientUnits="userSpaceOnUse" gradientTransform="translate(176.465 177.165) rotate(-26.8861) scale(4.08989 1.39755)">
<stop stop-color="white"/>
<stop offset="1" stop-color="white" stop-opacity="0"/>
</radialGradient>
<radialGradient id="paint13_radial_307_595" cx="0" cy="0" r="1" gradientUnits="userSpaceOnUse" gradientTransform="translate(92.7612 157.115) scale(15.2689 6.21574)">
<stop stop-color="white" stop-opacity="0.330049"/>
<stop offset="1" stop-color="white" stop-opacity="0"/>
</radialGradient>
<linearGradient id="paint14_linear_307_595" x1="93.538" y1="169.839" x2="94.2511" y2="172.855" gradientUnits="userSpaceOnUse">
<stop stop-color="white"/>
<stop offset="1" stop-color="white" stop-opacity="0"/>
</linearGradient>
<linearGradient id="paint15_linear_307_595" x1="93.5718" y1="169.469" x2="94.5787" y2="174.055" gradientUnits="userSpaceOnUse">
<stop stop-color="white"/>
<stop offset="1" stop-color="white" stop-opacity="0"/>
</linearGradient>
<radialGradient id="paint16_radial_307_595" cx="0" cy="0" r="1" gradientUnits="userSpaceOnUse" gradientTransform="translate(93.1597 178.812) rotate(-15.4869) scale(8.64032 3.23279)">
<stop stop-color="white"/>
<stop offset="1" stop-color="white" stop-opacity="0"/>
</radialGradient>
<radialGradient id="paint17_radial_307_595" cx="0" cy="0" r="1" gradientUnits="userSpaceOnUse" gradientTransform="translate(133.97 73.4102) scale(119.553 117.666)">
<stop stop-color="white"/>
<stop offset="1" stop-color="white" stop-opacity="0"/>
</radialGradient>
<linearGradient id="paint18_linear_307_595" x1="99.0249" y1="164.704" x2="134.914" y2="174.193" gradientUnits="userSpaceOnUse">
<stop stop-color="white"/>
<stop offset="1" stop-color="white" stop-opacity="0"/>
</linearGradient>
<linearGradient id="paint19_linear_307_595" x1="118.05" y1="142.887" x2="114.018" y2="152.124" gradientUnits="userSpaceOnUse">
<stop stop-color="#EEEEEC"/>
<stop offset="1" stop-color="#EEEEEC" stop-opacity="0"/>
</linearGradient>
<radialGradient id="paint20_radial_307_595" cx="0" cy="0" r="1" gradientUnits="userSpaceOnUse" gradientTransform="translate(152.071 168.656) scale(18.7884 23.877)">
<stop stop-color="white"/>
<stop offset="1" stop-color="white" stop-opacity="0"/>
</radialGradient>
<linearGradient id="paint21_linear_307_595" x1="85.7212" y1="146.039" x2="91.3675" y2="150.525" gradientUnits="userSpaceOnUse">
<stop stop-color="white"/>
<stop offset="1" stop-color="white" stop-opacity="0"/>
</linearGradient>
<linearGradient id="paint22_linear_307_595" x1="151.814" y1="170.481" x2="135.038" y2="125.31" gradientUnits="userSpaceOnUse">
<stop stop-color="#729FCF"/>
<stop offset="1" stop-color="#729FCF" stop-opacity="0"/>
</linearGradient>
</defs>
</svg>
