<svg width="257" height="257" viewBox="0 0 257 257" fill="none" xmlns="http://www.w3.org/2000/svg">
<rect x="0.537231" y="0.688232" width="255" height="255" rx="31.5" fill="white"/>
<rect x="0.537231" y="0.688232" width="255" height="255" rx="31.5" stroke="white"/>
<path d="M128.578 195.107C165.855 195.107 196.074 164.888 196.074 127.611C196.074 90.3346 165.855 60.116 128.578 60.116C91.3014 60.116 61.0828 90.3346 61.0828 127.611C61.0828 164.888 91.3014 195.107 128.578 195.107Z" fill="white"/>
<path d="M128.578 56.5C89.3048 56.5 57.4673 88.3375 57.4673 127.611C57.4673 166.885 89.3048 198.722 128.578 198.722C167.852 198.722 199.69 166.885 199.69 127.611C199.69 88.3375 167.852 56.5 128.578 56.5ZM128.578 63.7316C163.858 63.7316 192.458 92.3315 192.458 127.611C192.458 162.891 163.858 191.491 128.578 191.491C93.2988 191.491 64.6989 162.891 64.6989 127.611C64.6989 92.3315 93.2988 63.7316 128.578 63.7316Z" fill="#4000BF"/>
<path fill-rule="evenodd" clip-rule="evenodd" d="M129.382 76.99C157.34 76.99 180.004 99.6539 180.004 127.612C180.004 155.569 157.34 178.233 129.382 178.233C101.425 178.233 78.7606 155.569 78.7606 127.612C78.7606 120.779 80.1143 114.262 82.5681 108.316C86.151 113.195 91.929 116.362 98.4467 116.362C109.319 116.362 118.133 107.549 118.133 96.6761C118.133 90.1583 114.965 84.3804 110.086 80.7975C116.033 78.3437 122.549 76.99 129.382 76.99Z" fill="url(#paint0_linear_31_41)"/>
<defs>
<linearGradient id="paint0_linear_31_41" x1="129.382" y1="178.233" x2="129.382" y2="76.99" gradientUnits="userSpaceOnUse">
<stop stop-color="#7400E1"/>
<stop offset="1" stop-color="#4000BF"/>
</linearGradient>
</defs>
</svg>
