<svg width="257" height="257" viewBox="0 0 257 257" fill="none" xmlns="http://www.w3.org/2000/svg">
<rect x="0.604492" y="1.28223" width="255" height="255" rx="31.5" fill="#F4F2ED"/>
<rect x="0.604492" y="1.28223" width="255" height="255" rx="31.5" stroke="#F4F2ED"/>
<path fill-rule="evenodd" clip-rule="evenodd" d="M192.642 97.3419L193.223 98.6964C197.48 108.081 199.608 117.95 199.608 128.205C199.608 167.389 167.681 199.316 128.497 199.316C89.3133 199.316 57.3859 167.389 57.3859 128.205C57.3859 89.0214 89.3133 57.094 128.497 57.094C140.01 57.094 150.943 59.803 161.005 64.834L162.359 65.5112L161.198 66.4787C158.296 68.8007 156.071 71.7032 154.62 75.0895L154.233 76.057L153.362 75.67C145.525 71.9935 137.205 70.0585 128.497 70.0585C96.3761 70.0585 70.3504 96.0842 70.3504 128.205C70.3504 160.326 96.3761 186.352 128.497 186.352C160.618 186.352 186.644 160.229 186.644 128.205C186.644 120.562 185.193 113.015 182.193 105.953L181.806 104.985L182.773 104.598C186.16 103.34 189.256 101.212 191.675 98.5029L192.642 97.3419ZM175.033 98.6965C183.209 98.6965 189.837 92.0691 189.837 83.8938C189.837 75.7185 183.209 69.0911 175.033 69.0911C166.858 69.0911 160.231 75.7185 160.231 83.8938C160.231 92.0691 166.858 98.6965 175.033 98.6965ZM128.497 95.7942C110.598 95.7942 96.0855 110.306 96.0855 128.206C96.0855 146.104 110.598 160.617 128.497 160.617C146.395 160.617 160.908 146.104 160.908 128.206C160.908 110.306 146.395 95.7942 128.497 95.7942Z" fill="#3880FF"/>
</svg>
