<svg width="257" height="257" viewBox="0 0 257 257" fill="none" xmlns="http://www.w3.org/2000/svg">
<rect x="1.05225" y="0.797119" width="255" height="255" rx="31.5" fill="#F4F2ED"/>
<rect x="1.05225" y="0.797119" width="255" height="255" rx="31.5" stroke="#F4F2ED"/>
<path d="M128.308 57.6086C88.9863 57.6086 57.1968 89.3981 57.1968 128.72C57.1968 168.041 88.9863 199.831 128.308 199.831C167.629 199.831 199.419 168.041 199.419 128.72V57.6086H128.308Z" fill="#F0047F"/>
<path d="M124.441 132.586V184.426C96.8508 182.85 74.6413 160.901 72.6552 133.421L72.6013 132.586H124.441ZM174.976 132.586C173.531 160.177 153.411 182.386 128.221 184.372L127.456 184.426V132.586H174.976ZM175.038 81.9895V129.572H127.456V81.9895H175.038Z" fill="white"/>
</svg>
