<svg width="257" height="257" viewBox="0 0 257 257" fill="none" xmlns="http://www.w3.org/2000/svg">
<rect x="1.43286" y="1.28223" width="255" height="255" rx="31.5" fill="#F4F2ED"/>
<rect x="1.43286" y="1.28223" width="255" height="255" rx="31.5" stroke="#F4F2ED"/>
<path d="M185.651 127.118C185.651 119.807 179.724 113.88 172.414 113.88C171.943 113.88 171.479 113.906 171.022 113.954L189.204 60.3271H111.936L130.093 113.907C129.825 113.89 129.556 113.881 129.288 113.881C121.977 113.881 116.05 119.807 116.05 127.119C116.05 133.028 119.923 138.031 125.268 139.734C122.445 144.624 118.893 149.028 114.859 152.834C109.375 158.008 103.098 161.931 96.3092 164.348C88.2264 160.196 84.4097 150.962 87.8535 142.866C88.2425 141.951 88.6396 141.024 89.019 140.102C94.8745 138.735 99.2384 133.486 99.2384 127.213C99.2384 119.902 93.3114 113.976 86.0001 113.976C78.6887 113.976 72.7622 119.902 72.7622 127.213C72.7622 131.697 74.9925 135.657 78.4025 138.052C75.1261 145.512 70.3096 153.319 68.809 162.368C67.0105 173.212 68.8029 184.724 78.1823 191.225C100.026 206.365 123.737 181.839 148.738 175.674C157.798 173.44 167.744 173.8 175.726 169.177C181.721 165.705 185.673 159.951 186.794 153.491C187.903 147.11 186.287 140.756 182.573 135.604C184.566 133.226 185.656 130.221 185.651 127.118" fill="#99425B"/>
<path d="M183.609 152.938C182.635 158.546 179.172 163.445 174.106 166.379C169.384 169.114 163.726 169.93 157.734 170.794C154.525 171.257 151.206 171.736 147.964 172.535C139.391 174.649 131.087 178.774 123.058 182.762C106.988 190.744 93.1103 197.637 80.0246 188.567C70.4391 181.924 70.8815 169.633 71.9982 162.897C73.0333 156.657 75.8315 150.91 78.537 145.352C78.998 144.407 79.4552 143.461 79.9087 142.513C81.2725 143.058 82.7036 143.417 84.1632 143.58C81.4088 152.67 85.7405 162.554 94.8316 167.224L96.0763 167.864L97.3936 167.395C104.581 164.835 111.204 160.728 117.078 155.185C120.875 151.603 124.14 147.64 126.823 143.405C127.639 143.528 128.463 143.59 129.288 143.59C137.632 143.59 144.542 137.352 145.611 129.295C149.027 129.17 152.654 129.169 156.09 129.294C157.158 137.352 164.069 143.59 172.413 143.59C175.902 143.59 179.138 142.497 181.805 140.639C183.655 144.428 184.346 148.691 183.609 152.938V152.938ZM86.0005 117.209C91.5174 117.209 96.0053 121.697 96.0053 127.214C96.0053 129.195 95.4238 131.043 94.4255 132.599C92.7626 135.193 89.9356 136.971 86.6879 137.192C86.4606 137.208 86.2313 137.219 86.0005 137.219C84.771 137.219 83.5933 136.994 82.5044 136.587C80.3112 135.763 78.4747 134.198 77.3115 132.164C76.4478 130.658 75.994 128.951 75.9953 127.214C75.9953 121.697 80.4837 117.209 86.0005 117.209V117.209ZM119.284 127.119C119.284 122.106 122.989 117.944 127.803 117.225C128.288 117.152 128.784 117.114 129.288 117.114C132.496 117.114 135.352 118.633 137.183 120.988C137.641 121.575 138.033 122.211 138.351 122.885C138.973 124.21 139.294 125.655 139.293 127.119C139.293 127.918 139.196 128.696 139.019 129.442C138.043 133.523 134.563 136.644 130.298 137.073C129.966 137.106 129.63 137.123 129.288 137.123C127.364 137.125 125.48 136.568 123.866 135.52C121.112 133.736 119.284 130.638 119.284 127.119V127.119ZM161.041 115.221C158.863 117.299 157.297 119.934 156.51 122.839C152.739 122.7 148.964 122.7 145.193 122.839C144.346 119.699 142.592 116.928 140.231 114.824L150.584 93.8899L161.041 115.221ZM116.445 63.5613H184.694L168.574 111.103C167.881 111.269 167.199 111.481 166.533 111.736L150.609 79.2517L134.64 111.542C133.944 111.303 133.232 111.111 132.51 110.968L116.445 63.5613ZM182.418 127.119C182.418 128.122 182.268 129.09 181.992 130.005C181.339 132.158 179.98 134.03 178.136 135.319C176.46 136.495 174.461 137.126 172.413 137.124C167.794 137.124 163.897 133.976 162.751 129.713C162.523 128.867 162.408 127.995 162.408 127.119C162.408 125.752 162.684 124.447 163.183 123.259C163.441 122.651 163.758 122.07 164.13 121.525C165.93 118.867 168.968 117.114 172.413 117.114C172.729 117.114 173.04 117.131 173.349 117.16C178.429 117.633 182.418 121.918 182.418 127.119H182.418ZM188.885 127.119C188.885 119.078 183.091 112.368 175.459 110.935L193.714 57.094H107.426L125.709 111.044C118.343 112.683 112.817 119.266 112.817 127.119C112.817 133.015 115.934 138.195 120.604 141.105C118.357 144.452 115.694 147.602 112.641 150.482C107.799 155.049 102.406 158.513 96.5913 160.792C90.7343 157.113 88.2586 150.175 90.8295 144.131L91.0311 143.657L91.4091 142.768C97.842 140.524 102.472 134.402 102.472 127.214C102.472 118.131 95.0826 110.742 86.0005 110.742C76.9184 110.742 69.5285 118.131 69.5285 127.214C69.5285 131.798 71.4132 135.949 74.4457 138.939C73.8801 140.137 73.306 141.331 72.7233 142.521C69.9503 148.216 66.8079 154.671 65.6191 161.839C63.2588 176.075 67.0664 187.455 76.341 193.882C81.9687 197.782 87.6841 199.316 93.4353 199.316C104.264 199.316 115.22 193.875 125.934 188.553C133.651 184.721 141.63 180.758 149.512 178.813C152.445 178.09 155.462 177.655 158.657 177.194C164.993 176.28 171.544 175.335 177.347 171.975C184.074 168.078 188.678 161.543 189.98 154.044C191.098 147.607 189.753 141.159 186.472 135.691C188.053 133.111 188.888 130.144 188.885 127.119V127.119Z" fill="white"/>
</svg>
