<svg width="257" height="257" viewBox="0 0 257 257" fill="none" xmlns="http://www.w3.org/2000/svg">
<rect x="0.708862" y="0.797119" width="255" height="255" rx="31.5" fill="white"/>
<rect x="0.708862" y="0.797119" width="255" height="255" rx="31.5" stroke="white"/>
<path d="M193.771 56.6089H125.284C125.284 64.8083 128.542 72.672 134.339 78.4698C140.137 84.2677 148.001 87.525 156.2 87.525H168.816V99.706C168.828 116.765 182.653 130.591 199.712 130.603V62.5501C199.712 59.2698 197.053 56.6089 193.771 56.6089Z" fill="#2684FF"/>
<path d="M159.884 90.7336H91.3978C91.4084 107.793 105.234 121.619 122.294 121.63H134.91V133.85C134.932 150.909 148.767 164.726 165.826 164.726V96.676C165.826 93.3946 163.166 90.7342 159.884 90.7342V90.7336Z" fill="url(#paint0_linear_22_664)"/>
<path d="M125.977 124.838H57.4904C57.4904 141.913 71.3324 155.754 88.4064 155.754H101.062V167.935C101.073 184.978 114.875 198.799 131.919 198.831V130.78C131.919 127.499 129.259 124.838 125.977 124.838Z" fill="url(#paint1_linear_22_664)"/>
<defs>
<linearGradient id="paint0_linear_22_664" x1="164.361" y1="90.8528" x2="135.404" y2="121.067" gradientUnits="userSpaceOnUse">
<stop offset="0.18" stop-color="#0052CC"/>
<stop offset="1" stop-color="#2684FF"/>
</linearGradient>
<linearGradient id="paint1_linear_22_664" x1="132.414" y1="125.175" x2="98.9189" y2="158.13" gradientUnits="userSpaceOnUse">
<stop offset="0.18" stop-color="#0052CC"/>
<stop offset="1" stop-color="#2684FF"/>
</linearGradient>
</defs>
</svg>
