<svg width="257" height="256" viewBox="0 0 257 256" fill="none" xmlns="http://www.w3.org/2000/svg">
<rect x="1.15673" y="0.5" width="255" height="255" rx="31.5" fill="#F4F2ED"/>
<rect x="1.15673" y="0.5" width="255" height="255" rx="31.5" stroke="#F4F2ED"/>
<path d="M65.7805 153.754C65.9168 154.062 66.0709 154.347 66.2368 154.631C66.3139 154.797 66.4205 154.969 66.5153 155.123C66.6694 155.431 66.8353 155.727 66.9953 156.024L67.9257 157.588C68.0976 157.879 68.2635 158.163 68.4591 158.447C68.785 159.005 69.1702 159.55 69.508 160.107C69.662 160.338 69.8043 160.569 69.9761 160.8C70.628 161.813 71.2206 162.655 71.8546 163.473C72.305 164.083 72.7554 164.682 73.2413 165.28C73.4013 165.505 73.5791 165.731 73.745 165.956L75.0547 167.544C75.2147 167.728 75.3747 167.941 75.5465 168.131C76.1273 168.83 76.7436 169.505 77.3599 170.193C77.3599 170.205 77.3777 170.216 77.3895 170.234C78.154 171.194 78.9777 172.048 79.8784 172.806L79.9021 172.83C80.3762 173.316 80.8503 173.796 81.354 174.27L81.9525 174.845C82.6103 175.461 83.2681 176.071 83.9614 176.664C83.9733 176.664 83.9792 176.676 83.9911 176.682L84.3289 176.978C84.9333 177.505 85.5437 178.027 86.1659 178.513L86.9067 179.135C87.4104 179.538 87.9319 179.917 88.4474 180.314L89.2534 180.931C89.8045 181.345 90.3911 181.748 90.9541 182.151C91.1615 182.3 91.3689 182.448 91.5823 182.584L91.7541 182.72L93.4193 183.811L94.1304 184.285C95.0016 184.842 95.8668 185.363 96.732 185.885C96.9808 186.009 97.2297 186.145 97.4608 186.288C98.1009 186.655 98.7646 187.028 99.4105 187.366C99.7661 187.568 100.133 187.74 100.501 187.923C100.945 188.172 101.408 188.415 101.882 188.664C102.012 188.706 102.119 188.747 102.225 188.806L102.249 188.783C102.445 188.871 102.628 188.966 102.818 189.061C103.529 189.417 104.27 189.754 105.04 190.086C105.182 190.146 105.336 190.205 105.491 190.288C106.344 190.661 107.197 191.017 108.08 191.36C108.282 191.42 108.495 191.52 108.702 191.597C109.502 191.9 110.326 192.208 111.144 192.498L111.44 192.605C112.347 192.913 113.242 193.209 114.166 193.488C114.38 193.547 114.599 193.624 114.824 193.683C115.766 193.968 116.679 194.306 117.633 194.483C178.511 205.523 196.2 158.062 196.2 158.062C181.337 177.322 154.961 182.4 129.983 176.747C129.058 176.534 128.134 176.237 127.197 175.965C125.876 175.591 124.566 175.178 123.269 174.726L123.832 174.898L123.464 174.756C122.658 174.483 121.882 174.181 121.094 173.879C120.901 173.797 120.705 173.722 120.507 173.654L120.442 173.636C119.571 173.286 118.723 172.931 117.882 172.557C117.698 172.498 117.544 172.415 117.36 172.344C116.364 171.91 115.376 171.455 114.397 170.981L115.215 171.342C115.002 171.248 114.792 171.145 114.587 171.034C114.03 170.774 113.473 170.477 112.928 170.199C112.512 170.002 112.103 169.792 111.701 169.571L111.82 169.63C111.15 169.274 110.48 168.889 109.805 168.528C109.603 168.385 109.372 168.267 109.141 168.136C108.137 167.553 107.145 166.948 106.166 166.323L106.539 166.548C106.289 166.393 106.044 166.229 105.805 166.056L105.84 166.08C105.203 165.689 104.579 165.278 103.968 164.848C103.766 164.717 103.582 164.575 103.375 164.433C102.737 163.997 102.108 163.546 101.491 163.082L101.633 163.182C101.384 162.981 101.117 162.791 100.851 162.596C100.329 162.187 99.8016 161.796 99.2801 161.369L98.5809 160.812C97.8356 160.219 97.1045 159.608 96.3882 158.981L96.3823 158.975L94.326 157.108L93.7334 156.551C93.2475 156.059 92.7497 155.591 92.2519 155.105L91.6771 154.513C91.0635 153.905 90.4648 153.283 89.8815 152.646L89.846 152.604L89.7452 152.521C89.1178 151.832 88.4994 151.135 87.8904 150.43C87.7304 150.246 87.5822 150.05 87.4163 149.855L86.0711 148.225C85.4647 147.463 84.872 146.691 84.2933 145.908L84.0563 145.576C70.2013 126.755 65.1879 100.782 76.2754 79.4719L66.4857 91.8513C53.893 109.86 55.4515 133.28 65.0812 152.403C65.3005 152.871 65.5435 153.31 65.7805 153.754V153.754Z" fill="#1266A9"/>
<path d="M108.193 127.81L108.128 127.716L108.074 127.645L108.193 127.81Z" fill="black"/>
<path d="M114.818 135.585L115.351 136.118C116.027 136.77 116.72 137.404 117.425 138.038L117.514 138.115C118.225 138.744 119.025 139.401 119.849 140.041L119.974 140.136C120.175 140.272 120.347 140.432 120.543 140.569C121.372 141.209 122.208 141.819 123.079 142.429L123.168 142.483C123.535 142.749 123.926 142.992 124.341 143.253C124.507 143.36 124.697 143.502 124.874 143.609C125.503 144.012 126.119 144.385 126.753 144.77C126.854 144.812 126.943 144.865 127.037 144.907C127.571 145.232 128.151 145.547 128.709 145.831C128.904 145.95 129.094 146.038 129.295 146.151C129.692 146.347 130.083 146.554 130.463 146.755L130.652 146.838C131.452 147.23 132.27 147.597 133.07 147.958C133.272 148.035 133.443 148.101 133.615 148.184C134.273 148.468 134.943 148.741 135.6 148.99C135.897 149.09 136.175 149.209 136.454 149.298C137.058 149.523 137.692 149.73 138.291 149.938L139.12 150.204C139.986 150.471 140.863 150.821 141.781 150.963C188.792 158.702 199.672 122.69 199.672 122.69C189.877 136.717 170.919 143.401 150.718 138.181C149.709 137.926 148.709 137.64 147.719 137.321L148.057 137.416C147.772 137.339 147.524 137.25 147.251 137.167C146.635 136.954 146.001 136.746 145.402 136.527L144.549 136.207C143.885 135.941 143.209 135.692 142.563 135.407C142.362 135.318 142.178 135.259 142.024 135.17C141.195 134.797 140.359 134.429 139.547 134.038L138.326 133.404L137.621 133.049C137.076 132.764 136.572 132.468 136.051 132.166C135.918 132.103 135.789 132.032 135.666 131.952L135.683 131.958C135.055 131.567 134.403 131.188 133.799 130.791C133.597 130.678 133.414 130.542 133.224 130.423L131.992 129.623C131.138 129.031 130.303 128.397 129.455 127.78C129.266 127.609 129.082 127.466 128.898 127.312C120.015 120.361 113.011 110.862 109.686 100.106C106.184 88.9238 106.954 76.3844 113.005 66.2095L105.568 76.6866C96.4356 89.7297 96.9512 107.164 104.062 120.96C105.36 123.508 106.676 125.659 108.128 127.709C109.479 129.641 110.972 131.905 112.774 133.458C113.414 134.186 114.101 134.88 114.818 135.585V135.585Z" fill="#1266A9"/>
<path d="M138.433 65.344C133.046 73.2078 132.531 82.9738 136.24 91.6435C140.181 100.852 148.235 108.082 157.621 111.507C158.007 111.656 158.38 111.78 158.777 111.922L159.299 112.082C159.844 112.254 160.395 112.456 160.958 112.58C186.92 117.564 193.948 99.3176 195.838 96.6332C189.657 105.463 179.293 107.584 166.576 104.509C165.47 104.239 164.381 103.903 163.316 103.501L163.512 103.567C162.187 103.108 160.889 102.574 159.624 101.967L159.85 102.067C157.42 100.882 155.334 99.6021 153.396 98.1324C142.03 89.5398 135.002 73.1781 142.421 59.8506L138.433 65.344Z" fill="#1266A9"/>
</svg>
