<svg width="257" height="257" viewBox="0 0 257 257" fill="none" xmlns="http://www.w3.org/2000/svg">
<rect x="1.05225" y="1.09424" width="255" height="255" rx="31.5" fill="white"/>
<rect x="1.05225" y="1.09424" width="255" height="255" rx="31.5" stroke="white"/>
<path d="M199.419 56.906H57.1968V199.128H199.419V56.906Z" fill="#F7DF1E"/>
<path d="M152.734 168.018C155.599 172.695 159.326 176.133 165.918 176.133C171.455 176.133 174.993 173.366 174.993 169.541C174.993 164.959 171.358 163.336 165.263 160.67L161.922 159.236C152.278 155.127 145.871 149.98 145.871 139.099C145.871 129.076 153.508 121.446 165.444 121.446C173.941 121.446 180.05 124.403 184.452 132.146L174.045 138.828C171.753 134.72 169.281 133.101 165.444 133.101C161.529 133.101 159.048 135.584 159.048 138.828C159.048 142.838 161.532 144.461 167.266 146.944L170.607 148.375C181.962 153.245 188.373 158.209 188.373 169.37C188.373 181.402 178.921 187.994 166.227 187.994C153.815 187.994 145.797 182.08 141.873 174.327L152.734 168.018ZM105.523 169.176C107.623 172.901 109.532 176.05 114.124 176.05C118.515 176.05 121.285 174.332 121.285 167.652V122.209H134.649V167.833C134.649 181.671 126.536 187.969 114.693 187.969C103.992 187.969 97.7956 182.432 94.6442 175.762L105.523 169.176Z" fill="black"/>
</svg>
