<svg width="257" height="257" viewBox="0 0 257 257" fill="none" xmlns="http://www.w3.org/2000/svg">
<rect x="1.43286" y="1.39111" width="255" height="255" rx="31.5" fill="white"/>
<rect x="1.43286" y="1.39111" width="255" height="255" rx="31.5" stroke="white"/>
<path d="M199.948 57.2029H129.134L61.5128 128.314H128.713L129.027 127.994L199.948 57.2029Z" fill="url(#paint0_linear_22_687)"/>
<path d="M199.948 199.425H57.7261H199.948ZM129.027 127.994L128.713 128.314H129.347L129.027 127.994Z" fill="url(#paint1_linear_22_687)"/>
<path d="M129.133 57.2029H57.7261V132.296V128.314H61.5127L129.133 57.2029Z" fill="url(#paint2_linear_22_687)"/>
<path d="M128.713 128.314H61.5128L57.7261 132.296V199.425L128.713 128.314Z" fill="url(#paint3_linear_22_687)"/>
<path d="M129.347 128.314H128.713L57.7261 199.425H199.948L129.347 128.314Z" fill="url(#paint4_linear_22_687)"/>
<path d="M61.5128 128.314H57.7261V132.296L61.5128 128.314Z" fill="url(#paint5_linear_22_687)"/>
<defs>
<linearGradient id="paint0_linear_22_687" x1="32.3423" y1="187.175" x2="164.688" y2="54.8292" gradientUnits="userSpaceOnUse">
<stop stop-color="#C757BC"/>
<stop offset="0.108" stop-color="#C757BC"/>
<stop offset="0.173" stop-color="#CD5CA9"/>
<stop offset="0.492" stop-color="#E8744F"/>
<stop offset="0.716" stop-color="#F88316"/>
<stop offset="0.823" stop-color="#FF8900"/>
<stop offset="1" stop-color="#FF8900"/>
</linearGradient>
<linearGradient id="paint1_linear_22_687" x1="103.669" y1="225.044" x2="168.177" y2="160.536" gradientUnits="userSpaceOnUse">
<stop stop-color="#00AFFF"/>
<stop offset="0.296" stop-color="#00AFFF"/>
<stop offset="0.694" stop-color="#5282FF"/>
<stop offset="1" stop-color="#945DFF"/>
</linearGradient>
<linearGradient id="paint2_linear_22_687" x1="56.2261" y1="96.5077" x2="101.479" y2="51.2538" gradientUnits="userSpaceOnUse">
<stop stop-color="#00AFFF"/>
<stop offset="0.296" stop-color="#00AFFF"/>
<stop offset="0.694" stop-color="#5282FF"/>
<stop offset="1" stop-color="#945DFF"/>
</linearGradient>
<linearGradient id="paint3_linear_22_687" x1="33.1364" y1="187.969" x2="165.482" y2="55.6233" gradientUnits="userSpaceOnUse">
<stop stop-color="#AD4CA4"/>
<stop offset="0.108" stop-color="#AD4CA4"/>
<stop offset="0.173" stop-color="#B25093"/>
<stop offset="0.492" stop-color="#CA6545"/>
<stop offset="0.716" stop-color="#D87213"/>
<stop offset="0.823" stop-color="#DE7700"/>
<stop offset="1" stop-color="#DE7700"/>
</linearGradient>
<linearGradient id="paint4_linear_22_687" x1="103.669" y1="225.044" x2="168.177" y2="160.536" gradientUnits="userSpaceOnUse">
<stop stop-color="#0098DE"/>
<stop offset="0.296" stop-color="#0098DE"/>
<stop offset="0.694" stop-color="#4771DE"/>
<stop offset="1" stop-color="#8151DE"/>
</linearGradient>
<linearGradient id="paint5_linear_22_687" x1="74.0109" y1="114.292" x2="119.264" y2="69.0382" gradientUnits="userSpaceOnUse">
<stop stop-color="#0098DE"/>
<stop offset="0.296" stop-color="#0098DE"/>
<stop offset="0.694" stop-color="#4771DE"/>
<stop offset="1" stop-color="#8151DE"/>
</linearGradient>
</defs>
</svg>
