<svg width="256" height="257" viewBox="0 0 256 257" fill="none" xmlns="http://www.w3.org/2000/svg">
<rect x="0.5" y="0.718018" width="255" height="255" rx="31.5" fill="#F4F2ED"/>
<rect x="0.5" y="0.718018" width="255" height="255" rx="31.5" stroke="#F4F2ED"/>
<path d="M187.062 89.4778C186.249 86.8756 184.297 84.7613 181.857 83.4602L132.253 59.7152C130.952 59.0646 129.488 58.902 128.187 58.902C126.886 58.902 125.422 58.902 124.121 59.2273L74.5168 83.1349C72.0772 84.2734 70.2882 86.3877 69.6376 89.1525L57.4398 142.66C56.9519 145.425 57.6025 148.19 59.2289 150.467L93.5453 192.915C95.497 194.867 98.2618 196.168 101.027 196.331H155.673C158.6 196.656 161.365 195.355 163.154 192.915L197.471 150.467C199.097 148.19 199.748 145.425 199.422 142.66L187.062 89.4778Z" fill="white" stroke="white" stroke-width="5" stroke-miterlimit="10"/>
<path d="M187.062 89.4778C186.249 86.8756 184.297 84.7613 181.857 83.4602L132.253 59.7152C130.952 59.0646 129.488 58.902 128.187 58.902C126.886 58.902 125.422 58.902 124.121 59.2273L74.5168 83.1349C72.0772 84.2734 70.2882 86.3877 69.6376 89.1525L57.4398 142.66C56.9519 145.425 57.6025 148.19 59.2289 150.467L93.5453 192.915C95.497 194.867 98.2618 196.168 101.027 196.331H155.673C158.6 196.656 161.365 195.355 163.154 192.915L197.471 150.467C199.097 148.19 199.748 145.425 199.422 142.66L187.062 89.4778Z" fill="#326DE6"/>
<path d="M179.418 140.546C179.255 140.546 179.093 140.546 179.093 140.383C179.093 140.221 178.767 140.221 178.442 140.221C177.792 140.058 177.141 140.058 176.49 140.058C176.165 140.058 175.84 140.058 175.515 139.895H175.352C173.563 139.733 171.611 139.408 169.822 138.92C169.334 138.757 168.847 138.269 168.684 137.781L167.383 137.456C168.033 132.739 167.708 127.86 166.732 123.144C165.594 118.427 163.642 113.873 161.04 109.808L162.016 108.832V108.669C162.016 108.181 162.178 107.531 162.504 107.205C163.967 105.904 165.431 104.928 167.058 103.953C167.383 103.79 167.708 103.627 168.033 103.465C168.684 103.139 169.172 102.814 169.822 102.489C169.985 102.326 170.148 102.326 170.31 102.164C170.473 102.001 170.31 102.001 170.31 101.838C171.774 100.7 172.099 98.7482 170.961 97.2845C170.473 96.6339 169.497 96.146 168.684 96.146C167.871 96.146 167.058 96.4713 166.407 96.9592L166.244 97.1218C166.082 97.2845 165.919 97.4471 165.756 97.4471C165.269 97.935 164.781 98.4229 164.455 98.9108C164.293 99.2361 163.967 99.3987 163.805 99.5614C162.666 100.862 161.203 102.164 159.739 103.139C159.414 103.302 159.088 103.465 158.763 103.465C158.6 103.465 158.275 103.465 158.112 103.302H157.95L156.649 104.115C155.348 102.814 153.884 101.513 152.583 100.212C146.565 95.4954 139.084 92.568 131.44 91.7548L131.277 90.4537V90.6163C130.789 90.291 130.627 89.8031 130.464 89.3152C130.464 87.5262 130.464 85.7372 130.789 83.7856V83.6229C130.789 83.2976 130.952 82.9724 130.952 82.6471C131.115 81.9965 131.115 81.346 131.277 80.6954V79.7196C131.44 78.0932 130.139 76.4669 128.512 76.3042C127.537 76.1416 126.561 76.6295 125.748 77.4427C125.097 78.0932 124.772 78.9064 124.772 79.7196V80.5328C124.772 81.1834 124.934 81.8339 125.097 82.4845C125.26 82.8097 125.26 83.135 125.26 83.4603V83.6229C125.585 85.4119 125.585 87.2009 125.585 89.1526C125.422 89.6405 125.26 90.1284 124.772 90.4537V90.779L124.609 92.0801C122.82 92.2427 121.031 92.568 119.079 92.8932C111.436 94.5196 104.442 98.5856 99.0751 104.278L98.0993 103.627H97.9366C97.774 103.627 97.6114 103.79 97.2861 103.79C96.9608 103.79 96.6355 103.627 96.3103 103.465C94.8465 102.326 93.3828 101.025 92.2443 99.724C92.0817 99.3987 91.7564 99.2361 91.5938 99.0735C91.1059 98.5856 90.7806 98.0976 90.2927 97.6097C90.13 97.4471 89.9674 97.4471 89.8048 97.2845C89.6421 97.1218 89.6421 97.1218 89.6421 97.1218C88.9916 96.6339 88.1784 96.3086 87.3652 96.3086C86.3894 96.3086 85.5762 96.6339 85.0883 97.4471C84.1125 98.9108 84.4377 100.862 85.7388 102.001C85.9015 102.001 85.9015 102.164 85.9015 102.164C85.9015 102.164 86.2267 102.489 86.3894 102.489C86.8773 102.814 87.5278 103.139 88.1784 103.465C88.5037 103.627 88.8289 103.79 89.1542 103.953C90.7806 104.928 92.407 105.904 93.7081 107.205C94.0333 107.531 94.3586 108.181 94.196 108.669V108.506L95.1718 109.482C95.0092 109.808 94.8465 109.97 94.6839 110.295C89.6421 118.265 87.5278 127.698 88.9916 136.968L87.6905 137.293C87.6905 137.456 87.5278 137.456 87.5278 137.456C87.3652 137.944 86.8773 138.269 86.3894 138.594C84.6004 139.082 82.8114 139.408 80.8597 139.57C80.5344 139.57 80.2092 139.57 79.8839 139.733C79.2333 139.733 78.5828 139.895 77.9322 139.895C77.7696 139.895 77.607 140.058 77.2817 140.058C77.119 140.058 77.119 140.058 76.9564 140.221C75.1674 140.546 74.0289 142.172 74.3542 143.961C74.6795 145.425 76.1432 146.401 77.607 146.238C77.9322 146.238 78.0949 146.238 78.4201 146.076C78.5828 146.076 78.5828 146.076 78.5828 145.913C78.5828 145.75 79.0707 145.913 79.2333 145.913C79.8839 145.75 80.5344 145.425 81.0223 145.262C81.3476 145.1 81.6729 144.937 81.9982 144.937H82.1608C83.9498 144.287 85.5762 143.799 87.5278 143.473H87.6905C88.1784 143.473 88.6663 143.636 88.9916 143.961C89.1542 143.961 89.1542 144.124 89.1542 144.124L90.6179 143.961C93.0575 151.443 97.6114 158.111 103.954 162.99C105.418 164.128 106.719 165.104 108.345 165.917L107.532 167.056C107.532 167.219 107.695 167.219 107.695 167.219C108.02 167.706 108.02 168.357 107.858 168.845C107.207 170.471 106.231 172.098 105.255 173.561V173.724C105.093 174.049 104.93 174.212 104.605 174.537C104.279 174.862 103.954 175.513 103.466 176.164C103.304 176.326 103.304 176.489 103.141 176.652C103.141 176.652 103.141 176.814 102.978 176.814C102.165 178.441 102.816 180.392 104.279 181.205C104.605 181.368 105.093 181.531 105.418 181.531C106.719 181.531 107.858 180.717 108.508 179.579C108.508 179.579 108.508 179.416 108.671 179.416C108.671 179.254 108.833 179.091 108.996 178.928C109.159 178.278 109.484 177.79 109.647 177.139L109.972 176.164C110.46 174.375 111.273 172.748 112.086 171.122C112.411 170.634 112.899 170.309 113.387 170.146C113.55 170.146 113.55 170.146 113.55 169.983L114.2 168.682C118.754 170.471 123.471 171.284 128.35 171.284C131.277 171.284 134.205 170.959 137.132 170.146C138.921 169.821 140.71 169.17 142.337 168.682L142.987 169.821C143.15 169.821 143.15 169.821 143.15 169.983C143.638 170.146 144.126 170.471 144.451 170.959C145.264 172.586 146.077 174.212 146.565 176.001V176.164L146.89 177.139C147.053 177.79 147.216 178.441 147.541 178.928C147.704 179.091 147.704 179.254 147.866 179.416C147.866 179.416 147.866 179.579 148.029 179.579C148.679 180.717 149.818 181.531 151.119 181.531C151.607 181.531 151.932 181.368 152.42 181.205C153.071 180.88 153.721 180.23 153.884 179.416C154.047 178.603 154.047 177.79 153.721 176.977C153.721 176.814 153.559 176.814 153.559 176.814C153.559 176.652 153.396 176.489 153.233 176.326C152.908 175.676 152.583 175.188 152.095 174.7C151.932 174.375 151.77 174.212 151.444 173.887V173.561C150.306 172.098 149.493 170.471 148.842 168.845C148.679 168.357 148.679 167.706 149.005 167.219C149.005 167.056 149.167 167.056 149.167 167.056L148.679 165.755C156.974 160.713 163.317 152.906 166.244 143.636L167.545 143.799C167.708 143.799 167.708 143.636 167.708 143.636C168.033 143.311 168.521 143.148 169.009 143.148H169.172C170.961 143.473 172.75 143.961 174.376 144.612H174.539C174.864 144.775 175.189 144.937 175.515 144.937C176.165 145.262 176.653 145.588 177.304 145.75C177.466 145.75 177.629 145.913 177.954 145.913C178.117 145.913 178.117 145.913 178.279 146.076C178.605 146.238 178.767 146.238 179.093 146.238C180.556 146.238 181.858 145.262 182.345 143.961C182.183 142.172 180.882 140.871 179.418 140.546ZM132.416 135.504L128.025 137.619L123.633 135.504L122.495 130.788L125.585 126.884H130.464L133.554 130.788L132.416 135.504ZM158.926 124.933C159.739 128.348 159.901 131.764 159.576 135.179L144.126 130.788C142.662 130.462 141.849 128.999 142.174 127.535C142.337 127.047 142.499 126.722 142.825 126.397L155.022 115.337C156.811 118.265 158.112 121.517 158.926 124.933ZM150.143 109.32L136.807 118.753C135.669 119.403 134.042 119.241 133.229 118.102C132.904 117.777 132.741 117.451 132.741 116.964L131.765 100.537C138.921 101.35 145.264 104.441 150.143 109.32ZM120.706 101.025L123.959 100.375L123.145 116.638C123.145 118.102 121.844 119.241 120.381 119.241C119.893 119.241 119.567 119.078 119.079 118.915L105.581 109.32C109.809 105.254 115.014 102.326 120.706 101.025ZM100.864 115.337L112.899 126.071C114.038 127.047 114.2 128.673 113.225 129.812C112.899 130.3 112.574 130.462 111.923 130.625L96.1476 135.179C95.6597 128.348 97.2861 121.355 100.864 115.337ZM98.0993 142.823L114.2 140.058C115.501 140.058 116.803 140.871 116.965 142.172C117.128 142.66 117.128 143.311 116.803 143.799L110.622 158.761C104.93 155.021 100.376 149.328 98.0993 142.823ZM135.018 162.99C132.741 163.478 130.464 163.803 128.025 163.803C124.609 163.803 121.031 163.153 117.778 162.177L125.748 147.702C126.561 146.726 127.862 146.401 129 147.051C129.488 147.377 129.814 147.702 130.301 148.19L138.108 162.339C137.132 162.502 136.156 162.665 135.018 162.99ZM154.86 148.841C152.42 152.744 149.005 156.159 145.101 158.599L138.759 143.311C138.433 142.01 139.084 140.709 140.222 140.221C140.71 140.058 141.198 139.895 141.686 139.895L157.95 142.66C157.137 144.937 156.161 147.051 154.86 148.841Z" fill="white"/>
</svg>
