<svg width="257" height="257" viewBox="0 0 257 257" fill="none" xmlns="http://www.w3.org/2000/svg">
<rect x="0.984985" y="0.688232" width="255" height="255" rx="31.5" fill="white"/>
<rect x="0.984985" y="0.688232" width="255" height="255" rx="31.5" stroke="white"/>
<path d="M196.305 88.9492C196.355 89.1377 196.382 89.332 196.382 89.5272V119.869C196.382 120.259 196.279 120.641 196.084 120.978C195.889 121.315 195.608 121.595 195.27 121.788L169.804 136.45V165.512C169.804 166.303 169.383 167.033 168.698 167.431L115.539 198.033C115.417 198.102 115.284 198.146 115.151 198.193C115.102 198.21 115.055 198.24 115.002 198.254C114.631 198.352 114.24 198.352 113.868 198.254C113.807 198.238 113.752 198.204 113.694 198.182C113.572 198.138 113.445 198.099 113.329 198.033L60.181 167.431C59.8434 167.237 59.5628 166.958 59.3677 166.621C59.1725 166.284 59.0696 165.901 59.0693 165.512V74.4862C59.0693 74.2871 59.097 74.0935 59.1468 73.9055C59.1634 73.8419 59.2021 73.7838 59.2242 73.7202C59.2657 73.6041 59.3044 73.4851 59.3652 73.3773C59.4067 73.3054 59.4676 73.2473 59.5173 73.181C59.5809 73.0925 59.639 73.0012 59.7137 72.9238C59.7773 72.8602 59.8602 72.8132 59.9321 72.7579C60.0123 72.6915 60.0842 72.6196 60.1755 72.567H60.1783L86.7537 57.2661C87.0901 57.0725 87.4716 56.9706 87.8598 56.9706C88.248 56.9706 88.6295 57.0725 88.966 57.2661L115.541 72.567H115.547C115.635 72.6223 115.71 72.6915 115.79 72.7551C115.862 72.8104 115.942 72.8602 116.006 72.921C116.083 73.0012 116.139 73.0925 116.205 73.181C116.252 73.2473 116.316 73.3054 116.354 73.3773C116.418 73.4879 116.454 73.6041 116.498 73.7202C116.52 73.7838 116.559 73.8419 116.576 73.9083C116.627 74.0967 116.653 74.291 116.653 74.4862V131.34L138.798 118.589V89.5244C138.798 89.3308 138.826 89.1345 138.876 88.9492C138.895 88.8829 138.931 88.8248 138.953 88.7612C138.997 88.645 139.036 88.5261 139.097 88.4183C139.138 88.3464 139.199 88.2883 139.246 88.2219C139.313 88.1334 139.368 88.0422 139.445 87.9647C139.509 87.9011 139.589 87.8541 139.661 87.7988C139.744 87.7325 139.816 87.6606 139.904 87.608H139.907L166.485 72.3071C166.822 72.1132 167.203 72.0111 167.592 72.0111C167.98 72.0111 168.361 72.1132 168.698 72.3071L195.273 87.608C195.367 87.6633 195.439 87.7325 195.522 87.7961C195.591 87.8514 195.671 87.9011 195.735 87.962C195.812 88.0422 195.868 88.1334 195.934 88.2219C195.984 88.2883 196.045 88.3464 196.083 88.4183C196.147 88.5261 196.183 88.645 196.227 88.7612C196.252 88.8248 196.288 88.8829 196.305 88.9492V88.9492ZM191.952 118.589V93.3573L182.652 98.7111L169.804 106.108V131.34L191.955 118.589H191.952ZM165.376 164.231V138.983L152.739 146.201L116.65 166.798V192.284L165.376 164.231ZM63.4995 78.3163V164.231L112.22 192.281V166.801L86.7675 152.396L86.7592 152.39L86.7481 152.385C86.6624 152.335 86.5905 152.263 86.5103 152.202C86.4412 152.147 86.361 152.102 86.3001 152.042L86.2946 152.033C86.2227 151.964 86.1729 151.878 86.1121 151.801C86.0568 151.726 85.9904 151.663 85.9462 151.585L85.9434 151.577C85.8936 151.494 85.8632 151.395 85.8272 151.301C85.7913 151.218 85.7443 151.14 85.7222 151.052V151.049C85.6945 150.944 85.689 150.833 85.6779 150.725C85.6669 150.642 85.6447 150.559 85.6447 150.476V91.0675L72.7995 83.6673L63.4995 78.3191V78.3163ZM87.8626 61.7405L65.7201 74.4862L87.857 87.2319L109.997 74.4835L87.857 61.7405H87.8626ZM99.3777 141.284L112.223 133.89V78.3163L102.923 83.6701L90.0749 91.0675V146.641L99.3777 141.284ZM167.592 76.7815L145.452 89.5272L167.592 102.273L189.728 89.5244L167.592 76.7815ZM165.376 106.108L152.528 98.7111L143.228 93.3573V118.589L156.074 125.983L165.376 131.34V106.108ZM114.432 162.968L146.906 144.429L163.139 135.164L141.016 122.427L115.544 137.092L92.3287 150.457L114.432 162.968Z" fill="#FF2D20"/>
</svg>
