<svg width="256" height="257" viewBox="0 0 256 257" fill="none" xmlns="http://www.w3.org/2000/svg">
<rect x="0.5" y="0.936035" width="255" height="255" rx="31.5" fill="white"/>
<rect x="0.5" y="0.936035" width="255" height="255" rx="31.5" stroke="white"/>
<path d="M192.184 147.242C192.184 153.931 186.711 159.404 180.022 159.404H77.8027C71.1139 159.404 65.6411 153.931 65.6411 147.242V108.511C65.6411 101.822 71.1139 96.3494 77.8027 96.3494H180.022C186.711 96.3494 192.184 101.822 192.184 108.511V147.242Z" fill="url(#paint0_linear_307_594)"/>
<path d="M170.801 127.049C176.143 128.918 178.813 132.121 178.813 136.652C178.813 139.634 177.706 142.002 175.496 143.753C173.289 145.505 170.139 146.592 166.04 146.592C161.941 146.592 158.149 145.404 154.657 143.454C154.695 142.42 154.968 141.286 155.47 140.054C155.971 138.823 156.565 137.845 157.246 137.13C160.455 138.798 163.248 139.633 165.619 139.633C166.74 139.633 167.607 139.445 168.21 139.067C168.815 138.689 169.115 138.183 169.115 137.547C169.115 136.351 168.189 135.456 166.342 134.86L163.025 133.607C158.006 131.778 155.497 128.798 155.497 124.658C155.497 121.636 156.551 119.24 158.659 117.468C160.768 115.698 163.609 114.174 167.182 114.174C168.95 114.174 170.896 114.423 173.025 114.92C175.152 115.418 176.9 116.645 178.265 117.319C178.345 118.433 178.122 119.656 177.602 120.988C177.079 122.322 176.438 123.266 175.673 123.823C172.298 122.311 169.489 121.555 167.239 121.555C166.433 121.555 165.827 121.734 165.401 122.093C164.979 122.452 164.772 122.909 164.772 123.466C164.772 124.421 165.534 125.175 167.061 125.733L170.801 127.049Z" fill="#F6F6F6"/>
<path d="M144.116 127.049C149.459 128.918 152.128 132.121 152.128 136.652C152.128 139.634 151.02 142.002 148.814 143.753C146.604 145.505 143.454 146.592 139.356 146.592C135.26 146.592 131.464 145.404 127.973 143.454C128.01 142.42 128.284 141.286 128.786 140.054C129.288 138.823 129.88 137.845 130.562 137.13C133.775 138.798 136.567 139.633 138.937 139.633C140.059 139.633 140.926 139.445 141.527 139.067C142.129 138.689 142.432 138.183 142.432 137.547C142.432 136.351 141.505 135.456 139.659 134.86L136.344 133.607C131.324 131.778 128.814 128.798 128.814 124.658C128.814 121.636 129.868 119.24 131.978 117.468C134.085 115.698 136.926 114.174 140.499 114.174C142.265 114.174 144.216 114.423 146.34 114.92C148.47 115.418 150.215 116.645 151.581 117.319C151.662 118.433 151.438 119.656 150.919 120.988C150.397 122.322 149.755 123.266 148.991 123.823C145.614 122.311 142.806 121.555 140.554 121.555C139.75 121.555 139.141 121.734 138.717 122.093C138.297 122.452 138.088 122.909 138.088 123.466C138.088 124.421 138.851 125.175 140.378 125.733L144.116 127.049Z" fill="#F6F6F6"/>
<path d="M124.656 127.47C124.656 125.641 124.365 123.951 123.783 122.398C123.203 120.846 122.368 119.515 121.285 118.401C120.2 117.287 118.886 116.412 117.34 115.776C115.793 115.141 114.056 114.182 112.129 114.182C109.84 114.182 107.842 115.219 106.136 116.015C104.43 116.81 103.024 117.903 101.921 119.295C100.814 120.689 99.9911 122.329 99.4493 124.218C98.9074 126.107 98.6365 128.166 98.6365 130.392C98.6365 132.697 98.8565 134.829 99.299 136.777C99.7403 138.723 100.494 140.412 101.557 141.846C102.622 143.278 104.007 144.391 105.715 145.185C107.422 145.98 109.54 146.59 112.07 146.59C116.727 146.59 120.662 145.242 123.875 142.976C123.557 140.672 122.736 138.839 121.417 137.487C119.776 138.103 118.324 138.544 117.066 138.815C115.806 139.083 114.695 139.218 113.736 139.218C111.815 139.218 110.434 138.729 109.595 137.743C108.757 136.759 108.298 135.597 108.216 133.83H123.878C124.395 132.157 124.656 129.897 124.656 127.47ZM108.157 127.883C108.276 125.853 108.646 123.681 109.263 122.787C109.88 121.891 110.826 121.444 112.102 121.444C113.417 121.444 114.403 121.92 115.06 122.874C115.718 123.829 116.046 125.753 116.046 127.224L116.047 127.883H108.157Z" fill="#F6F6F6"/>
<path d="M195.337 131.852C193.635 133.339 192.647 135.479 192.647 138.277V148.698C192.647 152.161 191.582 154.796 189.177 156.607C186.774 158.416 183.973 159.312 180.775 159.398L178.88 159.384V154.191C180.55 153.704 181.236 153.137 181.901 152.494C183.106 151.406 184.028 149.634 184.028 147.175V138.762C184.073 135.903 184.293 133.662 185.334 132.044C186.379 130.426 188.413 129.011 191.435 127.789C188.097 126.26 185.855 124.264 184.712 121.802C184.04 120.34 184.027 118.367 184.027 115.885V108.17C184.027 105.622 183.193 103.837 182.167 102.818C181.5 102.153 180.724 101.622 178.877 101.221V96.3469C181.136 96.3705 182.276 96.3446 183.592 96.3469C185.617 96.3303 187.314 97.4377 188.79 98.5911C190.398 99.8557 191.54 101.565 192.21 103.717C192.591 104.961 192.645 106.148 192.645 107.279V116.202C192.645 119.353 193.577 121.696 195.168 123.225C196.065 124.113 197.33 124.924 199.504 125.657V129.687C197.578 130.22 196.369 130.941 195.337 131.852Z" fill="#F6F6F6" stroke="#404040" stroke-width="0.538843" stroke-miterlimit="10"/>
<path d="M75.539 96.3495V96.3565C74.892 96.3529 74.3062 96.3505 73.8379 96.3517C71.8113 96.334 70.1149 97.4414 68.6398 98.5959C67.0297 99.8606 65.6515 101.511 65.2198 103.722C64.9737 105.019 65.0257 106.152 65.0257 107.284V116.207C65.0257 119.357 63.8534 121.698 62.2633 123.23C61.3677 124.118 59.4558 124.928 57.2814 125.66V129.691C59.2086 130.222 61.0637 130.941 62.0928 131.855C63.7964 133.343 65.0243 135.484 65.0243 138.282V148.702C65.0243 152.164 65.8501 154.801 68.2528 156.609C70.6556 158.417 73.4558 159.316 76.6535 159.404L78.7936 159.389V154.193C77.1243 153.705 76.1969 153.138 75.5285 152.497C74.3253 151.407 73.6439 149.638 73.6439 147.179V138.766C73.5977 135.904 73.1364 133.665 72.0942 132.046C71.052 130.43 69.0183 129.013 65.9921 127.792C69.3319 126.262 71.5725 124.267 72.7153 121.807C73.3886 120.343 73.644 118.37 73.644 115.888V108.173C73.644 105.625 74.2354 103.84 75.2601 102.82C75.8161 102.267 76.805 101.811 78.1787 101.442L80.3507 101.457C80.3507 99.5877 80.3507 98.4174 80.3507 96.3491H75.5393V96.3495H75.539Z" fill="#F6F6F6" stroke="#404040" stroke-width="0.538843" stroke-miterlimit="10"/>
<path d="M95.5645 138.624H93.9378C92.1693 138.624 91.5032 137.694 91.5032 135.826V101.496C91.5032 99.4314 90.907 97.9821 90.1438 97.147C89.3807 96.3141 88.0558 96.3224 86.1688 96.3224H82.4954L82.0625 96.3141V96.3495L82.0589 101.459V137.487C82.0589 140.352 82.7025 142.449 83.8475 143.783C84.9939 145.115 86.9306 145.78 89.661 145.78C91.5492 145.78 93.6976 145.581 96.1062 145.183C96.2268 144.78 96.2872 143.919 96.2872 142.598C96.2872 141.273 96.0461 139.951 95.5645 138.624Z" fill="#F6F6F6"/>
<defs>
<linearGradient id="paint0_linear_307_594" x1="128.913" y1="96.3494" x2="128.913" y2="159.404" gradientUnits="userSpaceOnUse">
<stop offset="0.1497" stop-color="#2A4F84"/>
<stop offset="0.3884" stop-color="#294E82"/>
<stop offset="1" stop-color="#172E4E"/>
</linearGradient>
</defs>
</svg>
