<svg width="256" height="257" viewBox="0 0 256 257" fill="none" xmlns="http://www.w3.org/2000/svg">
<rect x="0.5" y="0.936035" width="255" height="255" rx="31.5" fill="#F4F2ED"/>
<rect x="0.5" y="0.936035" width="255" height="255" rx="31.5" stroke="#F4F2ED"/>
<path d="M99.5558 142.081L113.778 99.4145L177.778 163.415L156.445 198.97L128 170.526H113.778" fill="#00E8FF"/>
<path d="M128 170.526V113.637L156.445 85.1923V142.081M71.1113 170.526L99.5558 198.97L113.778 170.526L99.5558 142.081H85.3336" fill="#283198"/>
<path d="M99.5558 142.081V85.1923L128 56.7478V113.637M156.445 198.97V142.081L184.889 113.637V170.526M71.1113 170.526V113.637L99.5558 142.081" fill="#324FFF"/>
<path d="M99.5558 198.97V142.081L128 170.526" fill="#00FFFF"/>
</svg>
