<svg width="256" height="257" viewBox="0 0 256 257" fill="none" xmlns="http://www.w3.org/2000/svg">
<rect x="0.5" y="0.718018" width="255" height="255" rx="31.5" fill="#F4F2ED"/>
<rect x="0.5" y="0.718018" width="255" height="255" rx="31.5" stroke="#F4F2ED"/>
<g clip-path="url(#clip0_307_367)">
<path d="M190.913 96.9322C198.547 111.916 200.474 129.164 196.335 145.463C192.195 161.762 182.271 176 168.413 185.525C154.554 195.05 137.705 199.212 121.005 197.235C104.305 195.258 88.8933 187.278 77.641 174.781C66.3886 162.284 60.0631 146.122 59.843 129.308C59.6229 112.493 65.5231 96.171 76.4445 83.3837C87.3658 70.5964 102.563 62.2154 119.206 59.8024C135.848 57.3893 152.8 61.1086 166.904 70.2674" stroke="#808080" stroke-width="1.1309" stroke-dasharray="4.25 4.25"/>
<path d="M129.152 182.013C158.761 182.013 182.764 158.01 182.764 128.4C182.764 98.7912 158.761 74.7881 129.152 74.7881C99.5428 74.7881 75.5398 98.7912 75.5398 128.4C75.5398 158.01 99.5428 182.013 129.152 182.013Z" fill="#000080"/>
<path d="M151.359 121.896C160.032 121.896 167.062 114.866 167.062 106.193C167.062 97.521 160.032 90.4906 151.359 90.4906C142.687 90.4906 135.657 97.521 135.657 106.193C135.657 114.866 142.687 121.896 151.359 121.896Z" fill="white"/>
<path d="M182.765 90.491C191.437 90.491 198.467 83.4606 198.467 74.7881C198.467 66.1157 191.437 59.0853 182.765 59.0853C174.092 59.0853 167.062 66.1157 167.062 74.7881C167.062 83.4606 174.092 90.491 182.765 90.491Z" fill="#000080"/>
<path d="M114.629 155.206V151.249H97.2584V120.031H92.771V155.206H114.629Z" fill="white"/>
<path d="M138.744 155.206V129.922H134.739V143.867C134.739 149.03 132.037 152.407 127.839 152.407C124.655 152.407 122.628 150.477 122.628 147.437V129.922H118.623V149.03C118.623 153.228 121.76 155.93 126.681 155.93C130.397 155.93 132.761 154.627 135.125 151.298V155.206H138.744Z" fill="white"/>
<path d="M168.16 155.109V152.07C167.726 152.166 167.533 152.166 167.292 152.166C165.893 152.166 165.121 151.442 165.121 150.188V136.098C165.121 131.611 161.84 129.198 155.615 129.198C149.487 129.198 145.723 131.563 145.482 137.401H149.535C149.873 134.313 151.707 132.914 155.47 132.914C159.089 132.914 161.116 134.265 161.116 136.677V137.739C161.116 139.428 160.102 140.151 156.918 140.537C151.224 141.261 150.356 141.454 148.812 142.081C145.868 143.288 144.372 145.556 144.372 148.644C144.372 153.228 147.557 155.93 152.672 155.93C155.905 155.93 159.041 154.579 161.261 152.214C161.695 154.144 163.432 155.544 165.41 155.544C166.23 155.544 166.858 155.447 168.16 155.109ZM161.116 146.472C161.116 150.091 157.449 152.407 153.54 152.407C150.404 152.407 148.57 151.298 148.57 148.547C148.57 145.893 150.356 144.735 154.65 144.108C158.896 143.529 159.765 143.336 161.116 142.709V146.472Z" fill="white"/>
</g>
<defs>
<clipPath id="clip0_307_367">
<rect width="142.222" height="142.222" fill="white" transform="translate(57.2814 56.5298)"/>
</clipPath>
</defs>
</svg>
