<svg width="257" height="257" viewBox="0 0 257 257" fill="none" xmlns="http://www.w3.org/2000/svg">
<rect x="0.708862" y="0.688232" width="255" height="255" rx="31.5" fill="#F4F2ED"/>
<rect x="0.708862" y="0.688232" width="255" height="255" rx="31.5" stroke="#F4F2ED"/>
<path d="M57.4903 132.743V71.1608L110.824 101.952V122.479L75.2681 101.952V143.007L57.4903 132.743Z" fill="#00B0FF"/>
<path d="M110.824 101.952L164.157 71.1608V132.743L128.601 153.27L110.824 143.007L146.379 122.479V101.952L110.824 122.479V101.952Z" fill="#0081CB"/>
<path d="M110.824 143.007V163.534L146.379 184.061V163.534L110.824 143.007Z" fill="#00B0FF"/>
<path d="M146.379 184.062L199.712 153.27V112.216L181.935 122.479V143.007L146.379 163.534V184.062ZM181.935 101.952V81.4245L199.712 71.1608V91.6882L181.935 101.952Z" fill="#0081CB"/>
</svg>
