<svg width="257" height="257" viewBox="0 0 257 257" fill="none" xmlns="http://www.w3.org/2000/svg">
<rect x="0.536987" y="1.2821" width="255" height="255" rx="31.5" fill="#F4F2ED"/>
<rect x="0.536987" y="1.2821" width="255" height="255" rx="31.5" stroke="#F4F2ED"/>
<path d="M187.212 166.528L132.247 198.286C131.088 198.961 129.771 199.316 128.43 199.316C127.089 199.316 125.771 198.961 124.613 198.286L69.6475 166.528C67.281 165.154 65.8304 162.635 65.8304 159.963V96.4471C65.8304 93.6991 67.281 91.2563 69.6475 89.882L124.613 58.1242C125.771 57.4494 127.089 57.0939 128.43 57.0939C129.771 57.0939 131.088 57.4494 132.247 58.1242L187.212 89.882C189.579 91.2563 191.029 93.7754 191.029 96.4471V159.963C190.953 162.635 189.502 165.154 187.212 166.528V166.528Z" fill="#8D6748"/>
<path d="M128.353 66.7512C127.208 66.7512 126.063 67.0564 125.071 67.6672L77.5869 95.0734C75.5255 96.2188 74.3043 98.4323 74.3043 100.722V155.535C74.3043 157.902 75.5255 160.039 77.5869 161.185L125.071 188.591C126.063 189.202 127.208 189.507 128.353 189.507C129.498 189.507 130.644 189.202 131.636 188.591L179.12 161.184C181.181 160.039 182.402 157.825 182.402 155.535V100.722C182.402 98.356 181.181 96.2188 179.12 95.0734L131.636 67.6667C130.643 67.0564 129.498 66.7512 128.353 66.7512V66.7512ZM128.353 69.0415C129.116 69.0415 129.804 69.2703 130.491 69.6523L177.974 97.0585C179.272 97.8215 180.112 99.2725 180.112 100.799V155.612C180.112 157.139 179.272 158.589 177.974 159.352L130.491 186.758C129.804 187.14 129.117 187.369 128.353 187.369C127.598 187.366 126.858 187.154 126.216 186.758L78.7317 159.353C77.4338 158.589 76.5941 157.139 76.5941 155.612V100.799C76.5941 99.2725 77.4338 97.8219 78.7313 97.058L126.215 69.6523C126.902 69.2703 127.666 69.041 128.352 69.041L128.353 69.0415ZM123.964 116.831H130.376C130.605 116.831 130.758 116.754 130.911 116.601C134.728 112.326 135.11 103.394 135.11 100.723C135.11 100.341 134.804 99.9591 134.346 99.9591H119.994C119.612 99.9591 119.23 100.264 119.23 100.723C119.23 103.318 119.612 112.25 123.43 116.601C123.582 116.754 123.735 116.831 123.964 116.831V116.831ZM122.208 102.326H132.285C132.666 102.326 133.048 102.631 133.048 103.089C133.048 105.227 132.666 111.257 130.071 114.387C129.842 114.54 129.689 114.617 129.46 114.617H124.956C124.727 114.617 124.574 114.54 124.422 114.387C121.826 111.334 121.521 105.227 121.444 103.089C121.444 102.708 121.75 102.326 122.208 102.326ZM128.62 98.4328C128.62 98.4328 131.369 96.8292 129.689 93.9286C128.697 92.4012 128.239 91.1038 128.62 90.5692C127.628 91.7909 125.949 93.0884 127.781 95.8369C128.392 96.524 128.697 97.974 128.62 98.4323V98.4328ZM125.567 98.6612C125.567 98.6612 127.399 97.5926 126.254 95.6075C125.567 94.6152 125.262 93.6992 125.567 93.3935C124.88 94.2332 123.811 95.073 125.032 96.9817C125.414 97.3632 125.567 98.356 125.567 98.6612ZM125.338 113.701H129.155C129.307 113.701 129.46 113.624 129.613 113.472C130.911 111.945 131.521 109.578 131.827 107.517C131.827 107.517 131.75 108.204 129.918 108.891C127.4 109.807 122.971 109.196 122.971 109.196C123.353 110.8 123.964 112.326 124.88 113.472C124.956 113.624 125.185 113.701 125.338 113.701ZM96.6336 135.152V119.884H93.8093L89.1526 127.06L84.4958 119.884H81.671V135.228H84.3427V124.312L89.0758 131.411H89.1521L93.9619 124.235V135.152H96.6336V135.152ZM113.734 120.189C112.742 119.808 111.673 119.579 110.528 119.579C109.383 119.579 108.314 119.731 107.321 120.19C106.329 120.571 105.489 121.182 104.802 121.869C104.081 122.589 103.51 123.445 103.123 124.388C102.741 125.381 102.512 126.373 102.512 127.442V127.518C102.512 128.587 102.741 129.656 103.123 130.572C103.504 131.564 104.039 132.404 104.726 133.091C105.413 133.778 106.253 134.389 107.245 134.77C108.237 135.152 109.307 135.381 110.451 135.381C111.597 135.381 112.665 135.228 113.658 134.77C114.65 134.389 115.49 133.778 116.177 133.091C116.899 132.371 117.47 131.515 117.857 130.572C118.238 129.579 118.468 128.587 118.468 127.518V127.442C118.468 126.373 118.238 125.304 117.856 124.388C117.475 123.396 116.941 122.556 116.254 121.869C115.566 121.182 114.727 120.571 113.734 120.189V120.189ZM115.566 127.594C115.566 128.281 115.414 128.968 115.185 129.656C114.879 130.266 114.574 130.877 114.116 131.335C113.647 131.801 113.106 132.188 112.513 132.48C111.901 132.786 111.215 132.938 110.451 132.938C109.765 132.938 109.001 132.786 108.391 132.48C107.798 132.188 107.256 131.801 106.787 131.336C106.329 130.8 105.948 130.266 105.718 129.58C105.489 128.892 105.337 128.206 105.337 127.442V127.365C105.337 126.678 105.489 125.991 105.718 125.304C106.024 124.693 106.329 124.083 106.787 123.625C107.256 123.159 107.798 122.772 108.391 122.479C109.001 122.174 109.688 122.021 110.451 122.021C111.214 122.021 111.902 122.174 112.513 122.479C113.106 122.772 113.647 123.159 114.116 123.625C114.574 124.159 114.956 124.693 115.185 125.38C115.414 126.067 115.566 126.755 115.566 127.518V127.594H115.566ZM126.865 125.304C127.17 124.693 127.475 124.082 127.933 123.625C128.402 123.159 128.944 122.772 129.536 122.479C130.147 122.174 130.758 122.021 131.521 122.021C132.437 122.021 133.201 122.174 133.888 122.555C134.575 122.937 135.186 123.396 135.796 123.93L137.552 121.945C137.171 121.564 136.789 121.258 136.407 120.952C136.026 120.647 135.567 120.418 135.11 120.189C134.575 120.036 134.117 119.884 133.506 119.731C132.896 119.655 132.285 119.579 131.598 119.579C130.376 119.579 129.384 119.807 128.391 120.189C127.399 120.571 126.559 121.182 125.872 121.869C125.199 122.611 124.656 123.463 124.269 124.388C123.869 125.356 123.662 126.394 123.658 127.442V127.518C123.658 128.587 123.887 129.579 124.269 130.572C124.651 131.564 125.185 132.404 125.872 133.091C126.559 133.778 127.399 134.389 128.315 134.77C129.281 135.178 130.32 135.386 131.369 135.381C132.056 135.381 132.743 135.381 133.43 135.228C133.964 135.152 134.575 134.923 135.033 134.694C135.491 134.465 135.949 134.236 136.407 133.854C136.865 133.473 137.247 133.167 137.629 132.709L135.873 130.953C135.186 131.564 134.499 132.022 133.888 132.404C133.277 132.786 132.437 132.938 131.521 132.938C130.834 132.938 130.147 132.709 129.536 132.48C128.926 132.251 128.391 131.793 127.933 131.336C127.475 130.8 127.094 130.266 126.865 129.579C126.636 128.892 126.483 128.205 126.483 127.442V127.365C126.483 126.678 126.636 125.991 126.865 125.304V125.304ZM142.973 119.884V135.152H145.644V128.74H152.973V135.152H155.645V119.884H152.973V126.22H145.644V119.884H142.973V119.884ZM172.287 131.488L173.814 135.153H176.638L169.921 119.808H167.477L160.76 135.152H163.508L165.111 131.488H172.287V131.488ZM168.699 123.014L171.294 129.122H166.104L168.699 123.014V123.014ZM79.7627 140.801H177.097V139.961H79.7627V140.801ZM135.72 111.257C135.72 111.562 135.644 111.791 135.644 112.097H177.097V111.257H135.72H135.72ZM118.696 111.257H79.7627V112.097H118.773C118.773 111.792 118.696 111.562 118.696 111.257H118.696Z" fill="white"/>
</svg>
