<svg width="257" height="257" viewBox="0 0 257 257" fill="none" xmlns="http://www.w3.org/2000/svg">
<rect x="0.880615" y="1.39111" width="255" height="255" rx="31.5" fill="white"/>
<rect x="0.880615" y="1.39111" width="255" height="255" rx="31.5" stroke="white"/>
<path d="M127.447 57.5913L131.242 64.7197C132.096 66.0351 133.02 67.1995 134.109 68.2838C137.301 71.4362 140.276 74.8006 143.015 78.3542C149.446 86.798 153.783 96.1751 156.881 106.317C158.738 112.512 159.747 118.867 159.823 125.293C160.134 144.505 153.548 161.001 140.268 174.711C138.108 176.886 135.775 178.88 133.291 180.675C131.976 180.675 131.354 179.667 130.811 178.738C129.824 177.016 129.167 175.124 128.874 173.16C128.407 170.836 128.1 168.512 128.252 166.112V165.028C128.145 164.797 126.985 58.1379 127.447 57.5913V57.5913Z" fill="#599636"/>
<path d="M127.447 57.3558C127.292 57.0447 127.136 57.2802 126.981 57.4313C127.056 58.9868 126.514 60.3733 125.665 61.6977C124.732 63.0131 123.496 64.0219 122.256 65.1063C115.368 71.0703 109.946 78.2742 105.604 86.3314C99.827 97.1751 96.8494 108.796 96.005 121.031C95.6184 125.444 97.4005 141.016 98.7915 145.509C102.587 157.437 109.404 167.432 118.235 176.107C120.403 178.196 122.723 180.133 125.123 181.995C125.821 181.995 125.896 181.373 126.056 180.911C126.362 179.922 126.595 178.912 126.754 177.889L128.309 166.272L127.447 57.3558Z" fill="#6CAC48"/>
<path d="M131.242 185.395C131.398 183.618 132.251 182.142 133.18 180.671C132.247 180.285 131.554 179.516 131.011 178.658C130.544 177.846 130.157 176.99 129.856 176.103C128.771 172.85 128.54 169.436 128.229 166.112V164.099C127.843 164.41 127.763 167.041 127.763 167.432C127.537 170.946 127.07 174.439 126.367 177.889C126.136 179.285 125.981 180.676 125.123 181.915C125.123 182.071 125.123 182.227 125.198 182.458C126.594 186.564 126.976 190.746 127.212 195.008V196.563C127.212 198.421 127.136 198.03 128.678 198.652C129.3 198.883 129.994 198.963 130.616 199.425C131.082 199.425 131.158 199.039 131.158 198.727L130.927 196.172V189.044C130.851 187.799 131.082 186.564 131.238 185.4L131.242 185.395Z" fill="#C2BFBF"/>
</svg>
