<svg width="256" height="257" viewBox="0 0 256 257" fill="none" xmlns="http://www.w3.org/2000/svg">
<rect x="0.5" y="0.718018" width="255" height="255" rx="31.5" fill="white"/>
<rect x="0.5" y="0.718018" width="255" height="255" rx="31.5" stroke="white"/>
<path fill-rule="evenodd" clip-rule="evenodd" d="M141.024 56.8087C139.995 56.8087 139.04 57.0291 138.159 57.3229C140.032 58.5717 141.06 60.2245 141.574 62.0977C141.611 62.3548 141.685 62.5385 141.721 62.7956C141.758 63.0159 141.795 63.2363 141.795 63.4567C141.942 66.6888 140.95 67.0929 140.252 69.0028C139.187 71.4636 139.481 74.1081 140.766 76.2384C140.877 76.4955 141.024 76.7893 141.207 77.0465C139.811 67.754 147.561 66.3583 148.994 63.4567C149.104 60.9224 147.01 59.2328 145.358 58.0575C143.778 57.1026 142.346 56.8087 141.024 56.8087ZM152.703 58.9023C152.556 59.747 152.667 59.5267 152.63 59.9674C152.593 60.2612 152.593 60.6285 152.557 60.9224C152.483 61.2162 152.41 61.51 152.299 61.8039C152.226 62.0977 152.116 62.3915 152.006 62.6854C151.859 62.9792 151.749 63.2363 151.602 63.5301C151.491 63.6771 151.418 63.824 151.308 63.9709C151.234 64.0811 151.161 64.1913 151.087 64.3015C150.904 64.5586 150.72 64.8157 150.536 65.036C150.316 65.2564 150.132 65.5135 149.875 65.6972V65.7339C149.655 65.9176 149.435 66.138 149.177 66.3216C148.406 66.9093 147.525 67.35 146.717 67.901C146.46 68.0846 146.202 68.2315 145.982 68.4519C145.725 68.6355 145.505 68.8192 145.284 69.0396C145.027 69.2599 144.843 69.4803 144.623 69.7374C144.439 69.9578 144.219 70.2149 144.072 70.472C143.888 70.7291 143.705 70.9862 143.558 71.2433C143.411 71.5371 143.301 71.7942 143.154 72.0881C143.044 72.3819 142.934 72.639 142.86 72.9328C142.75 73.2634 142.676 73.5572 142.603 73.8511C142.566 73.9981 142.566 74.1816 142.53 74.3285C142.493 74.4755 142.493 74.6224 142.456 74.7693C142.456 75.0631 142.419 75.3937 142.419 75.6875C142.419 75.9079 142.419 76.1283 142.456 76.3487C142.456 76.6425 142.493 76.9363 142.566 77.2669C142.603 77.5607 142.677 77.8545 142.75 78.1484C142.86 78.4422 142.934 78.736 143.044 79.0299C143.117 79.2135 143.227 79.3972 143.301 79.5441L134.853 76.2752C133.421 75.8712 132.025 75.5039 130.593 75.1733C129.821 74.9897 129.05 74.806 128.279 74.6224C126.075 74.1816 123.835 73.8511 121.594 73.6307C121.521 73.6307 121.484 73.5939 121.41 73.5939C119.207 73.3736 117.04 73.2634 114.836 73.2634C113.22 73.2634 111.604 73.3368 110.024 73.447C107.784 73.594 105.543 73.8878 103.303 74.255C102.752 74.3284 102.201 74.4387 101.65 74.5489C100.512 74.7692 99.4097 75.0264 98.3445 75.2835C97.7936 75.4304 97.2426 75.5773 96.6917 75.7242C96.1408 75.9446 95.6266 76.2017 95.1123 76.4221C94.7083 76.6057 94.3043 76.7894 93.9003 76.973C93.8269 77.0098 93.7533 77.0098 93.7167 77.0464C93.3494 77.23 93.0188 77.377 92.6882 77.5606C92.5781 77.5974 92.5046 77.634 92.4311 77.6708C92.0271 77.8544 91.6231 78.0748 91.2925 78.2585C91.0354 78.3686 90.7783 78.5156 90.558 78.6258C90.4478 78.6992 90.3008 78.7727 90.2274 78.8094C89.8968 78.993 89.5663 79.1767 89.2724 79.3603C88.9419 79.544 88.648 79.7276 88.3909 79.9113C88.1338 80.0949 87.8767 80.2418 87.6563 80.4255C87.6195 80.4622 87.5829 80.4623 87.5462 80.4989C87.3258 80.6459 87.0687 80.8294 86.8483 81.0131C86.8483 81.0131 86.8115 81.0499 86.7749 81.0865C86.5913 81.2335 86.4076 81.3803 86.224 81.5272C86.1506 81.564 86.077 81.6374 86.0036 81.6742C85.8199 81.8212 85.6363 82.0048 85.4527 82.1517C85.4159 82.2251 85.3425 82.2619 85.3057 82.2987C85.0853 82.519 84.8649 82.7027 84.6446 82.9231C84.6078 82.9231 84.6078 82.9598 84.5712 82.9965C84.3508 83.1801 84.1304 83.4005 83.91 83.6209C83.8732 83.6576 83.8732 83.6943 83.8366 83.6943C83.653 83.8779 83.4693 84.0616 83.2857 84.2819C83.2123 84.3553 83.102 84.4289 83.0286 84.5023C82.845 84.7227 82.6246 84.943 82.4042 85.1634C82.3674 85.2368 82.294 85.2736 82.2572 85.3471C81.9634 85.6409 81.7063 85.9347 81.4125 86.2286C81.3757 86.2654 81.3391 86.302 81.3023 86.3388C80.7146 86.9631 80.0902 87.5875 79.4291 88.1385C78.768 88.7261 78.0701 89.2771 77.3723 89.7546C76.6377 90.2688 75.9398 90.7095 75.1685 91.1503C74.4339 91.5543 73.6626 91.9216 72.8546 92.2521C72.0833 92.5827 71.2752 92.8765 70.4672 93.1336C68.9246 93.4642 67.3452 94.0886 65.9862 94.1988C65.6924 94.1988 65.3618 94.2722 65.068 94.309C64.7374 94.3824 64.4436 94.4559 64.1498 94.5293C63.856 94.6395 63.5621 94.7497 63.2683 94.8599C62.9744 94.9701 62.6806 95.117 62.3868 95.2639C62.1297 95.4476 61.8358 95.5945 61.5787 95.7781C61.3216 95.9618 61.0645 96.1821 60.8442 96.4025C60.5871 96.5862 60.3299 96.8433 60.1096 97.0636C59.8892 97.3208 59.6688 97.5411 59.4852 97.7982C59.3015 98.0921 59.0812 98.3492 58.9342 98.643C58.7506 98.9001 58.567 99.1939 58.42 99.4878C58.2731 99.8183 58.1262 100.112 58.016 100.443C57.9058 100.737 57.7956 101.067 57.6854 101.398C57.612 101.692 57.5385 101.985 57.5018 102.279C57.5018 102.316 57.465 102.353 57.465 102.389C57.3916 102.72 57.3916 103.161 57.3548 103.381C57.318 103.638 57.2814 103.859 57.2814 104.116C57.2814 104.263 57.2814 104.446 57.3182 104.593C57.355 104.85 57.3916 105.071 57.4652 105.291C57.5386 105.511 57.6122 105.732 57.7223 105.952V105.989C57.8325 106.209 57.9794 106.43 58.1263 106.65C58.2733 106.87 58.4202 107.091 58.6038 107.311C58.7874 107.495 59.0078 107.715 59.2282 107.899C59.4486 108.119 59.6689 108.303 59.926 108.486C60.8075 109.258 61.0279 109.515 62.1665 110.103C62.3502 110.213 62.5338 110.286 62.7542 110.396C62.791 110.396 62.8276 110.433 62.8644 110.433C62.8644 110.507 62.8644 110.543 62.9012 110.617C62.938 110.911 63.0114 111.204 63.0848 111.498C63.1582 111.829 63.2685 112.123 63.3787 112.38C63.4888 112.6 63.5623 112.821 63.6725 113.041C63.7093 113.114 63.7459 113.188 63.7827 113.225C63.9296 113.518 64.0765 113.776 64.2234 114.033C64.4071 114.29 64.5907 114.547 64.7743 114.804C64.958 115.024 65.1784 115.281 65.3987 115.502C65.6191 115.722 65.8395 115.906 66.0966 116.126C66.0966 116.126 66.1334 116.163 66.17 116.163C66.3904 116.347 66.6108 116.53 66.8311 116.677C67.0882 116.861 67.3453 117.008 67.6392 117.155C67.8963 117.302 68.1901 117.449 68.4839 117.559C68.7043 117.669 68.9614 117.742 69.2185 117.816C69.2553 117.853 69.2919 117.853 69.3655 117.889C69.5125 117.926 69.696 117.963 69.843 117.999C69.7328 119.983 69.696 121.856 69.9899 122.517C70.3205 123.252 71.9366 121.011 73.5527 118.44C73.3323 120.974 73.1854 123.95 73.5527 124.831C73.9567 125.749 76.1604 122.884 78.0703 119.726C104.111 113.702 127.875 131.699 130.373 157.116C129.895 153.149 125.01 150.945 122.77 151.496C121.668 154.214 119.795 157.704 116.783 159.871C117.04 157.446 116.93 154.949 116.416 152.525C115.607 155.904 114.028 159.063 111.861 161.78C108.372 162.038 104.883 160.348 103.046 157.814C102.899 157.704 102.862 157.483 102.752 157.336C102.642 157.079 102.532 156.822 102.458 156.565C102.348 156.308 102.275 156.051 102.238 155.794C102.201 155.537 102.201 155.279 102.201 154.986C102.201 154.802 102.201 154.618 102.201 154.435C102.238 154.178 102.311 153.92 102.385 153.663C102.458 153.406 102.532 153.149 102.642 152.892C102.789 152.635 102.899 152.378 103.083 152.121C103.707 150.358 103.707 148.925 102.569 148.081C102.348 147.934 102.128 147.823 101.871 147.713C101.724 147.676 101.54 147.603 101.393 147.566C101.283 147.529 101.21 147.493 101.099 147.456C100.842 147.383 100.585 147.309 100.328 147.272C100.071 147.199 99.8139 147.162 99.5568 147.162C99.2997 147.125 99.0059 147.089 98.7488 147.089C98.5651 147.089 98.3815 147.126 98.1978 147.126C97.904 147.126 97.6469 147.162 97.3898 147.236C97.1327 147.273 96.8756 147.309 96.6185 147.383C96.3614 147.456 96.1043 147.53 95.8472 147.64C95.5901 147.75 95.3697 147.86 95.1126 147.97C94.8922 148.081 94.6718 148.228 94.4147 148.338C85.8568 153.921 90.9622 166.996 96.8021 170.779C94.5984 171.183 92.3579 171.661 91.7335 172.138C91.6967 172.175 91.6601 172.212 91.6601 172.212C93.2395 173.167 94.8923 173.975 96.6185 174.672C98.9692 175.444 101.467 176.142 102.569 176.435V176.472C105.617 177.097 108.702 177.317 111.824 177.133C128.095 175.995 141.428 163.617 143.852 147.309C143.926 147.64 143.999 147.934 144.073 148.264C144.183 148.925 144.33 149.623 144.403 150.321V150.358C144.476 150.688 144.513 151.019 144.55 151.313V151.46C144.587 151.79 144.623 152.121 144.623 152.415C144.66 152.819 144.697 153.223 144.697 153.627V154.215C144.697 154.398 144.734 154.619 144.734 154.802C144.734 155.023 144.697 155.243 144.697 155.463V155.978C144.697 156.235 144.66 156.455 144.66 156.712C144.66 156.859 144.66 157.006 144.623 157.19C144.623 157.447 144.587 157.704 144.587 157.998C144.55 158.108 144.55 158.218 144.55 158.328C144.513 158.622 144.476 158.879 144.439 159.173C144.439 159.283 144.439 159.393 144.403 159.504C144.366 159.871 144.293 160.201 144.256 160.569V160.606V160.642C144.182 160.973 144.109 161.34 144.035 161.671V161.781C143.962 162.111 143.888 162.442 143.815 162.773C143.815 162.809 143.778 162.883 143.778 162.92C143.705 163.25 143.631 163.581 143.521 163.911V164.021C143.411 164.389 143.301 164.719 143.227 165.05C143.19 165.087 143.19 165.123 143.19 165.123C143.08 165.491 142.97 165.858 142.86 166.225C142.713 166.592 142.603 166.923 142.456 167.29C142.309 167.658 142.199 168.025 142.052 168.355C141.905 168.723 141.758 169.053 141.611 169.421H141.574C141.427 169.751 141.28 170.118 141.097 170.449C141.06 170.559 141.023 170.633 140.987 170.706C140.95 170.743 140.95 170.779 140.913 170.816C138.526 175.628 135 179.852 130.592 183.157C130.299 183.341 130.005 183.561 129.711 183.782C129.637 183.855 129.527 183.892 129.454 183.965C129.197 184.149 128.94 184.333 128.646 184.516L128.756 184.737H128.793C129.307 184.663 129.821 184.59 130.335 184.516H130.372C131.327 184.369 132.282 184.186 133.237 184.002C133.494 183.965 133.788 183.892 134.045 183.818C134.229 183.781 134.376 183.745 134.559 183.708C134.816 183.671 135.073 183.598 135.331 183.561C135.551 183.488 135.771 183.451 135.992 183.378C139.665 182.496 143.227 181.284 146.643 179.852C140.803 187.822 132.98 194.249 123.834 198.473C128.058 198.179 132.282 197.481 136.359 196.306C151.161 191.935 163.612 181.982 171.068 168.576C169.562 177.06 166.183 185.141 161.188 192.193C164.751 189.842 168.019 187.124 170.994 184.039C179.222 175.444 184.621 164.536 186.457 152.819C187.706 158.622 188.074 164.609 187.523 170.522C214.041 133.536 189.726 95.1909 179.552 85.0904C179.516 85.017 179.479 84.9803 179.479 84.9068C179.442 84.9436 179.442 84.9436 179.442 84.9802C179.442 84.9434 179.442 84.9434 179.405 84.9068C179.405 85.3476 179.369 85.7883 179.332 86.229C179.222 87.0738 179.112 87.8819 178.965 88.6899C178.781 89.4979 178.561 90.306 178.34 91.114C178.083 91.8853 177.789 92.6934 177.459 93.4647C177.128 94.1992 176.761 94.9706 176.357 95.7052C175.953 96.403 175.512 97.1376 175.035 97.7987C174.557 98.4966 174.043 99.1577 173.529 99.7821C172.978 100.443 172.39 101.031 171.802 101.619C171.435 101.949 171.105 102.243 170.737 102.537C170.444 102.794 170.186 103.014 169.893 103.271C169.231 103.786 168.57 104.263 167.836 104.704C167.138 105.145 166.403 105.585 165.669 105.953C164.897 106.32 164.126 106.65 163.355 106.981C162.583 107.275 161.775 107.532 160.967 107.752C160.159 107.973 159.315 108.156 158.507 108.303C157.662 108.45 156.817 108.524 156.009 108.597C155.421 108.634 154.834 108.67 154.246 108.67C153.401 108.67 152.556 108.597 151.748 108.524C150.904 108.45 150.059 108.34 149.251 108.156C148.406 108.009 147.598 107.789 146.79 107.532H146.753C147.561 107.458 148.369 107.385 149.177 107.238C150.022 107.091 150.83 106.907 151.638 106.687C152.446 106.467 153.254 106.21 154.026 105.916C154.834 105.622 155.605 105.255 156.339 104.887C157.111 104.52 157.809 104.116 158.543 103.675C159.241 103.198 159.939 102.72 160.6 102.206C161.261 101.692 161.886 101.141 162.473 100.553C163.098 100.002 163.649 99.3779 164.2 98.7535C164.75 98.0924 165.265 97.4313 165.742 96.7702C165.816 96.66 165.889 96.5131 165.963 96.4029C166.33 95.8152 166.697 95.2276 167.028 94.6399C167.432 93.9053 167.799 93.1707 168.13 92.3994C168.46 91.6281 168.754 90.8568 169.011 90.0488C169.268 89.2774 169.452 88.4694 169.635 87.6614C169.782 86.8166 169.929 86.0085 170.003 85.2005C170.076 84.3557 170.15 83.511 170.15 82.7029C170.15 82.1153 170.113 81.5276 170.076 80.9399C170.003 80.0952 169.893 79.2871 169.782 78.4791C169.635 77.6343 169.452 76.8263 169.232 76.0182C168.974 75.2469 168.717 74.4389 168.423 73.6676C168.13 72.8963 167.762 72.125 167.395 71.3904C166.991 70.6558 166.587 69.9212 166.146 69.2234C165.669 68.5255 165.191 67.8644 164.677 67.2033C164.126 66.5789 163.575 65.9545 162.988 65.3301C162.694 65.0362 162.363 64.7057 162.033 64.4119C160.38 63.1263 158.654 61.9143 156.927 60.8124C156.67 60.6654 156.45 60.5553 156.193 60.4451C154.981 59.6738 153.842 59.2696 152.703 58.9023Z" fill="#E0234E"/>
</svg>
