<svg width="257" height="256" viewBox="0 0 257 256" fill="none" xmlns="http://www.w3.org/2000/svg">
<rect x="1.05225" y="0.5" width="255" height="255" rx="31.5" fill="#F4F2ED"/>
<rect x="1.05225" y="0.5" width="255" height="255" rx="31.5" stroke="#F4F2ED"/>
<path d="M142.249 148.931L107.369 141.643C107.223 141.925 107.06 142.199 106.882 142.462L138.636 188.782L140.551 186.869L145.953 153.275C145.04 152.889 144.23 152.296 143.587 151.542C142.944 150.787 142.485 149.893 142.249 148.931V148.931ZM129.525 103.335C128.218 105.34 125.962 106.666 123.394 106.666C122.998 106.666 122.614 106.626 122.236 106.566L106.329 131.456L148.827 113.167C148.814 112.996 148.776 112.836 148.776 112.66C148.776 112.302 148.825 111.956 148.883 111.614L129.525 103.336V103.335ZM130.68 98.7999L151.272 107.604C151.928 107.091 152.678 106.712 153.48 106.489L156.865 85.4446L143.971 72.5509L129.458 95.2605C130.169 96.3127 130.591 97.5336 130.68 98.8005V98.7999ZM173.827 102.407L160.905 89.4823L158.096 106.931C158.808 107.289 159.448 107.776 159.983 108.366L173.827 102.407V102.407ZM142.867 144.335C143.372 143.417 144.099 142.64 144.98 142.073C145.862 141.506 146.871 141.168 147.916 141.089L151.627 118.007C151.336 117.814 151.076 117.582 150.82 117.345L108.078 135.74C108.187 136.187 108.262 136.642 108.298 137.115L142.867 144.335V144.335ZM177.347 105.929L162.396 112.362L199.285 128.133L199.418 128L177.347 105.929ZM150.629 153.345L146.136 181.28L172.227 155.189L153.434 151.265C152.713 152.208 151.741 152.929 150.629 153.345V153.345ZM99.9157 146.163C98.9712 146.163 98.0668 146 97.2202 145.713L88.5536 159.276L85.2048 155.929L93.4135 143.085C93.2105 142.833 93.0214 142.57 92.8469 142.298L77.976 148.7L74.4511 145.175L90.7286 138.169L61.3007 132.027L57.2758 128L58.5491 126.727L92.4847 133.811C92.8749 133.071 93.3746 132.393 93.9669 131.802L77.496 107.778L80.8226 104.451L98.0307 129.553C98.6486 129.41 99.2807 129.336 99.9151 129.333C100.642 129.333 101.346 129.436 102.02 129.609L118.122 104.413C116.811 103.053 116.079 101.238 116.08 99.3488C116.08 98.771 116.153 98.211 116.28 97.6733L96.1913 89.0845L99.7151 85.5601L118.748 93.7C119.713 92.9045 120.867 92.3708 122.098 92.1502C123.329 91.9295 124.596 92.0293 125.777 92.44L140.624 69.2043L128.309 56.8889L57.198 128L128.309 199.111L135.307 192.113L103.316 145.442C102.245 145.917 101.087 146.162 99.9157 146.163V146.163ZM156.154 119.002L152.378 142.466C153.038 142.997 153.584 143.654 153.985 144.4C154.385 145.145 154.632 145.964 154.709 146.807L176.138 151.28L195.76 131.658L160.342 116.516C159.329 117.865 157.823 118.759 156.154 119.002V119.002Z" fill="#25C7B7"/>
</svg>
