<svg width="257" height="257" viewBox="0 0 257 257" fill="none" xmlns="http://www.w3.org/2000/svg">
<rect x="0.776123" y="0.797119" width="255" height="255" rx="31.5" fill="#F4F2ED"/>
<rect x="0.776123" y="0.797119" width="255" height="255" rx="31.5" stroke="#F4F2ED"/>
<g clip-path="url(#clip0_20_1664)">
<path d="M150.68 114.087H175.453V118.659H165.626V142.714H160.712V118.659H150.68V114.087Z" fill="black"/>
<path d="M109.939 114.087V118.659H90.0818V126.015H106.051V130.587H90.0818V138.142H109.939V142.714H85.1682V118.659H85.1661V114.087H109.939Z" fill="black"/>
<path d="M122.308 114.099H115.878L138.91 142.726H145.359L133.842 128.422L145.341 114.121L138.91 114.131L130.622 124.424L122.308 114.099Z" fill="black"/>
<path d="M128.907 134.547L125.687 130.543L115.86 142.748H122.308L128.907 134.547Z" fill="black"/>
<path fill-rule="evenodd" clip-rule="evenodd" d="M85.3404 142.714L62.2773 114.075H56.1354V142.702H61.0489V120.194L79.1677 142.714H85.3404Z" fill="black"/>
<path d="M176.558 142.539C176.198 142.539 175.892 142.415 175.635 142.165C175.379 141.916 175.252 141.614 175.256 141.256C175.252 140.909 175.379 140.61 175.635 140.361C175.892 140.111 176.198 139.987 176.558 139.987C176.904 139.987 177.207 140.111 177.463 140.361C177.723 140.61 177.852 140.909 177.856 141.256C177.852 141.493 177.792 141.709 177.673 141.903C177.55 142.1 177.393 142.254 177.196 142.365C177.003 142.48 176.79 142.539 176.558 142.539Z" fill="black"/>
<path d="M184.944 130.479H187.121V138.868C187.118 139.639 186.951 140.298 186.625 140.853C186.296 141.407 185.84 141.83 185.254 142.129C184.671 142.424 183.988 142.575 183.213 142.575C182.503 142.575 181.868 142.447 181.302 142.198C180.736 141.948 180.286 141.574 179.957 141.082C179.624 140.59 179.46 139.977 179.46 139.242H181.641C181.645 139.563 181.718 139.842 181.858 140.075C181.997 140.308 182.19 140.485 182.437 140.61C182.686 140.735 182.973 140.797 183.296 140.797C183.646 140.797 183.945 140.725 184.188 140.577C184.431 140.433 184.618 140.216 184.748 139.928C184.874 139.642 184.941 139.288 184.944 138.868V130.479Z" fill="black"/>
<path d="M196.08 133.76C196.027 133.252 195.794 132.855 195.388 132.572C194.978 132.287 194.449 132.146 193.8 132.146C193.344 132.146 192.951 132.215 192.625 132.349C192.298 132.487 192.045 132.671 191.872 132.904C191.699 133.137 191.613 133.402 191.606 133.701C191.606 133.95 191.666 134.167 191.782 134.347C191.899 134.531 192.055 134.685 192.258 134.81C192.458 134.938 192.681 135.043 192.924 135.128C193.171 135.213 193.417 135.286 193.663 135.345L194.798 135.623C195.255 135.728 195.698 135.87 196.12 136.05C196.543 136.227 196.926 136.453 197.262 136.726C197.599 136.998 197.865 137.326 198.061 137.71C198.258 138.094 198.358 138.543 198.358 139.062C198.358 139.76 198.178 140.374 197.815 140.905C197.452 141.433 196.929 141.847 196.243 142.145C195.561 142.441 194.735 142.592 193.763 142.592C192.824 142.592 192.005 142.447 191.316 142.159C190.624 141.873 190.084 141.453 189.695 140.902C189.305 140.351 189.096 139.678 189.066 138.888H191.223C191.253 139.301 191.386 139.646 191.613 139.924C191.842 140.2 192.142 140.403 192.508 140.541C192.878 140.676 193.29 140.745 193.747 140.745C194.223 140.745 194.642 140.672 195.005 140.531C195.364 140.39 195.647 140.193 195.851 139.938C196.057 139.685 196.16 139.386 196.164 139.045C196.16 138.734 196.067 138.474 195.887 138.271C195.704 138.068 195.451 137.897 195.128 137.759C194.802 137.621 194.422 137.497 193.99 137.388L192.611 137.041C191.616 136.788 190.827 136.404 190.251 135.889C189.672 135.374 189.385 134.692 189.385 133.835C189.385 133.133 189.578 132.517 189.968 131.988C190.354 131.46 190.883 131.05 191.553 130.758C192.225 130.463 192.984 130.319 193.83 130.319C194.689 130.319 195.441 130.463 196.09 130.758C196.739 131.05 197.249 131.457 197.618 131.975C197.988 132.494 198.181 133.087 198.191 133.76H196.08Z" fill="black"/>
</g>
<defs>
<clipPath id="clip0_20_1664">
<rect width="142.222" height="28.8776" fill="white" transform="translate(56.1354 114.075)"/>
</clipPath>
</defs>
</svg>
