<svg width="257" height="257" viewBox="0 0 257 257" fill="none" xmlns="http://www.w3.org/2000/svg">
<rect x="1.32837" y="0.797119" width="255" height="255" rx="31.5" fill="#F4F2ED"/>
<rect x="1.32837" y="0.797119" width="255" height="255" rx="31.5" stroke="#F4F2ED"/>
<path d="M123.154 59.126C126.68 57.1074 131.273 57.0983 134.797 59.126C152.523 69.1421 170.254 79.1425 187.977 89.1647C191.311 91.0424 193.541 94.7522 193.507 98.5932V158.854C193.532 162.854 191.081 166.653 187.565 168.488C169.897 178.449 152.238 188.422 134.574 198.383C130.974 200.441 126.289 200.282 122.802 198.055C117.505 194.985 112.199 191.929 106.902 188.862C105.819 188.217 104.599 187.703 103.835 186.653C104.51 185.743 105.719 185.629 106.7 185.232C108.911 184.528 110.942 183.4 112.973 182.305C113.487 181.953 114.114 182.088 114.606 182.403C119.135 185 123.625 187.672 128.169 190.244C129.139 190.804 130.121 190.061 130.949 189.599C148.287 179.8 165.646 170.038 182.98 160.236C183.622 159.927 183.977 159.246 183.925 158.542C183.937 138.663 183.928 118.781 183.931 98.9022C184.005 98.1039 183.543 97.3699 182.821 97.0432C165.214 87.1279 147.617 77.1974 130.014 67.2796C129.709 67.0699 129.347 66.9574 128.977 66.9568C128.607 66.9563 128.246 67.0677 127.94 67.2765C110.337 77.1974 92.7423 87.137 75.1389 97.0518C74.4196 97.3791 73.9369 98.1009 74.0225 98.9022C74.0255 118.781 74.0225 138.663 74.0225 158.545C73.9919 158.888 74.0673 159.233 74.2385 159.532C74.4097 159.831 74.6684 160.07 74.9798 160.218C79.6774 162.882 84.381 165.527 89.0816 168.182C91.7297 169.607 94.9811 170.454 97.8987 169.362C100.473 168.439 102.278 165.811 102.229 163.077C102.253 143.315 102.217 123.549 102.247 103.789C102.183 102.912 103.015 102.187 103.868 102.27C106.125 102.254 108.385 102.239 110.643 102.276C111.585 102.254 112.233 103.199 112.117 104.083C112.107 123.971 112.141 143.859 112.101 163.747C112.107 169.047 109.93 174.815 105.027 177.408C98.9873 180.537 91.522 179.873 85.5551 176.873C80.3895 174.295 75.46 171.252 70.3861 168.49C66.8601 166.665 64.4222 162.852 64.447 158.855V98.5932C64.4101 94.6727 66.7284 90.8955 70.1657 89.0451C87.8305 79.0761 105.492 69.0995 123.154 59.126Z" fill="#8CC84B"/>
<path d="M138.564 100.869C146.269 100.373 154.517 100.575 161.449 104.37C166.817 107.279 169.793 113.383 169.888 119.346C169.738 120.151 168.897 120.595 168.129 120.539C165.894 120.536 163.658 120.57 161.423 120.524C160.474 120.561 159.923 119.686 159.804 118.848C159.162 115.995 157.606 113.169 154.92 111.793C150.798 109.728 146.018 109.832 141.522 109.875C138.24 110.05 134.711 110.334 131.931 112.264C129.796 113.726 129.148 116.677 129.91 119.053C130.628 120.76 132.598 121.31 134.21 121.818C143.494 124.246 153.333 124.005 162.441 127.2C166.211 128.503 169.9 131.036 171.191 134.984C172.879 140.275 172.139 146.599 168.374 150.847C165.321 154.343 160.875 156.245 156.44 157.278C150.541 158.594 144.418 158.627 138.427 158.043C132.794 157.401 126.931 155.921 122.582 152.082C118.863 148.853 117.047 143.822 117.227 138.966C117.27 138.146 118.086 137.574 118.872 137.641C121.123 137.623 123.374 137.617 125.625 137.644C126.524 137.58 127.191 138.357 127.237 139.204C127.652 141.923 128.674 144.776 131.044 146.388C135.619 149.34 141.36 149.137 146.598 149.22C150.938 149.028 155.81 148.969 159.352 146.101C161.22 144.465 161.774 141.727 161.269 139.373C160.722 137.384 158.642 136.458 156.856 135.852C147.691 132.953 137.742 134.005 128.665 130.726C124.98 129.424 121.416 126.962 120.001 123.176C118.025 117.818 118.93 111.19 123.089 107.086C127.145 103.003 132.999 101.431 138.564 100.868V100.869Z" fill="#8CC84B"/>
</svg>
