<svg width="257" height="257" viewBox="0 0 257 257" fill="none" xmlns="http://www.w3.org/2000/svg">
<rect x="1.15673" y="0.985107" width="255" height="255" rx="31.5" fill="white"/>
<rect x="1.15673" y="0.985107" width="255" height="255" rx="31.5" stroke="white"/>
<path d="M137.726 175.1H190.596C192.275 175.1 193.925 174.662 195.379 173.83C196.834 172.997 198.041 171.8 198.88 170.359C199.72 168.917 200.161 167.282 200.16 165.618C200.16 163.953 199.717 162.319 198.876 160.878L163.37 99.9254C162.531 98.4843 161.324 97.2875 159.87 96.4553C158.416 95.6232 156.766 95.1852 155.088 95.1852C153.409 95.1852 151.759 95.6232 150.305 96.4553C148.851 97.2875 147.644 98.4843 146.805 99.9254L137.726 115.521L119.976 85.0244C119.136 83.5833 117.928 82.3867 116.474 81.5547C115.019 80.7228 113.37 80.2848 111.69 80.2848C110.011 80.2848 108.362 80.7228 106.907 81.5547C105.453 82.3867 104.245 83.5833 103.405 85.0244L59.2224 160.878C58.3818 162.319 57.9389 163.953 57.9382 165.618C57.9374 167.282 58.3789 168.917 59.2182 170.359C60.0575 171.8 61.2649 172.997 62.7192 173.83C64.1734 174.662 65.8232 175.1 67.5024 175.1H100.69C113.839 175.1 123.536 169.375 130.209 158.207L146.408 130.402L155.085 115.521L181.126 160.219H146.408L137.726 175.1ZM100.149 160.204L76.9882 160.199L111.706 100.605L129.029 130.402L117.43 150.317C112.999 157.564 107.965 160.204 100.149 160.204Z" fill="#00DC82"/>
</svg>
