<svg width="256" height="257" viewBox="0 0 256 257" fill="none" xmlns="http://www.w3.org/2000/svg">
<rect x="0.5" y="0.718018" width="255" height="255" rx="31.5" fill="#F4F2ED"/>
<rect x="0.5" y="0.718018" width="255" height="255" rx="31.5" stroke="#F4F2ED"/>
<path d="M131.068 174.777C130.786 173.65 131.35 172.242 130.786 171.115C130.505 169.989 129.66 169.989 129.378 169.144C128.252 166.891 126.844 164.356 126.844 161.54C126.844 159.287 125.999 157.034 125.717 154.781C125.717 153.655 125.717 152.528 125.717 151.402C125.717 150.838 125.717 150.275 125.435 149.712C125.435 149.43 125.435 148.867 125.154 148.867L125.435 148.022C125.435 147.74 127.97 147.74 128.815 147.74C130.223 147.74 131.35 147.74 132.758 148.022C135.574 148.022 137.827 148.022 140.643 147.74C146.558 146.895 149.092 144.361 150.5 143.516C155.851 139.855 158.386 133.377 158.386 133.377C159.231 131.406 159.231 127.745 161.202 126.337C163.455 124.365 167.116 124.647 169.651 123.52C171.059 122.957 172.186 122.394 173.875 122.675C175.002 122.957 176.973 124.365 177.537 122.394C177.255 122.112 176.973 121.831 176.692 121.549C178.945 121.267 176.692 116.48 175.847 115.353C174.439 113.945 172.467 113.1 170.214 112.537C167.398 111.692 164.863 110.847 162.329 111.41C157.823 112.255 158.104 109.721 155.57 109.721C152.472 109.721 146.839 110.002 145.713 113.1C145.149 114.508 144.868 114.508 144.023 115.635C143.46 116.48 144.023 117.325 143.741 118.451C143.46 119.578 142.896 123.52 142.333 124.928C141.488 127.181 140.362 129.998 138.39 129.998C135.574 130.279 133.321 130.561 131.068 129.716C129.66 129.153 127.407 128.308 126.28 128.026C120.929 125.773 120.085 123.52 120.085 123.52C119.521 122.675 118.113 120.986 117.55 119.014C116.987 116.761 115.86 115.071 115.578 113.945C115.015 112.818 114.17 110.847 113.325 108.876C112.199 106.341 110.791 104.37 109.664 103.525C107.975 102.117 106.566 99.8636 103.187 100.427C102.624 100.427 100.371 100.708 98.6808 102.117C97.5543 102.961 97.2726 104.933 96.1461 106.623C95.5829 107.468 94.4563 110.284 93.6115 112.537C93.0482 114.227 92.7666 115.353 91.9217 115.916C91.3584 116.48 90.7952 117.043 89.9503 116.761C89.387 116.48 88.8238 116.198 88.2605 115.916C87.4156 115.353 85.7259 112.255 84.5994 110.284C83.7545 108.312 81.7831 105.496 80.6566 104.088C78.9668 101.835 78.1219 101.272 75.5873 101.272C70.518 101.272 69.9547 104.088 67.7017 108.312C66.5752 110.284 66.2935 113.1 64.3221 115.353C63.4773 116.48 59.8161 121.831 57.2814 122.675V161.54V161.259C57.5631 160.695 57.5631 160.132 57.8447 159.85C58.9712 157.879 61.2242 155.908 62.3507 153.655C62.914 152.528 63.7589 151.402 64.3221 149.993C64.6038 149.148 64.8854 147.459 65.4486 146.614C66.0119 145.487 67.1384 145.206 68.2649 144.924C70.2363 144.642 71.6445 147.459 73.8975 148.585C74.7424 149.148 79.2484 150.557 80.6566 150.838C82.9096 151.402 85.1626 151.683 87.4156 152.246C88.5422 152.528 89.6687 152.528 91.0768 152.81C92.2033 152.81 96.4277 153.091 96.4277 153.373C94.4563 154.499 93.0482 157.316 92.2033 159.569C91.3584 161.822 90.7952 164.356 89.9503 166.328C88.8238 168.581 86.5708 169.707 86.8524 172.524C86.8524 173.65 87.134 174.777 86.8524 175.903C86.5708 177.311 86.0075 178.156 85.7259 179.564C85.1626 181.254 84.5994 186.605 84.0361 188.013L88.5422 187.45C89.1054 186.323 89.387 181.254 89.6687 180.691C90.5136 178.156 91.6401 176.185 93.3298 174.213C95.0196 172.242 95.0196 169.989 95.8645 167.736C96.991 165.201 98.3991 163.512 99.8073 161.259C102.342 157.316 104.032 151.965 109.101 150.838C109.664 150.838 112.762 153.091 114.17 154.499C115.86 156.189 117.55 157.879 118.676 160.132C120.648 164.356 122.619 170.552 123.182 173.65C123.464 175.622 123.746 175.622 125.154 177.311C125.717 177.875 126.844 180.128 127.407 180.972C127.688 181.817 128.533 183.789 128.815 184.915C129.097 185.479 129.941 187.45 130.505 189.14H134.729C133.039 184.352 131.631 179.564 131.068 174.777Z" fill="white"/>
<path d="M128.815 184.634C128.252 183.507 127.689 181.536 127.407 180.691C127.125 179.846 125.717 177.593 125.154 177.03C123.746 175.621 123.464 175.34 123.183 173.368C122.619 169.989 120.648 163.793 118.677 159.85C117.55 157.597 115.86 155.908 114.17 154.218C112.762 152.81 109.664 150.557 109.101 150.557C103.75 151.683 102.342 156.752 99.8074 160.977C98.3993 163.23 96.9911 165.201 95.8646 167.454C94.7381 169.707 95.0197 172.242 93.33 173.932C91.6402 175.903 90.5137 177.875 89.6688 180.409C89.3872 180.972 89.1056 186.042 88.5423 187.168L96.4279 186.605C103.75 187.168 101.497 189.985 113.044 189.421L131.068 188.858C129.942 187.168 129.097 185.197 128.815 184.634Z" fill="url(#paint0_linear_305_257)"/>
<path d="M181.198 65.7865H75.024C65.167 65.7865 57.2814 73.9537 57.2814 83.8107V122.957C59.8161 121.83 63.4773 116.48 64.6038 115.071C66.5752 112.818 66.8568 109.72 67.9833 108.031C70.2363 103.806 70.7996 100.99 75.8689 100.99C78.4035 100.99 79.2484 101.553 80.9382 103.806C82.0647 105.214 84.0361 108.031 84.881 109.72C86.0075 111.974 87.6973 114.79 88.5422 115.353C89.1054 115.916 89.6687 116.198 90.2319 116.198C91.0768 116.48 91.6401 115.916 92.2033 115.353C93.0482 114.79 93.3298 113.663 93.8931 111.974C94.738 109.72 95.8645 106.904 96.4277 106.059C97.5543 104.37 97.8359 102.398 98.9624 101.553C100.652 100.145 102.624 100.145 103.468 99.8635C106.848 99.3003 108.256 101.553 109.946 102.961C111.072 103.806 112.481 105.778 113.607 108.312C114.452 110.284 115.578 112.255 115.86 113.382C116.142 114.508 117.268 116.198 117.831 118.451C118.395 120.422 119.803 121.83 120.366 122.957C120.366 122.957 121.211 125.492 126.562 127.463C127.688 128.026 129.942 128.59 131.35 129.153C133.603 129.998 135.856 129.998 138.672 129.434C140.643 129.434 141.77 126.618 142.615 124.365C143.178 122.957 143.741 119.014 144.023 117.888C144.305 116.761 143.46 115.916 144.305 115.071C145.149 113.945 145.431 113.945 145.994 112.537C146.839 109.439 152.753 109.157 155.851 109.157C158.386 109.157 158.104 111.692 162.61 110.847C165.145 110.284 167.68 111.129 170.496 111.974C172.749 112.537 175.002 113.382 176.129 114.79C176.973 115.635 178.945 120.704 176.973 120.986C177.255 121.267 177.255 121.549 177.818 121.831C177.255 123.802 175.284 122.394 174.157 122.112C172.749 121.831 171.622 122.112 169.933 122.957C167.398 124.084 163.455 124.084 161.484 125.773C159.512 127.463 159.512 130.843 158.668 132.814C158.668 132.814 156.133 139.291 150.782 142.953C149.374 144.079 146.839 146.332 140.925 147.177C138.39 147.459 135.856 147.74 133.039 147.459C131.631 147.459 130.505 147.459 129.097 147.177C128.252 147.177 125.717 147.177 125.717 147.459L125.435 148.304C125.435 148.585 125.435 149.148 125.717 149.148C125.717 149.712 125.717 150.275 125.999 150.838C125.999 151.965 125.999 153.091 125.999 154.218C125.999 156.471 126.844 158.724 127.125 160.977C127.125 163.511 128.533 166.328 129.66 168.581C130.223 169.426 130.786 169.426 131.068 170.552C131.35 171.679 131.068 172.805 131.35 174.213C131.913 179.001 133.321 183.789 135.574 188.295C138.109 187.731 140.925 186.887 144.305 186.323C150.5 185.478 159.231 185.76 164.863 185.478C178.945 184.07 186.83 191.393 199.504 188.295V83.8107C199.222 73.9537 191.336 65.7865 181.198 65.7865Z" fill="url(#paint1_linear_305_257)"/>
<path d="M89.9503 166.328C91.0768 164.075 91.6401 161.822 92.2033 159.569C93.0482 157.316 94.1747 154.499 96.4277 153.373C96.1461 153.091 91.9217 152.81 91.0768 152.81C89.9503 152.81 88.8238 152.528 87.4156 152.246C85.1626 151.683 82.628 151.402 80.6566 150.838C79.2484 150.557 75.024 148.867 73.8975 148.585C71.6445 147.459 70.2363 144.642 68.2649 144.924C67.1384 145.206 66.0119 145.487 65.4486 146.614C64.8854 147.459 64.6038 149.149 64.3221 150.275C63.7589 151.402 63.1956 152.81 62.3507 153.936C60.9426 156.189 58.6896 158.161 57.8447 160.132C57.5631 160.695 57.5631 160.977 57.2814 161.54V185.76C58.4079 186.042 59.5345 186.323 60.9426 186.605C70.7996 189.14 73.3342 189.421 83.1912 188.295H84.0361C84.881 186.605 85.4442 181.536 85.7259 179.846C86.0075 178.719 86.5708 177.593 86.8524 176.185C87.134 175.058 86.8524 173.932 86.8524 172.805C86.5708 169.707 88.8238 168.581 89.9503 166.328Z" fill="url(#paint2_linear_305_257)"/>
<defs>
<linearGradient id="paint0_linear_305_257" x1="109.346" y1="150.641" x2="109.346" y2="189.493" gradientUnits="userSpaceOnUse">
<stop stop-color="#F29100"/>
<stop offset="1" stop-color="#EC670F"/>
</linearGradient>
<linearGradient id="paint1_linear_305_257" x1="128.229" y1="65.8442" x2="128.229" y2="189.568" gradientUnits="userSpaceOnUse">
<stop stop-color="#F29100"/>
<stop offset="1" stop-color="#EC670F"/>
</linearGradient>
<linearGradient id="paint2_linear_305_257" x1="76.8422" y1="144.854" x2="76.8422" y2="188.714" gradientUnits="userSpaceOnUse">
<stop stop-color="#F29100"/>
<stop offset="1" stop-color="#EC670F"/>
</linearGradient>
</defs>
</svg>
