<svg width="256" height="257" viewBox="0 0 256 257" fill="none" xmlns="http://www.w3.org/2000/svg">
<rect x="0.5" y="0.718018" width="255" height="255" rx="31.5" fill="white"/>
<rect x="0.5" y="0.718018" width="255" height="255" rx="31.5" stroke="white"/>
<path d="M102.122 172.482C77.2106 172.482 57.2814 152.552 57.2814 127.641C57.2814 102.729 77.2106 82.8001 102.122 82.8001H154.663C179.574 82.8001 199.504 102.729 199.504 127.641C199.504 152.552 179.574 172.482 154.663 172.482H102.122ZM153.304 156.629C169.61 156.629 182.292 143.494 182.292 127.641C182.292 111.335 169.157 98.6529 153.304 98.6529H103.481C87.1752 98.6529 74.493 111.788 74.493 127.641C74.493 143.494 87.6282 156.629 103.481 156.629H153.304Z" fill="#C74634"/>
</svg>
