<svg width="257" height="257" viewBox="0 0 257 257" fill="none" xmlns="http://www.w3.org/2000/svg">
<rect x="1.26111" y="1.39111" width="255" height="255" rx="31.5" fill="#F4F2ED"/>
<rect x="1.26111" y="1.39111" width="255" height="255" rx="31.5" stroke="#F4F2ED"/>
<path d="M184.798 84.8507C176.201 73.7185 164.496 65.3857 151.164 60.9062C137.831 56.4268 123.469 56.0018 109.895 59.685C96.3202 63.3683 84.143 70.9944 74.903 81.5987C65.663 92.2031 59.7753 105.309 57.9845 119.26C56.1938 133.211 58.5803 147.379 64.8424 159.974C71.1045 172.568 80.9609 183.022 93.1649 190.015C105.369 197.007 119.372 200.223 133.404 199.256C147.436 198.29 160.866 193.183 171.996 184.583C203.062 160.574 208.796 115.928 184.796 84.8507H184.798Z" fill="#FF6C37"/>
<path d="M152.5 102.513L122.516 132.735L114.043 124.024C143.554 94.5128 146.516 97.1794 152.503 102.513H152.5Z" fill="white"/>
<path d="M122.516 133.561C122.251 133.555 121.997 133.449 121.805 133.266L113.272 124.733C113.08 124.534 112.973 124.268 112.973 123.991C112.973 123.715 113.08 123.449 113.272 123.25C142.367 94.155 146.338 95.5173 153.212 101.739C153.327 101.832 153.419 101.949 153.481 102.083C153.542 102.217 153.572 102.363 153.567 102.511C153.612 102.799 153.501 103.095 153.272 103.282L123.288 133.268C123.077 133.461 122.802 133.566 122.516 133.564V133.561ZM115.523 124.021L122.516 131.015L150.961 102.571C149.978 101.34 148.577 100.514 147.025 100.252C145.472 99.9894 143.877 100.309 142.545 101.148C137.39 103.459 129.094 110.51 115.523 124.021V124.021Z" fill="#FF6C37"/>
<path d="M131.11 141.09L122.932 132.734L152.916 103.104C160.976 110.986 149.005 124.141 131.11 141.088V141.09Z" fill="white"/>
<path d="M131.11 142.157C130.847 142.136 130.598 142.032 130.399 141.861L122.043 133.684C121.918 133.38 121.918 133.039 122.043 132.735C121.954 132.485 121.954 132.213 122.043 131.964L152.027 101.979C152.236 101.784 152.511 101.674 152.797 101.674C153.083 101.674 153.359 101.784 153.567 101.979C154.538 102.873 155.305 103.966 155.817 105.182C156.328 106.399 156.571 107.711 156.529 109.03C156.529 117.03 147.403 127.104 131.879 141.801C131.671 142.006 131.398 142.132 131.107 142.157H131.11ZM124.472 132.735L131.167 139.428C143.018 128.228 154.338 116.673 154.396 108.85C154.461 107.192 153.912 105.568 152.856 104.288L124.472 132.735Z" fill="#FF6C37"/>
<path d="M114.279 124.201L120.205 130.128C120.243 130.161 120.273 130.202 120.294 130.248C120.315 130.294 120.326 130.344 120.326 130.395C120.326 130.445 120.315 130.495 120.294 130.541C120.273 130.587 120.243 130.628 120.205 130.661L107.701 133.328C107.448 133.382 107.185 133.353 106.951 133.244C106.717 133.135 106.525 132.952 106.404 132.724C106.283 132.496 106.24 132.235 106.282 131.98C106.324 131.725 106.447 131.49 106.634 131.312L113.923 124.084C113.923 124.084 114.161 124.084 114.279 124.201Z" fill="white"/>
<path d="M107.405 134.513C107.01 134.508 106.623 134.401 106.281 134.204C105.938 134.007 105.652 133.725 105.45 133.386C105.222 132.956 105.139 132.464 105.214 131.983C105.289 131.503 105.518 131.059 105.865 130.719L113.094 123.43C113.355 123.197 113.692 123.069 114.042 123.069C114.392 123.069 114.729 123.197 114.99 123.43L120.916 129.357C121.267 129.69 121.405 130.195 121.272 130.661C121.139 131.128 120.747 131.499 120.265 131.61L107.761 134.277L107.405 134.513ZM114.043 125.506L107.348 132.201L118.43 129.83L114.043 125.506Z" fill="#FF6C37"/>
<path d="M168.443 85.8595C164.154 81.7218 157.416 81.5485 152.918 85.4529C148.42 89.3573 147.652 96.0594 151.154 100.882C154.656 105.704 161.258 107.055 166.369 103.993L158.309 95.9328L168.443 85.8595Z" fill="white"/>
<path d="M160.443 106.717C157.979 106.686 155.578 105.93 153.541 104.543C151.504 103.157 149.919 101.202 148.985 98.9217C148.052 96.643 147.807 94.1407 148.281 91.7243C148.755 89.3079 149.927 87.0835 151.652 85.3262C154.024 82.9973 157.216 81.6925 160.541 81.6925C163.865 81.6925 167.057 82.9973 169.429 85.3262C169.656 85.5173 169.785 85.7996 169.785 86.0973C169.785 86.2438 169.752 86.3885 169.691 86.5216C169.63 86.6546 169.541 86.7729 169.429 86.8684L159.83 95.935L167.118 103.106C167.236 103.219 167.325 103.359 167.377 103.514C167.428 103.669 167.441 103.834 167.414 103.995C167.396 104.15 167.345 104.3 167.263 104.433C167.181 104.566 167.071 104.68 166.941 104.766C164.982 105.99 162.731 106.665 160.423 106.722L160.443 106.717ZM160.443 83.724C156.221 83.7462 152.443 86.2862 150.858 90.1684C149.274 94.0506 150.136 98.5195 153.096 101.502C154.568 102.983 156.454 103.984 158.505 104.376C160.556 104.767 162.678 104.53 164.592 103.695L157.598 96.7017C157.487 96.6128 157.397 96.5 157.336 96.3718C157.274 96.2435 157.242 96.1029 157.242 95.9606C157.242 95.8183 157.274 95.6777 157.336 95.5494C157.397 95.4212 157.487 95.3084 157.598 95.2195L166.843 85.9151C165.005 84.5067 162.758 83.7366 160.443 83.7218V83.724Z" fill="#FF6C37"/>
<path d="M168.62 86.0374L158.487 96.1106L166.547 104.17C167.358 103.705 168.113 103.148 168.798 102.51C170.91 100.278 172.073 97.3115 172.04 94.238C172.006 91.1645 170.78 88.224 168.62 86.0374V86.0374Z" fill="white"/>
<path d="M166.367 105.059C166.234 105.067 166.101 105.044 165.978 104.993C165.855 104.941 165.745 104.863 165.656 104.764L157.596 96.7039C157.485 96.615 157.395 96.5022 157.333 96.3739C157.272 96.2456 157.24 96.1051 157.24 95.9628C157.24 95.8204 157.272 95.6799 157.333 95.5516C157.395 95.4233 157.485 95.3106 157.596 95.2217L167.669 85.3262C167.767 85.1795 167.899 85.0592 168.054 84.9759C168.209 84.8927 168.382 84.8491 168.558 84.8491C168.734 84.8491 168.907 84.8927 169.063 84.9759C169.218 85.0592 169.35 85.1795 169.447 85.3262C170.63 86.4848 171.569 87.8678 172.21 89.3941C172.852 90.9205 173.182 92.5594 173.182 94.215C173.182 95.8706 172.852 97.5095 172.21 99.0358C171.569 100.562 170.63 101.945 169.447 103.104C168.749 103.844 167.951 104.482 167.076 104.999C166.856 105.11 166.601 105.132 166.365 105.059H166.367ZM159.849 95.935L166.545 102.63C167.005 102.308 167.441 101.951 167.849 101.564C169.818 99.6009 170.926 96.937 170.932 94.1572C170.936 91.6696 170.029 89.2664 168.383 87.4017L159.849 95.935Z" fill="#FF6C37"/>
<path d="M153.745 103.757C152.942 103.003 151.883 102.584 150.782 102.584C149.681 102.584 148.621 103.003 147.818 103.757L120.976 130.539L125.421 135.044L153.805 110.155C154.238 109.74 154.581 109.241 154.814 108.688C155.047 108.136 155.164 107.541 155.158 106.942C155.153 106.342 155.024 105.75 154.781 105.202C154.538 104.654 154.186 104.162 153.745 103.755V103.757Z" fill="white"/>
<path d="M125.183 136.112C124.918 136.106 124.664 136 124.472 135.817L119.968 131.312C119.775 131.113 119.668 130.848 119.668 130.571C119.668 130.295 119.775 130.029 119.968 129.83L146.812 103.104C147.585 102.331 148.572 101.809 149.646 101.605C150.719 101.401 151.83 101.524 152.832 101.958C153.835 102.392 154.685 103.118 155.27 104.04C155.856 104.963 156.15 106.04 156.116 107.133C156.085 107.874 155.907 108.602 155.591 109.273C155.276 109.945 154.829 110.547 154.278 111.044L125.894 135.932C125.688 136.078 125.434 136.142 125.183 136.11V136.112ZM122.043 130.539L125.005 133.561L152.856 109.324C153.545 108.724 153.956 107.866 153.983 106.953C154.01 106.039 153.65 105.146 152.976 104.524C152.354 103.904 151.513 103.557 150.635 103.557C149.758 103.557 148.916 103.904 148.294 104.524L122.043 130.539Z" fill="#FF6C37"/>
<path d="M100.177 161.059C100.101 161.162 100.06 161.287 100.06 161.414C100.06 161.542 100.101 161.667 100.177 161.77L101.361 166.926C101.409 167.229 101.364 167.54 101.232 167.817C101.1 168.094 100.888 168.326 100.623 168.481C100.359 168.635 100.053 168.702 99.7488 168.671C99.4445 168.641 99.1578 168.514 98.9301 168.31L90.8124 160.488L116.117 134.984H124.888L130.814 140.91C121.569 148.993 111.261 155.772 100.177 161.059V161.059Z" fill="white"/>
<path d="M99.6433 169.77C98.9722 169.757 98.31 169.481 97.8655 168.999L90.1034 161.237C89.9922 161.148 89.9025 161.035 89.8408 160.907C89.7791 160.778 89.7471 160.638 89.7471 160.496C89.7471 160.353 89.7791 160.213 89.8408 160.084C89.9025 159.956 89.9922 159.843 90.1034 159.754L115.583 134.215C115.726 134.063 115.912 133.96 116.116 133.919H124.945C125.175 133.838 125.426 133.838 125.656 133.919L131.583 139.846C131.696 139.95 131.781 140.079 131.833 140.224C131.884 140.368 131.9 140.523 131.879 140.675C131.883 140.822 131.853 140.968 131.791 141.102C131.729 141.236 131.638 141.353 131.523 141.446L131.05 141.861C121.767 149.6 111.555 156.149 100.65 161.357L101.777 166.157C101.864 166.527 101.867 166.912 101.786 167.284C101.706 167.655 101.543 168.004 101.31 168.305C101.078 168.606 100.781 168.851 100.441 169.023C100.102 169.194 99.728 169.288 99.3477 169.297L99.6433 169.77ZM92.4145 160.466L99.4055 167.517C99.4707 167.575 99.5549 167.607 99.6422 167.607C99.7295 167.607 99.8137 167.575 99.8789 167.517C99.9224 167.456 99.9459 167.383 99.9459 167.309C99.9459 167.234 99.9224 167.162 99.8789 167.101L98.6944 161.946C98.6011 161.576 98.6386 161.185 98.8006 160.839C98.9626 160.494 99.2391 160.215 99.5833 160.05C110.195 154.912 120.144 148.504 129.212 140.968L124.352 136.108H116.412L92.4145 160.466Z" fill="#FF6C37"/>
<path d="M84.7101 166.57L90.6367 160.643L99.7633 169.77L85.2457 168.763C84.9964 168.744 84.7597 168.646 84.5693 168.484C84.3789 168.322 84.2445 168.104 84.1854 167.861C84.1263 167.618 84.1454 167.362 84.24 167.131C84.3346 166.9 84.4999 166.704 84.7123 166.572L84.7101 166.57Z" fill="white"/>
<path d="M99.9387 170.659L85.4789 169.652C84.6212 169.572 83.8834 168.985 83.5812 168.201C83.2789 167.416 83.4634 166.485 84.0567 165.859L89.9833 159.932C90.1822 159.74 90.4479 159.633 90.7244 159.633C91.0009 159.633 91.2666 159.74 91.4655 159.932L100.532 168.999C100.658 169.171 100.725 169.378 100.725 169.591C100.725 169.804 100.658 170.011 100.532 170.183C100.395 170.405 100.185 170.572 99.9387 170.656V170.659ZM85.4789 167.341L97.3299 168.112L90.8122 162.008L85.4789 167.341Z" fill="#FF6C37"/>
<path d="M125.716 135.699L113.745 137.537L120.679 130.663L125.716 135.699Z" fill="white"/>
<path d="M113.745 138.659C113.546 138.664 113.35 138.611 113.182 138.505C113.013 138.4 112.879 138.247 112.797 138.066C112.67 137.894 112.602 137.687 112.602 137.474C112.602 137.261 112.67 137.053 112.797 136.881L119.67 129.948C119.878 129.752 120.154 129.643 120.44 129.643C120.726 129.643 121.001 129.752 121.21 129.948L126.25 134.984C126.35 135.143 126.404 135.328 126.404 135.517C126.404 135.706 126.35 135.891 126.25 136.05C126.2 136.245 126.096 136.421 125.949 136.558C125.802 136.695 125.618 136.786 125.421 136.821L113.57 138.659H113.745ZM120.679 132.199L116.828 136.05L123.465 135.044L120.679 132.199Z" fill="#FF6C37"/>
<path d="M125.716 135.695L117.361 136.761C117.137 136.812 116.903 136.789 116.694 136.697C116.484 136.604 116.31 136.446 116.197 136.247C116.084 136.047 116.038 135.817 116.066 135.589C116.095 135.362 116.196 135.149 116.354 134.984L120.681 130.657L125.716 135.695Z" fill="white"/>
<path d="M117.123 137.89C116.736 137.887 116.356 137.78 116.023 137.582C115.691 137.385 115.416 137.102 115.228 136.764C115.001 136.358 114.914 135.89 114.978 135.43C115.042 134.97 115.254 134.543 115.583 134.215L119.91 129.888C120.118 129.692 120.394 129.583 120.68 129.583C120.966 129.583 121.241 129.692 121.45 129.888L126.487 134.926C126.637 135.068 126.743 135.25 126.791 135.451C126.839 135.652 126.828 135.862 126.759 136.056C126.69 136.251 126.566 136.421 126.403 136.547C126.239 136.672 126.042 136.748 125.836 136.764L117.541 137.83L117.123 137.89ZM117.123 135.697L123.405 134.926L120.621 132.141L117.065 135.697H117.123ZM168.678 92.8528C168.567 92.6658 168.39 92.5263 168.183 92.4608C167.975 92.3952 167.75 92.4082 167.552 92.4973C167.453 92.547 167.366 92.6158 167.295 92.6998C167.224 92.7838 167.171 92.8811 167.138 92.9861C167.072 93.198 167.093 93.4274 167.196 93.6239C167.612 94.4972 167.496 95.5306 166.9 96.2906C166.826 96.3638 166.769 96.4515 166.73 96.5483C166.692 96.6451 166.674 96.7488 166.678 96.8528C166.68 97.0612 166.76 97.2614 166.9 97.415C167.053 97.475 167.222 97.475 167.374 97.415C167.512 97.4497 167.657 97.4459 167.793 97.4039C167.929 97.362 168.05 97.2836 168.145 97.1772C168.633 96.5798 168.942 95.8565 169.036 95.0909C169.131 94.3253 169.007 93.5486 168.678 92.8506V92.8528Z" fill="#FF6C37"/>
</svg>
