<svg width="256" height="257" viewBox="0 0 256 257" fill="none" xmlns="http://www.w3.org/2000/svg">
<rect x="0.5" y="0.936035" width="255" height="255" rx="31.5" fill="#F4F2ED"/>
<rect x="0.5" y="0.936035" width="255" height="255" rx="31.5" stroke="#F4F2ED"/>
<path fill-rule="evenodd" clip-rule="evenodd" d="M140.363 74.7762C156.352 74.7706 172.341 74.722 188.329 74.7894C197.834 74.8283 200.514 78.0043 198.465 87.3912C192.465 114.882 186.33 142.346 180.112 169.789C178.145 178.463 173.628 182.016 164.503 182.043C132.525 182.138 100.548 182.149 68.5707 182.039C58.1186 182.002 55.3692 178.462 57.6211 168.557C63.7313 141.656 69.8741 114.763 76.0664 87.8804C78.4253 77.636 81.9702 74.8234 92.3959 74.7935C108.385 74.7484 124.374 74.7817 140.363 74.7762Z" fill="#E0EAF5"/>
<path fill-rule="evenodd" clip-rule="evenodd" d="M116.201 178.846C100.21 178.841 84.2193 178.915 68.2295 178.81C60.121 178.757 58.6466 176.843 60.4719 168.913C66.6599 142.016 73.0473 115.165 79.0978 88.2383C80.7202 81.0163 84.22 77.8244 91.9575 77.8959C123.936 78.1926 155.919 77.9911 187.9 78.0238C195.92 78.0314 197.267 79.7469 195.466 87.8811C189.621 114.289 183.739 140.689 177.753 167.066C175.513 176.937 172.932 178.821 162.547 178.844C147.098 178.876 131.649 178.852 116.201 178.846Z" fill="#2671BE"/>
<path fill-rule="evenodd" clip-rule="evenodd" d="M129.808 126.136C128.736 124.879 127.558 123.431 126.312 122.047C119.244 114.195 112.238 106.285 105.044 98.5514C101.752 95.012 100.702 91.5747 104.656 88.0812C108.563 84.6279 112.402 84.9337 115.986 88.9066C125.967 99.9674 135.936 111.041 146.082 121.949C149.87 126.024 148.988 128.794 144.816 131.813C128.801 143.405 112.876 155.122 96.9692 166.862C93.3937 169.501 89.9849 170.162 87.0966 166.263C83.9101 161.963 86.8582 159.405 90.1635 156.998C101.984 148.388 113.782 139.746 125.53 131.035C127.166 129.822 129.515 129.115 129.808 126.136Z" fill="#FDFDFE"/>
<path fill-rule="evenodd" clip-rule="evenodd" d="M134.871 167.734C130.566 167.734 126.254 167.882 121.959 167.686C118.532 167.531 116.47 165.616 116.513 162.007C116.555 158.594 118.275 156.028 121.698 155.936C131.108 155.683 140.531 155.738 149.943 155.922C152.935 155.98 155.143 157.929 155.125 161.046C155.103 164.621 153.222 167.392 149.392 167.622C144.568 167.914 139.713 167.695 134.871 167.695C134.871 167.706 134.871 167.72 134.871 167.734Z" fill="#FCFDFD"/>
</svg>
