<svg width="257" height="256" viewBox="0 0 257 256" fill="none" xmlns="http://www.w3.org/2000/svg">
<rect x="1.26111" y="0.5" width="255" height="255" rx="31.5" fill="#F4F2ED"/>
<rect x="1.26111" y="0.5" width="255" height="255" rx="31.5" stroke="#F4F2ED"/>
<path d="M162.379 83.4019H169.152C171.048 83.4019 172.538 84.8918 172.538 86.7881C172.538 88.6844 171.048 90.1743 169.152 90.1743H162.379C160.483 90.1743 158.993 88.6844 158.993 86.7881C158.993 84.8918 160.483 83.4019 162.379 83.4019Z" fill="#56B3B4"/>
<path d="M60.792 191.762H94.6544C96.5507 191.762 98.0406 193.252 98.0406 195.148C98.0406 197.044 96.5507 198.534 94.6544 198.534H60.792C58.8957 198.534 57.4058 197.044 57.4058 195.148C57.4058 193.252 58.8957 191.762 60.792 191.762Z" fill="#EA5E5E"/>
<path d="M142.062 137.582H162.379C164.275 137.582 165.765 139.072 165.765 140.968C165.765 142.864 164.275 144.354 162.379 144.354H142.062C140.166 144.354 138.676 142.864 138.676 140.968C138.676 139.072 140.166 137.582 142.062 137.582Z" fill="#BF85BF"/>
<path d="M101.427 137.582H128.517C130.413 137.582 131.903 139.072 131.903 140.968C131.903 142.864 130.413 144.354 128.517 144.354H101.427C99.5306 144.354 98.0406 142.864 98.0406 140.968C98.0406 139.072 99.5306 137.582 101.427 137.582Z" fill="#EA5E5E"/>
<path d="M60.792 137.582H87.882C89.7783 137.582 91.2682 139.072 91.2682 140.968C91.2682 142.864 89.7783 144.354 87.882 144.354H60.792C58.8957 144.354 57.4058 142.864 57.4058 140.968C57.4058 139.072 58.8957 137.582 60.792 137.582Z" fill="#56B3B4"/>
<path d="M60.792 164.672H94.6544C96.5507 164.672 98.0406 166.162 98.0406 168.058C98.0406 169.954 96.5507 171.444 94.6544 171.444H60.792C58.8957 171.444 57.4058 169.954 57.4058 168.058C57.4058 166.162 58.8957 164.672 60.792 164.672Z" fill="#BF85BF"/>
<path d="M60.792 110.492H94.6544C96.5507 110.492 98.0406 111.982 98.0406 113.878C98.0406 115.774 96.5507 117.264 94.6544 117.264H60.792C58.8957 117.264 57.4058 115.774 57.4058 113.878C57.4058 111.982 58.8957 110.492 60.792 110.492Z" fill="#BF85BF"/>
<path d="M94.6543 69.8569H162.379C164.275 69.8569 165.765 71.3469 165.765 73.2432C165.765 75.1395 164.275 76.6295 162.379 76.6295H94.6543C92.758 76.6295 91.2681 75.1395 91.2681 73.2432C91.2681 71.3469 92.758 69.8569 94.6543 69.8569Z" fill="#F7BA3E"/>
<path d="M60.792 69.8569H81.1095C83.0058 69.8569 84.4957 71.3469 84.4957 73.2432C84.4957 75.1395 83.0058 76.6295 81.1095 76.6295H60.792C58.8957 76.6295 57.4058 75.1395 57.4058 73.2432C57.4058 71.3469 58.8957 69.8569 60.792 69.8569Z" fill="#EA5E5E"/>
<path d="M87.8819 178.217H94.6544C96.5507 178.217 98.0407 179.707 98.0407 181.603C98.0407 183.499 96.5507 184.989 94.6544 184.989H87.8819C85.9856 184.989 84.4956 183.499 84.4956 181.603C84.4956 179.707 85.9856 178.217 87.8819 178.217Z" fill="#F7BA3E"/>
<path d="M87.8819 96.9468H94.6544C96.5507 96.9468 98.0407 98.4367 98.0407 100.333C98.0407 102.229 96.5507 103.719 94.6544 103.719H87.8819C85.9856 103.719 84.4956 102.229 84.4956 100.333C84.4956 98.4367 85.9856 96.9468 87.8819 96.9468Z" fill="#56B3B4"/>
<path d="M60.792 178.217H74.337C76.2333 178.217 77.7233 179.707 77.7233 181.603C77.7233 183.499 76.2333 184.989 74.337 184.989H60.792C58.8957 184.989 57.4058 183.499 57.4058 181.603C57.4058 179.707 58.8957 178.217 60.792 178.217Z" fill="#56B3B4"/>
<path d="M60.792 96.9468H74.337C76.2333 96.9468 77.7233 98.4367 77.7233 100.333C77.7233 102.229 76.2333 103.719 74.337 103.719H60.792C58.8957 103.719 57.4058 102.229 57.4058 100.333C57.4058 98.4367 58.8957 96.9468 60.792 96.9468Z" fill="#F7BA3E"/>
<path opacity="0.5" d="M148.834 178.217H155.607C157.503 178.217 158.993 179.707 158.993 181.603C158.993 183.499 157.503 184.989 155.607 184.989H148.834C146.938 184.989 145.448 183.499 145.448 181.603C145.448 179.707 146.938 178.217 148.834 178.217Z" fill="#D0D4D8"/>
<path opacity="0.5" d="M108.199 178.217H135.29C137.186 178.217 138.676 179.707 138.676 181.603C138.676 183.499 137.186 184.989 135.29 184.989H108.199C106.303 184.989 104.813 183.499 104.813 181.603C104.813 179.707 106.303 178.217 108.199 178.217Z" fill="#D0D4D8"/>
<path opacity="0.5" d="M169.152 178.217H196.242C198.138 178.217 199.628 179.707 199.628 181.603C199.628 183.499 198.138 184.989 196.242 184.989H169.152C167.256 184.989 165.766 183.499 165.766 181.603C165.766 179.707 167.256 178.217 169.152 178.217Z" fill="#D0D4D8"/>
<path d="M114.972 124.037H169.152C171.048 124.037 172.538 125.527 172.538 127.423C172.538 129.319 171.048 130.809 169.152 130.809H114.972C113.076 130.809 111.586 129.319 111.586 127.423C111.586 125.527 113.076 124.037 114.972 124.037Z" fill="#56B3B4"/>
<path d="M81.1095 124.037H101.427C103.323 124.037 104.813 125.527 104.813 127.423C104.813 129.319 103.323 130.809 101.427 130.809H81.1095C79.2132 130.809 77.7233 129.319 77.7233 127.423C77.7233 125.527 79.2132 124.037 81.1095 124.037Z" fill="#F7BA3E"/>
<path d="M60.792 124.037H67.5645C69.4608 124.037 70.9507 125.527 70.9507 127.423C70.9507 129.319 69.4608 130.809 67.5645 130.809H60.792C58.8957 130.809 57.4058 129.319 57.4058 127.423C57.4058 125.527 58.8957 124.037 60.792 124.037Z" fill="#EA5E5E"/>
<path d="M121.744 83.4019H148.834C150.731 83.4019 152.221 84.8918 152.221 86.7881C152.221 88.6844 150.731 90.1743 148.834 90.1743H121.744C119.848 90.1743 118.358 88.6844 118.358 86.7881C118.358 84.8918 119.848 83.4019 121.744 83.4019Z" fill="#BF85BF"/>
<path d="M60.792 83.4019H108.199C110.096 83.4019 111.586 84.8918 111.586 86.7881C111.586 88.6844 110.096 90.1743 108.199 90.1743H60.792C58.8957 90.1743 57.4058 88.6844 57.4058 86.7881C57.4058 84.8918 58.8957 83.4019 60.792 83.4019Z" fill="#56B3B4"/>
<path d="M81.1095 151.126H142.062C143.958 151.126 145.448 152.616 145.448 154.513C145.448 156.409 143.958 157.899 142.062 157.899H81.1095C79.2132 157.899 77.7233 156.409 77.7233 154.513C77.7233 152.616 79.2132 151.126 81.1095 151.126Z" fill="#F7BA3E"/>
<path d="M60.792 151.126H67.5645C69.4608 151.126 70.9507 152.616 70.9507 154.513C70.9507 156.409 69.4608 157.899 67.5645 157.899H60.792C58.8957 157.899 57.4058 156.409 57.4058 154.513C57.4058 152.616 58.8957 151.126 60.792 151.126Z" fill="#BF85BF"/>
<path d="M142.062 96.9468H175.924C177.82 96.9468 179.31 98.4367 179.31 100.333C179.31 102.229 177.82 103.719 175.924 103.719H142.062C140.166 103.719 138.676 102.229 138.676 100.333C138.676 98.4367 140.166 96.9468 142.062 96.9468Z" fill="#EA5E5E"/>
<path d="M142.062 110.492H175.924C177.82 110.492 179.31 111.982 179.31 113.878C179.31 115.774 177.82 117.264 175.924 117.264H142.062C140.166 117.264 138.676 115.774 138.676 113.878C138.676 111.982 140.166 110.492 142.062 110.492Z" fill="#F7BA3E"/>
<path d="M60.792 56.3118H142.062C143.958 56.3118 145.448 57.8017 145.448 59.698C145.448 61.5943 143.958 63.0843 142.062 63.0843H60.792C58.8957 63.0843 57.4058 61.5943 57.4058 59.698C57.4058 57.8017 58.8957 56.3118 60.792 56.3118Z" fill="#56B3B4"/>
<path opacity="0.5" d="M155.607 56.3118H196.242C198.138 56.3118 199.628 57.8017 199.628 59.698C199.628 61.5943 198.138 63.0843 196.242 63.0843H155.607C153.71 63.0843 152.22 61.5943 152.22 59.698C152.22 57.8017 153.71 56.3118 155.607 56.3118Z" fill="#D0D4D8"/>
<path opacity="0.5" d="M155.607 151.126H169.152C171.048 151.126 172.538 152.616 172.538 154.513C172.538 156.409 171.048 157.899 169.152 157.899H155.607C153.71 157.899 152.22 156.409 152.22 154.513C152.22 152.616 153.71 151.126 155.607 151.126Z" fill="#D0D4D8"/>
<path opacity="0.5" d="M182.697 151.126H196.242C198.138 151.126 199.628 152.616 199.628 154.513C199.628 156.409 198.138 157.899 196.242 157.899H182.697C180.8 157.899 179.31 156.409 179.31 154.513C179.31 152.616 180.8 151.126 182.697 151.126Z" fill="#D0D4D8"/>
<path opacity="0.5" d="M175.924 137.582H196.242C198.138 137.582 199.628 139.072 199.628 140.968C199.628 142.864 198.138 144.354 196.242 144.354H175.924C174.028 144.354 172.538 142.864 172.538 140.968C172.538 139.072 174.028 137.582 175.924 137.582Z" fill="#D0D4D8"/>
<path opacity="0.5" d="M175.924 69.8569H196.242C198.138 69.8569 199.628 71.3469 199.628 73.2432C199.628 75.1395 198.138 76.6295 196.242 76.6295H175.924C174.028 76.6295 172.538 75.1395 172.538 73.2432C172.538 71.3469 174.028 69.8569 175.924 69.8569Z" fill="#D0D4D8"/>
<path opacity="0.5" d="M182.697 124.037H196.242C198.138 124.037 199.628 125.527 199.628 127.423C199.628 129.319 198.138 130.809 196.242 130.809H182.697C180.8 130.809 179.31 129.319 179.31 127.423C179.31 125.527 180.8 124.037 182.697 124.037Z" fill="#D0D4D8"/>
<path opacity="0.5" d="M182.697 83.4019H196.242C198.138 83.4019 199.628 84.8918 199.628 86.7881C199.628 88.6844 198.138 90.1743 196.242 90.1743H182.697C180.8 90.1743 179.31 88.6844 179.31 86.7881C179.31 84.8918 180.8 83.4019 182.697 83.4019Z" fill="#D0D4D8"/>
<path opacity="0.5" d="M189.469 96.9468H196.242C198.138 96.9468 199.628 98.4367 199.628 100.333C199.628 102.229 198.138 103.719 196.242 103.719H189.469C187.573 103.719 186.083 102.229 186.083 100.333C186.083 98.4367 187.573 96.9468 189.469 96.9468Z" fill="#D0D4D8"/>
<path opacity="0.5" d="M189.469 110.492H196.242C198.138 110.492 199.628 111.982 199.628 113.878C199.628 115.774 198.138 117.264 196.242 117.264H189.469C187.573 117.264 186.083 115.774 186.083 113.878C186.083 111.982 187.573 110.492 189.469 110.492Z" fill="#D0D4D8"/>
<path opacity="0.5" d="M135.29 164.672H196.242C198.138 164.672 199.628 166.162 199.628 168.058C199.628 169.954 198.138 171.444 196.242 171.444H135.29C133.393 171.444 131.903 169.954 131.903 168.058C131.903 166.162 133.393 164.672 135.29 164.672Z" fill="#D0D4D8"/>
<path opacity="0.5" d="M108.199 164.672H121.744C123.641 164.672 125.131 166.162 125.131 168.058C125.131 169.954 123.641 171.444 121.744 171.444H108.199C106.303 171.444 104.813 169.954 104.813 168.058C104.813 166.162 106.303 164.672 108.199 164.672Z" fill="#D0D4D8"/>
<path opacity="0.5" d="M162.379 191.762H196.242C198.138 191.762 199.628 193.252 199.628 195.148C199.628 197.044 198.138 198.534 196.242 198.534H162.379C160.483 198.534 158.993 197.044 158.993 195.148C158.993 193.252 160.483 191.762 162.379 191.762Z" fill="#D0D4D8"/>
<path opacity="0.5" d="M108.199 191.762H148.834C150.731 191.762 152.221 193.252 152.221 195.148C152.221 197.044 150.731 198.534 148.834 198.534H108.199C106.303 198.534 104.813 197.044 104.813 195.148C104.813 193.252 106.303 191.762 108.199 191.762Z" fill="#D0D4D8"/>
<path opacity="0.5" d="M108.199 96.9468H128.517C130.413 96.9468 131.903 98.4367 131.903 100.333C131.903 102.229 130.413 103.719 128.517 103.719H108.199C106.303 103.719 104.813 102.229 104.813 100.333C104.813 98.4367 106.303 96.9468 108.199 96.9468Z" fill="#D0D4D8"/>
<path opacity="0.5" d="M108.199 110.492H128.517C130.413 110.492 131.903 111.982 131.903 113.878C131.903 115.774 130.413 117.264 128.517 117.264H108.199C106.303 117.264 104.813 115.774 104.813 113.878C104.813 111.982 106.303 110.492 108.199 110.492Z" fill="#D0D4D8"/>
</svg>
