<svg width="257" height="256" viewBox="0 0 257 256" fill="none" xmlns="http://www.w3.org/2000/svg">
<rect x="1.43286" y="0.5" width="255" height="255" rx="31.5" fill="#F4F2ED"/>
<rect x="1.43286" y="0.5" width="255" height="255" rx="31.5" stroke="#F4F2ED"/>
<path d="M177.128 111.56C176.906 106.675 177.572 102.346 175.352 98.6831C170.023 89.5809 156.703 84.2527 130.062 84.2527V85.0297H129.507H130.062V84.2527C103.421 84.2527 89.435 89.5809 84.1069 98.7941C81.9978 102.568 82.2198 106.786 81.8868 111.671C81.6648 115.556 79.8888 119.663 80.6658 124.103C81.5538 129.875 81.8868 135.647 82.7748 140.975C83.4409 145.305 89.435 148.968 89.9901 153.075C91.5441 164.397 103.31 169.614 129.951 169.614V170.502H129.285H130.062V169.614C156.703 169.614 168.025 164.397 169.468 153.075C170.023 148.857 175.574 145.305 176.24 140.975C177.128 135.647 177.461 129.875 178.349 124.103C179.126 119.663 177.35 115.445 177.128 111.56V111.56Z" fill="#EFCCA3"/>
<path d="M129.618 115.556C134.391 115.667 137.722 118.664 140.83 121.439C144.493 124.658 150.709 126.878 153.262 129.653C155.815 132.428 159.145 135.204 160.366 139.533C161.587 143.862 161.92 149.412 161.92 150.855C161.92 152.298 162.697 151.965 164.917 150.855C170.135 148.302 175.907 141.42 175.907 141.42C175.241 145.749 169.58 149.634 169.025 153.741C167.692 165.063 156.703 170.503 129.507 170.503H129.396H130.062" fill="#CCAC8D"/>
<path d="M147.157 106.897C148.156 110.338 151.708 121.994 144.826 118.109C144.826 118.109 147.712 119.774 149.488 126.101C151.375 132.428 155.926 133.205 155.926 133.205C155.926 133.205 163.363 134.648 168.913 129.875C173.576 125.879 174.353 118.775 172.355 113.335C170.356 108.007 166.804 106.342 161.587 105.232C156.37 104.011 145.936 103.012 147.157 106.897V106.897Z" fill="#CCAC8D"/>
<path d="M160.366 129.32C165.761 129.32 170.135 124.947 170.135 119.552C170.135 114.157 165.761 109.784 160.366 109.784C154.971 109.784 150.598 114.157 150.598 119.552C150.598 124.947 154.971 129.32 160.366 129.32Z" fill="black"/>
<path d="M157.813 117.776C159.223 117.776 160.366 116.633 160.366 115.223C160.366 113.813 159.223 112.67 157.813 112.67C156.403 112.67 155.26 113.813 155.26 115.223C155.26 116.633 156.403 117.776 157.813 117.776Z" fill="white"/>
<path d="M145.492 119.108C145.492 119.108 154.261 125.102 159.034 130.985C163.807 136.868 163.696 137.978 163.696 137.978L160.255 139.533C160.255 139.533 155.371 130.319 149.377 126.878C143.272 123.437 142.606 120.551 142.606 120.551L145.492 119.108V119.108Z" fill="#EFCCA3"/>
<path d="M129.951 115.556C125.178 115.667 121.626 118.664 118.407 121.439C114.744 124.658 108.306 126.878 105.753 129.653C103.199 132.428 99.7584 135.204 98.5374 139.533C97.3163 143.862 96.8723 149.412 96.8723 150.855C96.8723 152.298 97.0943 152.409 93.8752 150.855C88.658 148.413 82.8859 141.42 82.8859 141.42C83.5519 145.749 89.2131 149.634 89.7681 153.741C91.3221 165.063 102.311 170.503 129.507 170.503H130.062" fill="#CCAC8D"/>
<path d="M155.704 134.316C150.376 127.766 141.829 121.661 129.951 121.661H129.84C117.963 121.661 109.416 127.766 104.087 134.316C98.5373 141.087 98.9813 143.751 98.9813 150.189C98.9813 173.5 107.196 166.839 112.635 169.726C118.185 172.501 123.957 171.613 129.84 171.613H129.951C135.946 171.613 141.607 172.39 147.157 169.615C152.596 166.839 160.81 173.722 160.81 150.411C160.921 143.973 161.254 141.087 155.704 134.316V134.316Z" fill="#56332B"/>
<path d="M129.396 127.433C129.396 127.433 128.619 138.201 127.065 140.31L129.951 139.644L129.396 127.433Z" fill="#442823"/>
<path d="M130.173 127.433C130.173 127.433 130.95 138.201 132.504 140.31L129.618 139.644L130.173 127.433Z" fill="#442823"/>
<path d="M120.849 124.88C119.739 122.327 123.735 118.22 130.062 118.109C136.39 118.109 140.386 122.216 139.276 124.88C138.166 127.544 134.169 128.321 130.062 128.432C126.066 128.321 121.959 127.544 120.849 124.88V124.88Z" fill="#56332B"/>
<path d="M130.062 127.433C130.062 126.989 133.836 126.878 135.834 125.546C135.834 125.546 131.727 126.878 130.839 126.323C129.951 125.879 129.729 124.547 129.729 124.547C129.729 124.547 129.396 125.879 128.73 126.323C127.953 126.767 123.291 125.546 123.291 125.546C123.291 125.546 129.507 127.1 129.507 127.433C129.507 127.766 129.396 128.876 129.396 129.653C129.396 132.428 129.396 139.31 129.84 139.865C130.506 140.864 130.284 132.428 130.284 129.653C130.173 128.765 130.173 127.877 130.062 127.433V127.433Z" fill="black"/>
<path d="M130.284 142.307C132.171 142.307 135.501 143.639 138.498 145.748C135.612 142.529 132.171 140.309 130.284 140.309C128.286 140.309 124.068 142.751 121.071 146.303C124.179 143.861 128.175 142.307 130.284 142.307Z" fill="#7F4A41"/>
<path d="M129.507 161.955C125.289 161.955 121.182 160.623 117.408 159.624C116.631 159.402 115.854 159.957 115.077 159.735C108.084 157.515 102.422 153.741 98.9814 148.968V150.078C98.9814 173.389 107.196 166.839 112.635 169.615C118.185 172.39 123.957 171.502 129.84 171.502H129.951C135.946 171.502 141.607 172.279 147.157 169.504C152.596 166.728 160.81 173.5 160.81 150.189C160.81 149.301 160.81 148.413 160.921 147.636C157.702 152.853 151.819 156.96 144.493 159.402C143.827 159.624 142.273 159.069 141.607 159.18C137.611 160.512 134.058 161.955 129.507 161.955V161.955Z" fill="#442823"/>
<path d="M118.962 149.412C118.962 149.412 116.187 157.737 118.074 161.4L115.521 160.29C115.521 160.29 117.408 151.854 118.962 149.412V149.412ZM140.941 149.412C140.941 149.412 143.716 157.737 141.829 161.4L144.382 160.29C144.382 160.29 142.384 151.854 140.941 149.412Z" fill="#442823"/>
<path d="M111.858 106.897C110.859 110.338 107.307 121.994 114.189 118.109C114.189 118.109 111.303 119.774 109.527 126.101C107.751 132.428 103.088 133.205 103.088 133.205C103.088 133.205 95.6512 134.648 90.101 129.875C85.4389 125.879 84.6619 118.775 86.6599 113.335C88.658 107.896 92.2101 106.342 97.4273 105.232C102.644 104.011 112.968 103.012 111.858 106.897V106.897Z" fill="#CCAC8D"/>
<path d="M129.951 140.31C132.948 140.31 142.273 146.748 142.384 154.629V154.185C142.384 145.971 134.835 139.422 129.951 139.422C125.067 139.422 117.519 146.082 117.519 154.185V154.629C117.63 146.748 126.954 140.31 129.951 140.31Z" fill="black"/>
<path d="M132.375 124.94C132.849 124.818 133.048 123.997 132.819 123.106C132.589 122.216 132.018 121.593 131.543 121.716C131.068 121.838 130.869 122.66 131.099 123.55C131.328 124.44 131.9 125.063 132.375 124.94Z" fill="#331712"/>
<path d="M126.669 124.924C127.137 125.069 127.738 124.475 128.01 123.597C128.283 122.718 128.124 121.889 127.656 121.743C127.187 121.598 126.587 122.192 126.314 123.07C126.042 123.949 126.201 124.779 126.669 124.924Z" fill="#331712"/>
<path d="M99.2033 129.32C104.598 129.32 108.972 124.947 108.972 119.552C108.972 114.157 104.598 109.784 99.2033 109.784C93.8084 109.784 89.435 114.157 89.435 119.552C89.435 124.947 93.8084 129.32 99.2033 129.32Z" fill="black"/>
<path d="M101.756 117.776C103.166 117.776 104.309 116.633 104.309 115.223C104.309 113.813 103.166 112.67 101.756 112.67C100.346 112.67 99.2033 113.813 99.2033 115.223C99.2033 116.633 100.346 117.776 101.756 117.776Z" fill="white"/>
<path d="M132.837 119.663C132.837 119.552 130.284 120.773 129.618 120.884C128.952 120.773 126.399 119.552 126.399 119.663H132.837Z" fill="#7F4A41"/>
<path d="M113.412 119.108C113.412 119.108 104.642 125.102 99.8694 130.985C95.0962 136.868 95.2072 137.978 95.2072 137.978L98.6483 139.533C98.6483 139.533 103.532 130.319 109.527 126.878C115.521 123.437 116.298 120.551 116.298 120.551L113.412 119.108Z" fill="#EFCCA3"/>
<path d="M94.2082 101.347C94.2082 101.347 91.2111 109.562 84.5509 113.003C84.5509 113.003 94.9852 111.782 94.2082 101.347ZM164.251 101.347C164.251 101.347 167.248 109.562 173.909 113.003C173.909 113.003 163.474 111.782 164.251 101.347ZM145.27 116.666C145.27 116.666 138.721 109.784 129.951 109.562H130.062H130.173C121.293 109.784 114.855 116.666 114.855 116.666C122.514 111.338 129.063 111.449 130.173 111.449C130.062 111.449 137.611 111.338 145.27 116.666V116.666ZM137.611 102.235C137.611 102.235 134.28 97.5732 129.84 97.4622H130.062C126.732 97.5732 122.403 102.235 122.403 102.235C126.177 98.5722 130.062 98.6832 130.062 98.6832C130.062 98.6832 133.725 98.5722 137.611 102.235ZM99.2033 136.313C99.2033 136.313 93.9862 138.866 90.212 137.312H90.101C86.7709 135.425 85.1059 129.764 85.1059 129.764C85.1059 129.764 88.436 139.754 99.2033 136.313V136.313ZM160.033 136.313C160.033 136.313 165.25 138.866 169.025 137.312C173.465 135.425 174.131 129.764 174.131 129.764C174.131 129.764 170.801 139.754 160.033 136.313V136.313Z" fill="#CCAC8D"/>
<path d="M105.198 100.792C108.084 100.237 112.857 100.126 116.631 101.347C121.404 103.012 117.519 109.118 118.518 109.451C119.517 109.784 120.849 105.232 129.729 105.676C138.721 106.121 139.72 110.117 140.941 109.451C142.162 108.785 139.72 98.3503 153.151 100.792C153.151 100.792 139.054 97.0182 139.72 107.231C139.72 107.231 131.616 101.014 120.294 106.565C120.405 106.565 123.291 97.0182 105.198 100.792V100.792ZM154.372 100.792C154.594 100.792 154.705 100.903 154.816 100.903C154.927 100.903 154.705 100.792 154.372 100.792ZM101.312 87.1389C101.312 87.1389 89.3241 102.235 87.548 108.008C85.772 113.891 84.4399 137.979 82.8859 141.42L77.3357 117.665L87.548 92.9111L101.312 87.1389V87.1389ZM157.702 87.1389C157.702 87.1389 169.691 102.235 171.467 108.008C173.243 113.891 174.575 137.979 176.129 141.42L181.679 117.665L171.467 92.9111L157.702 87.1389V87.1389Z" fill="#CCAC8D"/>
<path d="M157.147 87.1388C157.147 87.1388 170.024 97.9061 173.798 110.339C177.572 122.771 176.018 137.867 178.904 139.754C183.011 142.419 187.673 126.545 189.227 124.88C191.669 122.216 199.773 115.445 200.328 114.224C200.883 113.003 183.899 94.465 176.462 90.8019C167.471 86.5838 156.37 86.2508 157.147 87.1388V87.1388Z" fill="#56332B"/>
<path d="M168.137 93.7991C168.137 93.7991 183.344 113.225 183.122 137.423L189.227 124.991C189.116 124.991 183.788 109.118 168.137 93.7991V93.7991Z" fill="#442823"/>
<path d="M101.312 87.1388C101.312 87.1388 88.436 97.9061 84.6619 110.339C80.8878 122.771 82.4418 137.867 79.5558 139.754C75.4486 142.419 70.7865 126.545 69.2324 124.88C66.7904 122.216 58.6871 115.445 58.1321 114.224C57.5771 113.003 74.5606 94.465 81.9978 90.8019C90.9891 86.5838 102.089 86.2508 101.312 87.1388V87.1388Z" fill="#56332B"/>
<path d="M90.3231 93.7991C90.3231 93.7991 75.1156 113.225 75.3376 137.423L69.3434 124.991C69.3434 124.991 74.6716 109.118 90.3231 93.7991Z" fill="#442823"/>
<path d="M82.1088 137.867C82.1088 137.867 83.2189 143.862 84.9949 145.749C86.771 147.636 85.5499 144.306 85.5499 144.306C85.5499 144.306 83.6629 143.307 83.9959 135.647C84.3289 127.988 82.1088 137.867 82.1088 137.867V137.867ZM176.795 137.867C176.795 137.867 175.685 143.862 173.909 145.749C172.133 147.636 173.354 144.306 173.354 144.306C173.354 144.306 175.241 143.307 174.908 135.647C174.575 127.988 176.795 137.867 176.795 137.867V137.867Z" fill="#CCAC8D"/>
<path d="M118.407 134.205C118.897 134.205 119.295 133.807 119.295 133.317C119.295 132.826 118.897 132.428 118.407 132.428C117.916 132.428 117.519 132.826 117.519 133.317C117.519 133.807 117.916 134.205 118.407 134.205Z" fill="#442823"/>
<path d="M113.301 139.533C113.791 139.533 114.189 139.135 114.189 138.645C114.189 138.154 113.791 137.757 113.301 137.757C112.81 137.757 112.413 138.154 112.413 138.645C112.413 139.135 112.81 139.533 113.301 139.533Z" fill="#442823"/>
<path d="M111.636 134.205C112.126 134.205 112.524 133.807 112.524 133.317C112.524 132.826 112.126 132.428 111.636 132.428C111.145 132.428 110.748 132.826 110.748 133.317C110.748 133.807 111.145 134.205 111.636 134.205Z" fill="#442823"/>
<path d="M140.053 134.205C140.543 134.205 140.941 133.807 140.941 133.317C140.941 132.826 140.543 132.428 140.053 132.428C139.562 132.428 139.165 132.826 139.165 133.317C139.165 133.807 139.562 134.205 140.053 134.205Z" fill="#442823"/>
<path d="M145.159 139.533C145.649 139.533 146.047 139.135 146.047 138.645C146.047 138.154 145.649 137.757 145.159 137.757C144.668 137.757 144.271 138.154 144.271 138.645C144.271 139.135 144.668 139.533 145.159 139.533Z" fill="#442823"/>
<path d="M146.824 134.205C147.314 134.205 147.712 133.807 147.712 133.317C147.712 132.826 147.314 132.428 146.824 132.428C146.333 132.428 145.936 132.826 145.936 133.317C145.936 133.807 146.333 134.205 146.824 134.205Z" fill="#442823"/>
</svg>
