<svg width="257" height="257" viewBox="0 0 257 257" fill="none" xmlns="http://www.w3.org/2000/svg">
<rect x="0.984985" y="0.985107" width="255" height="255" rx="31.5" fill="white"/>
<rect x="0.984985" y="0.985107" width="255" height="255" rx="31.5" stroke="white"/>
<path d="M162.438 145.091L166.547 134.701H178.41L172.78 118.94L179.821 101.134L199.989 154.681H185.116L181.669 145.091H162.438Z" fill="#3D3D3D"/>
<path d="M149.75 154.682L171.34 101.135H157.027L142.257 135.738L131.756 101.135H120.754L109.478 135.738L101.525 119.97L94.3285 142.141L101.635 154.682H115.721L125.911 123.65L135.626 154.682H149.75" fill="#5A0FC8"/>
<path d="M71.3527 136.3H80.1689C82.8398 136.3 85.2179 136.002 87.3031 135.405L89.5838 128.381L95.9555 108.749C95.4703 107.98 94.9159 107.252 94.2927 106.566C91.0206 102.945 86.2338 101.134 79.9315 101.134H57.7664V154.681H71.3527V136.3V136.3ZM83.0228 113.454C84.3004 114.739 84.9396 116.461 84.9396 118.617C84.9396 120.79 84.3774 122.513 83.2541 123.787C82.0214 125.202 79.7532 125.909 76.4475 125.909H71.3527V111.524H76.4849C79.5654 111.524 81.7445 112.167 83.0228 113.454" fill="#3D3D3D"/>
</svg>
