<svg width="257" height="257" viewBox="0 0 257 257" fill="none" xmlns="http://www.w3.org/2000/svg">
<rect x="1.36548" y="0.985107" width="255" height="255" rx="31.5" fill="white"/>
<rect x="1.36548" y="0.985107" width="255" height="255" rx="31.5" stroke="white"/>
<path d="M182.132 146.544V153.046H193.879C196.286 153.046 200.417 151.286 200.561 146.364V143.85C200.561 139.647 197.112 137.168 193.879 137.168H188.023V134.15H199.627V127.612H188.49C185.616 127.612 181.772 129.983 181.772 134.402V136.665C181.772 141.084 185.58 143.347 188.49 143.347C196.573 143.383 186.55 143.347 194.022 143.347V146.508L182.132 146.544ZM119.193 144.963C119.193 144.963 125.48 144.424 125.48 136.306C125.48 128.187 117.864 127.432 117.864 127.432H104.141V153.046H111.038V146.867L117.002 153.046H127.204L119.193 144.963V144.963ZM116.535 139.718H111.038V133.863H116.571C116.571 133.863 118.115 134.438 118.115 136.773C118.115 139.108 116.535 139.718 116.535 139.718V139.718ZM142.508 127.612H135.503C130.509 127.612 128.821 132.139 128.821 134.294V153.046H135.826V148.556H142.4V153.046H149.19V134.294C149.19 128.834 144.232 127.612 142.508 127.612V127.612ZM142.4 141.299H135.79V135.084C135.79 135.084 135.79 133.683 137.981 133.683H140.388C142.328 133.683 142.364 135.084 142.364 135.084V141.299H142.4V141.299ZM152.387 127.612H159.679V153.046H152.387V127.612ZM169.918 146.472V127.612H162.661V153.046H179.725V146.472H169.918Z" fill="#CC0000"/>
<path d="M60.853 153.046H89.2328C89.2328 153.046 83.8083 128.295 101.77 118.272C105.686 116.368 118.151 109.255 138.556 124.343C139.203 123.804 139.813 123.373 139.813 123.373C139.813 123.373 121.133 104.729 100.333 106.812C89.8794 107.746 77.0187 117.266 69.4747 129.84C61.9307 142.413 60.853 153.046 60.853 153.046Z" fill="#CC0000"/>
<path d="M60.853 153.046H89.2328C89.2328 153.046 83.8083 128.295 101.77 118.272C105.686 116.368 118.151 109.255 138.556 124.343C139.203 123.804 139.813 123.373 139.813 123.373C139.813 123.373 121.133 104.729 100.333 106.812C89.8794 107.746 77.0187 117.266 69.4747 129.84C61.9307 142.413 60.853 153.046 60.853 153.046Z" fill="#CC0000"/>
<path d="M60.853 153.046H89.2328C89.2328 153.046 83.8083 128.295 101.77 118.272C105.686 116.368 118.151 109.255 138.556 124.343C139.203 123.804 139.813 123.373 139.813 123.373C139.813 123.373 121.133 104.729 100.333 106.812C89.8435 107.746 76.9828 117.266 69.4388 129.839C61.8948 142.413 60.853 153.046 60.853 153.046ZM119.984 108.824L120.127 106.417C119.804 106.238 118.906 105.806 116.643 105.16L116.499 107.531C117.684 107.926 118.834 108.357 119.984 108.824Z" fill="#CC0000"/>
<path d="M116.571 116.44L116.427 118.703C117.613 118.739 118.798 118.883 119.984 119.134L120.127 116.907C118.906 116.655 117.72 116.512 116.571 116.44ZM103.279 105.232H103.638L102.92 103.04C101.806 103.04 100.657 103.112 99.4711 103.256L100.154 105.375C101.195 105.268 102.237 105.232 103.279 105.232V105.232ZM105.003 118.452L105.83 120.93C106.871 120.427 107.913 119.996 108.955 119.673L108.165 117.302C106.943 117.661 105.901 118.056 105.003 118.452ZM88.694 109.004L87.0774 106.525C86.1793 106.992 85.2453 107.495 84.2753 108.07L85.9278 110.584C86.8619 110.009 87.76 109.471 88.694 109.004ZM96.0583 125.169L97.7827 127.756C98.3934 126.858 99.1119 126.032 99.9022 125.205L98.2856 122.762C97.4594 123.517 96.705 124.343 96.0583 125.169ZM90.8494 136.737L93.7592 139.036C93.9029 137.635 94.1544 136.234 94.5136 134.833L91.9271 132.785C91.4601 134.114 91.1368 135.444 90.8494 136.737V136.737ZM75.1148 119.673L72.5642 117.446C71.6302 118.344 70.7321 119.242 69.9058 120.14L72.672 122.511C73.4264 121.541 74.2526 120.571 75.1148 119.673ZM64.2658 135.731L60.1346 134.222C59.452 135.767 58.6976 137.563 58.3384 138.533L62.4696 140.042C62.9366 138.82 63.691 137.06 64.2658 135.731ZM90.3105 145.861C90.3824 147.765 90.562 149.31 90.7416 150.388L95.0525 151.933C94.7292 150.532 94.4059 148.951 94.1903 147.262L90.3105 145.861Z" fill="#CC0000"/>
</svg>
