<svg width="256" height="256" viewBox="0 0 256 256" fill="none" xmlns="http://www.w3.org/2000/svg">
<rect x="0.5" y="0.5" width="255" height="255" rx="31.5" fill="white"/>
<rect x="0.5" y="0.5" width="255" height="255" rx="31.5" stroke="white"/>
<path d="M100.853 140.706C93.7875 140.706 88.0285 134.902 88.0285 127.786C88.0285 120.669 93.7875 114.865 100.853 114.865C107.918 114.865 113.677 120.669 113.677 127.786C113.677 134.897 107.913 140.706 100.853 140.706ZM70.0601 166.36C63.0049 166.345 57.2611 160.515 57.2815 153.399C57.2855 149.986 58.6424 146.713 61.0549 144.299C63.4673 141.885 66.7385 140.525 70.1516 140.518C77.2119 140.534 82.9556 146.364 82.9302 153.485C82.9235 156.897 81.5656 160.167 79.1535 162.58C76.7415 164.993 73.4719 166.352 70.0601 166.36ZM186.776 166.36C183.363 166.367 180.087 165.021 177.664 162.618C175.241 160.214 173.87 156.949 173.85 153.536C173.814 146.41 179.532 140.559 186.582 140.523C189.993 140.518 193.268 141.864 195.689 144.266C198.11 146.668 199.482 149.932 199.503 153.343C199.544 160.464 193.821 166.32 186.776 166.36Z" fill="black"/>
<path d="M162.738 115.617C159.251 114.529 155.525 114.077 151.871 113.68C146.219 113.07 143.967 110.864 143.011 105.202C142.472 102.04 141.72 98.7972 140.353 95.9253C137.745 90.4611 131.635 88.0111 125.5 89.4089C120.316 90.5932 116.01 95.7524 115.771 101.049C115.497 107.088 118.953 112.247 124.89 114.026C127.711 114.875 130.71 115.297 133.653 115.515C139.057 115.906 140.861 117.518 142.32 119.978C143.245 121.533 144.134 123.063 144.134 127.689C144.134 132.319 143.235 133.849 142.32 135.4C140.861 137.86 139.057 139.466 133.653 139.868C130.705 140.081 127.706 140.508 124.89 141.357C118.953 143.141 115.497 148.29 115.771 154.339C116.01 159.63 120.321 164.79 125.5 165.974C131.635 167.377 137.745 164.922 140.353 159.458C141.725 156.591 142.472 153.343 143.011 150.181C143.972 144.519 146.224 142.318 151.871 141.703C155.531 141.306 159.251 140.849 162.738 139.761C168.03 138.109 171.212 133.173 171.212 127.689C171.212 122.209 168.03 117.279 162.738 115.617Z" fill="#F44250"/>
</svg>
