<svg width="257" height="257" viewBox="0 0 257 257" fill="none" xmlns="http://www.w3.org/2000/svg">
<rect x="0.604492" y="1.09424" width="255" height="255" rx="31.5" fill="white"/>
<rect x="0.604492" y="1.09424" width="255" height="255" rx="31.5" stroke="white"/>
<path d="M128.646 140.556C135.571 140.556 141.184 134.942 141.184 128.017C141.184 121.092 135.571 115.479 128.646 115.479C121.721 115.479 116.107 121.092 116.107 128.017C116.107 134.942 121.721 140.556 128.646 140.556Z" fill="#61DAFB"/>
<path d="M128.646 153.706C165.804 153.706 195.926 142.205 195.926 128.017C195.926 113.83 165.804 102.328 128.646 102.328C91.4876 102.328 61.3651 113.83 61.3651 128.017C61.3651 142.205 91.4876 153.706 128.646 153.706Z" stroke="#61DAFB" stroke-width="5"/>
<path d="M106.398 140.862C124.977 173.041 149.999 193.378 162.286 186.284C174.573 179.19 169.472 147.352 150.893 115.173C132.314 82.9929 107.292 62.6567 95.0053 69.7505C82.7185 76.8443 87.8193 108.682 106.398 140.862Z" stroke="#61DAFB" stroke-width="5"/>
<path d="M106.398 115.173C87.8194 147.352 82.7185 179.19 95.0054 186.284C107.292 193.378 132.314 173.041 150.893 140.862C169.472 108.682 174.573 76.8443 162.286 69.7505C149.999 62.6567 124.977 82.9929 106.398 115.173Z" stroke="#61DAFB" stroke-width="5"/>
</svg>
