<svg width="256" height="257" viewBox="0 0 256 257" fill="none" xmlns="http://www.w3.org/2000/svg">
<rect x="0.5" y="0.936035" width="255" height="255" rx="31.5" fill="#F4F2ED"/>
<rect x="0.5" y="0.936035" width="255" height="255" rx="31.5" stroke="#F4F2ED"/>
<path d="M151.756 136.647C161.103 136.647 174.627 134.72 174.627 123.602C174.655 122.744 174.577 121.886 174.395 121.047L168.829 96.8684C167.544 91.5487 166.415 89.1353 157.076 84.4656C149.828 80.7596 134.041 74.6404 129.371 74.6404C125.023 74.6404 123.76 80.2441 118.575 80.2441C113.584 80.2441 109.878 76.06 105.208 76.06C100.725 76.06 97.8035 79.1159 95.547 85.3995C95.547 85.3995 89.2634 103.122 88.4565 105.692C88.3282 106.164 88.2728 106.653 88.2921 107.142C88.2921 114.031 115.414 136.617 151.756 136.617M176.061 128.115C177.354 134.234 177.354 134.877 177.354 135.683C177.354 146.144 165.593 151.949 150.135 151.949C115.197 151.972 84.5936 131.499 84.5936 117.968C84.5916 116.085 84.9756 114.221 85.7219 112.492C73.1546 113.119 56.8889 115.361 56.8889 129.721C56.8889 153.242 112.62 182.232 156.747 182.232C190.579 182.232 199.111 166.93 199.111 154.848C199.111 145.344 190.892 134.555 176.076 128.115" fill="#EE0000"/>
<path d="M176.061 128.115C177.354 134.234 177.354 134.877 177.354 135.683C177.354 146.144 165.593 151.949 150.135 151.949C115.197 151.972 84.5937 131.499 84.5937 117.968C84.5916 116.085 84.9756 114.221 85.7219 112.492L88.4565 105.722C88.3312 106.185 88.2758 106.663 88.2921 107.142C88.2921 114.031 115.414 136.617 151.756 136.617C161.103 136.617 174.627 134.69 174.627 123.572C174.655 122.714 174.577 121.856 174.395 121.017L176.061 128.115Z" fill="black"/>
</svg>
