<svg width="257" height="257" viewBox="0 0 257 257" fill="none" xmlns="http://www.w3.org/2000/svg">
<rect x="0.813354" y="0.985107" width="255" height="255" rx="31.5" fill="#F4F2ED"/>
<rect x="0.813354" y="0.985107" width="255" height="255" rx="31.5" stroke="#F4F2ED"/>
<path d="M194.245 160.722C186.655 164.678 147.337 180.844 138.966 185.208C130.596 189.573 125.946 189.531 119.333 186.369C112.721 183.208 70.8797 166.307 63.3425 162.704C59.5758 160.904 57.5947 159.384 57.5947 157.949V143.573C57.5947 143.573 112.067 131.715 120.861 128.56C129.654 125.405 132.705 125.291 140.189 128.032C147.673 130.774 192.421 138.848 199.817 141.557L199.814 155.729C199.815 157.15 198.108 158.709 194.245 160.722" fill="#912626"/>
<path d="M194.242 146.432C186.653 150.386 147.336 166.553 138.965 170.916C130.595 175.281 125.945 175.238 119.333 172.077C112.72 168.918 70.881 152.014 63.3443 148.414C55.8076 144.811 55.6498 142.332 63.0532 139.433C70.4565 136.533 112.067 120.208 120.862 117.053C129.655 113.899 132.705 113.784 140.189 116.526C147.673 119.267 186.755 134.823 194.15 137.532C201.548 140.243 201.831 142.476 194.242 146.432" fill="#C6302B"/>
<path d="M194.245 137.462C186.655 141.418 147.337 157.584 138.966 161.949C130.596 166.312 125.946 166.27 119.333 163.109C112.72 159.949 70.8797 143.047 63.3425 139.444C59.5758 137.644 57.5947 136.126 57.5947 134.69V120.313C57.5947 120.313 112.067 108.455 120.861 105.3C129.654 102.145 132.705 102.03 140.189 104.772C147.674 107.514 192.421 115.585 199.817 118.295L199.814 132.469C199.815 133.889 198.108 135.448 194.245 137.462Z" fill="#912626"/>
<path d="M194.242 123.171C186.653 127.127 147.336 143.292 138.965 147.657C130.595 152.02 125.945 151.978 119.333 148.817C112.72 145.658 70.881 128.754 63.3443 125.153C55.8076 121.552 55.6498 119.072 63.0532 116.172C70.4565 113.273 112.067 96.9472 120.862 93.7927C129.655 90.6383 132.705 90.5238 140.189 93.2655C147.673 96.0066 186.755 111.562 194.15 114.271C201.548 116.982 201.831 119.216 194.242 123.171" fill="#C6302B"/>
<path d="M194.245 113.339C186.655 117.294 147.337 133.461 138.966 137.827C130.596 142.19 125.946 142.147 119.333 138.986C112.72 135.827 70.8797 118.923 63.3425 115.322C59.5758 113.52 57.5947 112.002 57.5947 110.568V96.1899C57.5947 96.1899 112.067 84.3327 120.861 81.1782C129.654 78.0227 132.705 77.9093 140.189 80.6504C147.674 83.3921 192.421 91.4638 199.817 94.1732L199.814 108.347C199.815 109.766 198.108 111.325 194.245 113.339Z" fill="#912626"/>
<path d="M194.242 99.0483C186.652 103.004 147.336 119.171 138.965 123.534C130.595 127.897 125.945 127.854 119.333 124.695C112.721 121.534 70.8807 104.632 63.3446 101.03C55.8073 97.4289 55.6501 94.9483 63.0529 92.0489C70.4562 89.15 112.067 72.8261 120.861 69.6706C129.655 66.5156 132.705 66.4022 140.188 69.1439C147.672 71.8856 186.755 87.4406 194.15 90.15C201.547 92.8589 201.831 95.0928 194.242 99.0483" fill="#C6302B"/>
<path d="M146.085 85.0634L133.858 86.3328L131.12 92.9195L126.699 85.5695L112.58 84.3006L123.115 80.5012L119.954 74.6689L129.818 78.5267L139.117 75.4823L136.604 81.5128L146.085 85.0634V85.0634ZM130.39 117.018L107.57 107.553L140.27 102.533L130.39 117.018V117.018ZM98.7514 88.7245C108.404 88.7245 116.229 91.7578 116.229 95.4989C116.229 99.2411 108.404 102.274 98.7514 102.274C89.0986 102.274 81.2736 99.2406 81.2736 95.4989C81.2736 91.7578 89.0986 88.7245 98.7514 88.7245Z" fill="white"/>
<path d="M160.536 86.864L179.89 94.5118L160.553 102.152L160.536 86.8634" fill="#621B1C"/>
<path d="M139.125 95.3334L160.536 86.8639L160.553 102.152L158.454 102.973L139.125 95.3334Z" fill="#9A2928"/>
</svg>
