<svg width="257" height="256" viewBox="0 0 257 256" fill="none" xmlns="http://www.w3.org/2000/svg">
<rect x="0.537231" y="0.5" width="255" height="255" rx="31.5" fill="#F4F2ED"/>
<rect x="0.537231" y="0.5" width="255" height="255" rx="31.5" stroke="#F4F2ED"/>
<path d="M155.62 154.21C160.868 153.666 164.85 149.142 164.669 143.712C164.488 138.282 159.963 133.939 154.534 133.939H154.172C148.561 134.12 144.217 138.825 144.399 144.436C144.58 147.151 145.665 149.504 147.294 151.132C141.141 163.259 131.73 172.127 117.613 179.548C108.021 184.616 98.0668 186.426 88.1129 185.159C79.9685 184.073 73.634 180.454 69.6518 174.48C63.8607 165.612 63.3179 156.019 68.2046 146.427C71.6435 139.549 77.0724 134.481 80.5113 131.947C79.7874 129.595 78.7013 125.613 78.1585 122.717C51.9157 141.721 54.6307 167.422 62.594 179.548C68.5663 188.598 80.6924 194.209 94.0852 194.209C97.7046 194.209 101.324 193.846 104.944 192.942C128.11 188.417 145.666 174.661 155.62 154.21V154.21ZM187.473 131.767C173.718 115.659 153.448 106.79 130.282 106.79H127.386C125.757 103.532 122.319 101.36 118.518 101.36H118.156C112.546 101.541 108.202 106.247 108.383 111.858C108.564 117.287 113.089 121.631 118.518 121.631H118.88C122.861 121.45 126.3 118.916 127.748 115.477H131.006C144.761 115.477 157.791 119.459 169.556 127.242C178.605 133.215 185.12 140.997 188.74 150.409C191.816 158.01 191.635 165.431 188.378 171.766C183.31 181.358 174.804 186.607 163.583 186.607C156.344 186.607 149.466 184.435 145.846 182.806C143.856 184.616 140.236 187.511 137.702 189.322C145.485 192.941 153.448 194.932 161.049 194.932C178.424 194.932 191.274 185.34 196.16 175.747C201.409 165.25 201.046 147.151 187.473 131.767V131.767ZM95.533 157.286C95.7141 162.716 100.239 167.059 105.668 167.059H106.03C111.641 166.879 115.984 162.172 115.803 156.562C115.622 151.132 111.097 146.789 105.668 146.789H105.306C104.944 146.789 104.401 146.789 104.04 146.969C96.6191 134.662 93.5424 121.269 94.6285 106.79C95.3518 95.9302 98.9718 86.5186 105.306 78.7358C110.555 72.0391 120.69 68.7814 127.567 68.6008C146.751 68.2386 154.895 92.1291 155.439 101.722C157.791 102.265 161.773 103.532 164.488 104.437C162.316 75.1169 144.217 59.9136 126.844 59.9136C110.555 59.9136 95.533 71.678 89.5602 89.053C81.2352 112.22 86.6646 134.481 96.7996 152.037C95.8952 153.304 95.3518 155.295 95.533 157.286V157.286Z" fill="#764ABC"/>
</svg>
