<svg width="257" height="257" viewBox="0 0 257 257" fill="none" xmlns="http://www.w3.org/2000/svg">
<rect x="0.604492" y="0.797119" width="255" height="255" rx="31.5" fill="white"/>
<rect x="0.604492" y="0.797119" width="255" height="255" rx="31.5" stroke="white"/>
<path d="M179.999 136.704C175.037 136.73 170.725 137.925 167.114 139.692C165.789 137.068 164.464 134.73 164.231 133.015C163.971 131.015 163.659 129.794 163.971 127.404C164.283 125.014 165.685 121.611 165.659 121.352C165.633 121.092 165.348 119.871 162.49 119.845C159.633 119.819 157.165 120.39 156.879 121.144C156.593 121.897 156.048 123.612 155.684 125.378C155.191 127.976 149.969 137.25 146.982 142.108C146.02 140.211 145.189 138.549 145.007 137.224C144.748 135.224 144.436 134.003 144.748 131.613C145.059 129.223 146.462 125.82 146.436 125.56C146.41 125.3 146.124 124.079 143.267 124.053C140.409 124.027 137.942 124.599 137.656 125.352C137.37 126.105 137.058 127.872 136.461 129.586C135.863 131.301 128.927 146.783 127.109 150.784C126.174 152.836 125.368 154.473 124.797 155.59C124.797 155.59 124.771 155.668 124.693 155.798C124.199 156.759 123.914 157.278 123.914 157.278C123.914 157.278 123.914 157.278 123.914 157.304C123.524 158.006 123.108 158.655 122.901 158.655C122.745 158.655 122.459 156.785 122.953 154.239C123.992 148.862 126.459 140.497 126.434 140.211C126.434 140.055 126.901 138.601 124.823 137.847C122.797 137.094 122.069 138.341 121.887 138.341C121.706 138.341 121.576 138.782 121.576 138.782C121.576 138.782 123.836 129.379 117.263 129.379C113.159 129.379 107.496 133.873 104.69 137.925C102.924 138.886 99.1572 140.939 95.1307 143.147C93.598 144.004 92.0134 144.861 90.5327 145.666C90.4288 145.563 90.3249 145.433 90.2209 145.329C82.2719 136.834 67.5686 130.833 68.1921 119.429C68.4259 115.273 69.8546 104.362 96.4296 91.1138C118.303 80.3332 135.707 83.3206 138.721 89.9448C143.033 99.4006 129.395 116.961 106.795 119.507C98.17 120.468 93.65 117.143 92.507 115.896C91.312 114.597 91.1302 114.52 90.6885 114.779C89.9612 115.169 90.4288 116.338 90.6885 117.013C91.364 118.78 94.1435 121.897 98.8455 123.43C103.002 124.781 113.107 125.534 125.342 120.806C139.033 115.507 149.735 100.777 146.592 88.4382C143.449 75.917 122.667 71.7866 103.002 78.7745C91.312 82.9309 78.635 89.4772 69.5169 97.9978C58.6843 108.129 56.9698 116.935 57.6712 120.624C60.191 133.717 78.2453 142.237 85.4671 148.55C85.1034 148.758 84.7657 148.94 84.4799 149.095C80.8691 150.888 67.101 158.084 63.672 165.695C59.7754 174.32 64.2955 180.502 67.2829 181.333C76.5568 183.905 86.0905 179.281 91.2081 171.644C96.3256 164.007 95.7022 154.083 93.3382 149.537C93.3123 149.485 93.2863 149.433 93.2343 149.381C94.1695 148.836 95.1307 148.264 96.0659 147.719C97.9103 146.628 99.7287 145.614 101.287 144.783C100.404 147.199 99.7547 150.083 99.4429 154.239C99.0533 159.123 101.054 165.461 103.677 167.955C104.846 169.046 106.223 169.072 107.106 169.072C110.172 169.072 111.548 166.526 113.081 163.513C114.951 159.824 116.64 155.538 116.64 155.538C116.64 155.538 114.536 167.124 120.251 167.124C122.329 167.124 124.433 164.422 125.368 163.045C125.368 163.071 125.368 163.071 125.368 163.071C125.368 163.071 125.42 162.993 125.524 162.812C125.732 162.474 125.862 162.266 125.862 162.266C125.862 162.266 125.862 162.24 125.862 162.214C126.693 160.759 128.564 157.46 131.343 151.979C134.928 144.913 138.383 136.081 138.383 136.081C138.383 136.081 138.695 138.237 139.76 141.822C140.383 143.926 141.682 146.238 142.721 148.472C141.89 149.641 141.371 150.29 141.371 150.29C141.371 150.29 141.371 150.29 141.397 150.316C140.721 151.2 139.994 152.161 139.188 153.096C136.357 156.473 132.98 160.344 132.512 161.461C131.967 162.786 132.097 163.747 133.136 164.526C133.889 165.098 135.24 165.175 136.617 165.098C139.162 164.916 140.955 164.292 141.838 163.903C143.215 163.409 144.826 162.656 146.332 161.539C149.112 159.486 150.8 156.551 150.644 152.68C150.567 150.55 149.865 148.42 149.008 146.42C149.268 146.056 149.501 145.692 149.761 145.329C154.151 138.912 157.554 131.872 157.554 131.872C157.554 131.872 157.866 134.029 158.931 137.613C159.451 139.432 160.516 141.406 161.451 143.328C157.321 146.68 154.775 150.576 153.866 153.122C152.229 157.85 153.502 159.98 155.918 160.474C157.009 160.707 158.568 160.188 159.711 159.694C161.165 159.227 162.88 158.421 164.516 157.226C167.296 155.174 169.972 152.317 169.816 148.446C169.738 146.68 169.27 144.939 168.621 143.251C172.128 141.796 176.648 140.991 182.415 141.666C194.78 143.121 197.222 150.836 196.754 154.083C196.287 157.33 193.689 159.097 192.832 159.642C191.975 160.188 191.689 160.37 191.767 160.759C191.871 161.331 192.286 161.305 193.014 161.201C194.027 161.019 199.508 158.577 199.742 152.602C200.132 144.965 192.858 136.626 179.999 136.704ZM84.6098 168.864C80.5054 173.332 74.7903 175.021 72.3225 173.592C69.6728 172.06 70.7119 165.461 75.7515 160.733C78.8168 157.85 82.7654 155.174 85.3891 153.538C85.9866 153.174 86.8699 152.654 87.9349 152.005C88.1168 151.901 88.2207 151.849 88.2207 151.849C88.4285 151.719 88.6363 151.589 88.8441 151.459C90.6885 158.214 88.9221 164.162 84.6098 168.864ZM114.484 148.55C113.055 152.031 110.068 160.941 108.249 160.448C106.691 160.032 105.729 153.278 107.938 146.602C109.055 143.251 111.419 139.25 112.795 137.691C115.029 135.198 117.497 134.366 118.095 135.379C118.848 136.704 115.367 146.368 114.484 148.55ZM139.136 160.344C138.539 160.655 137.967 160.863 137.708 160.707C137.526 160.603 137.967 160.188 137.967 160.188C137.967 160.188 141.059 156.863 142.28 155.356C142.981 154.473 143.812 153.434 144.696 152.265C144.696 152.369 144.696 152.499 144.696 152.602C144.696 156.577 140.851 159.253 139.136 160.344ZM158.152 156.005C157.71 155.694 157.788 154.655 159.269 151.407C159.84 150.135 161.191 148.004 163.503 145.952C163.763 146.783 163.945 147.589 163.919 148.342C163.893 153.356 160.308 155.226 158.152 156.005Z" fill="#CD6799"/>
</svg>
