<svg width="257" height="257" viewBox="0 0 257 257" fill="none" xmlns="http://www.w3.org/2000/svg">
<rect x="0.813354" y="1.39111" width="255" height="255" rx="31.5" fill="#F4F2ED"/>
<rect x="0.813354" y="1.39111" width="255" height="255" rx="31.5" stroke="#F4F2ED"/>
<path fill-rule="evenodd" clip-rule="evenodd" d="M86.9462 109.962L129.25 192.295L58.1449 109.962H86.9462Z" fill="#EA6C00"/>
<path fill-rule="evenodd" clip-rule="evenodd" d="M171.566 109.962L129.262 192.295L200.367 109.962H171.566Z" fill="#EA6C00"/>
<path fill-rule="evenodd" clip-rule="evenodd" d="M86.9446 109.962H171.552L129.248 192.295L86.9446 109.962Z" fill="#FDAD00"/>
<path fill-rule="evenodd" clip-rule="evenodd" d="M129.248 64.3328L89.1712 68.5452L86.9446 109.962L129.248 64.3328Z" fill="#FDD231"/>
<path fill-rule="evenodd" clip-rule="evenodd" d="M129.249 64.3328L169.326 68.5452L171.552 109.962L129.249 64.3328Z" fill="#FDD231"/>
<path fill-rule="evenodd" clip-rule="evenodd" d="M200.367 109.962L169.339 68.5453L171.566 109.962H200.367Z" fill="#FDAD00"/>
<path fill-rule="evenodd" clip-rule="evenodd" d="M58.1449 109.962L89.1727 68.5453L86.9461 109.962H58.1449Z" fill="#FDAD00"/>
<path fill-rule="evenodd" clip-rule="evenodd" d="M129.248 64.3328L86.9446 109.962H171.552L129.248 64.3328Z" fill="#FEEEB7"/>
</svg>
