<svg width="256" height="257" viewBox="0 0 256 257" fill="none" xmlns="http://www.w3.org/2000/svg">
<rect x="0.5" y="0.936035" width="255" height="255" rx="31.5" fill="white"/>
<rect x="0.5" y="0.936035" width="255" height="255" rx="31.5" stroke="white"/>
<path d="M199.504 89.7288C199.504 89.7288 152.096 54.8441 115.423 62.8944L112.739 63.7889C107.372 65.5779 102.9 68.2613 100.216 71.8392L98.4274 74.5227L85.0103 97.7791L108.267 102.252C118.106 108.513 130.629 111.196 142.257 108.513L183.403 116.563L199.504 89.7288Z" fill="#76B3E1"/>
<path opacity="0.3" d="M199.504 89.7288C199.504 89.7288 152.096 54.8441 115.423 62.8944L112.739 63.7889C107.372 65.5779 102.9 68.2613 100.216 71.8392L98.4274 74.5227L85.0103 97.7791L108.267 102.252C118.106 108.513 130.629 111.196 142.257 108.513L183.403 116.563L199.504 89.7288Z" fill="url(#paint0_linear_412_35)"/>
<path d="M100.216 89.7288L96.6383 90.6233C81.4322 95.0957 76.9598 109.407 85.0101 121.93C93.9549 133.558 112.739 139.82 127.945 135.347L183.403 116.563C183.403 116.563 135.995 81.6785 100.216 89.7288Z" fill="#518AC8"/>
<path opacity="0.3" d="M100.216 89.7288L96.6383 90.6233C81.4322 95.0957 76.9598 109.407 85.0101 121.93C93.9549 133.558 112.739 139.82 127.945 135.347L183.403 116.563C183.403 116.563 135.995 81.6785 100.216 89.7288Z" fill="url(#paint1_linear_412_35)"/>
<path d="M173.564 129.98C168.556 123.724 161.794 119.105 154.145 116.715C146.496 114.324 138.308 114.271 130.629 116.563L75.171 134.453L57.2814 165.76L157.463 182.755L175.353 150.553C178.931 144.292 178.036 137.136 173.564 129.98Z" fill="url(#paint2_linear_412_35)"/>
<path d="M155.674 161.287C150.666 155.031 143.905 150.412 136.256 148.021C128.607 145.631 120.418 145.578 112.739 147.87L57.2814 165.76C57.2814 165.76 104.689 201.539 141.362 192.594L144.046 191.699C159.252 187.227 164.619 172.915 155.674 161.287Z" fill="url(#paint3_linear_412_35)"/>
<defs>
<linearGradient id="paint0_linear_412_35" x1="78.3017" y1="61.1055" x2="189.664" y2="115.221" gradientUnits="userSpaceOnUse">
<stop offset="0.1" stop-color="#76B3E1"/>
<stop offset="0.3" stop-color="#DCF2FD"/>
<stop offset="1" stop-color="#76B3E1"/>
</linearGradient>
<linearGradient id="paint1_linear_412_35" x1="139.394" y1="87.582" x2="119.895" y2="152.521" gradientUnits="userSpaceOnUse">
<stop stop-color="#76B3E1"/>
<stop offset="0.5" stop-color="#4377BB"/>
<stop offset="1" stop-color="#1F3B77"/>
</linearGradient>
<linearGradient id="paint2_linear_412_35" x1="70.1619" y1="115.848" x2="182.777" y2="192.415" gradientUnits="userSpaceOnUse">
<stop stop-color="#315AA9"/>
<stop offset="0.5" stop-color="#518AC8"/>
<stop offset="1" stop-color="#315AA9"/>
</linearGradient>
<linearGradient id="paint3_linear_412_35" x1="120.968" y1="125.061" x2="75.5288" y2="291.702" gradientUnits="userSpaceOnUse">
<stop stop-color="#4377BB"/>
<stop offset="0.5" stop-color="#1A336B"/>
<stop offset="1" stop-color="#1A336B"/>
</linearGradient>
</defs>
</svg>
