<svg width="256" height="256" viewBox="0 0 256 256" fill="none" xmlns="http://www.w3.org/2000/svg">
<rect x="0.5" y="0.5" width="255" height="255" rx="31.5" fill="#F4F2ED"/>
<rect x="0.5" y="0.5" width="255" height="255" rx="31.5" stroke="#F4F2ED"/>
<path fill-rule="evenodd" clip-rule="evenodd" d="M85.8979 73.5508H172.093V159.746H85.8979V73.5508Z" fill="white"/>
<path d="M138.813 121.876H110.951V134.987H138.145C139.753 134.987 141.227 134.331 142.434 133.284C143.502 132.233 144.175 130.66 144.175 128.694C144.212 127.002 143.694 125.345 142.701 123.975C141.628 122.661 140.421 121.876 138.813 121.876ZM139.753 106.008C140.96 105.223 141.494 103.517 141.494 101.288C141.494 99.3232 140.96 97.8795 140.02 96.9615C139.05 96.1277 137.817 95.6636 136.538 95.6513H110.947V107.451H136.004C137.34 107.451 138.68 106.796 139.753 106.008Z" fill="#0AB3AF"/>
<path d="M184.061 56.3118H74.9167C71.4387 56.3118 68.6589 59.083 68.6589 62.4101V171.361C68.6589 174.692 71.4387 176.77 74.7788 176.77H90.9059V198.534L110.929 176.908H184.066C187.402 176.908 189.487 174.83 189.487 171.365V62.5481C189.487 59.2209 187.402 56.4497 183.928 56.4497L184.057 56.3118H184.061ZM165.715 144.61C164.282 147.126 162.223 149.229 159.737 150.713C157.095 152.372 154.178 153.902 150.838 154.592C147.502 155.423 143.886 156.117 140.132 156.117H90.9059V78.4899H146.804C149.583 78.4899 151.945 79.0458 154.173 80.2914C156.255 81.4033 158.203 82.9246 159.733 84.7304C162.847 88.5138 164.522 93.2771 164.461 98.1769C164.461 101.78 163.487 105.245 161.677 108.572C159.801 111.921 156.868 114.553 153.337 116.058C157.785 117.304 161.263 119.523 163.9 122.708C166.404 126.035 167.659 130.336 167.659 135.741C167.659 139.206 166.96 142.119 165.573 144.61H165.711H165.715Z" fill="#0AB3AF"/>
</svg>
