<svg width="256" height="256" viewBox="0 0 256 256" fill="none" xmlns="http://www.w3.org/2000/svg">
<rect x="0.5" y="0.5" width="255" height="255" rx="31.5" fill="white"/>
<rect x="0.5" y="0.5" width="255" height="255" rx="31.5" stroke="white"/>
<path fill-rule="evenodd" clip-rule="evenodd" d="M150.023 115.538L195.393 112.485C198.447 112.485 200.628 115.538 198.883 117.72L167.037 161.344C166.164 161.781 165.292 162.653 163.983 162.653H92.4384C91.8959 162.588 91.3765 162.395 90.9218 162.092C90.4672 161.789 90.0901 161.384 89.8209 160.908L57.9747 117.72C56.2297 115.538 57.9747 112.048 61.0284 112.485L106.398 115.538L125.593 94.5983C126.902 92.8533 129.956 92.8533 130.828 94.5983L150.023 115.102V115.538ZM159.621 155.673L129.956 144.767V155.673H159.621ZM126.466 155.673V144.767L96.8008 155.673H126.902H126.466ZM122.976 142.586L92.8746 153.492L71.0621 122.955L123.412 142.149L122.976 142.586ZM133.446 142.586L163.983 153.492L185.796 122.955L133.446 142.149V142.586ZM126.466 139.968V103.76L102.036 130.807L126.466 139.532V139.968ZM129.956 139.968V103.76L154.822 130.807L129.956 139.532V139.968ZM94.6196 128.189L100.291 122.082L72.3709 120.337L94.6196 128.189ZM161.802 128.189L156.131 122.082L183.614 120.337L161.802 128.189Z" fill="#006CFF"/>
</svg>
