<svg width="257" height="257" viewBox="0 0 257 257" fill="none" xmlns="http://www.w3.org/2000/svg">
<rect x="0.812988" y="1.2821" width="255" height="255" rx="31.5" fill="#F4F2ED"/>
<rect x="0.812988" y="1.2821" width="255" height="255" rx="31.5" stroke="#F4F2ED"/>
<path d="M194.31 199.3H63.1012C60.0772 199.3 57.5944 196.817 57.5944 193.793V62.6167C57.5944 59.5927 60.0772 57.1099 63.1012 57.1099H194.31C197.334 57.1099 199.817 59.5927 199.817 62.6167V193.825C199.785 196.849 197.334 199.3 194.31 199.3V199.3Z" fill="#4D4D4E"/>
<path d="M90.3807 100.05L164.802 76.4314C164.802 76.4314 170.086 73.6621 168.813 78.7869L169.004 101.546C169.004 101.546 169.927 104.889 165.343 105.716L135.104 115.17L90.3807 100.05Z" fill="#F89820"/>
<path d="M90.3807 100.05C90.3807 100.05 87.4522 100.751 88.3117 105.748L88.1525 127.68C88.1525 127.68 87.8979 130.449 93.15 131.563L166.903 155.309C166.903 155.309 169.386 156.296 169.099 153.24L169.131 128.794C169.131 128.794 169.832 126.279 165.248 124.624L135.104 115.17L90.3807 100.05Z" fill="#F89820"/>
<path d="M122.88 141.113L91.4948 150.694C91.4948 150.694 87.7069 150.821 88.1525 157.92C88.5982 165.018 88.1207 179.31 88.1207 179.31C88.1207 179.31 88.439 181.952 92.0678 180.424L166.489 156.678C166.489 156.678 169.131 156.01 166.903 155.278C164.675 154.577 122.88 141.113 122.88 141.113V141.113Z" fill="url(#paint0_linear_101_141)"/>
<defs>
<linearGradient id="paint0_linear_101_141" x1="92.4746" y1="166.303" x2="167.757" y2="140.256" gradientUnits="userSpaceOnUse">
<stop offset="0.233" stop-color="#F89822"/>
<stop offset="1" stop-color="#C27818"/>
</linearGradient>
</defs>
</svg>
