<svg width="257" height="257" viewBox="0 0 257 257" fill="none" xmlns="http://www.w3.org/2000/svg">
<rect x="0.776123" y="1.39111" width="255" height="255" rx="31.5" fill="white"/>
<rect x="0.776123" y="1.39111" width="255" height="255" rx="31.5" stroke="white"/>
<path d="M179.297 76.02C166.083 57.1184 139.984 51.5159 121.115 63.5329L87.9794 84.6447C85.7503 86.0453 83.6706 87.6739 81.7786 89.5042C79.8842 91.3346 78.1868 93.3572 76.7125 95.5389C75.2383 97.7206 73.9943 100.049 72.9996 102.488C72.0074 104.927 71.2707 107.462 70.8013 110.053C70.4096 112.226 70.196 114.429 70.1675 116.636C70.1366 118.847 70.2909 121.054 70.6257 123.236C70.9604 125.42 71.4755 127.573 72.164 129.672C72.8524 131.771 73.7142 133.807 74.7398 135.764C74.0342 136.836 73.383 137.943 72.7883 139.08C72.1925 140.217 71.656 141.385 71.1788 142.577C70.7016 143.769 70.2862 144.984 69.9325 146.219C69.5787 147.453 69.2891 148.704 69.0612 149.967C68.1142 155.278 68.2393 160.725 69.4292 165.987C70.0227 168.61 70.8749 171.169 71.9765 173.624C73.078 176.078 74.4193 178.419 75.9861 180.608C89.1996 199.51 115.297 205.112 134.165 193.095L167.301 172.071C169.53 170.668 171.605 169.037 173.497 167.204C175.389 165.373 177.086 163.351 178.561 161.17C180.035 158.991 181.279 156.662 182.274 154.224C183.268 151.788 184.007 149.252 184.479 146.662C184.871 144.49 185.082 142.29 185.111 140.082C185.139 137.874 184.985 135.666 184.648 133.485C184.313 131.303 183.798 129.152 183.107 127.053C182.416 124.957 181.554 122.92 180.529 120.964C181.234 119.894 181.887 118.785 182.483 117.648C183.076 116.511 183.615 115.343 184.092 114.151C184.569 112.959 184.987 111.744 185.343 110.509C185.697 109.277 185.991 108.026 186.222 106.763C186.692 104.114 186.896 101.424 186.834 98.7343C186.772 96.0445 186.442 93.3691 185.849 90.7434C185.255 88.1202 184.403 85.5611 183.302 83.1064C182.202 80.6513 180.86 78.3117 179.297 76.1221" fill="#FF3E00"/>
<path d="M117.877 182.436C115.284 183.11 112.603 183.383 109.927 183.248C107.251 183.11 104.612 182.569 102.1 181.636C99.5881 180.704 97.233 179.396 95.1157 177.754C93 176.112 91.1469 174.157 89.6199 171.957C88.6774 170.64 87.8703 169.234 87.2103 167.758C86.5484 166.282 86.0355 164.744 85.6791 163.166C85.3254 161.588 85.126 159.978 85.0904 158.361C85.0548 156.745 85.1806 155.128 85.4655 153.535C85.5106 153.276 85.5628 153.018 85.6198 152.761C85.6744 152.502 85.7361 152.246 85.8026 151.992C85.8667 151.736 85.9379 151.482 86.0138 151.228C86.0874 150.976 86.1682 150.724 86.2512 150.475L86.8756 148.569L88.5777 149.839C89.5534 150.551 90.56 151.223 91.5927 151.85C92.6254 152.479 93.6841 153.063 94.7667 153.599C95.8468 154.138 96.9531 154.632 98.076 155.076C99.1989 155.522 100.341 155.919 101.499 156.268L102.769 156.636L102.655 157.906C102.594 158.77 102.684 159.638 102.921 160.472C103.038 160.89 103.192 161.293 103.379 161.683C103.567 162.072 103.788 162.445 104.039 162.796C104.5 163.459 105.06 164.047 105.699 164.541C106.335 165.035 107.045 165.429 107.802 165.709C108.559 165.989 109.352 166.15 110.16 166.191C110.964 166.234 111.771 166.15 112.552 165.946C112.733 165.899 112.909 165.844 113.084 165.783C113.26 165.721 113.433 165.654 113.602 165.578C113.773 165.505 113.939 165.424 114.105 165.336C114.269 165.251 114.428 165.158 114.585 165.058L147.671 143.944C148.076 143.69 148.454 143.394 148.798 143.061C149.143 142.726 149.449 142.358 149.717 141.962C149.985 141.566 150.208 141.141 150.389 140.697C150.567 140.253 150.7 139.792 150.785 139.322C150.868 138.84 150.904 138.354 150.892 137.865C150.88 137.378 150.819 136.894 150.709 136.416C150.602 135.942 150.446 135.479 150.244 135.032C150.045 134.588 149.798 134.166 149.513 133.769C149.052 133.107 148.494 132.521 147.856 132.027C147.217 131.533 146.507 131.139 145.752 130.859C144.996 130.579 144.201 130.415 143.395 130.375C142.588 130.334 141.781 130.417 141 130.619C140.822 130.667 140.644 130.721 140.468 130.783C140.292 130.845 140.121 130.911 139.95 130.985C139.78 131.061 139.613 131.141 139.45 131.229C139.286 131.315 139.124 131.41 138.968 131.509L126.262 139.576C125.745 139.904 125.213 140.212 124.672 140.502C124.128 140.789 123.577 141.058 123.015 141.304C122.452 141.551 121.88 141.777 121.301 141.979C120.721 142.183 120.135 142.363 119.541 142.522C116.951 143.192 114.276 143.462 111.605 143.325C108.935 143.187 106.302 142.643 103.795 141.715C101.288 140.785 98.9377 139.476 96.8249 137.838C94.7121 136.2 92.8604 134.251 91.3339 132.055C90.3962 130.738 89.5914 129.33 88.9338 127.853C88.2739 126.377 87.7635 124.839 87.4097 123.262C87.056 121.684 86.8614 120.074 86.8281 118.457C86.7925 116.843 86.9183 115.226 87.2056 113.636C87.7668 110.504 88.9748 107.524 90.7523 104.885C92.531 102.247 94.8411 100.008 97.5347 98.3141L130.723 77.2023C131.238 76.8747 131.765 76.5661 132.304 76.2765C132.843 75.9892 133.394 75.721 133.951 75.4741C134.511 75.2271 135.079 75.0022 135.656 74.7999C136.23 74.5957 136.814 74.4129 137.406 74.2538C139.998 73.582 142.678 73.3066 145.351 73.4419C148.027 73.5796 150.664 74.1209 153.176 75.0539C155.688 75.9845 158.04 77.2949 160.158 78.9353C162.273 80.5784 164.125 82.5341 165.651 84.735C166.591 86.0501 167.401 87.4555 168.063 88.9321C168.725 90.4088 169.238 91.9447 169.597 93.5234C169.953 95.1021 170.152 96.7117 170.188 98.3283C170.226 99.945 170.102 101.562 169.817 103.155C169.768 103.416 169.715 103.677 169.656 103.936C169.599 104.194 169.537 104.453 169.471 104.71C169.407 104.968 169.336 105.225 169.262 105.479C169.188 105.735 169.112 105.989 169.029 106.241L168.395 108.147L166.705 106.877C165.727 106.158 164.718 105.484 163.683 104.85C162.648 104.218 161.584 103.629 160.5 103.086C158.328 102.002 156.068 101.103 153.746 100.398L152.473 100.03L152.59 98.7604C152.625 98.326 152.623 97.8892 152.582 97.4571C152.544 97.025 152.466 96.5953 152.352 96.1751C152.236 95.7573 152.086 95.3466 151.899 94.9549C151.714 94.5608 151.493 94.1858 151.241 93.8297C150.778 93.179 150.218 92.6027 149.582 92.1204C148.946 91.6359 148.24 91.2517 147.488 90.9809C145.977 90.4327 144.334 90.359 142.78 90.7696C142.6 90.8171 142.422 90.8717 142.248 90.931C142.073 90.9928 141.9 91.0616 141.729 91.1352C141.56 91.2088 141.391 91.2919 141.228 91.3773C141.064 91.4652 140.902 91.5578 140.746 91.6575L107.598 112.734C107.194 112.988 106.817 113.284 106.475 113.617C106.133 113.949 105.825 114.317 105.556 114.711C105.29 115.108 105.065 115.53 104.885 115.972C104.704 116.416 104.571 116.874 104.486 117.344C104.403 117.826 104.367 118.315 104.379 118.804C104.407 119.783 104.628 120.747 105.027 121.641C105.228 122.086 105.472 122.51 105.756 122.908C106.214 123.564 106.769 124.148 107.403 124.637C108.036 125.128 108.74 125.52 109.49 125.8C110.999 126.361 112.643 126.451 114.205 126.059C114.383 126.009 114.561 125.954 114.737 125.893C114.91 125.831 115.083 125.762 115.254 125.688C115.424 125.614 115.591 125.534 115.755 125.446C115.919 125.361 116.08 125.268 116.237 125.169L128.942 117.116C129.462 116.784 129.992 116.47 130.535 116.181C131.077 115.889 131.63 115.62 132.195 115.371C132.758 115.124 133.33 114.899 133.911 114.697C134.493 114.493 135.081 114.312 135.677 114.156C138.27 113.481 140.948 113.206 143.623 113.339C146.298 113.474 148.936 114.016 151.448 114.946C153.957 115.877 156.312 117.185 158.427 118.828C160.545 120.468 162.396 122.422 163.923 124.623C164.863 125.94 165.67 127.345 166.332 128.822C166.995 130.298 167.508 131.836 167.866 133.413C168.222 134.99 168.422 136.599 168.46 138.216C168.497 139.835 168.372 141.452 168.089 143.042C167.809 144.604 167.368 146.132 166.772 147.603C166.176 149.073 165.428 150.478 164.54 151.793C163.655 153.108 162.634 154.328 161.494 155.432C160.355 156.536 159.104 157.519 157.76 158.364L124.61 179.476C124.09 179.806 123.558 180.117 123.017 180.406C122.473 180.696 121.92 180.964 121.355 181.211C120.793 181.46 120.22 181.686 119.639 181.89C119.06 182.094 118.471 182.277 117.877 182.436" fill="white"/>
</svg>
