<svg width="257" height="257" viewBox="0 0 257 257" fill="none" xmlns="http://www.w3.org/2000/svg">
<rect x="1.32837" y="0.985107" width="255" height="255" rx="31.5" fill="#F4F2ED"/>
<rect x="1.32837" y="0.985107" width="255" height="255" rx="31.5" stroke="#F4F2ED"/>
<path d="M128.977 85.2529C110.013 85.2529 98.1617 94.732 93.4204 113.688C100.532 104.209 108.829 100.656 118.31 103.025C123.72 104.377 127.586 108.302 131.867 112.644C138.838 119.719 146.907 127.907 164.533 127.907C183.495 127.907 195.348 118.428 200.088 99.4698C192.978 108.949 184.681 112.504 175.199 110.135C169.79 108.783 165.924 104.858 161.643 100.516C154.672 93.4409 146.601 85.2529 128.977 85.2529V85.2529ZM93.4204 127.907C74.4586 127.907 62.6053 137.386 57.8657 156.344C64.9759 146.865 73.2724 143.31 82.7551 145.681C88.1633 147.034 92.0297 150.957 96.3104 155.299C103.282 162.373 111.352 170.563 128.977 170.563C147.94 170.563 159.792 161.084 164.533 142.126C157.421 151.605 149.125 155.16 139.644 152.789C134.234 151.439 130.368 147.513 126.087 143.171C119.115 136.097 111.047 127.907 93.4204 127.907V127.907Z" fill="#06B6D4"/>
</svg>
