<svg width="256" height="256" viewBox="0 0 256 256" fill="none" xmlns="http://www.w3.org/2000/svg">
<rect x="0.5" y="0.5" width="255" height="255" rx="31.5" fill="white"/>
<rect x="0.5" y="0.5" width="255" height="255" rx="31.5" stroke="white"/>
<mask id="mask0_301_400" style="mask-type:luminance" maskUnits="userSpaceOnUse" x="57" y="56" width="143" height="143">
<path d="M199.504 56.3118H57.2814V198.534H199.504V56.3118Z" fill="white"/>
</mask>
<g mask="url(#mask0_301_400)">
<path d="M157.837 56.3118H98.9481C75.9362 56.3118 57.2814 74.9666 57.2814 97.9785V156.867C57.2814 179.88 75.9362 198.534 98.9481 198.534H157.837C180.849 198.534 199.504 179.88 199.504 156.867V97.9785C199.504 74.9666 180.849 56.3118 157.837 56.3118Z" fill="#398CCB"/>
<path fill-rule="evenodd" clip-rule="evenodd" d="M128.239 77.1451L147.982 88.5363V94.7996L171.879 108.6V132.207L178.29 135.908V158.703L158.559 170.094L149.799 165.028L128.501 177.325L107.331 165.099L98.694 170.094L78.9631 158.683V135.908L85.1235 132.352V108.6L108.508 95.1001L108.521 95.0996V88.5363L128.239 77.1451ZM147.982 100.723V111.318L128.251 122.709L108.521 111.318V101.016L108.508 101.017L90.2515 111.562V129.391L98.694 124.517L118.425 135.908V158.683L112.455 162.135L128.501 171.402L144.675 162.065L138.828 158.683V135.908L158.559 124.517L166.751 129.247V111.562L147.982 100.723ZM143.957 155.748V141.844L155.995 148.793V162.697L143.957 155.748ZM173.161 141.825L161.123 148.773V162.697L173.161 155.728V141.825ZM84.0914 155.728V141.825L96.1298 148.773V162.677L84.0914 155.728ZM113.296 141.825L101.258 148.773V162.677L113.296 155.728V141.825ZM146.521 137.402L158.559 130.453L170.597 137.402L158.559 144.357L146.521 137.402ZM98.694 130.433L86.6554 137.402L98.694 144.337L110.732 137.402L98.694 130.433ZM113.649 108.357V94.4529L125.674 101.408V115.305L113.649 108.357ZM142.841 94.4529L130.816 101.408V115.299L142.841 108.357V94.4529ZM116.213 90.0168L128.239 83.0683L140.277 90.0168L128.239 96.9657L116.213 90.0168Z" fill="white"/>
</g>
</svg>
