<svg width="257" height="257" viewBox="0 0 257 257" fill="none" xmlns="http://www.w3.org/2000/svg">
<rect x="0.880615" y="0.985107" width="255" height="255" rx="31.5" fill="#F4F2ED"/>
<rect x="0.880615" y="0.985107" width="255" height="255" rx="31.5" stroke="#F4F2ED"/>
<path d="M56.7811 56.7969H199.003V199.019H56.7811V56.7969Z" fill="#017ACB"/>
<path d="M125.07 109.464H131.892V121.241H113.448V173.641L112.959 173.775C112.292 173.952 103.515 173.952 101.626 173.752L100.115 173.619V121.241H81.67V109.464L87.5145 109.397C90.7145 109.352 98.9367 109.352 105.781 109.397C112.626 109.441 121.292 109.464 125.07 109.464V109.464ZM177.137 168.086C174.426 170.952 171.515 172.552 166.67 173.864C164.559 174.441 164.204 174.464 159.448 174.441C154.692 174.419 154.315 174.419 152.003 173.819C146.026 172.286 141.203 169.286 137.915 165.041C136.981 163.841 135.448 161.352 135.448 161.041C135.448 160.952 135.67 160.752 135.959 160.619C136.248 160.486 136.848 160.108 137.337 159.819C137.826 159.53 138.715 158.997 139.315 158.686C139.915 158.375 141.648 157.352 143.159 156.441C144.67 155.53 146.048 154.797 146.203 154.797C146.359 154.797 146.648 155.108 146.87 155.486C148.203 157.73 151.315 160.597 153.515 161.575C154.87 162.152 157.87 162.797 159.315 162.797C160.648 162.797 163.092 162.219 164.403 161.619C165.804 160.975 166.515 160.33 167.359 159.041C167.937 158.13 168.004 157.886 167.981 156.152C167.981 154.552 167.892 154.108 167.448 153.375C166.204 151.33 164.515 150.264 157.67 147.241C150.603 144.108 147.426 142.241 144.848 139.73C142.937 137.864 142.559 137.352 141.359 135.019C139.803 132.019 139.603 131.041 139.581 126.575C139.559 123.441 139.626 122.419 139.959 121.352C140.426 119.752 141.937 116.664 142.626 115.886C144.048 114.219 144.559 113.708 145.559 112.886C148.581 110.397 153.292 108.752 157.803 108.597C158.315 108.597 160.003 108.686 161.581 108.797C166.115 109.175 169.204 110.286 172.181 112.664C174.426 114.441 177.826 118.619 177.492 119.175C177.27 119.508 168.404 125.419 167.826 125.597C167.47 125.708 167.226 125.575 166.737 124.997C163.715 121.375 162.492 120.597 159.559 120.419C157.47 120.286 156.359 120.53 154.959 121.464C153.492 122.441 152.781 123.93 152.781 125.997C152.803 129.019 153.959 130.441 158.226 132.552C160.981 133.908 163.337 135.019 163.515 135.019C163.781 135.019 169.492 137.864 170.981 138.752C177.915 142.819 180.737 146.997 181.47 154.197C182.004 159.619 180.47 164.575 177.137 168.086V168.086Z" fill="white"/>
</svg>
