<svg width="337" height="337" viewBox="0 0 337 337" fill="none" xmlns="http://www.w3.org/2000/svg">
<g filter="url(#filter0_d_32_366)">
<rect x="40.1416" y="36.1882" width="256" height="256" rx="32" fill="#F4F2ED"/>
<rect x="40.6416" y="36.6882" width="255" height="255" rx="31.5" stroke="#F4F2ED"/>
</g>
<path d="M91.8873 135.518C97.26 135.518 101.615 131.163 101.615 125.79C101.615 120.417 97.26 116.062 91.8873 116.062C86.5146 116.062 82.1592 120.417 82.1592 125.79C82.1592 131.163 86.5146 135.518 91.8873 135.518Z" fill="#FF6309"/>
<path d="M161.644 175.782C167.017 175.782 171.372 171.427 171.372 166.054C171.372 160.681 167.017 156.325 161.644 156.325C156.271 156.325 151.915 160.681 151.915 166.054C151.915 171.427 156.271 175.782 161.644 175.782Z" fill="#FFB515"/>
<path d="M161.636 95.2387C167.008 95.2387 171.364 90.8833 171.364 85.5106C171.364 80.1379 167.008 75.7825 161.636 75.7825C156.263 75.7825 151.907 80.1379 151.907 85.5106C151.907 90.8833 156.263 95.2387 161.636 95.2387Z" fill="#C90016"/>
<path d="M138.39 101.718C150.504 101.718 160.554 110.713 162.218 122.374H178.885C178.127 113.211 174.329 104.67 167.977 97.935C163.909 100.006 158.907 100.046 154.658 97.5937C150.406 95.138 147.939 90.7838 147.703 86.2203C144.649 85.5092 141.524 85.1508 138.389 85.1521C132.307 85.1521 126.43 86.4794 121.085 88.9967L129.431 103.449C132.279 102.303 135.32 101.715 138.39 101.718Z" fill="#FF6309"/>
<path d="M114.319 125.79C114.319 118.121 117.924 111.279 123.527 106.868L115.185 92.4172C113.209 93.7981 111.357 95.3498 109.653 97.0543C104.825 101.882 101.362 107.711 99.4573 114.073C103.296 116.56 105.838 120.876 105.838 125.79C105.838 130.703 103.296 135.02 99.4573 137.506C101.362 143.867 104.825 149.696 109.653 154.525C111.356 156.229 113.206 157.78 115.18 159.161L123.524 144.708C117.922 140.298 114.319 133.457 114.319 125.79Z" fill="#FFB515"/>
<path d="M162.219 129.195C160.559 140.86 150.507 149.861 138.39 149.861C135.224 149.861 132.199 149.245 129.428 148.128L121.083 162.581C126.426 165.1 132.307 166.428 138.39 166.428C141.568 166.428 144.691 166.061 147.71 165.358C147.943 160.789 150.41 156.427 154.665 153.97C158.915 151.516 163.92 151.555 167.988 153.631C174.334 146.894 178.128 138.355 178.883 129.195H162.219Z" fill="#C90016"/>
<defs>
<filter id="filter0_d_32_366" x="0.141602" y="0.188232" width="336" height="336" filterUnits="userSpaceOnUse" color-interpolation-filters="sRGB">
<feFlood flood-opacity="0" result="BackgroundImageFix"/>
<feColorMatrix in="SourceAlpha" type="matrix" values="0 0 0 0 0 0 0 0 0 0 0 0 0 0 0 0 0 0 127 0" result="hardAlpha"/>
<feOffset dy="4"/>
<feGaussianBlur stdDeviation="20"/>
<feComposite in2="hardAlpha" operator="out"/>
<feColorMatrix type="matrix" values="0 0 0 0 0.0367917 0 0 0 0 0.0348958 0 0 0 0 0.0484375 0 0 0 0.1 0"/>
<feBlend mode="normal" in2="BackgroundImageFix" result="effect1_dropShadow_32_366"/>
<feBlend mode="normal" in="SourceGraphic" in2="effect1_dropShadow_32_366" result="shape"/>
</filter>
</defs>
</svg>
