<svg width="257" height="257" viewBox="0 0 257 257" fill="none" xmlns="http://www.w3.org/2000/svg">
<rect x="0.641602" y="0.688232" width="255" height="255" rx="31.5" fill="white"/>
<rect x="0.641602" y="0.688232" width="255" height="255" rx="31.5" stroke="white"/>
<path d="M73.7354 141.458C81.3766 141.458 87.5709 135.263 87.5709 127.622C87.5709 119.981 81.3766 113.786 73.7354 113.786C66.0943 113.786 59.8999 119.981 59.8999 127.622C59.8999 135.263 66.0943 141.458 73.7354 141.458Z" fill="#FF6309"/>
<path d="M172.945 198.722C180.586 198.722 186.781 192.527 186.781 184.886C186.781 177.244 180.586 171.049 172.945 171.049C165.303 171.049 159.108 177.244 159.108 184.886C159.108 192.527 165.303 198.722 172.945 198.722Z" fill="#FFB515"/>
<path d="M172.933 84.1711C180.574 84.1711 186.768 77.9767 186.768 70.3355C186.768 62.6944 180.574 56.5 172.933 56.5C165.292 56.5 159.097 62.6944 159.097 70.3355C159.097 77.9767 165.292 84.1711 172.933 84.1711Z" fill="#C90016"/>
<path d="M139.873 93.386C157.101 93.386 171.394 106.178 173.762 122.763H197.465C196.387 109.731 190.986 97.5845 181.952 88.0058C176.167 90.9518 169.053 91.0083 163.01 87.5204C156.962 84.0279 153.454 77.8353 153.117 71.3449C148.774 70.3335 144.33 69.8238 139.871 69.8257C131.221 69.8257 122.863 71.7133 115.262 75.2936L127.131 95.8485C131.181 94.2185 135.507 93.3825 139.873 93.386V93.386Z" fill="#FF6309"/>
<path d="M105.639 127.622C105.639 116.715 110.766 106.984 118.735 100.71L106.87 80.1583C104.059 82.1223 101.426 84.3291 99.0017 86.7533C92.1352 93.6198 87.2111 101.91 84.5017 110.958C89.9611 114.494 93.5762 120.633 93.5762 127.622C93.5762 134.609 89.9611 140.749 84.5017 144.284C87.2111 153.332 92.1352 161.621 99.0017 168.49C101.425 170.913 104.055 173.119 106.863 175.083L118.73 154.528C110.763 148.255 105.639 138.526 105.639 127.622V127.622Z" fill="#FFB515"/>
<path d="M173.763 132.465C171.403 149.055 157.106 161.856 139.873 161.856C135.37 161.856 131.067 160.979 127.127 159.391L115.258 179.947C122.858 183.529 131.221 185.418 139.872 185.418C144.392 185.418 148.834 184.897 153.128 183.897C153.459 177.398 156.968 171.194 163.02 167.7C169.064 164.21 176.182 164.265 181.967 167.217C190.992 157.637 196.39 145.492 197.463 132.465H173.763V132.465Z" fill="#C90016"/>
</svg>
