<svg width="256" height="256" viewBox="0 0 256 256" fill="none" xmlns="http://www.w3.org/2000/svg">
<rect x="0.5" y="0.5" width="255" height="255" rx="31.5" fill="#F4F2ED"/>
<rect x="0.5" y="0.5" width="255" height="255" rx="31.5" stroke="#F4F2ED"/>
<path d="M164.012 101.889L130.011 151.049C129.651 151.571 129.13 151.961 128.527 152.161C127.924 152.362 127.272 152.36 126.67 152.159C126.068 151.956 125.549 151.564 125.192 151.042C124.834 150.519 124.658 149.894 124.69 149.263L126.051 122.121L104.083 117.462C103.613 117.363 103.176 117.15 102.809 116.842C102.443 116.534 102.158 116.14 101.981 115.696C101.804 115.252 101.739 114.771 101.793 114.296C101.847 113.821 102.018 113.367 102.29 112.973L136.291 63.8128C136.652 63.2912 137.173 62.9009 137.776 62.7008C138.379 62.5007 139.031 62.5017 139.633 62.7039C140.235 62.906 140.754 63.2981 141.111 63.8208C141.468 64.3435 141.645 64.9681 141.613 65.6L140.252 92.7417L162.22 97.4002C162.689 97.4996 163.126 97.7129 163.493 98.0209C163.86 98.3291 164.144 98.7225 164.321 99.1665C164.499 99.6105 164.563 100.091 164.51 100.566C164.456 101.041 164.285 101.495 164.012 101.889Z" fill="#FCC72B"/>
<path d="M128.406 192.294C127.502 192.295 126.606 192.118 125.771 191.772C124.935 191.426 124.176 190.918 123.538 190.278L91.4112 158.154C90.126 156.862 89.4056 155.113 89.408 153.291C89.4104 151.468 90.1354 149.72 91.4242 148.432C92.7129 147.143 94.4601 146.418 96.2826 146.415C98.1053 146.413 99.8545 147.133 101.147 148.418L128.406 175.674L187.791 116.292C189.086 115.019 190.831 114.308 192.647 114.315C194.463 114.323 196.203 115.047 197.486 116.332C198.771 117.616 199.496 119.355 199.504 121.172C199.51 122.988 198.8 124.733 197.526 126.028L133.273 190.278C132.635 190.919 131.876 191.426 131.041 191.772C130.206 192.118 129.31 192.295 128.406 192.294Z" fill="#729B1B"/>
<path d="M128.378 192.294C129.283 192.295 130.178 192.118 131.014 191.772C131.849 191.426 132.608 190.918 133.247 190.278L165.373 158.154C166.659 156.862 167.379 155.113 167.376 153.291C167.374 151.468 166.649 149.72 165.36 148.432C164.071 147.143 162.324 146.418 160.502 146.415C158.679 146.413 156.93 147.133 155.637 148.418L128.378 175.674L68.9937 116.292C67.6991 115.019 65.9536 114.308 64.1376 114.315C62.3215 114.323 60.5819 115.047 59.2977 116.332C58.0135 117.616 57.2888 119.355 57.2814 121.172C57.274 122.988 57.9846 124.733 59.2582 126.028L123.511 190.278C124.15 190.919 124.908 191.426 125.744 191.772C126.579 192.118 127.474 192.295 128.378 192.294Z" fill="#729B1B" fill-opacity="0.5"/>
</svg>
