<svg width="256" height="257" viewBox="0 0 256 257" fill="none" xmlns="http://www.w3.org/2000/svg">
<rect x="0.5" y="0.936035" width="255" height="255" rx="31.5" fill="#F4F2ED"/>
<rect x="0.5" y="0.936035" width="255" height="255" rx="31.5" stroke="#F4F2ED"/>
<path d="M144.66 56.7478C144.66 56.9989 144.66 57.25 144.66 57.5143C144.66 61.8394 142.942 65.9873 139.884 69.0455C136.826 72.1038 132.678 73.8219 128.353 73.8219C124.028 73.8219 119.88 72.1038 116.822 69.0455C113.763 65.9873 112.045 61.8394 112.045 57.5143C112.045 57.25 112.045 56.9989 112.045 56.7478H57.2814V198.97H199.504V56.7478H144.66ZM125.155 183.746L118.23 149.479H118.111L110.618 183.746H101.077L90.2666 133.396H99.6891L106.138 167.663H106.257L114.028 133.396H122.842L129.82 168.086H129.939L137.3 133.396H146.55L134.538 183.746H125.155ZM177.038 183.746L173.826 172.54H156.871L154.4 183.746H144.978L157.162 133.396H172.029L186.843 183.746H177.038Z" fill="#654FF0"/>
<path d="M162.831 145.805L158.721 164.28H171.514L166.796 145.805H162.831Z" fill="#654FF0"/>
</svg>
