<svg width="256" height="257" viewBox="0 0 256 257" fill="none" xmlns="http://www.w3.org/2000/svg">
<rect x="0.5" y="0.797119" width="255" height="255" rx="31.5" fill="white"/>
<rect x="0.5" y="0.797119" width="255" height="255" rx="31.5" stroke="white"/>
<path d="M128.393 57.6086L65.5422 93.1642V164.275L128.393 199.831L191.243 164.275V93.1642L128.393 57.6086Z" fill="white"/>
<path d="M76.766 161.822L126.319 189.851V168.02L95.4445 151.037L76.766 161.822ZM73.3764 158.752V100.133L91.5097 110.598V148.275L73.3764 158.752ZM180.221 161.822L130.668 189.851V168.02L161.542 151.037L180.221 161.822V161.822ZM183.61 158.752V100.133L165.477 110.598V148.275L183.61 158.752V158.752ZM181.489 96.3402L130.668 67.5876V88.6958L163.225 106.604L163.474 106.746L181.489 96.3402V96.3402ZM75.4979 96.3402L126.319 67.5876V88.6958L93.7616 106.604L93.5127 106.746L75.4979 96.3402V96.3402Z" fill="#8ED6FB"/>
<path d="M130.668 163.054L161.127 146.308V113.123L130.668 130.711V163.054ZM126.318 163.054L95.8591 146.308V113.123L126.318 130.711V163.054ZM159.065 109.283L128.487 92.4648L97.9094 109.283L128.487 126.942L159.065 109.283" fill="#1C78C0"/>
</svg>
