<svg width="257" height="257" viewBox="0 0 257 257" fill="none" xmlns="http://www.w3.org/2000/svg">
<rect x="0.708862" y="0.985107" width="255" height="255" rx="31.5" fill="white"/>
<rect x="0.708862" y="0.985107" width="255" height="255" rx="31.5" stroke="white"/>
<path d="M67.599 127.906C67.599 152.054 81.6316 172.92 101.98 182.81L72.8805 103.079C69.3921 110.891 67.5924 119.351 67.599 127.906V127.906ZM169.785 124.828C169.785 117.289 167.077 112.067 164.754 108.003C161.662 102.978 158.764 98.723 158.764 93.698C158.764 88.0903 163.016 82.8703 169.007 82.8703C169.277 82.8703 169.534 82.9039 169.799 82.919C158.944 72.9758 144.484 66.9049 128.603 66.9049C107.291 66.9049 88.5406 77.8395 77.6327 94.4015C79.064 94.4444 80.414 94.4734 81.5585 94.4734C87.9393 94.4734 97.8164 93.6992 97.8164 93.6992C101.105 93.5053 101.493 98.3353 98.2087 98.7242C98.2087 98.7242 94.9028 99.1131 91.2255 99.3057L113.44 165.383L126.792 125.344L117.286 99.3046C114.001 99.1119 110.889 98.723 110.889 98.723C107.602 98.5303 107.987 93.5042 111.274 93.698C111.274 93.698 121.349 94.4723 127.343 94.4723C133.723 94.4723 143.601 93.698 143.601 93.698C146.892 93.5042 147.278 98.3342 143.992 98.723C143.992 98.723 140.68 99.1119 137.01 99.3046L159.056 164.882L165.139 144.548C167.778 136.111 169.785 130.05 169.785 124.828V124.828Z" fill="#00749A"/>
<path d="M129.673 133.242L111.37 186.427C116.965 188.076 122.769 188.913 128.603 188.913C135.707 188.913 142.519 187.684 148.861 185.455C148.69 185.189 148.545 184.908 148.426 184.615L129.673 133.242ZM182.131 98.6384C182.393 100.582 182.542 102.669 182.542 104.911C182.542 111.102 181.386 118.061 177.903 126.762L159.269 180.637C177.405 170.061 189.604 150.413 189.604 127.906C189.62 117.676 187.05 107.608 182.131 98.6384V98.6384Z" fill="#00749A"/>
<path d="M128.603 56.7969C89.3925 56.7969 57.4908 88.6962 57.4908 127.906C57.4908 167.121 89.3914 199.02 128.603 199.02C167.811 199.02 199.718 167.122 199.718 127.906C199.717 88.6962 167.811 56.7969 128.603 56.7969ZM128.603 195.76C91.1906 195.76 60.7514 165.32 60.7514 127.906C60.7514 90.4955 91.1894 60.0587 128.603 60.0587C166.013 60.0587 196.45 90.4955 196.45 127.906C196.45 165.32 166.012 195.76 128.603 195.76Z" fill="#00749A"/>
</svg>
