<svg width="256" height="257" viewBox="0 0 256 257" fill="none" xmlns="http://www.w3.org/2000/svg">
<rect x="0.5" y="0.936035" width="255" height="255" rx="31.5" fill="white"/>
<rect x="0.5" y="0.936035" width="255" height="255" rx="31.5" stroke="white"/>
<path fill-rule="evenodd" clip-rule="evenodd" d="M98.3182 64.4167C94.4771 64.4249 90.7171 66.6111 88.7834 69.9462L58.709 122.329C56.8055 125.673 56.8055 130.044 58.709 133.389L88.7834 185.772C90.7173 189.107 94.4771 191.294 98.3182 191.301H158.467C162.308 191.293 166.068 189.107 168.002 185.772L198.076 133.389C199.98 130.044 199.979 125.673 198.076 122.329L168.002 69.9462C166.068 66.6111 162.308 64.4242 158.467 64.4167H98.3182ZM98.8641 95.0615C98.9467 95.0533 99.0334 95.0533 99.1162 95.0615H109.491C109.95 95.071 110.396 95.3371 110.625 95.7368L128.225 127.184C128.313 127.339 128.37 127.512 128.392 127.69C128.414 127.512 128.471 127.339 128.559 127.184L146.117 95.7368C146.353 95.325 146.819 95.0574 147.292 95.0615H157.667C158.586 95.0696 159.274 96.2299 158.843 97.0454L141.664 127.859L158.843 158.63C159.315 159.451 158.61 160.665 157.667 160.656H147.292C146.811 160.652 146.342 160.366 146.117 159.939L128.559 128.492C128.471 128.337 128.413 128.163 128.392 127.986C128.37 128.163 128.313 128.337 128.225 128.492L110.625 159.939C110.406 160.354 109.958 160.638 109.491 160.656H99.1162C98.1737 160.665 97.469 159.451 97.9403 158.63L115.119 127.859L97.9403 97.0454C97.5285 96.3013 98.0309 95.2203 98.8641 95.0615Z" fill="#3498DB"/>
</svg>
