<svg width="257" height="257" viewBox="0 0 257 257" fill="none" xmlns="http://www.w3.org/2000/svg">
<rect x="1.32837" y="1.09424" width="255" height="255" rx="31.5" fill="white"/>
<rect x="1.32837" y="1.09424" width="255" height="255" rx="31.5" stroke="white"/>
<path d="M63.7916 64.6099H194.162V191.425H63.7916V64.6099Z" fill="#2E001E"/>
<path d="M57.8657 58.6838V197.35H200.088V58.6838H57.8657ZM63.7916 64.6098H194.162V191.425H63.7916V64.6098Z" fill="#FF2BC2"/>
<path d="M161.155 116.936C160.266 116.521 159.14 116.343 157.718 116.343C150.251 116.343 145.273 122.091 145.273 131.632C145.273 142.536 150.369 146.921 157.006 146.921C158.429 146.921 159.969 146.743 161.095 146.269V116.936H161.155ZM134.606 132.106C134.606 118.299 143.495 107.513 158.073 107.513C159.318 107.513 159.969 107.513 161.155 107.632V92.2246C161.155 91.869 161.451 91.632 161.747 91.632H171.288C171.762 91.632 171.88 91.8098 171.88 92.1061V146.269C171.88 147.869 171.88 149.884 172.177 152.076C172.177 152.491 172.177 152.55 171.821 152.728C166.843 155.099 161.629 156.165 156.651 156.165C143.792 156.165 134.606 148.224 134.606 132.106V132.106ZM114.399 122.506L130.992 154.684C131.288 155.158 131.11 155.632 130.636 155.632H120.325C119.673 155.632 119.377 155.454 119.08 154.861C115.288 147.039 111.436 138.921 107.466 130.506H107.347C103.792 138.447 99.8805 147.099 96.0879 154.921C95.7916 155.395 95.4953 155.573 95.0212 155.573H85.1842C84.5916 155.573 84.5324 155.099 84.8287 154.743L101.066 123.513L85.362 92.4616C85.0064 91.9876 85.362 91.5728 85.7768 91.5728H95.9694C96.562 91.5728 96.8583 91.6913 97.0361 92.2246C100.769 100.106 104.562 107.869 108.118 115.81H108.236C111.673 107.988 115.466 100.106 119.08 92.3431C119.377 91.869 119.555 91.5728 120.147 91.5728H129.688C130.162 91.5728 130.34 91.9283 130.043 92.4616L114.399 122.506V122.506Z" fill="#FF2BC2"/>
</svg>
